G04 #@! TF.GenerationSoftware,KiCad,Pcbnew,(5.1.5)-3*
G04 #@! TF.CreationDate,2020-04-13T22:53:19+08:00*
G04 #@! TF.ProjectId,encoder_3btn,656e636f-6465-4725-9f33-62746e2e6b69,rev?*
G04 #@! TF.SameCoordinates,Original*
G04 #@! TF.FileFunction,Copper,L1,Top*
G04 #@! TF.FilePolarity,Positive*
%FSLAX46Y46*%
G04 Gerber Fmt 4.6, Leading zero omitted, Abs format (unit mm)*
G04 Created by KiCad (PCBNEW (5.1.5)-3) date 2020-04-13 22:53:19*
%MOMM*%
%LPD*%
G04 APERTURE LIST*
%ADD10C,2.000000*%
%ADD11R,2.000000X2.000000*%
%ADD12R,3.200000X2.000000*%
%ADD13C,6.000000*%
%ADD14C,0.800000*%
%ADD15O,1.700000X1.700000*%
%ADD16R,1.700000X1.700000*%
%ADD17C,1.000000*%
%ADD18C,0.400000*%
G04 APERTURE END LIST*
D10*
X113250000Y-125750000D03*
X113250000Y-130250000D03*
X106750000Y-125750000D03*
X106750000Y-130250000D03*
X113250000Y-115750000D03*
X113250000Y-120250000D03*
X106750000Y-115750000D03*
X106750000Y-120250000D03*
X113250000Y-105750000D03*
X113250000Y-110250000D03*
X106750000Y-105750000D03*
X106750000Y-110250000D03*
D11*
X122500000Y-115500000D03*
D10*
X122500000Y-118000000D03*
X122500000Y-120500000D03*
D12*
X130000000Y-112400000D03*
X130000000Y-123600000D03*
D10*
X137000000Y-115500000D03*
X137000000Y-120500000D03*
D13*
X147500000Y-102500000D03*
D14*
X149750000Y-102500000D03*
X149090990Y-104090990D03*
X147500000Y-104750000D03*
X145909010Y-104090990D03*
X145250000Y-102500000D03*
X145909010Y-100909010D03*
X147500000Y-100250000D03*
X149090990Y-100909010D03*
X104090990Y-100909010D03*
X102500000Y-100250000D03*
X100909010Y-100909010D03*
X100250000Y-102500000D03*
X100909010Y-104090990D03*
X102500000Y-104750000D03*
X104090990Y-104090990D03*
X104750000Y-102500000D03*
D13*
X102500000Y-102500000D03*
X102500000Y-133500000D03*
D14*
X104750000Y-133500000D03*
X104090990Y-135090990D03*
X102500000Y-135750000D03*
X100909010Y-135090990D03*
X100250000Y-133500000D03*
X100909010Y-131909010D03*
X102500000Y-131250000D03*
X104090990Y-131909010D03*
X149090990Y-131909010D03*
X147500000Y-131250000D03*
X145909010Y-131909010D03*
X145250000Y-133500000D03*
X145909010Y-135090990D03*
X147500000Y-135750000D03*
X149090990Y-135090990D03*
X149750000Y-133500000D03*
D13*
X147500000Y-133500000D03*
D15*
X147000000Y-126780000D03*
X147000000Y-124240000D03*
X147000000Y-121700000D03*
X147000000Y-119160000D03*
X147000000Y-116620000D03*
X147000000Y-114080000D03*
X147000000Y-111540000D03*
D16*
X147000000Y-109000000D03*
D17*
X107500000Y-102500000D03*
X112500000Y-102500000D03*
X117500000Y-102500000D03*
X122500000Y-102500000D03*
X127500000Y-102500000D03*
X132500000Y-102500000D03*
X137500000Y-102500000D03*
X142500000Y-102500000D03*
X140000000Y-105000000D03*
X135000000Y-105000000D03*
X130000000Y-105000000D03*
X125000000Y-105000000D03*
X120000000Y-105000000D03*
X110000000Y-110000000D03*
X110000000Y-120000000D03*
X110000000Y-130000000D03*
X102500000Y-107500000D03*
X102500000Y-112500000D03*
X102500000Y-117500000D03*
X102500000Y-122500000D03*
X102500000Y-127500000D03*
X122500000Y-110000000D03*
X127500000Y-115000000D03*
X132500000Y-115000000D03*
X142500000Y-132500000D03*
X107500000Y-132500000D03*
X120000000Y-130000000D03*
X125000000Y-130000000D03*
X130000000Y-130000000D03*
X135000000Y-130000000D03*
X140000000Y-130000000D03*
X145000000Y-130000000D03*
X115000000Y-130000000D03*
X137500000Y-125000000D03*
X137500000Y-112500000D03*
D18*
X122500000Y-114750000D02*
X122500000Y-115500000D01*
X127000000Y-110250000D02*
X122500000Y-114750000D01*
X147000000Y-114080000D02*
X145649700Y-114080000D01*
X141819700Y-110250000D02*
X127000000Y-110250000D01*
X145649700Y-114080000D02*
X141819700Y-110250000D01*
X145649700Y-116620000D02*
X147000000Y-116620000D01*
X144519700Y-117750000D02*
X145649700Y-116620000D01*
X122500000Y-120500000D02*
X124500000Y-120500000D01*
X127250000Y-117750000D02*
X144519700Y-117750000D01*
X124500000Y-120500000D02*
X127250000Y-117750000D01*
X106750000Y-125750000D02*
X113250000Y-125750000D01*
X147000000Y-126780000D02*
X146030000Y-127750000D01*
X115250000Y-127750000D02*
X113250000Y-125750000D01*
X146030000Y-127750000D02*
X115250000Y-127750000D01*
X106750000Y-115750000D02*
X113250000Y-115750000D01*
X142000000Y-126250000D02*
X123750000Y-126250000D01*
X123750000Y-126250000D02*
X113250000Y-115750000D01*
X147000000Y-124240000D02*
X144010000Y-124240000D01*
X144010000Y-124240000D02*
X142000000Y-126250000D01*
X106750000Y-105750000D02*
X113250000Y-105750000D01*
X147750000Y-106500000D02*
X114000000Y-106500000D01*
X147000000Y-121700000D02*
X149000000Y-119700000D01*
X114000000Y-106500000D02*
X113250000Y-105750000D01*
X149000000Y-107750000D02*
X147750000Y-106500000D01*
X149000000Y-119700000D02*
X149000000Y-107750000D01*
X137750000Y-119750000D02*
X137000000Y-120500000D01*
X147000000Y-119160000D02*
X146410000Y-119750000D01*
X146410000Y-119750000D02*
X137750000Y-119750000D01*
G36*
X105115330Y-105254128D02*
G01*
X105050000Y-105582565D01*
X105050000Y-105917435D01*
X105115330Y-106245872D01*
X105243479Y-106555252D01*
X105429523Y-106833687D01*
X105666313Y-107070477D01*
X105944748Y-107256521D01*
X106254128Y-107384670D01*
X106582565Y-107450000D01*
X106917435Y-107450000D01*
X107245872Y-107384670D01*
X107555252Y-107256521D01*
X107833687Y-107070477D01*
X108070477Y-106833687D01*
X108193213Y-106650000D01*
X111806787Y-106650000D01*
X111929523Y-106833687D01*
X112166313Y-107070477D01*
X112444748Y-107256521D01*
X112754128Y-107384670D01*
X113082565Y-107450000D01*
X113417435Y-107450000D01*
X113745872Y-107384670D01*
X113775503Y-107372396D01*
X113823569Y-107386977D01*
X113955793Y-107400000D01*
X113955795Y-107400000D01*
X113999999Y-107404354D01*
X114044203Y-107400000D01*
X147377208Y-107400000D01*
X147423821Y-107446613D01*
X146150000Y-107446613D01*
X146012776Y-107460128D01*
X145880825Y-107500155D01*
X145759219Y-107565155D01*
X145652630Y-107652630D01*
X145565155Y-107759219D01*
X145500155Y-107880825D01*
X145460128Y-108012776D01*
X145446613Y-108150000D01*
X145446613Y-109850000D01*
X145460128Y-109987224D01*
X145500155Y-110119175D01*
X145565155Y-110240781D01*
X145652630Y-110347370D01*
X145759219Y-110434845D01*
X145865593Y-110491703D01*
X145717285Y-110669857D01*
X145572176Y-110936822D01*
X145481937Y-111226967D01*
X145477702Y-111248268D01*
X145625909Y-111490000D01*
X146950000Y-111490000D01*
X146950000Y-111470000D01*
X147050000Y-111470000D01*
X147050000Y-111490000D01*
X147070000Y-111490000D01*
X147070000Y-111590000D01*
X147050000Y-111590000D01*
X147050000Y-111610000D01*
X146950000Y-111610000D01*
X146950000Y-111590000D01*
X145625909Y-111590000D01*
X145477702Y-111831732D01*
X145481937Y-111853033D01*
X145572176Y-112143178D01*
X145717285Y-112410143D01*
X145911689Y-112643669D01*
X146114335Y-112807613D01*
X146011932Y-112876036D01*
X145865230Y-113022738D01*
X142487357Y-109644865D01*
X142459175Y-109610525D01*
X142322132Y-109498057D01*
X142165781Y-109414486D01*
X141996131Y-109363023D01*
X141863907Y-109350000D01*
X141863906Y-109350000D01*
X141819700Y-109345646D01*
X141775494Y-109350000D01*
X127044206Y-109350000D01*
X126999999Y-109345646D01*
X126955793Y-109350000D01*
X126823569Y-109363023D01*
X126653919Y-109414486D01*
X126497568Y-109498057D01*
X126425413Y-109557273D01*
X126394862Y-109582345D01*
X126394860Y-109582347D01*
X126360525Y-109610525D01*
X126332347Y-109644860D01*
X122180595Y-113796613D01*
X121500000Y-113796613D01*
X121362776Y-113810128D01*
X121230825Y-113850155D01*
X121109219Y-113915155D01*
X121002630Y-114002630D01*
X120915155Y-114109219D01*
X120850155Y-114230825D01*
X120810128Y-114362776D01*
X120796613Y-114500000D01*
X120796613Y-116500000D01*
X120810128Y-116637224D01*
X120850155Y-116769175D01*
X120915155Y-116890781D01*
X121002630Y-116997370D01*
X121077275Y-117058629D01*
X120928418Y-117330548D01*
X120828012Y-117650012D01*
X120791860Y-117982925D01*
X120821350Y-118316495D01*
X120915350Y-118637902D01*
X121070247Y-118934795D01*
X121089219Y-118963189D01*
X121381066Y-119048223D01*
X122429289Y-118000000D01*
X122415147Y-117985858D01*
X122485858Y-117915147D01*
X122500000Y-117929289D01*
X122514142Y-117915147D01*
X122584853Y-117985858D01*
X122570711Y-118000000D01*
X123618934Y-119048223D01*
X123910781Y-118963189D01*
X124071582Y-118669452D01*
X124171988Y-118349988D01*
X124208140Y-118017075D01*
X124178650Y-117683505D01*
X124084650Y-117362098D01*
X123929753Y-117065205D01*
X123924426Y-117057233D01*
X123997370Y-116997370D01*
X124084845Y-116890781D01*
X124149845Y-116769175D01*
X124189872Y-116637224D01*
X124203387Y-116500000D01*
X124203387Y-115482925D01*
X135291860Y-115482925D01*
X135321350Y-115816495D01*
X135415350Y-116137902D01*
X135570247Y-116434795D01*
X135589219Y-116463189D01*
X135881066Y-116548223D01*
X136929289Y-115500000D01*
X137070711Y-115500000D01*
X138118934Y-116548223D01*
X138410781Y-116463189D01*
X138571582Y-116169452D01*
X138671988Y-115849988D01*
X138708140Y-115517075D01*
X138678650Y-115183505D01*
X138584650Y-114862098D01*
X138429753Y-114565205D01*
X138410781Y-114536811D01*
X138118934Y-114451777D01*
X137070711Y-115500000D01*
X136929289Y-115500000D01*
X135881066Y-114451777D01*
X135589219Y-114536811D01*
X135428418Y-114830548D01*
X135328012Y-115150012D01*
X135291860Y-115482925D01*
X124203387Y-115482925D01*
X124203387Y-114500000D01*
X124191674Y-114381066D01*
X135951777Y-114381066D01*
X137000000Y-115429289D01*
X138048223Y-114381066D01*
X137963189Y-114089219D01*
X137669452Y-113928418D01*
X137349988Y-113828012D01*
X137017075Y-113791860D01*
X136683505Y-113821350D01*
X136362098Y-113915350D01*
X136065205Y-114070247D01*
X136036811Y-114089219D01*
X135951777Y-114381066D01*
X124191674Y-114381066D01*
X124189872Y-114362776D01*
X124182923Y-114339869D01*
X127372793Y-111150000D01*
X127744338Y-111150000D01*
X127710128Y-111262776D01*
X127696613Y-111400000D01*
X127696613Y-113400000D01*
X127710128Y-113537224D01*
X127750155Y-113669175D01*
X127815155Y-113790781D01*
X127902630Y-113897370D01*
X128009219Y-113984845D01*
X128130825Y-114049845D01*
X128262776Y-114089872D01*
X128400000Y-114103387D01*
X131600000Y-114103387D01*
X131737224Y-114089872D01*
X131869175Y-114049845D01*
X131990781Y-113984845D01*
X132097370Y-113897370D01*
X132184845Y-113790781D01*
X132249845Y-113669175D01*
X132289872Y-113537224D01*
X132303387Y-113400000D01*
X132303387Y-111400000D01*
X132289872Y-111262776D01*
X132255662Y-111150000D01*
X141446908Y-111150000D01*
X144982043Y-114685135D01*
X145010225Y-114719475D01*
X145147268Y-114831943D01*
X145303619Y-114915514D01*
X145473269Y-114966977D01*
X145649700Y-114984354D01*
X145693906Y-114980000D01*
X145737191Y-114980000D01*
X145796036Y-115068068D01*
X146011932Y-115283964D01*
X146110763Y-115350000D01*
X146011932Y-115416036D01*
X145796036Y-115631932D01*
X145737191Y-115720000D01*
X145693896Y-115720000D01*
X145649699Y-115715647D01*
X145605502Y-115720000D01*
X145605493Y-115720000D01*
X145473269Y-115733023D01*
X145303619Y-115784486D01*
X145147268Y-115868057D01*
X145010225Y-115980525D01*
X144982043Y-116014865D01*
X144146908Y-116850000D01*
X137980898Y-116850000D01*
X138048223Y-116618934D01*
X137000000Y-115570711D01*
X135951777Y-116618934D01*
X136019102Y-116850000D01*
X127294203Y-116850000D01*
X127249999Y-116845646D01*
X127205795Y-116850000D01*
X127205793Y-116850000D01*
X127073569Y-116863023D01*
X126903919Y-116914486D01*
X126747568Y-116998057D01*
X126610525Y-117110525D01*
X126582345Y-117144863D01*
X124127208Y-119600000D01*
X123943213Y-119600000D01*
X123820477Y-119416313D01*
X123583687Y-119179523D01*
X123539225Y-119149815D01*
X123548223Y-119118934D01*
X122500000Y-118070711D01*
X121451777Y-119118934D01*
X121460775Y-119149815D01*
X121416313Y-119179523D01*
X121179523Y-119416313D01*
X120993479Y-119694748D01*
X120865330Y-120004128D01*
X120800000Y-120332565D01*
X120800000Y-120667435D01*
X120865330Y-120995872D01*
X120993479Y-121305252D01*
X121179523Y-121583687D01*
X121416313Y-121820477D01*
X121694748Y-122006521D01*
X122004128Y-122134670D01*
X122332565Y-122200000D01*
X122667435Y-122200000D01*
X122995872Y-122134670D01*
X123305252Y-122006521D01*
X123583687Y-121820477D01*
X123820477Y-121583687D01*
X123943213Y-121400000D01*
X124455794Y-121400000D01*
X124500000Y-121404354D01*
X124544206Y-121400000D01*
X124544207Y-121400000D01*
X124676431Y-121386977D01*
X124846081Y-121335514D01*
X125002432Y-121251943D01*
X125139475Y-121139475D01*
X125167657Y-121105135D01*
X127622792Y-118650000D01*
X144475494Y-118650000D01*
X144519700Y-118654354D01*
X144563906Y-118650000D01*
X144563907Y-118650000D01*
X144696131Y-118636977D01*
X144865781Y-118585514D01*
X145022132Y-118501943D01*
X145159175Y-118389475D01*
X145187357Y-118355135D01*
X145865230Y-117677262D01*
X146011932Y-117823964D01*
X146110763Y-117890000D01*
X146011932Y-117956036D01*
X145796036Y-118171932D01*
X145626408Y-118425800D01*
X145509565Y-118707882D01*
X145481296Y-118850000D01*
X137794203Y-118850000D01*
X137749999Y-118845646D01*
X137705795Y-118850000D01*
X137705793Y-118850000D01*
X137573569Y-118863023D01*
X137525503Y-118877604D01*
X137495872Y-118865330D01*
X137167435Y-118800000D01*
X136832565Y-118800000D01*
X136504128Y-118865330D01*
X136194748Y-118993479D01*
X135916313Y-119179523D01*
X135679523Y-119416313D01*
X135493479Y-119694748D01*
X135365330Y-120004128D01*
X135300000Y-120332565D01*
X135300000Y-120667435D01*
X135365330Y-120995872D01*
X135493479Y-121305252D01*
X135679523Y-121583687D01*
X135916313Y-121820477D01*
X136194748Y-122006521D01*
X136504128Y-122134670D01*
X136832565Y-122200000D01*
X137167435Y-122200000D01*
X137495872Y-122134670D01*
X137805252Y-122006521D01*
X138083687Y-121820477D01*
X138320477Y-121583687D01*
X138506521Y-121305252D01*
X138634670Y-120995872D01*
X138700000Y-120667435D01*
X138700000Y-120650000D01*
X145857968Y-120650000D01*
X145796036Y-120711932D01*
X145626408Y-120965800D01*
X145509565Y-121247882D01*
X145450000Y-121547338D01*
X145450000Y-121852662D01*
X145509565Y-122152118D01*
X145626408Y-122434200D01*
X145796036Y-122688068D01*
X146011932Y-122903964D01*
X146110763Y-122970000D01*
X146011932Y-123036036D01*
X145796036Y-123251932D01*
X145737191Y-123340000D01*
X144054203Y-123340000D01*
X144009999Y-123335646D01*
X143965795Y-123340000D01*
X143965793Y-123340000D01*
X143833569Y-123353023D01*
X143663919Y-123404486D01*
X143507568Y-123488057D01*
X143370525Y-123600525D01*
X143342343Y-123634865D01*
X141627208Y-125350000D01*
X124122792Y-125350000D01*
X121372792Y-122600000D01*
X127696613Y-122600000D01*
X127696613Y-124600000D01*
X127710128Y-124737224D01*
X127750155Y-124869175D01*
X127815155Y-124990781D01*
X127902630Y-125097370D01*
X128009219Y-125184845D01*
X128130825Y-125249845D01*
X128262776Y-125289872D01*
X128400000Y-125303387D01*
X131600000Y-125303387D01*
X131737224Y-125289872D01*
X131869175Y-125249845D01*
X131990781Y-125184845D01*
X132097370Y-125097370D01*
X132184845Y-124990781D01*
X132249845Y-124869175D01*
X132289872Y-124737224D01*
X132303387Y-124600000D01*
X132303387Y-122600000D01*
X132289872Y-122462776D01*
X132249845Y-122330825D01*
X132184845Y-122209219D01*
X132097370Y-122102630D01*
X131990781Y-122015155D01*
X131869175Y-121950155D01*
X131737224Y-121910128D01*
X131600000Y-121896613D01*
X128400000Y-121896613D01*
X128262776Y-121910128D01*
X128130825Y-121950155D01*
X128009219Y-122015155D01*
X127902630Y-122102630D01*
X127815155Y-122209219D01*
X127750155Y-122330825D01*
X127710128Y-122462776D01*
X127696613Y-122600000D01*
X121372792Y-122600000D01*
X114906901Y-116134109D01*
X114950000Y-115917435D01*
X114950000Y-115582565D01*
X114884670Y-115254128D01*
X114756521Y-114944748D01*
X114570477Y-114666313D01*
X114333687Y-114429523D01*
X114055252Y-114243479D01*
X113745872Y-114115330D01*
X113417435Y-114050000D01*
X113082565Y-114050000D01*
X112754128Y-114115330D01*
X112444748Y-114243479D01*
X112166313Y-114429523D01*
X111929523Y-114666313D01*
X111806787Y-114850000D01*
X108193213Y-114850000D01*
X108070477Y-114666313D01*
X107833687Y-114429523D01*
X107555252Y-114243479D01*
X107245872Y-114115330D01*
X106917435Y-114050000D01*
X106582565Y-114050000D01*
X106254128Y-114115330D01*
X105944748Y-114243479D01*
X105666313Y-114429523D01*
X105429523Y-114666313D01*
X105243479Y-114944748D01*
X105115330Y-115254128D01*
X105050000Y-115582565D01*
X105050000Y-115917435D01*
X105115330Y-116245872D01*
X105243479Y-116555252D01*
X105429523Y-116833687D01*
X105666313Y-117070477D01*
X105944748Y-117256521D01*
X106254128Y-117384670D01*
X106582565Y-117450000D01*
X106917435Y-117450000D01*
X107245872Y-117384670D01*
X107555252Y-117256521D01*
X107833687Y-117070477D01*
X108070477Y-116833687D01*
X108193213Y-116650000D01*
X111806787Y-116650000D01*
X111929523Y-116833687D01*
X112166313Y-117070477D01*
X112444748Y-117256521D01*
X112754128Y-117384670D01*
X113082565Y-117450000D01*
X113417435Y-117450000D01*
X113634109Y-117406901D01*
X123077208Y-126850000D01*
X115622793Y-126850000D01*
X114906901Y-126134109D01*
X114950000Y-125917435D01*
X114950000Y-125582565D01*
X114884670Y-125254128D01*
X114756521Y-124944748D01*
X114570477Y-124666313D01*
X114333687Y-124429523D01*
X114055252Y-124243479D01*
X113745872Y-124115330D01*
X113417435Y-124050000D01*
X113082565Y-124050000D01*
X112754128Y-124115330D01*
X112444748Y-124243479D01*
X112166313Y-124429523D01*
X111929523Y-124666313D01*
X111806787Y-124850000D01*
X108193213Y-124850000D01*
X108070477Y-124666313D01*
X107833687Y-124429523D01*
X107555252Y-124243479D01*
X107245872Y-124115330D01*
X106917435Y-124050000D01*
X106582565Y-124050000D01*
X106254128Y-124115330D01*
X105944748Y-124243479D01*
X105666313Y-124429523D01*
X105429523Y-124666313D01*
X105243479Y-124944748D01*
X105115330Y-125254128D01*
X105050000Y-125582565D01*
X105050000Y-125917435D01*
X105115330Y-126245872D01*
X105243479Y-126555252D01*
X105429523Y-126833687D01*
X105666313Y-127070477D01*
X105944748Y-127256521D01*
X106254128Y-127384670D01*
X106582565Y-127450000D01*
X106917435Y-127450000D01*
X107245872Y-127384670D01*
X107555252Y-127256521D01*
X107833687Y-127070477D01*
X108070477Y-126833687D01*
X108193213Y-126650000D01*
X111806787Y-126650000D01*
X111929523Y-126833687D01*
X112166313Y-127070477D01*
X112444748Y-127256521D01*
X112754128Y-127384670D01*
X113082565Y-127450000D01*
X113417435Y-127450000D01*
X113634109Y-127406901D01*
X114582347Y-128355140D01*
X114610525Y-128389475D01*
X114644860Y-128417653D01*
X114644862Y-128417655D01*
X114675413Y-128442727D01*
X114747568Y-128501943D01*
X114903919Y-128585514D01*
X115073569Y-128636977D01*
X115205793Y-128650000D01*
X115205795Y-128650000D01*
X115249999Y-128654354D01*
X115294203Y-128650000D01*
X145985794Y-128650000D01*
X146030000Y-128654354D01*
X146074206Y-128650000D01*
X146074207Y-128650000D01*
X146206431Y-128636977D01*
X146376081Y-128585514D01*
X146532432Y-128501943D01*
X146669475Y-128389475D01*
X146697657Y-128355135D01*
X146743455Y-128309337D01*
X146847338Y-128330000D01*
X147152662Y-128330000D01*
X147452118Y-128270435D01*
X147734200Y-128153592D01*
X147988068Y-127983964D01*
X148203964Y-127768068D01*
X148373592Y-127514200D01*
X148490435Y-127232118D01*
X148550000Y-126932662D01*
X148550000Y-126627338D01*
X148490435Y-126327882D01*
X148373592Y-126045800D01*
X148203964Y-125791932D01*
X147988068Y-125576036D01*
X147889237Y-125510000D01*
X147988068Y-125443964D01*
X148203964Y-125228068D01*
X148373592Y-124974200D01*
X148490435Y-124692118D01*
X148550000Y-124392662D01*
X148550000Y-124087338D01*
X148490435Y-123787882D01*
X148373592Y-123505800D01*
X148203964Y-123251932D01*
X147988068Y-123036036D01*
X147889237Y-122970000D01*
X147988068Y-122903964D01*
X148203964Y-122688068D01*
X148373592Y-122434200D01*
X148490435Y-122152118D01*
X148550000Y-121852662D01*
X148550000Y-121547338D01*
X148529337Y-121443456D01*
X149275000Y-120697792D01*
X149275000Y-130236065D01*
X149252607Y-130221102D01*
X148579250Y-129942189D01*
X147864418Y-129800000D01*
X147135582Y-129800000D01*
X146420750Y-129942189D01*
X145747393Y-130221102D01*
X145141387Y-130626022D01*
X144626022Y-131141387D01*
X144221102Y-131747393D01*
X143942189Y-132420750D01*
X143800000Y-133135582D01*
X143800000Y-133864418D01*
X143942189Y-134579250D01*
X144221102Y-135252607D01*
X144236065Y-135275000D01*
X105763935Y-135275000D01*
X105778898Y-135252607D01*
X106057811Y-134579250D01*
X106200000Y-133864418D01*
X106200000Y-133135582D01*
X106057811Y-132420750D01*
X105778898Y-131747393D01*
X105596419Y-131474294D01*
X105701777Y-131368936D01*
X105786811Y-131660781D01*
X106080548Y-131821582D01*
X106400012Y-131921988D01*
X106732925Y-131958140D01*
X107066495Y-131928650D01*
X107387902Y-131834650D01*
X107684795Y-131679753D01*
X107713189Y-131660781D01*
X107798223Y-131368934D01*
X112201777Y-131368934D01*
X112286811Y-131660781D01*
X112580548Y-131821582D01*
X112900012Y-131921988D01*
X113232925Y-131958140D01*
X113566495Y-131928650D01*
X113887902Y-131834650D01*
X114184795Y-131679753D01*
X114213189Y-131660781D01*
X114298223Y-131368934D01*
X113250000Y-130320711D01*
X112201777Y-131368934D01*
X107798223Y-131368934D01*
X106750000Y-130320711D01*
X106735858Y-130334853D01*
X106665147Y-130264142D01*
X106679289Y-130250000D01*
X106820711Y-130250000D01*
X107868934Y-131298223D01*
X108160781Y-131213189D01*
X108321582Y-130919452D01*
X108421988Y-130599988D01*
X108458140Y-130267075D01*
X108455121Y-130232925D01*
X111541860Y-130232925D01*
X111571350Y-130566495D01*
X111665350Y-130887902D01*
X111820247Y-131184795D01*
X111839219Y-131213189D01*
X112131066Y-131298223D01*
X113179289Y-130250000D01*
X113320711Y-130250000D01*
X114368934Y-131298223D01*
X114660781Y-131213189D01*
X114821582Y-130919452D01*
X114921988Y-130599988D01*
X114958140Y-130267075D01*
X114928650Y-129933505D01*
X114834650Y-129612098D01*
X114679753Y-129315205D01*
X114660781Y-129286811D01*
X114368934Y-129201777D01*
X113320711Y-130250000D01*
X113179289Y-130250000D01*
X112131066Y-129201777D01*
X111839219Y-129286811D01*
X111678418Y-129580548D01*
X111578012Y-129900012D01*
X111541860Y-130232925D01*
X108455121Y-130232925D01*
X108428650Y-129933505D01*
X108334650Y-129612098D01*
X108179753Y-129315205D01*
X108160781Y-129286811D01*
X107868934Y-129201777D01*
X106820711Y-130250000D01*
X106679289Y-130250000D01*
X105631066Y-129201777D01*
X105339219Y-129286811D01*
X105178418Y-129580548D01*
X105078012Y-129900012D01*
X105041860Y-130232925D01*
X105071350Y-130566495D01*
X105165350Y-130887902D01*
X105214282Y-130981691D01*
X104858613Y-130626022D01*
X104252607Y-130221102D01*
X103579250Y-129942189D01*
X102864418Y-129800000D01*
X102135582Y-129800000D01*
X101420750Y-129942189D01*
X100747393Y-130221102D01*
X100725000Y-130236065D01*
X100725000Y-129131066D01*
X105701777Y-129131066D01*
X106750000Y-130179289D01*
X107798223Y-129131066D01*
X112201777Y-129131066D01*
X113250000Y-130179289D01*
X114298223Y-129131066D01*
X114213189Y-128839219D01*
X113919452Y-128678418D01*
X113599988Y-128578012D01*
X113267075Y-128541860D01*
X112933505Y-128571350D01*
X112612098Y-128665350D01*
X112315205Y-128820247D01*
X112286811Y-128839219D01*
X112201777Y-129131066D01*
X107798223Y-129131066D01*
X107713189Y-128839219D01*
X107419452Y-128678418D01*
X107099988Y-128578012D01*
X106767075Y-128541860D01*
X106433505Y-128571350D01*
X106112098Y-128665350D01*
X105815205Y-128820247D01*
X105786811Y-128839219D01*
X105701777Y-129131066D01*
X100725000Y-129131066D01*
X100725000Y-121368934D01*
X105701777Y-121368934D01*
X105786811Y-121660781D01*
X106080548Y-121821582D01*
X106400012Y-121921988D01*
X106732925Y-121958140D01*
X107066495Y-121928650D01*
X107387902Y-121834650D01*
X107684795Y-121679753D01*
X107713189Y-121660781D01*
X107798223Y-121368934D01*
X112201777Y-121368934D01*
X112286811Y-121660781D01*
X112580548Y-121821582D01*
X112900012Y-121921988D01*
X113232925Y-121958140D01*
X113566495Y-121928650D01*
X113887902Y-121834650D01*
X114184795Y-121679753D01*
X114213189Y-121660781D01*
X114298223Y-121368934D01*
X113250000Y-120320711D01*
X112201777Y-121368934D01*
X107798223Y-121368934D01*
X106750000Y-120320711D01*
X105701777Y-121368934D01*
X100725000Y-121368934D01*
X100725000Y-120232925D01*
X105041860Y-120232925D01*
X105071350Y-120566495D01*
X105165350Y-120887902D01*
X105320247Y-121184795D01*
X105339219Y-121213189D01*
X105631066Y-121298223D01*
X106679289Y-120250000D01*
X106820711Y-120250000D01*
X107868934Y-121298223D01*
X108160781Y-121213189D01*
X108321582Y-120919452D01*
X108421988Y-120599988D01*
X108458140Y-120267075D01*
X108455121Y-120232925D01*
X111541860Y-120232925D01*
X111571350Y-120566495D01*
X111665350Y-120887902D01*
X111820247Y-121184795D01*
X111839219Y-121213189D01*
X112131066Y-121298223D01*
X113179289Y-120250000D01*
X113320711Y-120250000D01*
X114368934Y-121298223D01*
X114660781Y-121213189D01*
X114821582Y-120919452D01*
X114921988Y-120599988D01*
X114958140Y-120267075D01*
X114928650Y-119933505D01*
X114834650Y-119612098D01*
X114679753Y-119315205D01*
X114660781Y-119286811D01*
X114368934Y-119201777D01*
X113320711Y-120250000D01*
X113179289Y-120250000D01*
X112131066Y-119201777D01*
X111839219Y-119286811D01*
X111678418Y-119580548D01*
X111578012Y-119900012D01*
X111541860Y-120232925D01*
X108455121Y-120232925D01*
X108428650Y-119933505D01*
X108334650Y-119612098D01*
X108179753Y-119315205D01*
X108160781Y-119286811D01*
X107868934Y-119201777D01*
X106820711Y-120250000D01*
X106679289Y-120250000D01*
X105631066Y-119201777D01*
X105339219Y-119286811D01*
X105178418Y-119580548D01*
X105078012Y-119900012D01*
X105041860Y-120232925D01*
X100725000Y-120232925D01*
X100725000Y-119131066D01*
X105701777Y-119131066D01*
X106750000Y-120179289D01*
X107798223Y-119131066D01*
X112201777Y-119131066D01*
X113250000Y-120179289D01*
X114298223Y-119131066D01*
X114213189Y-118839219D01*
X113919452Y-118678418D01*
X113599988Y-118578012D01*
X113267075Y-118541860D01*
X112933505Y-118571350D01*
X112612098Y-118665350D01*
X112315205Y-118820247D01*
X112286811Y-118839219D01*
X112201777Y-119131066D01*
X107798223Y-119131066D01*
X107713189Y-118839219D01*
X107419452Y-118678418D01*
X107099988Y-118578012D01*
X106767075Y-118541860D01*
X106433505Y-118571350D01*
X106112098Y-118665350D01*
X105815205Y-118820247D01*
X105786811Y-118839219D01*
X105701777Y-119131066D01*
X100725000Y-119131066D01*
X100725000Y-111368934D01*
X105701777Y-111368934D01*
X105786811Y-111660781D01*
X106080548Y-111821582D01*
X106400012Y-111921988D01*
X106732925Y-111958140D01*
X107066495Y-111928650D01*
X107387902Y-111834650D01*
X107684795Y-111679753D01*
X107713189Y-111660781D01*
X107798223Y-111368934D01*
X112201777Y-111368934D01*
X112286811Y-111660781D01*
X112580548Y-111821582D01*
X112900012Y-111921988D01*
X113232925Y-111958140D01*
X113566495Y-111928650D01*
X113887902Y-111834650D01*
X114184795Y-111679753D01*
X114213189Y-111660781D01*
X114298223Y-111368934D01*
X113250000Y-110320711D01*
X112201777Y-111368934D01*
X107798223Y-111368934D01*
X106750000Y-110320711D01*
X105701777Y-111368934D01*
X100725000Y-111368934D01*
X100725000Y-110232925D01*
X105041860Y-110232925D01*
X105071350Y-110566495D01*
X105165350Y-110887902D01*
X105320247Y-111184795D01*
X105339219Y-111213189D01*
X105631066Y-111298223D01*
X106679289Y-110250000D01*
X106820711Y-110250000D01*
X107868934Y-111298223D01*
X108160781Y-111213189D01*
X108321582Y-110919452D01*
X108421988Y-110599988D01*
X108458140Y-110267075D01*
X108455121Y-110232925D01*
X111541860Y-110232925D01*
X111571350Y-110566495D01*
X111665350Y-110887902D01*
X111820247Y-111184795D01*
X111839219Y-111213189D01*
X112131066Y-111298223D01*
X113179289Y-110250000D01*
X113320711Y-110250000D01*
X114368934Y-111298223D01*
X114660781Y-111213189D01*
X114821582Y-110919452D01*
X114921988Y-110599988D01*
X114958140Y-110267075D01*
X114928650Y-109933505D01*
X114834650Y-109612098D01*
X114679753Y-109315205D01*
X114660781Y-109286811D01*
X114368934Y-109201777D01*
X113320711Y-110250000D01*
X113179289Y-110250000D01*
X112131066Y-109201777D01*
X111839219Y-109286811D01*
X111678418Y-109580548D01*
X111578012Y-109900012D01*
X111541860Y-110232925D01*
X108455121Y-110232925D01*
X108428650Y-109933505D01*
X108334650Y-109612098D01*
X108179753Y-109315205D01*
X108160781Y-109286811D01*
X107868934Y-109201777D01*
X106820711Y-110250000D01*
X106679289Y-110250000D01*
X105631066Y-109201777D01*
X105339219Y-109286811D01*
X105178418Y-109580548D01*
X105078012Y-109900012D01*
X105041860Y-110232925D01*
X100725000Y-110232925D01*
X100725000Y-109131066D01*
X105701777Y-109131066D01*
X106750000Y-110179289D01*
X107798223Y-109131066D01*
X112201777Y-109131066D01*
X113250000Y-110179289D01*
X114298223Y-109131066D01*
X114213189Y-108839219D01*
X113919452Y-108678418D01*
X113599988Y-108578012D01*
X113267075Y-108541860D01*
X112933505Y-108571350D01*
X112612098Y-108665350D01*
X112315205Y-108820247D01*
X112286811Y-108839219D01*
X112201777Y-109131066D01*
X107798223Y-109131066D01*
X107713189Y-108839219D01*
X107419452Y-108678418D01*
X107099988Y-108578012D01*
X106767075Y-108541860D01*
X106433505Y-108571350D01*
X106112098Y-108665350D01*
X105815205Y-108820247D01*
X105786811Y-108839219D01*
X105701777Y-109131066D01*
X100725000Y-109131066D01*
X100725000Y-105763935D01*
X100747393Y-105778898D01*
X101420750Y-106057811D01*
X102135582Y-106200000D01*
X102864418Y-106200000D01*
X103579250Y-106057811D01*
X104252607Y-105778898D01*
X104858613Y-105373978D01*
X105212109Y-105020482D01*
X105115330Y-105254128D01*
G37*
X105115330Y-105254128D02*
X105050000Y-105582565D01*
X105050000Y-105917435D01*
X105115330Y-106245872D01*
X105243479Y-106555252D01*
X105429523Y-106833687D01*
X105666313Y-107070477D01*
X105944748Y-107256521D01*
X106254128Y-107384670D01*
X106582565Y-107450000D01*
X106917435Y-107450000D01*
X107245872Y-107384670D01*
X107555252Y-107256521D01*
X107833687Y-107070477D01*
X108070477Y-106833687D01*
X108193213Y-106650000D01*
X111806787Y-106650000D01*
X111929523Y-106833687D01*
X112166313Y-107070477D01*
X112444748Y-107256521D01*
X112754128Y-107384670D01*
X113082565Y-107450000D01*
X113417435Y-107450000D01*
X113745872Y-107384670D01*
X113775503Y-107372396D01*
X113823569Y-107386977D01*
X113955793Y-107400000D01*
X113955795Y-107400000D01*
X113999999Y-107404354D01*
X114044203Y-107400000D01*
X147377208Y-107400000D01*
X147423821Y-107446613D01*
X146150000Y-107446613D01*
X146012776Y-107460128D01*
X145880825Y-107500155D01*
X145759219Y-107565155D01*
X145652630Y-107652630D01*
X145565155Y-107759219D01*
X145500155Y-107880825D01*
X145460128Y-108012776D01*
X145446613Y-108150000D01*
X145446613Y-109850000D01*
X145460128Y-109987224D01*
X145500155Y-110119175D01*
X145565155Y-110240781D01*
X145652630Y-110347370D01*
X145759219Y-110434845D01*
X145865593Y-110491703D01*
X145717285Y-110669857D01*
X145572176Y-110936822D01*
X145481937Y-111226967D01*
X145477702Y-111248268D01*
X145625909Y-111490000D01*
X146950000Y-111490000D01*
X146950000Y-111470000D01*
X147050000Y-111470000D01*
X147050000Y-111490000D01*
X147070000Y-111490000D01*
X147070000Y-111590000D01*
X147050000Y-111590000D01*
X147050000Y-111610000D01*
X146950000Y-111610000D01*
X146950000Y-111590000D01*
X145625909Y-111590000D01*
X145477702Y-111831732D01*
X145481937Y-111853033D01*
X145572176Y-112143178D01*
X145717285Y-112410143D01*
X145911689Y-112643669D01*
X146114335Y-112807613D01*
X146011932Y-112876036D01*
X145865230Y-113022738D01*
X142487357Y-109644865D01*
X142459175Y-109610525D01*
X142322132Y-109498057D01*
X142165781Y-109414486D01*
X141996131Y-109363023D01*
X141863907Y-109350000D01*
X141863906Y-109350000D01*
X141819700Y-109345646D01*
X141775494Y-109350000D01*
X127044206Y-109350000D01*
X126999999Y-109345646D01*
X126955793Y-109350000D01*
X126823569Y-109363023D01*
X126653919Y-109414486D01*
X126497568Y-109498057D01*
X126425413Y-109557273D01*
X126394862Y-109582345D01*
X126394860Y-109582347D01*
X126360525Y-109610525D01*
X126332347Y-109644860D01*
X122180595Y-113796613D01*
X121500000Y-113796613D01*
X121362776Y-113810128D01*
X121230825Y-113850155D01*
X121109219Y-113915155D01*
X121002630Y-114002630D01*
X120915155Y-114109219D01*
X120850155Y-114230825D01*
X120810128Y-114362776D01*
X120796613Y-114500000D01*
X120796613Y-116500000D01*
X120810128Y-116637224D01*
X120850155Y-116769175D01*
X120915155Y-116890781D01*
X121002630Y-116997370D01*
X121077275Y-117058629D01*
X120928418Y-117330548D01*
X120828012Y-117650012D01*
X120791860Y-117982925D01*
X120821350Y-118316495D01*
X120915350Y-118637902D01*
X121070247Y-118934795D01*
X121089219Y-118963189D01*
X121381066Y-119048223D01*
X122429289Y-118000000D01*
X122415147Y-117985858D01*
X122485858Y-117915147D01*
X122500000Y-117929289D01*
X122514142Y-117915147D01*
X122584853Y-117985858D01*
X122570711Y-118000000D01*
X123618934Y-119048223D01*
X123910781Y-118963189D01*
X124071582Y-118669452D01*
X124171988Y-118349988D01*
X124208140Y-118017075D01*
X124178650Y-117683505D01*
X124084650Y-117362098D01*
X123929753Y-117065205D01*
X123924426Y-117057233D01*
X123997370Y-116997370D01*
X124084845Y-116890781D01*
X124149845Y-116769175D01*
X124189872Y-116637224D01*
X124203387Y-116500000D01*
X124203387Y-115482925D01*
X135291860Y-115482925D01*
X135321350Y-115816495D01*
X135415350Y-116137902D01*
X135570247Y-116434795D01*
X135589219Y-116463189D01*
X135881066Y-116548223D01*
X136929289Y-115500000D01*
X137070711Y-115500000D01*
X138118934Y-116548223D01*
X138410781Y-116463189D01*
X138571582Y-116169452D01*
X138671988Y-115849988D01*
X138708140Y-115517075D01*
X138678650Y-115183505D01*
X138584650Y-114862098D01*
X138429753Y-114565205D01*
X138410781Y-114536811D01*
X138118934Y-114451777D01*
X137070711Y-115500000D01*
X136929289Y-115500000D01*
X135881066Y-114451777D01*
X135589219Y-114536811D01*
X135428418Y-114830548D01*
X135328012Y-115150012D01*
X135291860Y-115482925D01*
X124203387Y-115482925D01*
X124203387Y-114500000D01*
X124191674Y-114381066D01*
X135951777Y-114381066D01*
X137000000Y-115429289D01*
X138048223Y-114381066D01*
X137963189Y-114089219D01*
X137669452Y-113928418D01*
X137349988Y-113828012D01*
X137017075Y-113791860D01*
X136683505Y-113821350D01*
X136362098Y-113915350D01*
X136065205Y-114070247D01*
X136036811Y-114089219D01*
X135951777Y-114381066D01*
X124191674Y-114381066D01*
X124189872Y-114362776D01*
X124182923Y-114339869D01*
X127372793Y-111150000D01*
X127744338Y-111150000D01*
X127710128Y-111262776D01*
X127696613Y-111400000D01*
X127696613Y-113400000D01*
X127710128Y-113537224D01*
X127750155Y-113669175D01*
X127815155Y-113790781D01*
X127902630Y-113897370D01*
X128009219Y-113984845D01*
X128130825Y-114049845D01*
X128262776Y-114089872D01*
X128400000Y-114103387D01*
X131600000Y-114103387D01*
X131737224Y-114089872D01*
X131869175Y-114049845D01*
X131990781Y-113984845D01*
X132097370Y-113897370D01*
X132184845Y-113790781D01*
X132249845Y-113669175D01*
X132289872Y-113537224D01*
X132303387Y-113400000D01*
X132303387Y-111400000D01*
X132289872Y-111262776D01*
X132255662Y-111150000D01*
X141446908Y-111150000D01*
X144982043Y-114685135D01*
X145010225Y-114719475D01*
X145147268Y-114831943D01*
X145303619Y-114915514D01*
X145473269Y-114966977D01*
X145649700Y-114984354D01*
X145693906Y-114980000D01*
X145737191Y-114980000D01*
X145796036Y-115068068D01*
X146011932Y-115283964D01*
X146110763Y-115350000D01*
X146011932Y-115416036D01*
X145796036Y-115631932D01*
X145737191Y-115720000D01*
X145693896Y-115720000D01*
X145649699Y-115715647D01*
X145605502Y-115720000D01*
X145605493Y-115720000D01*
X145473269Y-115733023D01*
X145303619Y-115784486D01*
X145147268Y-115868057D01*
X145010225Y-115980525D01*
X144982043Y-116014865D01*
X144146908Y-116850000D01*
X137980898Y-116850000D01*
X138048223Y-116618934D01*
X137000000Y-115570711D01*
X135951777Y-116618934D01*
X136019102Y-116850000D01*
X127294203Y-116850000D01*
X127249999Y-116845646D01*
X127205795Y-116850000D01*
X127205793Y-116850000D01*
X127073569Y-116863023D01*
X126903919Y-116914486D01*
X126747568Y-116998057D01*
X126610525Y-117110525D01*
X126582345Y-117144863D01*
X124127208Y-119600000D01*
X123943213Y-119600000D01*
X123820477Y-119416313D01*
X123583687Y-119179523D01*
X123539225Y-119149815D01*
X123548223Y-119118934D01*
X122500000Y-118070711D01*
X121451777Y-119118934D01*
X121460775Y-119149815D01*
X121416313Y-119179523D01*
X121179523Y-119416313D01*
X120993479Y-119694748D01*
X120865330Y-120004128D01*
X120800000Y-120332565D01*
X120800000Y-120667435D01*
X120865330Y-120995872D01*
X120993479Y-121305252D01*
X121179523Y-121583687D01*
X121416313Y-121820477D01*
X121694748Y-122006521D01*
X122004128Y-122134670D01*
X122332565Y-122200000D01*
X122667435Y-122200000D01*
X122995872Y-122134670D01*
X123305252Y-122006521D01*
X123583687Y-121820477D01*
X123820477Y-121583687D01*
X123943213Y-121400000D01*
X124455794Y-121400000D01*
X124500000Y-121404354D01*
X124544206Y-121400000D01*
X124544207Y-121400000D01*
X124676431Y-121386977D01*
X124846081Y-121335514D01*
X125002432Y-121251943D01*
X125139475Y-121139475D01*
X125167657Y-121105135D01*
X127622792Y-118650000D01*
X144475494Y-118650000D01*
X144519700Y-118654354D01*
X144563906Y-118650000D01*
X144563907Y-118650000D01*
X144696131Y-118636977D01*
X144865781Y-118585514D01*
X145022132Y-118501943D01*
X145159175Y-118389475D01*
X145187357Y-118355135D01*
X145865230Y-117677262D01*
X146011932Y-117823964D01*
X146110763Y-117890000D01*
X146011932Y-117956036D01*
X145796036Y-118171932D01*
X145626408Y-118425800D01*
X145509565Y-118707882D01*
X145481296Y-118850000D01*
X137794203Y-118850000D01*
X137749999Y-118845646D01*
X137705795Y-118850000D01*
X137705793Y-118850000D01*
X137573569Y-118863023D01*
X137525503Y-118877604D01*
X137495872Y-118865330D01*
X137167435Y-118800000D01*
X136832565Y-118800000D01*
X136504128Y-118865330D01*
X136194748Y-118993479D01*
X135916313Y-119179523D01*
X135679523Y-119416313D01*
X135493479Y-119694748D01*
X135365330Y-120004128D01*
X135300000Y-120332565D01*
X135300000Y-120667435D01*
X135365330Y-120995872D01*
X135493479Y-121305252D01*
X135679523Y-121583687D01*
X135916313Y-121820477D01*
X136194748Y-122006521D01*
X136504128Y-122134670D01*
X136832565Y-122200000D01*
X137167435Y-122200000D01*
X137495872Y-122134670D01*
X137805252Y-122006521D01*
X138083687Y-121820477D01*
X138320477Y-121583687D01*
X138506521Y-121305252D01*
X138634670Y-120995872D01*
X138700000Y-120667435D01*
X138700000Y-120650000D01*
X145857968Y-120650000D01*
X145796036Y-120711932D01*
X145626408Y-120965800D01*
X145509565Y-121247882D01*
X145450000Y-121547338D01*
X145450000Y-121852662D01*
X145509565Y-122152118D01*
X145626408Y-122434200D01*
X145796036Y-122688068D01*
X146011932Y-122903964D01*
X146110763Y-122970000D01*
X146011932Y-123036036D01*
X145796036Y-123251932D01*
X145737191Y-123340000D01*
X144054203Y-123340000D01*
X144009999Y-123335646D01*
X143965795Y-123340000D01*
X143965793Y-123340000D01*
X143833569Y-123353023D01*
X143663919Y-123404486D01*
X143507568Y-123488057D01*
X143370525Y-123600525D01*
X143342343Y-123634865D01*
X141627208Y-125350000D01*
X124122792Y-125350000D01*
X121372792Y-122600000D01*
X127696613Y-122600000D01*
X127696613Y-124600000D01*
X127710128Y-124737224D01*
X127750155Y-124869175D01*
X127815155Y-124990781D01*
X127902630Y-125097370D01*
X128009219Y-125184845D01*
X128130825Y-125249845D01*
X128262776Y-125289872D01*
X128400000Y-125303387D01*
X131600000Y-125303387D01*
X131737224Y-125289872D01*
X131869175Y-125249845D01*
X131990781Y-125184845D01*
X132097370Y-125097370D01*
X132184845Y-124990781D01*
X132249845Y-124869175D01*
X132289872Y-124737224D01*
X132303387Y-124600000D01*
X132303387Y-122600000D01*
X132289872Y-122462776D01*
X132249845Y-122330825D01*
X132184845Y-122209219D01*
X132097370Y-122102630D01*
X131990781Y-122015155D01*
X131869175Y-121950155D01*
X131737224Y-121910128D01*
X131600000Y-121896613D01*
X128400000Y-121896613D01*
X128262776Y-121910128D01*
X128130825Y-121950155D01*
X128009219Y-122015155D01*
X127902630Y-122102630D01*
X127815155Y-122209219D01*
X127750155Y-122330825D01*
X127710128Y-122462776D01*
X127696613Y-122600000D01*
X121372792Y-122600000D01*
X114906901Y-116134109D01*
X114950000Y-115917435D01*
X114950000Y-115582565D01*
X114884670Y-115254128D01*
X114756521Y-114944748D01*
X114570477Y-114666313D01*
X114333687Y-114429523D01*
X114055252Y-114243479D01*
X113745872Y-114115330D01*
X113417435Y-114050000D01*
X113082565Y-114050000D01*
X112754128Y-114115330D01*
X112444748Y-114243479D01*
X112166313Y-114429523D01*
X111929523Y-114666313D01*
X111806787Y-114850000D01*
X108193213Y-114850000D01*
X108070477Y-114666313D01*
X107833687Y-114429523D01*
X107555252Y-114243479D01*
X107245872Y-114115330D01*
X106917435Y-114050000D01*
X106582565Y-114050000D01*
X106254128Y-114115330D01*
X105944748Y-114243479D01*
X105666313Y-114429523D01*
X105429523Y-114666313D01*
X105243479Y-114944748D01*
X105115330Y-115254128D01*
X105050000Y-115582565D01*
X105050000Y-115917435D01*
X105115330Y-116245872D01*
X105243479Y-116555252D01*
X105429523Y-116833687D01*
X105666313Y-117070477D01*
X105944748Y-117256521D01*
X106254128Y-117384670D01*
X106582565Y-117450000D01*
X106917435Y-117450000D01*
X107245872Y-117384670D01*
X107555252Y-117256521D01*
X107833687Y-117070477D01*
X108070477Y-116833687D01*
X108193213Y-116650000D01*
X111806787Y-116650000D01*
X111929523Y-116833687D01*
X112166313Y-117070477D01*
X112444748Y-117256521D01*
X112754128Y-117384670D01*
X113082565Y-117450000D01*
X113417435Y-117450000D01*
X113634109Y-117406901D01*
X123077208Y-126850000D01*
X115622793Y-126850000D01*
X114906901Y-126134109D01*
X114950000Y-125917435D01*
X114950000Y-125582565D01*
X114884670Y-125254128D01*
X114756521Y-124944748D01*
X114570477Y-124666313D01*
X114333687Y-124429523D01*
X114055252Y-124243479D01*
X113745872Y-124115330D01*
X113417435Y-124050000D01*
X113082565Y-124050000D01*
X112754128Y-124115330D01*
X112444748Y-124243479D01*
X112166313Y-124429523D01*
X111929523Y-124666313D01*
X111806787Y-124850000D01*
X108193213Y-124850000D01*
X108070477Y-124666313D01*
X107833687Y-124429523D01*
X107555252Y-124243479D01*
X107245872Y-124115330D01*
X106917435Y-124050000D01*
X106582565Y-124050000D01*
X106254128Y-124115330D01*
X105944748Y-124243479D01*
X105666313Y-124429523D01*
X105429523Y-124666313D01*
X105243479Y-124944748D01*
X105115330Y-125254128D01*
X105050000Y-125582565D01*
X105050000Y-125917435D01*
X105115330Y-126245872D01*
X105243479Y-126555252D01*
X105429523Y-126833687D01*
X105666313Y-127070477D01*
X105944748Y-127256521D01*
X106254128Y-127384670D01*
X106582565Y-127450000D01*
X106917435Y-127450000D01*
X107245872Y-127384670D01*
X107555252Y-127256521D01*
X107833687Y-127070477D01*
X108070477Y-126833687D01*
X108193213Y-126650000D01*
X111806787Y-126650000D01*
X111929523Y-126833687D01*
X112166313Y-127070477D01*
X112444748Y-127256521D01*
X112754128Y-127384670D01*
X113082565Y-127450000D01*
X113417435Y-127450000D01*
X113634109Y-127406901D01*
X114582347Y-128355140D01*
X114610525Y-128389475D01*
X114644860Y-128417653D01*
X114644862Y-128417655D01*
X114675413Y-128442727D01*
X114747568Y-128501943D01*
X114903919Y-128585514D01*
X115073569Y-128636977D01*
X115205793Y-128650000D01*
X115205795Y-128650000D01*
X115249999Y-128654354D01*
X115294203Y-128650000D01*
X145985794Y-128650000D01*
X146030000Y-128654354D01*
X146074206Y-128650000D01*
X146074207Y-128650000D01*
X146206431Y-128636977D01*
X146376081Y-128585514D01*
X146532432Y-128501943D01*
X146669475Y-128389475D01*
X146697657Y-128355135D01*
X146743455Y-128309337D01*
X146847338Y-128330000D01*
X147152662Y-128330000D01*
X147452118Y-128270435D01*
X147734200Y-128153592D01*
X147988068Y-127983964D01*
X148203964Y-127768068D01*
X148373592Y-127514200D01*
X148490435Y-127232118D01*
X148550000Y-126932662D01*
X148550000Y-126627338D01*
X148490435Y-126327882D01*
X148373592Y-126045800D01*
X148203964Y-125791932D01*
X147988068Y-125576036D01*
X147889237Y-125510000D01*
X147988068Y-125443964D01*
X148203964Y-125228068D01*
X148373592Y-124974200D01*
X148490435Y-124692118D01*
X148550000Y-124392662D01*
X148550000Y-124087338D01*
X148490435Y-123787882D01*
X148373592Y-123505800D01*
X148203964Y-123251932D01*
X147988068Y-123036036D01*
X147889237Y-122970000D01*
X147988068Y-122903964D01*
X148203964Y-122688068D01*
X148373592Y-122434200D01*
X148490435Y-122152118D01*
X148550000Y-121852662D01*
X148550000Y-121547338D01*
X148529337Y-121443456D01*
X149275000Y-120697792D01*
X149275000Y-130236065D01*
X149252607Y-130221102D01*
X148579250Y-129942189D01*
X147864418Y-129800000D01*
X147135582Y-129800000D01*
X146420750Y-129942189D01*
X145747393Y-130221102D01*
X145141387Y-130626022D01*
X144626022Y-131141387D01*
X144221102Y-131747393D01*
X143942189Y-132420750D01*
X143800000Y-133135582D01*
X143800000Y-133864418D01*
X143942189Y-134579250D01*
X144221102Y-135252607D01*
X144236065Y-135275000D01*
X105763935Y-135275000D01*
X105778898Y-135252607D01*
X106057811Y-134579250D01*
X106200000Y-133864418D01*
X106200000Y-133135582D01*
X106057811Y-132420750D01*
X105778898Y-131747393D01*
X105596419Y-131474294D01*
X105701777Y-131368936D01*
X105786811Y-131660781D01*
X106080548Y-131821582D01*
X106400012Y-131921988D01*
X106732925Y-131958140D01*
X107066495Y-131928650D01*
X107387902Y-131834650D01*
X107684795Y-131679753D01*
X107713189Y-131660781D01*
X107798223Y-131368934D01*
X112201777Y-131368934D01*
X112286811Y-131660781D01*
X112580548Y-131821582D01*
X112900012Y-131921988D01*
X113232925Y-131958140D01*
X113566495Y-131928650D01*
X113887902Y-131834650D01*
X114184795Y-131679753D01*
X114213189Y-131660781D01*
X114298223Y-131368934D01*
X113250000Y-130320711D01*
X112201777Y-131368934D01*
X107798223Y-131368934D01*
X106750000Y-130320711D01*
X106735858Y-130334853D01*
X106665147Y-130264142D01*
X106679289Y-130250000D01*
X106820711Y-130250000D01*
X107868934Y-131298223D01*
X108160781Y-131213189D01*
X108321582Y-130919452D01*
X108421988Y-130599988D01*
X108458140Y-130267075D01*
X108455121Y-130232925D01*
X111541860Y-130232925D01*
X111571350Y-130566495D01*
X111665350Y-130887902D01*
X111820247Y-131184795D01*
X111839219Y-131213189D01*
X112131066Y-131298223D01*
X113179289Y-130250000D01*
X113320711Y-130250000D01*
X114368934Y-131298223D01*
X114660781Y-131213189D01*
X114821582Y-130919452D01*
X114921988Y-130599988D01*
X114958140Y-130267075D01*
X114928650Y-129933505D01*
X114834650Y-129612098D01*
X114679753Y-129315205D01*
X114660781Y-129286811D01*
X114368934Y-129201777D01*
X113320711Y-130250000D01*
X113179289Y-130250000D01*
X112131066Y-129201777D01*
X111839219Y-129286811D01*
X111678418Y-129580548D01*
X111578012Y-129900012D01*
X111541860Y-130232925D01*
X108455121Y-130232925D01*
X108428650Y-129933505D01*
X108334650Y-129612098D01*
X108179753Y-129315205D01*
X108160781Y-129286811D01*
X107868934Y-129201777D01*
X106820711Y-130250000D01*
X106679289Y-130250000D01*
X105631066Y-129201777D01*
X105339219Y-129286811D01*
X105178418Y-129580548D01*
X105078012Y-129900012D01*
X105041860Y-130232925D01*
X105071350Y-130566495D01*
X105165350Y-130887902D01*
X105214282Y-130981691D01*
X104858613Y-130626022D01*
X104252607Y-130221102D01*
X103579250Y-129942189D01*
X102864418Y-129800000D01*
X102135582Y-129800000D01*
X101420750Y-129942189D01*
X100747393Y-130221102D01*
X100725000Y-130236065D01*
X100725000Y-129131066D01*
X105701777Y-129131066D01*
X106750000Y-130179289D01*
X107798223Y-129131066D01*
X112201777Y-129131066D01*
X113250000Y-130179289D01*
X114298223Y-129131066D01*
X114213189Y-128839219D01*
X113919452Y-128678418D01*
X113599988Y-128578012D01*
X113267075Y-128541860D01*
X112933505Y-128571350D01*
X112612098Y-128665350D01*
X112315205Y-128820247D01*
X112286811Y-128839219D01*
X112201777Y-129131066D01*
X107798223Y-129131066D01*
X107713189Y-128839219D01*
X107419452Y-128678418D01*
X107099988Y-128578012D01*
X106767075Y-128541860D01*
X106433505Y-128571350D01*
X106112098Y-128665350D01*
X105815205Y-128820247D01*
X105786811Y-128839219D01*
X105701777Y-129131066D01*
X100725000Y-129131066D01*
X100725000Y-121368934D01*
X105701777Y-121368934D01*
X105786811Y-121660781D01*
X106080548Y-121821582D01*
X106400012Y-121921988D01*
X106732925Y-121958140D01*
X107066495Y-121928650D01*
X107387902Y-121834650D01*
X107684795Y-121679753D01*
X107713189Y-121660781D01*
X107798223Y-121368934D01*
X112201777Y-121368934D01*
X112286811Y-121660781D01*
X112580548Y-121821582D01*
X112900012Y-121921988D01*
X113232925Y-121958140D01*
X113566495Y-121928650D01*
X113887902Y-121834650D01*
X114184795Y-121679753D01*
X114213189Y-121660781D01*
X114298223Y-121368934D01*
X113250000Y-120320711D01*
X112201777Y-121368934D01*
X107798223Y-121368934D01*
X106750000Y-120320711D01*
X105701777Y-121368934D01*
X100725000Y-121368934D01*
X100725000Y-120232925D01*
X105041860Y-120232925D01*
X105071350Y-120566495D01*
X105165350Y-120887902D01*
X105320247Y-121184795D01*
X105339219Y-121213189D01*
X105631066Y-121298223D01*
X106679289Y-120250000D01*
X106820711Y-120250000D01*
X107868934Y-121298223D01*
X108160781Y-121213189D01*
X108321582Y-120919452D01*
X108421988Y-120599988D01*
X108458140Y-120267075D01*
X108455121Y-120232925D01*
X111541860Y-120232925D01*
X111571350Y-120566495D01*
X111665350Y-120887902D01*
X111820247Y-121184795D01*
X111839219Y-121213189D01*
X112131066Y-121298223D01*
X113179289Y-120250000D01*
X113320711Y-120250000D01*
X114368934Y-121298223D01*
X114660781Y-121213189D01*
X114821582Y-120919452D01*
X114921988Y-120599988D01*
X114958140Y-120267075D01*
X114928650Y-119933505D01*
X114834650Y-119612098D01*
X114679753Y-119315205D01*
X114660781Y-119286811D01*
X114368934Y-119201777D01*
X113320711Y-120250000D01*
X113179289Y-120250000D01*
X112131066Y-119201777D01*
X111839219Y-119286811D01*
X111678418Y-119580548D01*
X111578012Y-119900012D01*
X111541860Y-120232925D01*
X108455121Y-120232925D01*
X108428650Y-119933505D01*
X108334650Y-119612098D01*
X108179753Y-119315205D01*
X108160781Y-119286811D01*
X107868934Y-119201777D01*
X106820711Y-120250000D01*
X106679289Y-120250000D01*
X105631066Y-119201777D01*
X105339219Y-119286811D01*
X105178418Y-119580548D01*
X105078012Y-119900012D01*
X105041860Y-120232925D01*
X100725000Y-120232925D01*
X100725000Y-119131066D01*
X105701777Y-119131066D01*
X106750000Y-120179289D01*
X107798223Y-119131066D01*
X112201777Y-119131066D01*
X113250000Y-120179289D01*
X114298223Y-119131066D01*
X114213189Y-118839219D01*
X113919452Y-118678418D01*
X113599988Y-118578012D01*
X113267075Y-118541860D01*
X112933505Y-118571350D01*
X112612098Y-118665350D01*
X112315205Y-118820247D01*
X112286811Y-118839219D01*
X112201777Y-119131066D01*
X107798223Y-119131066D01*
X107713189Y-118839219D01*
X107419452Y-118678418D01*
X107099988Y-118578012D01*
X106767075Y-118541860D01*
X106433505Y-118571350D01*
X106112098Y-118665350D01*
X105815205Y-118820247D01*
X105786811Y-118839219D01*
X105701777Y-119131066D01*
X100725000Y-119131066D01*
X100725000Y-111368934D01*
X105701777Y-111368934D01*
X105786811Y-111660781D01*
X106080548Y-111821582D01*
X106400012Y-111921988D01*
X106732925Y-111958140D01*
X107066495Y-111928650D01*
X107387902Y-111834650D01*
X107684795Y-111679753D01*
X107713189Y-111660781D01*
X107798223Y-111368934D01*
X112201777Y-111368934D01*
X112286811Y-111660781D01*
X112580548Y-111821582D01*
X112900012Y-111921988D01*
X113232925Y-111958140D01*
X113566495Y-111928650D01*
X113887902Y-111834650D01*
X114184795Y-111679753D01*
X114213189Y-111660781D01*
X114298223Y-111368934D01*
X113250000Y-110320711D01*
X112201777Y-111368934D01*
X107798223Y-111368934D01*
X106750000Y-110320711D01*
X105701777Y-111368934D01*
X100725000Y-111368934D01*
X100725000Y-110232925D01*
X105041860Y-110232925D01*
X105071350Y-110566495D01*
X105165350Y-110887902D01*
X105320247Y-111184795D01*
X105339219Y-111213189D01*
X105631066Y-111298223D01*
X106679289Y-110250000D01*
X106820711Y-110250000D01*
X107868934Y-111298223D01*
X108160781Y-111213189D01*
X108321582Y-110919452D01*
X108421988Y-110599988D01*
X108458140Y-110267075D01*
X108455121Y-110232925D01*
X111541860Y-110232925D01*
X111571350Y-110566495D01*
X111665350Y-110887902D01*
X111820247Y-111184795D01*
X111839219Y-111213189D01*
X112131066Y-111298223D01*
X113179289Y-110250000D01*
X113320711Y-110250000D01*
X114368934Y-111298223D01*
X114660781Y-111213189D01*
X114821582Y-110919452D01*
X114921988Y-110599988D01*
X114958140Y-110267075D01*
X114928650Y-109933505D01*
X114834650Y-109612098D01*
X114679753Y-109315205D01*
X114660781Y-109286811D01*
X114368934Y-109201777D01*
X113320711Y-110250000D01*
X113179289Y-110250000D01*
X112131066Y-109201777D01*
X111839219Y-109286811D01*
X111678418Y-109580548D01*
X111578012Y-109900012D01*
X111541860Y-110232925D01*
X108455121Y-110232925D01*
X108428650Y-109933505D01*
X108334650Y-109612098D01*
X108179753Y-109315205D01*
X108160781Y-109286811D01*
X107868934Y-109201777D01*
X106820711Y-110250000D01*
X106679289Y-110250000D01*
X105631066Y-109201777D01*
X105339219Y-109286811D01*
X105178418Y-109580548D01*
X105078012Y-109900012D01*
X105041860Y-110232925D01*
X100725000Y-110232925D01*
X100725000Y-109131066D01*
X105701777Y-109131066D01*
X106750000Y-110179289D01*
X107798223Y-109131066D01*
X112201777Y-109131066D01*
X113250000Y-110179289D01*
X114298223Y-109131066D01*
X114213189Y-108839219D01*
X113919452Y-108678418D01*
X113599988Y-108578012D01*
X113267075Y-108541860D01*
X112933505Y-108571350D01*
X112612098Y-108665350D01*
X112315205Y-108820247D01*
X112286811Y-108839219D01*
X112201777Y-109131066D01*
X107798223Y-109131066D01*
X107713189Y-108839219D01*
X107419452Y-108678418D01*
X107099988Y-108578012D01*
X106767075Y-108541860D01*
X106433505Y-108571350D01*
X106112098Y-108665350D01*
X105815205Y-108820247D01*
X105786811Y-108839219D01*
X105701777Y-109131066D01*
X100725000Y-109131066D01*
X100725000Y-105763935D01*
X100747393Y-105778898D01*
X101420750Y-106057811D01*
X102135582Y-106200000D01*
X102864418Y-106200000D01*
X103579250Y-106057811D01*
X104252607Y-105778898D01*
X104858613Y-105373978D01*
X105212109Y-105020482D01*
X105115330Y-105254128D01*
G36*
X144221102Y-100747393D02*
G01*
X143942189Y-101420750D01*
X143800000Y-102135582D01*
X143800000Y-102864418D01*
X143942189Y-103579250D01*
X144221102Y-104252607D01*
X144626022Y-104858613D01*
X145141387Y-105373978D01*
X145479653Y-105600000D01*
X114950000Y-105600000D01*
X114950000Y-105582565D01*
X114884670Y-105254128D01*
X114756521Y-104944748D01*
X114570477Y-104666313D01*
X114333687Y-104429523D01*
X114055252Y-104243479D01*
X113745872Y-104115330D01*
X113417435Y-104050000D01*
X113082565Y-104050000D01*
X112754128Y-104115330D01*
X112444748Y-104243479D01*
X112166313Y-104429523D01*
X111929523Y-104666313D01*
X111806787Y-104850000D01*
X108193213Y-104850000D01*
X108070477Y-104666313D01*
X107833687Y-104429523D01*
X107555252Y-104243479D01*
X107245872Y-104115330D01*
X106917435Y-104050000D01*
X106582565Y-104050000D01*
X106254128Y-104115330D01*
X105944748Y-104243479D01*
X105666313Y-104429523D01*
X105649357Y-104446479D01*
X105778898Y-104252607D01*
X106057811Y-103579250D01*
X106200000Y-102864418D01*
X106200000Y-102135582D01*
X106057811Y-101420750D01*
X105778898Y-100747393D01*
X105763935Y-100725000D01*
X144236065Y-100725000D01*
X144221102Y-100747393D01*
G37*
X144221102Y-100747393D02*
X143942189Y-101420750D01*
X143800000Y-102135582D01*
X143800000Y-102864418D01*
X143942189Y-103579250D01*
X144221102Y-104252607D01*
X144626022Y-104858613D01*
X145141387Y-105373978D01*
X145479653Y-105600000D01*
X114950000Y-105600000D01*
X114950000Y-105582565D01*
X114884670Y-105254128D01*
X114756521Y-104944748D01*
X114570477Y-104666313D01*
X114333687Y-104429523D01*
X114055252Y-104243479D01*
X113745872Y-104115330D01*
X113417435Y-104050000D01*
X113082565Y-104050000D01*
X112754128Y-104115330D01*
X112444748Y-104243479D01*
X112166313Y-104429523D01*
X111929523Y-104666313D01*
X111806787Y-104850000D01*
X108193213Y-104850000D01*
X108070477Y-104666313D01*
X107833687Y-104429523D01*
X107555252Y-104243479D01*
X107245872Y-104115330D01*
X106917435Y-104050000D01*
X106582565Y-104050000D01*
X106254128Y-104115330D01*
X105944748Y-104243479D01*
X105666313Y-104429523D01*
X105649357Y-104446479D01*
X105778898Y-104252607D01*
X106057811Y-103579250D01*
X106200000Y-102864418D01*
X106200000Y-102135582D01*
X106057811Y-101420750D01*
X105778898Y-100747393D01*
X105763935Y-100725000D01*
X144236065Y-100725000D01*
X144221102Y-100747393D01*
M02*
