M48
; DRILL file {KiCad (5.1.5)-3} date 2020/4/13 22:53:38
; FORMAT={-:-/ absolute / metric / decimal}
; #@! TF.CreationDate,2020-04-13T22:53:38+08:00
; #@! TF.GenerationSoftware,Kicad,Pcbnew,(5.1.5)-3
; #@! TF.FileFunction,Plated,1,2,PTH
FMAT,2
METRIC
T1C0.400
T2C0.500
T3C1.000
T4C1.100
T5C1.500
T6C3.000
%
G90
G05
T1
X102.5Y-107.5
X102.5Y-112.5
X102.5Y-117.5
X102.5Y-122.5
X102.5Y-127.5
X107.5Y-102.5
X107.5Y-132.5
X110.0Y-110.0
X110.0Y-120.0
X110.0Y-130.0
X112.5Y-102.5
X115.0Y-130.0
X117.5Y-102.5
X120.0Y-105.0
X120.0Y-130.0
X122.5Y-102.5
X122.5Y-110.0
X125.0Y-105.0
X125.0Y-130.0
X127.5Y-102.5
X127.5Y-115.0
X130.0Y-105.0
X130.0Y-130.0
X132.5Y-102.5
X132.5Y-115.0
X135.0Y-105.0
X135.0Y-130.0
X137.5Y-102.5
X137.5Y-112.5
X137.5Y-125.0
X140.0Y-105.0
X140.0Y-130.0
X142.5Y-102.5
X142.5Y-132.5
X145.0Y-130.0
T2
X145.25Y-133.5
X145.909Y-131.909
X145.909Y-135.091
X147.5Y-131.25
X147.5Y-135.75
X149.091Y-131.909
X149.091Y-135.091
X149.75Y-133.5
X145.25Y-102.5
X145.909Y-100.909
X145.909Y-104.091
X147.5Y-100.25
X147.5Y-104.75
X149.091Y-100.909
X149.091Y-104.091
X149.75Y-102.5
X100.25Y-133.5
X100.909Y-131.909
X100.909Y-135.091
X102.5Y-131.25
X102.5Y-135.75
X104.091Y-131.909
X104.091Y-135.091
X104.75Y-133.5
X100.25Y-102.5
X100.909Y-100.909
X100.909Y-104.091
X102.5Y-100.25
X102.5Y-104.75
X104.091Y-100.909
X104.091Y-104.091
X104.75Y-102.5
T3
X147.0Y-109.0
X147.0Y-111.54
X147.0Y-114.08
X147.0Y-116.62
X147.0Y-119.16
X147.0Y-121.7
X147.0Y-124.24
X147.0Y-126.78
X122.5Y-115.5
X122.5Y-118.0
X122.5Y-120.5
X137.0Y-115.5
X137.0Y-120.5
T4
X106.75Y-125.75
X106.75Y-130.25
X113.25Y-125.75
X113.25Y-130.25
X106.75Y-105.75
X106.75Y-110.25
X113.25Y-105.75
X113.25Y-110.25
X106.75Y-115.75
X106.75Y-120.25
X113.25Y-115.75
X113.25Y-120.25
T6
X147.5Y-133.5
X147.5Y-102.5
X102.5Y-133.5
X102.5Y-102.5
T5
G00X129.35Y-112.4
M15
G01X130.65Y-112.4
M16
G05
G00X129.35Y-123.6
M15
G01X130.65Y-123.6
M16
G05
T0
M30
