G04 #@! TF.GenerationSoftware,KiCad,Pcbnew,(5.1.5)-3*
G04 #@! TF.CreationDate,2020-04-13T22:53:19+08:00*
G04 #@! TF.ProjectId,encoder_3btn,656e636f-6465-4725-9f33-62746e2e6b69,rev?*
G04 #@! TF.SameCoordinates,Original*
G04 #@! TF.FileFunction,Legend,Bot*
G04 #@! TF.FilePolarity,Positive*
%FSLAX46Y46*%
G04 Gerber Fmt 4.6, Leading zero omitted, Abs format (unit mm)*
G04 Created by KiCad (PCBNEW (5.1.5)-3) date 2020-04-13 22:53:19*
%MOMM*%
%LPD*%
G04 APERTURE LIST*
%ADD10C,0.150000*%
%ADD11C,0.120000*%
%ADD12C,2.102000*%
%ADD13R,2.102000X2.102000*%
%ADD14R,3.302000X2.102000*%
%ADD15C,6.102000*%
%ADD16C,0.902000*%
%ADD17C,0.100000*%
%ADD18O,1.802000X1.802000*%
%ADD19R,1.802000X1.802000*%
G04 APERTURE END LIST*
D10*
X142600000Y-125985714D02*
X142428571Y-126042857D01*
X142142857Y-126042857D01*
X142028571Y-125985714D01*
X141971428Y-125928571D01*
X141914285Y-125814285D01*
X141914285Y-125700000D01*
X141971428Y-125585714D01*
X142028571Y-125528571D01*
X142142857Y-125471428D01*
X142371428Y-125414285D01*
X142485714Y-125357142D01*
X142542857Y-125300000D01*
X142600000Y-125185714D01*
X142600000Y-125071428D01*
X142542857Y-124957142D01*
X142485714Y-124900000D01*
X142371428Y-124842857D01*
X142085714Y-124842857D01*
X141914285Y-124900000D01*
X141514285Y-124842857D02*
X141228571Y-126042857D01*
X141000000Y-125185714D01*
X140771428Y-126042857D01*
X140485714Y-124842857D01*
X140142857Y-124842857D02*
X139400000Y-124842857D01*
X139800000Y-125300000D01*
X139628571Y-125300000D01*
X139514285Y-125357142D01*
X139457142Y-125414285D01*
X139400000Y-125528571D01*
X139400000Y-125814285D01*
X139457142Y-125928571D01*
X139514285Y-125985714D01*
X139628571Y-126042857D01*
X139971428Y-126042857D01*
X140085714Y-125985714D01*
X140142857Y-125928571D01*
X142600000Y-123485714D02*
X142428571Y-123542857D01*
X142142857Y-123542857D01*
X142028571Y-123485714D01*
X141971428Y-123428571D01*
X141914285Y-123314285D01*
X141914285Y-123200000D01*
X141971428Y-123085714D01*
X142028571Y-123028571D01*
X142142857Y-122971428D01*
X142371428Y-122914285D01*
X142485714Y-122857142D01*
X142542857Y-122800000D01*
X142600000Y-122685714D01*
X142600000Y-122571428D01*
X142542857Y-122457142D01*
X142485714Y-122400000D01*
X142371428Y-122342857D01*
X142085714Y-122342857D01*
X141914285Y-122400000D01*
X141514285Y-122342857D02*
X141228571Y-123542857D01*
X141000000Y-122685714D01*
X140771428Y-123542857D01*
X140485714Y-122342857D01*
X140085714Y-122457142D02*
X140028571Y-122400000D01*
X139914285Y-122342857D01*
X139628571Y-122342857D01*
X139514285Y-122400000D01*
X139457142Y-122457142D01*
X139400000Y-122571428D01*
X139400000Y-122685714D01*
X139457142Y-122857142D01*
X140142857Y-123542857D01*
X139400000Y-123542857D01*
X142600000Y-120985714D02*
X142428571Y-121042857D01*
X142142857Y-121042857D01*
X142028571Y-120985714D01*
X141971428Y-120928571D01*
X141914285Y-120814285D01*
X141914285Y-120700000D01*
X141971428Y-120585714D01*
X142028571Y-120528571D01*
X142142857Y-120471428D01*
X142371428Y-120414285D01*
X142485714Y-120357142D01*
X142542857Y-120300000D01*
X142600000Y-120185714D01*
X142600000Y-120071428D01*
X142542857Y-119957142D01*
X142485714Y-119900000D01*
X142371428Y-119842857D01*
X142085714Y-119842857D01*
X141914285Y-119900000D01*
X141514285Y-119842857D02*
X141228571Y-121042857D01*
X141000000Y-120185714D01*
X140771428Y-121042857D01*
X140485714Y-119842857D01*
X139400000Y-121042857D02*
X140085714Y-121042857D01*
X139742857Y-121042857D02*
X139742857Y-119842857D01*
X139857142Y-120014285D01*
X139971428Y-120128571D01*
X140085714Y-120185714D01*
X142528571Y-118485714D02*
X142357142Y-118542857D01*
X142071428Y-118542857D01*
X141957142Y-118485714D01*
X141900000Y-118428571D01*
X141842857Y-118314285D01*
X141842857Y-118200000D01*
X141900000Y-118085714D01*
X141957142Y-118028571D01*
X142071428Y-117971428D01*
X142300000Y-117914285D01*
X142414285Y-117857142D01*
X142471428Y-117800000D01*
X142528571Y-117685714D01*
X142528571Y-117571428D01*
X142471428Y-117457142D01*
X142414285Y-117400000D01*
X142300000Y-117342857D01*
X142014285Y-117342857D01*
X141842857Y-117400000D01*
X141442857Y-117342857D02*
X141157142Y-118542857D01*
X140928571Y-117685714D01*
X140700000Y-118542857D01*
X140414285Y-117342857D01*
X142521428Y-116042857D02*
X142521428Y-114842857D01*
X142235714Y-114842857D01*
X142064285Y-114900000D01*
X141950000Y-115014285D01*
X141892857Y-115128571D01*
X141835714Y-115357142D01*
X141835714Y-115528571D01*
X141892857Y-115757142D01*
X141950000Y-115871428D01*
X142064285Y-115985714D01*
X142235714Y-116042857D01*
X142521428Y-116042857D01*
X141492857Y-114842857D02*
X140807142Y-114842857D01*
X141150000Y-116042857D02*
X141150000Y-114842857D01*
X141964285Y-113428571D02*
X142021428Y-113485714D01*
X142192857Y-113542857D01*
X142307142Y-113542857D01*
X142478571Y-113485714D01*
X142592857Y-113371428D01*
X142650000Y-113257142D01*
X142707142Y-113028571D01*
X142707142Y-112857142D01*
X142650000Y-112628571D01*
X142592857Y-112514285D01*
X142478571Y-112400000D01*
X142307142Y-112342857D01*
X142192857Y-112342857D01*
X142021428Y-112400000D01*
X141964285Y-112457142D01*
X140878571Y-113542857D02*
X141450000Y-113542857D01*
X141450000Y-112342857D01*
X140478571Y-113542857D02*
X140478571Y-112342857D01*
X139792857Y-113542857D02*
X140307142Y-112857142D01*
X139792857Y-112342857D02*
X140478571Y-113028571D01*
X141914285Y-109900000D02*
X142028571Y-109842857D01*
X142200000Y-109842857D01*
X142371428Y-109900000D01*
X142485714Y-110014285D01*
X142542857Y-110128571D01*
X142600000Y-110357142D01*
X142600000Y-110528571D01*
X142542857Y-110757142D01*
X142485714Y-110871428D01*
X142371428Y-110985714D01*
X142200000Y-111042857D01*
X142085714Y-111042857D01*
X141914285Y-110985714D01*
X141857142Y-110928571D01*
X141857142Y-110528571D01*
X142085714Y-110528571D01*
X141342857Y-111042857D02*
X141342857Y-109842857D01*
X140657142Y-111042857D01*
X140657142Y-109842857D01*
X140085714Y-111042857D02*
X140085714Y-109842857D01*
X139800000Y-109842857D01*
X139628571Y-109900000D01*
X139514285Y-110014285D01*
X139457142Y-110128571D01*
X139400000Y-110357142D01*
X139400000Y-110528571D01*
X139457142Y-110757142D01*
X139514285Y-110871428D01*
X139628571Y-110985714D01*
X139800000Y-111042857D01*
X140085714Y-111042857D01*
X142600000Y-107342857D02*
X142200000Y-108542857D01*
X141800000Y-107342857D01*
X140714285Y-108428571D02*
X140771428Y-108485714D01*
X140942857Y-108542857D01*
X141057142Y-108542857D01*
X141228571Y-108485714D01*
X141342857Y-108371428D01*
X141400000Y-108257142D01*
X141457142Y-108028571D01*
X141457142Y-107857142D01*
X141400000Y-107628571D01*
X141342857Y-107514285D01*
X141228571Y-107400000D01*
X141057142Y-107342857D01*
X140942857Y-107342857D01*
X140771428Y-107400000D01*
X140714285Y-107457142D01*
X139514285Y-108428571D02*
X139571428Y-108485714D01*
X139742857Y-108542857D01*
X139857142Y-108542857D01*
X140028571Y-108485714D01*
X140142857Y-108371428D01*
X140200000Y-108257142D01*
X140257142Y-108028571D01*
X140257142Y-107857142D01*
X140200000Y-107628571D01*
X140142857Y-107514285D01*
X140028571Y-107400000D01*
X139857142Y-107342857D01*
X139742857Y-107342857D01*
X139571428Y-107400000D01*
X139514285Y-107457142D01*
D11*
X118261252Y-125960000D02*
X117738748Y-125960000D01*
X118261252Y-124540000D02*
X117738748Y-124540000D01*
X117738748Y-109290000D02*
X118261252Y-109290000D01*
X117738748Y-110710000D02*
X118261252Y-110710000D01*
X148270000Y-107730000D02*
X147000000Y-107730000D01*
X148270000Y-109000000D02*
X148270000Y-107730000D01*
X145957071Y-127160000D02*
X145560000Y-127160000D01*
X145957071Y-126400000D02*
X145560000Y-126400000D01*
X136900000Y-127160000D02*
X142900000Y-127160000D01*
X136900000Y-126400000D02*
X136900000Y-127160000D01*
X142900000Y-126400000D02*
X136900000Y-126400000D01*
X145560000Y-125510000D02*
X142900000Y-125510000D01*
X145957071Y-124620000D02*
X145560000Y-124620000D01*
X145957071Y-123860000D02*
X145560000Y-123860000D01*
X136900000Y-124620000D02*
X142900000Y-124620000D01*
X136900000Y-123860000D02*
X136900000Y-124620000D01*
X142900000Y-123860000D02*
X136900000Y-123860000D01*
X145560000Y-122970000D02*
X142900000Y-122970000D01*
X145957071Y-122080000D02*
X145560000Y-122080000D01*
X145957071Y-121320000D02*
X145560000Y-121320000D01*
X136900000Y-122080000D02*
X142900000Y-122080000D01*
X136900000Y-121320000D02*
X136900000Y-122080000D01*
X142900000Y-121320000D02*
X136900000Y-121320000D01*
X145560000Y-120430000D02*
X142900000Y-120430000D01*
X145957071Y-119540000D02*
X145560000Y-119540000D01*
X145957071Y-118780000D02*
X145560000Y-118780000D01*
X136900000Y-119540000D02*
X142900000Y-119540000D01*
X136900000Y-118780000D02*
X136900000Y-119540000D01*
X142900000Y-118780000D02*
X136900000Y-118780000D01*
X145560000Y-117890000D02*
X142900000Y-117890000D01*
X145957071Y-117000000D02*
X145560000Y-117000000D01*
X145957071Y-116240000D02*
X145560000Y-116240000D01*
X136900000Y-117000000D02*
X142900000Y-117000000D01*
X136900000Y-116240000D02*
X136900000Y-117000000D01*
X142900000Y-116240000D02*
X136900000Y-116240000D01*
X145560000Y-115350000D02*
X142900000Y-115350000D01*
X145957071Y-114460000D02*
X145560000Y-114460000D01*
X145957071Y-113700000D02*
X145560000Y-113700000D01*
X136900000Y-114460000D02*
X142900000Y-114460000D01*
X136900000Y-113700000D02*
X136900000Y-114460000D01*
X142900000Y-113700000D02*
X136900000Y-113700000D01*
X145560000Y-112810000D02*
X142900000Y-112810000D01*
X145957071Y-111920000D02*
X145560000Y-111920000D01*
X145957071Y-111160000D02*
X145560000Y-111160000D01*
X136900000Y-111920000D02*
X142900000Y-111920000D01*
X136900000Y-111160000D02*
X136900000Y-111920000D01*
X142900000Y-111160000D02*
X136900000Y-111160000D01*
X145560000Y-110270000D02*
X142900000Y-110270000D01*
X145890000Y-109380000D02*
X145560000Y-109380000D01*
X145890000Y-108620000D02*
X145560000Y-108620000D01*
X142900000Y-109280000D02*
X136900000Y-109280000D01*
X142900000Y-109160000D02*
X136900000Y-109160000D01*
X142900000Y-109040000D02*
X136900000Y-109040000D01*
X142900000Y-108920000D02*
X136900000Y-108920000D01*
X142900000Y-108800000D02*
X136900000Y-108800000D01*
X142900000Y-108680000D02*
X136900000Y-108680000D01*
X136900000Y-109380000D02*
X142900000Y-109380000D01*
X136900000Y-108620000D02*
X136900000Y-109380000D01*
X142900000Y-108620000D02*
X136900000Y-108620000D01*
X142900000Y-107670000D02*
X145560000Y-107670000D01*
X142900000Y-128110000D02*
X142900000Y-107670000D01*
X145560000Y-128110000D02*
X142900000Y-128110000D01*
X145560000Y-107670000D02*
X145560000Y-128110000D01*
X117828733Y-119740000D02*
X118171267Y-119740000D01*
X117828733Y-120760000D02*
X118171267Y-120760000D01*
X118171267Y-115760000D02*
X117828733Y-115760000D01*
X118171267Y-114740000D02*
X117828733Y-114740000D01*
D10*
X118166666Y-127202380D02*
X118500000Y-126726190D01*
X118738095Y-127202380D02*
X118738095Y-126202380D01*
X118357142Y-126202380D01*
X118261904Y-126250000D01*
X118214285Y-126297619D01*
X118166666Y-126392857D01*
X118166666Y-126535714D01*
X118214285Y-126630952D01*
X118261904Y-126678571D01*
X118357142Y-126726190D01*
X118738095Y-126726190D01*
X117785714Y-126297619D02*
X117738095Y-126250000D01*
X117642857Y-126202380D01*
X117404761Y-126202380D01*
X117309523Y-126250000D01*
X117261904Y-126297619D01*
X117214285Y-126392857D01*
X117214285Y-126488095D01*
X117261904Y-126630952D01*
X117833333Y-127202380D01*
X117214285Y-127202380D01*
X118166666Y-112102380D02*
X118500000Y-111626190D01*
X118738095Y-112102380D02*
X118738095Y-111102380D01*
X118357142Y-111102380D01*
X118261904Y-111150000D01*
X118214285Y-111197619D01*
X118166666Y-111292857D01*
X118166666Y-111435714D01*
X118214285Y-111530952D01*
X118261904Y-111578571D01*
X118357142Y-111626190D01*
X118738095Y-111626190D01*
X117214285Y-112102380D02*
X117785714Y-112102380D01*
X117500000Y-112102380D02*
X117500000Y-111102380D01*
X117595238Y-111245238D01*
X117690476Y-111340476D01*
X117785714Y-111388095D01*
X144833333Y-126952380D02*
X144833333Y-127666666D01*
X144880952Y-127809523D01*
X144976190Y-127904761D01*
X145119047Y-127952380D01*
X145214285Y-127952380D01*
X143833333Y-127952380D02*
X144404761Y-127952380D01*
X144119047Y-127952380D02*
X144119047Y-126952380D01*
X144214285Y-127095238D01*
X144309523Y-127190476D01*
X144404761Y-127238095D01*
X118166666Y-122037142D02*
X118214285Y-122084761D01*
X118357142Y-122132380D01*
X118452380Y-122132380D01*
X118595238Y-122084761D01*
X118690476Y-121989523D01*
X118738095Y-121894285D01*
X118785714Y-121703809D01*
X118785714Y-121560952D01*
X118738095Y-121370476D01*
X118690476Y-121275238D01*
X118595238Y-121180000D01*
X118452380Y-121132380D01*
X118357142Y-121132380D01*
X118214285Y-121180000D01*
X118166666Y-121227619D01*
X117785714Y-121227619D02*
X117738095Y-121180000D01*
X117642857Y-121132380D01*
X117404761Y-121132380D01*
X117309523Y-121180000D01*
X117261904Y-121227619D01*
X117214285Y-121322857D01*
X117214285Y-121418095D01*
X117261904Y-121560952D01*
X117833333Y-122132380D01*
X117214285Y-122132380D01*
X118166666Y-117107142D02*
X118214285Y-117154761D01*
X118357142Y-117202380D01*
X118452380Y-117202380D01*
X118595238Y-117154761D01*
X118690476Y-117059523D01*
X118738095Y-116964285D01*
X118785714Y-116773809D01*
X118785714Y-116630952D01*
X118738095Y-116440476D01*
X118690476Y-116345238D01*
X118595238Y-116250000D01*
X118452380Y-116202380D01*
X118357142Y-116202380D01*
X118214285Y-116250000D01*
X118166666Y-116297619D01*
X117214285Y-117202380D02*
X117785714Y-117202380D01*
X117500000Y-117202380D02*
X117500000Y-116202380D01*
X117595238Y-116345238D01*
X117690476Y-116440476D01*
X117785714Y-116488095D01*
%LPC*%
D12*
X113250000Y-125750000D03*
X113250000Y-130250000D03*
X106750000Y-125750000D03*
X106750000Y-130250000D03*
X113250000Y-115750000D03*
X113250000Y-120250000D03*
X106750000Y-115750000D03*
X106750000Y-120250000D03*
X113250000Y-105750000D03*
X113250000Y-110250000D03*
X106750000Y-105750000D03*
X106750000Y-110250000D03*
D13*
X122500000Y-115500000D03*
D12*
X122500000Y-118000000D03*
X122500000Y-120500000D03*
D14*
X130000000Y-112400000D03*
X130000000Y-123600000D03*
D12*
X137000000Y-115500000D03*
X137000000Y-120500000D03*
D15*
X147500000Y-102500000D03*
D16*
X149750000Y-102500000D03*
X149090990Y-104090990D03*
X147500000Y-104750000D03*
X145909010Y-104090990D03*
X145250000Y-102500000D03*
X145909010Y-100909010D03*
X147500000Y-100250000D03*
X149090990Y-100909010D03*
X104090990Y-100909010D03*
X102500000Y-100250000D03*
X100909010Y-100909010D03*
X100250000Y-102500000D03*
X100909010Y-104090990D03*
X102500000Y-104750000D03*
X104090990Y-104090990D03*
X104750000Y-102500000D03*
D15*
X102500000Y-102500000D03*
X102500000Y-133500000D03*
D16*
X104750000Y-133500000D03*
X104090990Y-135090990D03*
X102500000Y-135750000D03*
X100909010Y-135090990D03*
X100250000Y-133500000D03*
X100909010Y-131909010D03*
X102500000Y-131250000D03*
X104090990Y-131909010D03*
X149090990Y-131909010D03*
X147500000Y-131250000D03*
X145909010Y-131909010D03*
X145250000Y-133500000D03*
X145909010Y-135090990D03*
X147500000Y-135750000D03*
X149090990Y-135090990D03*
X149750000Y-133500000D03*
D15*
X147500000Y-133500000D03*
D17*
G36*
X117355505Y-124500311D02*
G01*
X117381925Y-124504230D01*
X117407835Y-124510720D01*
X117432983Y-124519718D01*
X117457128Y-124531138D01*
X117480038Y-124544869D01*
X117501492Y-124560780D01*
X117521282Y-124578718D01*
X117539220Y-124598508D01*
X117555131Y-124619962D01*
X117568862Y-124642872D01*
X117580282Y-124667017D01*
X117589280Y-124692165D01*
X117595770Y-124718075D01*
X117599689Y-124744495D01*
X117601000Y-124771173D01*
X117601000Y-125728827D01*
X117599689Y-125755505D01*
X117595770Y-125781925D01*
X117589280Y-125807835D01*
X117580282Y-125832983D01*
X117568862Y-125857128D01*
X117555131Y-125880038D01*
X117539220Y-125901492D01*
X117521282Y-125921282D01*
X117501492Y-125939220D01*
X117480038Y-125955131D01*
X117457128Y-125968862D01*
X117432983Y-125980282D01*
X117407835Y-125989280D01*
X117381925Y-125995770D01*
X117355505Y-125999689D01*
X117328827Y-126001000D01*
X116621173Y-126001000D01*
X116594495Y-125999689D01*
X116568075Y-125995770D01*
X116542165Y-125989280D01*
X116517017Y-125980282D01*
X116492872Y-125968862D01*
X116469962Y-125955131D01*
X116448508Y-125939220D01*
X116428718Y-125921282D01*
X116410780Y-125901492D01*
X116394869Y-125880038D01*
X116381138Y-125857128D01*
X116369718Y-125832983D01*
X116360720Y-125807835D01*
X116354230Y-125781925D01*
X116350311Y-125755505D01*
X116349000Y-125728827D01*
X116349000Y-124771173D01*
X116350311Y-124744495D01*
X116354230Y-124718075D01*
X116360720Y-124692165D01*
X116369718Y-124667017D01*
X116381138Y-124642872D01*
X116394869Y-124619962D01*
X116410780Y-124598508D01*
X116428718Y-124578718D01*
X116448508Y-124560780D01*
X116469962Y-124544869D01*
X116492872Y-124531138D01*
X116517017Y-124519718D01*
X116542165Y-124510720D01*
X116568075Y-124504230D01*
X116594495Y-124500311D01*
X116621173Y-124499000D01*
X117328827Y-124499000D01*
X117355505Y-124500311D01*
G37*
G36*
X119405505Y-124500311D02*
G01*
X119431925Y-124504230D01*
X119457835Y-124510720D01*
X119482983Y-124519718D01*
X119507128Y-124531138D01*
X119530038Y-124544869D01*
X119551492Y-124560780D01*
X119571282Y-124578718D01*
X119589220Y-124598508D01*
X119605131Y-124619962D01*
X119618862Y-124642872D01*
X119630282Y-124667017D01*
X119639280Y-124692165D01*
X119645770Y-124718075D01*
X119649689Y-124744495D01*
X119651000Y-124771173D01*
X119651000Y-125728827D01*
X119649689Y-125755505D01*
X119645770Y-125781925D01*
X119639280Y-125807835D01*
X119630282Y-125832983D01*
X119618862Y-125857128D01*
X119605131Y-125880038D01*
X119589220Y-125901492D01*
X119571282Y-125921282D01*
X119551492Y-125939220D01*
X119530038Y-125955131D01*
X119507128Y-125968862D01*
X119482983Y-125980282D01*
X119457835Y-125989280D01*
X119431925Y-125995770D01*
X119405505Y-125999689D01*
X119378827Y-126001000D01*
X118671173Y-126001000D01*
X118644495Y-125999689D01*
X118618075Y-125995770D01*
X118592165Y-125989280D01*
X118567017Y-125980282D01*
X118542872Y-125968862D01*
X118519962Y-125955131D01*
X118498508Y-125939220D01*
X118478718Y-125921282D01*
X118460780Y-125901492D01*
X118444869Y-125880038D01*
X118431138Y-125857128D01*
X118419718Y-125832983D01*
X118410720Y-125807835D01*
X118404230Y-125781925D01*
X118400311Y-125755505D01*
X118399000Y-125728827D01*
X118399000Y-124771173D01*
X118400311Y-124744495D01*
X118404230Y-124718075D01*
X118410720Y-124692165D01*
X118419718Y-124667017D01*
X118431138Y-124642872D01*
X118444869Y-124619962D01*
X118460780Y-124598508D01*
X118478718Y-124578718D01*
X118498508Y-124560780D01*
X118519962Y-124544869D01*
X118542872Y-124531138D01*
X118567017Y-124519718D01*
X118592165Y-124510720D01*
X118618075Y-124504230D01*
X118644495Y-124500311D01*
X118671173Y-124499000D01*
X119378827Y-124499000D01*
X119405505Y-124500311D01*
G37*
G36*
X119405505Y-109250311D02*
G01*
X119431925Y-109254230D01*
X119457835Y-109260720D01*
X119482983Y-109269718D01*
X119507128Y-109281138D01*
X119530038Y-109294869D01*
X119551492Y-109310780D01*
X119571282Y-109328718D01*
X119589220Y-109348508D01*
X119605131Y-109369962D01*
X119618862Y-109392872D01*
X119630282Y-109417017D01*
X119639280Y-109442165D01*
X119645770Y-109468075D01*
X119649689Y-109494495D01*
X119651000Y-109521173D01*
X119651000Y-110478827D01*
X119649689Y-110505505D01*
X119645770Y-110531925D01*
X119639280Y-110557835D01*
X119630282Y-110582983D01*
X119618862Y-110607128D01*
X119605131Y-110630038D01*
X119589220Y-110651492D01*
X119571282Y-110671282D01*
X119551492Y-110689220D01*
X119530038Y-110705131D01*
X119507128Y-110718862D01*
X119482983Y-110730282D01*
X119457835Y-110739280D01*
X119431925Y-110745770D01*
X119405505Y-110749689D01*
X119378827Y-110751000D01*
X118671173Y-110751000D01*
X118644495Y-110749689D01*
X118618075Y-110745770D01*
X118592165Y-110739280D01*
X118567017Y-110730282D01*
X118542872Y-110718862D01*
X118519962Y-110705131D01*
X118498508Y-110689220D01*
X118478718Y-110671282D01*
X118460780Y-110651492D01*
X118444869Y-110630038D01*
X118431138Y-110607128D01*
X118419718Y-110582983D01*
X118410720Y-110557835D01*
X118404230Y-110531925D01*
X118400311Y-110505505D01*
X118399000Y-110478827D01*
X118399000Y-109521173D01*
X118400311Y-109494495D01*
X118404230Y-109468075D01*
X118410720Y-109442165D01*
X118419718Y-109417017D01*
X118431138Y-109392872D01*
X118444869Y-109369962D01*
X118460780Y-109348508D01*
X118478718Y-109328718D01*
X118498508Y-109310780D01*
X118519962Y-109294869D01*
X118542872Y-109281138D01*
X118567017Y-109269718D01*
X118592165Y-109260720D01*
X118618075Y-109254230D01*
X118644495Y-109250311D01*
X118671173Y-109249000D01*
X119378827Y-109249000D01*
X119405505Y-109250311D01*
G37*
G36*
X117355505Y-109250311D02*
G01*
X117381925Y-109254230D01*
X117407835Y-109260720D01*
X117432983Y-109269718D01*
X117457128Y-109281138D01*
X117480038Y-109294869D01*
X117501492Y-109310780D01*
X117521282Y-109328718D01*
X117539220Y-109348508D01*
X117555131Y-109369962D01*
X117568862Y-109392872D01*
X117580282Y-109417017D01*
X117589280Y-109442165D01*
X117595770Y-109468075D01*
X117599689Y-109494495D01*
X117601000Y-109521173D01*
X117601000Y-110478827D01*
X117599689Y-110505505D01*
X117595770Y-110531925D01*
X117589280Y-110557835D01*
X117580282Y-110582983D01*
X117568862Y-110607128D01*
X117555131Y-110630038D01*
X117539220Y-110651492D01*
X117521282Y-110671282D01*
X117501492Y-110689220D01*
X117480038Y-110705131D01*
X117457128Y-110718862D01*
X117432983Y-110730282D01*
X117407835Y-110739280D01*
X117381925Y-110745770D01*
X117355505Y-110749689D01*
X117328827Y-110751000D01*
X116621173Y-110751000D01*
X116594495Y-110749689D01*
X116568075Y-110745770D01*
X116542165Y-110739280D01*
X116517017Y-110730282D01*
X116492872Y-110718862D01*
X116469962Y-110705131D01*
X116448508Y-110689220D01*
X116428718Y-110671282D01*
X116410780Y-110651492D01*
X116394869Y-110630038D01*
X116381138Y-110607128D01*
X116369718Y-110582983D01*
X116360720Y-110557835D01*
X116354230Y-110531925D01*
X116350311Y-110505505D01*
X116349000Y-110478827D01*
X116349000Y-109521173D01*
X116350311Y-109494495D01*
X116354230Y-109468075D01*
X116360720Y-109442165D01*
X116369718Y-109417017D01*
X116381138Y-109392872D01*
X116394869Y-109369962D01*
X116410780Y-109348508D01*
X116428718Y-109328718D01*
X116448508Y-109310780D01*
X116469962Y-109294869D01*
X116492872Y-109281138D01*
X116517017Y-109269718D01*
X116542165Y-109260720D01*
X116568075Y-109254230D01*
X116594495Y-109250311D01*
X116621173Y-109249000D01*
X117328827Y-109249000D01*
X117355505Y-109250311D01*
G37*
D18*
X147000000Y-126780000D03*
X147000000Y-124240000D03*
X147000000Y-121700000D03*
X147000000Y-119160000D03*
X147000000Y-116620000D03*
X147000000Y-114080000D03*
X147000000Y-111540000D03*
D19*
X147000000Y-109000000D03*
D17*
G36*
X119213779Y-119725266D02*
G01*
X119239309Y-119729053D01*
X119264345Y-119735325D01*
X119288646Y-119744020D01*
X119311977Y-119755055D01*
X119334115Y-119768323D01*
X119354845Y-119783698D01*
X119373969Y-119801031D01*
X119391302Y-119820155D01*
X119406677Y-119840885D01*
X119419945Y-119863023D01*
X119430980Y-119886354D01*
X119439675Y-119910655D01*
X119445947Y-119935691D01*
X119449734Y-119961221D01*
X119451000Y-119987000D01*
X119451000Y-120513000D01*
X119449734Y-120538779D01*
X119445947Y-120564309D01*
X119439675Y-120589345D01*
X119430980Y-120613646D01*
X119419945Y-120636977D01*
X119406677Y-120659115D01*
X119391302Y-120679845D01*
X119373969Y-120698969D01*
X119354845Y-120716302D01*
X119334115Y-120731677D01*
X119311977Y-120744945D01*
X119288646Y-120755980D01*
X119264345Y-120764675D01*
X119239309Y-120770947D01*
X119213779Y-120774734D01*
X119188000Y-120776000D01*
X118562000Y-120776000D01*
X118536221Y-120774734D01*
X118510691Y-120770947D01*
X118485655Y-120764675D01*
X118461354Y-120755980D01*
X118438023Y-120744945D01*
X118415885Y-120731677D01*
X118395155Y-120716302D01*
X118376031Y-120698969D01*
X118358698Y-120679845D01*
X118343323Y-120659115D01*
X118330055Y-120636977D01*
X118319020Y-120613646D01*
X118310325Y-120589345D01*
X118304053Y-120564309D01*
X118300266Y-120538779D01*
X118299000Y-120513000D01*
X118299000Y-119987000D01*
X118300266Y-119961221D01*
X118304053Y-119935691D01*
X118310325Y-119910655D01*
X118319020Y-119886354D01*
X118330055Y-119863023D01*
X118343323Y-119840885D01*
X118358698Y-119820155D01*
X118376031Y-119801031D01*
X118395155Y-119783698D01*
X118415885Y-119768323D01*
X118438023Y-119755055D01*
X118461354Y-119744020D01*
X118485655Y-119735325D01*
X118510691Y-119729053D01*
X118536221Y-119725266D01*
X118562000Y-119724000D01*
X119188000Y-119724000D01*
X119213779Y-119725266D01*
G37*
G36*
X117463779Y-119725266D02*
G01*
X117489309Y-119729053D01*
X117514345Y-119735325D01*
X117538646Y-119744020D01*
X117561977Y-119755055D01*
X117584115Y-119768323D01*
X117604845Y-119783698D01*
X117623969Y-119801031D01*
X117641302Y-119820155D01*
X117656677Y-119840885D01*
X117669945Y-119863023D01*
X117680980Y-119886354D01*
X117689675Y-119910655D01*
X117695947Y-119935691D01*
X117699734Y-119961221D01*
X117701000Y-119987000D01*
X117701000Y-120513000D01*
X117699734Y-120538779D01*
X117695947Y-120564309D01*
X117689675Y-120589345D01*
X117680980Y-120613646D01*
X117669945Y-120636977D01*
X117656677Y-120659115D01*
X117641302Y-120679845D01*
X117623969Y-120698969D01*
X117604845Y-120716302D01*
X117584115Y-120731677D01*
X117561977Y-120744945D01*
X117538646Y-120755980D01*
X117514345Y-120764675D01*
X117489309Y-120770947D01*
X117463779Y-120774734D01*
X117438000Y-120776000D01*
X116812000Y-120776000D01*
X116786221Y-120774734D01*
X116760691Y-120770947D01*
X116735655Y-120764675D01*
X116711354Y-120755980D01*
X116688023Y-120744945D01*
X116665885Y-120731677D01*
X116645155Y-120716302D01*
X116626031Y-120698969D01*
X116608698Y-120679845D01*
X116593323Y-120659115D01*
X116580055Y-120636977D01*
X116569020Y-120613646D01*
X116560325Y-120589345D01*
X116554053Y-120564309D01*
X116550266Y-120538779D01*
X116549000Y-120513000D01*
X116549000Y-119987000D01*
X116550266Y-119961221D01*
X116554053Y-119935691D01*
X116560325Y-119910655D01*
X116569020Y-119886354D01*
X116580055Y-119863023D01*
X116593323Y-119840885D01*
X116608698Y-119820155D01*
X116626031Y-119801031D01*
X116645155Y-119783698D01*
X116665885Y-119768323D01*
X116688023Y-119755055D01*
X116711354Y-119744020D01*
X116735655Y-119735325D01*
X116760691Y-119729053D01*
X116786221Y-119725266D01*
X116812000Y-119724000D01*
X117438000Y-119724000D01*
X117463779Y-119725266D01*
G37*
G36*
X117463779Y-114725266D02*
G01*
X117489309Y-114729053D01*
X117514345Y-114735325D01*
X117538646Y-114744020D01*
X117561977Y-114755055D01*
X117584115Y-114768323D01*
X117604845Y-114783698D01*
X117623969Y-114801031D01*
X117641302Y-114820155D01*
X117656677Y-114840885D01*
X117669945Y-114863023D01*
X117680980Y-114886354D01*
X117689675Y-114910655D01*
X117695947Y-114935691D01*
X117699734Y-114961221D01*
X117701000Y-114987000D01*
X117701000Y-115513000D01*
X117699734Y-115538779D01*
X117695947Y-115564309D01*
X117689675Y-115589345D01*
X117680980Y-115613646D01*
X117669945Y-115636977D01*
X117656677Y-115659115D01*
X117641302Y-115679845D01*
X117623969Y-115698969D01*
X117604845Y-115716302D01*
X117584115Y-115731677D01*
X117561977Y-115744945D01*
X117538646Y-115755980D01*
X117514345Y-115764675D01*
X117489309Y-115770947D01*
X117463779Y-115774734D01*
X117438000Y-115776000D01*
X116812000Y-115776000D01*
X116786221Y-115774734D01*
X116760691Y-115770947D01*
X116735655Y-115764675D01*
X116711354Y-115755980D01*
X116688023Y-115744945D01*
X116665885Y-115731677D01*
X116645155Y-115716302D01*
X116626031Y-115698969D01*
X116608698Y-115679845D01*
X116593323Y-115659115D01*
X116580055Y-115636977D01*
X116569020Y-115613646D01*
X116560325Y-115589345D01*
X116554053Y-115564309D01*
X116550266Y-115538779D01*
X116549000Y-115513000D01*
X116549000Y-114987000D01*
X116550266Y-114961221D01*
X116554053Y-114935691D01*
X116560325Y-114910655D01*
X116569020Y-114886354D01*
X116580055Y-114863023D01*
X116593323Y-114840885D01*
X116608698Y-114820155D01*
X116626031Y-114801031D01*
X116645155Y-114783698D01*
X116665885Y-114768323D01*
X116688023Y-114755055D01*
X116711354Y-114744020D01*
X116735655Y-114735325D01*
X116760691Y-114729053D01*
X116786221Y-114725266D01*
X116812000Y-114724000D01*
X117438000Y-114724000D01*
X117463779Y-114725266D01*
G37*
G36*
X119213779Y-114725266D02*
G01*
X119239309Y-114729053D01*
X119264345Y-114735325D01*
X119288646Y-114744020D01*
X119311977Y-114755055D01*
X119334115Y-114768323D01*
X119354845Y-114783698D01*
X119373969Y-114801031D01*
X119391302Y-114820155D01*
X119406677Y-114840885D01*
X119419945Y-114863023D01*
X119430980Y-114886354D01*
X119439675Y-114910655D01*
X119445947Y-114935691D01*
X119449734Y-114961221D01*
X119451000Y-114987000D01*
X119451000Y-115513000D01*
X119449734Y-115538779D01*
X119445947Y-115564309D01*
X119439675Y-115589345D01*
X119430980Y-115613646D01*
X119419945Y-115636977D01*
X119406677Y-115659115D01*
X119391302Y-115679845D01*
X119373969Y-115698969D01*
X119354845Y-115716302D01*
X119334115Y-115731677D01*
X119311977Y-115744945D01*
X119288646Y-115755980D01*
X119264345Y-115764675D01*
X119239309Y-115770947D01*
X119213779Y-115774734D01*
X119188000Y-115776000D01*
X118562000Y-115776000D01*
X118536221Y-115774734D01*
X118510691Y-115770947D01*
X118485655Y-115764675D01*
X118461354Y-115755980D01*
X118438023Y-115744945D01*
X118415885Y-115731677D01*
X118395155Y-115716302D01*
X118376031Y-115698969D01*
X118358698Y-115679845D01*
X118343323Y-115659115D01*
X118330055Y-115636977D01*
X118319020Y-115613646D01*
X118310325Y-115589345D01*
X118304053Y-115564309D01*
X118300266Y-115538779D01*
X118299000Y-115513000D01*
X118299000Y-114987000D01*
X118300266Y-114961221D01*
X118304053Y-114935691D01*
X118310325Y-114910655D01*
X118319020Y-114886354D01*
X118330055Y-114863023D01*
X118343323Y-114840885D01*
X118358698Y-114820155D01*
X118376031Y-114801031D01*
X118395155Y-114783698D01*
X118415885Y-114768323D01*
X118438023Y-114755055D01*
X118461354Y-114744020D01*
X118485655Y-114735325D01*
X118510691Y-114729053D01*
X118536221Y-114725266D01*
X118562000Y-114724000D01*
X119188000Y-114724000D01*
X119213779Y-114725266D01*
G37*
M02*
