G04 #@! TF.GenerationSoftware,KiCad,Pcbnew,(5.1.5)-3*
G04 #@! TF.CreationDate,2020-04-13T22:53:19+08:00*
G04 #@! TF.ProjectId,encoder_3btn,656e636f-6465-4725-9f33-62746e2e6b69,rev?*
G04 #@! TF.SameCoordinates,Original*
G04 #@! TF.FileFunction,Soldermask,Bot*
G04 #@! TF.FilePolarity,Negative*
%FSLAX46Y46*%
G04 Gerber Fmt 4.6, Leading zero omitted, Abs format (unit mm)*
G04 Created by KiCad (PCBNEW (5.1.5)-3) date 2020-04-13 22:53:19*
%MOMM*%
%LPD*%
G04 APERTURE LIST*
%ADD10C,0.100000*%
G04 APERTURE END LIST*
D10*
G36*
X148389943Y-130566248D02*
G01*
X148945189Y-130796238D01*
X149130371Y-130919973D01*
X149444899Y-131130134D01*
X149869866Y-131555101D01*
X150018440Y-131777458D01*
X150203762Y-132054811D01*
X150433752Y-132610057D01*
X150551000Y-133199501D01*
X150551000Y-133800499D01*
X150433752Y-134389943D01*
X150203762Y-134945189D01*
X150203761Y-134945190D01*
X149869866Y-135444899D01*
X149444899Y-135869866D01*
X149304573Y-135963629D01*
X148945189Y-136203762D01*
X148389943Y-136433752D01*
X147800499Y-136551000D01*
X147199501Y-136551000D01*
X146610057Y-136433752D01*
X146054811Y-136203762D01*
X145695427Y-135963629D01*
X145555101Y-135869866D01*
X145130134Y-135444899D01*
X144796239Y-134945190D01*
X144796238Y-134945189D01*
X144566248Y-134389943D01*
X144449000Y-133800499D01*
X144449000Y-133199501D01*
X144566248Y-132610057D01*
X144796238Y-132054811D01*
X144981560Y-131777458D01*
X145130134Y-131555101D01*
X145555101Y-131130134D01*
X145869629Y-130919973D01*
X146054811Y-130796238D01*
X146610057Y-130566248D01*
X147199501Y-130449000D01*
X147800499Y-130449000D01*
X148389943Y-130566248D01*
G37*
G36*
X103389943Y-130566248D02*
G01*
X103945189Y-130796238D01*
X104130371Y-130919973D01*
X104444899Y-131130134D01*
X104869866Y-131555101D01*
X105018440Y-131777458D01*
X105203762Y-132054811D01*
X105433752Y-132610057D01*
X105551000Y-133199501D01*
X105551000Y-133800499D01*
X105433752Y-134389943D01*
X105203762Y-134945189D01*
X105203761Y-134945190D01*
X104869866Y-135444899D01*
X104444899Y-135869866D01*
X104304573Y-135963629D01*
X103945189Y-136203762D01*
X103389943Y-136433752D01*
X102800499Y-136551000D01*
X102199501Y-136551000D01*
X101610057Y-136433752D01*
X101054811Y-136203762D01*
X100695427Y-135963629D01*
X100555101Y-135869866D01*
X100130134Y-135444899D01*
X99796239Y-134945190D01*
X99796238Y-134945189D01*
X99566248Y-134389943D01*
X99449000Y-133800499D01*
X99449000Y-133199501D01*
X99566248Y-132610057D01*
X99796238Y-132054811D01*
X99981560Y-131777458D01*
X100130134Y-131555101D01*
X100555101Y-131130134D01*
X100869629Y-130919973D01*
X101054811Y-130796238D01*
X101610057Y-130566248D01*
X102199501Y-130449000D01*
X102800499Y-130449000D01*
X103389943Y-130566248D01*
G37*
G36*
X107056564Y-129239389D02*
G01*
X107247833Y-129318615D01*
X107247835Y-129318616D01*
X107419973Y-129433635D01*
X107566365Y-129580027D01*
X107681385Y-129752167D01*
X107760611Y-129943436D01*
X107801000Y-130146484D01*
X107801000Y-130353516D01*
X107760611Y-130556564D01*
X107756599Y-130566249D01*
X107681384Y-130747835D01*
X107566365Y-130919973D01*
X107419973Y-131066365D01*
X107247835Y-131181384D01*
X107247834Y-131181385D01*
X107247833Y-131181385D01*
X107056564Y-131260611D01*
X106853516Y-131301000D01*
X106646484Y-131301000D01*
X106443436Y-131260611D01*
X106252167Y-131181385D01*
X106252166Y-131181385D01*
X106252165Y-131181384D01*
X106080027Y-131066365D01*
X105933635Y-130919973D01*
X105818616Y-130747835D01*
X105743401Y-130566249D01*
X105739389Y-130556564D01*
X105699000Y-130353516D01*
X105699000Y-130146484D01*
X105739389Y-129943436D01*
X105818615Y-129752167D01*
X105933635Y-129580027D01*
X106080027Y-129433635D01*
X106252165Y-129318616D01*
X106252167Y-129318615D01*
X106443436Y-129239389D01*
X106646484Y-129199000D01*
X106853516Y-129199000D01*
X107056564Y-129239389D01*
G37*
G36*
X113556564Y-129239389D02*
G01*
X113747833Y-129318615D01*
X113747835Y-129318616D01*
X113919973Y-129433635D01*
X114066365Y-129580027D01*
X114181385Y-129752167D01*
X114260611Y-129943436D01*
X114301000Y-130146484D01*
X114301000Y-130353516D01*
X114260611Y-130556564D01*
X114256599Y-130566249D01*
X114181384Y-130747835D01*
X114066365Y-130919973D01*
X113919973Y-131066365D01*
X113747835Y-131181384D01*
X113747834Y-131181385D01*
X113747833Y-131181385D01*
X113556564Y-131260611D01*
X113353516Y-131301000D01*
X113146484Y-131301000D01*
X112943436Y-131260611D01*
X112752167Y-131181385D01*
X112752166Y-131181385D01*
X112752165Y-131181384D01*
X112580027Y-131066365D01*
X112433635Y-130919973D01*
X112318616Y-130747835D01*
X112243401Y-130566249D01*
X112239389Y-130556564D01*
X112199000Y-130353516D01*
X112199000Y-130146484D01*
X112239389Y-129943436D01*
X112318615Y-129752167D01*
X112433635Y-129580027D01*
X112580027Y-129433635D01*
X112752165Y-129318616D01*
X112752167Y-129318615D01*
X112943436Y-129239389D01*
X113146484Y-129199000D01*
X113353516Y-129199000D01*
X113556564Y-129239389D01*
G37*
G36*
X147093960Y-125880038D02*
G01*
X147262812Y-125913624D01*
X147426784Y-125981544D01*
X147574354Y-126080147D01*
X147699853Y-126205646D01*
X147798456Y-126353216D01*
X147866376Y-126517188D01*
X147901000Y-126691259D01*
X147901000Y-126868741D01*
X147866376Y-127042812D01*
X147798456Y-127206784D01*
X147699853Y-127354354D01*
X147574354Y-127479853D01*
X147426784Y-127578456D01*
X147262812Y-127646376D01*
X147113512Y-127676073D01*
X147088742Y-127681000D01*
X146911258Y-127681000D01*
X146886488Y-127676073D01*
X146737188Y-127646376D01*
X146573216Y-127578456D01*
X146425646Y-127479853D01*
X146300147Y-127354354D01*
X146201544Y-127206784D01*
X146133624Y-127042812D01*
X146099000Y-126868741D01*
X146099000Y-126691259D01*
X146133624Y-126517188D01*
X146201544Y-126353216D01*
X146300147Y-126205646D01*
X146425646Y-126080147D01*
X146573216Y-125981544D01*
X146737188Y-125913624D01*
X146906040Y-125880038D01*
X146911258Y-125879000D01*
X147088742Y-125879000D01*
X147093960Y-125880038D01*
G37*
G36*
X107056564Y-124739389D02*
G01*
X107237546Y-124814354D01*
X107247835Y-124818616D01*
X107419973Y-124933635D01*
X107566365Y-125080027D01*
X107681385Y-125252167D01*
X107760611Y-125443436D01*
X107801000Y-125646484D01*
X107801000Y-125853516D01*
X107760611Y-126056564D01*
X107750842Y-126080148D01*
X107681384Y-126247835D01*
X107566365Y-126419973D01*
X107419973Y-126566365D01*
X107247835Y-126681384D01*
X107247834Y-126681385D01*
X107247833Y-126681385D01*
X107056564Y-126760611D01*
X106853516Y-126801000D01*
X106646484Y-126801000D01*
X106443436Y-126760611D01*
X106252167Y-126681385D01*
X106252166Y-126681385D01*
X106252165Y-126681384D01*
X106080027Y-126566365D01*
X105933635Y-126419973D01*
X105818616Y-126247835D01*
X105749158Y-126080148D01*
X105739389Y-126056564D01*
X105699000Y-125853516D01*
X105699000Y-125646484D01*
X105739389Y-125443436D01*
X105818615Y-125252167D01*
X105933635Y-125080027D01*
X106080027Y-124933635D01*
X106252165Y-124818616D01*
X106262454Y-124814354D01*
X106443436Y-124739389D01*
X106646484Y-124699000D01*
X106853516Y-124699000D01*
X107056564Y-124739389D01*
G37*
G36*
X113556564Y-124739389D02*
G01*
X113737546Y-124814354D01*
X113747835Y-124818616D01*
X113919973Y-124933635D01*
X114066365Y-125080027D01*
X114181385Y-125252167D01*
X114260611Y-125443436D01*
X114301000Y-125646484D01*
X114301000Y-125853516D01*
X114260611Y-126056564D01*
X114250842Y-126080148D01*
X114181384Y-126247835D01*
X114066365Y-126419973D01*
X113919973Y-126566365D01*
X113747835Y-126681384D01*
X113747834Y-126681385D01*
X113747833Y-126681385D01*
X113556564Y-126760611D01*
X113353516Y-126801000D01*
X113146484Y-126801000D01*
X112943436Y-126760611D01*
X112752167Y-126681385D01*
X112752166Y-126681385D01*
X112752165Y-126681384D01*
X112580027Y-126566365D01*
X112433635Y-126419973D01*
X112318616Y-126247835D01*
X112249158Y-126080148D01*
X112239389Y-126056564D01*
X112199000Y-125853516D01*
X112199000Y-125646484D01*
X112239389Y-125443436D01*
X112318615Y-125252167D01*
X112433635Y-125080027D01*
X112580027Y-124933635D01*
X112752165Y-124818616D01*
X112762454Y-124814354D01*
X112943436Y-124739389D01*
X113146484Y-124699000D01*
X113353516Y-124699000D01*
X113556564Y-124739389D01*
G37*
G36*
X119488674Y-124503465D02*
G01*
X119526367Y-124514899D01*
X119561103Y-124533466D01*
X119591548Y-124558452D01*
X119616534Y-124588897D01*
X119635101Y-124623633D01*
X119646535Y-124661326D01*
X119651000Y-124706661D01*
X119651000Y-125793339D01*
X119646535Y-125838674D01*
X119635101Y-125876367D01*
X119616534Y-125911103D01*
X119591548Y-125941548D01*
X119561103Y-125966534D01*
X119526367Y-125985101D01*
X119488674Y-125996535D01*
X119443339Y-126001000D01*
X118606661Y-126001000D01*
X118561326Y-125996535D01*
X118523633Y-125985101D01*
X118488897Y-125966534D01*
X118458452Y-125941548D01*
X118433466Y-125911103D01*
X118414899Y-125876367D01*
X118403465Y-125838674D01*
X118399000Y-125793339D01*
X118399000Y-124706661D01*
X118403465Y-124661326D01*
X118414899Y-124623633D01*
X118433466Y-124588897D01*
X118458452Y-124558452D01*
X118488897Y-124533466D01*
X118523633Y-124514899D01*
X118561326Y-124503465D01*
X118606661Y-124499000D01*
X119443339Y-124499000D01*
X119488674Y-124503465D01*
G37*
G36*
X117438674Y-124503465D02*
G01*
X117476367Y-124514899D01*
X117511103Y-124533466D01*
X117541548Y-124558452D01*
X117566534Y-124588897D01*
X117585101Y-124623633D01*
X117596535Y-124661326D01*
X117601000Y-124706661D01*
X117601000Y-125793339D01*
X117596535Y-125838674D01*
X117585101Y-125876367D01*
X117566534Y-125911103D01*
X117541548Y-125941548D01*
X117511103Y-125966534D01*
X117476367Y-125985101D01*
X117438674Y-125996535D01*
X117393339Y-126001000D01*
X116556661Y-126001000D01*
X116511326Y-125996535D01*
X116473633Y-125985101D01*
X116438897Y-125966534D01*
X116408452Y-125941548D01*
X116383466Y-125911103D01*
X116364899Y-125876367D01*
X116353465Y-125838674D01*
X116349000Y-125793339D01*
X116349000Y-124706661D01*
X116353465Y-124661326D01*
X116364899Y-124623633D01*
X116383466Y-124588897D01*
X116408452Y-124558452D01*
X116438897Y-124533466D01*
X116473633Y-124514899D01*
X116511326Y-124503465D01*
X116556661Y-124499000D01*
X117393339Y-124499000D01*
X117438674Y-124503465D01*
G37*
G36*
X147113512Y-123343927D02*
G01*
X147262812Y-123373624D01*
X147426784Y-123441544D01*
X147574354Y-123540147D01*
X147699853Y-123665646D01*
X147798456Y-123813216D01*
X147866376Y-123977188D01*
X147901000Y-124151259D01*
X147901000Y-124328741D01*
X147866376Y-124502812D01*
X147798456Y-124666784D01*
X147699853Y-124814354D01*
X147574354Y-124939853D01*
X147426784Y-125038456D01*
X147262812Y-125106376D01*
X147113512Y-125136073D01*
X147088742Y-125141000D01*
X146911258Y-125141000D01*
X146886488Y-125136073D01*
X146737188Y-125106376D01*
X146573216Y-125038456D01*
X146425646Y-124939853D01*
X146300147Y-124814354D01*
X146201544Y-124666784D01*
X146133624Y-124502812D01*
X146099000Y-124328741D01*
X146099000Y-124151259D01*
X146133624Y-123977188D01*
X146201544Y-123813216D01*
X146300147Y-123665646D01*
X146425646Y-123540147D01*
X146573216Y-123441544D01*
X146737188Y-123373624D01*
X146886488Y-123343927D01*
X146911258Y-123339000D01*
X147088742Y-123339000D01*
X147113512Y-123343927D01*
G37*
G36*
X131651000Y-124651000D02*
G01*
X128349000Y-124651000D01*
X128349000Y-122549000D01*
X131651000Y-122549000D01*
X131651000Y-124651000D01*
G37*
G36*
X147113512Y-120803927D02*
G01*
X147262812Y-120833624D01*
X147426784Y-120901544D01*
X147574354Y-121000147D01*
X147699853Y-121125646D01*
X147798456Y-121273216D01*
X147866376Y-121437188D01*
X147901000Y-121611259D01*
X147901000Y-121788741D01*
X147866376Y-121962812D01*
X147798456Y-122126784D01*
X147699853Y-122274354D01*
X147574354Y-122399853D01*
X147426784Y-122498456D01*
X147262812Y-122566376D01*
X147113512Y-122596073D01*
X147088742Y-122601000D01*
X146911258Y-122601000D01*
X146886488Y-122596073D01*
X146737188Y-122566376D01*
X146573216Y-122498456D01*
X146425646Y-122399853D01*
X146300147Y-122274354D01*
X146201544Y-122126784D01*
X146133624Y-121962812D01*
X146099000Y-121788741D01*
X146099000Y-121611259D01*
X146133624Y-121437188D01*
X146201544Y-121273216D01*
X146300147Y-121125646D01*
X146425646Y-121000147D01*
X146573216Y-120901544D01*
X146737188Y-120833624D01*
X146886488Y-120803927D01*
X146911258Y-120799000D01*
X147088742Y-120799000D01*
X147113512Y-120803927D01*
G37*
G36*
X122806564Y-119489389D02*
G01*
X122997833Y-119568615D01*
X122997835Y-119568616D01*
X123169973Y-119683635D01*
X123316365Y-119830027D01*
X123402179Y-119958456D01*
X123431385Y-120002167D01*
X123510611Y-120193436D01*
X123551000Y-120396484D01*
X123551000Y-120603516D01*
X123510611Y-120806564D01*
X123431385Y-120997833D01*
X123431384Y-120997835D01*
X123316365Y-121169973D01*
X123169973Y-121316365D01*
X122997835Y-121431384D01*
X122997834Y-121431385D01*
X122997833Y-121431385D01*
X122806564Y-121510611D01*
X122603516Y-121551000D01*
X122396484Y-121551000D01*
X122193436Y-121510611D01*
X122002167Y-121431385D01*
X122002166Y-121431385D01*
X122002165Y-121431384D01*
X121830027Y-121316365D01*
X121683635Y-121169973D01*
X121568616Y-120997835D01*
X121568615Y-120997833D01*
X121489389Y-120806564D01*
X121449000Y-120603516D01*
X121449000Y-120396484D01*
X121489389Y-120193436D01*
X121568615Y-120002167D01*
X121597822Y-119958456D01*
X121683635Y-119830027D01*
X121830027Y-119683635D01*
X122002165Y-119568616D01*
X122002167Y-119568615D01*
X122193436Y-119489389D01*
X122396484Y-119449000D01*
X122603516Y-119449000D01*
X122806564Y-119489389D01*
G37*
G36*
X137306564Y-119489389D02*
G01*
X137497833Y-119568615D01*
X137497835Y-119568616D01*
X137669973Y-119683635D01*
X137816365Y-119830027D01*
X137902179Y-119958456D01*
X137931385Y-120002167D01*
X138010611Y-120193436D01*
X138051000Y-120396484D01*
X138051000Y-120603516D01*
X138010611Y-120806564D01*
X137931385Y-120997833D01*
X137931384Y-120997835D01*
X137816365Y-121169973D01*
X137669973Y-121316365D01*
X137497835Y-121431384D01*
X137497834Y-121431385D01*
X137497833Y-121431385D01*
X137306564Y-121510611D01*
X137103516Y-121551000D01*
X136896484Y-121551000D01*
X136693436Y-121510611D01*
X136502167Y-121431385D01*
X136502166Y-121431385D01*
X136502165Y-121431384D01*
X136330027Y-121316365D01*
X136183635Y-121169973D01*
X136068616Y-120997835D01*
X136068615Y-120997833D01*
X135989389Y-120806564D01*
X135949000Y-120603516D01*
X135949000Y-120396484D01*
X135989389Y-120193436D01*
X136068615Y-120002167D01*
X136097822Y-119958456D01*
X136183635Y-119830027D01*
X136330027Y-119683635D01*
X136502165Y-119568616D01*
X136502167Y-119568615D01*
X136693436Y-119489389D01*
X136896484Y-119449000D01*
X137103516Y-119449000D01*
X137306564Y-119489389D01*
G37*
G36*
X113556564Y-119239389D02*
G01*
X113747833Y-119318615D01*
X113747835Y-119318616D01*
X113919973Y-119433635D01*
X114066365Y-119580027D01*
X114175942Y-119744020D01*
X114181385Y-119752167D01*
X114260611Y-119943436D01*
X114301000Y-120146484D01*
X114301000Y-120353516D01*
X114260611Y-120556564D01*
X114201625Y-120698969D01*
X114181384Y-120747835D01*
X114066365Y-120919973D01*
X113919973Y-121066365D01*
X113747835Y-121181384D01*
X113747834Y-121181385D01*
X113747833Y-121181385D01*
X113556564Y-121260611D01*
X113353516Y-121301000D01*
X113146484Y-121301000D01*
X112943436Y-121260611D01*
X112752167Y-121181385D01*
X112752166Y-121181385D01*
X112752165Y-121181384D01*
X112580027Y-121066365D01*
X112433635Y-120919973D01*
X112318616Y-120747835D01*
X112298375Y-120698969D01*
X112239389Y-120556564D01*
X112199000Y-120353516D01*
X112199000Y-120146484D01*
X112239389Y-119943436D01*
X112318615Y-119752167D01*
X112324059Y-119744020D01*
X112433635Y-119580027D01*
X112580027Y-119433635D01*
X112752165Y-119318616D01*
X112752167Y-119318615D01*
X112943436Y-119239389D01*
X113146484Y-119199000D01*
X113353516Y-119199000D01*
X113556564Y-119239389D01*
G37*
G36*
X107056564Y-119239389D02*
G01*
X107247833Y-119318615D01*
X107247835Y-119318616D01*
X107419973Y-119433635D01*
X107566365Y-119580027D01*
X107675942Y-119744020D01*
X107681385Y-119752167D01*
X107760611Y-119943436D01*
X107801000Y-120146484D01*
X107801000Y-120353516D01*
X107760611Y-120556564D01*
X107701625Y-120698969D01*
X107681384Y-120747835D01*
X107566365Y-120919973D01*
X107419973Y-121066365D01*
X107247835Y-121181384D01*
X107247834Y-121181385D01*
X107247833Y-121181385D01*
X107056564Y-121260611D01*
X106853516Y-121301000D01*
X106646484Y-121301000D01*
X106443436Y-121260611D01*
X106252167Y-121181385D01*
X106252166Y-121181385D01*
X106252165Y-121181384D01*
X106080027Y-121066365D01*
X105933635Y-120919973D01*
X105818616Y-120747835D01*
X105798375Y-120698969D01*
X105739389Y-120556564D01*
X105699000Y-120353516D01*
X105699000Y-120146484D01*
X105739389Y-119943436D01*
X105818615Y-119752167D01*
X105824059Y-119744020D01*
X105933635Y-119580027D01*
X106080027Y-119433635D01*
X106252165Y-119318616D01*
X106252167Y-119318615D01*
X106443436Y-119239389D01*
X106646484Y-119199000D01*
X106853516Y-119199000D01*
X107056564Y-119239389D01*
G37*
G36*
X119289499Y-119728445D02*
G01*
X119326995Y-119739820D01*
X119361554Y-119758292D01*
X119391847Y-119783153D01*
X119416708Y-119813446D01*
X119435180Y-119848005D01*
X119446555Y-119885501D01*
X119451000Y-119930638D01*
X119451000Y-120569362D01*
X119446555Y-120614499D01*
X119435180Y-120651995D01*
X119416708Y-120686554D01*
X119391847Y-120716847D01*
X119361554Y-120741708D01*
X119326995Y-120760180D01*
X119289499Y-120771555D01*
X119244362Y-120776000D01*
X118505638Y-120776000D01*
X118460501Y-120771555D01*
X118423005Y-120760180D01*
X118388446Y-120741708D01*
X118358153Y-120716847D01*
X118333292Y-120686554D01*
X118314820Y-120651995D01*
X118303445Y-120614499D01*
X118299000Y-120569362D01*
X118299000Y-119930638D01*
X118303445Y-119885501D01*
X118314820Y-119848005D01*
X118333292Y-119813446D01*
X118358153Y-119783153D01*
X118388446Y-119758292D01*
X118423005Y-119739820D01*
X118460501Y-119728445D01*
X118505638Y-119724000D01*
X119244362Y-119724000D01*
X119289499Y-119728445D01*
G37*
G36*
X117539499Y-119728445D02*
G01*
X117576995Y-119739820D01*
X117611554Y-119758292D01*
X117641847Y-119783153D01*
X117666708Y-119813446D01*
X117685180Y-119848005D01*
X117696555Y-119885501D01*
X117701000Y-119930638D01*
X117701000Y-120569362D01*
X117696555Y-120614499D01*
X117685180Y-120651995D01*
X117666708Y-120686554D01*
X117641847Y-120716847D01*
X117611554Y-120741708D01*
X117576995Y-120760180D01*
X117539499Y-120771555D01*
X117494362Y-120776000D01*
X116755638Y-120776000D01*
X116710501Y-120771555D01*
X116673005Y-120760180D01*
X116638446Y-120741708D01*
X116608153Y-120716847D01*
X116583292Y-120686554D01*
X116564820Y-120651995D01*
X116553445Y-120614499D01*
X116549000Y-120569362D01*
X116549000Y-119930638D01*
X116553445Y-119885501D01*
X116564820Y-119848005D01*
X116583292Y-119813446D01*
X116608153Y-119783153D01*
X116638446Y-119758292D01*
X116673005Y-119739820D01*
X116710501Y-119728445D01*
X116755638Y-119724000D01*
X117494362Y-119724000D01*
X117539499Y-119728445D01*
G37*
G36*
X147113512Y-118263927D02*
G01*
X147262812Y-118293624D01*
X147426784Y-118361544D01*
X147574354Y-118460147D01*
X147699853Y-118585646D01*
X147798456Y-118733216D01*
X147866376Y-118897188D01*
X147901000Y-119071259D01*
X147901000Y-119248741D01*
X147866376Y-119422812D01*
X147798456Y-119586784D01*
X147699853Y-119734354D01*
X147574354Y-119859853D01*
X147426784Y-119958456D01*
X147262812Y-120026376D01*
X147113512Y-120056073D01*
X147088742Y-120061000D01*
X146911258Y-120061000D01*
X146886488Y-120056073D01*
X146737188Y-120026376D01*
X146573216Y-119958456D01*
X146425646Y-119859853D01*
X146300147Y-119734354D01*
X146201544Y-119586784D01*
X146133624Y-119422812D01*
X146099000Y-119248741D01*
X146099000Y-119071259D01*
X146133624Y-118897188D01*
X146201544Y-118733216D01*
X146300147Y-118585646D01*
X146425646Y-118460147D01*
X146573216Y-118361544D01*
X146737188Y-118293624D01*
X146886488Y-118263927D01*
X146911258Y-118259000D01*
X147088742Y-118259000D01*
X147113512Y-118263927D01*
G37*
G36*
X122806564Y-116989389D02*
G01*
X122997833Y-117068615D01*
X122997835Y-117068616D01*
X123169973Y-117183635D01*
X123316365Y-117330027D01*
X123431385Y-117502167D01*
X123510611Y-117693436D01*
X123551000Y-117896484D01*
X123551000Y-118103516D01*
X123510611Y-118306564D01*
X123431385Y-118497833D01*
X123431384Y-118497835D01*
X123316365Y-118669973D01*
X123169973Y-118816365D01*
X122997835Y-118931384D01*
X122997834Y-118931385D01*
X122997833Y-118931385D01*
X122806564Y-119010611D01*
X122603516Y-119051000D01*
X122396484Y-119051000D01*
X122193436Y-119010611D01*
X122002167Y-118931385D01*
X122002166Y-118931385D01*
X122002165Y-118931384D01*
X121830027Y-118816365D01*
X121683635Y-118669973D01*
X121568616Y-118497835D01*
X121568615Y-118497833D01*
X121489389Y-118306564D01*
X121449000Y-118103516D01*
X121449000Y-117896484D01*
X121489389Y-117693436D01*
X121568615Y-117502167D01*
X121683635Y-117330027D01*
X121830027Y-117183635D01*
X122002165Y-117068616D01*
X122002167Y-117068615D01*
X122193436Y-116989389D01*
X122396484Y-116949000D01*
X122603516Y-116949000D01*
X122806564Y-116989389D01*
G37*
G36*
X147113512Y-115723927D02*
G01*
X147262812Y-115753624D01*
X147426784Y-115821544D01*
X147574354Y-115920147D01*
X147699853Y-116045646D01*
X147798456Y-116193216D01*
X147866376Y-116357188D01*
X147901000Y-116531259D01*
X147901000Y-116708741D01*
X147866376Y-116882812D01*
X147798456Y-117046784D01*
X147699853Y-117194354D01*
X147574354Y-117319853D01*
X147426784Y-117418456D01*
X147262812Y-117486376D01*
X147113512Y-117516073D01*
X147088742Y-117521000D01*
X146911258Y-117521000D01*
X146886488Y-117516073D01*
X146737188Y-117486376D01*
X146573216Y-117418456D01*
X146425646Y-117319853D01*
X146300147Y-117194354D01*
X146201544Y-117046784D01*
X146133624Y-116882812D01*
X146099000Y-116708741D01*
X146099000Y-116531259D01*
X146133624Y-116357188D01*
X146201544Y-116193216D01*
X146300147Y-116045646D01*
X146425646Y-115920147D01*
X146573216Y-115821544D01*
X146737188Y-115753624D01*
X146886488Y-115723927D01*
X146911258Y-115719000D01*
X147088742Y-115719000D01*
X147113512Y-115723927D01*
G37*
G36*
X113556564Y-114739389D02*
G01*
X113747833Y-114818615D01*
X113747835Y-114818616D01*
X113919973Y-114933635D01*
X114066365Y-115080027D01*
X114142143Y-115193436D01*
X114181385Y-115252167D01*
X114260611Y-115443436D01*
X114301000Y-115646484D01*
X114301000Y-115853516D01*
X114260611Y-116056564D01*
X114204008Y-116193216D01*
X114181384Y-116247835D01*
X114066365Y-116419973D01*
X113919973Y-116566365D01*
X113747835Y-116681384D01*
X113747834Y-116681385D01*
X113747833Y-116681385D01*
X113556564Y-116760611D01*
X113353516Y-116801000D01*
X113146484Y-116801000D01*
X112943436Y-116760611D01*
X112752167Y-116681385D01*
X112752166Y-116681385D01*
X112752165Y-116681384D01*
X112580027Y-116566365D01*
X112433635Y-116419973D01*
X112318616Y-116247835D01*
X112295992Y-116193216D01*
X112239389Y-116056564D01*
X112199000Y-115853516D01*
X112199000Y-115646484D01*
X112239389Y-115443436D01*
X112318615Y-115252167D01*
X112357858Y-115193436D01*
X112433635Y-115080027D01*
X112580027Y-114933635D01*
X112752165Y-114818616D01*
X112752167Y-114818615D01*
X112943436Y-114739389D01*
X113146484Y-114699000D01*
X113353516Y-114699000D01*
X113556564Y-114739389D01*
G37*
G36*
X107056564Y-114739389D02*
G01*
X107247833Y-114818615D01*
X107247835Y-114818616D01*
X107419973Y-114933635D01*
X107566365Y-115080027D01*
X107642143Y-115193436D01*
X107681385Y-115252167D01*
X107760611Y-115443436D01*
X107801000Y-115646484D01*
X107801000Y-115853516D01*
X107760611Y-116056564D01*
X107704008Y-116193216D01*
X107681384Y-116247835D01*
X107566365Y-116419973D01*
X107419973Y-116566365D01*
X107247835Y-116681384D01*
X107247834Y-116681385D01*
X107247833Y-116681385D01*
X107056564Y-116760611D01*
X106853516Y-116801000D01*
X106646484Y-116801000D01*
X106443436Y-116760611D01*
X106252167Y-116681385D01*
X106252166Y-116681385D01*
X106252165Y-116681384D01*
X106080027Y-116566365D01*
X105933635Y-116419973D01*
X105818616Y-116247835D01*
X105795992Y-116193216D01*
X105739389Y-116056564D01*
X105699000Y-115853516D01*
X105699000Y-115646484D01*
X105739389Y-115443436D01*
X105818615Y-115252167D01*
X105857858Y-115193436D01*
X105933635Y-115080027D01*
X106080027Y-114933635D01*
X106252165Y-114818616D01*
X106252167Y-114818615D01*
X106443436Y-114739389D01*
X106646484Y-114699000D01*
X106853516Y-114699000D01*
X107056564Y-114739389D01*
G37*
G36*
X137306564Y-114489389D02*
G01*
X137497833Y-114568615D01*
X137497835Y-114568616D01*
X137669973Y-114683635D01*
X137816365Y-114830027D01*
X137885594Y-114933635D01*
X137931385Y-115002167D01*
X138010611Y-115193436D01*
X138051000Y-115396484D01*
X138051000Y-115603516D01*
X138010611Y-115806564D01*
X137963563Y-115920148D01*
X137931384Y-115997835D01*
X137816365Y-116169973D01*
X137669973Y-116316365D01*
X137497835Y-116431384D01*
X137497834Y-116431385D01*
X137497833Y-116431385D01*
X137306564Y-116510611D01*
X137103516Y-116551000D01*
X136896484Y-116551000D01*
X136693436Y-116510611D01*
X136502167Y-116431385D01*
X136502166Y-116431385D01*
X136502165Y-116431384D01*
X136330027Y-116316365D01*
X136183635Y-116169973D01*
X136068616Y-115997835D01*
X136036437Y-115920148D01*
X135989389Y-115806564D01*
X135949000Y-115603516D01*
X135949000Y-115396484D01*
X135989389Y-115193436D01*
X136068615Y-115002167D01*
X136114407Y-114933635D01*
X136183635Y-114830027D01*
X136330027Y-114683635D01*
X136502165Y-114568616D01*
X136502167Y-114568615D01*
X136693436Y-114489389D01*
X136896484Y-114449000D01*
X137103516Y-114449000D01*
X137306564Y-114489389D01*
G37*
G36*
X123551000Y-116551000D02*
G01*
X121449000Y-116551000D01*
X121449000Y-114449000D01*
X123551000Y-114449000D01*
X123551000Y-116551000D01*
G37*
G36*
X119289499Y-114728445D02*
G01*
X119326995Y-114739820D01*
X119361554Y-114758292D01*
X119391847Y-114783153D01*
X119416708Y-114813446D01*
X119435180Y-114848005D01*
X119446555Y-114885501D01*
X119451000Y-114930638D01*
X119451000Y-115569362D01*
X119446555Y-115614499D01*
X119435180Y-115651995D01*
X119416708Y-115686554D01*
X119391847Y-115716847D01*
X119361554Y-115741708D01*
X119326995Y-115760180D01*
X119289499Y-115771555D01*
X119244362Y-115776000D01*
X118505638Y-115776000D01*
X118460501Y-115771555D01*
X118423005Y-115760180D01*
X118388446Y-115741708D01*
X118358153Y-115716847D01*
X118333292Y-115686554D01*
X118314820Y-115651995D01*
X118303445Y-115614499D01*
X118299000Y-115569362D01*
X118299000Y-114930638D01*
X118303445Y-114885501D01*
X118314820Y-114848005D01*
X118333292Y-114813446D01*
X118358153Y-114783153D01*
X118388446Y-114758292D01*
X118423005Y-114739820D01*
X118460501Y-114728445D01*
X118505638Y-114724000D01*
X119244362Y-114724000D01*
X119289499Y-114728445D01*
G37*
G36*
X117539499Y-114728445D02*
G01*
X117576995Y-114739820D01*
X117611554Y-114758292D01*
X117641847Y-114783153D01*
X117666708Y-114813446D01*
X117685180Y-114848005D01*
X117696555Y-114885501D01*
X117701000Y-114930638D01*
X117701000Y-115569362D01*
X117696555Y-115614499D01*
X117685180Y-115651995D01*
X117666708Y-115686554D01*
X117641847Y-115716847D01*
X117611554Y-115741708D01*
X117576995Y-115760180D01*
X117539499Y-115771555D01*
X117494362Y-115776000D01*
X116755638Y-115776000D01*
X116710501Y-115771555D01*
X116673005Y-115760180D01*
X116638446Y-115741708D01*
X116608153Y-115716847D01*
X116583292Y-115686554D01*
X116564820Y-115651995D01*
X116553445Y-115614499D01*
X116549000Y-115569362D01*
X116549000Y-114930638D01*
X116553445Y-114885501D01*
X116564820Y-114848005D01*
X116583292Y-114813446D01*
X116608153Y-114783153D01*
X116638446Y-114758292D01*
X116673005Y-114739820D01*
X116710501Y-114728445D01*
X116755638Y-114724000D01*
X117494362Y-114724000D01*
X117539499Y-114728445D01*
G37*
G36*
X147113512Y-113183927D02*
G01*
X147262812Y-113213624D01*
X147426784Y-113281544D01*
X147574354Y-113380147D01*
X147699853Y-113505646D01*
X147798456Y-113653216D01*
X147866376Y-113817188D01*
X147901000Y-113991259D01*
X147901000Y-114168741D01*
X147866376Y-114342812D01*
X147798456Y-114506784D01*
X147699853Y-114654354D01*
X147574354Y-114779853D01*
X147426784Y-114878456D01*
X147262812Y-114946376D01*
X147113512Y-114976073D01*
X147088742Y-114981000D01*
X146911258Y-114981000D01*
X146886488Y-114976073D01*
X146737188Y-114946376D01*
X146573216Y-114878456D01*
X146425646Y-114779853D01*
X146300147Y-114654354D01*
X146201544Y-114506784D01*
X146133624Y-114342812D01*
X146099000Y-114168741D01*
X146099000Y-113991259D01*
X146133624Y-113817188D01*
X146201544Y-113653216D01*
X146300147Y-113505646D01*
X146425646Y-113380147D01*
X146573216Y-113281544D01*
X146737188Y-113213624D01*
X146886488Y-113183927D01*
X146911258Y-113179000D01*
X147088742Y-113179000D01*
X147113512Y-113183927D01*
G37*
G36*
X131651000Y-113451000D02*
G01*
X128349000Y-113451000D01*
X128349000Y-111349000D01*
X131651000Y-111349000D01*
X131651000Y-113451000D01*
G37*
G36*
X147113512Y-110643927D02*
G01*
X147262812Y-110673624D01*
X147426784Y-110741544D01*
X147574354Y-110840147D01*
X147699853Y-110965646D01*
X147798456Y-111113216D01*
X147866376Y-111277188D01*
X147901000Y-111451259D01*
X147901000Y-111628741D01*
X147866376Y-111802812D01*
X147798456Y-111966784D01*
X147699853Y-112114354D01*
X147574354Y-112239853D01*
X147426784Y-112338456D01*
X147262812Y-112406376D01*
X147113512Y-112436073D01*
X147088742Y-112441000D01*
X146911258Y-112441000D01*
X146886488Y-112436073D01*
X146737188Y-112406376D01*
X146573216Y-112338456D01*
X146425646Y-112239853D01*
X146300147Y-112114354D01*
X146201544Y-111966784D01*
X146133624Y-111802812D01*
X146099000Y-111628741D01*
X146099000Y-111451259D01*
X146133624Y-111277188D01*
X146201544Y-111113216D01*
X146300147Y-110965646D01*
X146425646Y-110840147D01*
X146573216Y-110741544D01*
X146737188Y-110673624D01*
X146886488Y-110643927D01*
X146911258Y-110639000D01*
X147088742Y-110639000D01*
X147113512Y-110643927D01*
G37*
G36*
X107056564Y-109239389D02*
G01*
X107223297Y-109308452D01*
X107247835Y-109318616D01*
X107386585Y-109411326D01*
X107419973Y-109433635D01*
X107566365Y-109580027D01*
X107681385Y-109752167D01*
X107760611Y-109943436D01*
X107801000Y-110146484D01*
X107801000Y-110353516D01*
X107760611Y-110556564D01*
X107681385Y-110747833D01*
X107681384Y-110747835D01*
X107566365Y-110919973D01*
X107419973Y-111066365D01*
X107247835Y-111181384D01*
X107247834Y-111181385D01*
X107247833Y-111181385D01*
X107056564Y-111260611D01*
X106853516Y-111301000D01*
X106646484Y-111301000D01*
X106443436Y-111260611D01*
X106252167Y-111181385D01*
X106252166Y-111181385D01*
X106252165Y-111181384D01*
X106080027Y-111066365D01*
X105933635Y-110919973D01*
X105818616Y-110747835D01*
X105818615Y-110747833D01*
X105739389Y-110556564D01*
X105699000Y-110353516D01*
X105699000Y-110146484D01*
X105739389Y-109943436D01*
X105818615Y-109752167D01*
X105933635Y-109580027D01*
X106080027Y-109433635D01*
X106113415Y-109411326D01*
X106252165Y-109318616D01*
X106276703Y-109308452D01*
X106443436Y-109239389D01*
X106646484Y-109199000D01*
X106853516Y-109199000D01*
X107056564Y-109239389D01*
G37*
G36*
X113556564Y-109239389D02*
G01*
X113723297Y-109308452D01*
X113747835Y-109318616D01*
X113886585Y-109411326D01*
X113919973Y-109433635D01*
X114066365Y-109580027D01*
X114181385Y-109752167D01*
X114260611Y-109943436D01*
X114301000Y-110146484D01*
X114301000Y-110353516D01*
X114260611Y-110556564D01*
X114181385Y-110747833D01*
X114181384Y-110747835D01*
X114066365Y-110919973D01*
X113919973Y-111066365D01*
X113747835Y-111181384D01*
X113747834Y-111181385D01*
X113747833Y-111181385D01*
X113556564Y-111260611D01*
X113353516Y-111301000D01*
X113146484Y-111301000D01*
X112943436Y-111260611D01*
X112752167Y-111181385D01*
X112752166Y-111181385D01*
X112752165Y-111181384D01*
X112580027Y-111066365D01*
X112433635Y-110919973D01*
X112318616Y-110747835D01*
X112318615Y-110747833D01*
X112239389Y-110556564D01*
X112199000Y-110353516D01*
X112199000Y-110146484D01*
X112239389Y-109943436D01*
X112318615Y-109752167D01*
X112433635Y-109580027D01*
X112580027Y-109433635D01*
X112613415Y-109411326D01*
X112752165Y-109318616D01*
X112776703Y-109308452D01*
X112943436Y-109239389D01*
X113146484Y-109199000D01*
X113353516Y-109199000D01*
X113556564Y-109239389D01*
G37*
G36*
X117438674Y-109253465D02*
G01*
X117476367Y-109264899D01*
X117511103Y-109283466D01*
X117541548Y-109308452D01*
X117566534Y-109338897D01*
X117585101Y-109373633D01*
X117596535Y-109411326D01*
X117601000Y-109456661D01*
X117601000Y-110543339D01*
X117596535Y-110588674D01*
X117585101Y-110626367D01*
X117566534Y-110661103D01*
X117541548Y-110691548D01*
X117511103Y-110716534D01*
X117476367Y-110735101D01*
X117438674Y-110746535D01*
X117393339Y-110751000D01*
X116556661Y-110751000D01*
X116511326Y-110746535D01*
X116473633Y-110735101D01*
X116438897Y-110716534D01*
X116408452Y-110691548D01*
X116383466Y-110661103D01*
X116364899Y-110626367D01*
X116353465Y-110588674D01*
X116349000Y-110543339D01*
X116349000Y-109456661D01*
X116353465Y-109411326D01*
X116364899Y-109373633D01*
X116383466Y-109338897D01*
X116408452Y-109308452D01*
X116438897Y-109283466D01*
X116473633Y-109264899D01*
X116511326Y-109253465D01*
X116556661Y-109249000D01*
X117393339Y-109249000D01*
X117438674Y-109253465D01*
G37*
G36*
X119488674Y-109253465D02*
G01*
X119526367Y-109264899D01*
X119561103Y-109283466D01*
X119591548Y-109308452D01*
X119616534Y-109338897D01*
X119635101Y-109373633D01*
X119646535Y-109411326D01*
X119651000Y-109456661D01*
X119651000Y-110543339D01*
X119646535Y-110588674D01*
X119635101Y-110626367D01*
X119616534Y-110661103D01*
X119591548Y-110691548D01*
X119561103Y-110716534D01*
X119526367Y-110735101D01*
X119488674Y-110746535D01*
X119443339Y-110751000D01*
X118606661Y-110751000D01*
X118561326Y-110746535D01*
X118523633Y-110735101D01*
X118488897Y-110716534D01*
X118458452Y-110691548D01*
X118433466Y-110661103D01*
X118414899Y-110626367D01*
X118403465Y-110588674D01*
X118399000Y-110543339D01*
X118399000Y-109456661D01*
X118403465Y-109411326D01*
X118414899Y-109373633D01*
X118433466Y-109338897D01*
X118458452Y-109308452D01*
X118488897Y-109283466D01*
X118523633Y-109264899D01*
X118561326Y-109253465D01*
X118606661Y-109249000D01*
X119443339Y-109249000D01*
X119488674Y-109253465D01*
G37*
G36*
X147901000Y-109901000D02*
G01*
X146099000Y-109901000D01*
X146099000Y-108099000D01*
X147901000Y-108099000D01*
X147901000Y-109901000D01*
G37*
G36*
X113556564Y-104739389D02*
G01*
X113747833Y-104818615D01*
X113747835Y-104818616D01*
X113919973Y-104933635D01*
X114066365Y-105080027D01*
X114147197Y-105201000D01*
X114181385Y-105252167D01*
X114260611Y-105443436D01*
X114301000Y-105646484D01*
X114301000Y-105853516D01*
X114260611Y-106056564D01*
X114181385Y-106247833D01*
X114181384Y-106247835D01*
X114066365Y-106419973D01*
X113919973Y-106566365D01*
X113747835Y-106681384D01*
X113747834Y-106681385D01*
X113747833Y-106681385D01*
X113556564Y-106760611D01*
X113353516Y-106801000D01*
X113146484Y-106801000D01*
X112943436Y-106760611D01*
X112752167Y-106681385D01*
X112752166Y-106681385D01*
X112752165Y-106681384D01*
X112580027Y-106566365D01*
X112433635Y-106419973D01*
X112318616Y-106247835D01*
X112318615Y-106247833D01*
X112239389Y-106056564D01*
X112199000Y-105853516D01*
X112199000Y-105646484D01*
X112239389Y-105443436D01*
X112318615Y-105252167D01*
X112352804Y-105201000D01*
X112433635Y-105080027D01*
X112580027Y-104933635D01*
X112752165Y-104818616D01*
X112752167Y-104818615D01*
X112943436Y-104739389D01*
X113146484Y-104699000D01*
X113353516Y-104699000D01*
X113556564Y-104739389D01*
G37*
G36*
X107056564Y-104739389D02*
G01*
X107247833Y-104818615D01*
X107247835Y-104818616D01*
X107419973Y-104933635D01*
X107566365Y-105080027D01*
X107647197Y-105201000D01*
X107681385Y-105252167D01*
X107760611Y-105443436D01*
X107801000Y-105646484D01*
X107801000Y-105853516D01*
X107760611Y-106056564D01*
X107681385Y-106247833D01*
X107681384Y-106247835D01*
X107566365Y-106419973D01*
X107419973Y-106566365D01*
X107247835Y-106681384D01*
X107247834Y-106681385D01*
X107247833Y-106681385D01*
X107056564Y-106760611D01*
X106853516Y-106801000D01*
X106646484Y-106801000D01*
X106443436Y-106760611D01*
X106252167Y-106681385D01*
X106252166Y-106681385D01*
X106252165Y-106681384D01*
X106080027Y-106566365D01*
X105933635Y-106419973D01*
X105818616Y-106247835D01*
X105818615Y-106247833D01*
X105739389Y-106056564D01*
X105699000Y-105853516D01*
X105699000Y-105646484D01*
X105739389Y-105443436D01*
X105818615Y-105252167D01*
X105852804Y-105201000D01*
X105933635Y-105080027D01*
X106080027Y-104933635D01*
X106252165Y-104818616D01*
X106252167Y-104818615D01*
X106443436Y-104739389D01*
X106646484Y-104699000D01*
X106853516Y-104699000D01*
X107056564Y-104739389D01*
G37*
G36*
X103389943Y-99566248D02*
G01*
X103945189Y-99796238D01*
X104193347Y-99962052D01*
X104444899Y-100130134D01*
X104869866Y-100555101D01*
X105018440Y-100777458D01*
X105203762Y-101054811D01*
X105433752Y-101610057D01*
X105551000Y-102199501D01*
X105551000Y-102800499D01*
X105433752Y-103389943D01*
X105203762Y-103945189D01*
X105203761Y-103945190D01*
X104869866Y-104444899D01*
X104444899Y-104869866D01*
X104349462Y-104933635D01*
X103945189Y-105203762D01*
X103389943Y-105433752D01*
X102800499Y-105551000D01*
X102199501Y-105551000D01*
X101610057Y-105433752D01*
X101054811Y-105203762D01*
X100650538Y-104933635D01*
X100555101Y-104869866D01*
X100130134Y-104444899D01*
X99796239Y-103945190D01*
X99796238Y-103945189D01*
X99566248Y-103389943D01*
X99449000Y-102800499D01*
X99449000Y-102199501D01*
X99566248Y-101610057D01*
X99796238Y-101054811D01*
X99981560Y-100777458D01*
X100130134Y-100555101D01*
X100555101Y-100130134D01*
X100806653Y-99962052D01*
X101054811Y-99796238D01*
X101610057Y-99566248D01*
X102199501Y-99449000D01*
X102800499Y-99449000D01*
X103389943Y-99566248D01*
G37*
G36*
X148389943Y-99566248D02*
G01*
X148945189Y-99796238D01*
X149193347Y-99962052D01*
X149444899Y-100130134D01*
X149869866Y-100555101D01*
X150018440Y-100777458D01*
X150203762Y-101054811D01*
X150433752Y-101610057D01*
X150551000Y-102199501D01*
X150551000Y-102800499D01*
X150433752Y-103389943D01*
X150203762Y-103945189D01*
X150203761Y-103945190D01*
X149869866Y-104444899D01*
X149444899Y-104869866D01*
X149349462Y-104933635D01*
X148945189Y-105203762D01*
X148389943Y-105433752D01*
X147800499Y-105551000D01*
X147199501Y-105551000D01*
X146610057Y-105433752D01*
X146054811Y-105203762D01*
X145650538Y-104933635D01*
X145555101Y-104869866D01*
X145130134Y-104444899D01*
X144796239Y-103945190D01*
X144796238Y-103945189D01*
X144566248Y-103389943D01*
X144449000Y-102800499D01*
X144449000Y-102199501D01*
X144566248Y-101610057D01*
X144796238Y-101054811D01*
X144981560Y-100777458D01*
X145130134Y-100555101D01*
X145555101Y-100130134D01*
X145806653Y-99962052D01*
X146054811Y-99796238D01*
X146610057Y-99566248D01*
X147199501Y-99449000D01*
X147800499Y-99449000D01*
X148389943Y-99566248D01*
G37*
M02*
