M48
; DRILL file {KiCad (5.1.5)-3} date 2020/4/4 13:58:46
; FORMAT={-:-/ absolute / metric / decimal}
; #@! TF.CreationDate,2020-04-04T13:58:46+08:00
; #@! TF.GenerationSoftware,Kicad,Pcbnew,(5.1.5)-3
; #@! TF.FileFunction,Plated,1,2,PTH
FMAT,2
METRIC
T1C0.500
T2C0.800
T3C0.900
T4C0.950
T5C1.000
T6C3.200
%
G90
G05
T1
X128.5Y-71.5
X130.0Y-83.0
X134.0Y-93.5
X142.0Y-85.0
X142.0Y-88.0
X142.0Y-91.0
X142.0Y-94.0
X101.6Y-106.0
X102.303Y-104.303
X102.303Y-107.697
X104.0Y-103.6
X104.0Y-108.4
X105.697Y-104.303
X105.697Y-107.697
X106.4Y-106.0
X101.6Y-54.0
X102.303Y-52.303
X102.303Y-55.697
X104.0Y-51.6
X104.0Y-56.4
X105.697Y-52.303
X105.697Y-55.697
X106.4Y-54.0
X153.6Y-106.0
X154.303Y-104.303
X154.303Y-107.697
X156.0Y-103.6
X156.0Y-108.4
X157.697Y-104.303
X157.697Y-107.697
X158.4Y-106.0
X153.6Y-54.0
X154.303Y-52.303
X154.303Y-55.697
X156.0Y-51.6
X156.0Y-56.4
X157.697Y-52.303
X157.697Y-55.697
X158.4Y-54.0
T2
X105.0Y-59.0
X105.0Y-65.0
X105.0Y-80.0
X105.0Y-87.5
X105.0Y-95.0
X105.0Y-101.0
X114.0Y-77.0
X114.0Y-99.0
X115.0Y-55.0
X115.0Y-63.0
X125.0Y-55.0
X125.0Y-68.0
X126.5Y-91.5
X129.0Y-91.5
X135.0Y-55.0
X135.0Y-65.0
X136.75Y-80.0
X136.75Y-84.0
X137.0Y-70.0
X140.0Y-105.0
X140.5Y-99.75
X143.0Y-65.0
X144.0Y-105.0
X145.0Y-55.0
X145.5Y-91.75
X147.5Y-87.5
X149.0Y-103.0
X150.0Y-65.0
X153.0Y-99.0
X157.0Y-59.0
X157.0Y-65.0
X157.0Y-72.5
X157.0Y-80.0
X157.0Y-87.5
X157.0Y-95.0
X157.0Y-101.0
X151.0Y-85.5
X151.0Y-89.0
X122.5Y-102.0
X126.0Y-102.0
X151.0Y-75.0
X151.0Y-78.5
X134.0Y-102.0
X137.5Y-102.0
T3
X109.0Y-84.0
X109.0Y-86.54
T4
X130.0Y-56.5
X130.0Y-59.0
X130.0Y-61.5
X121.0Y-56.5
X121.0Y-59.0
X121.0Y-61.5
X109.5Y-102.0
X112.0Y-102.0
X114.5Y-102.0
X139.0Y-56.5
X139.0Y-59.0
X139.0Y-61.5
X148.0Y-56.5
X148.0Y-59.0
X148.0Y-61.5
X112.0Y-56.5
X112.0Y-59.0
X112.0Y-61.5
T5
X109.0Y-72.46
X109.0Y-75.0
X109.0Y-77.54
T6
X156.0Y-106.0
X156.0Y-54.0
X104.0Y-106.0
X104.0Y-54.0
T0
M30
