G04 #@! TF.GenerationSoftware,KiCad,Pcbnew,(5.1.5)-3*
G04 #@! TF.CreationDate,2020-04-04T13:58:42+08:00*
G04 #@! TF.ProjectId,1194pre,31313934-7072-4652-9e6b-696361645f70,rev?*
G04 #@! TF.SameCoordinates,Original*
G04 #@! TF.FileFunction,Copper,L2,Bot*
G04 #@! TF.FilePolarity,Positive*
%FSLAX46Y46*%
G04 Gerber Fmt 4.6, Leading zero omitted, Abs format (unit mm)*
G04 Created by KiCad (PCBNEW (5.1.5)-3) date 2020-04-04 13:58:42*
%MOMM*%
%LPD*%
G04 APERTURE LIST*
%ADD10C,6.400000*%
%ADD11C,0.800000*%
%ADD12O,1.950000X1.700000*%
%ADD13C,0.100000*%
%ADD14O,1.700000X1.700000*%
%ADD15R,1.700000X1.700000*%
%ADD16C,1.600000*%
%ADD17R,1.600000X1.600000*%
%ADD18O,1.700000X1.950000*%
%ADD19C,1.800000*%
%ADD20R,1.800000X1.800000*%
%ADD21C,1.500000*%
%ADD22C,1.000000*%
%ADD23C,0.600000*%
%ADD24C,1.000000*%
%ADD25C,0.800000*%
%ADD26C,0.300000*%
%ADD27C,0.400000*%
%ADD28C,0.025400*%
G04 APERTURE END LIST*
D10*
X104000000Y-106000000D03*
D11*
X106400000Y-106000000D03*
X105697056Y-107697056D03*
X104000000Y-108400000D03*
X102302944Y-107697056D03*
X101600000Y-106000000D03*
X102302944Y-104302944D03*
X104000000Y-103600000D03*
X105697056Y-104302944D03*
D10*
X104000000Y-54000000D03*
D11*
X106400000Y-54000000D03*
X105697056Y-55697056D03*
X104000000Y-56400000D03*
X102302944Y-55697056D03*
X101600000Y-54000000D03*
X102302944Y-52302944D03*
X104000000Y-51600000D03*
X105697056Y-52302944D03*
D10*
X156000000Y-54000000D03*
D11*
X158400000Y-54000000D03*
X157697056Y-55697056D03*
X156000000Y-56400000D03*
X154302944Y-55697056D03*
X153600000Y-54000000D03*
X154302944Y-52302944D03*
X156000000Y-51600000D03*
X157697056Y-52302944D03*
D12*
X112000000Y-61500000D03*
X112000000Y-59000000D03*
G04 #@! TA.AperFunction,ComponentPad*
D13*
G36*
X112749504Y-55651204D02*
G01*
X112773773Y-55654804D01*
X112797571Y-55660765D01*
X112820671Y-55669030D01*
X112842849Y-55679520D01*
X112863893Y-55692133D01*
X112883598Y-55706747D01*
X112901777Y-55723223D01*
X112918253Y-55741402D01*
X112932867Y-55761107D01*
X112945480Y-55782151D01*
X112955970Y-55804329D01*
X112964235Y-55827429D01*
X112970196Y-55851227D01*
X112973796Y-55875496D01*
X112975000Y-55900000D01*
X112975000Y-57100000D01*
X112973796Y-57124504D01*
X112970196Y-57148773D01*
X112964235Y-57172571D01*
X112955970Y-57195671D01*
X112945480Y-57217849D01*
X112932867Y-57238893D01*
X112918253Y-57258598D01*
X112901777Y-57276777D01*
X112883598Y-57293253D01*
X112863893Y-57307867D01*
X112842849Y-57320480D01*
X112820671Y-57330970D01*
X112797571Y-57339235D01*
X112773773Y-57345196D01*
X112749504Y-57348796D01*
X112725000Y-57350000D01*
X111275000Y-57350000D01*
X111250496Y-57348796D01*
X111226227Y-57345196D01*
X111202429Y-57339235D01*
X111179329Y-57330970D01*
X111157151Y-57320480D01*
X111136107Y-57307867D01*
X111116402Y-57293253D01*
X111098223Y-57276777D01*
X111081747Y-57258598D01*
X111067133Y-57238893D01*
X111054520Y-57217849D01*
X111044030Y-57195671D01*
X111035765Y-57172571D01*
X111029804Y-57148773D01*
X111026204Y-57124504D01*
X111025000Y-57100000D01*
X111025000Y-55900000D01*
X111026204Y-55875496D01*
X111029804Y-55851227D01*
X111035765Y-55827429D01*
X111044030Y-55804329D01*
X111054520Y-55782151D01*
X111067133Y-55761107D01*
X111081747Y-55741402D01*
X111098223Y-55723223D01*
X111116402Y-55706747D01*
X111136107Y-55692133D01*
X111157151Y-55679520D01*
X111179329Y-55669030D01*
X111202429Y-55660765D01*
X111226227Y-55654804D01*
X111250496Y-55651204D01*
X111275000Y-55650000D01*
X112725000Y-55650000D01*
X112749504Y-55651204D01*
G37*
G04 #@! TD.AperFunction*
D14*
X109000000Y-72460000D03*
X109000000Y-75000000D03*
D15*
X109000000Y-77540000D03*
D11*
X157697056Y-104302944D03*
X156000000Y-103600000D03*
X154302944Y-104302944D03*
X153600000Y-106000000D03*
X154302944Y-107697056D03*
X156000000Y-108400000D03*
X157697056Y-107697056D03*
X158400000Y-106000000D03*
D10*
X156000000Y-106000000D03*
D16*
X122500000Y-102000000D03*
D17*
X126000000Y-102000000D03*
D16*
X134000000Y-102000000D03*
D17*
X137500000Y-102000000D03*
D16*
X151000000Y-89000000D03*
D17*
X151000000Y-85500000D03*
D16*
X151000000Y-75000000D03*
D17*
X151000000Y-78500000D03*
D18*
X114500000Y-102000000D03*
X112000000Y-102000000D03*
G04 #@! TA.AperFunction,ComponentPad*
D13*
G36*
X110124504Y-101026204D02*
G01*
X110148773Y-101029804D01*
X110172571Y-101035765D01*
X110195671Y-101044030D01*
X110217849Y-101054520D01*
X110238893Y-101067133D01*
X110258598Y-101081747D01*
X110276777Y-101098223D01*
X110293253Y-101116402D01*
X110307867Y-101136107D01*
X110320480Y-101157151D01*
X110330970Y-101179329D01*
X110339235Y-101202429D01*
X110345196Y-101226227D01*
X110348796Y-101250496D01*
X110350000Y-101275000D01*
X110350000Y-102725000D01*
X110348796Y-102749504D01*
X110345196Y-102773773D01*
X110339235Y-102797571D01*
X110330970Y-102820671D01*
X110320480Y-102842849D01*
X110307867Y-102863893D01*
X110293253Y-102883598D01*
X110276777Y-102901777D01*
X110258598Y-102918253D01*
X110238893Y-102932867D01*
X110217849Y-102945480D01*
X110195671Y-102955970D01*
X110172571Y-102964235D01*
X110148773Y-102970196D01*
X110124504Y-102973796D01*
X110100000Y-102975000D01*
X108900000Y-102975000D01*
X108875496Y-102973796D01*
X108851227Y-102970196D01*
X108827429Y-102964235D01*
X108804329Y-102955970D01*
X108782151Y-102945480D01*
X108761107Y-102932867D01*
X108741402Y-102918253D01*
X108723223Y-102901777D01*
X108706747Y-102883598D01*
X108692133Y-102863893D01*
X108679520Y-102842849D01*
X108669030Y-102820671D01*
X108660765Y-102797571D01*
X108654804Y-102773773D01*
X108651204Y-102749504D01*
X108650000Y-102725000D01*
X108650000Y-101275000D01*
X108651204Y-101250496D01*
X108654804Y-101226227D01*
X108660765Y-101202429D01*
X108669030Y-101179329D01*
X108679520Y-101157151D01*
X108692133Y-101136107D01*
X108706747Y-101116402D01*
X108723223Y-101098223D01*
X108741402Y-101081747D01*
X108761107Y-101067133D01*
X108782151Y-101054520D01*
X108804329Y-101044030D01*
X108827429Y-101035765D01*
X108851227Y-101029804D01*
X108875496Y-101026204D01*
X108900000Y-101025000D01*
X110100000Y-101025000D01*
X110124504Y-101026204D01*
G37*
G04 #@! TD.AperFunction*
D12*
X121000000Y-61500000D03*
X121000000Y-59000000D03*
G04 #@! TA.AperFunction,ComponentPad*
D13*
G36*
X121749504Y-55651204D02*
G01*
X121773773Y-55654804D01*
X121797571Y-55660765D01*
X121820671Y-55669030D01*
X121842849Y-55679520D01*
X121863893Y-55692133D01*
X121883598Y-55706747D01*
X121901777Y-55723223D01*
X121918253Y-55741402D01*
X121932867Y-55761107D01*
X121945480Y-55782151D01*
X121955970Y-55804329D01*
X121964235Y-55827429D01*
X121970196Y-55851227D01*
X121973796Y-55875496D01*
X121975000Y-55900000D01*
X121975000Y-57100000D01*
X121973796Y-57124504D01*
X121970196Y-57148773D01*
X121964235Y-57172571D01*
X121955970Y-57195671D01*
X121945480Y-57217849D01*
X121932867Y-57238893D01*
X121918253Y-57258598D01*
X121901777Y-57276777D01*
X121883598Y-57293253D01*
X121863893Y-57307867D01*
X121842849Y-57320480D01*
X121820671Y-57330970D01*
X121797571Y-57339235D01*
X121773773Y-57345196D01*
X121749504Y-57348796D01*
X121725000Y-57350000D01*
X120275000Y-57350000D01*
X120250496Y-57348796D01*
X120226227Y-57345196D01*
X120202429Y-57339235D01*
X120179329Y-57330970D01*
X120157151Y-57320480D01*
X120136107Y-57307867D01*
X120116402Y-57293253D01*
X120098223Y-57276777D01*
X120081747Y-57258598D01*
X120067133Y-57238893D01*
X120054520Y-57217849D01*
X120044030Y-57195671D01*
X120035765Y-57172571D01*
X120029804Y-57148773D01*
X120026204Y-57124504D01*
X120025000Y-57100000D01*
X120025000Y-55900000D01*
X120026204Y-55875496D01*
X120029804Y-55851227D01*
X120035765Y-55827429D01*
X120044030Y-55804329D01*
X120054520Y-55782151D01*
X120067133Y-55761107D01*
X120081747Y-55741402D01*
X120098223Y-55723223D01*
X120116402Y-55706747D01*
X120136107Y-55692133D01*
X120157151Y-55679520D01*
X120179329Y-55669030D01*
X120202429Y-55660765D01*
X120226227Y-55654804D01*
X120250496Y-55651204D01*
X120275000Y-55650000D01*
X121725000Y-55650000D01*
X121749504Y-55651204D01*
G37*
G04 #@! TD.AperFunction*
D12*
X130000000Y-61500000D03*
X130000000Y-59000000D03*
G04 #@! TA.AperFunction,ComponentPad*
D13*
G36*
X130749504Y-55651204D02*
G01*
X130773773Y-55654804D01*
X130797571Y-55660765D01*
X130820671Y-55669030D01*
X130842849Y-55679520D01*
X130863893Y-55692133D01*
X130883598Y-55706747D01*
X130901777Y-55723223D01*
X130918253Y-55741402D01*
X130932867Y-55761107D01*
X130945480Y-55782151D01*
X130955970Y-55804329D01*
X130964235Y-55827429D01*
X130970196Y-55851227D01*
X130973796Y-55875496D01*
X130975000Y-55900000D01*
X130975000Y-57100000D01*
X130973796Y-57124504D01*
X130970196Y-57148773D01*
X130964235Y-57172571D01*
X130955970Y-57195671D01*
X130945480Y-57217849D01*
X130932867Y-57238893D01*
X130918253Y-57258598D01*
X130901777Y-57276777D01*
X130883598Y-57293253D01*
X130863893Y-57307867D01*
X130842849Y-57320480D01*
X130820671Y-57330970D01*
X130797571Y-57339235D01*
X130773773Y-57345196D01*
X130749504Y-57348796D01*
X130725000Y-57350000D01*
X129275000Y-57350000D01*
X129250496Y-57348796D01*
X129226227Y-57345196D01*
X129202429Y-57339235D01*
X129179329Y-57330970D01*
X129157151Y-57320480D01*
X129136107Y-57307867D01*
X129116402Y-57293253D01*
X129098223Y-57276777D01*
X129081747Y-57258598D01*
X129067133Y-57238893D01*
X129054520Y-57217849D01*
X129044030Y-57195671D01*
X129035765Y-57172571D01*
X129029804Y-57148773D01*
X129026204Y-57124504D01*
X129025000Y-57100000D01*
X129025000Y-55900000D01*
X129026204Y-55875496D01*
X129029804Y-55851227D01*
X129035765Y-55827429D01*
X129044030Y-55804329D01*
X129054520Y-55782151D01*
X129067133Y-55761107D01*
X129081747Y-55741402D01*
X129098223Y-55723223D01*
X129116402Y-55706747D01*
X129136107Y-55692133D01*
X129157151Y-55679520D01*
X129179329Y-55669030D01*
X129202429Y-55660765D01*
X129226227Y-55654804D01*
X129250496Y-55651204D01*
X129275000Y-55650000D01*
X130725000Y-55650000D01*
X130749504Y-55651204D01*
G37*
G04 #@! TD.AperFunction*
D12*
X139000000Y-61500000D03*
X139000000Y-59000000D03*
G04 #@! TA.AperFunction,ComponentPad*
D13*
G36*
X139749504Y-55651204D02*
G01*
X139773773Y-55654804D01*
X139797571Y-55660765D01*
X139820671Y-55669030D01*
X139842849Y-55679520D01*
X139863893Y-55692133D01*
X139883598Y-55706747D01*
X139901777Y-55723223D01*
X139918253Y-55741402D01*
X139932867Y-55761107D01*
X139945480Y-55782151D01*
X139955970Y-55804329D01*
X139964235Y-55827429D01*
X139970196Y-55851227D01*
X139973796Y-55875496D01*
X139975000Y-55900000D01*
X139975000Y-57100000D01*
X139973796Y-57124504D01*
X139970196Y-57148773D01*
X139964235Y-57172571D01*
X139955970Y-57195671D01*
X139945480Y-57217849D01*
X139932867Y-57238893D01*
X139918253Y-57258598D01*
X139901777Y-57276777D01*
X139883598Y-57293253D01*
X139863893Y-57307867D01*
X139842849Y-57320480D01*
X139820671Y-57330970D01*
X139797571Y-57339235D01*
X139773773Y-57345196D01*
X139749504Y-57348796D01*
X139725000Y-57350000D01*
X138275000Y-57350000D01*
X138250496Y-57348796D01*
X138226227Y-57345196D01*
X138202429Y-57339235D01*
X138179329Y-57330970D01*
X138157151Y-57320480D01*
X138136107Y-57307867D01*
X138116402Y-57293253D01*
X138098223Y-57276777D01*
X138081747Y-57258598D01*
X138067133Y-57238893D01*
X138054520Y-57217849D01*
X138044030Y-57195671D01*
X138035765Y-57172571D01*
X138029804Y-57148773D01*
X138026204Y-57124504D01*
X138025000Y-57100000D01*
X138025000Y-55900000D01*
X138026204Y-55875496D01*
X138029804Y-55851227D01*
X138035765Y-55827429D01*
X138044030Y-55804329D01*
X138054520Y-55782151D01*
X138067133Y-55761107D01*
X138081747Y-55741402D01*
X138098223Y-55723223D01*
X138116402Y-55706747D01*
X138136107Y-55692133D01*
X138157151Y-55679520D01*
X138179329Y-55669030D01*
X138202429Y-55660765D01*
X138226227Y-55654804D01*
X138250496Y-55651204D01*
X138275000Y-55650000D01*
X139725000Y-55650000D01*
X139749504Y-55651204D01*
G37*
G04 #@! TD.AperFunction*
D12*
X148000000Y-61500000D03*
X148000000Y-59000000D03*
G04 #@! TA.AperFunction,ComponentPad*
D13*
G36*
X148749504Y-55651204D02*
G01*
X148773773Y-55654804D01*
X148797571Y-55660765D01*
X148820671Y-55669030D01*
X148842849Y-55679520D01*
X148863893Y-55692133D01*
X148883598Y-55706747D01*
X148901777Y-55723223D01*
X148918253Y-55741402D01*
X148932867Y-55761107D01*
X148945480Y-55782151D01*
X148955970Y-55804329D01*
X148964235Y-55827429D01*
X148970196Y-55851227D01*
X148973796Y-55875496D01*
X148975000Y-55900000D01*
X148975000Y-57100000D01*
X148973796Y-57124504D01*
X148970196Y-57148773D01*
X148964235Y-57172571D01*
X148955970Y-57195671D01*
X148945480Y-57217849D01*
X148932867Y-57238893D01*
X148918253Y-57258598D01*
X148901777Y-57276777D01*
X148883598Y-57293253D01*
X148863893Y-57307867D01*
X148842849Y-57320480D01*
X148820671Y-57330970D01*
X148797571Y-57339235D01*
X148773773Y-57345196D01*
X148749504Y-57348796D01*
X148725000Y-57350000D01*
X147275000Y-57350000D01*
X147250496Y-57348796D01*
X147226227Y-57345196D01*
X147202429Y-57339235D01*
X147179329Y-57330970D01*
X147157151Y-57320480D01*
X147136107Y-57307867D01*
X147116402Y-57293253D01*
X147098223Y-57276777D01*
X147081747Y-57258598D01*
X147067133Y-57238893D01*
X147054520Y-57217849D01*
X147044030Y-57195671D01*
X147035765Y-57172571D01*
X147029804Y-57148773D01*
X147026204Y-57124504D01*
X147025000Y-57100000D01*
X147025000Y-55900000D01*
X147026204Y-55875496D01*
X147029804Y-55851227D01*
X147035765Y-55827429D01*
X147044030Y-55804329D01*
X147054520Y-55782151D01*
X147067133Y-55761107D01*
X147081747Y-55741402D01*
X147098223Y-55723223D01*
X147116402Y-55706747D01*
X147136107Y-55692133D01*
X147157151Y-55679520D01*
X147179329Y-55669030D01*
X147202429Y-55660765D01*
X147226227Y-55654804D01*
X147250496Y-55651204D01*
X147275000Y-55650000D01*
X148725000Y-55650000D01*
X148749504Y-55651204D01*
G37*
G04 #@! TD.AperFunction*
D19*
X109000000Y-86540000D03*
D20*
X109000000Y-84000000D03*
D21*
X144000000Y-105000000D03*
D22*
X142000000Y-85000000D03*
X142000000Y-88000000D03*
X142000000Y-91000000D03*
X142000000Y-94000000D03*
D21*
X140500000Y-99750000D03*
X140000000Y-105000000D03*
D22*
X134000000Y-93500000D03*
X128500000Y-71500000D03*
D21*
X126500000Y-91500000D03*
D22*
X130000000Y-83000000D03*
D21*
X129000000Y-91500000D03*
X149000000Y-103000000D03*
X105000000Y-95000000D03*
X105000000Y-80000000D03*
X105000000Y-65000000D03*
X115000000Y-55000000D03*
X125000000Y-55000000D03*
X135000000Y-55000000D03*
X145000000Y-55000000D03*
X135000000Y-65000000D03*
X143000000Y-65000000D03*
X157000000Y-65000000D03*
X157000000Y-72500000D03*
X157000000Y-80000000D03*
X157000000Y-87500000D03*
X157000000Y-95000000D03*
X105000000Y-87500000D03*
X147500000Y-87500000D03*
X125000000Y-68000000D03*
X114000000Y-77000000D03*
X136750000Y-80000000D03*
X153000000Y-99000000D03*
X114000000Y-99000000D03*
X157000000Y-59000000D03*
X105000000Y-59000000D03*
X105000000Y-101000000D03*
X157000000Y-101000000D03*
X137000000Y-70000000D03*
X150000000Y-65000000D03*
X115000000Y-63000000D03*
X136750000Y-84000000D03*
X145500000Y-91750000D03*
D23*
X148000000Y-61500000D02*
X148000000Y-79000000D01*
X148000000Y-79000000D02*
X142000000Y-85000000D01*
X141500000Y-88000000D02*
X142000000Y-88000000D01*
X139000000Y-61500000D02*
X139000000Y-85500000D01*
X139000000Y-85500000D02*
X141500000Y-88000000D01*
X141250000Y-91000000D02*
X142000000Y-91000000D01*
X130000000Y-61500000D02*
X130000000Y-79750000D01*
X130000000Y-79750000D02*
X141250000Y-91000000D01*
X138750000Y-94000000D02*
X142000000Y-94000000D01*
X121000000Y-61500000D02*
X121000000Y-76250000D01*
X121000000Y-76250000D02*
X138750000Y-94000000D01*
D24*
X112000000Y-59000000D02*
X148000000Y-59000000D01*
D25*
X149775000Y-59000000D02*
X153750000Y-62975000D01*
X148000000Y-59000000D02*
X149775000Y-59000000D01*
X153750000Y-62975000D02*
X153750000Y-93000000D01*
X153750000Y-93000000D02*
X147000000Y-99750000D01*
X147000000Y-99750000D02*
X140500000Y-99750000D01*
D26*
X112000000Y-85800000D02*
X112000000Y-100725000D01*
X110200000Y-84000000D02*
X112000000Y-85800000D01*
X112000000Y-100725000D02*
X112000000Y-102000000D01*
X109000000Y-84000000D02*
X110200000Y-84000000D01*
D24*
X136000000Y-105000000D02*
X140000000Y-105000000D01*
X134000000Y-102000000D02*
X134000000Y-103000000D01*
X134000000Y-103000000D02*
X136000000Y-105000000D01*
D23*
X134000000Y-92525000D02*
X134000000Y-93500000D01*
X112000000Y-61500000D02*
X112000000Y-70525000D01*
X112000000Y-70525000D02*
X134000000Y-92525000D01*
D25*
X122500000Y-95500000D02*
X126500000Y-91500000D01*
X122500000Y-102000000D02*
X122500000Y-95500000D01*
D26*
X129500001Y-82500001D02*
X130000000Y-83000000D01*
X128500000Y-71500000D02*
X128500000Y-81500000D01*
X128500000Y-81500000D02*
X129500001Y-82500001D01*
D25*
X137500000Y-102000000D02*
X137500000Y-100400000D01*
X137500000Y-100400000D02*
X129000000Y-91900000D01*
X129000000Y-91900000D02*
X129000000Y-91500000D01*
D27*
G36*
X154200025Y-50632483D02*
G01*
X153577641Y-51048347D01*
X153048347Y-51577641D01*
X152632483Y-52200025D01*
X152346031Y-52891581D01*
X152200000Y-53625733D01*
X152200000Y-54374267D01*
X152346031Y-55108419D01*
X152632483Y-55799975D01*
X153048347Y-56422359D01*
X153577641Y-56951653D01*
X154200025Y-57367517D01*
X154891581Y-57653969D01*
X155625733Y-57800000D01*
X156374267Y-57800000D01*
X157108419Y-57653969D01*
X157799975Y-57367517D01*
X158422359Y-56951653D01*
X158951653Y-56422359D01*
X159367517Y-55799975D01*
X159375000Y-55781909D01*
X159375001Y-104218093D01*
X159367517Y-104200025D01*
X158951653Y-103577641D01*
X158422359Y-103048347D01*
X157799975Y-102632483D01*
X157108419Y-102346031D01*
X156374267Y-102200000D01*
X155625733Y-102200000D01*
X154891581Y-102346031D01*
X154200025Y-102632483D01*
X153577641Y-103048347D01*
X153048347Y-103577641D01*
X152632483Y-104200025D01*
X152346031Y-104891581D01*
X152200000Y-105625733D01*
X152200000Y-106374267D01*
X152346031Y-107108419D01*
X152632483Y-107799975D01*
X153048347Y-108422359D01*
X153577641Y-108951653D01*
X154200025Y-109367517D01*
X154218091Y-109375000D01*
X105781909Y-109375000D01*
X105799975Y-109367517D01*
X106422359Y-108951653D01*
X106951653Y-108422359D01*
X107367517Y-107799975D01*
X107653969Y-107108419D01*
X107800000Y-106374267D01*
X107800000Y-105625733D01*
X107653969Y-104891581D01*
X107367517Y-104200025D01*
X106951653Y-103577641D01*
X106422359Y-103048347D01*
X105799975Y-102632483D01*
X105108419Y-102346031D01*
X104374267Y-102200000D01*
X103625733Y-102200000D01*
X102891581Y-102346031D01*
X102200025Y-102632483D01*
X101577641Y-103048347D01*
X101048347Y-103577641D01*
X100632483Y-104200025D01*
X100625000Y-104218091D01*
X100625000Y-83100000D01*
X107497097Y-83100000D01*
X107497097Y-84900000D01*
X107508682Y-85017621D01*
X107542990Y-85130721D01*
X107598704Y-85234955D01*
X107673683Y-85326317D01*
X107765045Y-85401296D01*
X107869279Y-85457010D01*
X107940167Y-85478513D01*
X107834874Y-85583806D01*
X107670717Y-85829483D01*
X107557644Y-86102466D01*
X107500000Y-86392263D01*
X107500000Y-86687737D01*
X107557644Y-86977534D01*
X107670717Y-87250517D01*
X107834874Y-87496194D01*
X108043806Y-87705126D01*
X108289483Y-87869283D01*
X108562466Y-87982356D01*
X108852263Y-88040000D01*
X109147737Y-88040000D01*
X109437534Y-87982356D01*
X109710517Y-87869283D01*
X109956194Y-87705126D01*
X110165126Y-87496194D01*
X110329283Y-87250517D01*
X110442356Y-86977534D01*
X110500000Y-86687737D01*
X110500000Y-86392263D01*
X110442356Y-86102466D01*
X110329283Y-85829483D01*
X110165126Y-85583806D01*
X110059833Y-85478513D01*
X110130721Y-85457010D01*
X110234955Y-85401296D01*
X110326317Y-85326317D01*
X110389125Y-85249785D01*
X111250000Y-86110661D01*
X111250001Y-100631746D01*
X111190526Y-100663536D01*
X110969735Y-100844736D01*
X110886603Y-100946032D01*
X110809163Y-100801152D01*
X110703093Y-100671907D01*
X110573848Y-100565837D01*
X110426392Y-100487020D01*
X110266393Y-100438485D01*
X110100000Y-100422097D01*
X108900000Y-100422097D01*
X108733607Y-100438485D01*
X108573608Y-100487020D01*
X108426152Y-100565837D01*
X108296907Y-100671907D01*
X108190837Y-100801152D01*
X108112020Y-100948608D01*
X108063485Y-101108607D01*
X108047097Y-101275000D01*
X108047097Y-102725000D01*
X108063485Y-102891393D01*
X108112020Y-103051392D01*
X108190837Y-103198848D01*
X108296907Y-103328093D01*
X108426152Y-103434163D01*
X108573608Y-103512980D01*
X108733607Y-103561515D01*
X108900000Y-103577903D01*
X110100000Y-103577903D01*
X110266393Y-103561515D01*
X110426392Y-103512980D01*
X110573848Y-103434163D01*
X110703093Y-103328093D01*
X110809163Y-103198848D01*
X110886603Y-103053968D01*
X110969736Y-103155265D01*
X111190527Y-103336464D01*
X111442425Y-103471106D01*
X111715751Y-103554019D01*
X112000000Y-103582015D01*
X112284250Y-103554019D01*
X112557576Y-103471106D01*
X112809474Y-103336464D01*
X113030265Y-103155265D01*
X113211464Y-102934474D01*
X113250000Y-102862378D01*
X113288536Y-102934474D01*
X113469736Y-103155265D01*
X113690527Y-103336464D01*
X113942425Y-103471106D01*
X114215751Y-103554019D01*
X114500000Y-103582015D01*
X114784250Y-103554019D01*
X115057576Y-103471106D01*
X115309474Y-103336464D01*
X115530265Y-103155265D01*
X115711464Y-102934474D01*
X115846106Y-102682575D01*
X115929019Y-102409249D01*
X115950000Y-102196224D01*
X115950000Y-101862112D01*
X121100000Y-101862112D01*
X121100000Y-102137888D01*
X121153801Y-102408365D01*
X121259336Y-102663149D01*
X121412549Y-102892448D01*
X121607552Y-103087451D01*
X121836851Y-103240664D01*
X122091635Y-103346199D01*
X122362112Y-103400000D01*
X122637888Y-103400000D01*
X122908365Y-103346199D01*
X123163149Y-103240664D01*
X123392448Y-103087451D01*
X123587451Y-102892448D01*
X123740664Y-102663149D01*
X123846199Y-102408365D01*
X123900000Y-102137888D01*
X123900000Y-101862112D01*
X123846199Y-101591635D01*
X123740664Y-101336851D01*
X123649223Y-101200000D01*
X124597097Y-101200000D01*
X124597097Y-102800000D01*
X124608682Y-102917621D01*
X124642990Y-103030721D01*
X124698704Y-103134955D01*
X124773683Y-103226317D01*
X124865045Y-103301296D01*
X124969279Y-103357010D01*
X125082379Y-103391318D01*
X125200000Y-103402903D01*
X126800000Y-103402903D01*
X126917621Y-103391318D01*
X127030721Y-103357010D01*
X127134955Y-103301296D01*
X127226317Y-103226317D01*
X127301296Y-103134955D01*
X127357010Y-103030721D01*
X127391318Y-102917621D01*
X127402903Y-102800000D01*
X127402903Y-101862112D01*
X132600000Y-101862112D01*
X132600000Y-102137888D01*
X132653801Y-102408365D01*
X132759336Y-102663149D01*
X132900000Y-102873667D01*
X132900000Y-102945966D01*
X132894678Y-103000000D01*
X132900000Y-103054034D01*
X132900000Y-103054036D01*
X132915916Y-103215638D01*
X132972724Y-103402903D01*
X132978817Y-103422988D01*
X133080958Y-103614084D01*
X133110434Y-103650000D01*
X133218420Y-103781581D01*
X133260394Y-103816028D01*
X135183971Y-105739606D01*
X135218419Y-105781581D01*
X135279566Y-105831763D01*
X135385915Y-105919042D01*
X135488057Y-105973637D01*
X135577012Y-106021184D01*
X135784362Y-106084084D01*
X135945964Y-106100000D01*
X135945965Y-106100000D01*
X135999999Y-106105322D01*
X136054033Y-106100000D01*
X139024052Y-106100000D01*
X139099937Y-106100240D01*
X139166259Y-106100938D01*
X139219299Y-106101983D01*
X139360535Y-106196354D01*
X139606220Y-106298120D01*
X139867037Y-106350000D01*
X140132963Y-106350000D01*
X140393780Y-106298120D01*
X140639465Y-106196354D01*
X140860575Y-106048613D01*
X141048613Y-105860575D01*
X141196354Y-105639465D01*
X141298120Y-105393780D01*
X141350000Y-105132963D01*
X141350000Y-104867037D01*
X141298120Y-104606220D01*
X141196354Y-104360535D01*
X141048613Y-104139425D01*
X140860575Y-103951387D01*
X140639465Y-103803646D01*
X140393780Y-103701880D01*
X140132963Y-103650000D01*
X139867037Y-103650000D01*
X139606220Y-103701880D01*
X139360535Y-103803646D01*
X139219299Y-103898017D01*
X139166259Y-103899062D01*
X139099937Y-103899760D01*
X139024052Y-103900000D01*
X136455635Y-103900000D01*
X135231900Y-102676266D01*
X135240664Y-102663149D01*
X135346199Y-102408365D01*
X135400000Y-102137888D01*
X135400000Y-101862112D01*
X135346199Y-101591635D01*
X135240664Y-101336851D01*
X135087451Y-101107552D01*
X134892448Y-100912549D01*
X134663149Y-100759336D01*
X134408365Y-100653801D01*
X134137888Y-100600000D01*
X133862112Y-100600000D01*
X133591635Y-100653801D01*
X133336851Y-100759336D01*
X133107552Y-100912549D01*
X132912549Y-101107552D01*
X132759336Y-101336851D01*
X132653801Y-101591635D01*
X132600000Y-101862112D01*
X127402903Y-101862112D01*
X127402903Y-101200000D01*
X127391318Y-101082379D01*
X127357010Y-100969279D01*
X127301296Y-100865045D01*
X127226317Y-100773683D01*
X127134955Y-100698704D01*
X127030721Y-100642990D01*
X126917621Y-100608682D01*
X126800000Y-100597097D01*
X125200000Y-100597097D01*
X125082379Y-100608682D01*
X124969279Y-100642990D01*
X124865045Y-100698704D01*
X124773683Y-100773683D01*
X124698704Y-100865045D01*
X124642990Y-100969279D01*
X124608682Y-101082379D01*
X124597097Y-101200000D01*
X123649223Y-101200000D01*
X123587451Y-101107552D01*
X123504970Y-101025071D01*
X123502782Y-101010131D01*
X123500945Y-100988035D01*
X123500000Y-100952125D01*
X123500000Y-95914212D01*
X126513346Y-92900867D01*
X126543609Y-92871811D01*
X126565377Y-92852706D01*
X126568797Y-92850000D01*
X126632963Y-92850000D01*
X126893780Y-92798120D01*
X127139465Y-92696354D01*
X127360575Y-92548613D01*
X127548613Y-92360575D01*
X127696354Y-92139465D01*
X127750000Y-92009952D01*
X127803646Y-92139465D01*
X127951387Y-92360575D01*
X128139425Y-92548613D01*
X128360535Y-92696354D01*
X128397420Y-92711632D01*
X128982318Y-93296530D01*
X128982322Y-93296535D01*
X128982327Y-93296539D01*
X136377717Y-100691930D01*
X136365045Y-100698704D01*
X136273683Y-100773683D01*
X136198704Y-100865045D01*
X136142990Y-100969279D01*
X136108682Y-101082379D01*
X136097097Y-101200000D01*
X136097097Y-102800000D01*
X136108682Y-102917621D01*
X136142990Y-103030721D01*
X136198704Y-103134955D01*
X136273683Y-103226317D01*
X136365045Y-103301296D01*
X136469279Y-103357010D01*
X136582379Y-103391318D01*
X136700000Y-103402903D01*
X138300000Y-103402903D01*
X138417621Y-103391318D01*
X138530721Y-103357010D01*
X138634955Y-103301296D01*
X138726317Y-103226317D01*
X138801296Y-103134955D01*
X138857010Y-103030721D01*
X138891318Y-102917621D01*
X138902903Y-102800000D01*
X138902903Y-101200000D01*
X138891318Y-101082379D01*
X138857010Y-100969279D01*
X138801296Y-100865045D01*
X138726317Y-100773683D01*
X138634955Y-100698704D01*
X138530721Y-100642990D01*
X138500000Y-100633671D01*
X138500000Y-100449117D01*
X138504838Y-100399999D01*
X138495061Y-100300736D01*
X138485530Y-100203966D01*
X138428349Y-100015465D01*
X138335492Y-99841742D01*
X138210528Y-99689472D01*
X138172368Y-99658155D01*
X130492825Y-91978613D01*
X130460691Y-91884556D01*
X130429788Y-91790190D01*
X130403816Y-91706572D01*
X130382863Y-91634362D01*
X130367030Y-91574575D01*
X130356374Y-91528772D01*
X130350870Y-91499870D01*
X130350000Y-91493300D01*
X130350000Y-91367037D01*
X130298120Y-91106220D01*
X130196354Y-90860535D01*
X130048613Y-90639425D01*
X129860575Y-90451387D01*
X129639465Y-90303646D01*
X129393780Y-90201880D01*
X129132963Y-90150000D01*
X128867037Y-90150000D01*
X128606220Y-90201880D01*
X128360535Y-90303646D01*
X128139425Y-90451387D01*
X127951387Y-90639425D01*
X127803646Y-90860535D01*
X127750000Y-90990048D01*
X127696354Y-90860535D01*
X127548613Y-90639425D01*
X127360575Y-90451387D01*
X127139465Y-90303646D01*
X126893780Y-90201880D01*
X126632963Y-90150000D01*
X126367037Y-90150000D01*
X126106220Y-90201880D01*
X125860535Y-90303646D01*
X125639425Y-90451387D01*
X125451387Y-90639425D01*
X125303646Y-90860535D01*
X125201880Y-91106220D01*
X125150000Y-91367037D01*
X125150000Y-91431201D01*
X125147293Y-91434622D01*
X125128177Y-91456403D01*
X125099144Y-91486643D01*
X121827632Y-94758156D01*
X121789473Y-94789472D01*
X121664509Y-94941742D01*
X121614875Y-95034600D01*
X121571651Y-95115466D01*
X121514470Y-95303966D01*
X121495162Y-95500000D01*
X121500001Y-95549130D01*
X121500000Y-100952119D01*
X121499055Y-100988035D01*
X121497218Y-101010131D01*
X121495030Y-101025071D01*
X121412549Y-101107552D01*
X121259336Y-101336851D01*
X121153801Y-101591635D01*
X121100000Y-101862112D01*
X115950000Y-101862112D01*
X115950000Y-101803775D01*
X115929019Y-101590750D01*
X115846106Y-101317424D01*
X115711464Y-101065526D01*
X115530264Y-100844735D01*
X115309473Y-100663536D01*
X115057575Y-100528894D01*
X114784249Y-100445981D01*
X114500000Y-100417985D01*
X114215750Y-100445981D01*
X113942424Y-100528894D01*
X113690526Y-100663536D01*
X113469735Y-100844736D01*
X113288536Y-101065527D01*
X113250000Y-101137622D01*
X113211464Y-101065526D01*
X113030264Y-100844735D01*
X112809473Y-100663536D01*
X112750000Y-100631747D01*
X112750000Y-85836824D01*
X112753627Y-85799999D01*
X112750000Y-85763174D01*
X112750000Y-85763165D01*
X112739147Y-85652974D01*
X112696261Y-85511599D01*
X112626619Y-85381307D01*
X112597710Y-85346081D01*
X112556376Y-85295715D01*
X112556369Y-85295708D01*
X112532895Y-85267105D01*
X112504292Y-85243631D01*
X110756378Y-83495719D01*
X110732895Y-83467105D01*
X110618693Y-83373381D01*
X110502903Y-83311490D01*
X110502903Y-83100000D01*
X110491318Y-82982379D01*
X110457010Y-82869279D01*
X110401296Y-82765045D01*
X110326317Y-82673683D01*
X110234955Y-82598704D01*
X110130721Y-82542990D01*
X110017621Y-82508682D01*
X109900000Y-82497097D01*
X108100000Y-82497097D01*
X107982379Y-82508682D01*
X107869279Y-82542990D01*
X107765045Y-82598704D01*
X107673683Y-82673683D01*
X107598704Y-82765045D01*
X107542990Y-82869279D01*
X107508682Y-82982379D01*
X107497097Y-83100000D01*
X100625000Y-83100000D01*
X100625000Y-76690000D01*
X107547097Y-76690000D01*
X107547097Y-78390000D01*
X107558682Y-78507621D01*
X107592990Y-78620721D01*
X107648704Y-78724955D01*
X107723683Y-78816317D01*
X107815045Y-78891296D01*
X107919279Y-78947010D01*
X108032379Y-78981318D01*
X108150000Y-78992903D01*
X109850000Y-78992903D01*
X109967621Y-78981318D01*
X110080721Y-78947010D01*
X110184955Y-78891296D01*
X110276317Y-78816317D01*
X110351296Y-78724955D01*
X110407010Y-78620721D01*
X110441318Y-78507621D01*
X110452903Y-78390000D01*
X110452903Y-76690000D01*
X110441318Y-76572379D01*
X110407010Y-76459279D01*
X110351296Y-76355045D01*
X110276317Y-76263683D01*
X110184955Y-76188704D01*
X110080721Y-76132990D01*
X109967621Y-76098682D01*
X109953335Y-76097275D01*
X110126289Y-75924321D01*
X110284973Y-75686833D01*
X110394277Y-75422949D01*
X110450000Y-75142813D01*
X110450000Y-74857187D01*
X110394277Y-74577051D01*
X110284973Y-74313167D01*
X110126289Y-74075679D01*
X109924321Y-73873711D01*
X109709242Y-73730000D01*
X109924321Y-73586289D01*
X110126289Y-73384321D01*
X110284973Y-73146833D01*
X110394277Y-72882949D01*
X110450000Y-72602813D01*
X110450000Y-72317187D01*
X110394277Y-72037051D01*
X110284973Y-71773167D01*
X110126289Y-71535679D01*
X109924321Y-71333711D01*
X109686833Y-71175027D01*
X109422949Y-71065723D01*
X109142813Y-71010000D01*
X108857187Y-71010000D01*
X108577051Y-71065723D01*
X108313167Y-71175027D01*
X108075679Y-71333711D01*
X107873711Y-71535679D01*
X107715027Y-71773167D01*
X107605723Y-72037051D01*
X107550000Y-72317187D01*
X107550000Y-72602813D01*
X107605723Y-72882949D01*
X107715027Y-73146833D01*
X107873711Y-73384321D01*
X108075679Y-73586289D01*
X108290758Y-73730000D01*
X108075679Y-73873711D01*
X107873711Y-74075679D01*
X107715027Y-74313167D01*
X107605723Y-74577051D01*
X107550000Y-74857187D01*
X107550000Y-75142813D01*
X107605723Y-75422949D01*
X107715027Y-75686833D01*
X107873711Y-75924321D01*
X108046665Y-76097275D01*
X108032379Y-76098682D01*
X107919279Y-76132990D01*
X107815045Y-76188704D01*
X107723683Y-76263683D01*
X107648704Y-76355045D01*
X107592990Y-76459279D01*
X107558682Y-76572379D01*
X107547097Y-76690000D01*
X100625000Y-76690000D01*
X100625000Y-59000000D01*
X110417985Y-59000000D01*
X110445981Y-59284250D01*
X110528894Y-59557576D01*
X110663536Y-59809474D01*
X110844735Y-60030265D01*
X111065526Y-60211464D01*
X111137622Y-60250000D01*
X111065526Y-60288536D01*
X110844735Y-60469735D01*
X110663536Y-60690526D01*
X110528894Y-60942424D01*
X110445981Y-61215750D01*
X110417985Y-61500000D01*
X110445981Y-61784250D01*
X110528894Y-62057576D01*
X110663536Y-62309474D01*
X110844735Y-62530265D01*
X111065526Y-62711464D01*
X111089717Y-62724394D01*
X111094129Y-62748088D01*
X111098170Y-62785553D01*
X111100000Y-62838212D01*
X111100001Y-70480783D01*
X111095646Y-70525000D01*
X111113023Y-70701430D01*
X111164487Y-70871081D01*
X111248057Y-71027431D01*
X111332345Y-71130137D01*
X111332348Y-71130140D01*
X111360526Y-71164475D01*
X111394861Y-71192653D01*
X133087666Y-92885458D01*
X133025193Y-92978955D01*
X132942273Y-93179142D01*
X132900000Y-93391659D01*
X132900000Y-93608341D01*
X132942273Y-93820858D01*
X133025193Y-94021045D01*
X133145575Y-94201209D01*
X133298791Y-94354425D01*
X133478955Y-94474807D01*
X133679142Y-94557727D01*
X133891659Y-94600000D01*
X134108341Y-94600000D01*
X134320858Y-94557727D01*
X134521045Y-94474807D01*
X134701209Y-94354425D01*
X134854425Y-94201209D01*
X134974807Y-94021045D01*
X135057727Y-93820858D01*
X135100000Y-93608341D01*
X135100000Y-93391659D01*
X135057727Y-93179142D01*
X134974807Y-92978955D01*
X134900219Y-92867326D01*
X134900000Y-92846870D01*
X134900000Y-92569196D01*
X134904353Y-92524999D01*
X134900000Y-92480802D01*
X134900000Y-92480793D01*
X134886977Y-92348569D01*
X134835514Y-92178919D01*
X134751943Y-92022568D01*
X134639475Y-91885525D01*
X134605136Y-91857344D01*
X112900000Y-70152208D01*
X112900000Y-62838197D01*
X112901829Y-62785553D01*
X112905870Y-62748088D01*
X112910282Y-62724395D01*
X112934474Y-62711464D01*
X113155265Y-62530265D01*
X113336464Y-62309474D01*
X113471106Y-62057576D01*
X113554019Y-61784250D01*
X113582015Y-61500000D01*
X113554019Y-61215750D01*
X113471106Y-60942424D01*
X113336464Y-60690526D01*
X113155265Y-60469735D01*
X112934474Y-60288536D01*
X112862378Y-60250000D01*
X112934474Y-60211464D01*
X113069715Y-60100474D01*
X113108622Y-60100000D01*
X119929707Y-60100000D01*
X120065526Y-60211464D01*
X120137622Y-60250000D01*
X120065526Y-60288536D01*
X119844735Y-60469735D01*
X119663536Y-60690526D01*
X119528894Y-60942424D01*
X119445981Y-61215750D01*
X119417985Y-61500000D01*
X119445981Y-61784250D01*
X119528894Y-62057576D01*
X119663536Y-62309474D01*
X119844735Y-62530265D01*
X120065526Y-62711464D01*
X120089717Y-62724394D01*
X120094129Y-62748088D01*
X120098170Y-62785553D01*
X120100000Y-62838210D01*
X120100001Y-76205783D01*
X120095646Y-76250000D01*
X120113023Y-76426430D01*
X120164487Y-76596081D01*
X120248057Y-76752431D01*
X120332345Y-76855137D01*
X120332348Y-76855140D01*
X120360526Y-76889475D01*
X120394861Y-76917653D01*
X138082343Y-94605135D01*
X138110525Y-94639475D01*
X138208292Y-94719710D01*
X138247568Y-94751943D01*
X138403918Y-94835514D01*
X138573569Y-94886977D01*
X138750000Y-94904354D01*
X138794207Y-94900000D01*
X141346870Y-94900000D01*
X141367326Y-94900219D01*
X141478955Y-94974807D01*
X141679142Y-95057727D01*
X141891659Y-95100000D01*
X142108341Y-95100000D01*
X142320858Y-95057727D01*
X142521045Y-94974807D01*
X142701209Y-94854425D01*
X142854425Y-94701209D01*
X142974807Y-94521045D01*
X143057727Y-94320858D01*
X143100000Y-94108341D01*
X143100000Y-93891659D01*
X143057727Y-93679142D01*
X142974807Y-93478955D01*
X142854425Y-93298791D01*
X142701209Y-93145575D01*
X142521045Y-93025193D01*
X142320858Y-92942273D01*
X142108341Y-92900000D01*
X141891659Y-92900000D01*
X141679142Y-92942273D01*
X141478955Y-93025193D01*
X141367326Y-93099781D01*
X141346858Y-93100000D01*
X139122792Y-93100000D01*
X130120394Y-84097602D01*
X130320858Y-84057727D01*
X130521045Y-83974807D01*
X130701209Y-83854425D01*
X130854425Y-83701209D01*
X130974807Y-83521045D01*
X131057727Y-83320858D01*
X131100000Y-83108341D01*
X131100000Y-82891659D01*
X131057727Y-82679142D01*
X130974807Y-82478955D01*
X130854425Y-82298791D01*
X130701209Y-82145575D01*
X130521045Y-82025193D01*
X130320858Y-81942273D01*
X130108341Y-81900000D01*
X129995503Y-81900000D01*
X129960299Y-81899639D01*
X129250000Y-81189341D01*
X129250000Y-80254799D01*
X129332345Y-80355137D01*
X129332348Y-80355140D01*
X129360526Y-80389475D01*
X129394861Y-80417653D01*
X140582343Y-91605135D01*
X140610525Y-91639475D01*
X140689108Y-91703966D01*
X140747568Y-91751943D01*
X140903918Y-91835514D01*
X141073569Y-91886977D01*
X141250000Y-91904354D01*
X141294207Y-91900000D01*
X141346870Y-91900000D01*
X141367326Y-91900219D01*
X141478955Y-91974807D01*
X141679142Y-92057727D01*
X141891659Y-92100000D01*
X142108341Y-92100000D01*
X142320858Y-92057727D01*
X142521045Y-91974807D01*
X142701209Y-91854425D01*
X142854425Y-91701209D01*
X142974807Y-91521045D01*
X143057727Y-91320858D01*
X143100000Y-91108341D01*
X143100000Y-90891659D01*
X143057727Y-90679142D01*
X142974807Y-90478955D01*
X142854425Y-90298791D01*
X142701209Y-90145575D01*
X142521045Y-90025193D01*
X142320858Y-89942273D01*
X142108341Y-89900000D01*
X141891659Y-89900000D01*
X141679142Y-89942273D01*
X141527767Y-90004975D01*
X130900000Y-79377208D01*
X130900000Y-62838197D01*
X130901829Y-62785553D01*
X130905870Y-62748088D01*
X130910282Y-62724395D01*
X130934474Y-62711464D01*
X131155265Y-62530265D01*
X131336464Y-62309474D01*
X131471106Y-62057576D01*
X131554019Y-61784250D01*
X131582015Y-61500000D01*
X131554019Y-61215750D01*
X131471106Y-60942424D01*
X131336464Y-60690526D01*
X131155265Y-60469735D01*
X130934474Y-60288536D01*
X130862378Y-60250000D01*
X130934474Y-60211464D01*
X131070293Y-60100000D01*
X137929707Y-60100000D01*
X138065526Y-60211464D01*
X138137622Y-60250000D01*
X138065526Y-60288536D01*
X137844735Y-60469735D01*
X137663536Y-60690526D01*
X137528894Y-60942424D01*
X137445981Y-61215750D01*
X137417985Y-61500000D01*
X137445981Y-61784250D01*
X137528894Y-62057576D01*
X137663536Y-62309474D01*
X137844735Y-62530265D01*
X138065526Y-62711464D01*
X138089717Y-62724394D01*
X138094129Y-62748088D01*
X138098170Y-62785553D01*
X138100000Y-62838209D01*
X138100001Y-85455783D01*
X138095646Y-85500000D01*
X138113023Y-85676430D01*
X138164487Y-85846081D01*
X138248057Y-86002431D01*
X138332345Y-86105137D01*
X138332348Y-86105140D01*
X138360526Y-86139475D01*
X138394861Y-86167653D01*
X140832343Y-88605135D01*
X140860525Y-88639475D01*
X140997568Y-88751943D01*
X141153919Y-88835514D01*
X141323569Y-88886977D01*
X141351647Y-88889742D01*
X141478955Y-88974807D01*
X141679142Y-89057727D01*
X141891659Y-89100000D01*
X142108341Y-89100000D01*
X142320858Y-89057727D01*
X142521045Y-88974807D01*
X142689704Y-88862112D01*
X149600000Y-88862112D01*
X149600000Y-89137888D01*
X149653801Y-89408365D01*
X149759336Y-89663149D01*
X149912549Y-89892448D01*
X150107552Y-90087451D01*
X150336851Y-90240664D01*
X150591635Y-90346199D01*
X150862112Y-90400000D01*
X151137888Y-90400000D01*
X151408365Y-90346199D01*
X151663149Y-90240664D01*
X151892448Y-90087451D01*
X152087451Y-89892448D01*
X152240664Y-89663149D01*
X152346199Y-89408365D01*
X152400000Y-89137888D01*
X152400000Y-88862112D01*
X152346199Y-88591635D01*
X152240664Y-88336851D01*
X152087451Y-88107552D01*
X151892448Y-87912549D01*
X151663149Y-87759336D01*
X151408365Y-87653801D01*
X151137888Y-87600000D01*
X150862112Y-87600000D01*
X150591635Y-87653801D01*
X150336851Y-87759336D01*
X150107552Y-87912549D01*
X149912549Y-88107552D01*
X149759336Y-88336851D01*
X149653801Y-88591635D01*
X149600000Y-88862112D01*
X142689704Y-88862112D01*
X142701209Y-88854425D01*
X142854425Y-88701209D01*
X142974807Y-88521045D01*
X143057727Y-88320858D01*
X143100000Y-88108341D01*
X143100000Y-87891659D01*
X143057727Y-87679142D01*
X142974807Y-87478955D01*
X142854425Y-87298791D01*
X142701209Y-87145575D01*
X142521045Y-87025193D01*
X142320858Y-86942273D01*
X142108341Y-86900000D01*
X142033963Y-86900000D01*
X141858027Y-86758768D01*
X141492232Y-86462574D01*
X141069070Y-86117762D01*
X140589462Y-85725077D01*
X140075322Y-85302530D01*
X139900000Y-85127208D01*
X139900000Y-62838197D01*
X139901829Y-62785553D01*
X139905870Y-62748088D01*
X139910282Y-62724395D01*
X139934474Y-62711464D01*
X140155265Y-62530265D01*
X140336464Y-62309474D01*
X140471106Y-62057576D01*
X140554019Y-61784250D01*
X140582015Y-61500000D01*
X140554019Y-61215750D01*
X140471106Y-60942424D01*
X140336464Y-60690526D01*
X140155265Y-60469735D01*
X139934474Y-60288536D01*
X139862378Y-60250000D01*
X139934474Y-60211464D01*
X140070293Y-60100000D01*
X146891378Y-60100000D01*
X146930285Y-60100474D01*
X147065526Y-60211464D01*
X147137622Y-60250000D01*
X147065526Y-60288536D01*
X146844735Y-60469735D01*
X146663536Y-60690526D01*
X146528894Y-60942424D01*
X146445981Y-61215750D01*
X146417985Y-61500000D01*
X146445981Y-61784250D01*
X146528894Y-62057576D01*
X146663536Y-62309474D01*
X146844735Y-62530265D01*
X147065526Y-62711464D01*
X147089717Y-62724394D01*
X147094129Y-62748088D01*
X147098170Y-62785553D01*
X147100000Y-62838210D01*
X147100001Y-78627207D01*
X141825513Y-83901695D01*
X141810816Y-83916081D01*
X141679142Y-83942273D01*
X141478955Y-84025193D01*
X141298791Y-84145575D01*
X141145575Y-84298791D01*
X141025193Y-84478955D01*
X140942273Y-84679142D01*
X140900000Y-84891659D01*
X140900000Y-85108341D01*
X140942273Y-85320858D01*
X141025193Y-85521045D01*
X141145575Y-85701209D01*
X141298791Y-85854425D01*
X141478955Y-85974807D01*
X141679142Y-86057727D01*
X141891659Y-86100000D01*
X142108341Y-86100000D01*
X142320858Y-86057727D01*
X142521045Y-85974807D01*
X142701209Y-85854425D01*
X142854425Y-85701209D01*
X142974807Y-85521045D01*
X143057727Y-85320858D01*
X143083919Y-85189182D01*
X143098285Y-85174507D01*
X143572792Y-84700000D01*
X149597097Y-84700000D01*
X149597097Y-86300000D01*
X149608682Y-86417621D01*
X149642990Y-86530721D01*
X149698704Y-86634955D01*
X149773683Y-86726317D01*
X149865045Y-86801296D01*
X149969279Y-86857010D01*
X150082379Y-86891318D01*
X150200000Y-86902903D01*
X151800000Y-86902903D01*
X151917621Y-86891318D01*
X152030721Y-86857010D01*
X152134955Y-86801296D01*
X152226317Y-86726317D01*
X152301296Y-86634955D01*
X152357010Y-86530721D01*
X152391318Y-86417621D01*
X152402903Y-86300000D01*
X152402903Y-84700000D01*
X152391318Y-84582379D01*
X152357010Y-84469279D01*
X152301296Y-84365045D01*
X152226317Y-84273683D01*
X152134955Y-84198704D01*
X152030721Y-84142990D01*
X151917621Y-84108682D01*
X151800000Y-84097097D01*
X150200000Y-84097097D01*
X150082379Y-84108682D01*
X149969279Y-84142990D01*
X149865045Y-84198704D01*
X149773683Y-84273683D01*
X149698704Y-84365045D01*
X149642990Y-84469279D01*
X149608682Y-84582379D01*
X149597097Y-84700000D01*
X143572792Y-84700000D01*
X148605135Y-79667657D01*
X148639475Y-79639475D01*
X148751943Y-79502432D01*
X148835514Y-79346081D01*
X148886977Y-79176431D01*
X148900000Y-79044207D01*
X148900000Y-79044198D01*
X148904353Y-79000001D01*
X148900000Y-78955804D01*
X148900000Y-77700000D01*
X149597097Y-77700000D01*
X149597097Y-79300000D01*
X149608682Y-79417621D01*
X149642990Y-79530721D01*
X149698704Y-79634955D01*
X149773683Y-79726317D01*
X149865045Y-79801296D01*
X149969279Y-79857010D01*
X150082379Y-79891318D01*
X150200000Y-79902903D01*
X151800000Y-79902903D01*
X151917621Y-79891318D01*
X152030721Y-79857010D01*
X152134955Y-79801296D01*
X152226317Y-79726317D01*
X152301296Y-79634955D01*
X152357010Y-79530721D01*
X152391318Y-79417621D01*
X152402903Y-79300000D01*
X152402903Y-77700000D01*
X152391318Y-77582379D01*
X152357010Y-77469279D01*
X152301296Y-77365045D01*
X152226317Y-77273683D01*
X152134955Y-77198704D01*
X152030721Y-77142990D01*
X151917621Y-77108682D01*
X151800000Y-77097097D01*
X150200000Y-77097097D01*
X150082379Y-77108682D01*
X149969279Y-77142990D01*
X149865045Y-77198704D01*
X149773683Y-77273683D01*
X149698704Y-77365045D01*
X149642990Y-77469279D01*
X149608682Y-77582379D01*
X149597097Y-77700000D01*
X148900000Y-77700000D01*
X148900000Y-74862112D01*
X149600000Y-74862112D01*
X149600000Y-75137888D01*
X149653801Y-75408365D01*
X149759336Y-75663149D01*
X149912549Y-75892448D01*
X150107552Y-76087451D01*
X150336851Y-76240664D01*
X150591635Y-76346199D01*
X150862112Y-76400000D01*
X151137888Y-76400000D01*
X151408365Y-76346199D01*
X151663149Y-76240664D01*
X151892448Y-76087451D01*
X152087451Y-75892448D01*
X152240664Y-75663149D01*
X152346199Y-75408365D01*
X152400000Y-75137888D01*
X152400000Y-74862112D01*
X152346199Y-74591635D01*
X152240664Y-74336851D01*
X152087451Y-74107552D01*
X151892448Y-73912549D01*
X151663149Y-73759336D01*
X151408365Y-73653801D01*
X151137888Y-73600000D01*
X150862112Y-73600000D01*
X150591635Y-73653801D01*
X150336851Y-73759336D01*
X150107552Y-73912549D01*
X149912549Y-74107552D01*
X149759336Y-74336851D01*
X149653801Y-74591635D01*
X149600000Y-74862112D01*
X148900000Y-74862112D01*
X148900000Y-62838197D01*
X148901829Y-62785553D01*
X148905870Y-62748088D01*
X148910282Y-62724395D01*
X148934474Y-62711464D01*
X149155265Y-62530265D01*
X149336464Y-62309474D01*
X149471106Y-62057576D01*
X149554019Y-61784250D01*
X149582015Y-61500000D01*
X149554019Y-61215750D01*
X149471106Y-60942424D01*
X149336464Y-60690526D01*
X149155265Y-60469735D01*
X148934474Y-60288536D01*
X148862378Y-60250000D01*
X148934474Y-60211464D01*
X149155265Y-60030265D01*
X149180103Y-60000000D01*
X149360788Y-60000000D01*
X152750000Y-63389213D01*
X152750001Y-92585785D01*
X146585788Y-98750000D01*
X141481112Y-98750000D01*
X141439191Y-98749147D01*
X141410287Y-98747263D01*
X141405945Y-98746757D01*
X141360575Y-98701387D01*
X141139465Y-98553646D01*
X140893780Y-98451880D01*
X140632963Y-98400000D01*
X140367037Y-98400000D01*
X140106220Y-98451880D01*
X139860535Y-98553646D01*
X139639425Y-98701387D01*
X139451387Y-98889425D01*
X139303646Y-99110535D01*
X139201880Y-99356220D01*
X139150000Y-99617037D01*
X139150000Y-99882963D01*
X139201880Y-100143780D01*
X139303646Y-100389465D01*
X139451387Y-100610575D01*
X139639425Y-100798613D01*
X139860535Y-100946354D01*
X140106220Y-101048120D01*
X140367037Y-101100000D01*
X140632963Y-101100000D01*
X140893780Y-101048120D01*
X141139465Y-100946354D01*
X141360575Y-100798613D01*
X141405946Y-100753242D01*
X141410287Y-100752736D01*
X141439190Y-100750852D01*
X141481098Y-100750000D01*
X146950880Y-100750000D01*
X147000000Y-100754838D01*
X147049120Y-100750000D01*
X147196034Y-100735530D01*
X147384535Y-100678349D01*
X147558258Y-100585492D01*
X147710528Y-100460528D01*
X147741849Y-100422363D01*
X154422374Y-93741840D01*
X154460528Y-93710528D01*
X154585492Y-93558258D01*
X154678349Y-93384535D01*
X154735530Y-93196034D01*
X154750000Y-93049120D01*
X154754838Y-93000000D01*
X154750000Y-92950880D01*
X154750000Y-63024120D01*
X154754838Y-62975000D01*
X154735530Y-62778966D01*
X154678349Y-62590465D01*
X154676147Y-62586345D01*
X154585492Y-62416742D01*
X154460528Y-62264472D01*
X154422368Y-62233155D01*
X150516849Y-58327637D01*
X150485528Y-58289472D01*
X150333258Y-58164508D01*
X150159535Y-58071651D01*
X149971034Y-58014470D01*
X149824120Y-58000000D01*
X149775000Y-57995162D01*
X149725880Y-58000000D01*
X149180103Y-58000000D01*
X149155265Y-57969735D01*
X149053968Y-57886603D01*
X149198848Y-57809163D01*
X149328093Y-57703093D01*
X149434163Y-57573848D01*
X149512980Y-57426392D01*
X149561515Y-57266393D01*
X149577903Y-57100000D01*
X149577903Y-55900000D01*
X149561515Y-55733607D01*
X149512980Y-55573608D01*
X149434163Y-55426152D01*
X149328093Y-55296907D01*
X149198848Y-55190837D01*
X149051392Y-55112020D01*
X148891393Y-55063485D01*
X148725000Y-55047097D01*
X147275000Y-55047097D01*
X147108607Y-55063485D01*
X146948608Y-55112020D01*
X146801152Y-55190837D01*
X146671907Y-55296907D01*
X146565837Y-55426152D01*
X146487020Y-55573608D01*
X146438485Y-55733607D01*
X146422097Y-55900000D01*
X146422097Y-57100000D01*
X146438485Y-57266393D01*
X146487020Y-57426392D01*
X146565837Y-57573848D01*
X146671907Y-57703093D01*
X146801152Y-57809163D01*
X146946032Y-57886603D01*
X146930286Y-57899525D01*
X146891366Y-57900000D01*
X140070293Y-57900000D01*
X140053968Y-57886603D01*
X140198848Y-57809163D01*
X140328093Y-57703093D01*
X140434163Y-57573848D01*
X140512980Y-57426392D01*
X140561515Y-57266393D01*
X140577903Y-57100000D01*
X140577903Y-55900000D01*
X140561515Y-55733607D01*
X140512980Y-55573608D01*
X140434163Y-55426152D01*
X140328093Y-55296907D01*
X140198848Y-55190837D01*
X140051392Y-55112020D01*
X139891393Y-55063485D01*
X139725000Y-55047097D01*
X138275000Y-55047097D01*
X138108607Y-55063485D01*
X137948608Y-55112020D01*
X137801152Y-55190837D01*
X137671907Y-55296907D01*
X137565837Y-55426152D01*
X137487020Y-55573608D01*
X137438485Y-55733607D01*
X137422097Y-55900000D01*
X137422097Y-57100000D01*
X137438485Y-57266393D01*
X137487020Y-57426392D01*
X137565837Y-57573848D01*
X137671907Y-57703093D01*
X137801152Y-57809163D01*
X137946032Y-57886603D01*
X137929707Y-57900000D01*
X131070293Y-57900000D01*
X131053968Y-57886603D01*
X131198848Y-57809163D01*
X131328093Y-57703093D01*
X131434163Y-57573848D01*
X131512980Y-57426392D01*
X131561515Y-57266393D01*
X131577903Y-57100000D01*
X131577903Y-55900000D01*
X131561515Y-55733607D01*
X131512980Y-55573608D01*
X131434163Y-55426152D01*
X131328093Y-55296907D01*
X131198848Y-55190837D01*
X131051392Y-55112020D01*
X130891393Y-55063485D01*
X130725000Y-55047097D01*
X129275000Y-55047097D01*
X129108607Y-55063485D01*
X128948608Y-55112020D01*
X128801152Y-55190837D01*
X128671907Y-55296907D01*
X128565837Y-55426152D01*
X128487020Y-55573608D01*
X128438485Y-55733607D01*
X128422097Y-55900000D01*
X128422097Y-57100000D01*
X128438485Y-57266393D01*
X128487020Y-57426392D01*
X128565837Y-57573848D01*
X128671907Y-57703093D01*
X128801152Y-57809163D01*
X128946032Y-57886603D01*
X128929707Y-57900000D01*
X122070293Y-57900000D01*
X122053968Y-57886603D01*
X122198848Y-57809163D01*
X122328093Y-57703093D01*
X122434163Y-57573848D01*
X122512980Y-57426392D01*
X122561515Y-57266393D01*
X122577903Y-57100000D01*
X122577903Y-55900000D01*
X122561515Y-55733607D01*
X122512980Y-55573608D01*
X122434163Y-55426152D01*
X122328093Y-55296907D01*
X122198848Y-55190837D01*
X122051392Y-55112020D01*
X121891393Y-55063485D01*
X121725000Y-55047097D01*
X120275000Y-55047097D01*
X120108607Y-55063485D01*
X119948608Y-55112020D01*
X119801152Y-55190837D01*
X119671907Y-55296907D01*
X119565837Y-55426152D01*
X119487020Y-55573608D01*
X119438485Y-55733607D01*
X119422097Y-55900000D01*
X119422097Y-57100000D01*
X119438485Y-57266393D01*
X119487020Y-57426392D01*
X119565837Y-57573848D01*
X119671907Y-57703093D01*
X119801152Y-57809163D01*
X119946032Y-57886603D01*
X119929707Y-57900000D01*
X113108634Y-57900000D01*
X113069714Y-57899525D01*
X113053968Y-57886603D01*
X113198848Y-57809163D01*
X113328093Y-57703093D01*
X113434163Y-57573848D01*
X113512980Y-57426392D01*
X113561515Y-57266393D01*
X113577903Y-57100000D01*
X113577903Y-55900000D01*
X113561515Y-55733607D01*
X113512980Y-55573608D01*
X113434163Y-55426152D01*
X113328093Y-55296907D01*
X113198848Y-55190837D01*
X113051392Y-55112020D01*
X112891393Y-55063485D01*
X112725000Y-55047097D01*
X111275000Y-55047097D01*
X111108607Y-55063485D01*
X110948608Y-55112020D01*
X110801152Y-55190837D01*
X110671907Y-55296907D01*
X110565837Y-55426152D01*
X110487020Y-55573608D01*
X110438485Y-55733607D01*
X110422097Y-55900000D01*
X110422097Y-57100000D01*
X110438485Y-57266393D01*
X110487020Y-57426392D01*
X110565837Y-57573848D01*
X110671907Y-57703093D01*
X110801152Y-57809163D01*
X110946032Y-57886603D01*
X110844735Y-57969735D01*
X110663536Y-58190526D01*
X110528894Y-58442424D01*
X110445981Y-58715750D01*
X110417985Y-59000000D01*
X100625000Y-59000000D01*
X100625000Y-55781909D01*
X100632483Y-55799975D01*
X101048347Y-56422359D01*
X101577641Y-56951653D01*
X102200025Y-57367517D01*
X102891581Y-57653969D01*
X103625733Y-57800000D01*
X104374267Y-57800000D01*
X105108419Y-57653969D01*
X105799975Y-57367517D01*
X106422359Y-56951653D01*
X106951653Y-56422359D01*
X107367517Y-55799975D01*
X107653969Y-55108419D01*
X107800000Y-54374267D01*
X107800000Y-53625733D01*
X107653969Y-52891581D01*
X107367517Y-52200025D01*
X106951653Y-51577641D01*
X106422359Y-51048347D01*
X105799975Y-50632483D01*
X105781909Y-50625000D01*
X154218091Y-50625000D01*
X154200025Y-50632483D01*
G37*
X154200025Y-50632483D02*
X153577641Y-51048347D01*
X153048347Y-51577641D01*
X152632483Y-52200025D01*
X152346031Y-52891581D01*
X152200000Y-53625733D01*
X152200000Y-54374267D01*
X152346031Y-55108419D01*
X152632483Y-55799975D01*
X153048347Y-56422359D01*
X153577641Y-56951653D01*
X154200025Y-57367517D01*
X154891581Y-57653969D01*
X155625733Y-57800000D01*
X156374267Y-57800000D01*
X157108419Y-57653969D01*
X157799975Y-57367517D01*
X158422359Y-56951653D01*
X158951653Y-56422359D01*
X159367517Y-55799975D01*
X159375000Y-55781909D01*
X159375001Y-104218093D01*
X159367517Y-104200025D01*
X158951653Y-103577641D01*
X158422359Y-103048347D01*
X157799975Y-102632483D01*
X157108419Y-102346031D01*
X156374267Y-102200000D01*
X155625733Y-102200000D01*
X154891581Y-102346031D01*
X154200025Y-102632483D01*
X153577641Y-103048347D01*
X153048347Y-103577641D01*
X152632483Y-104200025D01*
X152346031Y-104891581D01*
X152200000Y-105625733D01*
X152200000Y-106374267D01*
X152346031Y-107108419D01*
X152632483Y-107799975D01*
X153048347Y-108422359D01*
X153577641Y-108951653D01*
X154200025Y-109367517D01*
X154218091Y-109375000D01*
X105781909Y-109375000D01*
X105799975Y-109367517D01*
X106422359Y-108951653D01*
X106951653Y-108422359D01*
X107367517Y-107799975D01*
X107653969Y-107108419D01*
X107800000Y-106374267D01*
X107800000Y-105625733D01*
X107653969Y-104891581D01*
X107367517Y-104200025D01*
X106951653Y-103577641D01*
X106422359Y-103048347D01*
X105799975Y-102632483D01*
X105108419Y-102346031D01*
X104374267Y-102200000D01*
X103625733Y-102200000D01*
X102891581Y-102346031D01*
X102200025Y-102632483D01*
X101577641Y-103048347D01*
X101048347Y-103577641D01*
X100632483Y-104200025D01*
X100625000Y-104218091D01*
X100625000Y-83100000D01*
X107497097Y-83100000D01*
X107497097Y-84900000D01*
X107508682Y-85017621D01*
X107542990Y-85130721D01*
X107598704Y-85234955D01*
X107673683Y-85326317D01*
X107765045Y-85401296D01*
X107869279Y-85457010D01*
X107940167Y-85478513D01*
X107834874Y-85583806D01*
X107670717Y-85829483D01*
X107557644Y-86102466D01*
X107500000Y-86392263D01*
X107500000Y-86687737D01*
X107557644Y-86977534D01*
X107670717Y-87250517D01*
X107834874Y-87496194D01*
X108043806Y-87705126D01*
X108289483Y-87869283D01*
X108562466Y-87982356D01*
X108852263Y-88040000D01*
X109147737Y-88040000D01*
X109437534Y-87982356D01*
X109710517Y-87869283D01*
X109956194Y-87705126D01*
X110165126Y-87496194D01*
X110329283Y-87250517D01*
X110442356Y-86977534D01*
X110500000Y-86687737D01*
X110500000Y-86392263D01*
X110442356Y-86102466D01*
X110329283Y-85829483D01*
X110165126Y-85583806D01*
X110059833Y-85478513D01*
X110130721Y-85457010D01*
X110234955Y-85401296D01*
X110326317Y-85326317D01*
X110389125Y-85249785D01*
X111250000Y-86110661D01*
X111250001Y-100631746D01*
X111190526Y-100663536D01*
X110969735Y-100844736D01*
X110886603Y-100946032D01*
X110809163Y-100801152D01*
X110703093Y-100671907D01*
X110573848Y-100565837D01*
X110426392Y-100487020D01*
X110266393Y-100438485D01*
X110100000Y-100422097D01*
X108900000Y-100422097D01*
X108733607Y-100438485D01*
X108573608Y-100487020D01*
X108426152Y-100565837D01*
X108296907Y-100671907D01*
X108190837Y-100801152D01*
X108112020Y-100948608D01*
X108063485Y-101108607D01*
X108047097Y-101275000D01*
X108047097Y-102725000D01*
X108063485Y-102891393D01*
X108112020Y-103051392D01*
X108190837Y-103198848D01*
X108296907Y-103328093D01*
X108426152Y-103434163D01*
X108573608Y-103512980D01*
X108733607Y-103561515D01*
X108900000Y-103577903D01*
X110100000Y-103577903D01*
X110266393Y-103561515D01*
X110426392Y-103512980D01*
X110573848Y-103434163D01*
X110703093Y-103328093D01*
X110809163Y-103198848D01*
X110886603Y-103053968D01*
X110969736Y-103155265D01*
X111190527Y-103336464D01*
X111442425Y-103471106D01*
X111715751Y-103554019D01*
X112000000Y-103582015D01*
X112284250Y-103554019D01*
X112557576Y-103471106D01*
X112809474Y-103336464D01*
X113030265Y-103155265D01*
X113211464Y-102934474D01*
X113250000Y-102862378D01*
X113288536Y-102934474D01*
X113469736Y-103155265D01*
X113690527Y-103336464D01*
X113942425Y-103471106D01*
X114215751Y-103554019D01*
X114500000Y-103582015D01*
X114784250Y-103554019D01*
X115057576Y-103471106D01*
X115309474Y-103336464D01*
X115530265Y-103155265D01*
X115711464Y-102934474D01*
X115846106Y-102682575D01*
X115929019Y-102409249D01*
X115950000Y-102196224D01*
X115950000Y-101862112D01*
X121100000Y-101862112D01*
X121100000Y-102137888D01*
X121153801Y-102408365D01*
X121259336Y-102663149D01*
X121412549Y-102892448D01*
X121607552Y-103087451D01*
X121836851Y-103240664D01*
X122091635Y-103346199D01*
X122362112Y-103400000D01*
X122637888Y-103400000D01*
X122908365Y-103346199D01*
X123163149Y-103240664D01*
X123392448Y-103087451D01*
X123587451Y-102892448D01*
X123740664Y-102663149D01*
X123846199Y-102408365D01*
X123900000Y-102137888D01*
X123900000Y-101862112D01*
X123846199Y-101591635D01*
X123740664Y-101336851D01*
X123649223Y-101200000D01*
X124597097Y-101200000D01*
X124597097Y-102800000D01*
X124608682Y-102917621D01*
X124642990Y-103030721D01*
X124698704Y-103134955D01*
X124773683Y-103226317D01*
X124865045Y-103301296D01*
X124969279Y-103357010D01*
X125082379Y-103391318D01*
X125200000Y-103402903D01*
X126800000Y-103402903D01*
X126917621Y-103391318D01*
X127030721Y-103357010D01*
X127134955Y-103301296D01*
X127226317Y-103226317D01*
X127301296Y-103134955D01*
X127357010Y-103030721D01*
X127391318Y-102917621D01*
X127402903Y-102800000D01*
X127402903Y-101862112D01*
X132600000Y-101862112D01*
X132600000Y-102137888D01*
X132653801Y-102408365D01*
X132759336Y-102663149D01*
X132900000Y-102873667D01*
X132900000Y-102945966D01*
X132894678Y-103000000D01*
X132900000Y-103054034D01*
X132900000Y-103054036D01*
X132915916Y-103215638D01*
X132972724Y-103402903D01*
X132978817Y-103422988D01*
X133080958Y-103614084D01*
X133110434Y-103650000D01*
X133218420Y-103781581D01*
X133260394Y-103816028D01*
X135183971Y-105739606D01*
X135218419Y-105781581D01*
X135279566Y-105831763D01*
X135385915Y-105919042D01*
X135488057Y-105973637D01*
X135577012Y-106021184D01*
X135784362Y-106084084D01*
X135945964Y-106100000D01*
X135945965Y-106100000D01*
X135999999Y-106105322D01*
X136054033Y-106100000D01*
X139024052Y-106100000D01*
X139099937Y-106100240D01*
X139166259Y-106100938D01*
X139219299Y-106101983D01*
X139360535Y-106196354D01*
X139606220Y-106298120D01*
X139867037Y-106350000D01*
X140132963Y-106350000D01*
X140393780Y-106298120D01*
X140639465Y-106196354D01*
X140860575Y-106048613D01*
X141048613Y-105860575D01*
X141196354Y-105639465D01*
X141298120Y-105393780D01*
X141350000Y-105132963D01*
X141350000Y-104867037D01*
X141298120Y-104606220D01*
X141196354Y-104360535D01*
X141048613Y-104139425D01*
X140860575Y-103951387D01*
X140639465Y-103803646D01*
X140393780Y-103701880D01*
X140132963Y-103650000D01*
X139867037Y-103650000D01*
X139606220Y-103701880D01*
X139360535Y-103803646D01*
X139219299Y-103898017D01*
X139166259Y-103899062D01*
X139099937Y-103899760D01*
X139024052Y-103900000D01*
X136455635Y-103900000D01*
X135231900Y-102676266D01*
X135240664Y-102663149D01*
X135346199Y-102408365D01*
X135400000Y-102137888D01*
X135400000Y-101862112D01*
X135346199Y-101591635D01*
X135240664Y-101336851D01*
X135087451Y-101107552D01*
X134892448Y-100912549D01*
X134663149Y-100759336D01*
X134408365Y-100653801D01*
X134137888Y-100600000D01*
X133862112Y-100600000D01*
X133591635Y-100653801D01*
X133336851Y-100759336D01*
X133107552Y-100912549D01*
X132912549Y-101107552D01*
X132759336Y-101336851D01*
X132653801Y-101591635D01*
X132600000Y-101862112D01*
X127402903Y-101862112D01*
X127402903Y-101200000D01*
X127391318Y-101082379D01*
X127357010Y-100969279D01*
X127301296Y-100865045D01*
X127226317Y-100773683D01*
X127134955Y-100698704D01*
X127030721Y-100642990D01*
X126917621Y-100608682D01*
X126800000Y-100597097D01*
X125200000Y-100597097D01*
X125082379Y-100608682D01*
X124969279Y-100642990D01*
X124865045Y-100698704D01*
X124773683Y-100773683D01*
X124698704Y-100865045D01*
X124642990Y-100969279D01*
X124608682Y-101082379D01*
X124597097Y-101200000D01*
X123649223Y-101200000D01*
X123587451Y-101107552D01*
X123504970Y-101025071D01*
X123502782Y-101010131D01*
X123500945Y-100988035D01*
X123500000Y-100952125D01*
X123500000Y-95914212D01*
X126513346Y-92900867D01*
X126543609Y-92871811D01*
X126565377Y-92852706D01*
X126568797Y-92850000D01*
X126632963Y-92850000D01*
X126893780Y-92798120D01*
X127139465Y-92696354D01*
X127360575Y-92548613D01*
X127548613Y-92360575D01*
X127696354Y-92139465D01*
X127750000Y-92009952D01*
X127803646Y-92139465D01*
X127951387Y-92360575D01*
X128139425Y-92548613D01*
X128360535Y-92696354D01*
X128397420Y-92711632D01*
X128982318Y-93296530D01*
X128982322Y-93296535D01*
X128982327Y-93296539D01*
X136377717Y-100691930D01*
X136365045Y-100698704D01*
X136273683Y-100773683D01*
X136198704Y-100865045D01*
X136142990Y-100969279D01*
X136108682Y-101082379D01*
X136097097Y-101200000D01*
X136097097Y-102800000D01*
X136108682Y-102917621D01*
X136142990Y-103030721D01*
X136198704Y-103134955D01*
X136273683Y-103226317D01*
X136365045Y-103301296D01*
X136469279Y-103357010D01*
X136582379Y-103391318D01*
X136700000Y-103402903D01*
X138300000Y-103402903D01*
X138417621Y-103391318D01*
X138530721Y-103357010D01*
X138634955Y-103301296D01*
X138726317Y-103226317D01*
X138801296Y-103134955D01*
X138857010Y-103030721D01*
X138891318Y-102917621D01*
X138902903Y-102800000D01*
X138902903Y-101200000D01*
X138891318Y-101082379D01*
X138857010Y-100969279D01*
X138801296Y-100865045D01*
X138726317Y-100773683D01*
X138634955Y-100698704D01*
X138530721Y-100642990D01*
X138500000Y-100633671D01*
X138500000Y-100449117D01*
X138504838Y-100399999D01*
X138495061Y-100300736D01*
X138485530Y-100203966D01*
X138428349Y-100015465D01*
X138335492Y-99841742D01*
X138210528Y-99689472D01*
X138172368Y-99658155D01*
X130492825Y-91978613D01*
X130460691Y-91884556D01*
X130429788Y-91790190D01*
X130403816Y-91706572D01*
X130382863Y-91634362D01*
X130367030Y-91574575D01*
X130356374Y-91528772D01*
X130350870Y-91499870D01*
X130350000Y-91493300D01*
X130350000Y-91367037D01*
X130298120Y-91106220D01*
X130196354Y-90860535D01*
X130048613Y-90639425D01*
X129860575Y-90451387D01*
X129639465Y-90303646D01*
X129393780Y-90201880D01*
X129132963Y-90150000D01*
X128867037Y-90150000D01*
X128606220Y-90201880D01*
X128360535Y-90303646D01*
X128139425Y-90451387D01*
X127951387Y-90639425D01*
X127803646Y-90860535D01*
X127750000Y-90990048D01*
X127696354Y-90860535D01*
X127548613Y-90639425D01*
X127360575Y-90451387D01*
X127139465Y-90303646D01*
X126893780Y-90201880D01*
X126632963Y-90150000D01*
X126367037Y-90150000D01*
X126106220Y-90201880D01*
X125860535Y-90303646D01*
X125639425Y-90451387D01*
X125451387Y-90639425D01*
X125303646Y-90860535D01*
X125201880Y-91106220D01*
X125150000Y-91367037D01*
X125150000Y-91431201D01*
X125147293Y-91434622D01*
X125128177Y-91456403D01*
X125099144Y-91486643D01*
X121827632Y-94758156D01*
X121789473Y-94789472D01*
X121664509Y-94941742D01*
X121614875Y-95034600D01*
X121571651Y-95115466D01*
X121514470Y-95303966D01*
X121495162Y-95500000D01*
X121500001Y-95549130D01*
X121500000Y-100952119D01*
X121499055Y-100988035D01*
X121497218Y-101010131D01*
X121495030Y-101025071D01*
X121412549Y-101107552D01*
X121259336Y-101336851D01*
X121153801Y-101591635D01*
X121100000Y-101862112D01*
X115950000Y-101862112D01*
X115950000Y-101803775D01*
X115929019Y-101590750D01*
X115846106Y-101317424D01*
X115711464Y-101065526D01*
X115530264Y-100844735D01*
X115309473Y-100663536D01*
X115057575Y-100528894D01*
X114784249Y-100445981D01*
X114500000Y-100417985D01*
X114215750Y-100445981D01*
X113942424Y-100528894D01*
X113690526Y-100663536D01*
X113469735Y-100844736D01*
X113288536Y-101065527D01*
X113250000Y-101137622D01*
X113211464Y-101065526D01*
X113030264Y-100844735D01*
X112809473Y-100663536D01*
X112750000Y-100631747D01*
X112750000Y-85836824D01*
X112753627Y-85799999D01*
X112750000Y-85763174D01*
X112750000Y-85763165D01*
X112739147Y-85652974D01*
X112696261Y-85511599D01*
X112626619Y-85381307D01*
X112597710Y-85346081D01*
X112556376Y-85295715D01*
X112556369Y-85295708D01*
X112532895Y-85267105D01*
X112504292Y-85243631D01*
X110756378Y-83495719D01*
X110732895Y-83467105D01*
X110618693Y-83373381D01*
X110502903Y-83311490D01*
X110502903Y-83100000D01*
X110491318Y-82982379D01*
X110457010Y-82869279D01*
X110401296Y-82765045D01*
X110326317Y-82673683D01*
X110234955Y-82598704D01*
X110130721Y-82542990D01*
X110017621Y-82508682D01*
X109900000Y-82497097D01*
X108100000Y-82497097D01*
X107982379Y-82508682D01*
X107869279Y-82542990D01*
X107765045Y-82598704D01*
X107673683Y-82673683D01*
X107598704Y-82765045D01*
X107542990Y-82869279D01*
X107508682Y-82982379D01*
X107497097Y-83100000D01*
X100625000Y-83100000D01*
X100625000Y-76690000D01*
X107547097Y-76690000D01*
X107547097Y-78390000D01*
X107558682Y-78507621D01*
X107592990Y-78620721D01*
X107648704Y-78724955D01*
X107723683Y-78816317D01*
X107815045Y-78891296D01*
X107919279Y-78947010D01*
X108032379Y-78981318D01*
X108150000Y-78992903D01*
X109850000Y-78992903D01*
X109967621Y-78981318D01*
X110080721Y-78947010D01*
X110184955Y-78891296D01*
X110276317Y-78816317D01*
X110351296Y-78724955D01*
X110407010Y-78620721D01*
X110441318Y-78507621D01*
X110452903Y-78390000D01*
X110452903Y-76690000D01*
X110441318Y-76572379D01*
X110407010Y-76459279D01*
X110351296Y-76355045D01*
X110276317Y-76263683D01*
X110184955Y-76188704D01*
X110080721Y-76132990D01*
X109967621Y-76098682D01*
X109953335Y-76097275D01*
X110126289Y-75924321D01*
X110284973Y-75686833D01*
X110394277Y-75422949D01*
X110450000Y-75142813D01*
X110450000Y-74857187D01*
X110394277Y-74577051D01*
X110284973Y-74313167D01*
X110126289Y-74075679D01*
X109924321Y-73873711D01*
X109709242Y-73730000D01*
X109924321Y-73586289D01*
X110126289Y-73384321D01*
X110284973Y-73146833D01*
X110394277Y-72882949D01*
X110450000Y-72602813D01*
X110450000Y-72317187D01*
X110394277Y-72037051D01*
X110284973Y-71773167D01*
X110126289Y-71535679D01*
X109924321Y-71333711D01*
X109686833Y-71175027D01*
X109422949Y-71065723D01*
X109142813Y-71010000D01*
X108857187Y-71010000D01*
X108577051Y-71065723D01*
X108313167Y-71175027D01*
X108075679Y-71333711D01*
X107873711Y-71535679D01*
X107715027Y-71773167D01*
X107605723Y-72037051D01*
X107550000Y-72317187D01*
X107550000Y-72602813D01*
X107605723Y-72882949D01*
X107715027Y-73146833D01*
X107873711Y-73384321D01*
X108075679Y-73586289D01*
X108290758Y-73730000D01*
X108075679Y-73873711D01*
X107873711Y-74075679D01*
X107715027Y-74313167D01*
X107605723Y-74577051D01*
X107550000Y-74857187D01*
X107550000Y-75142813D01*
X107605723Y-75422949D01*
X107715027Y-75686833D01*
X107873711Y-75924321D01*
X108046665Y-76097275D01*
X108032379Y-76098682D01*
X107919279Y-76132990D01*
X107815045Y-76188704D01*
X107723683Y-76263683D01*
X107648704Y-76355045D01*
X107592990Y-76459279D01*
X107558682Y-76572379D01*
X107547097Y-76690000D01*
X100625000Y-76690000D01*
X100625000Y-59000000D01*
X110417985Y-59000000D01*
X110445981Y-59284250D01*
X110528894Y-59557576D01*
X110663536Y-59809474D01*
X110844735Y-60030265D01*
X111065526Y-60211464D01*
X111137622Y-60250000D01*
X111065526Y-60288536D01*
X110844735Y-60469735D01*
X110663536Y-60690526D01*
X110528894Y-60942424D01*
X110445981Y-61215750D01*
X110417985Y-61500000D01*
X110445981Y-61784250D01*
X110528894Y-62057576D01*
X110663536Y-62309474D01*
X110844735Y-62530265D01*
X111065526Y-62711464D01*
X111089717Y-62724394D01*
X111094129Y-62748088D01*
X111098170Y-62785553D01*
X111100000Y-62838212D01*
X111100001Y-70480783D01*
X111095646Y-70525000D01*
X111113023Y-70701430D01*
X111164487Y-70871081D01*
X111248057Y-71027431D01*
X111332345Y-71130137D01*
X111332348Y-71130140D01*
X111360526Y-71164475D01*
X111394861Y-71192653D01*
X133087666Y-92885458D01*
X133025193Y-92978955D01*
X132942273Y-93179142D01*
X132900000Y-93391659D01*
X132900000Y-93608341D01*
X132942273Y-93820858D01*
X133025193Y-94021045D01*
X133145575Y-94201209D01*
X133298791Y-94354425D01*
X133478955Y-94474807D01*
X133679142Y-94557727D01*
X133891659Y-94600000D01*
X134108341Y-94600000D01*
X134320858Y-94557727D01*
X134521045Y-94474807D01*
X134701209Y-94354425D01*
X134854425Y-94201209D01*
X134974807Y-94021045D01*
X135057727Y-93820858D01*
X135100000Y-93608341D01*
X135100000Y-93391659D01*
X135057727Y-93179142D01*
X134974807Y-92978955D01*
X134900219Y-92867326D01*
X134900000Y-92846870D01*
X134900000Y-92569196D01*
X134904353Y-92524999D01*
X134900000Y-92480802D01*
X134900000Y-92480793D01*
X134886977Y-92348569D01*
X134835514Y-92178919D01*
X134751943Y-92022568D01*
X134639475Y-91885525D01*
X134605136Y-91857344D01*
X112900000Y-70152208D01*
X112900000Y-62838197D01*
X112901829Y-62785553D01*
X112905870Y-62748088D01*
X112910282Y-62724395D01*
X112934474Y-62711464D01*
X113155265Y-62530265D01*
X113336464Y-62309474D01*
X113471106Y-62057576D01*
X113554019Y-61784250D01*
X113582015Y-61500000D01*
X113554019Y-61215750D01*
X113471106Y-60942424D01*
X113336464Y-60690526D01*
X113155265Y-60469735D01*
X112934474Y-60288536D01*
X112862378Y-60250000D01*
X112934474Y-60211464D01*
X113069715Y-60100474D01*
X113108622Y-60100000D01*
X119929707Y-60100000D01*
X120065526Y-60211464D01*
X120137622Y-60250000D01*
X120065526Y-60288536D01*
X119844735Y-60469735D01*
X119663536Y-60690526D01*
X119528894Y-60942424D01*
X119445981Y-61215750D01*
X119417985Y-61500000D01*
X119445981Y-61784250D01*
X119528894Y-62057576D01*
X119663536Y-62309474D01*
X119844735Y-62530265D01*
X120065526Y-62711464D01*
X120089717Y-62724394D01*
X120094129Y-62748088D01*
X120098170Y-62785553D01*
X120100000Y-62838210D01*
X120100001Y-76205783D01*
X120095646Y-76250000D01*
X120113023Y-76426430D01*
X120164487Y-76596081D01*
X120248057Y-76752431D01*
X120332345Y-76855137D01*
X120332348Y-76855140D01*
X120360526Y-76889475D01*
X120394861Y-76917653D01*
X138082343Y-94605135D01*
X138110525Y-94639475D01*
X138208292Y-94719710D01*
X138247568Y-94751943D01*
X138403918Y-94835514D01*
X138573569Y-94886977D01*
X138750000Y-94904354D01*
X138794207Y-94900000D01*
X141346870Y-94900000D01*
X141367326Y-94900219D01*
X141478955Y-94974807D01*
X141679142Y-95057727D01*
X141891659Y-95100000D01*
X142108341Y-95100000D01*
X142320858Y-95057727D01*
X142521045Y-94974807D01*
X142701209Y-94854425D01*
X142854425Y-94701209D01*
X142974807Y-94521045D01*
X143057727Y-94320858D01*
X143100000Y-94108341D01*
X143100000Y-93891659D01*
X143057727Y-93679142D01*
X142974807Y-93478955D01*
X142854425Y-93298791D01*
X142701209Y-93145575D01*
X142521045Y-93025193D01*
X142320858Y-92942273D01*
X142108341Y-92900000D01*
X141891659Y-92900000D01*
X141679142Y-92942273D01*
X141478955Y-93025193D01*
X141367326Y-93099781D01*
X141346858Y-93100000D01*
X139122792Y-93100000D01*
X130120394Y-84097602D01*
X130320858Y-84057727D01*
X130521045Y-83974807D01*
X130701209Y-83854425D01*
X130854425Y-83701209D01*
X130974807Y-83521045D01*
X131057727Y-83320858D01*
X131100000Y-83108341D01*
X131100000Y-82891659D01*
X131057727Y-82679142D01*
X130974807Y-82478955D01*
X130854425Y-82298791D01*
X130701209Y-82145575D01*
X130521045Y-82025193D01*
X130320858Y-81942273D01*
X130108341Y-81900000D01*
X129995503Y-81900000D01*
X129960299Y-81899639D01*
X129250000Y-81189341D01*
X129250000Y-80254799D01*
X129332345Y-80355137D01*
X129332348Y-80355140D01*
X129360526Y-80389475D01*
X129394861Y-80417653D01*
X140582343Y-91605135D01*
X140610525Y-91639475D01*
X140689108Y-91703966D01*
X140747568Y-91751943D01*
X140903918Y-91835514D01*
X141073569Y-91886977D01*
X141250000Y-91904354D01*
X141294207Y-91900000D01*
X141346870Y-91900000D01*
X141367326Y-91900219D01*
X141478955Y-91974807D01*
X141679142Y-92057727D01*
X141891659Y-92100000D01*
X142108341Y-92100000D01*
X142320858Y-92057727D01*
X142521045Y-91974807D01*
X142701209Y-91854425D01*
X142854425Y-91701209D01*
X142974807Y-91521045D01*
X143057727Y-91320858D01*
X143100000Y-91108341D01*
X143100000Y-90891659D01*
X143057727Y-90679142D01*
X142974807Y-90478955D01*
X142854425Y-90298791D01*
X142701209Y-90145575D01*
X142521045Y-90025193D01*
X142320858Y-89942273D01*
X142108341Y-89900000D01*
X141891659Y-89900000D01*
X141679142Y-89942273D01*
X141527767Y-90004975D01*
X130900000Y-79377208D01*
X130900000Y-62838197D01*
X130901829Y-62785553D01*
X130905870Y-62748088D01*
X130910282Y-62724395D01*
X130934474Y-62711464D01*
X131155265Y-62530265D01*
X131336464Y-62309474D01*
X131471106Y-62057576D01*
X131554019Y-61784250D01*
X131582015Y-61500000D01*
X131554019Y-61215750D01*
X131471106Y-60942424D01*
X131336464Y-60690526D01*
X131155265Y-60469735D01*
X130934474Y-60288536D01*
X130862378Y-60250000D01*
X130934474Y-60211464D01*
X131070293Y-60100000D01*
X137929707Y-60100000D01*
X138065526Y-60211464D01*
X138137622Y-60250000D01*
X138065526Y-60288536D01*
X137844735Y-60469735D01*
X137663536Y-60690526D01*
X137528894Y-60942424D01*
X137445981Y-61215750D01*
X137417985Y-61500000D01*
X137445981Y-61784250D01*
X137528894Y-62057576D01*
X137663536Y-62309474D01*
X137844735Y-62530265D01*
X138065526Y-62711464D01*
X138089717Y-62724394D01*
X138094129Y-62748088D01*
X138098170Y-62785553D01*
X138100000Y-62838209D01*
X138100001Y-85455783D01*
X138095646Y-85500000D01*
X138113023Y-85676430D01*
X138164487Y-85846081D01*
X138248057Y-86002431D01*
X138332345Y-86105137D01*
X138332348Y-86105140D01*
X138360526Y-86139475D01*
X138394861Y-86167653D01*
X140832343Y-88605135D01*
X140860525Y-88639475D01*
X140997568Y-88751943D01*
X141153919Y-88835514D01*
X141323569Y-88886977D01*
X141351647Y-88889742D01*
X141478955Y-88974807D01*
X141679142Y-89057727D01*
X141891659Y-89100000D01*
X142108341Y-89100000D01*
X142320858Y-89057727D01*
X142521045Y-88974807D01*
X142689704Y-88862112D01*
X149600000Y-88862112D01*
X149600000Y-89137888D01*
X149653801Y-89408365D01*
X149759336Y-89663149D01*
X149912549Y-89892448D01*
X150107552Y-90087451D01*
X150336851Y-90240664D01*
X150591635Y-90346199D01*
X150862112Y-90400000D01*
X151137888Y-90400000D01*
X151408365Y-90346199D01*
X151663149Y-90240664D01*
X151892448Y-90087451D01*
X152087451Y-89892448D01*
X152240664Y-89663149D01*
X152346199Y-89408365D01*
X152400000Y-89137888D01*
X152400000Y-88862112D01*
X152346199Y-88591635D01*
X152240664Y-88336851D01*
X152087451Y-88107552D01*
X151892448Y-87912549D01*
X151663149Y-87759336D01*
X151408365Y-87653801D01*
X151137888Y-87600000D01*
X150862112Y-87600000D01*
X150591635Y-87653801D01*
X150336851Y-87759336D01*
X150107552Y-87912549D01*
X149912549Y-88107552D01*
X149759336Y-88336851D01*
X149653801Y-88591635D01*
X149600000Y-88862112D01*
X142689704Y-88862112D01*
X142701209Y-88854425D01*
X142854425Y-88701209D01*
X142974807Y-88521045D01*
X143057727Y-88320858D01*
X143100000Y-88108341D01*
X143100000Y-87891659D01*
X143057727Y-87679142D01*
X142974807Y-87478955D01*
X142854425Y-87298791D01*
X142701209Y-87145575D01*
X142521045Y-87025193D01*
X142320858Y-86942273D01*
X142108341Y-86900000D01*
X142033963Y-86900000D01*
X141858027Y-86758768D01*
X141492232Y-86462574D01*
X141069070Y-86117762D01*
X140589462Y-85725077D01*
X140075322Y-85302530D01*
X139900000Y-85127208D01*
X139900000Y-62838197D01*
X139901829Y-62785553D01*
X139905870Y-62748088D01*
X139910282Y-62724395D01*
X139934474Y-62711464D01*
X140155265Y-62530265D01*
X140336464Y-62309474D01*
X140471106Y-62057576D01*
X140554019Y-61784250D01*
X140582015Y-61500000D01*
X140554019Y-61215750D01*
X140471106Y-60942424D01*
X140336464Y-60690526D01*
X140155265Y-60469735D01*
X139934474Y-60288536D01*
X139862378Y-60250000D01*
X139934474Y-60211464D01*
X140070293Y-60100000D01*
X146891378Y-60100000D01*
X146930285Y-60100474D01*
X147065526Y-60211464D01*
X147137622Y-60250000D01*
X147065526Y-60288536D01*
X146844735Y-60469735D01*
X146663536Y-60690526D01*
X146528894Y-60942424D01*
X146445981Y-61215750D01*
X146417985Y-61500000D01*
X146445981Y-61784250D01*
X146528894Y-62057576D01*
X146663536Y-62309474D01*
X146844735Y-62530265D01*
X147065526Y-62711464D01*
X147089717Y-62724394D01*
X147094129Y-62748088D01*
X147098170Y-62785553D01*
X147100000Y-62838210D01*
X147100001Y-78627207D01*
X141825513Y-83901695D01*
X141810816Y-83916081D01*
X141679142Y-83942273D01*
X141478955Y-84025193D01*
X141298791Y-84145575D01*
X141145575Y-84298791D01*
X141025193Y-84478955D01*
X140942273Y-84679142D01*
X140900000Y-84891659D01*
X140900000Y-85108341D01*
X140942273Y-85320858D01*
X141025193Y-85521045D01*
X141145575Y-85701209D01*
X141298791Y-85854425D01*
X141478955Y-85974807D01*
X141679142Y-86057727D01*
X141891659Y-86100000D01*
X142108341Y-86100000D01*
X142320858Y-86057727D01*
X142521045Y-85974807D01*
X142701209Y-85854425D01*
X142854425Y-85701209D01*
X142974807Y-85521045D01*
X143057727Y-85320858D01*
X143083919Y-85189182D01*
X143098285Y-85174507D01*
X143572792Y-84700000D01*
X149597097Y-84700000D01*
X149597097Y-86300000D01*
X149608682Y-86417621D01*
X149642990Y-86530721D01*
X149698704Y-86634955D01*
X149773683Y-86726317D01*
X149865045Y-86801296D01*
X149969279Y-86857010D01*
X150082379Y-86891318D01*
X150200000Y-86902903D01*
X151800000Y-86902903D01*
X151917621Y-86891318D01*
X152030721Y-86857010D01*
X152134955Y-86801296D01*
X152226317Y-86726317D01*
X152301296Y-86634955D01*
X152357010Y-86530721D01*
X152391318Y-86417621D01*
X152402903Y-86300000D01*
X152402903Y-84700000D01*
X152391318Y-84582379D01*
X152357010Y-84469279D01*
X152301296Y-84365045D01*
X152226317Y-84273683D01*
X152134955Y-84198704D01*
X152030721Y-84142990D01*
X151917621Y-84108682D01*
X151800000Y-84097097D01*
X150200000Y-84097097D01*
X150082379Y-84108682D01*
X149969279Y-84142990D01*
X149865045Y-84198704D01*
X149773683Y-84273683D01*
X149698704Y-84365045D01*
X149642990Y-84469279D01*
X149608682Y-84582379D01*
X149597097Y-84700000D01*
X143572792Y-84700000D01*
X148605135Y-79667657D01*
X148639475Y-79639475D01*
X148751943Y-79502432D01*
X148835514Y-79346081D01*
X148886977Y-79176431D01*
X148900000Y-79044207D01*
X148900000Y-79044198D01*
X148904353Y-79000001D01*
X148900000Y-78955804D01*
X148900000Y-77700000D01*
X149597097Y-77700000D01*
X149597097Y-79300000D01*
X149608682Y-79417621D01*
X149642990Y-79530721D01*
X149698704Y-79634955D01*
X149773683Y-79726317D01*
X149865045Y-79801296D01*
X149969279Y-79857010D01*
X150082379Y-79891318D01*
X150200000Y-79902903D01*
X151800000Y-79902903D01*
X151917621Y-79891318D01*
X152030721Y-79857010D01*
X152134955Y-79801296D01*
X152226317Y-79726317D01*
X152301296Y-79634955D01*
X152357010Y-79530721D01*
X152391318Y-79417621D01*
X152402903Y-79300000D01*
X152402903Y-77700000D01*
X152391318Y-77582379D01*
X152357010Y-77469279D01*
X152301296Y-77365045D01*
X152226317Y-77273683D01*
X152134955Y-77198704D01*
X152030721Y-77142990D01*
X151917621Y-77108682D01*
X151800000Y-77097097D01*
X150200000Y-77097097D01*
X150082379Y-77108682D01*
X149969279Y-77142990D01*
X149865045Y-77198704D01*
X149773683Y-77273683D01*
X149698704Y-77365045D01*
X149642990Y-77469279D01*
X149608682Y-77582379D01*
X149597097Y-77700000D01*
X148900000Y-77700000D01*
X148900000Y-74862112D01*
X149600000Y-74862112D01*
X149600000Y-75137888D01*
X149653801Y-75408365D01*
X149759336Y-75663149D01*
X149912549Y-75892448D01*
X150107552Y-76087451D01*
X150336851Y-76240664D01*
X150591635Y-76346199D01*
X150862112Y-76400000D01*
X151137888Y-76400000D01*
X151408365Y-76346199D01*
X151663149Y-76240664D01*
X151892448Y-76087451D01*
X152087451Y-75892448D01*
X152240664Y-75663149D01*
X152346199Y-75408365D01*
X152400000Y-75137888D01*
X152400000Y-74862112D01*
X152346199Y-74591635D01*
X152240664Y-74336851D01*
X152087451Y-74107552D01*
X151892448Y-73912549D01*
X151663149Y-73759336D01*
X151408365Y-73653801D01*
X151137888Y-73600000D01*
X150862112Y-73600000D01*
X150591635Y-73653801D01*
X150336851Y-73759336D01*
X150107552Y-73912549D01*
X149912549Y-74107552D01*
X149759336Y-74336851D01*
X149653801Y-74591635D01*
X149600000Y-74862112D01*
X148900000Y-74862112D01*
X148900000Y-62838197D01*
X148901829Y-62785553D01*
X148905870Y-62748088D01*
X148910282Y-62724395D01*
X148934474Y-62711464D01*
X149155265Y-62530265D01*
X149336464Y-62309474D01*
X149471106Y-62057576D01*
X149554019Y-61784250D01*
X149582015Y-61500000D01*
X149554019Y-61215750D01*
X149471106Y-60942424D01*
X149336464Y-60690526D01*
X149155265Y-60469735D01*
X148934474Y-60288536D01*
X148862378Y-60250000D01*
X148934474Y-60211464D01*
X149155265Y-60030265D01*
X149180103Y-60000000D01*
X149360788Y-60000000D01*
X152750000Y-63389213D01*
X152750001Y-92585785D01*
X146585788Y-98750000D01*
X141481112Y-98750000D01*
X141439191Y-98749147D01*
X141410287Y-98747263D01*
X141405945Y-98746757D01*
X141360575Y-98701387D01*
X141139465Y-98553646D01*
X140893780Y-98451880D01*
X140632963Y-98400000D01*
X140367037Y-98400000D01*
X140106220Y-98451880D01*
X139860535Y-98553646D01*
X139639425Y-98701387D01*
X139451387Y-98889425D01*
X139303646Y-99110535D01*
X139201880Y-99356220D01*
X139150000Y-99617037D01*
X139150000Y-99882963D01*
X139201880Y-100143780D01*
X139303646Y-100389465D01*
X139451387Y-100610575D01*
X139639425Y-100798613D01*
X139860535Y-100946354D01*
X140106220Y-101048120D01*
X140367037Y-101100000D01*
X140632963Y-101100000D01*
X140893780Y-101048120D01*
X141139465Y-100946354D01*
X141360575Y-100798613D01*
X141405946Y-100753242D01*
X141410287Y-100752736D01*
X141439190Y-100750852D01*
X141481098Y-100750000D01*
X146950880Y-100750000D01*
X147000000Y-100754838D01*
X147049120Y-100750000D01*
X147196034Y-100735530D01*
X147384535Y-100678349D01*
X147558258Y-100585492D01*
X147710528Y-100460528D01*
X147741849Y-100422363D01*
X154422374Y-93741840D01*
X154460528Y-93710528D01*
X154585492Y-93558258D01*
X154678349Y-93384535D01*
X154735530Y-93196034D01*
X154750000Y-93049120D01*
X154754838Y-93000000D01*
X154750000Y-92950880D01*
X154750000Y-63024120D01*
X154754838Y-62975000D01*
X154735530Y-62778966D01*
X154678349Y-62590465D01*
X154676147Y-62586345D01*
X154585492Y-62416742D01*
X154460528Y-62264472D01*
X154422368Y-62233155D01*
X150516849Y-58327637D01*
X150485528Y-58289472D01*
X150333258Y-58164508D01*
X150159535Y-58071651D01*
X149971034Y-58014470D01*
X149824120Y-58000000D01*
X149775000Y-57995162D01*
X149725880Y-58000000D01*
X149180103Y-58000000D01*
X149155265Y-57969735D01*
X149053968Y-57886603D01*
X149198848Y-57809163D01*
X149328093Y-57703093D01*
X149434163Y-57573848D01*
X149512980Y-57426392D01*
X149561515Y-57266393D01*
X149577903Y-57100000D01*
X149577903Y-55900000D01*
X149561515Y-55733607D01*
X149512980Y-55573608D01*
X149434163Y-55426152D01*
X149328093Y-55296907D01*
X149198848Y-55190837D01*
X149051392Y-55112020D01*
X148891393Y-55063485D01*
X148725000Y-55047097D01*
X147275000Y-55047097D01*
X147108607Y-55063485D01*
X146948608Y-55112020D01*
X146801152Y-55190837D01*
X146671907Y-55296907D01*
X146565837Y-55426152D01*
X146487020Y-55573608D01*
X146438485Y-55733607D01*
X146422097Y-55900000D01*
X146422097Y-57100000D01*
X146438485Y-57266393D01*
X146487020Y-57426392D01*
X146565837Y-57573848D01*
X146671907Y-57703093D01*
X146801152Y-57809163D01*
X146946032Y-57886603D01*
X146930286Y-57899525D01*
X146891366Y-57900000D01*
X140070293Y-57900000D01*
X140053968Y-57886603D01*
X140198848Y-57809163D01*
X140328093Y-57703093D01*
X140434163Y-57573848D01*
X140512980Y-57426392D01*
X140561515Y-57266393D01*
X140577903Y-57100000D01*
X140577903Y-55900000D01*
X140561515Y-55733607D01*
X140512980Y-55573608D01*
X140434163Y-55426152D01*
X140328093Y-55296907D01*
X140198848Y-55190837D01*
X140051392Y-55112020D01*
X139891393Y-55063485D01*
X139725000Y-55047097D01*
X138275000Y-55047097D01*
X138108607Y-55063485D01*
X137948608Y-55112020D01*
X137801152Y-55190837D01*
X137671907Y-55296907D01*
X137565837Y-55426152D01*
X137487020Y-55573608D01*
X137438485Y-55733607D01*
X137422097Y-55900000D01*
X137422097Y-57100000D01*
X137438485Y-57266393D01*
X137487020Y-57426392D01*
X137565837Y-57573848D01*
X137671907Y-57703093D01*
X137801152Y-57809163D01*
X137946032Y-57886603D01*
X137929707Y-57900000D01*
X131070293Y-57900000D01*
X131053968Y-57886603D01*
X131198848Y-57809163D01*
X131328093Y-57703093D01*
X131434163Y-57573848D01*
X131512980Y-57426392D01*
X131561515Y-57266393D01*
X131577903Y-57100000D01*
X131577903Y-55900000D01*
X131561515Y-55733607D01*
X131512980Y-55573608D01*
X131434163Y-55426152D01*
X131328093Y-55296907D01*
X131198848Y-55190837D01*
X131051392Y-55112020D01*
X130891393Y-55063485D01*
X130725000Y-55047097D01*
X129275000Y-55047097D01*
X129108607Y-55063485D01*
X128948608Y-55112020D01*
X128801152Y-55190837D01*
X128671907Y-55296907D01*
X128565837Y-55426152D01*
X128487020Y-55573608D01*
X128438485Y-55733607D01*
X128422097Y-55900000D01*
X128422097Y-57100000D01*
X128438485Y-57266393D01*
X128487020Y-57426392D01*
X128565837Y-57573848D01*
X128671907Y-57703093D01*
X128801152Y-57809163D01*
X128946032Y-57886603D01*
X128929707Y-57900000D01*
X122070293Y-57900000D01*
X122053968Y-57886603D01*
X122198848Y-57809163D01*
X122328093Y-57703093D01*
X122434163Y-57573848D01*
X122512980Y-57426392D01*
X122561515Y-57266393D01*
X122577903Y-57100000D01*
X122577903Y-55900000D01*
X122561515Y-55733607D01*
X122512980Y-55573608D01*
X122434163Y-55426152D01*
X122328093Y-55296907D01*
X122198848Y-55190837D01*
X122051392Y-55112020D01*
X121891393Y-55063485D01*
X121725000Y-55047097D01*
X120275000Y-55047097D01*
X120108607Y-55063485D01*
X119948608Y-55112020D01*
X119801152Y-55190837D01*
X119671907Y-55296907D01*
X119565837Y-55426152D01*
X119487020Y-55573608D01*
X119438485Y-55733607D01*
X119422097Y-55900000D01*
X119422097Y-57100000D01*
X119438485Y-57266393D01*
X119487020Y-57426392D01*
X119565837Y-57573848D01*
X119671907Y-57703093D01*
X119801152Y-57809163D01*
X119946032Y-57886603D01*
X119929707Y-57900000D01*
X113108634Y-57900000D01*
X113069714Y-57899525D01*
X113053968Y-57886603D01*
X113198848Y-57809163D01*
X113328093Y-57703093D01*
X113434163Y-57573848D01*
X113512980Y-57426392D01*
X113561515Y-57266393D01*
X113577903Y-57100000D01*
X113577903Y-55900000D01*
X113561515Y-55733607D01*
X113512980Y-55573608D01*
X113434163Y-55426152D01*
X113328093Y-55296907D01*
X113198848Y-55190837D01*
X113051392Y-55112020D01*
X112891393Y-55063485D01*
X112725000Y-55047097D01*
X111275000Y-55047097D01*
X111108607Y-55063485D01*
X110948608Y-55112020D01*
X110801152Y-55190837D01*
X110671907Y-55296907D01*
X110565837Y-55426152D01*
X110487020Y-55573608D01*
X110438485Y-55733607D01*
X110422097Y-55900000D01*
X110422097Y-57100000D01*
X110438485Y-57266393D01*
X110487020Y-57426392D01*
X110565837Y-57573848D01*
X110671907Y-57703093D01*
X110801152Y-57809163D01*
X110946032Y-57886603D01*
X110844735Y-57969735D01*
X110663536Y-58190526D01*
X110528894Y-58442424D01*
X110445981Y-58715750D01*
X110417985Y-59000000D01*
X100625000Y-59000000D01*
X100625000Y-55781909D01*
X100632483Y-55799975D01*
X101048347Y-56422359D01*
X101577641Y-56951653D01*
X102200025Y-57367517D01*
X102891581Y-57653969D01*
X103625733Y-57800000D01*
X104374267Y-57800000D01*
X105108419Y-57653969D01*
X105799975Y-57367517D01*
X106422359Y-56951653D01*
X106951653Y-56422359D01*
X107367517Y-55799975D01*
X107653969Y-55108419D01*
X107800000Y-54374267D01*
X107800000Y-53625733D01*
X107653969Y-52891581D01*
X107367517Y-52200025D01*
X106951653Y-51577641D01*
X106422359Y-51048347D01*
X105799975Y-50632483D01*
X105781909Y-50625000D01*
X154218091Y-50625000D01*
X154200025Y-50632483D01*
G36*
X129065526Y-60211464D02*
G01*
X129137622Y-60250000D01*
X129065526Y-60288536D01*
X128844735Y-60469735D01*
X128663536Y-60690526D01*
X128528894Y-60942424D01*
X128445981Y-61215750D01*
X128417985Y-61500000D01*
X128445981Y-61784250D01*
X128528894Y-62057576D01*
X128663536Y-62309474D01*
X128844735Y-62530265D01*
X129065526Y-62711464D01*
X129089717Y-62724394D01*
X129094129Y-62748088D01*
X129098170Y-62785553D01*
X129100000Y-62838210D01*
X129100000Y-70577949D01*
X129021045Y-70525193D01*
X128820858Y-70442273D01*
X128608341Y-70400000D01*
X128391659Y-70400000D01*
X128179142Y-70442273D01*
X127978955Y-70525193D01*
X127798791Y-70645575D01*
X127645575Y-70798791D01*
X127525193Y-70978955D01*
X127442273Y-71179142D01*
X127400000Y-71391659D01*
X127400000Y-71608341D01*
X127442273Y-71820858D01*
X127525193Y-72021045D01*
X127645575Y-72201209D01*
X127720481Y-72276115D01*
X127736026Y-72292546D01*
X127739989Y-72297451D01*
X127742198Y-72300691D01*
X127743450Y-72302903D01*
X127744367Y-72304896D01*
X127745367Y-72307660D01*
X127746595Y-72312190D01*
X127747955Y-72319476D01*
X127749126Y-72330306D01*
X127750000Y-72355407D01*
X127750001Y-81463163D01*
X127746373Y-81500000D01*
X127760853Y-81647025D01*
X127800494Y-81777702D01*
X121900000Y-75877208D01*
X121900000Y-62838197D01*
X121901829Y-62785553D01*
X121905870Y-62748088D01*
X121910282Y-62724395D01*
X121934474Y-62711464D01*
X122155265Y-62530265D01*
X122336464Y-62309474D01*
X122471106Y-62057576D01*
X122554019Y-61784250D01*
X122582015Y-61500000D01*
X122554019Y-61215750D01*
X122471106Y-60942424D01*
X122336464Y-60690526D01*
X122155265Y-60469735D01*
X121934474Y-60288536D01*
X121862378Y-60250000D01*
X121934474Y-60211464D01*
X122070293Y-60100000D01*
X128929707Y-60100000D01*
X129065526Y-60211464D01*
G37*
X129065526Y-60211464D02*
X129137622Y-60250000D01*
X129065526Y-60288536D01*
X128844735Y-60469735D01*
X128663536Y-60690526D01*
X128528894Y-60942424D01*
X128445981Y-61215750D01*
X128417985Y-61500000D01*
X128445981Y-61784250D01*
X128528894Y-62057576D01*
X128663536Y-62309474D01*
X128844735Y-62530265D01*
X129065526Y-62711464D01*
X129089717Y-62724394D01*
X129094129Y-62748088D01*
X129098170Y-62785553D01*
X129100000Y-62838210D01*
X129100000Y-70577949D01*
X129021045Y-70525193D01*
X128820858Y-70442273D01*
X128608341Y-70400000D01*
X128391659Y-70400000D01*
X128179142Y-70442273D01*
X127978955Y-70525193D01*
X127798791Y-70645575D01*
X127645575Y-70798791D01*
X127525193Y-70978955D01*
X127442273Y-71179142D01*
X127400000Y-71391659D01*
X127400000Y-71608341D01*
X127442273Y-71820858D01*
X127525193Y-72021045D01*
X127645575Y-72201209D01*
X127720481Y-72276115D01*
X127736026Y-72292546D01*
X127739989Y-72297451D01*
X127742198Y-72300691D01*
X127743450Y-72302903D01*
X127744367Y-72304896D01*
X127745367Y-72307660D01*
X127746595Y-72312190D01*
X127747955Y-72319476D01*
X127749126Y-72330306D01*
X127750000Y-72355407D01*
X127750001Y-81463163D01*
X127746373Y-81500000D01*
X127760853Y-81647025D01*
X127800494Y-81777702D01*
X121900000Y-75877208D01*
X121900000Y-62838197D01*
X121901829Y-62785553D01*
X121905870Y-62748088D01*
X121910282Y-62724395D01*
X121934474Y-62711464D01*
X122155265Y-62530265D01*
X122336464Y-62309474D01*
X122471106Y-62057576D01*
X122554019Y-61784250D01*
X122582015Y-61500000D01*
X122554019Y-61215750D01*
X122471106Y-60942424D01*
X122336464Y-60690526D01*
X122155265Y-60469735D01*
X121934474Y-60288536D01*
X121862378Y-60250000D01*
X121934474Y-60211464D01*
X122070293Y-60100000D01*
X128929707Y-60100000D01*
X129065526Y-60211464D01*
D28*
G36*
X148579272Y-62105167D02*
G01*
X148529723Y-62157550D01*
X148529068Y-62158298D01*
X148478918Y-62220404D01*
X148478303Y-62221233D01*
X148434053Y-62286188D01*
X148433495Y-62287086D01*
X148395145Y-62354891D01*
X148394658Y-62355842D01*
X148362208Y-62426496D01*
X148361804Y-62427482D01*
X148335254Y-62500985D01*
X148334939Y-62501984D01*
X148314289Y-62578337D01*
X148314064Y-62579328D01*
X148299314Y-62658531D01*
X148299172Y-62659494D01*
X148290322Y-62741546D01*
X148290257Y-62742467D01*
X148287733Y-62815110D01*
X147712267Y-62815110D01*
X147709742Y-62742467D01*
X147709677Y-62741546D01*
X147700827Y-62659494D01*
X147700685Y-62658531D01*
X147685935Y-62579328D01*
X147685710Y-62578337D01*
X147665060Y-62501984D01*
X147664745Y-62500985D01*
X147638195Y-62427482D01*
X147637791Y-62426496D01*
X147605341Y-62355842D01*
X147604854Y-62354891D01*
X147566504Y-62287086D01*
X147565946Y-62286188D01*
X147521696Y-62221233D01*
X147521081Y-62220404D01*
X147470931Y-62158298D01*
X147470276Y-62157550D01*
X147420728Y-62105167D01*
X148000000Y-61100426D01*
X148579272Y-62105167D01*
G37*
X148579272Y-62105167D02*
X148529723Y-62157550D01*
X148529068Y-62158298D01*
X148478918Y-62220404D01*
X148478303Y-62221233D01*
X148434053Y-62286188D01*
X148433495Y-62287086D01*
X148395145Y-62354891D01*
X148394658Y-62355842D01*
X148362208Y-62426496D01*
X148361804Y-62427482D01*
X148335254Y-62500985D01*
X148334939Y-62501984D01*
X148314289Y-62578337D01*
X148314064Y-62579328D01*
X148299314Y-62658531D01*
X148299172Y-62659494D01*
X148290322Y-62741546D01*
X148290257Y-62742467D01*
X148287733Y-62815110D01*
X147712267Y-62815110D01*
X147709742Y-62742467D01*
X147709677Y-62741546D01*
X147700827Y-62659494D01*
X147700685Y-62658531D01*
X147685935Y-62579328D01*
X147685710Y-62578337D01*
X147665060Y-62501984D01*
X147664745Y-62500985D01*
X147638195Y-62427482D01*
X147637791Y-62426496D01*
X147605341Y-62355842D01*
X147604854Y-62354891D01*
X147566504Y-62287086D01*
X147565946Y-62286188D01*
X147521696Y-62221233D01*
X147521081Y-62220404D01*
X147470931Y-62158298D01*
X147470276Y-62157550D01*
X147420728Y-62105167D01*
X148000000Y-61100426D01*
X148579272Y-62105167D01*
G36*
X142653886Y-84752608D02*
G01*
X142629912Y-84777099D01*
X142629699Y-84777322D01*
X142600399Y-84808744D01*
X142600151Y-84809017D01*
X142574314Y-84838389D01*
X142574024Y-84838731D01*
X142551651Y-84866053D01*
X142551308Y-84866491D01*
X142532399Y-84891765D01*
X142531993Y-84892340D01*
X142516547Y-84915564D01*
X142516069Y-84916342D01*
X142504086Y-84937516D01*
X142503538Y-84938604D01*
X142495020Y-84957730D01*
X142494444Y-84959291D01*
X142489388Y-84976367D01*
X142488936Y-84978636D01*
X142488263Y-84984996D01*
X141841203Y-85158797D01*
X142015004Y-84511737D01*
X142021364Y-84511063D01*
X142023632Y-84510611D01*
X142040708Y-84505555D01*
X142042269Y-84504979D01*
X142061395Y-84496461D01*
X142062483Y-84495913D01*
X142083657Y-84483930D01*
X142084435Y-84483452D01*
X142107659Y-84468006D01*
X142108234Y-84467600D01*
X142133508Y-84448691D01*
X142133946Y-84448348D01*
X142161268Y-84425975D01*
X142161610Y-84425685D01*
X142190982Y-84399848D01*
X142191255Y-84399600D01*
X142222677Y-84370300D01*
X142222900Y-84370088D01*
X142247392Y-84346114D01*
X142653886Y-84752608D01*
G37*
X142653886Y-84752608D02*
X142629912Y-84777099D01*
X142629699Y-84777322D01*
X142600399Y-84808744D01*
X142600151Y-84809017D01*
X142574314Y-84838389D01*
X142574024Y-84838731D01*
X142551651Y-84866053D01*
X142551308Y-84866491D01*
X142532399Y-84891765D01*
X142531993Y-84892340D01*
X142516547Y-84915564D01*
X142516069Y-84916342D01*
X142504086Y-84937516D01*
X142503538Y-84938604D01*
X142495020Y-84957730D01*
X142494444Y-84959291D01*
X142489388Y-84976367D01*
X142488936Y-84978636D01*
X142488263Y-84984996D01*
X141841203Y-85158797D01*
X142015004Y-84511737D01*
X142021364Y-84511063D01*
X142023632Y-84510611D01*
X142040708Y-84505555D01*
X142042269Y-84504979D01*
X142061395Y-84496461D01*
X142062483Y-84495913D01*
X142083657Y-84483930D01*
X142084435Y-84483452D01*
X142107659Y-84468006D01*
X142108234Y-84467600D01*
X142133508Y-84448691D01*
X142133946Y-84448348D01*
X142161268Y-84425975D01*
X142161610Y-84425685D01*
X142190982Y-84399848D01*
X142191255Y-84399600D01*
X142222677Y-84370300D01*
X142222900Y-84370088D01*
X142247392Y-84346114D01*
X142653886Y-84752608D01*
G36*
X139579272Y-62105167D02*
G01*
X139529723Y-62157550D01*
X139529068Y-62158298D01*
X139478918Y-62220404D01*
X139478303Y-62221233D01*
X139434053Y-62286188D01*
X139433495Y-62287086D01*
X139395145Y-62354891D01*
X139394658Y-62355842D01*
X139362208Y-62426496D01*
X139361804Y-62427482D01*
X139335254Y-62500985D01*
X139334939Y-62501984D01*
X139314289Y-62578337D01*
X139314064Y-62579328D01*
X139299314Y-62658531D01*
X139299172Y-62659494D01*
X139290322Y-62741546D01*
X139290257Y-62742467D01*
X139287733Y-62815110D01*
X138712267Y-62815110D01*
X138709742Y-62742467D01*
X138709677Y-62741546D01*
X138700827Y-62659494D01*
X138700685Y-62658531D01*
X138685935Y-62579328D01*
X138685710Y-62578337D01*
X138665060Y-62501984D01*
X138664745Y-62500985D01*
X138638195Y-62427482D01*
X138637791Y-62426496D01*
X138605341Y-62355842D01*
X138604854Y-62354891D01*
X138566504Y-62287086D01*
X138565946Y-62286188D01*
X138521696Y-62221233D01*
X138521081Y-62220404D01*
X138470931Y-62158298D01*
X138470276Y-62157550D01*
X138420728Y-62105167D01*
X139000000Y-61100426D01*
X139579272Y-62105167D01*
G37*
X139579272Y-62105167D02*
X139529723Y-62157550D01*
X139529068Y-62158298D01*
X139478918Y-62220404D01*
X139478303Y-62221233D01*
X139434053Y-62286188D01*
X139433495Y-62287086D01*
X139395145Y-62354891D01*
X139394658Y-62355842D01*
X139362208Y-62426496D01*
X139361804Y-62427482D01*
X139335254Y-62500985D01*
X139334939Y-62501984D01*
X139314289Y-62578337D01*
X139314064Y-62579328D01*
X139299314Y-62658531D01*
X139299172Y-62659494D01*
X139290322Y-62741546D01*
X139290257Y-62742467D01*
X139287733Y-62815110D01*
X138712267Y-62815110D01*
X138709742Y-62742467D01*
X138709677Y-62741546D01*
X138700827Y-62659494D01*
X138700685Y-62658531D01*
X138685935Y-62579328D01*
X138685710Y-62578337D01*
X138665060Y-62501984D01*
X138664745Y-62500985D01*
X138638195Y-62427482D01*
X138637791Y-62426496D01*
X138605341Y-62355842D01*
X138604854Y-62354891D01*
X138566504Y-62287086D01*
X138565946Y-62286188D01*
X138521696Y-62221233D01*
X138521081Y-62220404D01*
X138470931Y-62158298D01*
X138470276Y-62157550D01*
X138420728Y-62105167D01*
X139000000Y-61100426D01*
X139579272Y-62105167D01*
G36*
X140200923Y-86198828D02*
G01*
X140200941Y-86198842D01*
X140681641Y-86592420D01*
X140681665Y-86592439D01*
X141105828Y-86938067D01*
X141105858Y-86938092D01*
X141473485Y-87235770D01*
X141473527Y-87235804D01*
X141784618Y-87485530D01*
X141784679Y-87485579D01*
X142039233Y-87687355D01*
X142039331Y-87687431D01*
X142237348Y-87841257D01*
X142237530Y-87841396D01*
X142379012Y-87947270D01*
X142379466Y-87947595D01*
X142408226Y-87967207D01*
X141826518Y-87810959D01*
X141824062Y-87810552D01*
X141821574Y-87810632D01*
X141819149Y-87811196D01*
X141816881Y-87812222D01*
X141814856Y-87813671D01*
X141813153Y-87815487D01*
X141811837Y-87817600D01*
X141810959Y-87819930D01*
X141810552Y-87822386D01*
X141810632Y-87824874D01*
X141810959Y-87826518D01*
X141977646Y-88447094D01*
X141925893Y-88397455D01*
X141925545Y-88397134D01*
X141794671Y-88280652D01*
X141794527Y-88280526D01*
X141605701Y-88117509D01*
X141605622Y-88117441D01*
X141358846Y-87907887D01*
X141358797Y-87907845D01*
X141054071Y-87651754D01*
X141054037Y-87651726D01*
X140691359Y-87349099D01*
X140691334Y-87349078D01*
X140270706Y-86999915D01*
X140270687Y-86999899D01*
X139792109Y-86604199D01*
X139792094Y-86604187D01*
X139266354Y-86170844D01*
X139672586Y-85764612D01*
X140200923Y-86198828D01*
G37*
X140200923Y-86198828D02*
X140200941Y-86198842D01*
X140681641Y-86592420D01*
X140681665Y-86592439D01*
X141105828Y-86938067D01*
X141105858Y-86938092D01*
X141473485Y-87235770D01*
X141473527Y-87235804D01*
X141784618Y-87485530D01*
X141784679Y-87485579D01*
X142039233Y-87687355D01*
X142039331Y-87687431D01*
X142237348Y-87841257D01*
X142237530Y-87841396D01*
X142379012Y-87947270D01*
X142379466Y-87947595D01*
X142408226Y-87967207D01*
X141826518Y-87810959D01*
X141824062Y-87810552D01*
X141821574Y-87810632D01*
X141819149Y-87811196D01*
X141816881Y-87812222D01*
X141814856Y-87813671D01*
X141813153Y-87815487D01*
X141811837Y-87817600D01*
X141810959Y-87819930D01*
X141810552Y-87822386D01*
X141810632Y-87824874D01*
X141810959Y-87826518D01*
X141977646Y-88447094D01*
X141925893Y-88397455D01*
X141925545Y-88397134D01*
X141794671Y-88280652D01*
X141794527Y-88280526D01*
X141605701Y-88117509D01*
X141605622Y-88117441D01*
X141358846Y-87907887D01*
X141358797Y-87907845D01*
X141054071Y-87651754D01*
X141054037Y-87651726D01*
X140691359Y-87349099D01*
X140691334Y-87349078D01*
X140270706Y-86999915D01*
X140270687Y-86999899D01*
X139792109Y-86604199D01*
X139792094Y-86604187D01*
X139266354Y-86170844D01*
X139672586Y-85764612D01*
X140200923Y-86198828D01*
G36*
X142224574Y-91000000D02*
G01*
X141644136Y-91334645D01*
X141639161Y-91330623D01*
X141637239Y-91329339D01*
X141621590Y-91320839D01*
X141620077Y-91320142D01*
X141600530Y-91312642D01*
X141599374Y-91312261D01*
X141575928Y-91305761D01*
X141575039Y-91305548D01*
X141547695Y-91300048D01*
X141547002Y-91299929D01*
X141515760Y-91295429D01*
X141515208Y-91295362D01*
X141480068Y-91291862D01*
X141479621Y-91291825D01*
X141440583Y-91289325D01*
X141440214Y-91289307D01*
X141397277Y-91287807D01*
X141396970Y-91287800D01*
X141362700Y-91287434D01*
X141362700Y-90712566D01*
X141396970Y-90712199D01*
X141397277Y-90712192D01*
X141440214Y-90710692D01*
X141440583Y-90710674D01*
X141479621Y-90708174D01*
X141480068Y-90708137D01*
X141515208Y-90704637D01*
X141515760Y-90704570D01*
X141547002Y-90700070D01*
X141547695Y-90699951D01*
X141575039Y-90694451D01*
X141575928Y-90694238D01*
X141599374Y-90687738D01*
X141600530Y-90687357D01*
X141620077Y-90679857D01*
X141621590Y-90679160D01*
X141637239Y-90670660D01*
X141639161Y-90669377D01*
X141644136Y-90665355D01*
X142224574Y-91000000D01*
G37*
X142224574Y-91000000D02*
X141644136Y-91334645D01*
X141639161Y-91330623D01*
X141637239Y-91329339D01*
X141621590Y-91320839D01*
X141620077Y-91320142D01*
X141600530Y-91312642D01*
X141599374Y-91312261D01*
X141575928Y-91305761D01*
X141575039Y-91305548D01*
X141547695Y-91300048D01*
X141547002Y-91299929D01*
X141515760Y-91295429D01*
X141515208Y-91295362D01*
X141480068Y-91291862D01*
X141479621Y-91291825D01*
X141440583Y-91289325D01*
X141440214Y-91289307D01*
X141397277Y-91287807D01*
X141396970Y-91287800D01*
X141362700Y-91287434D01*
X141362700Y-90712566D01*
X141396970Y-90712199D01*
X141397277Y-90712192D01*
X141440214Y-90710692D01*
X141440583Y-90710674D01*
X141479621Y-90708174D01*
X141480068Y-90708137D01*
X141515208Y-90704637D01*
X141515760Y-90704570D01*
X141547002Y-90700070D01*
X141547695Y-90699951D01*
X141575039Y-90694451D01*
X141575928Y-90694238D01*
X141599374Y-90687738D01*
X141600530Y-90687357D01*
X141620077Y-90679857D01*
X141621590Y-90679160D01*
X141637239Y-90670660D01*
X141639161Y-90669377D01*
X141644136Y-90665355D01*
X142224574Y-91000000D01*
G36*
X130579272Y-62105167D02*
G01*
X130529723Y-62157550D01*
X130529068Y-62158298D01*
X130478918Y-62220404D01*
X130478303Y-62221233D01*
X130434053Y-62286188D01*
X130433495Y-62287086D01*
X130395145Y-62354891D01*
X130394658Y-62355842D01*
X130362208Y-62426496D01*
X130361804Y-62427482D01*
X130335254Y-62500985D01*
X130334939Y-62501984D01*
X130314289Y-62578337D01*
X130314064Y-62579328D01*
X130299314Y-62658531D01*
X130299172Y-62659494D01*
X130290322Y-62741546D01*
X130290257Y-62742467D01*
X130287733Y-62815110D01*
X129712267Y-62815110D01*
X129709742Y-62742467D01*
X129709677Y-62741546D01*
X129700827Y-62659494D01*
X129700685Y-62658531D01*
X129685935Y-62579328D01*
X129685710Y-62578337D01*
X129665060Y-62501984D01*
X129664745Y-62500985D01*
X129638195Y-62427482D01*
X129637791Y-62426496D01*
X129605341Y-62355842D01*
X129604854Y-62354891D01*
X129566504Y-62287086D01*
X129565946Y-62286188D01*
X129521696Y-62221233D01*
X129521081Y-62220404D01*
X129470931Y-62158298D01*
X129470276Y-62157550D01*
X129420728Y-62105167D01*
X130000000Y-61100426D01*
X130579272Y-62105167D01*
G37*
X130579272Y-62105167D02*
X130529723Y-62157550D01*
X130529068Y-62158298D01*
X130478918Y-62220404D01*
X130478303Y-62221233D01*
X130434053Y-62286188D01*
X130433495Y-62287086D01*
X130395145Y-62354891D01*
X130394658Y-62355842D01*
X130362208Y-62426496D01*
X130361804Y-62427482D01*
X130335254Y-62500985D01*
X130334939Y-62501984D01*
X130314289Y-62578337D01*
X130314064Y-62579328D01*
X130299314Y-62658531D01*
X130299172Y-62659494D01*
X130290322Y-62741546D01*
X130290257Y-62742467D01*
X130287733Y-62815110D01*
X129712267Y-62815110D01*
X129709742Y-62742467D01*
X129709677Y-62741546D01*
X129700827Y-62659494D01*
X129700685Y-62658531D01*
X129685935Y-62579328D01*
X129685710Y-62578337D01*
X129665060Y-62501984D01*
X129664745Y-62500985D01*
X129638195Y-62427482D01*
X129637791Y-62426496D01*
X129605341Y-62355842D01*
X129604854Y-62354891D01*
X129566504Y-62287086D01*
X129565946Y-62286188D01*
X129521696Y-62221233D01*
X129521081Y-62220404D01*
X129470931Y-62158298D01*
X129470276Y-62157550D01*
X129420728Y-62105167D01*
X130000000Y-61100426D01*
X130579272Y-62105167D01*
G36*
X142224574Y-94000000D02*
G01*
X141644136Y-94334645D01*
X141639161Y-94330623D01*
X141637239Y-94329339D01*
X141621590Y-94320839D01*
X141620077Y-94320142D01*
X141600530Y-94312642D01*
X141599374Y-94312261D01*
X141575928Y-94305761D01*
X141575039Y-94305548D01*
X141547695Y-94300048D01*
X141547002Y-94299929D01*
X141515760Y-94295429D01*
X141515208Y-94295362D01*
X141480068Y-94291862D01*
X141479621Y-94291825D01*
X141440583Y-94289325D01*
X141440214Y-94289307D01*
X141397277Y-94287807D01*
X141396970Y-94287800D01*
X141362700Y-94287434D01*
X141362700Y-93712566D01*
X141396970Y-93712199D01*
X141397277Y-93712192D01*
X141440214Y-93710692D01*
X141440583Y-93710674D01*
X141479621Y-93708174D01*
X141480068Y-93708137D01*
X141515208Y-93704637D01*
X141515760Y-93704570D01*
X141547002Y-93700070D01*
X141547695Y-93699951D01*
X141575039Y-93694451D01*
X141575928Y-93694238D01*
X141599374Y-93687738D01*
X141600530Y-93687357D01*
X141620077Y-93679857D01*
X141621590Y-93679160D01*
X141637239Y-93670660D01*
X141639161Y-93669377D01*
X141644136Y-93665355D01*
X142224574Y-94000000D01*
G37*
X142224574Y-94000000D02*
X141644136Y-94334645D01*
X141639161Y-94330623D01*
X141637239Y-94329339D01*
X141621590Y-94320839D01*
X141620077Y-94320142D01*
X141600530Y-94312642D01*
X141599374Y-94312261D01*
X141575928Y-94305761D01*
X141575039Y-94305548D01*
X141547695Y-94300048D01*
X141547002Y-94299929D01*
X141515760Y-94295429D01*
X141515208Y-94295362D01*
X141480068Y-94291862D01*
X141479621Y-94291825D01*
X141440583Y-94289325D01*
X141440214Y-94289307D01*
X141397277Y-94287807D01*
X141396970Y-94287800D01*
X141362700Y-94287434D01*
X141362700Y-93712566D01*
X141396970Y-93712199D01*
X141397277Y-93712192D01*
X141440214Y-93710692D01*
X141440583Y-93710674D01*
X141479621Y-93708174D01*
X141480068Y-93708137D01*
X141515208Y-93704637D01*
X141515760Y-93704570D01*
X141547002Y-93700070D01*
X141547695Y-93699951D01*
X141575039Y-93694451D01*
X141575928Y-93694238D01*
X141599374Y-93687738D01*
X141600530Y-93687357D01*
X141620077Y-93679857D01*
X141621590Y-93679160D01*
X141637239Y-93670660D01*
X141639161Y-93669377D01*
X141644136Y-93665355D01*
X142224574Y-94000000D01*
G36*
X121579272Y-62105167D02*
G01*
X121529723Y-62157550D01*
X121529068Y-62158298D01*
X121478918Y-62220404D01*
X121478303Y-62221233D01*
X121434053Y-62286188D01*
X121433495Y-62287086D01*
X121395145Y-62354891D01*
X121394658Y-62355842D01*
X121362208Y-62426496D01*
X121361804Y-62427482D01*
X121335254Y-62500985D01*
X121334939Y-62501984D01*
X121314289Y-62578337D01*
X121314064Y-62579328D01*
X121299314Y-62658531D01*
X121299172Y-62659494D01*
X121290322Y-62741546D01*
X121290257Y-62742467D01*
X121287733Y-62815110D01*
X120712267Y-62815110D01*
X120709742Y-62742467D01*
X120709677Y-62741546D01*
X120700827Y-62659494D01*
X120700685Y-62658531D01*
X120685935Y-62579328D01*
X120685710Y-62578337D01*
X120665060Y-62501984D01*
X120664745Y-62500985D01*
X120638195Y-62427482D01*
X120637791Y-62426496D01*
X120605341Y-62355842D01*
X120604854Y-62354891D01*
X120566504Y-62287086D01*
X120565946Y-62286188D01*
X120521696Y-62221233D01*
X120521081Y-62220404D01*
X120470931Y-62158298D01*
X120470276Y-62157550D01*
X120420728Y-62105167D01*
X121000000Y-61100426D01*
X121579272Y-62105167D01*
G37*
X121579272Y-62105167D02*
X121529723Y-62157550D01*
X121529068Y-62158298D01*
X121478918Y-62220404D01*
X121478303Y-62221233D01*
X121434053Y-62286188D01*
X121433495Y-62287086D01*
X121395145Y-62354891D01*
X121394658Y-62355842D01*
X121362208Y-62426496D01*
X121361804Y-62427482D01*
X121335254Y-62500985D01*
X121334939Y-62501984D01*
X121314289Y-62578337D01*
X121314064Y-62579328D01*
X121299314Y-62658531D01*
X121299172Y-62659494D01*
X121290322Y-62741546D01*
X121290257Y-62742467D01*
X121287733Y-62815110D01*
X120712267Y-62815110D01*
X120709742Y-62742467D01*
X120709677Y-62741546D01*
X120700827Y-62659494D01*
X120700685Y-62658531D01*
X120685935Y-62579328D01*
X120685710Y-62578337D01*
X120665060Y-62501984D01*
X120664745Y-62500985D01*
X120638195Y-62427482D01*
X120637791Y-62426496D01*
X120605341Y-62355842D01*
X120604854Y-62354891D01*
X120566504Y-62287086D01*
X120565946Y-62286188D01*
X120521696Y-62221233D01*
X120521081Y-62220404D01*
X120470931Y-62158298D01*
X120470276Y-62157550D01*
X120420728Y-62105167D01*
X121000000Y-61100426D01*
X121579272Y-62105167D01*
G36*
X112620650Y-58432821D02*
G01*
X112622413Y-58434049D01*
X112650389Y-58450199D01*
X112651855Y-58450924D01*
X112686066Y-58465174D01*
X112687240Y-58465596D01*
X112727685Y-58477946D01*
X112728620Y-58478193D01*
X112775301Y-58488643D01*
X112776049Y-58488787D01*
X112828964Y-58497337D01*
X112829571Y-58497420D01*
X112888721Y-58504070D01*
X112889220Y-58504117D01*
X112954605Y-58508867D01*
X112955020Y-58508890D01*
X113026640Y-58511740D01*
X113026990Y-58511749D01*
X113092300Y-58512546D01*
X113092300Y-59487454D01*
X113026990Y-59488250D01*
X113026640Y-59488259D01*
X112955020Y-59491109D01*
X112954605Y-59491132D01*
X112889220Y-59495882D01*
X112888721Y-59495929D01*
X112829571Y-59502579D01*
X112828964Y-59502662D01*
X112776049Y-59511212D01*
X112775301Y-59511356D01*
X112728620Y-59521806D01*
X112727685Y-59522053D01*
X112687240Y-59534403D01*
X112686066Y-59534825D01*
X112651855Y-59549075D01*
X112650389Y-59549800D01*
X112622413Y-59565950D01*
X112620649Y-59567178D01*
X112605707Y-59579584D01*
X111600426Y-59000000D01*
X112605708Y-58420416D01*
X112620650Y-58432821D01*
G37*
X112620650Y-58432821D02*
X112622413Y-58434049D01*
X112650389Y-58450199D01*
X112651855Y-58450924D01*
X112686066Y-58465174D01*
X112687240Y-58465596D01*
X112727685Y-58477946D01*
X112728620Y-58478193D01*
X112775301Y-58488643D01*
X112776049Y-58488787D01*
X112828964Y-58497337D01*
X112829571Y-58497420D01*
X112888721Y-58504070D01*
X112889220Y-58504117D01*
X112954605Y-58508867D01*
X112955020Y-58508890D01*
X113026640Y-58511740D01*
X113026990Y-58511749D01*
X113092300Y-58512546D01*
X113092300Y-59487454D01*
X113026990Y-59488250D01*
X113026640Y-59488259D01*
X112955020Y-59491109D01*
X112954605Y-59491132D01*
X112889220Y-59495882D01*
X112888721Y-59495929D01*
X112829571Y-59502579D01*
X112828964Y-59502662D01*
X112776049Y-59511212D01*
X112775301Y-59511356D01*
X112728620Y-59521806D01*
X112727685Y-59522053D01*
X112687240Y-59534403D01*
X112686066Y-59534825D01*
X112651855Y-59549075D01*
X112650389Y-59549800D01*
X112622413Y-59565950D01*
X112620649Y-59567178D01*
X112605707Y-59579584D01*
X111600426Y-59000000D01*
X112605708Y-58420416D01*
X112620650Y-58432821D01*
G36*
X148399574Y-59000000D02*
G01*
X147394292Y-59579584D01*
X147379349Y-59567178D01*
X147377586Y-59565950D01*
X147349610Y-59549800D01*
X147348144Y-59549075D01*
X147313933Y-59534825D01*
X147312759Y-59534403D01*
X147272314Y-59522053D01*
X147271379Y-59521806D01*
X147224698Y-59511356D01*
X147223950Y-59511212D01*
X147171035Y-59502662D01*
X147170428Y-59502579D01*
X147111278Y-59495929D01*
X147110779Y-59495882D01*
X147045394Y-59491132D01*
X147044979Y-59491109D01*
X146973359Y-59488259D01*
X146973009Y-59488250D01*
X146907700Y-59487454D01*
X146907700Y-58512546D01*
X146973009Y-58511749D01*
X146973359Y-58511740D01*
X147044979Y-58508890D01*
X147045394Y-58508867D01*
X147110779Y-58504117D01*
X147111278Y-58504070D01*
X147170428Y-58497420D01*
X147171035Y-58497337D01*
X147223950Y-58488787D01*
X147224698Y-58488643D01*
X147271379Y-58478193D01*
X147272314Y-58477946D01*
X147312759Y-58465596D01*
X147313933Y-58465174D01*
X147348144Y-58450924D01*
X147349610Y-58450199D01*
X147377586Y-58434049D01*
X147379349Y-58432821D01*
X147394292Y-58420416D01*
X148399574Y-59000000D01*
G37*
X148399574Y-59000000D02*
X147394292Y-59579584D01*
X147379349Y-59567178D01*
X147377586Y-59565950D01*
X147349610Y-59549800D01*
X147348144Y-59549075D01*
X147313933Y-59534825D01*
X147312759Y-59534403D01*
X147272314Y-59522053D01*
X147271379Y-59521806D01*
X147224698Y-59511356D01*
X147223950Y-59511212D01*
X147171035Y-59502662D01*
X147170428Y-59502579D01*
X147111278Y-59495929D01*
X147110779Y-59495882D01*
X147045394Y-59491132D01*
X147044979Y-59491109D01*
X146973359Y-59488259D01*
X146973009Y-59488250D01*
X146907700Y-59487454D01*
X146907700Y-58512546D01*
X146973009Y-58511749D01*
X146973359Y-58511740D01*
X147044979Y-58508890D01*
X147045394Y-58508867D01*
X147110779Y-58504117D01*
X147111278Y-58504070D01*
X147170428Y-58497420D01*
X147171035Y-58497337D01*
X147223950Y-58488787D01*
X147224698Y-58488643D01*
X147271379Y-58478193D01*
X147272314Y-58477946D01*
X147312759Y-58465596D01*
X147313933Y-58465174D01*
X147348144Y-58450924D01*
X147349610Y-58450199D01*
X147377586Y-58434049D01*
X147379349Y-58432821D01*
X147394292Y-58420416D01*
X148399574Y-59000000D01*
G36*
X148637703Y-58451300D02*
G01*
X148638502Y-58451991D01*
X148680201Y-58485141D01*
X148681075Y-58485777D01*
X148725088Y-58515027D01*
X148726021Y-58515591D01*
X148772347Y-58540941D01*
X148773319Y-58541420D01*
X148821960Y-58562870D01*
X148822948Y-58563258D01*
X148873903Y-58580808D01*
X148874887Y-58581103D01*
X148928156Y-58594753D01*
X148929114Y-58594959D01*
X148984697Y-58604709D01*
X148985614Y-58604836D01*
X149043511Y-58610686D01*
X149044377Y-58610743D01*
X149092300Y-58612295D01*
X149092300Y-59387705D01*
X149044377Y-59389257D01*
X149043511Y-59389314D01*
X148985614Y-59395164D01*
X148984697Y-59395291D01*
X148929114Y-59405041D01*
X148928156Y-59405247D01*
X148874887Y-59418897D01*
X148873903Y-59419192D01*
X148822948Y-59436742D01*
X148821960Y-59437130D01*
X148773319Y-59458580D01*
X148772347Y-59459059D01*
X148726021Y-59484409D01*
X148725088Y-59484973D01*
X148681075Y-59514223D01*
X148680201Y-59514859D01*
X148638502Y-59548009D01*
X148637703Y-59548700D01*
X148605191Y-59579286D01*
X147600426Y-59000000D01*
X148605191Y-58420714D01*
X148637703Y-58451300D01*
G37*
X148637703Y-58451300D02*
X148638502Y-58451991D01*
X148680201Y-58485141D01*
X148681075Y-58485777D01*
X148725088Y-58515027D01*
X148726021Y-58515591D01*
X148772347Y-58540941D01*
X148773319Y-58541420D01*
X148821960Y-58562870D01*
X148822948Y-58563258D01*
X148873903Y-58580808D01*
X148874887Y-58581103D01*
X148928156Y-58594753D01*
X148929114Y-58594959D01*
X148984697Y-58604709D01*
X148985614Y-58604836D01*
X149043511Y-58610686D01*
X149044377Y-58610743D01*
X149092300Y-58612295D01*
X149092300Y-59387705D01*
X149044377Y-59389257D01*
X149043511Y-59389314D01*
X148985614Y-59395164D01*
X148984697Y-59395291D01*
X148929114Y-59405041D01*
X148928156Y-59405247D01*
X148874887Y-59418897D01*
X148873903Y-59419192D01*
X148822948Y-59436742D01*
X148821960Y-59437130D01*
X148773319Y-59458580D01*
X148772347Y-59459059D01*
X148726021Y-59484409D01*
X148725088Y-59484973D01*
X148681075Y-59514223D01*
X148680201Y-59514859D01*
X148638502Y-59548009D01*
X148637703Y-59548700D01*
X148605191Y-59579286D01*
X147600426Y-59000000D01*
X148605191Y-58420714D01*
X148637703Y-58451300D01*
G36*
X141053570Y-99258199D02*
G01*
X141054768Y-99259152D01*
X141085103Y-99280402D01*
X141086288Y-99281138D01*
X141120510Y-99299888D01*
X141121631Y-99300432D01*
X141159740Y-99316682D01*
X141160769Y-99317070D01*
X141202765Y-99330820D01*
X141203693Y-99331085D01*
X141249576Y-99342335D01*
X141250401Y-99342508D01*
X141300170Y-99351258D01*
X141300900Y-99351365D01*
X141354557Y-99357615D01*
X141355200Y-99357673D01*
X141412743Y-99361423D01*
X141413311Y-99361447D01*
X141462300Y-99362444D01*
X141462300Y-100137556D01*
X141413311Y-100138552D01*
X141412743Y-100138576D01*
X141355200Y-100142326D01*
X141354557Y-100142384D01*
X141300900Y-100148634D01*
X141300170Y-100148741D01*
X141250401Y-100157491D01*
X141249576Y-100157664D01*
X141203693Y-100168914D01*
X141202765Y-100169179D01*
X141160769Y-100182929D01*
X141159740Y-100183317D01*
X141121631Y-100199567D01*
X141120510Y-100200111D01*
X141086288Y-100218861D01*
X141085103Y-100219597D01*
X141054768Y-100240847D01*
X141053569Y-100241800D01*
X141033972Y-100259398D01*
X140150426Y-99750000D01*
X141033973Y-99240601D01*
X141053570Y-99258199D01*
G37*
X141053570Y-99258199D02*
X141054768Y-99259152D01*
X141085103Y-99280402D01*
X141086288Y-99281138D01*
X141120510Y-99299888D01*
X141121631Y-99300432D01*
X141159740Y-99316682D01*
X141160769Y-99317070D01*
X141202765Y-99330820D01*
X141203693Y-99331085D01*
X141249576Y-99342335D01*
X141250401Y-99342508D01*
X141300170Y-99351258D01*
X141300900Y-99351365D01*
X141354557Y-99357615D01*
X141355200Y-99357673D01*
X141412743Y-99361423D01*
X141413311Y-99361447D01*
X141462300Y-99362444D01*
X141462300Y-100137556D01*
X141413311Y-100138552D01*
X141412743Y-100138576D01*
X141355200Y-100142326D01*
X141354557Y-100142384D01*
X141300900Y-100148634D01*
X141300170Y-100148741D01*
X141250401Y-100157491D01*
X141249576Y-100157664D01*
X141203693Y-100168914D01*
X141202765Y-100169179D01*
X141160769Y-100182929D01*
X141159740Y-100183317D01*
X141121631Y-100199567D01*
X141120510Y-100200111D01*
X141086288Y-100218861D01*
X141085103Y-100219597D01*
X141054768Y-100240847D01*
X141053569Y-100241800D01*
X141033972Y-100259398D01*
X140150426Y-99750000D01*
X141033973Y-99240601D01*
X141053570Y-99258199D01*
G36*
X112141802Y-100774564D02*
G01*
X112142141Y-100776532D01*
X112155491Y-100829022D01*
X112155980Y-100830540D01*
X112178230Y-100887118D01*
X112178751Y-100888271D01*
X112209901Y-100948937D01*
X112210398Y-100949816D01*
X112250448Y-101014570D01*
X112250899Y-101015250D01*
X112299849Y-101084092D01*
X112300249Y-101084624D01*
X112358099Y-101157554D01*
X112358452Y-101157980D01*
X112425202Y-101234998D01*
X112425512Y-101235343D01*
X112501162Y-101316448D01*
X112501435Y-101316731D01*
X112579153Y-101395040D01*
X112000000Y-102399574D01*
X111420847Y-101395040D01*
X111498564Y-101316731D01*
X111498837Y-101316448D01*
X111574487Y-101235343D01*
X111574797Y-101234998D01*
X111641547Y-101157980D01*
X111641900Y-101157554D01*
X111699750Y-101084624D01*
X111700150Y-101084092D01*
X111749100Y-101015250D01*
X111749551Y-101014570D01*
X111789601Y-100949816D01*
X111790098Y-100948937D01*
X111821248Y-100888271D01*
X111821769Y-100887118D01*
X111844019Y-100830540D01*
X111844508Y-100829022D01*
X111857858Y-100776532D01*
X111858197Y-100774565D01*
X111861586Y-100737700D01*
X112138414Y-100737700D01*
X112141802Y-100774564D01*
G37*
X112141802Y-100774564D02*
X112142141Y-100776532D01*
X112155491Y-100829022D01*
X112155980Y-100830540D01*
X112178230Y-100887118D01*
X112178751Y-100888271D01*
X112209901Y-100948937D01*
X112210398Y-100949816D01*
X112250448Y-101014570D01*
X112250899Y-101015250D01*
X112299849Y-101084092D01*
X112300249Y-101084624D01*
X112358099Y-101157554D01*
X112358452Y-101157980D01*
X112425202Y-101234998D01*
X112425512Y-101235343D01*
X112501162Y-101316448D01*
X112501435Y-101316731D01*
X112579153Y-101395040D01*
X112000000Y-102399574D01*
X111420847Y-101395040D01*
X111498564Y-101316731D01*
X111498837Y-101316448D01*
X111574487Y-101235343D01*
X111574797Y-101234998D01*
X111641547Y-101157980D01*
X111641900Y-101157554D01*
X111699750Y-101084624D01*
X111700150Y-101084092D01*
X111749100Y-101015250D01*
X111749551Y-101014570D01*
X111789601Y-100949816D01*
X111790098Y-100948937D01*
X111821248Y-100888271D01*
X111821769Y-100887118D01*
X111844019Y-100830540D01*
X111844508Y-100829022D01*
X111857858Y-100776532D01*
X111858197Y-100774565D01*
X111861586Y-100737700D01*
X112138414Y-100737700D01*
X112141802Y-100774564D01*
G36*
X109723962Y-83470134D02*
G01*
X109724063Y-83470234D01*
X109806650Y-83551834D01*
X109806776Y-83551957D01*
X109881689Y-83623957D01*
X109881850Y-83624109D01*
X109949089Y-83686509D01*
X109949304Y-83686704D01*
X110008869Y-83739504D01*
X110009167Y-83739760D01*
X110061057Y-83782960D01*
X110061499Y-83783312D01*
X110105714Y-83816912D01*
X110106426Y-83817415D01*
X110142968Y-83841415D01*
X110144271Y-83842164D01*
X110173138Y-83856564D01*
X110176002Y-83857586D01*
X110187300Y-83860145D01*
X110187300Y-84139855D01*
X110176002Y-84142414D01*
X110173138Y-84143436D01*
X110144271Y-84157836D01*
X110142968Y-84158585D01*
X110106426Y-84182585D01*
X110105714Y-84183088D01*
X110061499Y-84216688D01*
X110061057Y-84217040D01*
X110009167Y-84260240D01*
X110008869Y-84260496D01*
X109949304Y-84313296D01*
X109949089Y-84313491D01*
X109881850Y-84375891D01*
X109881689Y-84376043D01*
X109806776Y-84448043D01*
X109806650Y-84448166D01*
X109724063Y-84529766D01*
X109723962Y-84529866D01*
X109640588Y-84614107D01*
X108575426Y-84000000D01*
X109640588Y-83385893D01*
X109723962Y-83470134D01*
G37*
X109723962Y-83470134D02*
X109724063Y-83470234D01*
X109806650Y-83551834D01*
X109806776Y-83551957D01*
X109881689Y-83623957D01*
X109881850Y-83624109D01*
X109949089Y-83686509D01*
X109949304Y-83686704D01*
X110008869Y-83739504D01*
X110009167Y-83739760D01*
X110061057Y-83782960D01*
X110061499Y-83783312D01*
X110105714Y-83816912D01*
X110106426Y-83817415D01*
X110142968Y-83841415D01*
X110144271Y-83842164D01*
X110173138Y-83856564D01*
X110176002Y-83857586D01*
X110187300Y-83860145D01*
X110187300Y-84139855D01*
X110176002Y-84142414D01*
X110173138Y-84143436D01*
X110144271Y-84157836D01*
X110142968Y-84158585D01*
X110106426Y-84182585D01*
X110105714Y-84183088D01*
X110061499Y-84216688D01*
X110061057Y-84217040D01*
X110009167Y-84260240D01*
X110008869Y-84260496D01*
X109949304Y-84313296D01*
X109949089Y-84313491D01*
X109881850Y-84375891D01*
X109881689Y-84376043D01*
X109806776Y-84448043D01*
X109806650Y-84448166D01*
X109724063Y-84529766D01*
X109723962Y-84529866D01*
X109640588Y-84614107D01*
X108575426Y-84000000D01*
X109640588Y-83385893D01*
X109723962Y-83470134D01*
G36*
X140349574Y-105000000D02*
G01*
X139464188Y-105510459D01*
X139461618Y-105509073D01*
X139458736Y-105507946D01*
X139442123Y-105503696D01*
X139440903Y-105503447D01*
X139416483Y-105499697D01*
X139415829Y-105499614D01*
X139383601Y-105496364D01*
X139383197Y-105496330D01*
X139343162Y-105493580D01*
X139342889Y-105493564D01*
X139295046Y-105491314D01*
X139294848Y-105491306D01*
X139239197Y-105489556D01*
X139239048Y-105489552D01*
X139175589Y-105488302D01*
X139175473Y-105488301D01*
X139104207Y-105487551D01*
X139104113Y-105487550D01*
X139037700Y-105487340D01*
X139037700Y-104512660D01*
X139104113Y-104512450D01*
X139104207Y-104512449D01*
X139175473Y-104511699D01*
X139175589Y-104511698D01*
X139239048Y-104510448D01*
X139239197Y-104510444D01*
X139294848Y-104508694D01*
X139295046Y-104508686D01*
X139342889Y-104506436D01*
X139343162Y-104506420D01*
X139383197Y-104503670D01*
X139383601Y-104503636D01*
X139415829Y-104500386D01*
X139416483Y-104500303D01*
X139440903Y-104496553D01*
X139442123Y-104496304D01*
X139458736Y-104492054D01*
X139461618Y-104490927D01*
X139464188Y-104489541D01*
X140349574Y-105000000D01*
G37*
X140349574Y-105000000D02*
X139464188Y-105510459D01*
X139461618Y-105509073D01*
X139458736Y-105507946D01*
X139442123Y-105503696D01*
X139440903Y-105503447D01*
X139416483Y-105499697D01*
X139415829Y-105499614D01*
X139383601Y-105496364D01*
X139383197Y-105496330D01*
X139343162Y-105493580D01*
X139342889Y-105493564D01*
X139295046Y-105491314D01*
X139294848Y-105491306D01*
X139239197Y-105489556D01*
X139239048Y-105489552D01*
X139175589Y-105488302D01*
X139175473Y-105488301D01*
X139104207Y-105487551D01*
X139104113Y-105487550D01*
X139037700Y-105487340D01*
X139037700Y-104512660D01*
X139104113Y-104512450D01*
X139104207Y-104512449D01*
X139175473Y-104511699D01*
X139175589Y-104511698D01*
X139239048Y-104510448D01*
X139239197Y-104510444D01*
X139294848Y-104508694D01*
X139295046Y-104508686D01*
X139342889Y-104506436D01*
X139343162Y-104506420D01*
X139383197Y-104503670D01*
X139383601Y-104503636D01*
X139415829Y-104500386D01*
X139416483Y-104500303D01*
X139440903Y-104496553D01*
X139442123Y-104496304D01*
X139458736Y-104492054D01*
X139461618Y-104490927D01*
X139464188Y-104489541D01*
X140349574Y-105000000D01*
G36*
X134287800Y-92896970D02*
G01*
X134287807Y-92897277D01*
X134289307Y-92940214D01*
X134289325Y-92940583D01*
X134291825Y-92979621D01*
X134291862Y-92980068D01*
X134295362Y-93015208D01*
X134295429Y-93015760D01*
X134299929Y-93047002D01*
X134300048Y-93047695D01*
X134305548Y-93075039D01*
X134305761Y-93075928D01*
X134312261Y-93099374D01*
X134312642Y-93100530D01*
X134320142Y-93120077D01*
X134320839Y-93121590D01*
X134329339Y-93137239D01*
X134330623Y-93139161D01*
X134334645Y-93144136D01*
X134000000Y-93724574D01*
X133665355Y-93144136D01*
X133669377Y-93139161D01*
X133670660Y-93137239D01*
X133679160Y-93121590D01*
X133679857Y-93120077D01*
X133687357Y-93100530D01*
X133687738Y-93099374D01*
X133694238Y-93075928D01*
X133694451Y-93075039D01*
X133699951Y-93047695D01*
X133700070Y-93047002D01*
X133704570Y-93015760D01*
X133704637Y-93015208D01*
X133708137Y-92980068D01*
X133708174Y-92979621D01*
X133710674Y-92940583D01*
X133710692Y-92940214D01*
X133712192Y-92897277D01*
X133712199Y-92896970D01*
X133712566Y-92862700D01*
X134287434Y-92862700D01*
X134287800Y-92896970D01*
G37*
X134287800Y-92896970D02*
X134287807Y-92897277D01*
X134289307Y-92940214D01*
X134289325Y-92940583D01*
X134291825Y-92979621D01*
X134291862Y-92980068D01*
X134295362Y-93015208D01*
X134295429Y-93015760D01*
X134299929Y-93047002D01*
X134300048Y-93047695D01*
X134305548Y-93075039D01*
X134305761Y-93075928D01*
X134312261Y-93099374D01*
X134312642Y-93100530D01*
X134320142Y-93120077D01*
X134320839Y-93121590D01*
X134329339Y-93137239D01*
X134330623Y-93139161D01*
X134334645Y-93144136D01*
X134000000Y-93724574D01*
X133665355Y-93144136D01*
X133669377Y-93139161D01*
X133670660Y-93137239D01*
X133679160Y-93121590D01*
X133679857Y-93120077D01*
X133687357Y-93100530D01*
X133687738Y-93099374D01*
X133694238Y-93075928D01*
X133694451Y-93075039D01*
X133699951Y-93047695D01*
X133700070Y-93047002D01*
X133704570Y-93015760D01*
X133704637Y-93015208D01*
X133708137Y-92980068D01*
X133708174Y-92979621D01*
X133710674Y-92940583D01*
X133710692Y-92940214D01*
X133712192Y-92897277D01*
X133712199Y-92896970D01*
X133712566Y-92862700D01*
X134287434Y-92862700D01*
X134287800Y-92896970D01*
G36*
X112579272Y-62105167D02*
G01*
X112529723Y-62157550D01*
X112529068Y-62158298D01*
X112478918Y-62220404D01*
X112478303Y-62221233D01*
X112434053Y-62286188D01*
X112433495Y-62287086D01*
X112395145Y-62354891D01*
X112394658Y-62355842D01*
X112362208Y-62426496D01*
X112361804Y-62427482D01*
X112335254Y-62500985D01*
X112334939Y-62501984D01*
X112314289Y-62578337D01*
X112314064Y-62579328D01*
X112299314Y-62658531D01*
X112299172Y-62659494D01*
X112290322Y-62741546D01*
X112290257Y-62742467D01*
X112287733Y-62815110D01*
X111712267Y-62815110D01*
X111709742Y-62742467D01*
X111709677Y-62741546D01*
X111700827Y-62659494D01*
X111700685Y-62658531D01*
X111685935Y-62579328D01*
X111685710Y-62578337D01*
X111665060Y-62501984D01*
X111664745Y-62500985D01*
X111638195Y-62427482D01*
X111637791Y-62426496D01*
X111605341Y-62355842D01*
X111604854Y-62354891D01*
X111566504Y-62287086D01*
X111565946Y-62286188D01*
X111521696Y-62221233D01*
X111521081Y-62220404D01*
X111470931Y-62158298D01*
X111470276Y-62157550D01*
X111420728Y-62105167D01*
X112000000Y-61100426D01*
X112579272Y-62105167D01*
G37*
X112579272Y-62105167D02*
X112529723Y-62157550D01*
X112529068Y-62158298D01*
X112478918Y-62220404D01*
X112478303Y-62221233D01*
X112434053Y-62286188D01*
X112433495Y-62287086D01*
X112395145Y-62354891D01*
X112394658Y-62355842D01*
X112362208Y-62426496D01*
X112361804Y-62427482D01*
X112335254Y-62500985D01*
X112334939Y-62501984D01*
X112314289Y-62578337D01*
X112314064Y-62579328D01*
X112299314Y-62658531D01*
X112299172Y-62659494D01*
X112290322Y-62741546D01*
X112290257Y-62742467D01*
X112287733Y-62815110D01*
X111712267Y-62815110D01*
X111709742Y-62742467D01*
X111709677Y-62741546D01*
X111700827Y-62659494D01*
X111700685Y-62658531D01*
X111685935Y-62579328D01*
X111685710Y-62578337D01*
X111665060Y-62501984D01*
X111664745Y-62500985D01*
X111638195Y-62427482D01*
X111637791Y-62426496D01*
X111605341Y-62355842D01*
X111604854Y-62354891D01*
X111566504Y-62287086D01*
X111565946Y-62286188D01*
X111521696Y-62221233D01*
X111521081Y-62220404D01*
X111470931Y-62158298D01*
X111470276Y-62157550D01*
X111420728Y-62105167D01*
X112000000Y-61100426D01*
X112579272Y-62105167D01*
G36*
X126482624Y-92237774D02*
G01*
X126456322Y-92239188D01*
X126454801Y-92239362D01*
X126418325Y-92245786D01*
X126416967Y-92246103D01*
X126379510Y-92257043D01*
X126378333Y-92257451D01*
X126339895Y-92272908D01*
X126338893Y-92273362D01*
X126299475Y-92293335D01*
X126298632Y-92293804D01*
X126258233Y-92318293D01*
X126257526Y-92318753D01*
X126216146Y-92347758D01*
X126215555Y-92348199D01*
X126173195Y-92381720D01*
X126172699Y-92382134D01*
X126129358Y-92420172D01*
X126128939Y-92420556D01*
X126093594Y-92454491D01*
X125545508Y-91906405D01*
X125579443Y-91871060D01*
X125579827Y-91870641D01*
X125617865Y-91827300D01*
X125618279Y-91826804D01*
X125651800Y-91784444D01*
X125652241Y-91783853D01*
X125681246Y-91742473D01*
X125681706Y-91741766D01*
X125706195Y-91701367D01*
X125706664Y-91700524D01*
X125726637Y-91661106D01*
X125727091Y-91660104D01*
X125742548Y-91621666D01*
X125742956Y-91620489D01*
X125753896Y-91583032D01*
X125754213Y-91581674D01*
X125760637Y-91545198D01*
X125760811Y-91543677D01*
X125762226Y-91517376D01*
X126747186Y-91252814D01*
X126482624Y-92237774D01*
G37*
X126482624Y-92237774D02*
X126456322Y-92239188D01*
X126454801Y-92239362D01*
X126418325Y-92245786D01*
X126416967Y-92246103D01*
X126379510Y-92257043D01*
X126378333Y-92257451D01*
X126339895Y-92272908D01*
X126338893Y-92273362D01*
X126299475Y-92293335D01*
X126298632Y-92293804D01*
X126258233Y-92318293D01*
X126257526Y-92318753D01*
X126216146Y-92347758D01*
X126215555Y-92348199D01*
X126173195Y-92381720D01*
X126172699Y-92382134D01*
X126129358Y-92420172D01*
X126128939Y-92420556D01*
X126093594Y-92454491D01*
X125545508Y-91906405D01*
X125579443Y-91871060D01*
X125579827Y-91870641D01*
X125617865Y-91827300D01*
X125618279Y-91826804D01*
X125651800Y-91784444D01*
X125652241Y-91783853D01*
X125681246Y-91742473D01*
X125681706Y-91741766D01*
X125706195Y-91701367D01*
X125706664Y-91700524D01*
X125726637Y-91661106D01*
X125727091Y-91660104D01*
X125742548Y-91621666D01*
X125742956Y-91620489D01*
X125753896Y-91583032D01*
X125754213Y-91581674D01*
X125760637Y-91545198D01*
X125760811Y-91543677D01*
X125762226Y-91517376D01*
X126747186Y-91252814D01*
X126482624Y-92237774D01*
G36*
X122888904Y-101021154D02*
G01*
X122888944Y-101021872D01*
X122893744Y-101079593D01*
X122893834Y-101080382D01*
X122901834Y-101135001D01*
X122901990Y-101135858D01*
X122913190Y-101187378D01*
X122913427Y-101188300D01*
X122927827Y-101236719D01*
X122928161Y-101237697D01*
X122945761Y-101283015D01*
X122946208Y-101284030D01*
X122967008Y-101326248D01*
X122967575Y-101327277D01*
X122991575Y-101366394D01*
X122992265Y-101367406D01*
X123019465Y-101403423D01*
X123020270Y-101404385D01*
X123044331Y-101430438D01*
X122500000Y-102374574D01*
X121955669Y-101430438D01*
X121979730Y-101404385D01*
X121980535Y-101403423D01*
X122007735Y-101367406D01*
X122008425Y-101366394D01*
X122032425Y-101327277D01*
X122032992Y-101326248D01*
X122053792Y-101284030D01*
X122054239Y-101283015D01*
X122071839Y-101237697D01*
X122072173Y-101236719D01*
X122086573Y-101188300D01*
X122086810Y-101187378D01*
X122098010Y-101135858D01*
X122098166Y-101135001D01*
X122106166Y-101080382D01*
X122106256Y-101079593D01*
X122111056Y-101021872D01*
X122111096Y-101021154D01*
X122112371Y-100972700D01*
X122887629Y-100972700D01*
X122888904Y-101021154D01*
G37*
X122888904Y-101021154D02*
X122888944Y-101021872D01*
X122893744Y-101079593D01*
X122893834Y-101080382D01*
X122901834Y-101135001D01*
X122901990Y-101135858D01*
X122913190Y-101187378D01*
X122913427Y-101188300D01*
X122927827Y-101236719D01*
X122928161Y-101237697D01*
X122945761Y-101283015D01*
X122946208Y-101284030D01*
X122967008Y-101326248D01*
X122967575Y-101327277D01*
X122991575Y-101366394D01*
X122992265Y-101367406D01*
X123019465Y-101403423D01*
X123020270Y-101404385D01*
X123044331Y-101430438D01*
X122500000Y-102374574D01*
X121955669Y-101430438D01*
X121979730Y-101404385D01*
X121980535Y-101403423D01*
X122007735Y-101367406D01*
X122008425Y-101366394D01*
X122032425Y-101327277D01*
X122032992Y-101326248D01*
X122053792Y-101284030D01*
X122054239Y-101283015D01*
X122071839Y-101237697D01*
X122072173Y-101236719D01*
X122086573Y-101188300D01*
X122086810Y-101187378D01*
X122098010Y-101135858D01*
X122098166Y-101135001D01*
X122106166Y-101080382D01*
X122106256Y-101079593D01*
X122111056Y-101021872D01*
X122111096Y-101021154D01*
X122112371Y-100972700D01*
X122887629Y-100972700D01*
X122888904Y-101021154D01*
G36*
X129621169Y-82424132D02*
G01*
X129622382Y-82425075D01*
X129649295Y-82443502D01*
X129650489Y-82444227D01*
X129680824Y-82460421D01*
X129681952Y-82460953D01*
X129715711Y-82474913D01*
X129716744Y-82475289D01*
X129753926Y-82487015D01*
X129754855Y-82487270D01*
X129795459Y-82496762D01*
X129796284Y-82496926D01*
X129840312Y-82504184D01*
X129841041Y-82504282D01*
X129888492Y-82509307D01*
X129889133Y-82509359D01*
X129940007Y-82512150D01*
X129940573Y-82512168D01*
X129985235Y-82512626D01*
X130158797Y-83158797D01*
X129512626Y-82985235D01*
X129512168Y-82940573D01*
X129512150Y-82940007D01*
X129509359Y-82889133D01*
X129509307Y-82888492D01*
X129504282Y-82841041D01*
X129504184Y-82840312D01*
X129496926Y-82796284D01*
X129496762Y-82795459D01*
X129487270Y-82754855D01*
X129487015Y-82753926D01*
X129475289Y-82716744D01*
X129474913Y-82715711D01*
X129460953Y-82681952D01*
X129460421Y-82680824D01*
X129444227Y-82650489D01*
X129443502Y-82649295D01*
X129425075Y-82622382D01*
X129424132Y-82621169D01*
X129411339Y-82606624D01*
X129606624Y-82411339D01*
X129621169Y-82424132D01*
G37*
X129621169Y-82424132D02*
X129622382Y-82425075D01*
X129649295Y-82443502D01*
X129650489Y-82444227D01*
X129680824Y-82460421D01*
X129681952Y-82460953D01*
X129715711Y-82474913D01*
X129716744Y-82475289D01*
X129753926Y-82487015D01*
X129754855Y-82487270D01*
X129795459Y-82496762D01*
X129796284Y-82496926D01*
X129840312Y-82504184D01*
X129841041Y-82504282D01*
X129888492Y-82509307D01*
X129889133Y-82509359D01*
X129940007Y-82512150D01*
X129940573Y-82512168D01*
X129985235Y-82512626D01*
X130158797Y-83158797D01*
X129512626Y-82985235D01*
X129512168Y-82940573D01*
X129512150Y-82940007D01*
X129509359Y-82889133D01*
X129509307Y-82888492D01*
X129504282Y-82841041D01*
X129504184Y-82840312D01*
X129496926Y-82796284D01*
X129496762Y-82795459D01*
X129487270Y-82754855D01*
X129487015Y-82753926D01*
X129475289Y-82716744D01*
X129474913Y-82715711D01*
X129460953Y-82681952D01*
X129460421Y-82680824D01*
X129444227Y-82650489D01*
X129443502Y-82649295D01*
X129425075Y-82622382D01*
X129424132Y-82621169D01*
X129411339Y-82606624D01*
X129606624Y-82411339D01*
X129621169Y-82424132D01*
G36*
X128834272Y-71855216D02*
G01*
X128802774Y-71888509D01*
X128802121Y-71889256D01*
X128768121Y-71931338D01*
X128767507Y-71932165D01*
X128737507Y-71976164D01*
X128736949Y-71977060D01*
X128710949Y-72022975D01*
X128710462Y-72023926D01*
X128688462Y-72071758D01*
X128688058Y-72072744D01*
X128670058Y-72122492D01*
X128669742Y-72123491D01*
X128655742Y-72175155D01*
X128655516Y-72176147D01*
X128645516Y-72229728D01*
X128645374Y-72230693D01*
X128639374Y-72286191D01*
X128639308Y-72287114D01*
X128637735Y-72332270D01*
X128362265Y-72332270D01*
X128360692Y-72287114D01*
X128360626Y-72286191D01*
X128354626Y-72230693D01*
X128354484Y-72229728D01*
X128344484Y-72176147D01*
X128344258Y-72175155D01*
X128330258Y-72123491D01*
X128329942Y-72122492D01*
X128311942Y-72072744D01*
X128311538Y-72071758D01*
X128289538Y-72023926D01*
X128289051Y-72022975D01*
X128263051Y-71977060D01*
X128262493Y-71976164D01*
X128232493Y-71932165D01*
X128231879Y-71931338D01*
X128197879Y-71889256D01*
X128197226Y-71888509D01*
X128165728Y-71855216D01*
X128500000Y-71275426D01*
X128834272Y-71855216D01*
G37*
X128834272Y-71855216D02*
X128802774Y-71888509D01*
X128802121Y-71889256D01*
X128768121Y-71931338D01*
X128767507Y-71932165D01*
X128737507Y-71976164D01*
X128736949Y-71977060D01*
X128710949Y-72022975D01*
X128710462Y-72023926D01*
X128688462Y-72071758D01*
X128688058Y-72072744D01*
X128670058Y-72122492D01*
X128669742Y-72123491D01*
X128655742Y-72175155D01*
X128655516Y-72176147D01*
X128645516Y-72229728D01*
X128645374Y-72230693D01*
X128639374Y-72286191D01*
X128639308Y-72287114D01*
X128637735Y-72332270D01*
X128362265Y-72332270D01*
X128360692Y-72287114D01*
X128360626Y-72286191D01*
X128354626Y-72230693D01*
X128354484Y-72229728D01*
X128344484Y-72176147D01*
X128344258Y-72175155D01*
X128330258Y-72123491D01*
X128329942Y-72122492D01*
X128311942Y-72072744D01*
X128311538Y-72071758D01*
X128289538Y-72023926D01*
X128289051Y-72022975D01*
X128263051Y-71977060D01*
X128262493Y-71976164D01*
X128232493Y-71932165D01*
X128231879Y-71931338D01*
X128197879Y-71889256D01*
X128197226Y-71888509D01*
X128165728Y-71855216D01*
X128500000Y-71275426D01*
X128834272Y-71855216D01*
G36*
X137888904Y-101021154D02*
G01*
X137888944Y-101021872D01*
X137893744Y-101079593D01*
X137893834Y-101080382D01*
X137901834Y-101135001D01*
X137901990Y-101135858D01*
X137913190Y-101187378D01*
X137913427Y-101188300D01*
X137927827Y-101236719D01*
X137928161Y-101237697D01*
X137945761Y-101283015D01*
X137946208Y-101284030D01*
X137967008Y-101326248D01*
X137967575Y-101327277D01*
X137991575Y-101366394D01*
X137992265Y-101367406D01*
X138019465Y-101403423D01*
X138020270Y-101404385D01*
X138044331Y-101430438D01*
X137500000Y-102374574D01*
X136955669Y-101430438D01*
X136979730Y-101404385D01*
X136980535Y-101403423D01*
X137007735Y-101367406D01*
X137008425Y-101366394D01*
X137032425Y-101327277D01*
X137032992Y-101326248D01*
X137053792Y-101284030D01*
X137054239Y-101283015D01*
X137071839Y-101237697D01*
X137072173Y-101236719D01*
X137086573Y-101188300D01*
X137086810Y-101187378D01*
X137098010Y-101135858D01*
X137098166Y-101135001D01*
X137106166Y-101080382D01*
X137106256Y-101079593D01*
X137111056Y-101021872D01*
X137111096Y-101021154D01*
X137112371Y-100972700D01*
X137887629Y-100972700D01*
X137888904Y-101021154D01*
G37*
X137888904Y-101021154D02*
X137888944Y-101021872D01*
X137893744Y-101079593D01*
X137893834Y-101080382D01*
X137901834Y-101135001D01*
X137901990Y-101135858D01*
X137913190Y-101187378D01*
X137913427Y-101188300D01*
X137927827Y-101236719D01*
X137928161Y-101237697D01*
X137945761Y-101283015D01*
X137946208Y-101284030D01*
X137967008Y-101326248D01*
X137967575Y-101327277D01*
X137991575Y-101366394D01*
X137992265Y-101367406D01*
X138019465Y-101403423D01*
X138020270Y-101404385D01*
X138044331Y-101430438D01*
X137500000Y-102374574D01*
X136955669Y-101430438D01*
X136979730Y-101404385D01*
X136980535Y-101403423D01*
X137007735Y-101367406D01*
X137008425Y-101366394D01*
X137032425Y-101327277D01*
X137032992Y-101326248D01*
X137053792Y-101284030D01*
X137054239Y-101283015D01*
X137071839Y-101237697D01*
X137072173Y-101236719D01*
X137086573Y-101188300D01*
X137086810Y-101187378D01*
X137098010Y-101135858D01*
X137098166Y-101135001D01*
X137106166Y-101080382D01*
X137106256Y-101079593D01*
X137111056Y-101021872D01*
X137111096Y-101021154D01*
X137112371Y-100972700D01*
X137887629Y-100972700D01*
X137888904Y-101021154D01*
G36*
X129737724Y-91517363D02*
G01*
X129739185Y-91547608D01*
X129739280Y-91548663D01*
X129745704Y-91597139D01*
X129745818Y-91597846D01*
X129756758Y-91655303D01*
X129756864Y-91655806D01*
X129772321Y-91722244D01*
X129772414Y-91722617D01*
X129792387Y-91798035D01*
X129792467Y-91798323D01*
X129816956Y-91882722D01*
X129817025Y-91882950D01*
X129846030Y-91976330D01*
X129846089Y-91976515D01*
X129879610Y-92078875D01*
X129879661Y-92079029D01*
X129917699Y-92190370D01*
X129917744Y-92190499D01*
X129957627Y-92303270D01*
X129411568Y-92849329D01*
X129374160Y-92749270D01*
X129374020Y-92748912D01*
X129330679Y-92642874D01*
X129330492Y-92642439D01*
X129288132Y-92548918D01*
X129287873Y-92548381D01*
X129246493Y-92467376D01*
X129246122Y-92466701D01*
X129205723Y-92398212D01*
X129205168Y-92397352D01*
X129165750Y-92341379D01*
X129164879Y-92340277D01*
X129126441Y-92296820D01*
X129125016Y-92295442D01*
X129087559Y-92264502D01*
X129085197Y-92262958D01*
X129048721Y-92244534D01*
X129046399Y-92243635D01*
X129045080Y-92243342D01*
X129017645Y-92238776D01*
X128752814Y-91252814D01*
X129737724Y-91517363D01*
G37*
X129737724Y-91517363D02*
X129739185Y-91547608D01*
X129739280Y-91548663D01*
X129745704Y-91597139D01*
X129745818Y-91597846D01*
X129756758Y-91655303D01*
X129756864Y-91655806D01*
X129772321Y-91722244D01*
X129772414Y-91722617D01*
X129792387Y-91798035D01*
X129792467Y-91798323D01*
X129816956Y-91882722D01*
X129817025Y-91882950D01*
X129846030Y-91976330D01*
X129846089Y-91976515D01*
X129879610Y-92078875D01*
X129879661Y-92079029D01*
X129917699Y-92190370D01*
X129917744Y-92190499D01*
X129957627Y-92303270D01*
X129411568Y-92849329D01*
X129374160Y-92749270D01*
X129374020Y-92748912D01*
X129330679Y-92642874D01*
X129330492Y-92642439D01*
X129288132Y-92548918D01*
X129287873Y-92548381D01*
X129246493Y-92467376D01*
X129246122Y-92466701D01*
X129205723Y-92398212D01*
X129205168Y-92397352D01*
X129165750Y-92341379D01*
X129164879Y-92340277D01*
X129126441Y-92296820D01*
X129125016Y-92295442D01*
X129087559Y-92264502D01*
X129085197Y-92262958D01*
X129048721Y-92244534D01*
X129046399Y-92243635D01*
X129045080Y-92243342D01*
X129017645Y-92238776D01*
X128752814Y-91252814D01*
X129737724Y-91517363D01*
G36*
X140200923Y-86198828D02*
G01*
X140200941Y-86198842D01*
X140681641Y-86592420D01*
X140681665Y-86592439D01*
X141105828Y-86938067D01*
X141105858Y-86938092D01*
X141473485Y-87235770D01*
X141473527Y-87235804D01*
X141784618Y-87485530D01*
X141784679Y-87485579D01*
X142039233Y-87687355D01*
X142039331Y-87687431D01*
X142237348Y-87841257D01*
X142237530Y-87841396D01*
X142379012Y-87947270D01*
X142379466Y-87947595D01*
X142408226Y-87967207D01*
X141826518Y-87810959D01*
X141824062Y-87810552D01*
X141821574Y-87810632D01*
X141819149Y-87811196D01*
X141816881Y-87812222D01*
X141814856Y-87813671D01*
X141813153Y-87815487D01*
X141811837Y-87817600D01*
X141810959Y-87819930D01*
X141810552Y-87822386D01*
X141810632Y-87824874D01*
X141810959Y-87826518D01*
X141977646Y-88447094D01*
X141925893Y-88397455D01*
X141925545Y-88397134D01*
X141794671Y-88280652D01*
X141794527Y-88280526D01*
X141605701Y-88117509D01*
X141605622Y-88117441D01*
X141358846Y-87907887D01*
X141358797Y-87907845D01*
X141054071Y-87651754D01*
X141054037Y-87651726D01*
X140691359Y-87349099D01*
X140691334Y-87349078D01*
X140270706Y-86999915D01*
X140270687Y-86999899D01*
X139792109Y-86604199D01*
X139792094Y-86604187D01*
X139266354Y-86170844D01*
X139672586Y-85764612D01*
X140200923Y-86198828D01*
G37*
X140200923Y-86198828D02*
X140200941Y-86198842D01*
X140681641Y-86592420D01*
X140681665Y-86592439D01*
X141105828Y-86938067D01*
X141105858Y-86938092D01*
X141473485Y-87235770D01*
X141473527Y-87235804D01*
X141784618Y-87485530D01*
X141784679Y-87485579D01*
X142039233Y-87687355D01*
X142039331Y-87687431D01*
X142237348Y-87841257D01*
X142237530Y-87841396D01*
X142379012Y-87947270D01*
X142379466Y-87947595D01*
X142408226Y-87967207D01*
X141826518Y-87810959D01*
X141824062Y-87810552D01*
X141821574Y-87810632D01*
X141819149Y-87811196D01*
X141816881Y-87812222D01*
X141814856Y-87813671D01*
X141813153Y-87815487D01*
X141811837Y-87817600D01*
X141810959Y-87819930D01*
X141810552Y-87822386D01*
X141810632Y-87824874D01*
X141810959Y-87826518D01*
X141977646Y-88447094D01*
X141925893Y-88397455D01*
X141925545Y-88397134D01*
X141794671Y-88280652D01*
X141794527Y-88280526D01*
X141605701Y-88117509D01*
X141605622Y-88117441D01*
X141358846Y-87907887D01*
X141358797Y-87907845D01*
X141054071Y-87651754D01*
X141054037Y-87651726D01*
X140691359Y-87349099D01*
X140691334Y-87349078D01*
X140270706Y-86999915D01*
X140270687Y-86999899D01*
X139792109Y-86604199D01*
X139792094Y-86604187D01*
X139266354Y-86170844D01*
X139672586Y-85764612D01*
X140200923Y-86198828D01*
M02*
