G04 #@! TF.GenerationSoftware,KiCad,Pcbnew,(5.1.5)-3*
G04 #@! TF.CreationDate,2020-04-04T13:58:42+08:00*
G04 #@! TF.ProjectId,1194pre,31313934-7072-4652-9e6b-696361645f70,rev?*
G04 #@! TF.SameCoordinates,Original*
G04 #@! TF.FileFunction,Legend,Top*
G04 #@! TF.FilePolarity,Positive*
%FSLAX46Y46*%
G04 Gerber Fmt 4.6, Leading zero omitted, Abs format (unit mm)*
G04 Created by KiCad (PCBNEW (5.1.5)-3) date 2020-04-04 13:58:42*
%MOMM*%
%LPD*%
G04 APERTURE LIST*
%ADD10C,0.200000*%
%ADD11C,0.150000*%
%ADD12C,0.120000*%
%ADD13C,6.502000*%
%ADD14C,0.902000*%
%ADD15R,0.502000X1.302000*%
%ADD16O,2.052000X1.802000*%
%ADD17C,0.100000*%
%ADD18O,1.802000X1.802000*%
%ADD19R,1.802000X1.802000*%
%ADD20C,1.702000*%
%ADD21R,1.702000X1.702000*%
%ADD22O,1.802000X2.052000*%
%ADD23C,1.902000*%
%ADD24R,1.902000X1.902000*%
G04 APERTURE END LIST*
D10*
X101977142Y-73228571D02*
X101262857Y-73228571D01*
X101262857Y-71728571D01*
X102405714Y-72800000D02*
X103120000Y-72800000D01*
X102262857Y-73228571D02*
X102762857Y-71728571D01*
X103262857Y-73228571D01*
X103548571Y-71728571D02*
X104405714Y-71728571D01*
X103977142Y-73228571D02*
X103977142Y-71728571D01*
X105762857Y-73085714D02*
X105691428Y-73157142D01*
X105477142Y-73228571D01*
X105334285Y-73228571D01*
X105120000Y-73157142D01*
X104977142Y-73014285D01*
X104905714Y-72871428D01*
X104834285Y-72585714D01*
X104834285Y-72371428D01*
X104905714Y-72085714D01*
X104977142Y-71942857D01*
X105120000Y-71800000D01*
X105334285Y-71728571D01*
X105477142Y-71728571D01*
X105691428Y-71800000D01*
X105762857Y-71871428D01*
X106405714Y-73228571D02*
X106405714Y-71728571D01*
X106405714Y-72442857D02*
X107262857Y-72442857D01*
X107262857Y-73228571D02*
X107262857Y-71728571D01*
X104620000Y-75535714D02*
X104548571Y-75607142D01*
X104334285Y-75678571D01*
X104191428Y-75678571D01*
X103977142Y-75607142D01*
X103834285Y-75464285D01*
X103762857Y-75321428D01*
X103691428Y-75035714D01*
X103691428Y-74821428D01*
X103762857Y-74535714D01*
X103834285Y-74392857D01*
X103977142Y-74250000D01*
X104191428Y-74178571D01*
X104334285Y-74178571D01*
X104548571Y-74250000D01*
X104620000Y-74321428D01*
X105977142Y-75678571D02*
X105262857Y-75678571D01*
X105262857Y-74178571D01*
X106477142Y-75678571D02*
X106477142Y-74178571D01*
X107334285Y-75678571D02*
X106691428Y-74821428D01*
X107334285Y-74178571D02*
X106477142Y-75035714D01*
X102762857Y-78128571D02*
X102762857Y-76628571D01*
X103120000Y-76628571D01*
X103334285Y-76700000D01*
X103477142Y-76842857D01*
X103548571Y-76985714D01*
X103620000Y-77271428D01*
X103620000Y-77485714D01*
X103548571Y-77771428D01*
X103477142Y-77914285D01*
X103334285Y-78057142D01*
X103120000Y-78128571D01*
X102762857Y-78128571D01*
X104191428Y-77700000D02*
X104905714Y-77700000D01*
X104048571Y-78128571D02*
X104548571Y-76628571D01*
X105048571Y-78128571D01*
X105334285Y-76628571D02*
X106191428Y-76628571D01*
X105762857Y-78128571D02*
X105762857Y-76628571D01*
X106620000Y-77700000D02*
X107334285Y-77700000D01*
X106477142Y-78128571D02*
X106977142Y-76628571D01*
X107477142Y-78128571D01*
D11*
X125380952Y-79952380D02*
X125380952Y-80666666D01*
X125333333Y-80809523D01*
X125238095Y-80904761D01*
X125095238Y-80952380D01*
X125000000Y-80952380D01*
X126333333Y-80952380D02*
X125857142Y-80952380D01*
X125857142Y-79952380D01*
X127238095Y-80857142D02*
X127190476Y-80904761D01*
X127047619Y-80952380D01*
X126952380Y-80952380D01*
X126809523Y-80904761D01*
X126714285Y-80809523D01*
X126666666Y-80714285D01*
X126619047Y-80523809D01*
X126619047Y-80380952D01*
X126666666Y-80190476D01*
X126714285Y-80095238D01*
X126809523Y-80000000D01*
X126952380Y-79952380D01*
X127047619Y-79952380D01*
X127190476Y-80000000D01*
X127238095Y-80047619D01*
X127952380Y-79952380D02*
X127952380Y-80666666D01*
X127904761Y-80809523D01*
X127809523Y-80904761D01*
X127666666Y-80952380D01*
X127571428Y-80952380D01*
X128904761Y-80952380D02*
X128428571Y-80952380D01*
X128428571Y-79952380D01*
X129809523Y-80857142D02*
X129761904Y-80904761D01*
X129619047Y-80952380D01*
X129523809Y-80952380D01*
X129380952Y-80904761D01*
X129285714Y-80809523D01*
X129238095Y-80714285D01*
X129190476Y-80523809D01*
X129190476Y-80380952D01*
X129238095Y-80190476D01*
X129285714Y-80095238D01*
X129380952Y-80000000D01*
X129523809Y-79952380D01*
X129619047Y-79952380D01*
X129761904Y-80000000D01*
X129809523Y-80047619D01*
X130523809Y-79952380D02*
X130523809Y-80666666D01*
X130476190Y-80809523D01*
X130380952Y-80904761D01*
X130238095Y-80952380D01*
X130142857Y-80952380D01*
X131476190Y-80952380D02*
X131000000Y-80952380D01*
X131000000Y-79952380D01*
X132380952Y-80857142D02*
X132333333Y-80904761D01*
X132190476Y-80952380D01*
X132095238Y-80952380D01*
X131952380Y-80904761D01*
X131857142Y-80809523D01*
X131809523Y-80714285D01*
X131761904Y-80523809D01*
X131761904Y-80380952D01*
X131809523Y-80190476D01*
X131857142Y-80095238D01*
X131952380Y-80000000D01*
X132095238Y-79952380D01*
X132190476Y-79952380D01*
X132333333Y-80000000D01*
X132380952Y-80047619D01*
X133095238Y-79952380D02*
X133095238Y-80666666D01*
X133047619Y-80809523D01*
X132952380Y-80904761D01*
X132809523Y-80952380D01*
X132714285Y-80952380D01*
X134047619Y-80952380D02*
X133571428Y-80952380D01*
X133571428Y-79952380D01*
X134952380Y-80857142D02*
X134904761Y-80904761D01*
X134761904Y-80952380D01*
X134666666Y-80952380D01*
X134523809Y-80904761D01*
X134428571Y-80809523D01*
X134380952Y-80714285D01*
X134333333Y-80523809D01*
X134333333Y-80380952D01*
X134380952Y-80190476D01*
X134428571Y-80095238D01*
X134523809Y-80000000D01*
X134666666Y-79952380D01*
X134761904Y-79952380D01*
X134904761Y-80000000D01*
X134952380Y-80047619D01*
X109690476Y-96627380D02*
X109690476Y-95627380D01*
X110071428Y-95627380D01*
X110166666Y-95675000D01*
X110214285Y-95722619D01*
X110261904Y-95817857D01*
X110261904Y-95960714D01*
X110214285Y-96055952D01*
X110166666Y-96103571D01*
X110071428Y-96151190D01*
X109690476Y-96151190D01*
X110880952Y-95627380D02*
X111071428Y-95627380D01*
X111166666Y-95675000D01*
X111261904Y-95770238D01*
X111309523Y-95960714D01*
X111309523Y-96294047D01*
X111261904Y-96484523D01*
X111166666Y-96579761D01*
X111071428Y-96627380D01*
X110880952Y-96627380D01*
X110785714Y-96579761D01*
X110690476Y-96484523D01*
X110642857Y-96294047D01*
X110642857Y-95960714D01*
X110690476Y-95770238D01*
X110785714Y-95675000D01*
X110880952Y-95627380D01*
X111642857Y-95627380D02*
X111880952Y-96627380D01*
X112071428Y-95913095D01*
X112261904Y-96627380D01*
X112500000Y-95627380D01*
X112880952Y-96103571D02*
X113214285Y-96103571D01*
X113357142Y-96627380D02*
X112880952Y-96627380D01*
X112880952Y-95627380D01*
X113357142Y-95627380D01*
X114357142Y-96627380D02*
X114023809Y-96151190D01*
X113785714Y-96627380D02*
X113785714Y-95627380D01*
X114166666Y-95627380D01*
X114261904Y-95675000D01*
X114309523Y-95722619D01*
X114357142Y-95817857D01*
X114357142Y-95960714D01*
X114309523Y-96055952D01*
X114261904Y-96103571D01*
X114166666Y-96151190D01*
X113785714Y-96151190D01*
X107761904Y-97896428D02*
X108523809Y-97896428D01*
X108142857Y-98277380D02*
X108142857Y-97515476D01*
X108904761Y-97277380D02*
X109571428Y-97277380D01*
X109142857Y-98277380D01*
X111238095Y-97325000D02*
X111142857Y-97277380D01*
X111000000Y-97277380D01*
X110857142Y-97325000D01*
X110761904Y-97420238D01*
X110714285Y-97515476D01*
X110666666Y-97705952D01*
X110666666Y-97848809D01*
X110714285Y-98039285D01*
X110761904Y-98134523D01*
X110857142Y-98229761D01*
X111000000Y-98277380D01*
X111095238Y-98277380D01*
X111238095Y-98229761D01*
X111285714Y-98182142D01*
X111285714Y-97848809D01*
X111095238Y-97848809D01*
X111714285Y-98277380D02*
X111714285Y-97277380D01*
X112285714Y-98277380D01*
X112285714Y-97277380D01*
X112761904Y-98277380D02*
X112761904Y-97277380D01*
X113000000Y-97277380D01*
X113142857Y-97325000D01*
X113238095Y-97420238D01*
X113285714Y-97515476D01*
X113333333Y-97705952D01*
X113333333Y-97848809D01*
X113285714Y-98039285D01*
X113238095Y-98134523D01*
X113142857Y-98229761D01*
X113000000Y-98277380D01*
X112761904Y-98277380D01*
X114523809Y-97896428D02*
X115285714Y-97896428D01*
X115666666Y-97277380D02*
X116333333Y-97277380D01*
X115904761Y-98277380D01*
X109595238Y-52452380D02*
X109785714Y-52452380D01*
X109880952Y-52500000D01*
X109976190Y-52595238D01*
X110023809Y-52785714D01*
X110023809Y-53119047D01*
X109976190Y-53309523D01*
X109880952Y-53404761D01*
X109785714Y-53452380D01*
X109595238Y-53452380D01*
X109500000Y-53404761D01*
X109404761Y-53309523D01*
X109357142Y-53119047D01*
X109357142Y-52785714D01*
X109404761Y-52595238D01*
X109500000Y-52500000D01*
X109595238Y-52452380D01*
X110452380Y-52452380D02*
X110452380Y-53261904D01*
X110500000Y-53357142D01*
X110547619Y-53404761D01*
X110642857Y-53452380D01*
X110833333Y-53452380D01*
X110928571Y-53404761D01*
X110976190Y-53357142D01*
X111023809Y-53261904D01*
X111023809Y-52452380D01*
X111357142Y-52452380D02*
X111928571Y-52452380D01*
X111642857Y-53452380D02*
X111642857Y-52452380D01*
X112261904Y-53452380D02*
X112261904Y-52452380D01*
X112642857Y-52452380D01*
X112738095Y-52500000D01*
X112785714Y-52547619D01*
X112833333Y-52642857D01*
X112833333Y-52785714D01*
X112785714Y-52880952D01*
X112738095Y-52928571D01*
X112642857Y-52976190D01*
X112261904Y-52976190D01*
X113261904Y-52452380D02*
X113261904Y-53261904D01*
X113309523Y-53357142D01*
X113357142Y-53404761D01*
X113452380Y-53452380D01*
X113642857Y-53452380D01*
X113738095Y-53404761D01*
X113785714Y-53357142D01*
X113833333Y-53261904D01*
X113833333Y-52452380D01*
X114166666Y-52452380D02*
X114738095Y-52452380D01*
X114452380Y-53452380D02*
X114452380Y-52452380D01*
X118595238Y-53452380D02*
X118595238Y-52452380D01*
X119071428Y-53452380D02*
X119071428Y-52452380D01*
X119642857Y-53452380D01*
X119642857Y-52452380D01*
X120119047Y-53452380D02*
X120119047Y-52452380D01*
X120500000Y-52452380D01*
X120595238Y-52500000D01*
X120642857Y-52547619D01*
X120690476Y-52642857D01*
X120690476Y-52785714D01*
X120642857Y-52880952D01*
X120595238Y-52928571D01*
X120500000Y-52976190D01*
X120119047Y-52976190D01*
X121119047Y-52452380D02*
X121119047Y-53261904D01*
X121166666Y-53357142D01*
X121214285Y-53404761D01*
X121309523Y-53452380D01*
X121500000Y-53452380D01*
X121595238Y-53404761D01*
X121642857Y-53357142D01*
X121690476Y-53261904D01*
X121690476Y-52452380D01*
X122023809Y-52452380D02*
X122595238Y-52452380D01*
X122309523Y-53452380D02*
X122309523Y-52452380D01*
X123357142Y-52785714D02*
X123357142Y-53452380D01*
X123119047Y-52404761D02*
X122880952Y-53119047D01*
X123500000Y-53119047D01*
X127595238Y-53452380D02*
X127595238Y-52452380D01*
X128071428Y-53452380D02*
X128071428Y-52452380D01*
X128642857Y-53452380D01*
X128642857Y-52452380D01*
X129119047Y-53452380D02*
X129119047Y-52452380D01*
X129500000Y-52452380D01*
X129595238Y-52500000D01*
X129642857Y-52547619D01*
X129690476Y-52642857D01*
X129690476Y-52785714D01*
X129642857Y-52880952D01*
X129595238Y-52928571D01*
X129500000Y-52976190D01*
X129119047Y-52976190D01*
X130119047Y-52452380D02*
X130119047Y-53261904D01*
X130166666Y-53357142D01*
X130214285Y-53404761D01*
X130309523Y-53452380D01*
X130500000Y-53452380D01*
X130595238Y-53404761D01*
X130642857Y-53357142D01*
X130690476Y-53261904D01*
X130690476Y-52452380D01*
X131023809Y-52452380D02*
X131595238Y-52452380D01*
X131309523Y-53452380D02*
X131309523Y-52452380D01*
X131833333Y-52452380D02*
X132452380Y-52452380D01*
X132119047Y-52833333D01*
X132261904Y-52833333D01*
X132357142Y-52880952D01*
X132404761Y-52928571D01*
X132452380Y-53023809D01*
X132452380Y-53261904D01*
X132404761Y-53357142D01*
X132357142Y-53404761D01*
X132261904Y-53452380D01*
X131976190Y-53452380D01*
X131880952Y-53404761D01*
X131833333Y-53357142D01*
X136595238Y-53452380D02*
X136595238Y-52452380D01*
X137071428Y-53452380D02*
X137071428Y-52452380D01*
X137642857Y-53452380D01*
X137642857Y-52452380D01*
X138119047Y-53452380D02*
X138119047Y-52452380D01*
X138500000Y-52452380D01*
X138595238Y-52500000D01*
X138642857Y-52547619D01*
X138690476Y-52642857D01*
X138690476Y-52785714D01*
X138642857Y-52880952D01*
X138595238Y-52928571D01*
X138500000Y-52976190D01*
X138119047Y-52976190D01*
X139119047Y-52452380D02*
X139119047Y-53261904D01*
X139166666Y-53357142D01*
X139214285Y-53404761D01*
X139309523Y-53452380D01*
X139500000Y-53452380D01*
X139595238Y-53404761D01*
X139642857Y-53357142D01*
X139690476Y-53261904D01*
X139690476Y-52452380D01*
X140023809Y-52452380D02*
X140595238Y-52452380D01*
X140309523Y-53452380D02*
X140309523Y-52452380D01*
X140880952Y-52547619D02*
X140928571Y-52500000D01*
X141023809Y-52452380D01*
X141261904Y-52452380D01*
X141357142Y-52500000D01*
X141404761Y-52547619D01*
X141452380Y-52642857D01*
X141452380Y-52738095D01*
X141404761Y-52880952D01*
X140833333Y-53452380D01*
X141452380Y-53452380D01*
X145595238Y-53452380D02*
X145595238Y-52452380D01*
X146071428Y-53452380D02*
X146071428Y-52452380D01*
X146642857Y-53452380D01*
X146642857Y-52452380D01*
X147119047Y-53452380D02*
X147119047Y-52452380D01*
X147500000Y-52452380D01*
X147595238Y-52500000D01*
X147642857Y-52547619D01*
X147690476Y-52642857D01*
X147690476Y-52785714D01*
X147642857Y-52880952D01*
X147595238Y-52928571D01*
X147500000Y-52976190D01*
X147119047Y-52976190D01*
X148119047Y-52452380D02*
X148119047Y-53261904D01*
X148166666Y-53357142D01*
X148214285Y-53404761D01*
X148309523Y-53452380D01*
X148500000Y-53452380D01*
X148595238Y-53404761D01*
X148642857Y-53357142D01*
X148690476Y-53261904D01*
X148690476Y-52452380D01*
X149023809Y-52452380D02*
X149595238Y-52452380D01*
X149309523Y-53452380D02*
X149309523Y-52452380D01*
X150452380Y-53452380D02*
X149880952Y-53452380D01*
X150166666Y-53452380D02*
X150166666Y-52452380D01*
X150071428Y-52595238D01*
X149976190Y-52690476D01*
X149880952Y-52738095D01*
X151952380Y-61380952D02*
X151476190Y-61714285D01*
X151952380Y-61952380D02*
X150952380Y-61952380D01*
X150952380Y-61571428D01*
X151000000Y-61476190D01*
X151047619Y-61428571D01*
X151142857Y-61380952D01*
X151285714Y-61380952D01*
X151380952Y-61428571D01*
X151428571Y-61476190D01*
X151476190Y-61571428D01*
X151476190Y-61952380D01*
X151000000Y-59666666D02*
X150952380Y-59761904D01*
X150952380Y-59904761D01*
X151000000Y-60047619D01*
X151095238Y-60142857D01*
X151190476Y-60190476D01*
X151380952Y-60238095D01*
X151523809Y-60238095D01*
X151714285Y-60190476D01*
X151809523Y-60142857D01*
X151904761Y-60047619D01*
X151952380Y-59904761D01*
X151952380Y-59809523D01*
X151904761Y-59666666D01*
X151857142Y-59619047D01*
X151523809Y-59619047D01*
X151523809Y-59809523D01*
X151952380Y-59190476D02*
X150952380Y-59190476D01*
X151952380Y-58619047D01*
X150952380Y-58619047D01*
X151952380Y-58142857D02*
X150952380Y-58142857D01*
X150952380Y-57904761D01*
X151000000Y-57761904D01*
X151095238Y-57666666D01*
X151190476Y-57619047D01*
X151380952Y-57571428D01*
X151523809Y-57571428D01*
X151714285Y-57619047D01*
X151809523Y-57666666D01*
X151904761Y-57761904D01*
X151952380Y-57904761D01*
X151952380Y-58142857D01*
X151952380Y-55904761D02*
X151952380Y-56380952D01*
X150952380Y-56380952D01*
X135400000Y-78825000D02*
X135400000Y-77750000D01*
X124375000Y-78825000D02*
X124375000Y-85175000D01*
X135625000Y-78825000D02*
X135625000Y-85175000D01*
X124375000Y-78825000D02*
X124700000Y-78825000D01*
X124375000Y-85175000D02*
X124700000Y-85175000D01*
X135625000Y-85175000D02*
X135300000Y-85175000D01*
X135625000Y-78825000D02*
X135400000Y-78825000D01*
D12*
X114750000Y-53650000D02*
X113500000Y-53650000D01*
X114750000Y-54900000D02*
X114750000Y-53650000D01*
X109250000Y-63300000D02*
X109250000Y-59000000D01*
X112200000Y-63300000D02*
X109250000Y-63300000D01*
X112200000Y-64050000D02*
X112200000Y-63300000D01*
X109250000Y-54700000D02*
X109250000Y-59000000D01*
X112200000Y-54700000D02*
X109250000Y-54700000D01*
X112200000Y-53950000D02*
X112200000Y-54700000D01*
X114450000Y-64050000D02*
X114450000Y-62250000D01*
X113700000Y-64050000D02*
X114450000Y-64050000D01*
X113700000Y-62250000D02*
X113700000Y-64050000D01*
X114450000Y-62250000D02*
X113700000Y-62250000D01*
X114450000Y-55750000D02*
X114450000Y-53950000D01*
X113700000Y-55750000D02*
X114450000Y-55750000D01*
X113700000Y-53950000D02*
X113700000Y-55750000D01*
X114450000Y-53950000D02*
X113700000Y-53950000D01*
X114450000Y-60750000D02*
X114450000Y-57250000D01*
X113700000Y-60750000D02*
X114450000Y-60750000D01*
X113700000Y-57250000D02*
X113700000Y-60750000D01*
X114450000Y-57250000D02*
X113700000Y-57250000D01*
X114460000Y-64060000D02*
X114460000Y-53940000D01*
X108490000Y-64060000D02*
X114460000Y-64060000D01*
X108490000Y-53940000D02*
X108490000Y-64060000D01*
X114460000Y-53940000D02*
X108490000Y-53940000D01*
X110330000Y-78870000D02*
X109000000Y-78870000D01*
X110330000Y-77540000D02*
X110330000Y-78870000D01*
X110330000Y-76270000D02*
X107670000Y-76270000D01*
X107670000Y-76270000D02*
X107670000Y-71130000D01*
X110330000Y-76270000D02*
X110330000Y-71130000D01*
X110330000Y-71130000D02*
X107670000Y-71130000D01*
X128259698Y-104715000D02*
X128259698Y-103915000D01*
X128659698Y-104315000D02*
X127859698Y-104315000D01*
X120169000Y-102533000D02*
X120169000Y-101467000D01*
X120209000Y-102768000D02*
X120209000Y-101232000D01*
X120249000Y-102948000D02*
X120249000Y-101052000D01*
X120289000Y-103098000D02*
X120289000Y-100902000D01*
X120329000Y-103229000D02*
X120329000Y-100771000D01*
X120369000Y-103346000D02*
X120369000Y-100654000D01*
X120409000Y-103453000D02*
X120409000Y-100547000D01*
X120449000Y-103552000D02*
X120449000Y-100448000D01*
X120489000Y-103645000D02*
X120489000Y-100355000D01*
X120529000Y-103731000D02*
X120529000Y-100269000D01*
X120569000Y-103813000D02*
X120569000Y-100187000D01*
X120609000Y-103890000D02*
X120609000Y-100110000D01*
X120649000Y-103964000D02*
X120649000Y-100036000D01*
X120689000Y-104034000D02*
X120689000Y-99966000D01*
X120729000Y-104102000D02*
X120729000Y-99898000D01*
X120769000Y-104166000D02*
X120769000Y-99834000D01*
X120809000Y-104228000D02*
X120809000Y-99772000D01*
X120849000Y-104287000D02*
X120849000Y-99713000D01*
X120889000Y-104345000D02*
X120889000Y-99655000D01*
X120929000Y-104400000D02*
X120929000Y-99600000D01*
X120969000Y-104454000D02*
X120969000Y-99546000D01*
X121009000Y-104505000D02*
X121009000Y-99495000D01*
X121049000Y-104556000D02*
X121049000Y-99444000D01*
X121089000Y-104604000D02*
X121089000Y-99396000D01*
X121129000Y-104651000D02*
X121129000Y-99349000D01*
X121169000Y-104697000D02*
X121169000Y-99303000D01*
X121209000Y-104741000D02*
X121209000Y-99259000D01*
X121249000Y-104784000D02*
X121249000Y-99216000D01*
X121289000Y-104826000D02*
X121289000Y-99174000D01*
X121329000Y-104867000D02*
X121329000Y-99133000D01*
X121369000Y-104907000D02*
X121369000Y-99093000D01*
X121409000Y-104945000D02*
X121409000Y-99055000D01*
X121449000Y-104983000D02*
X121449000Y-99017000D01*
X121489000Y-100960000D02*
X121489000Y-98981000D01*
X121489000Y-105019000D02*
X121489000Y-103040000D01*
X121529000Y-100960000D02*
X121529000Y-98945000D01*
X121529000Y-105055000D02*
X121529000Y-103040000D01*
X121569000Y-100960000D02*
X121569000Y-98910000D01*
X121569000Y-105090000D02*
X121569000Y-103040000D01*
X121609000Y-100960000D02*
X121609000Y-98876000D01*
X121609000Y-105124000D02*
X121609000Y-103040000D01*
X121649000Y-100960000D02*
X121649000Y-98844000D01*
X121649000Y-105156000D02*
X121649000Y-103040000D01*
X121689000Y-100960000D02*
X121689000Y-98811000D01*
X121689000Y-105189000D02*
X121689000Y-103040000D01*
X121729000Y-100960000D02*
X121729000Y-98780000D01*
X121729000Y-105220000D02*
X121729000Y-103040000D01*
X121769000Y-100960000D02*
X121769000Y-98750000D01*
X121769000Y-105250000D02*
X121769000Y-103040000D01*
X121809000Y-100960000D02*
X121809000Y-98720000D01*
X121809000Y-105280000D02*
X121809000Y-103040000D01*
X121849000Y-100960000D02*
X121849000Y-98691000D01*
X121849000Y-105309000D02*
X121849000Y-103040000D01*
X121889000Y-100960000D02*
X121889000Y-98662000D01*
X121889000Y-105338000D02*
X121889000Y-103040000D01*
X121929000Y-100960000D02*
X121929000Y-98635000D01*
X121929000Y-105365000D02*
X121929000Y-103040000D01*
X121969000Y-100960000D02*
X121969000Y-98608000D01*
X121969000Y-105392000D02*
X121969000Y-103040000D01*
X122009000Y-100960000D02*
X122009000Y-98582000D01*
X122009000Y-105418000D02*
X122009000Y-103040000D01*
X122049000Y-100960000D02*
X122049000Y-98556000D01*
X122049000Y-105444000D02*
X122049000Y-103040000D01*
X122089000Y-100960000D02*
X122089000Y-98531000D01*
X122089000Y-105469000D02*
X122089000Y-103040000D01*
X122129000Y-100960000D02*
X122129000Y-98507000D01*
X122129000Y-105493000D02*
X122129000Y-103040000D01*
X122169000Y-100960000D02*
X122169000Y-98483000D01*
X122169000Y-105517000D02*
X122169000Y-103040000D01*
X122209000Y-100960000D02*
X122209000Y-98460000D01*
X122209000Y-105540000D02*
X122209000Y-103040000D01*
X122249000Y-100960000D02*
X122249000Y-98438000D01*
X122249000Y-105562000D02*
X122249000Y-103040000D01*
X122289000Y-100960000D02*
X122289000Y-98416000D01*
X122289000Y-105584000D02*
X122289000Y-103040000D01*
X122329000Y-100960000D02*
X122329000Y-98394000D01*
X122329000Y-105606000D02*
X122329000Y-103040000D01*
X122369000Y-100960000D02*
X122369000Y-98373000D01*
X122369000Y-105627000D02*
X122369000Y-103040000D01*
X122409000Y-100960000D02*
X122409000Y-98353000D01*
X122409000Y-105647000D02*
X122409000Y-103040000D01*
X122449000Y-100960000D02*
X122449000Y-98334000D01*
X122449000Y-105666000D02*
X122449000Y-103040000D01*
X122489000Y-100960000D02*
X122489000Y-98314000D01*
X122489000Y-105686000D02*
X122489000Y-103040000D01*
X122529000Y-100960000D02*
X122529000Y-98296000D01*
X122529000Y-105704000D02*
X122529000Y-103040000D01*
X122569000Y-100960000D02*
X122569000Y-98278000D01*
X122569000Y-105722000D02*
X122569000Y-103040000D01*
X122609000Y-100960000D02*
X122609000Y-98260000D01*
X122609000Y-105740000D02*
X122609000Y-103040000D01*
X122649000Y-100960000D02*
X122649000Y-98243000D01*
X122649000Y-105757000D02*
X122649000Y-103040000D01*
X122689000Y-100960000D02*
X122689000Y-98226000D01*
X122689000Y-105774000D02*
X122689000Y-103040000D01*
X122729000Y-100960000D02*
X122729000Y-98210000D01*
X122729000Y-105790000D02*
X122729000Y-103040000D01*
X122769000Y-100960000D02*
X122769000Y-98195000D01*
X122769000Y-105805000D02*
X122769000Y-103040000D01*
X122809000Y-100960000D02*
X122809000Y-98179000D01*
X122809000Y-105821000D02*
X122809000Y-103040000D01*
X122849000Y-100960000D02*
X122849000Y-98165000D01*
X122849000Y-105835000D02*
X122849000Y-103040000D01*
X122889000Y-100960000D02*
X122889000Y-98150000D01*
X122889000Y-105850000D02*
X122889000Y-103040000D01*
X122929000Y-100960000D02*
X122929000Y-98137000D01*
X122929000Y-105863000D02*
X122929000Y-103040000D01*
X122969000Y-100960000D02*
X122969000Y-98123000D01*
X122969000Y-105877000D02*
X122969000Y-103040000D01*
X123009000Y-100960000D02*
X123009000Y-98111000D01*
X123009000Y-105889000D02*
X123009000Y-103040000D01*
X123049000Y-100960000D02*
X123049000Y-98098000D01*
X123049000Y-105902000D02*
X123049000Y-103040000D01*
X123089000Y-100960000D02*
X123089000Y-98086000D01*
X123089000Y-105914000D02*
X123089000Y-103040000D01*
X123129000Y-100960000D02*
X123129000Y-98075000D01*
X123129000Y-105925000D02*
X123129000Y-103040000D01*
X123169000Y-100960000D02*
X123169000Y-98064000D01*
X123169000Y-105936000D02*
X123169000Y-103040000D01*
X123209000Y-100960000D02*
X123209000Y-98053000D01*
X123209000Y-105947000D02*
X123209000Y-103040000D01*
X123249000Y-100960000D02*
X123249000Y-98043000D01*
X123249000Y-105957000D02*
X123249000Y-103040000D01*
X123289000Y-100960000D02*
X123289000Y-98033000D01*
X123289000Y-105967000D02*
X123289000Y-103040000D01*
X123329000Y-100960000D02*
X123329000Y-98024000D01*
X123329000Y-105976000D02*
X123329000Y-103040000D01*
X123369000Y-100960000D02*
X123369000Y-98015000D01*
X123369000Y-105985000D02*
X123369000Y-103040000D01*
X123409000Y-100960000D02*
X123409000Y-98006000D01*
X123409000Y-105994000D02*
X123409000Y-103040000D01*
X123449000Y-100960000D02*
X123449000Y-97998000D01*
X123449000Y-106002000D02*
X123449000Y-103040000D01*
X123489000Y-100960000D02*
X123489000Y-97990000D01*
X123489000Y-106010000D02*
X123489000Y-103040000D01*
X123529000Y-100960000D02*
X123529000Y-97983000D01*
X123529000Y-106017000D02*
X123529000Y-103040000D01*
X123570000Y-106024000D02*
X123570000Y-97976000D01*
X123610000Y-106030000D02*
X123610000Y-97970000D01*
X123650000Y-106037000D02*
X123650000Y-97963000D01*
X123690000Y-106042000D02*
X123690000Y-97958000D01*
X123730000Y-106048000D02*
X123730000Y-97952000D01*
X123770000Y-106052000D02*
X123770000Y-97948000D01*
X123810000Y-106057000D02*
X123810000Y-97943000D01*
X123850000Y-106061000D02*
X123850000Y-97939000D01*
X123890000Y-106065000D02*
X123890000Y-97935000D01*
X123930000Y-106068000D02*
X123930000Y-97932000D01*
X123970000Y-106071000D02*
X123970000Y-97929000D01*
X124010000Y-106074000D02*
X124010000Y-97926000D01*
X124050000Y-106076000D02*
X124050000Y-97924000D01*
X124090000Y-106077000D02*
X124090000Y-97923000D01*
X124130000Y-106079000D02*
X124130000Y-97921000D01*
X124170000Y-106080000D02*
X124170000Y-97920000D01*
X124210000Y-106080000D02*
X124210000Y-97920000D01*
X124250000Y-106080000D02*
X124250000Y-97920000D01*
X128370000Y-102000000D02*
G75*
G03X128370000Y-102000000I-4120000J0D01*
G01*
X139759698Y-104715000D02*
X139759698Y-103915000D01*
X140159698Y-104315000D02*
X139359698Y-104315000D01*
X131669000Y-102533000D02*
X131669000Y-101467000D01*
X131709000Y-102768000D02*
X131709000Y-101232000D01*
X131749000Y-102948000D02*
X131749000Y-101052000D01*
X131789000Y-103098000D02*
X131789000Y-100902000D01*
X131829000Y-103229000D02*
X131829000Y-100771000D01*
X131869000Y-103346000D02*
X131869000Y-100654000D01*
X131909000Y-103453000D02*
X131909000Y-100547000D01*
X131949000Y-103552000D02*
X131949000Y-100448000D01*
X131989000Y-103645000D02*
X131989000Y-100355000D01*
X132029000Y-103731000D02*
X132029000Y-100269000D01*
X132069000Y-103813000D02*
X132069000Y-100187000D01*
X132109000Y-103890000D02*
X132109000Y-100110000D01*
X132149000Y-103964000D02*
X132149000Y-100036000D01*
X132189000Y-104034000D02*
X132189000Y-99966000D01*
X132229000Y-104102000D02*
X132229000Y-99898000D01*
X132269000Y-104166000D02*
X132269000Y-99834000D01*
X132309000Y-104228000D02*
X132309000Y-99772000D01*
X132349000Y-104287000D02*
X132349000Y-99713000D01*
X132389000Y-104345000D02*
X132389000Y-99655000D01*
X132429000Y-104400000D02*
X132429000Y-99600000D01*
X132469000Y-104454000D02*
X132469000Y-99546000D01*
X132509000Y-104505000D02*
X132509000Y-99495000D01*
X132549000Y-104556000D02*
X132549000Y-99444000D01*
X132589000Y-104604000D02*
X132589000Y-99396000D01*
X132629000Y-104651000D02*
X132629000Y-99349000D01*
X132669000Y-104697000D02*
X132669000Y-99303000D01*
X132709000Y-104741000D02*
X132709000Y-99259000D01*
X132749000Y-104784000D02*
X132749000Y-99216000D01*
X132789000Y-104826000D02*
X132789000Y-99174000D01*
X132829000Y-104867000D02*
X132829000Y-99133000D01*
X132869000Y-104907000D02*
X132869000Y-99093000D01*
X132909000Y-104945000D02*
X132909000Y-99055000D01*
X132949000Y-104983000D02*
X132949000Y-99017000D01*
X132989000Y-100960000D02*
X132989000Y-98981000D01*
X132989000Y-105019000D02*
X132989000Y-103040000D01*
X133029000Y-100960000D02*
X133029000Y-98945000D01*
X133029000Y-105055000D02*
X133029000Y-103040000D01*
X133069000Y-100960000D02*
X133069000Y-98910000D01*
X133069000Y-105090000D02*
X133069000Y-103040000D01*
X133109000Y-100960000D02*
X133109000Y-98876000D01*
X133109000Y-105124000D02*
X133109000Y-103040000D01*
X133149000Y-100960000D02*
X133149000Y-98844000D01*
X133149000Y-105156000D02*
X133149000Y-103040000D01*
X133189000Y-100960000D02*
X133189000Y-98811000D01*
X133189000Y-105189000D02*
X133189000Y-103040000D01*
X133229000Y-100960000D02*
X133229000Y-98780000D01*
X133229000Y-105220000D02*
X133229000Y-103040000D01*
X133269000Y-100960000D02*
X133269000Y-98750000D01*
X133269000Y-105250000D02*
X133269000Y-103040000D01*
X133309000Y-100960000D02*
X133309000Y-98720000D01*
X133309000Y-105280000D02*
X133309000Y-103040000D01*
X133349000Y-100960000D02*
X133349000Y-98691000D01*
X133349000Y-105309000D02*
X133349000Y-103040000D01*
X133389000Y-100960000D02*
X133389000Y-98662000D01*
X133389000Y-105338000D02*
X133389000Y-103040000D01*
X133429000Y-100960000D02*
X133429000Y-98635000D01*
X133429000Y-105365000D02*
X133429000Y-103040000D01*
X133469000Y-100960000D02*
X133469000Y-98608000D01*
X133469000Y-105392000D02*
X133469000Y-103040000D01*
X133509000Y-100960000D02*
X133509000Y-98582000D01*
X133509000Y-105418000D02*
X133509000Y-103040000D01*
X133549000Y-100960000D02*
X133549000Y-98556000D01*
X133549000Y-105444000D02*
X133549000Y-103040000D01*
X133589000Y-100960000D02*
X133589000Y-98531000D01*
X133589000Y-105469000D02*
X133589000Y-103040000D01*
X133629000Y-100960000D02*
X133629000Y-98507000D01*
X133629000Y-105493000D02*
X133629000Y-103040000D01*
X133669000Y-100960000D02*
X133669000Y-98483000D01*
X133669000Y-105517000D02*
X133669000Y-103040000D01*
X133709000Y-100960000D02*
X133709000Y-98460000D01*
X133709000Y-105540000D02*
X133709000Y-103040000D01*
X133749000Y-100960000D02*
X133749000Y-98438000D01*
X133749000Y-105562000D02*
X133749000Y-103040000D01*
X133789000Y-100960000D02*
X133789000Y-98416000D01*
X133789000Y-105584000D02*
X133789000Y-103040000D01*
X133829000Y-100960000D02*
X133829000Y-98394000D01*
X133829000Y-105606000D02*
X133829000Y-103040000D01*
X133869000Y-100960000D02*
X133869000Y-98373000D01*
X133869000Y-105627000D02*
X133869000Y-103040000D01*
X133909000Y-100960000D02*
X133909000Y-98353000D01*
X133909000Y-105647000D02*
X133909000Y-103040000D01*
X133949000Y-100960000D02*
X133949000Y-98334000D01*
X133949000Y-105666000D02*
X133949000Y-103040000D01*
X133989000Y-100960000D02*
X133989000Y-98314000D01*
X133989000Y-105686000D02*
X133989000Y-103040000D01*
X134029000Y-100960000D02*
X134029000Y-98296000D01*
X134029000Y-105704000D02*
X134029000Y-103040000D01*
X134069000Y-100960000D02*
X134069000Y-98278000D01*
X134069000Y-105722000D02*
X134069000Y-103040000D01*
X134109000Y-100960000D02*
X134109000Y-98260000D01*
X134109000Y-105740000D02*
X134109000Y-103040000D01*
X134149000Y-100960000D02*
X134149000Y-98243000D01*
X134149000Y-105757000D02*
X134149000Y-103040000D01*
X134189000Y-100960000D02*
X134189000Y-98226000D01*
X134189000Y-105774000D02*
X134189000Y-103040000D01*
X134229000Y-100960000D02*
X134229000Y-98210000D01*
X134229000Y-105790000D02*
X134229000Y-103040000D01*
X134269000Y-100960000D02*
X134269000Y-98195000D01*
X134269000Y-105805000D02*
X134269000Y-103040000D01*
X134309000Y-100960000D02*
X134309000Y-98179000D01*
X134309000Y-105821000D02*
X134309000Y-103040000D01*
X134349000Y-100960000D02*
X134349000Y-98165000D01*
X134349000Y-105835000D02*
X134349000Y-103040000D01*
X134389000Y-100960000D02*
X134389000Y-98150000D01*
X134389000Y-105850000D02*
X134389000Y-103040000D01*
X134429000Y-100960000D02*
X134429000Y-98137000D01*
X134429000Y-105863000D02*
X134429000Y-103040000D01*
X134469000Y-100960000D02*
X134469000Y-98123000D01*
X134469000Y-105877000D02*
X134469000Y-103040000D01*
X134509000Y-100960000D02*
X134509000Y-98111000D01*
X134509000Y-105889000D02*
X134509000Y-103040000D01*
X134549000Y-100960000D02*
X134549000Y-98098000D01*
X134549000Y-105902000D02*
X134549000Y-103040000D01*
X134589000Y-100960000D02*
X134589000Y-98086000D01*
X134589000Y-105914000D02*
X134589000Y-103040000D01*
X134629000Y-100960000D02*
X134629000Y-98075000D01*
X134629000Y-105925000D02*
X134629000Y-103040000D01*
X134669000Y-100960000D02*
X134669000Y-98064000D01*
X134669000Y-105936000D02*
X134669000Y-103040000D01*
X134709000Y-100960000D02*
X134709000Y-98053000D01*
X134709000Y-105947000D02*
X134709000Y-103040000D01*
X134749000Y-100960000D02*
X134749000Y-98043000D01*
X134749000Y-105957000D02*
X134749000Y-103040000D01*
X134789000Y-100960000D02*
X134789000Y-98033000D01*
X134789000Y-105967000D02*
X134789000Y-103040000D01*
X134829000Y-100960000D02*
X134829000Y-98024000D01*
X134829000Y-105976000D02*
X134829000Y-103040000D01*
X134869000Y-100960000D02*
X134869000Y-98015000D01*
X134869000Y-105985000D02*
X134869000Y-103040000D01*
X134909000Y-100960000D02*
X134909000Y-98006000D01*
X134909000Y-105994000D02*
X134909000Y-103040000D01*
X134949000Y-100960000D02*
X134949000Y-97998000D01*
X134949000Y-106002000D02*
X134949000Y-103040000D01*
X134989000Y-100960000D02*
X134989000Y-97990000D01*
X134989000Y-106010000D02*
X134989000Y-103040000D01*
X135029000Y-100960000D02*
X135029000Y-97983000D01*
X135029000Y-106017000D02*
X135029000Y-103040000D01*
X135070000Y-106024000D02*
X135070000Y-97976000D01*
X135110000Y-106030000D02*
X135110000Y-97970000D01*
X135150000Y-106037000D02*
X135150000Y-97963000D01*
X135190000Y-106042000D02*
X135190000Y-97958000D01*
X135230000Y-106048000D02*
X135230000Y-97952000D01*
X135270000Y-106052000D02*
X135270000Y-97948000D01*
X135310000Y-106057000D02*
X135310000Y-97943000D01*
X135350000Y-106061000D02*
X135350000Y-97939000D01*
X135390000Y-106065000D02*
X135390000Y-97935000D01*
X135430000Y-106068000D02*
X135430000Y-97932000D01*
X135470000Y-106071000D02*
X135470000Y-97929000D01*
X135510000Y-106074000D02*
X135510000Y-97926000D01*
X135550000Y-106076000D02*
X135550000Y-97924000D01*
X135590000Y-106077000D02*
X135590000Y-97923000D01*
X135630000Y-106079000D02*
X135630000Y-97921000D01*
X135670000Y-106080000D02*
X135670000Y-97920000D01*
X135710000Y-106080000D02*
X135710000Y-97920000D01*
X135750000Y-106080000D02*
X135750000Y-97920000D01*
X139870000Y-102000000D02*
G75*
G03X139870000Y-102000000I-4120000J0D01*
G01*
X153715000Y-83240302D02*
X152915000Y-83240302D01*
X153315000Y-82840302D02*
X153315000Y-83640302D01*
X151533000Y-91331000D02*
X150467000Y-91331000D01*
X151768000Y-91291000D02*
X150232000Y-91291000D01*
X151948000Y-91251000D02*
X150052000Y-91251000D01*
X152098000Y-91211000D02*
X149902000Y-91211000D01*
X152229000Y-91171000D02*
X149771000Y-91171000D01*
X152346000Y-91131000D02*
X149654000Y-91131000D01*
X152453000Y-91091000D02*
X149547000Y-91091000D01*
X152552000Y-91051000D02*
X149448000Y-91051000D01*
X152645000Y-91011000D02*
X149355000Y-91011000D01*
X152731000Y-90971000D02*
X149269000Y-90971000D01*
X152813000Y-90931000D02*
X149187000Y-90931000D01*
X152890000Y-90891000D02*
X149110000Y-90891000D01*
X152964000Y-90851000D02*
X149036000Y-90851000D01*
X153034000Y-90811000D02*
X148966000Y-90811000D01*
X153102000Y-90771000D02*
X148898000Y-90771000D01*
X153166000Y-90731000D02*
X148834000Y-90731000D01*
X153228000Y-90691000D02*
X148772000Y-90691000D01*
X153287000Y-90651000D02*
X148713000Y-90651000D01*
X153345000Y-90611000D02*
X148655000Y-90611000D01*
X153400000Y-90571000D02*
X148600000Y-90571000D01*
X153454000Y-90531000D02*
X148546000Y-90531000D01*
X153505000Y-90491000D02*
X148495000Y-90491000D01*
X153556000Y-90451000D02*
X148444000Y-90451000D01*
X153604000Y-90411000D02*
X148396000Y-90411000D01*
X153651000Y-90371000D02*
X148349000Y-90371000D01*
X153697000Y-90331000D02*
X148303000Y-90331000D01*
X153741000Y-90291000D02*
X148259000Y-90291000D01*
X153784000Y-90251000D02*
X148216000Y-90251000D01*
X153826000Y-90211000D02*
X148174000Y-90211000D01*
X153867000Y-90171000D02*
X148133000Y-90171000D01*
X153907000Y-90131000D02*
X148093000Y-90131000D01*
X153945000Y-90091000D02*
X148055000Y-90091000D01*
X153983000Y-90051000D02*
X148017000Y-90051000D01*
X149960000Y-90011000D02*
X147981000Y-90011000D01*
X154019000Y-90011000D02*
X152040000Y-90011000D01*
X149960000Y-89971000D02*
X147945000Y-89971000D01*
X154055000Y-89971000D02*
X152040000Y-89971000D01*
X149960000Y-89931000D02*
X147910000Y-89931000D01*
X154090000Y-89931000D02*
X152040000Y-89931000D01*
X149960000Y-89891000D02*
X147876000Y-89891000D01*
X154124000Y-89891000D02*
X152040000Y-89891000D01*
X149960000Y-89851000D02*
X147844000Y-89851000D01*
X154156000Y-89851000D02*
X152040000Y-89851000D01*
X149960000Y-89811000D02*
X147811000Y-89811000D01*
X154189000Y-89811000D02*
X152040000Y-89811000D01*
X149960000Y-89771000D02*
X147780000Y-89771000D01*
X154220000Y-89771000D02*
X152040000Y-89771000D01*
X149960000Y-89731000D02*
X147750000Y-89731000D01*
X154250000Y-89731000D02*
X152040000Y-89731000D01*
X149960000Y-89691000D02*
X147720000Y-89691000D01*
X154280000Y-89691000D02*
X152040000Y-89691000D01*
X149960000Y-89651000D02*
X147691000Y-89651000D01*
X154309000Y-89651000D02*
X152040000Y-89651000D01*
X149960000Y-89611000D02*
X147662000Y-89611000D01*
X154338000Y-89611000D02*
X152040000Y-89611000D01*
X149960000Y-89571000D02*
X147635000Y-89571000D01*
X154365000Y-89571000D02*
X152040000Y-89571000D01*
X149960000Y-89531000D02*
X147608000Y-89531000D01*
X154392000Y-89531000D02*
X152040000Y-89531000D01*
X149960000Y-89491000D02*
X147582000Y-89491000D01*
X154418000Y-89491000D02*
X152040000Y-89491000D01*
X149960000Y-89451000D02*
X147556000Y-89451000D01*
X154444000Y-89451000D02*
X152040000Y-89451000D01*
X149960000Y-89411000D02*
X147531000Y-89411000D01*
X154469000Y-89411000D02*
X152040000Y-89411000D01*
X149960000Y-89371000D02*
X147507000Y-89371000D01*
X154493000Y-89371000D02*
X152040000Y-89371000D01*
X149960000Y-89331000D02*
X147483000Y-89331000D01*
X154517000Y-89331000D02*
X152040000Y-89331000D01*
X149960000Y-89291000D02*
X147460000Y-89291000D01*
X154540000Y-89291000D02*
X152040000Y-89291000D01*
X149960000Y-89251000D02*
X147438000Y-89251000D01*
X154562000Y-89251000D02*
X152040000Y-89251000D01*
X149960000Y-89211000D02*
X147416000Y-89211000D01*
X154584000Y-89211000D02*
X152040000Y-89211000D01*
X149960000Y-89171000D02*
X147394000Y-89171000D01*
X154606000Y-89171000D02*
X152040000Y-89171000D01*
X149960000Y-89131000D02*
X147373000Y-89131000D01*
X154627000Y-89131000D02*
X152040000Y-89131000D01*
X149960000Y-89091000D02*
X147353000Y-89091000D01*
X154647000Y-89091000D02*
X152040000Y-89091000D01*
X149960000Y-89051000D02*
X147334000Y-89051000D01*
X154666000Y-89051000D02*
X152040000Y-89051000D01*
X149960000Y-89011000D02*
X147314000Y-89011000D01*
X154686000Y-89011000D02*
X152040000Y-89011000D01*
X149960000Y-88971000D02*
X147296000Y-88971000D01*
X154704000Y-88971000D02*
X152040000Y-88971000D01*
X149960000Y-88931000D02*
X147278000Y-88931000D01*
X154722000Y-88931000D02*
X152040000Y-88931000D01*
X149960000Y-88891000D02*
X147260000Y-88891000D01*
X154740000Y-88891000D02*
X152040000Y-88891000D01*
X149960000Y-88851000D02*
X147243000Y-88851000D01*
X154757000Y-88851000D02*
X152040000Y-88851000D01*
X149960000Y-88811000D02*
X147226000Y-88811000D01*
X154774000Y-88811000D02*
X152040000Y-88811000D01*
X149960000Y-88771000D02*
X147210000Y-88771000D01*
X154790000Y-88771000D02*
X152040000Y-88771000D01*
X149960000Y-88731000D02*
X147195000Y-88731000D01*
X154805000Y-88731000D02*
X152040000Y-88731000D01*
X149960000Y-88691000D02*
X147179000Y-88691000D01*
X154821000Y-88691000D02*
X152040000Y-88691000D01*
X149960000Y-88651000D02*
X147165000Y-88651000D01*
X154835000Y-88651000D02*
X152040000Y-88651000D01*
X149960000Y-88611000D02*
X147150000Y-88611000D01*
X154850000Y-88611000D02*
X152040000Y-88611000D01*
X149960000Y-88571000D02*
X147137000Y-88571000D01*
X154863000Y-88571000D02*
X152040000Y-88571000D01*
X149960000Y-88531000D02*
X147123000Y-88531000D01*
X154877000Y-88531000D02*
X152040000Y-88531000D01*
X149960000Y-88491000D02*
X147111000Y-88491000D01*
X154889000Y-88491000D02*
X152040000Y-88491000D01*
X149960000Y-88451000D02*
X147098000Y-88451000D01*
X154902000Y-88451000D02*
X152040000Y-88451000D01*
X149960000Y-88411000D02*
X147086000Y-88411000D01*
X154914000Y-88411000D02*
X152040000Y-88411000D01*
X149960000Y-88371000D02*
X147075000Y-88371000D01*
X154925000Y-88371000D02*
X152040000Y-88371000D01*
X149960000Y-88331000D02*
X147064000Y-88331000D01*
X154936000Y-88331000D02*
X152040000Y-88331000D01*
X149960000Y-88291000D02*
X147053000Y-88291000D01*
X154947000Y-88291000D02*
X152040000Y-88291000D01*
X149960000Y-88251000D02*
X147043000Y-88251000D01*
X154957000Y-88251000D02*
X152040000Y-88251000D01*
X149960000Y-88211000D02*
X147033000Y-88211000D01*
X154967000Y-88211000D02*
X152040000Y-88211000D01*
X149960000Y-88171000D02*
X147024000Y-88171000D01*
X154976000Y-88171000D02*
X152040000Y-88171000D01*
X149960000Y-88131000D02*
X147015000Y-88131000D01*
X154985000Y-88131000D02*
X152040000Y-88131000D01*
X149960000Y-88091000D02*
X147006000Y-88091000D01*
X154994000Y-88091000D02*
X152040000Y-88091000D01*
X149960000Y-88051000D02*
X146998000Y-88051000D01*
X155002000Y-88051000D02*
X152040000Y-88051000D01*
X149960000Y-88011000D02*
X146990000Y-88011000D01*
X155010000Y-88011000D02*
X152040000Y-88011000D01*
X149960000Y-87971000D02*
X146983000Y-87971000D01*
X155017000Y-87971000D02*
X152040000Y-87971000D01*
X155024000Y-87930000D02*
X146976000Y-87930000D01*
X155030000Y-87890000D02*
X146970000Y-87890000D01*
X155037000Y-87850000D02*
X146963000Y-87850000D01*
X155042000Y-87810000D02*
X146958000Y-87810000D01*
X155048000Y-87770000D02*
X146952000Y-87770000D01*
X155052000Y-87730000D02*
X146948000Y-87730000D01*
X155057000Y-87690000D02*
X146943000Y-87690000D01*
X155061000Y-87650000D02*
X146939000Y-87650000D01*
X155065000Y-87610000D02*
X146935000Y-87610000D01*
X155068000Y-87570000D02*
X146932000Y-87570000D01*
X155071000Y-87530000D02*
X146929000Y-87530000D01*
X155074000Y-87490000D02*
X146926000Y-87490000D01*
X155076000Y-87450000D02*
X146924000Y-87450000D01*
X155077000Y-87410000D02*
X146923000Y-87410000D01*
X155079000Y-87370000D02*
X146921000Y-87370000D01*
X155080000Y-87330000D02*
X146920000Y-87330000D01*
X155080000Y-87290000D02*
X146920000Y-87290000D01*
X155080000Y-87250000D02*
X146920000Y-87250000D01*
X155120000Y-87250000D02*
G75*
G03X155120000Y-87250000I-4120000J0D01*
G01*
X148285000Y-80759698D02*
X149085000Y-80759698D01*
X148685000Y-81159698D02*
X148685000Y-80359698D01*
X150467000Y-72669000D02*
X151533000Y-72669000D01*
X150232000Y-72709000D02*
X151768000Y-72709000D01*
X150052000Y-72749000D02*
X151948000Y-72749000D01*
X149902000Y-72789000D02*
X152098000Y-72789000D01*
X149771000Y-72829000D02*
X152229000Y-72829000D01*
X149654000Y-72869000D02*
X152346000Y-72869000D01*
X149547000Y-72909000D02*
X152453000Y-72909000D01*
X149448000Y-72949000D02*
X152552000Y-72949000D01*
X149355000Y-72989000D02*
X152645000Y-72989000D01*
X149269000Y-73029000D02*
X152731000Y-73029000D01*
X149187000Y-73069000D02*
X152813000Y-73069000D01*
X149110000Y-73109000D02*
X152890000Y-73109000D01*
X149036000Y-73149000D02*
X152964000Y-73149000D01*
X148966000Y-73189000D02*
X153034000Y-73189000D01*
X148898000Y-73229000D02*
X153102000Y-73229000D01*
X148834000Y-73269000D02*
X153166000Y-73269000D01*
X148772000Y-73309000D02*
X153228000Y-73309000D01*
X148713000Y-73349000D02*
X153287000Y-73349000D01*
X148655000Y-73389000D02*
X153345000Y-73389000D01*
X148600000Y-73429000D02*
X153400000Y-73429000D01*
X148546000Y-73469000D02*
X153454000Y-73469000D01*
X148495000Y-73509000D02*
X153505000Y-73509000D01*
X148444000Y-73549000D02*
X153556000Y-73549000D01*
X148396000Y-73589000D02*
X153604000Y-73589000D01*
X148349000Y-73629000D02*
X153651000Y-73629000D01*
X148303000Y-73669000D02*
X153697000Y-73669000D01*
X148259000Y-73709000D02*
X153741000Y-73709000D01*
X148216000Y-73749000D02*
X153784000Y-73749000D01*
X148174000Y-73789000D02*
X153826000Y-73789000D01*
X148133000Y-73829000D02*
X153867000Y-73829000D01*
X148093000Y-73869000D02*
X153907000Y-73869000D01*
X148055000Y-73909000D02*
X153945000Y-73909000D01*
X148017000Y-73949000D02*
X153983000Y-73949000D01*
X152040000Y-73989000D02*
X154019000Y-73989000D01*
X147981000Y-73989000D02*
X149960000Y-73989000D01*
X152040000Y-74029000D02*
X154055000Y-74029000D01*
X147945000Y-74029000D02*
X149960000Y-74029000D01*
X152040000Y-74069000D02*
X154090000Y-74069000D01*
X147910000Y-74069000D02*
X149960000Y-74069000D01*
X152040000Y-74109000D02*
X154124000Y-74109000D01*
X147876000Y-74109000D02*
X149960000Y-74109000D01*
X152040000Y-74149000D02*
X154156000Y-74149000D01*
X147844000Y-74149000D02*
X149960000Y-74149000D01*
X152040000Y-74189000D02*
X154189000Y-74189000D01*
X147811000Y-74189000D02*
X149960000Y-74189000D01*
X152040000Y-74229000D02*
X154220000Y-74229000D01*
X147780000Y-74229000D02*
X149960000Y-74229000D01*
X152040000Y-74269000D02*
X154250000Y-74269000D01*
X147750000Y-74269000D02*
X149960000Y-74269000D01*
X152040000Y-74309000D02*
X154280000Y-74309000D01*
X147720000Y-74309000D02*
X149960000Y-74309000D01*
X152040000Y-74349000D02*
X154309000Y-74349000D01*
X147691000Y-74349000D02*
X149960000Y-74349000D01*
X152040000Y-74389000D02*
X154338000Y-74389000D01*
X147662000Y-74389000D02*
X149960000Y-74389000D01*
X152040000Y-74429000D02*
X154365000Y-74429000D01*
X147635000Y-74429000D02*
X149960000Y-74429000D01*
X152040000Y-74469000D02*
X154392000Y-74469000D01*
X147608000Y-74469000D02*
X149960000Y-74469000D01*
X152040000Y-74509000D02*
X154418000Y-74509000D01*
X147582000Y-74509000D02*
X149960000Y-74509000D01*
X152040000Y-74549000D02*
X154444000Y-74549000D01*
X147556000Y-74549000D02*
X149960000Y-74549000D01*
X152040000Y-74589000D02*
X154469000Y-74589000D01*
X147531000Y-74589000D02*
X149960000Y-74589000D01*
X152040000Y-74629000D02*
X154493000Y-74629000D01*
X147507000Y-74629000D02*
X149960000Y-74629000D01*
X152040000Y-74669000D02*
X154517000Y-74669000D01*
X147483000Y-74669000D02*
X149960000Y-74669000D01*
X152040000Y-74709000D02*
X154540000Y-74709000D01*
X147460000Y-74709000D02*
X149960000Y-74709000D01*
X152040000Y-74749000D02*
X154562000Y-74749000D01*
X147438000Y-74749000D02*
X149960000Y-74749000D01*
X152040000Y-74789000D02*
X154584000Y-74789000D01*
X147416000Y-74789000D02*
X149960000Y-74789000D01*
X152040000Y-74829000D02*
X154606000Y-74829000D01*
X147394000Y-74829000D02*
X149960000Y-74829000D01*
X152040000Y-74869000D02*
X154627000Y-74869000D01*
X147373000Y-74869000D02*
X149960000Y-74869000D01*
X152040000Y-74909000D02*
X154647000Y-74909000D01*
X147353000Y-74909000D02*
X149960000Y-74909000D01*
X152040000Y-74949000D02*
X154666000Y-74949000D01*
X147334000Y-74949000D02*
X149960000Y-74949000D01*
X152040000Y-74989000D02*
X154686000Y-74989000D01*
X147314000Y-74989000D02*
X149960000Y-74989000D01*
X152040000Y-75029000D02*
X154704000Y-75029000D01*
X147296000Y-75029000D02*
X149960000Y-75029000D01*
X152040000Y-75069000D02*
X154722000Y-75069000D01*
X147278000Y-75069000D02*
X149960000Y-75069000D01*
X152040000Y-75109000D02*
X154740000Y-75109000D01*
X147260000Y-75109000D02*
X149960000Y-75109000D01*
X152040000Y-75149000D02*
X154757000Y-75149000D01*
X147243000Y-75149000D02*
X149960000Y-75149000D01*
X152040000Y-75189000D02*
X154774000Y-75189000D01*
X147226000Y-75189000D02*
X149960000Y-75189000D01*
X152040000Y-75229000D02*
X154790000Y-75229000D01*
X147210000Y-75229000D02*
X149960000Y-75229000D01*
X152040000Y-75269000D02*
X154805000Y-75269000D01*
X147195000Y-75269000D02*
X149960000Y-75269000D01*
X152040000Y-75309000D02*
X154821000Y-75309000D01*
X147179000Y-75309000D02*
X149960000Y-75309000D01*
X152040000Y-75349000D02*
X154835000Y-75349000D01*
X147165000Y-75349000D02*
X149960000Y-75349000D01*
X152040000Y-75389000D02*
X154850000Y-75389000D01*
X147150000Y-75389000D02*
X149960000Y-75389000D01*
X152040000Y-75429000D02*
X154863000Y-75429000D01*
X147137000Y-75429000D02*
X149960000Y-75429000D01*
X152040000Y-75469000D02*
X154877000Y-75469000D01*
X147123000Y-75469000D02*
X149960000Y-75469000D01*
X152040000Y-75509000D02*
X154889000Y-75509000D01*
X147111000Y-75509000D02*
X149960000Y-75509000D01*
X152040000Y-75549000D02*
X154902000Y-75549000D01*
X147098000Y-75549000D02*
X149960000Y-75549000D01*
X152040000Y-75589000D02*
X154914000Y-75589000D01*
X147086000Y-75589000D02*
X149960000Y-75589000D01*
X152040000Y-75629000D02*
X154925000Y-75629000D01*
X147075000Y-75629000D02*
X149960000Y-75629000D01*
X152040000Y-75669000D02*
X154936000Y-75669000D01*
X147064000Y-75669000D02*
X149960000Y-75669000D01*
X152040000Y-75709000D02*
X154947000Y-75709000D01*
X147053000Y-75709000D02*
X149960000Y-75709000D01*
X152040000Y-75749000D02*
X154957000Y-75749000D01*
X147043000Y-75749000D02*
X149960000Y-75749000D01*
X152040000Y-75789000D02*
X154967000Y-75789000D01*
X147033000Y-75789000D02*
X149960000Y-75789000D01*
X152040000Y-75829000D02*
X154976000Y-75829000D01*
X147024000Y-75829000D02*
X149960000Y-75829000D01*
X152040000Y-75869000D02*
X154985000Y-75869000D01*
X147015000Y-75869000D02*
X149960000Y-75869000D01*
X152040000Y-75909000D02*
X154994000Y-75909000D01*
X147006000Y-75909000D02*
X149960000Y-75909000D01*
X152040000Y-75949000D02*
X155002000Y-75949000D01*
X146998000Y-75949000D02*
X149960000Y-75949000D01*
X152040000Y-75989000D02*
X155010000Y-75989000D01*
X146990000Y-75989000D02*
X149960000Y-75989000D01*
X152040000Y-76029000D02*
X155017000Y-76029000D01*
X146983000Y-76029000D02*
X149960000Y-76029000D01*
X146976000Y-76070000D02*
X155024000Y-76070000D01*
X146970000Y-76110000D02*
X155030000Y-76110000D01*
X146963000Y-76150000D02*
X155037000Y-76150000D01*
X146958000Y-76190000D02*
X155042000Y-76190000D01*
X146952000Y-76230000D02*
X155048000Y-76230000D01*
X146948000Y-76270000D02*
X155052000Y-76270000D01*
X146943000Y-76310000D02*
X155057000Y-76310000D01*
X146939000Y-76350000D02*
X155061000Y-76350000D01*
X146935000Y-76390000D02*
X155065000Y-76390000D01*
X146932000Y-76430000D02*
X155068000Y-76430000D01*
X146929000Y-76470000D02*
X155071000Y-76470000D01*
X146926000Y-76510000D02*
X155074000Y-76510000D01*
X146924000Y-76550000D02*
X155076000Y-76550000D01*
X146923000Y-76590000D02*
X155077000Y-76590000D01*
X146921000Y-76630000D02*
X155079000Y-76630000D01*
X146920000Y-76670000D02*
X155080000Y-76670000D01*
X146920000Y-76710000D02*
X155080000Y-76710000D01*
X146920000Y-76750000D02*
X155080000Y-76750000D01*
X155120000Y-76750000D02*
G75*
G03X155120000Y-76750000I-4120000J0D01*
G01*
X108290000Y-90763748D02*
X108290000Y-91286252D01*
X109710000Y-90763748D02*
X109710000Y-91286252D01*
X119261252Y-92290000D02*
X118738748Y-92290000D01*
X119261252Y-93710000D02*
X118738748Y-93710000D01*
X118738748Y-71710000D02*
X119261252Y-71710000D01*
X118738748Y-70290000D02*
X119261252Y-70290000D01*
X106650000Y-99250000D02*
X106650000Y-100500000D01*
X107900000Y-99250000D02*
X106650000Y-99250000D01*
X116300000Y-104750000D02*
X112000000Y-104750000D01*
X116300000Y-101800000D02*
X116300000Y-104750000D01*
X117050000Y-101800000D02*
X116300000Y-101800000D01*
X107700000Y-104750000D02*
X112000000Y-104750000D01*
X107700000Y-101800000D02*
X107700000Y-104750000D01*
X106950000Y-101800000D02*
X107700000Y-101800000D01*
X117050000Y-99550000D02*
X115250000Y-99550000D01*
X117050000Y-100300000D02*
X117050000Y-99550000D01*
X115250000Y-100300000D02*
X117050000Y-100300000D01*
X115250000Y-99550000D02*
X115250000Y-100300000D01*
X108750000Y-99550000D02*
X106950000Y-99550000D01*
X108750000Y-100300000D02*
X108750000Y-99550000D01*
X106950000Y-100300000D02*
X108750000Y-100300000D01*
X106950000Y-99550000D02*
X106950000Y-100300000D01*
X113750000Y-99550000D02*
X110250000Y-99550000D01*
X113750000Y-100300000D02*
X113750000Y-99550000D01*
X110250000Y-100300000D02*
X113750000Y-100300000D01*
X110250000Y-99550000D02*
X110250000Y-100300000D01*
X117060000Y-99540000D02*
X106940000Y-99540000D01*
X117060000Y-105510000D02*
X117060000Y-99540000D01*
X106940000Y-105510000D02*
X117060000Y-105510000D01*
X106940000Y-99540000D02*
X106940000Y-105510000D01*
X123750000Y-53650000D02*
X122500000Y-53650000D01*
X123750000Y-54900000D02*
X123750000Y-53650000D01*
X118250000Y-63300000D02*
X118250000Y-59000000D01*
X121200000Y-63300000D02*
X118250000Y-63300000D01*
X121200000Y-64050000D02*
X121200000Y-63300000D01*
X118250000Y-54700000D02*
X118250000Y-59000000D01*
X121200000Y-54700000D02*
X118250000Y-54700000D01*
X121200000Y-53950000D02*
X121200000Y-54700000D01*
X123450000Y-64050000D02*
X123450000Y-62250000D01*
X122700000Y-64050000D02*
X123450000Y-64050000D01*
X122700000Y-62250000D02*
X122700000Y-64050000D01*
X123450000Y-62250000D02*
X122700000Y-62250000D01*
X123450000Y-55750000D02*
X123450000Y-53950000D01*
X122700000Y-55750000D02*
X123450000Y-55750000D01*
X122700000Y-53950000D02*
X122700000Y-55750000D01*
X123450000Y-53950000D02*
X122700000Y-53950000D01*
X123450000Y-60750000D02*
X123450000Y-57250000D01*
X122700000Y-60750000D02*
X123450000Y-60750000D01*
X122700000Y-57250000D02*
X122700000Y-60750000D01*
X123450000Y-57250000D02*
X122700000Y-57250000D01*
X123460000Y-64060000D02*
X123460000Y-53940000D01*
X117490000Y-64060000D02*
X123460000Y-64060000D01*
X117490000Y-53940000D02*
X117490000Y-64060000D01*
X123460000Y-53940000D02*
X117490000Y-53940000D01*
X132750000Y-53650000D02*
X131500000Y-53650000D01*
X132750000Y-54900000D02*
X132750000Y-53650000D01*
X127250000Y-63300000D02*
X127250000Y-59000000D01*
X130200000Y-63300000D02*
X127250000Y-63300000D01*
X130200000Y-64050000D02*
X130200000Y-63300000D01*
X127250000Y-54700000D02*
X127250000Y-59000000D01*
X130200000Y-54700000D02*
X127250000Y-54700000D01*
X130200000Y-53950000D02*
X130200000Y-54700000D01*
X132450000Y-64050000D02*
X132450000Y-62250000D01*
X131700000Y-64050000D02*
X132450000Y-64050000D01*
X131700000Y-62250000D02*
X131700000Y-64050000D01*
X132450000Y-62250000D02*
X131700000Y-62250000D01*
X132450000Y-55750000D02*
X132450000Y-53950000D01*
X131700000Y-55750000D02*
X132450000Y-55750000D01*
X131700000Y-53950000D02*
X131700000Y-55750000D01*
X132450000Y-53950000D02*
X131700000Y-53950000D01*
X132450000Y-60750000D02*
X132450000Y-57250000D01*
X131700000Y-60750000D02*
X132450000Y-60750000D01*
X131700000Y-57250000D02*
X131700000Y-60750000D01*
X132450000Y-57250000D02*
X131700000Y-57250000D01*
X132460000Y-64060000D02*
X132460000Y-53940000D01*
X126490000Y-64060000D02*
X132460000Y-64060000D01*
X126490000Y-53940000D02*
X126490000Y-64060000D01*
X132460000Y-53940000D02*
X126490000Y-53940000D01*
X141750000Y-53650000D02*
X140500000Y-53650000D01*
X141750000Y-54900000D02*
X141750000Y-53650000D01*
X136250000Y-63300000D02*
X136250000Y-59000000D01*
X139200000Y-63300000D02*
X136250000Y-63300000D01*
X139200000Y-64050000D02*
X139200000Y-63300000D01*
X136250000Y-54700000D02*
X136250000Y-59000000D01*
X139200000Y-54700000D02*
X136250000Y-54700000D01*
X139200000Y-53950000D02*
X139200000Y-54700000D01*
X141450000Y-64050000D02*
X141450000Y-62250000D01*
X140700000Y-64050000D02*
X141450000Y-64050000D01*
X140700000Y-62250000D02*
X140700000Y-64050000D01*
X141450000Y-62250000D02*
X140700000Y-62250000D01*
X141450000Y-55750000D02*
X141450000Y-53950000D01*
X140700000Y-55750000D02*
X141450000Y-55750000D01*
X140700000Y-53950000D02*
X140700000Y-55750000D01*
X141450000Y-53950000D02*
X140700000Y-53950000D01*
X141450000Y-60750000D02*
X141450000Y-57250000D01*
X140700000Y-60750000D02*
X141450000Y-60750000D01*
X140700000Y-57250000D02*
X140700000Y-60750000D01*
X141450000Y-57250000D02*
X140700000Y-57250000D01*
X141460000Y-64060000D02*
X141460000Y-53940000D01*
X135490000Y-64060000D02*
X141460000Y-64060000D01*
X135490000Y-53940000D02*
X135490000Y-64060000D01*
X141460000Y-53940000D02*
X135490000Y-53940000D01*
X150750000Y-53650000D02*
X149500000Y-53650000D01*
X150750000Y-54900000D02*
X150750000Y-53650000D01*
X145250000Y-63300000D02*
X145250000Y-59000000D01*
X148200000Y-63300000D02*
X145250000Y-63300000D01*
X148200000Y-64050000D02*
X148200000Y-63300000D01*
X145250000Y-54700000D02*
X145250000Y-59000000D01*
X148200000Y-54700000D02*
X145250000Y-54700000D01*
X148200000Y-53950000D02*
X148200000Y-54700000D01*
X150450000Y-64050000D02*
X150450000Y-62250000D01*
X149700000Y-64050000D02*
X150450000Y-64050000D01*
X149700000Y-62250000D02*
X149700000Y-64050000D01*
X150450000Y-62250000D02*
X149700000Y-62250000D01*
X150450000Y-55750000D02*
X150450000Y-53950000D01*
X149700000Y-55750000D02*
X150450000Y-55750000D01*
X149700000Y-53950000D02*
X149700000Y-55750000D01*
X150450000Y-53950000D02*
X149700000Y-53950000D01*
X150450000Y-60750000D02*
X150450000Y-57250000D01*
X149700000Y-60750000D02*
X150450000Y-60750000D01*
X149700000Y-57250000D02*
X149700000Y-60750000D01*
X150450000Y-57250000D02*
X149700000Y-57250000D01*
X150460000Y-64060000D02*
X150460000Y-53940000D01*
X144490000Y-64060000D02*
X150460000Y-64060000D01*
X144490000Y-53940000D02*
X144490000Y-64060000D01*
X150460000Y-53940000D02*
X144490000Y-53940000D01*
X107920000Y-83710000D02*
X107764000Y-83710000D01*
X110236000Y-83710000D02*
X110080000Y-83710000D01*
X107920163Y-86311130D02*
G75*
G02X107920000Y-84229039I1079837J1041130D01*
G01*
X110079837Y-86311130D02*
G75*
G03X110080000Y-84229039I-1079837J1041130D01*
G01*
X107921392Y-86942335D02*
G75*
G02X107764484Y-83710000I1078608J1672335D01*
G01*
X110078608Y-86942335D02*
G75*
G03X110235516Y-83710000I-1078608J1672335D01*
G01*
X125328733Y-90510000D02*
X125671267Y-90510000D01*
X125328733Y-89490000D02*
X125671267Y-89490000D01*
X125238748Y-93710000D02*
X125761252Y-93710000D01*
X125238748Y-92290000D02*
X125761252Y-92290000D01*
X129828733Y-90510000D02*
X130171267Y-90510000D01*
X129828733Y-89490000D02*
X130171267Y-89490000D01*
X129738748Y-93710000D02*
X130261252Y-93710000D01*
X129738748Y-92290000D02*
X130261252Y-92290000D01*
X118738748Y-87710000D02*
X119261252Y-87710000D01*
X118738748Y-86290000D02*
X119261252Y-86290000D01*
X119261252Y-76290000D02*
X118738748Y-76290000D01*
X119261252Y-77710000D02*
X118738748Y-77710000D01*
X118828733Y-84510000D02*
X119171267Y-84510000D01*
X118828733Y-83490000D02*
X119171267Y-83490000D01*
X119171267Y-79490000D02*
X118828733Y-79490000D01*
X119171267Y-80510000D02*
X118828733Y-80510000D01*
X118738748Y-90710000D02*
X119261252Y-90710000D01*
X118738748Y-89290000D02*
X119261252Y-89290000D01*
X119261252Y-73290000D02*
X118738748Y-73290000D01*
X119261252Y-74710000D02*
X118738748Y-74710000D01*
X130261252Y-71790000D02*
X129738748Y-71790000D01*
X130261252Y-73210000D02*
X129738748Y-73210000D01*
X134710000Y-91761252D02*
X134710000Y-91238748D01*
X133290000Y-91761252D02*
X133290000Y-91238748D01*
X134710000Y-72761252D02*
X134710000Y-72238748D01*
X133290000Y-72761252D02*
X133290000Y-72238748D01*
X141261252Y-92290000D02*
X140738748Y-92290000D01*
X141261252Y-93710000D02*
X140738748Y-93710000D01*
X140738748Y-71710000D02*
X141261252Y-71710000D01*
X140738748Y-70290000D02*
X141261252Y-70290000D01*
X141261252Y-89290000D02*
X140738748Y-89290000D01*
X141261252Y-90710000D02*
X140738748Y-90710000D01*
X140738748Y-74710000D02*
X141261252Y-74710000D01*
X140738748Y-73290000D02*
X141261252Y-73290000D01*
X141261252Y-86290000D02*
X140738748Y-86290000D01*
X141261252Y-87710000D02*
X140738748Y-87710000D01*
X140738748Y-77710000D02*
X141261252Y-77710000D01*
X140738748Y-76290000D02*
X141261252Y-76290000D01*
X141261252Y-83290000D02*
X140738748Y-83290000D01*
X141261252Y-84710000D02*
X140738748Y-84710000D01*
X140738748Y-80710000D02*
X141261252Y-80710000D01*
X140738748Y-79290000D02*
X141261252Y-79290000D01*
D11*
X140857142Y-107452380D02*
X140857142Y-106452380D01*
X141428571Y-107452380D01*
X141428571Y-106452380D01*
X141761904Y-106452380D02*
X142333333Y-106452380D01*
X142047619Y-107452380D02*
X142047619Y-106452380D01*
X143190476Y-107452380D02*
X142619047Y-107452380D01*
X142904761Y-107452380D02*
X142904761Y-106452380D01*
X142809523Y-106595238D01*
X142714285Y-106690476D01*
X142619047Y-106738095D01*
X131488095Y-82452380D02*
X131488095Y-83261904D01*
X131535714Y-83357142D01*
X131583333Y-83404761D01*
X131678571Y-83452380D01*
X131869047Y-83452380D01*
X131964285Y-83404761D01*
X132011904Y-83357142D01*
X132059523Y-83261904D01*
X132059523Y-82452380D01*
X133059523Y-83452380D02*
X132488095Y-83452380D01*
X132773809Y-83452380D02*
X132773809Y-82452380D01*
X132678571Y-82595238D01*
X132583333Y-82690476D01*
X132488095Y-82738095D01*
X108916666Y-62752380D02*
X108916666Y-63466666D01*
X108869047Y-63609523D01*
X108773809Y-63704761D01*
X108630952Y-63752380D01*
X108535714Y-63752380D01*
X109821428Y-62752380D02*
X109630952Y-62752380D01*
X109535714Y-62800000D01*
X109488095Y-62847619D01*
X109392857Y-62990476D01*
X109345238Y-63180952D01*
X109345238Y-63561904D01*
X109392857Y-63657142D01*
X109440476Y-63704761D01*
X109535714Y-63752380D01*
X109726190Y-63752380D01*
X109821428Y-63704761D01*
X109869047Y-63657142D01*
X109916666Y-63561904D01*
X109916666Y-63323809D01*
X109869047Y-63228571D01*
X109821428Y-63180952D01*
X109726190Y-63133333D01*
X109535714Y-63133333D01*
X109440476Y-63180952D01*
X109392857Y-63228571D01*
X109345238Y-63323809D01*
X108666666Y-69952380D02*
X108666666Y-70666666D01*
X108619047Y-70809523D01*
X108523809Y-70904761D01*
X108380952Y-70952380D01*
X108285714Y-70952380D01*
X109666666Y-70952380D02*
X109095238Y-70952380D01*
X109380952Y-70952380D02*
X109380952Y-69952380D01*
X109285714Y-70095238D01*
X109190476Y-70190476D01*
X109095238Y-70238095D01*
X125357142Y-104357142D02*
X125309523Y-104404761D01*
X125166666Y-104452380D01*
X125071428Y-104452380D01*
X124928571Y-104404761D01*
X124833333Y-104309523D01*
X124785714Y-104214285D01*
X124738095Y-104023809D01*
X124738095Y-103880952D01*
X124785714Y-103690476D01*
X124833333Y-103595238D01*
X124928571Y-103500000D01*
X125071428Y-103452380D01*
X125166666Y-103452380D01*
X125309523Y-103500000D01*
X125357142Y-103547619D01*
X125738095Y-103547619D02*
X125785714Y-103500000D01*
X125880952Y-103452380D01*
X126119047Y-103452380D01*
X126214285Y-103500000D01*
X126261904Y-103547619D01*
X126309523Y-103642857D01*
X126309523Y-103738095D01*
X126261904Y-103880952D01*
X125690476Y-104452380D01*
X126309523Y-104452380D01*
X126642857Y-103452380D02*
X127261904Y-103452380D01*
X126928571Y-103833333D01*
X127071428Y-103833333D01*
X127166666Y-103880952D01*
X127214285Y-103928571D01*
X127261904Y-104023809D01*
X127261904Y-104261904D01*
X127214285Y-104357142D01*
X127166666Y-104404761D01*
X127071428Y-104452380D01*
X126785714Y-104452380D01*
X126690476Y-104404761D01*
X126642857Y-104357142D01*
X136857142Y-104357142D02*
X136809523Y-104404761D01*
X136666666Y-104452380D01*
X136571428Y-104452380D01*
X136428571Y-104404761D01*
X136333333Y-104309523D01*
X136285714Y-104214285D01*
X136238095Y-104023809D01*
X136238095Y-103880952D01*
X136285714Y-103690476D01*
X136333333Y-103595238D01*
X136428571Y-103500000D01*
X136571428Y-103452380D01*
X136666666Y-103452380D01*
X136809523Y-103500000D01*
X136857142Y-103547619D01*
X137238095Y-103547619D02*
X137285714Y-103500000D01*
X137380952Y-103452380D01*
X137619047Y-103452380D01*
X137714285Y-103500000D01*
X137761904Y-103547619D01*
X137809523Y-103642857D01*
X137809523Y-103738095D01*
X137761904Y-103880952D01*
X137190476Y-104452380D01*
X137809523Y-104452380D01*
X138428571Y-103452380D02*
X138523809Y-103452380D01*
X138619047Y-103500000D01*
X138666666Y-103547619D01*
X138714285Y-103642857D01*
X138761904Y-103833333D01*
X138761904Y-104071428D01*
X138714285Y-104261904D01*
X138666666Y-104357142D01*
X138619047Y-104404761D01*
X138523809Y-104452380D01*
X138428571Y-104452380D01*
X138333333Y-104404761D01*
X138285714Y-104357142D01*
X138238095Y-104261904D01*
X138190476Y-104071428D01*
X138190476Y-103833333D01*
X138238095Y-103642857D01*
X138285714Y-103547619D01*
X138333333Y-103500000D01*
X138428571Y-103452380D01*
X147817142Y-85857142D02*
X147769523Y-85904761D01*
X147626666Y-85952380D01*
X147531428Y-85952380D01*
X147388571Y-85904761D01*
X147293333Y-85809523D01*
X147245714Y-85714285D01*
X147198095Y-85523809D01*
X147198095Y-85380952D01*
X147245714Y-85190476D01*
X147293333Y-85095238D01*
X147388571Y-85000000D01*
X147531428Y-84952380D01*
X147626666Y-84952380D01*
X147769523Y-85000000D01*
X147817142Y-85047619D01*
X148769523Y-85952380D02*
X148198095Y-85952380D01*
X148483809Y-85952380D02*
X148483809Y-84952380D01*
X148388571Y-85095238D01*
X148293333Y-85190476D01*
X148198095Y-85238095D01*
X149388571Y-84952380D02*
X149483809Y-84952380D01*
X149579047Y-85000000D01*
X149626666Y-85047619D01*
X149674285Y-85142857D01*
X149721904Y-85333333D01*
X149721904Y-85571428D01*
X149674285Y-85761904D01*
X149626666Y-85857142D01*
X149579047Y-85904761D01*
X149483809Y-85952380D01*
X149388571Y-85952380D01*
X149293333Y-85904761D01*
X149245714Y-85857142D01*
X149198095Y-85761904D01*
X149150476Y-85571428D01*
X149150476Y-85333333D01*
X149198095Y-85142857D01*
X149245714Y-85047619D01*
X149293333Y-85000000D01*
X149388571Y-84952380D01*
X148833333Y-78857142D02*
X148785714Y-78904761D01*
X148642857Y-78952380D01*
X148547619Y-78952380D01*
X148404761Y-78904761D01*
X148309523Y-78809523D01*
X148261904Y-78714285D01*
X148214285Y-78523809D01*
X148214285Y-78380952D01*
X148261904Y-78190476D01*
X148309523Y-78095238D01*
X148404761Y-78000000D01*
X148547619Y-77952380D01*
X148642857Y-77952380D01*
X148785714Y-78000000D01*
X148833333Y-78047619D01*
X149309523Y-78952380D02*
X149500000Y-78952380D01*
X149595238Y-78904761D01*
X149642857Y-78857142D01*
X149738095Y-78714285D01*
X149785714Y-78523809D01*
X149785714Y-78142857D01*
X149738095Y-78047619D01*
X149690476Y-78000000D01*
X149595238Y-77952380D01*
X149404761Y-77952380D01*
X149309523Y-78000000D01*
X149261904Y-78047619D01*
X149214285Y-78142857D01*
X149214285Y-78380952D01*
X149261904Y-78476190D01*
X149309523Y-78523809D01*
X149404761Y-78571428D01*
X149595238Y-78571428D01*
X149690476Y-78523809D01*
X149738095Y-78476190D01*
X149785714Y-78380952D01*
X106833333Y-91452380D02*
X106500000Y-90976190D01*
X106261904Y-91452380D02*
X106261904Y-90452380D01*
X106642857Y-90452380D01*
X106738095Y-90500000D01*
X106785714Y-90547619D01*
X106833333Y-90642857D01*
X106833333Y-90785714D01*
X106785714Y-90880952D01*
X106738095Y-90928571D01*
X106642857Y-90976190D01*
X106261904Y-90976190D01*
X107166666Y-90452380D02*
X107785714Y-90452380D01*
X107452380Y-90833333D01*
X107595238Y-90833333D01*
X107690476Y-90880952D01*
X107738095Y-90928571D01*
X107785714Y-91023809D01*
X107785714Y-91261904D01*
X107738095Y-91357142D01*
X107690476Y-91404761D01*
X107595238Y-91452380D01*
X107309523Y-91452380D01*
X107214285Y-91404761D01*
X107166666Y-91357142D01*
X116083333Y-93452380D02*
X115750000Y-92976190D01*
X115511904Y-93452380D02*
X115511904Y-92452380D01*
X115892857Y-92452380D01*
X115988095Y-92500000D01*
X116035714Y-92547619D01*
X116083333Y-92642857D01*
X116083333Y-92785714D01*
X116035714Y-92880952D01*
X115988095Y-92928571D01*
X115892857Y-92976190D01*
X115511904Y-92976190D01*
X116464285Y-92547619D02*
X116511904Y-92500000D01*
X116607142Y-92452380D01*
X116845238Y-92452380D01*
X116940476Y-92500000D01*
X116988095Y-92547619D01*
X117035714Y-92642857D01*
X117035714Y-92738095D01*
X116988095Y-92880952D01*
X116416666Y-93452380D01*
X117035714Y-93452380D01*
X116083333Y-71452380D02*
X115750000Y-70976190D01*
X115511904Y-71452380D02*
X115511904Y-70452380D01*
X115892857Y-70452380D01*
X115988095Y-70500000D01*
X116035714Y-70547619D01*
X116083333Y-70642857D01*
X116083333Y-70785714D01*
X116035714Y-70880952D01*
X115988095Y-70928571D01*
X115892857Y-70976190D01*
X115511904Y-70976190D01*
X117035714Y-71452380D02*
X116464285Y-71452380D01*
X116750000Y-71452380D02*
X116750000Y-70452380D01*
X116654761Y-70595238D01*
X116559523Y-70690476D01*
X116464285Y-70738095D01*
X107366666Y-104202380D02*
X107366666Y-104916666D01*
X107319047Y-105059523D01*
X107223809Y-105154761D01*
X107080952Y-105202380D01*
X106985714Y-105202380D01*
X107747619Y-104202380D02*
X108414285Y-104202380D01*
X107985714Y-105202380D01*
X117916666Y-62752380D02*
X117916666Y-63466666D01*
X117869047Y-63609523D01*
X117773809Y-63704761D01*
X117630952Y-63752380D01*
X117535714Y-63752380D01*
X118869047Y-62752380D02*
X118392857Y-62752380D01*
X118345238Y-63228571D01*
X118392857Y-63180952D01*
X118488095Y-63133333D01*
X118726190Y-63133333D01*
X118821428Y-63180952D01*
X118869047Y-63228571D01*
X118916666Y-63323809D01*
X118916666Y-63561904D01*
X118869047Y-63657142D01*
X118821428Y-63704761D01*
X118726190Y-63752380D01*
X118488095Y-63752380D01*
X118392857Y-63704761D01*
X118345238Y-63657142D01*
X126916666Y-62752380D02*
X126916666Y-63466666D01*
X126869047Y-63609523D01*
X126773809Y-63704761D01*
X126630952Y-63752380D01*
X126535714Y-63752380D01*
X127821428Y-63085714D02*
X127821428Y-63752380D01*
X127583333Y-62704761D02*
X127345238Y-63419047D01*
X127964285Y-63419047D01*
X135916666Y-62752380D02*
X135916666Y-63466666D01*
X135869047Y-63609523D01*
X135773809Y-63704761D01*
X135630952Y-63752380D01*
X135535714Y-63752380D01*
X136297619Y-62752380D02*
X136916666Y-62752380D01*
X136583333Y-63133333D01*
X136726190Y-63133333D01*
X136821428Y-63180952D01*
X136869047Y-63228571D01*
X136916666Y-63323809D01*
X136916666Y-63561904D01*
X136869047Y-63657142D01*
X136821428Y-63704761D01*
X136726190Y-63752380D01*
X136440476Y-63752380D01*
X136345238Y-63704761D01*
X136297619Y-63657142D01*
X144916666Y-62752380D02*
X144916666Y-63466666D01*
X144869047Y-63609523D01*
X144773809Y-63704761D01*
X144630952Y-63752380D01*
X144535714Y-63752380D01*
X145345238Y-62847619D02*
X145392857Y-62800000D01*
X145488095Y-62752380D01*
X145726190Y-62752380D01*
X145821428Y-62800000D01*
X145869047Y-62847619D01*
X145916666Y-62942857D01*
X145916666Y-63038095D01*
X145869047Y-63180952D01*
X145297619Y-63752380D01*
X145916666Y-63752380D01*
X105261904Y-85722380D02*
X105261904Y-84722380D01*
X105500000Y-84722380D01*
X105642857Y-84770000D01*
X105738095Y-84865238D01*
X105785714Y-84960476D01*
X105833333Y-85150952D01*
X105833333Y-85293809D01*
X105785714Y-85484285D01*
X105738095Y-85579523D01*
X105642857Y-85674761D01*
X105500000Y-85722380D01*
X105261904Y-85722380D01*
X106785714Y-85722380D02*
X106214285Y-85722380D01*
X106500000Y-85722380D02*
X106500000Y-84722380D01*
X106404761Y-84865238D01*
X106309523Y-84960476D01*
X106214285Y-85008095D01*
X124857142Y-89107142D02*
X124809523Y-89154761D01*
X124666666Y-89202380D01*
X124571428Y-89202380D01*
X124428571Y-89154761D01*
X124333333Y-89059523D01*
X124285714Y-88964285D01*
X124238095Y-88773809D01*
X124238095Y-88630952D01*
X124285714Y-88440476D01*
X124333333Y-88345238D01*
X124428571Y-88250000D01*
X124571428Y-88202380D01*
X124666666Y-88202380D01*
X124809523Y-88250000D01*
X124857142Y-88297619D01*
X125238095Y-88297619D02*
X125285714Y-88250000D01*
X125380952Y-88202380D01*
X125619047Y-88202380D01*
X125714285Y-88250000D01*
X125761904Y-88297619D01*
X125809523Y-88392857D01*
X125809523Y-88488095D01*
X125761904Y-88630952D01*
X125190476Y-89202380D01*
X125809523Y-89202380D01*
X126714285Y-88202380D02*
X126238095Y-88202380D01*
X126190476Y-88678571D01*
X126238095Y-88630952D01*
X126333333Y-88583333D01*
X126571428Y-88583333D01*
X126666666Y-88630952D01*
X126714285Y-88678571D01*
X126761904Y-88773809D01*
X126761904Y-89011904D01*
X126714285Y-89107142D01*
X126666666Y-89154761D01*
X126571428Y-89202380D01*
X126333333Y-89202380D01*
X126238095Y-89154761D01*
X126190476Y-89107142D01*
X124857142Y-94857142D02*
X124809523Y-94904761D01*
X124666666Y-94952380D01*
X124571428Y-94952380D01*
X124428571Y-94904761D01*
X124333333Y-94809523D01*
X124285714Y-94714285D01*
X124238095Y-94523809D01*
X124238095Y-94380952D01*
X124285714Y-94190476D01*
X124333333Y-94095238D01*
X124428571Y-94000000D01*
X124571428Y-93952380D01*
X124666666Y-93952380D01*
X124809523Y-94000000D01*
X124857142Y-94047619D01*
X125238095Y-94047619D02*
X125285714Y-94000000D01*
X125380952Y-93952380D01*
X125619047Y-93952380D01*
X125714285Y-94000000D01*
X125761904Y-94047619D01*
X125809523Y-94142857D01*
X125809523Y-94238095D01*
X125761904Y-94380952D01*
X125190476Y-94952380D01*
X125809523Y-94952380D01*
X126666666Y-94285714D02*
X126666666Y-94952380D01*
X126428571Y-93904761D02*
X126190476Y-94619047D01*
X126809523Y-94619047D01*
X129357142Y-89107142D02*
X129309523Y-89154761D01*
X129166666Y-89202380D01*
X129071428Y-89202380D01*
X128928571Y-89154761D01*
X128833333Y-89059523D01*
X128785714Y-88964285D01*
X128738095Y-88773809D01*
X128738095Y-88630952D01*
X128785714Y-88440476D01*
X128833333Y-88345238D01*
X128928571Y-88250000D01*
X129071428Y-88202380D01*
X129166666Y-88202380D01*
X129309523Y-88250000D01*
X129357142Y-88297619D01*
X129738095Y-88297619D02*
X129785714Y-88250000D01*
X129880952Y-88202380D01*
X130119047Y-88202380D01*
X130214285Y-88250000D01*
X130261904Y-88297619D01*
X130309523Y-88392857D01*
X130309523Y-88488095D01*
X130261904Y-88630952D01*
X129690476Y-89202380D01*
X130309523Y-89202380D01*
X130690476Y-88297619D02*
X130738095Y-88250000D01*
X130833333Y-88202380D01*
X131071428Y-88202380D01*
X131166666Y-88250000D01*
X131214285Y-88297619D01*
X131261904Y-88392857D01*
X131261904Y-88488095D01*
X131214285Y-88630952D01*
X130642857Y-89202380D01*
X131261904Y-89202380D01*
X129357142Y-94857142D02*
X129309523Y-94904761D01*
X129166666Y-94952380D01*
X129071428Y-94952380D01*
X128928571Y-94904761D01*
X128833333Y-94809523D01*
X128785714Y-94714285D01*
X128738095Y-94523809D01*
X128738095Y-94380952D01*
X128785714Y-94190476D01*
X128833333Y-94095238D01*
X128928571Y-94000000D01*
X129071428Y-93952380D01*
X129166666Y-93952380D01*
X129309523Y-94000000D01*
X129357142Y-94047619D01*
X129738095Y-94047619D02*
X129785714Y-94000000D01*
X129880952Y-93952380D01*
X130119047Y-93952380D01*
X130214285Y-94000000D01*
X130261904Y-94047619D01*
X130309523Y-94142857D01*
X130309523Y-94238095D01*
X130261904Y-94380952D01*
X129690476Y-94952380D01*
X130309523Y-94952380D01*
X131261904Y-94952380D02*
X130690476Y-94952380D01*
X130976190Y-94952380D02*
X130976190Y-93952380D01*
X130880952Y-94095238D01*
X130785714Y-94190476D01*
X130690476Y-94238095D01*
X115107142Y-87357142D02*
X115059523Y-87404761D01*
X114916666Y-87452380D01*
X114821428Y-87452380D01*
X114678571Y-87404761D01*
X114583333Y-87309523D01*
X114535714Y-87214285D01*
X114488095Y-87023809D01*
X114488095Y-86880952D01*
X114535714Y-86690476D01*
X114583333Y-86595238D01*
X114678571Y-86500000D01*
X114821428Y-86452380D01*
X114916666Y-86452380D01*
X115059523Y-86500000D01*
X115107142Y-86547619D01*
X116059523Y-87452380D02*
X115488095Y-87452380D01*
X115773809Y-87452380D02*
X115773809Y-86452380D01*
X115678571Y-86595238D01*
X115583333Y-86690476D01*
X115488095Y-86738095D01*
X116535714Y-87452380D02*
X116726190Y-87452380D01*
X116821428Y-87404761D01*
X116869047Y-87357142D01*
X116964285Y-87214285D01*
X117011904Y-87023809D01*
X117011904Y-86642857D01*
X116964285Y-86547619D01*
X116916666Y-86500000D01*
X116821428Y-86452380D01*
X116630952Y-86452380D01*
X116535714Y-86500000D01*
X116488095Y-86547619D01*
X116440476Y-86642857D01*
X116440476Y-86880952D01*
X116488095Y-86976190D01*
X116535714Y-87023809D01*
X116630952Y-87071428D01*
X116821428Y-87071428D01*
X116916666Y-87023809D01*
X116964285Y-86976190D01*
X117011904Y-86880952D01*
X115107142Y-77357142D02*
X115059523Y-77404761D01*
X114916666Y-77452380D01*
X114821428Y-77452380D01*
X114678571Y-77404761D01*
X114583333Y-77309523D01*
X114535714Y-77214285D01*
X114488095Y-77023809D01*
X114488095Y-76880952D01*
X114535714Y-76690476D01*
X114583333Y-76595238D01*
X114678571Y-76500000D01*
X114821428Y-76452380D01*
X114916666Y-76452380D01*
X115059523Y-76500000D01*
X115107142Y-76547619D01*
X116059523Y-77452380D02*
X115488095Y-77452380D01*
X115773809Y-77452380D02*
X115773809Y-76452380D01*
X115678571Y-76595238D01*
X115583333Y-76690476D01*
X115488095Y-76738095D01*
X116630952Y-76880952D02*
X116535714Y-76833333D01*
X116488095Y-76785714D01*
X116440476Y-76690476D01*
X116440476Y-76642857D01*
X116488095Y-76547619D01*
X116535714Y-76500000D01*
X116630952Y-76452380D01*
X116821428Y-76452380D01*
X116916666Y-76500000D01*
X116964285Y-76547619D01*
X117011904Y-76642857D01*
X117011904Y-76690476D01*
X116964285Y-76785714D01*
X116916666Y-76833333D01*
X116821428Y-76880952D01*
X116630952Y-76880952D01*
X116535714Y-76928571D01*
X116488095Y-76976190D01*
X116440476Y-77071428D01*
X116440476Y-77261904D01*
X116488095Y-77357142D01*
X116535714Y-77404761D01*
X116630952Y-77452380D01*
X116821428Y-77452380D01*
X116916666Y-77404761D01*
X116964285Y-77357142D01*
X117011904Y-77261904D01*
X117011904Y-77071428D01*
X116964285Y-76976190D01*
X116916666Y-76928571D01*
X116821428Y-76880952D01*
X115357142Y-84357142D02*
X115309523Y-84404761D01*
X115166666Y-84452380D01*
X115071428Y-84452380D01*
X114928571Y-84404761D01*
X114833333Y-84309523D01*
X114785714Y-84214285D01*
X114738095Y-84023809D01*
X114738095Y-83880952D01*
X114785714Y-83690476D01*
X114833333Y-83595238D01*
X114928571Y-83500000D01*
X115071428Y-83452380D01*
X115166666Y-83452380D01*
X115309523Y-83500000D01*
X115357142Y-83547619D01*
X116309523Y-84452380D02*
X115738095Y-84452380D01*
X116023809Y-84452380D02*
X116023809Y-83452380D01*
X115928571Y-83595238D01*
X115833333Y-83690476D01*
X115738095Y-83738095D01*
X116642857Y-83452380D02*
X117309523Y-83452380D01*
X116880952Y-84452380D01*
X115357142Y-80357142D02*
X115309523Y-80404761D01*
X115166666Y-80452380D01*
X115071428Y-80452380D01*
X114928571Y-80404761D01*
X114833333Y-80309523D01*
X114785714Y-80214285D01*
X114738095Y-80023809D01*
X114738095Y-79880952D01*
X114785714Y-79690476D01*
X114833333Y-79595238D01*
X114928571Y-79500000D01*
X115071428Y-79452380D01*
X115166666Y-79452380D01*
X115309523Y-79500000D01*
X115357142Y-79547619D01*
X116309523Y-80452380D02*
X115738095Y-80452380D01*
X116023809Y-80452380D02*
X116023809Y-79452380D01*
X115928571Y-79595238D01*
X115833333Y-79690476D01*
X115738095Y-79738095D01*
X117166666Y-79452380D02*
X116976190Y-79452380D01*
X116880952Y-79500000D01*
X116833333Y-79547619D01*
X116738095Y-79690476D01*
X116690476Y-79880952D01*
X116690476Y-80261904D01*
X116738095Y-80357142D01*
X116785714Y-80404761D01*
X116880952Y-80452380D01*
X117071428Y-80452380D01*
X117166666Y-80404761D01*
X117214285Y-80357142D01*
X117261904Y-80261904D01*
X117261904Y-80023809D01*
X117214285Y-79928571D01*
X117166666Y-79880952D01*
X117071428Y-79833333D01*
X116880952Y-79833333D01*
X116785714Y-79880952D01*
X116738095Y-79928571D01*
X116690476Y-80023809D01*
X115107142Y-90357142D02*
X115059523Y-90404761D01*
X114916666Y-90452380D01*
X114821428Y-90452380D01*
X114678571Y-90404761D01*
X114583333Y-90309523D01*
X114535714Y-90214285D01*
X114488095Y-90023809D01*
X114488095Y-89880952D01*
X114535714Y-89690476D01*
X114583333Y-89595238D01*
X114678571Y-89500000D01*
X114821428Y-89452380D01*
X114916666Y-89452380D01*
X115059523Y-89500000D01*
X115107142Y-89547619D01*
X116059523Y-90452380D02*
X115488095Y-90452380D01*
X115773809Y-90452380D02*
X115773809Y-89452380D01*
X115678571Y-89595238D01*
X115583333Y-89690476D01*
X115488095Y-89738095D01*
X116964285Y-89452380D02*
X116488095Y-89452380D01*
X116440476Y-89928571D01*
X116488095Y-89880952D01*
X116583333Y-89833333D01*
X116821428Y-89833333D01*
X116916666Y-89880952D01*
X116964285Y-89928571D01*
X117011904Y-90023809D01*
X117011904Y-90261904D01*
X116964285Y-90357142D01*
X116916666Y-90404761D01*
X116821428Y-90452380D01*
X116583333Y-90452380D01*
X116488095Y-90404761D01*
X116440476Y-90357142D01*
X115107142Y-74357142D02*
X115059523Y-74404761D01*
X114916666Y-74452380D01*
X114821428Y-74452380D01*
X114678571Y-74404761D01*
X114583333Y-74309523D01*
X114535714Y-74214285D01*
X114488095Y-74023809D01*
X114488095Y-73880952D01*
X114535714Y-73690476D01*
X114583333Y-73595238D01*
X114678571Y-73500000D01*
X114821428Y-73452380D01*
X114916666Y-73452380D01*
X115059523Y-73500000D01*
X115107142Y-73547619D01*
X116059523Y-74452380D02*
X115488095Y-74452380D01*
X115773809Y-74452380D02*
X115773809Y-73452380D01*
X115678571Y-73595238D01*
X115583333Y-73690476D01*
X115488095Y-73738095D01*
X116916666Y-73785714D02*
X116916666Y-74452380D01*
X116678571Y-73404761D02*
X116440476Y-74119047D01*
X117059523Y-74119047D01*
X129357142Y-74357142D02*
X129309523Y-74404761D01*
X129166666Y-74452380D01*
X129071428Y-74452380D01*
X128928571Y-74404761D01*
X128833333Y-74309523D01*
X128785714Y-74214285D01*
X128738095Y-74023809D01*
X128738095Y-73880952D01*
X128785714Y-73690476D01*
X128833333Y-73595238D01*
X128928571Y-73500000D01*
X129071428Y-73452380D01*
X129166666Y-73452380D01*
X129309523Y-73500000D01*
X129357142Y-73547619D01*
X130309523Y-74452380D02*
X129738095Y-74452380D01*
X130023809Y-74452380D02*
X130023809Y-73452380D01*
X129928571Y-73595238D01*
X129833333Y-73690476D01*
X129738095Y-73738095D01*
X130642857Y-73452380D02*
X131261904Y-73452380D01*
X130928571Y-73833333D01*
X131071428Y-73833333D01*
X131166666Y-73880952D01*
X131214285Y-73928571D01*
X131261904Y-74023809D01*
X131261904Y-74261904D01*
X131214285Y-74357142D01*
X131166666Y-74404761D01*
X131071428Y-74452380D01*
X130785714Y-74452380D01*
X130690476Y-74404761D01*
X130642857Y-74357142D01*
X135357142Y-91857142D02*
X135309523Y-91904761D01*
X135166666Y-91952380D01*
X135071428Y-91952380D01*
X134928571Y-91904761D01*
X134833333Y-91809523D01*
X134785714Y-91714285D01*
X134738095Y-91523809D01*
X134738095Y-91380952D01*
X134785714Y-91190476D01*
X134833333Y-91095238D01*
X134928571Y-91000000D01*
X135071428Y-90952380D01*
X135166666Y-90952380D01*
X135309523Y-91000000D01*
X135357142Y-91047619D01*
X136309523Y-91952380D02*
X135738095Y-91952380D01*
X136023809Y-91952380D02*
X136023809Y-90952380D01*
X135928571Y-91095238D01*
X135833333Y-91190476D01*
X135738095Y-91238095D01*
X136690476Y-91047619D02*
X136738095Y-91000000D01*
X136833333Y-90952380D01*
X137071428Y-90952380D01*
X137166666Y-91000000D01*
X137214285Y-91047619D01*
X137261904Y-91142857D01*
X137261904Y-91238095D01*
X137214285Y-91380952D01*
X136642857Y-91952380D01*
X137261904Y-91952380D01*
X135357142Y-72857142D02*
X135309523Y-72904761D01*
X135166666Y-72952380D01*
X135071428Y-72952380D01*
X134928571Y-72904761D01*
X134833333Y-72809523D01*
X134785714Y-72714285D01*
X134738095Y-72523809D01*
X134738095Y-72380952D01*
X134785714Y-72190476D01*
X134833333Y-72095238D01*
X134928571Y-72000000D01*
X135071428Y-71952380D01*
X135166666Y-71952380D01*
X135309523Y-72000000D01*
X135357142Y-72047619D01*
X136309523Y-72952380D02*
X135738095Y-72952380D01*
X136023809Y-72952380D02*
X136023809Y-71952380D01*
X135928571Y-72095238D01*
X135833333Y-72190476D01*
X135738095Y-72238095D01*
X137261904Y-72952380D02*
X136690476Y-72952380D01*
X136976190Y-72952380D02*
X136976190Y-71952380D01*
X136880952Y-72095238D01*
X136785714Y-72190476D01*
X136690476Y-72238095D01*
X143583333Y-93357142D02*
X143535714Y-93404761D01*
X143392857Y-93452380D01*
X143297619Y-93452380D01*
X143154761Y-93404761D01*
X143059523Y-93309523D01*
X143011904Y-93214285D01*
X142964285Y-93023809D01*
X142964285Y-92880952D01*
X143011904Y-92690476D01*
X143059523Y-92595238D01*
X143154761Y-92500000D01*
X143297619Y-92452380D01*
X143392857Y-92452380D01*
X143535714Y-92500000D01*
X143583333Y-92547619D01*
X144154761Y-92880952D02*
X144059523Y-92833333D01*
X144011904Y-92785714D01*
X143964285Y-92690476D01*
X143964285Y-92642857D01*
X144011904Y-92547619D01*
X144059523Y-92500000D01*
X144154761Y-92452380D01*
X144345238Y-92452380D01*
X144440476Y-92500000D01*
X144488095Y-92547619D01*
X144535714Y-92642857D01*
X144535714Y-92690476D01*
X144488095Y-92785714D01*
X144440476Y-92833333D01*
X144345238Y-92880952D01*
X144154761Y-92880952D01*
X144059523Y-92928571D01*
X144011904Y-92976190D01*
X143964285Y-93071428D01*
X143964285Y-93261904D01*
X144011904Y-93357142D01*
X144059523Y-93404761D01*
X144154761Y-93452380D01*
X144345238Y-93452380D01*
X144440476Y-93404761D01*
X144488095Y-93357142D01*
X144535714Y-93261904D01*
X144535714Y-93071428D01*
X144488095Y-92976190D01*
X144440476Y-92928571D01*
X144345238Y-92880952D01*
X143583333Y-71357142D02*
X143535714Y-71404761D01*
X143392857Y-71452380D01*
X143297619Y-71452380D01*
X143154761Y-71404761D01*
X143059523Y-71309523D01*
X143011904Y-71214285D01*
X142964285Y-71023809D01*
X142964285Y-70880952D01*
X143011904Y-70690476D01*
X143059523Y-70595238D01*
X143154761Y-70500000D01*
X143297619Y-70452380D01*
X143392857Y-70452380D01*
X143535714Y-70500000D01*
X143583333Y-70547619D01*
X143916666Y-70452380D02*
X144583333Y-70452380D01*
X144154761Y-71452380D01*
X143583333Y-90357142D02*
X143535714Y-90404761D01*
X143392857Y-90452380D01*
X143297619Y-90452380D01*
X143154761Y-90404761D01*
X143059523Y-90309523D01*
X143011904Y-90214285D01*
X142964285Y-90023809D01*
X142964285Y-89880952D01*
X143011904Y-89690476D01*
X143059523Y-89595238D01*
X143154761Y-89500000D01*
X143297619Y-89452380D01*
X143392857Y-89452380D01*
X143535714Y-89500000D01*
X143583333Y-89547619D01*
X144440476Y-89452380D02*
X144250000Y-89452380D01*
X144154761Y-89500000D01*
X144107142Y-89547619D01*
X144011904Y-89690476D01*
X143964285Y-89880952D01*
X143964285Y-90261904D01*
X144011904Y-90357142D01*
X144059523Y-90404761D01*
X144154761Y-90452380D01*
X144345238Y-90452380D01*
X144440476Y-90404761D01*
X144488095Y-90357142D01*
X144535714Y-90261904D01*
X144535714Y-90023809D01*
X144488095Y-89928571D01*
X144440476Y-89880952D01*
X144345238Y-89833333D01*
X144154761Y-89833333D01*
X144059523Y-89880952D01*
X144011904Y-89928571D01*
X143964285Y-90023809D01*
X143583333Y-74357142D02*
X143535714Y-74404761D01*
X143392857Y-74452380D01*
X143297619Y-74452380D01*
X143154761Y-74404761D01*
X143059523Y-74309523D01*
X143011904Y-74214285D01*
X142964285Y-74023809D01*
X142964285Y-73880952D01*
X143011904Y-73690476D01*
X143059523Y-73595238D01*
X143154761Y-73500000D01*
X143297619Y-73452380D01*
X143392857Y-73452380D01*
X143535714Y-73500000D01*
X143583333Y-73547619D01*
X144488095Y-73452380D02*
X144011904Y-73452380D01*
X143964285Y-73928571D01*
X144011904Y-73880952D01*
X144107142Y-73833333D01*
X144345238Y-73833333D01*
X144440476Y-73880952D01*
X144488095Y-73928571D01*
X144535714Y-74023809D01*
X144535714Y-74261904D01*
X144488095Y-74357142D01*
X144440476Y-74404761D01*
X144345238Y-74452380D01*
X144107142Y-74452380D01*
X144011904Y-74404761D01*
X143964285Y-74357142D01*
X143583333Y-87357142D02*
X143535714Y-87404761D01*
X143392857Y-87452380D01*
X143297619Y-87452380D01*
X143154761Y-87404761D01*
X143059523Y-87309523D01*
X143011904Y-87214285D01*
X142964285Y-87023809D01*
X142964285Y-86880952D01*
X143011904Y-86690476D01*
X143059523Y-86595238D01*
X143154761Y-86500000D01*
X143297619Y-86452380D01*
X143392857Y-86452380D01*
X143535714Y-86500000D01*
X143583333Y-86547619D01*
X144440476Y-86785714D02*
X144440476Y-87452380D01*
X144202380Y-86404761D02*
X143964285Y-87119047D01*
X144583333Y-87119047D01*
X143583333Y-77357142D02*
X143535714Y-77404761D01*
X143392857Y-77452380D01*
X143297619Y-77452380D01*
X143154761Y-77404761D01*
X143059523Y-77309523D01*
X143011904Y-77214285D01*
X142964285Y-77023809D01*
X142964285Y-76880952D01*
X143011904Y-76690476D01*
X143059523Y-76595238D01*
X143154761Y-76500000D01*
X143297619Y-76452380D01*
X143392857Y-76452380D01*
X143535714Y-76500000D01*
X143583333Y-76547619D01*
X143916666Y-76452380D02*
X144535714Y-76452380D01*
X144202380Y-76833333D01*
X144345238Y-76833333D01*
X144440476Y-76880952D01*
X144488095Y-76928571D01*
X144535714Y-77023809D01*
X144535714Y-77261904D01*
X144488095Y-77357142D01*
X144440476Y-77404761D01*
X144345238Y-77452380D01*
X144059523Y-77452380D01*
X143964285Y-77404761D01*
X143916666Y-77357142D01*
X143583333Y-84357142D02*
X143535714Y-84404761D01*
X143392857Y-84452380D01*
X143297619Y-84452380D01*
X143154761Y-84404761D01*
X143059523Y-84309523D01*
X143011904Y-84214285D01*
X142964285Y-84023809D01*
X142964285Y-83880952D01*
X143011904Y-83690476D01*
X143059523Y-83595238D01*
X143154761Y-83500000D01*
X143297619Y-83452380D01*
X143392857Y-83452380D01*
X143535714Y-83500000D01*
X143583333Y-83547619D01*
X143964285Y-83547619D02*
X144011904Y-83500000D01*
X144107142Y-83452380D01*
X144345238Y-83452380D01*
X144440476Y-83500000D01*
X144488095Y-83547619D01*
X144535714Y-83642857D01*
X144535714Y-83738095D01*
X144488095Y-83880952D01*
X143916666Y-84452380D01*
X144535714Y-84452380D01*
X143583333Y-80357142D02*
X143535714Y-80404761D01*
X143392857Y-80452380D01*
X143297619Y-80452380D01*
X143154761Y-80404761D01*
X143059523Y-80309523D01*
X143011904Y-80214285D01*
X142964285Y-80023809D01*
X142964285Y-79880952D01*
X143011904Y-79690476D01*
X143059523Y-79595238D01*
X143154761Y-79500000D01*
X143297619Y-79452380D01*
X143392857Y-79452380D01*
X143535714Y-79500000D01*
X143583333Y-79547619D01*
X144535714Y-80452380D02*
X143964285Y-80452380D01*
X144250000Y-80452380D02*
X144250000Y-79452380D01*
X144154761Y-79595238D01*
X144059523Y-79690476D01*
X143964285Y-79738095D01*
%LPC*%
D13*
X104000000Y-106000000D03*
D14*
X106400000Y-106000000D03*
X105697056Y-107697056D03*
X104000000Y-108400000D03*
X102302944Y-107697056D03*
X101600000Y-106000000D03*
X102302944Y-104302944D03*
X104000000Y-103600000D03*
X105697056Y-104302944D03*
D15*
X134875000Y-85650000D03*
X134225000Y-85650000D03*
X133575000Y-85650000D03*
X132925000Y-85650000D03*
X132275000Y-85650000D03*
X131625000Y-85650000D03*
X130975000Y-85650000D03*
X130325000Y-85650000D03*
X129675000Y-85650000D03*
X129025000Y-85650000D03*
X128375000Y-85650000D03*
X127725000Y-85650000D03*
X127075000Y-85650000D03*
X126425000Y-85650000D03*
X125775000Y-85650000D03*
X125125000Y-85650000D03*
X125125000Y-78350000D03*
X125775000Y-78350000D03*
X126425000Y-78350000D03*
X127075000Y-78350000D03*
X127725000Y-78350000D03*
X128375000Y-78350000D03*
X129025000Y-78350000D03*
X129675000Y-78350000D03*
X130325000Y-78350000D03*
X130975000Y-78350000D03*
X131625000Y-78350000D03*
X132275000Y-78350000D03*
X132925000Y-78350000D03*
X133575000Y-78350000D03*
X134225000Y-78350000D03*
X134875000Y-78350000D03*
D13*
X104000000Y-54000000D03*
D14*
X106400000Y-54000000D03*
X105697056Y-55697056D03*
X104000000Y-56400000D03*
X102302944Y-55697056D03*
X101600000Y-54000000D03*
X102302944Y-52302944D03*
X104000000Y-51600000D03*
X105697056Y-52302944D03*
D13*
X156000000Y-54000000D03*
D14*
X158400000Y-54000000D03*
X157697056Y-55697056D03*
X156000000Y-56400000D03*
X154302944Y-55697056D03*
X153600000Y-54000000D03*
X154302944Y-52302944D03*
X156000000Y-51600000D03*
X157697056Y-52302944D03*
D16*
X112000000Y-61500000D03*
X112000000Y-59000000D03*
D17*
G36*
X112786975Y-55600276D02*
G01*
X112812699Y-55604092D01*
X112837925Y-55610411D01*
X112862411Y-55619172D01*
X112885920Y-55630291D01*
X112908226Y-55643661D01*
X112929114Y-55659152D01*
X112948383Y-55676617D01*
X112965848Y-55695886D01*
X112981339Y-55716774D01*
X112994709Y-55739080D01*
X113005828Y-55762589D01*
X113014589Y-55787075D01*
X113020908Y-55812301D01*
X113024724Y-55838025D01*
X113026000Y-55864000D01*
X113026000Y-57136000D01*
X113024724Y-57161975D01*
X113020908Y-57187699D01*
X113014589Y-57212925D01*
X113005828Y-57237411D01*
X112994709Y-57260920D01*
X112981339Y-57283226D01*
X112965848Y-57304114D01*
X112948383Y-57323383D01*
X112929114Y-57340848D01*
X112908226Y-57356339D01*
X112885920Y-57369709D01*
X112862411Y-57380828D01*
X112837925Y-57389589D01*
X112812699Y-57395908D01*
X112786975Y-57399724D01*
X112761000Y-57401000D01*
X111239000Y-57401000D01*
X111213025Y-57399724D01*
X111187301Y-57395908D01*
X111162075Y-57389589D01*
X111137589Y-57380828D01*
X111114080Y-57369709D01*
X111091774Y-57356339D01*
X111070886Y-57340848D01*
X111051617Y-57323383D01*
X111034152Y-57304114D01*
X111018661Y-57283226D01*
X111005291Y-57260920D01*
X110994172Y-57237411D01*
X110985411Y-57212925D01*
X110979092Y-57187699D01*
X110975276Y-57161975D01*
X110974000Y-57136000D01*
X110974000Y-55864000D01*
X110975276Y-55838025D01*
X110979092Y-55812301D01*
X110985411Y-55787075D01*
X110994172Y-55762589D01*
X111005291Y-55739080D01*
X111018661Y-55716774D01*
X111034152Y-55695886D01*
X111051617Y-55676617D01*
X111070886Y-55659152D01*
X111091774Y-55643661D01*
X111114080Y-55630291D01*
X111137589Y-55619172D01*
X111162075Y-55610411D01*
X111187301Y-55604092D01*
X111213025Y-55600276D01*
X111239000Y-55599000D01*
X112761000Y-55599000D01*
X112786975Y-55600276D01*
G37*
D18*
X109000000Y-72460000D03*
X109000000Y-75000000D03*
D19*
X109000000Y-77540000D03*
D14*
X157697056Y-104302944D03*
X156000000Y-103600000D03*
X154302944Y-104302944D03*
X153600000Y-106000000D03*
X154302944Y-107697056D03*
X156000000Y-108400000D03*
X157697056Y-107697056D03*
X158400000Y-106000000D03*
D13*
X156000000Y-106000000D03*
D20*
X122500000Y-102000000D03*
D21*
X126000000Y-102000000D03*
D20*
X134000000Y-102000000D03*
D21*
X137500000Y-102000000D03*
D20*
X151000000Y-89000000D03*
D21*
X151000000Y-85500000D03*
D20*
X151000000Y-75000000D03*
D21*
X151000000Y-78500000D03*
D17*
G36*
X109505505Y-91425311D02*
G01*
X109531925Y-91429230D01*
X109557835Y-91435720D01*
X109582983Y-91444718D01*
X109607128Y-91456138D01*
X109630038Y-91469869D01*
X109651492Y-91485780D01*
X109671282Y-91503718D01*
X109689220Y-91523508D01*
X109705131Y-91544962D01*
X109718862Y-91567872D01*
X109730282Y-91592017D01*
X109739280Y-91617165D01*
X109745770Y-91643075D01*
X109749689Y-91669495D01*
X109751000Y-91696173D01*
X109751000Y-92403827D01*
X109749689Y-92430505D01*
X109745770Y-92456925D01*
X109739280Y-92482835D01*
X109730282Y-92507983D01*
X109718862Y-92532128D01*
X109705131Y-92555038D01*
X109689220Y-92576492D01*
X109671282Y-92596282D01*
X109651492Y-92614220D01*
X109630038Y-92630131D01*
X109607128Y-92643862D01*
X109582983Y-92655282D01*
X109557835Y-92664280D01*
X109531925Y-92670770D01*
X109505505Y-92674689D01*
X109478827Y-92676000D01*
X108521173Y-92676000D01*
X108494495Y-92674689D01*
X108468075Y-92670770D01*
X108442165Y-92664280D01*
X108417017Y-92655282D01*
X108392872Y-92643862D01*
X108369962Y-92630131D01*
X108348508Y-92614220D01*
X108328718Y-92596282D01*
X108310780Y-92576492D01*
X108294869Y-92555038D01*
X108281138Y-92532128D01*
X108269718Y-92507983D01*
X108260720Y-92482835D01*
X108254230Y-92456925D01*
X108250311Y-92430505D01*
X108249000Y-92403827D01*
X108249000Y-91696173D01*
X108250311Y-91669495D01*
X108254230Y-91643075D01*
X108260720Y-91617165D01*
X108269718Y-91592017D01*
X108281138Y-91567872D01*
X108294869Y-91544962D01*
X108310780Y-91523508D01*
X108328718Y-91503718D01*
X108348508Y-91485780D01*
X108369962Y-91469869D01*
X108392872Y-91456138D01*
X108417017Y-91444718D01*
X108442165Y-91435720D01*
X108468075Y-91429230D01*
X108494495Y-91425311D01*
X108521173Y-91424000D01*
X109478827Y-91424000D01*
X109505505Y-91425311D01*
G37*
G36*
X109505505Y-89375311D02*
G01*
X109531925Y-89379230D01*
X109557835Y-89385720D01*
X109582983Y-89394718D01*
X109607128Y-89406138D01*
X109630038Y-89419869D01*
X109651492Y-89435780D01*
X109671282Y-89453718D01*
X109689220Y-89473508D01*
X109705131Y-89494962D01*
X109718862Y-89517872D01*
X109730282Y-89542017D01*
X109739280Y-89567165D01*
X109745770Y-89593075D01*
X109749689Y-89619495D01*
X109751000Y-89646173D01*
X109751000Y-90353827D01*
X109749689Y-90380505D01*
X109745770Y-90406925D01*
X109739280Y-90432835D01*
X109730282Y-90457983D01*
X109718862Y-90482128D01*
X109705131Y-90505038D01*
X109689220Y-90526492D01*
X109671282Y-90546282D01*
X109651492Y-90564220D01*
X109630038Y-90580131D01*
X109607128Y-90593862D01*
X109582983Y-90605282D01*
X109557835Y-90614280D01*
X109531925Y-90620770D01*
X109505505Y-90624689D01*
X109478827Y-90626000D01*
X108521173Y-90626000D01*
X108494495Y-90624689D01*
X108468075Y-90620770D01*
X108442165Y-90614280D01*
X108417017Y-90605282D01*
X108392872Y-90593862D01*
X108369962Y-90580131D01*
X108348508Y-90564220D01*
X108328718Y-90546282D01*
X108310780Y-90526492D01*
X108294869Y-90505038D01*
X108281138Y-90482128D01*
X108269718Y-90457983D01*
X108260720Y-90432835D01*
X108254230Y-90406925D01*
X108250311Y-90380505D01*
X108249000Y-90353827D01*
X108249000Y-89646173D01*
X108250311Y-89619495D01*
X108254230Y-89593075D01*
X108260720Y-89567165D01*
X108269718Y-89542017D01*
X108281138Y-89517872D01*
X108294869Y-89494962D01*
X108310780Y-89473508D01*
X108328718Y-89453718D01*
X108348508Y-89435780D01*
X108369962Y-89419869D01*
X108392872Y-89406138D01*
X108417017Y-89394718D01*
X108442165Y-89385720D01*
X108468075Y-89379230D01*
X108494495Y-89375311D01*
X108521173Y-89374000D01*
X109478827Y-89374000D01*
X109505505Y-89375311D01*
G37*
G36*
X118355505Y-92250311D02*
G01*
X118381925Y-92254230D01*
X118407835Y-92260720D01*
X118432983Y-92269718D01*
X118457128Y-92281138D01*
X118480038Y-92294869D01*
X118501492Y-92310780D01*
X118521282Y-92328718D01*
X118539220Y-92348508D01*
X118555131Y-92369962D01*
X118568862Y-92392872D01*
X118580282Y-92417017D01*
X118589280Y-92442165D01*
X118595770Y-92468075D01*
X118599689Y-92494495D01*
X118601000Y-92521173D01*
X118601000Y-93478827D01*
X118599689Y-93505505D01*
X118595770Y-93531925D01*
X118589280Y-93557835D01*
X118580282Y-93582983D01*
X118568862Y-93607128D01*
X118555131Y-93630038D01*
X118539220Y-93651492D01*
X118521282Y-93671282D01*
X118501492Y-93689220D01*
X118480038Y-93705131D01*
X118457128Y-93718862D01*
X118432983Y-93730282D01*
X118407835Y-93739280D01*
X118381925Y-93745770D01*
X118355505Y-93749689D01*
X118328827Y-93751000D01*
X117621173Y-93751000D01*
X117594495Y-93749689D01*
X117568075Y-93745770D01*
X117542165Y-93739280D01*
X117517017Y-93730282D01*
X117492872Y-93718862D01*
X117469962Y-93705131D01*
X117448508Y-93689220D01*
X117428718Y-93671282D01*
X117410780Y-93651492D01*
X117394869Y-93630038D01*
X117381138Y-93607128D01*
X117369718Y-93582983D01*
X117360720Y-93557835D01*
X117354230Y-93531925D01*
X117350311Y-93505505D01*
X117349000Y-93478827D01*
X117349000Y-92521173D01*
X117350311Y-92494495D01*
X117354230Y-92468075D01*
X117360720Y-92442165D01*
X117369718Y-92417017D01*
X117381138Y-92392872D01*
X117394869Y-92369962D01*
X117410780Y-92348508D01*
X117428718Y-92328718D01*
X117448508Y-92310780D01*
X117469962Y-92294869D01*
X117492872Y-92281138D01*
X117517017Y-92269718D01*
X117542165Y-92260720D01*
X117568075Y-92254230D01*
X117594495Y-92250311D01*
X117621173Y-92249000D01*
X118328827Y-92249000D01*
X118355505Y-92250311D01*
G37*
G36*
X120405505Y-92250311D02*
G01*
X120431925Y-92254230D01*
X120457835Y-92260720D01*
X120482983Y-92269718D01*
X120507128Y-92281138D01*
X120530038Y-92294869D01*
X120551492Y-92310780D01*
X120571282Y-92328718D01*
X120589220Y-92348508D01*
X120605131Y-92369962D01*
X120618862Y-92392872D01*
X120630282Y-92417017D01*
X120639280Y-92442165D01*
X120645770Y-92468075D01*
X120649689Y-92494495D01*
X120651000Y-92521173D01*
X120651000Y-93478827D01*
X120649689Y-93505505D01*
X120645770Y-93531925D01*
X120639280Y-93557835D01*
X120630282Y-93582983D01*
X120618862Y-93607128D01*
X120605131Y-93630038D01*
X120589220Y-93651492D01*
X120571282Y-93671282D01*
X120551492Y-93689220D01*
X120530038Y-93705131D01*
X120507128Y-93718862D01*
X120482983Y-93730282D01*
X120457835Y-93739280D01*
X120431925Y-93745770D01*
X120405505Y-93749689D01*
X120378827Y-93751000D01*
X119671173Y-93751000D01*
X119644495Y-93749689D01*
X119618075Y-93745770D01*
X119592165Y-93739280D01*
X119567017Y-93730282D01*
X119542872Y-93718862D01*
X119519962Y-93705131D01*
X119498508Y-93689220D01*
X119478718Y-93671282D01*
X119460780Y-93651492D01*
X119444869Y-93630038D01*
X119431138Y-93607128D01*
X119419718Y-93582983D01*
X119410720Y-93557835D01*
X119404230Y-93531925D01*
X119400311Y-93505505D01*
X119399000Y-93478827D01*
X119399000Y-92521173D01*
X119400311Y-92494495D01*
X119404230Y-92468075D01*
X119410720Y-92442165D01*
X119419718Y-92417017D01*
X119431138Y-92392872D01*
X119444869Y-92369962D01*
X119460780Y-92348508D01*
X119478718Y-92328718D01*
X119498508Y-92310780D01*
X119519962Y-92294869D01*
X119542872Y-92281138D01*
X119567017Y-92269718D01*
X119592165Y-92260720D01*
X119618075Y-92254230D01*
X119644495Y-92250311D01*
X119671173Y-92249000D01*
X120378827Y-92249000D01*
X120405505Y-92250311D01*
G37*
G36*
X120405505Y-70250311D02*
G01*
X120431925Y-70254230D01*
X120457835Y-70260720D01*
X120482983Y-70269718D01*
X120507128Y-70281138D01*
X120530038Y-70294869D01*
X120551492Y-70310780D01*
X120571282Y-70328718D01*
X120589220Y-70348508D01*
X120605131Y-70369962D01*
X120618862Y-70392872D01*
X120630282Y-70417017D01*
X120639280Y-70442165D01*
X120645770Y-70468075D01*
X120649689Y-70494495D01*
X120651000Y-70521173D01*
X120651000Y-71478827D01*
X120649689Y-71505505D01*
X120645770Y-71531925D01*
X120639280Y-71557835D01*
X120630282Y-71582983D01*
X120618862Y-71607128D01*
X120605131Y-71630038D01*
X120589220Y-71651492D01*
X120571282Y-71671282D01*
X120551492Y-71689220D01*
X120530038Y-71705131D01*
X120507128Y-71718862D01*
X120482983Y-71730282D01*
X120457835Y-71739280D01*
X120431925Y-71745770D01*
X120405505Y-71749689D01*
X120378827Y-71751000D01*
X119671173Y-71751000D01*
X119644495Y-71749689D01*
X119618075Y-71745770D01*
X119592165Y-71739280D01*
X119567017Y-71730282D01*
X119542872Y-71718862D01*
X119519962Y-71705131D01*
X119498508Y-71689220D01*
X119478718Y-71671282D01*
X119460780Y-71651492D01*
X119444869Y-71630038D01*
X119431138Y-71607128D01*
X119419718Y-71582983D01*
X119410720Y-71557835D01*
X119404230Y-71531925D01*
X119400311Y-71505505D01*
X119399000Y-71478827D01*
X119399000Y-70521173D01*
X119400311Y-70494495D01*
X119404230Y-70468075D01*
X119410720Y-70442165D01*
X119419718Y-70417017D01*
X119431138Y-70392872D01*
X119444869Y-70369962D01*
X119460780Y-70348508D01*
X119478718Y-70328718D01*
X119498508Y-70310780D01*
X119519962Y-70294869D01*
X119542872Y-70281138D01*
X119567017Y-70269718D01*
X119592165Y-70260720D01*
X119618075Y-70254230D01*
X119644495Y-70250311D01*
X119671173Y-70249000D01*
X120378827Y-70249000D01*
X120405505Y-70250311D01*
G37*
G36*
X118355505Y-70250311D02*
G01*
X118381925Y-70254230D01*
X118407835Y-70260720D01*
X118432983Y-70269718D01*
X118457128Y-70281138D01*
X118480038Y-70294869D01*
X118501492Y-70310780D01*
X118521282Y-70328718D01*
X118539220Y-70348508D01*
X118555131Y-70369962D01*
X118568862Y-70392872D01*
X118580282Y-70417017D01*
X118589280Y-70442165D01*
X118595770Y-70468075D01*
X118599689Y-70494495D01*
X118601000Y-70521173D01*
X118601000Y-71478827D01*
X118599689Y-71505505D01*
X118595770Y-71531925D01*
X118589280Y-71557835D01*
X118580282Y-71582983D01*
X118568862Y-71607128D01*
X118555131Y-71630038D01*
X118539220Y-71651492D01*
X118521282Y-71671282D01*
X118501492Y-71689220D01*
X118480038Y-71705131D01*
X118457128Y-71718862D01*
X118432983Y-71730282D01*
X118407835Y-71739280D01*
X118381925Y-71745770D01*
X118355505Y-71749689D01*
X118328827Y-71751000D01*
X117621173Y-71751000D01*
X117594495Y-71749689D01*
X117568075Y-71745770D01*
X117542165Y-71739280D01*
X117517017Y-71730282D01*
X117492872Y-71718862D01*
X117469962Y-71705131D01*
X117448508Y-71689220D01*
X117428718Y-71671282D01*
X117410780Y-71651492D01*
X117394869Y-71630038D01*
X117381138Y-71607128D01*
X117369718Y-71582983D01*
X117360720Y-71557835D01*
X117354230Y-71531925D01*
X117350311Y-71505505D01*
X117349000Y-71478827D01*
X117349000Y-70521173D01*
X117350311Y-70494495D01*
X117354230Y-70468075D01*
X117360720Y-70442165D01*
X117369718Y-70417017D01*
X117381138Y-70392872D01*
X117394869Y-70369962D01*
X117410780Y-70348508D01*
X117428718Y-70328718D01*
X117448508Y-70310780D01*
X117469962Y-70294869D01*
X117492872Y-70281138D01*
X117517017Y-70269718D01*
X117542165Y-70260720D01*
X117568075Y-70254230D01*
X117594495Y-70250311D01*
X117621173Y-70249000D01*
X118328827Y-70249000D01*
X118355505Y-70250311D01*
G37*
D22*
X114500000Y-102000000D03*
X112000000Y-102000000D03*
D17*
G36*
X110161975Y-100975276D02*
G01*
X110187699Y-100979092D01*
X110212925Y-100985411D01*
X110237411Y-100994172D01*
X110260920Y-101005291D01*
X110283226Y-101018661D01*
X110304114Y-101034152D01*
X110323383Y-101051617D01*
X110340848Y-101070886D01*
X110356339Y-101091774D01*
X110369709Y-101114080D01*
X110380828Y-101137589D01*
X110389589Y-101162075D01*
X110395908Y-101187301D01*
X110399724Y-101213025D01*
X110401000Y-101239000D01*
X110401000Y-102761000D01*
X110399724Y-102786975D01*
X110395908Y-102812699D01*
X110389589Y-102837925D01*
X110380828Y-102862411D01*
X110369709Y-102885920D01*
X110356339Y-102908226D01*
X110340848Y-102929114D01*
X110323383Y-102948383D01*
X110304114Y-102965848D01*
X110283226Y-102981339D01*
X110260920Y-102994709D01*
X110237411Y-103005828D01*
X110212925Y-103014589D01*
X110187699Y-103020908D01*
X110161975Y-103024724D01*
X110136000Y-103026000D01*
X108864000Y-103026000D01*
X108838025Y-103024724D01*
X108812301Y-103020908D01*
X108787075Y-103014589D01*
X108762589Y-103005828D01*
X108739080Y-102994709D01*
X108716774Y-102981339D01*
X108695886Y-102965848D01*
X108676617Y-102948383D01*
X108659152Y-102929114D01*
X108643661Y-102908226D01*
X108630291Y-102885920D01*
X108619172Y-102862411D01*
X108610411Y-102837925D01*
X108604092Y-102812699D01*
X108600276Y-102786975D01*
X108599000Y-102761000D01*
X108599000Y-101239000D01*
X108600276Y-101213025D01*
X108604092Y-101187301D01*
X108610411Y-101162075D01*
X108619172Y-101137589D01*
X108630291Y-101114080D01*
X108643661Y-101091774D01*
X108659152Y-101070886D01*
X108676617Y-101051617D01*
X108695886Y-101034152D01*
X108716774Y-101018661D01*
X108739080Y-101005291D01*
X108762589Y-100994172D01*
X108787075Y-100985411D01*
X108812301Y-100979092D01*
X108838025Y-100975276D01*
X108864000Y-100974000D01*
X110136000Y-100974000D01*
X110161975Y-100975276D01*
G37*
D16*
X121000000Y-61500000D03*
X121000000Y-59000000D03*
D17*
G36*
X121786975Y-55600276D02*
G01*
X121812699Y-55604092D01*
X121837925Y-55610411D01*
X121862411Y-55619172D01*
X121885920Y-55630291D01*
X121908226Y-55643661D01*
X121929114Y-55659152D01*
X121948383Y-55676617D01*
X121965848Y-55695886D01*
X121981339Y-55716774D01*
X121994709Y-55739080D01*
X122005828Y-55762589D01*
X122014589Y-55787075D01*
X122020908Y-55812301D01*
X122024724Y-55838025D01*
X122026000Y-55864000D01*
X122026000Y-57136000D01*
X122024724Y-57161975D01*
X122020908Y-57187699D01*
X122014589Y-57212925D01*
X122005828Y-57237411D01*
X121994709Y-57260920D01*
X121981339Y-57283226D01*
X121965848Y-57304114D01*
X121948383Y-57323383D01*
X121929114Y-57340848D01*
X121908226Y-57356339D01*
X121885920Y-57369709D01*
X121862411Y-57380828D01*
X121837925Y-57389589D01*
X121812699Y-57395908D01*
X121786975Y-57399724D01*
X121761000Y-57401000D01*
X120239000Y-57401000D01*
X120213025Y-57399724D01*
X120187301Y-57395908D01*
X120162075Y-57389589D01*
X120137589Y-57380828D01*
X120114080Y-57369709D01*
X120091774Y-57356339D01*
X120070886Y-57340848D01*
X120051617Y-57323383D01*
X120034152Y-57304114D01*
X120018661Y-57283226D01*
X120005291Y-57260920D01*
X119994172Y-57237411D01*
X119985411Y-57212925D01*
X119979092Y-57187699D01*
X119975276Y-57161975D01*
X119974000Y-57136000D01*
X119974000Y-55864000D01*
X119975276Y-55838025D01*
X119979092Y-55812301D01*
X119985411Y-55787075D01*
X119994172Y-55762589D01*
X120005291Y-55739080D01*
X120018661Y-55716774D01*
X120034152Y-55695886D01*
X120051617Y-55676617D01*
X120070886Y-55659152D01*
X120091774Y-55643661D01*
X120114080Y-55630291D01*
X120137589Y-55619172D01*
X120162075Y-55610411D01*
X120187301Y-55604092D01*
X120213025Y-55600276D01*
X120239000Y-55599000D01*
X121761000Y-55599000D01*
X121786975Y-55600276D01*
G37*
D16*
X130000000Y-61500000D03*
X130000000Y-59000000D03*
D17*
G36*
X130786975Y-55600276D02*
G01*
X130812699Y-55604092D01*
X130837925Y-55610411D01*
X130862411Y-55619172D01*
X130885920Y-55630291D01*
X130908226Y-55643661D01*
X130929114Y-55659152D01*
X130948383Y-55676617D01*
X130965848Y-55695886D01*
X130981339Y-55716774D01*
X130994709Y-55739080D01*
X131005828Y-55762589D01*
X131014589Y-55787075D01*
X131020908Y-55812301D01*
X131024724Y-55838025D01*
X131026000Y-55864000D01*
X131026000Y-57136000D01*
X131024724Y-57161975D01*
X131020908Y-57187699D01*
X131014589Y-57212925D01*
X131005828Y-57237411D01*
X130994709Y-57260920D01*
X130981339Y-57283226D01*
X130965848Y-57304114D01*
X130948383Y-57323383D01*
X130929114Y-57340848D01*
X130908226Y-57356339D01*
X130885920Y-57369709D01*
X130862411Y-57380828D01*
X130837925Y-57389589D01*
X130812699Y-57395908D01*
X130786975Y-57399724D01*
X130761000Y-57401000D01*
X129239000Y-57401000D01*
X129213025Y-57399724D01*
X129187301Y-57395908D01*
X129162075Y-57389589D01*
X129137589Y-57380828D01*
X129114080Y-57369709D01*
X129091774Y-57356339D01*
X129070886Y-57340848D01*
X129051617Y-57323383D01*
X129034152Y-57304114D01*
X129018661Y-57283226D01*
X129005291Y-57260920D01*
X128994172Y-57237411D01*
X128985411Y-57212925D01*
X128979092Y-57187699D01*
X128975276Y-57161975D01*
X128974000Y-57136000D01*
X128974000Y-55864000D01*
X128975276Y-55838025D01*
X128979092Y-55812301D01*
X128985411Y-55787075D01*
X128994172Y-55762589D01*
X129005291Y-55739080D01*
X129018661Y-55716774D01*
X129034152Y-55695886D01*
X129051617Y-55676617D01*
X129070886Y-55659152D01*
X129091774Y-55643661D01*
X129114080Y-55630291D01*
X129137589Y-55619172D01*
X129162075Y-55610411D01*
X129187301Y-55604092D01*
X129213025Y-55600276D01*
X129239000Y-55599000D01*
X130761000Y-55599000D01*
X130786975Y-55600276D01*
G37*
D16*
X139000000Y-61500000D03*
X139000000Y-59000000D03*
D17*
G36*
X139786975Y-55600276D02*
G01*
X139812699Y-55604092D01*
X139837925Y-55610411D01*
X139862411Y-55619172D01*
X139885920Y-55630291D01*
X139908226Y-55643661D01*
X139929114Y-55659152D01*
X139948383Y-55676617D01*
X139965848Y-55695886D01*
X139981339Y-55716774D01*
X139994709Y-55739080D01*
X140005828Y-55762589D01*
X140014589Y-55787075D01*
X140020908Y-55812301D01*
X140024724Y-55838025D01*
X140026000Y-55864000D01*
X140026000Y-57136000D01*
X140024724Y-57161975D01*
X140020908Y-57187699D01*
X140014589Y-57212925D01*
X140005828Y-57237411D01*
X139994709Y-57260920D01*
X139981339Y-57283226D01*
X139965848Y-57304114D01*
X139948383Y-57323383D01*
X139929114Y-57340848D01*
X139908226Y-57356339D01*
X139885920Y-57369709D01*
X139862411Y-57380828D01*
X139837925Y-57389589D01*
X139812699Y-57395908D01*
X139786975Y-57399724D01*
X139761000Y-57401000D01*
X138239000Y-57401000D01*
X138213025Y-57399724D01*
X138187301Y-57395908D01*
X138162075Y-57389589D01*
X138137589Y-57380828D01*
X138114080Y-57369709D01*
X138091774Y-57356339D01*
X138070886Y-57340848D01*
X138051617Y-57323383D01*
X138034152Y-57304114D01*
X138018661Y-57283226D01*
X138005291Y-57260920D01*
X137994172Y-57237411D01*
X137985411Y-57212925D01*
X137979092Y-57187699D01*
X137975276Y-57161975D01*
X137974000Y-57136000D01*
X137974000Y-55864000D01*
X137975276Y-55838025D01*
X137979092Y-55812301D01*
X137985411Y-55787075D01*
X137994172Y-55762589D01*
X138005291Y-55739080D01*
X138018661Y-55716774D01*
X138034152Y-55695886D01*
X138051617Y-55676617D01*
X138070886Y-55659152D01*
X138091774Y-55643661D01*
X138114080Y-55630291D01*
X138137589Y-55619172D01*
X138162075Y-55610411D01*
X138187301Y-55604092D01*
X138213025Y-55600276D01*
X138239000Y-55599000D01*
X139761000Y-55599000D01*
X139786975Y-55600276D01*
G37*
D16*
X148000000Y-61500000D03*
X148000000Y-59000000D03*
D17*
G36*
X148786975Y-55600276D02*
G01*
X148812699Y-55604092D01*
X148837925Y-55610411D01*
X148862411Y-55619172D01*
X148885920Y-55630291D01*
X148908226Y-55643661D01*
X148929114Y-55659152D01*
X148948383Y-55676617D01*
X148965848Y-55695886D01*
X148981339Y-55716774D01*
X148994709Y-55739080D01*
X149005828Y-55762589D01*
X149014589Y-55787075D01*
X149020908Y-55812301D01*
X149024724Y-55838025D01*
X149026000Y-55864000D01*
X149026000Y-57136000D01*
X149024724Y-57161975D01*
X149020908Y-57187699D01*
X149014589Y-57212925D01*
X149005828Y-57237411D01*
X148994709Y-57260920D01*
X148981339Y-57283226D01*
X148965848Y-57304114D01*
X148948383Y-57323383D01*
X148929114Y-57340848D01*
X148908226Y-57356339D01*
X148885920Y-57369709D01*
X148862411Y-57380828D01*
X148837925Y-57389589D01*
X148812699Y-57395908D01*
X148786975Y-57399724D01*
X148761000Y-57401000D01*
X147239000Y-57401000D01*
X147213025Y-57399724D01*
X147187301Y-57395908D01*
X147162075Y-57389589D01*
X147137589Y-57380828D01*
X147114080Y-57369709D01*
X147091774Y-57356339D01*
X147070886Y-57340848D01*
X147051617Y-57323383D01*
X147034152Y-57304114D01*
X147018661Y-57283226D01*
X147005291Y-57260920D01*
X146994172Y-57237411D01*
X146985411Y-57212925D01*
X146979092Y-57187699D01*
X146975276Y-57161975D01*
X146974000Y-57136000D01*
X146974000Y-55864000D01*
X146975276Y-55838025D01*
X146979092Y-55812301D01*
X146985411Y-55787075D01*
X146994172Y-55762589D01*
X147005291Y-55739080D01*
X147018661Y-55716774D01*
X147034152Y-55695886D01*
X147051617Y-55676617D01*
X147070886Y-55659152D01*
X147091774Y-55643661D01*
X147114080Y-55630291D01*
X147137589Y-55619172D01*
X147162075Y-55610411D01*
X147187301Y-55604092D01*
X147213025Y-55600276D01*
X147239000Y-55599000D01*
X148761000Y-55599000D01*
X148786975Y-55600276D01*
G37*
D23*
X109000000Y-86540000D03*
D24*
X109000000Y-84000000D03*
D17*
G36*
X126713779Y-89475266D02*
G01*
X126739309Y-89479053D01*
X126764345Y-89485325D01*
X126788646Y-89494020D01*
X126811977Y-89505055D01*
X126834115Y-89518323D01*
X126854845Y-89533698D01*
X126873969Y-89551031D01*
X126891302Y-89570155D01*
X126906677Y-89590885D01*
X126919945Y-89613023D01*
X126930980Y-89636354D01*
X126939675Y-89660655D01*
X126945947Y-89685691D01*
X126949734Y-89711221D01*
X126951000Y-89737000D01*
X126951000Y-90263000D01*
X126949734Y-90288779D01*
X126945947Y-90314309D01*
X126939675Y-90339345D01*
X126930980Y-90363646D01*
X126919945Y-90386977D01*
X126906677Y-90409115D01*
X126891302Y-90429845D01*
X126873969Y-90448969D01*
X126854845Y-90466302D01*
X126834115Y-90481677D01*
X126811977Y-90494945D01*
X126788646Y-90505980D01*
X126764345Y-90514675D01*
X126739309Y-90520947D01*
X126713779Y-90524734D01*
X126688000Y-90526000D01*
X126062000Y-90526000D01*
X126036221Y-90524734D01*
X126010691Y-90520947D01*
X125985655Y-90514675D01*
X125961354Y-90505980D01*
X125938023Y-90494945D01*
X125915885Y-90481677D01*
X125895155Y-90466302D01*
X125876031Y-90448969D01*
X125858698Y-90429845D01*
X125843323Y-90409115D01*
X125830055Y-90386977D01*
X125819020Y-90363646D01*
X125810325Y-90339345D01*
X125804053Y-90314309D01*
X125800266Y-90288779D01*
X125799000Y-90263000D01*
X125799000Y-89737000D01*
X125800266Y-89711221D01*
X125804053Y-89685691D01*
X125810325Y-89660655D01*
X125819020Y-89636354D01*
X125830055Y-89613023D01*
X125843323Y-89590885D01*
X125858698Y-89570155D01*
X125876031Y-89551031D01*
X125895155Y-89533698D01*
X125915885Y-89518323D01*
X125938023Y-89505055D01*
X125961354Y-89494020D01*
X125985655Y-89485325D01*
X126010691Y-89479053D01*
X126036221Y-89475266D01*
X126062000Y-89474000D01*
X126688000Y-89474000D01*
X126713779Y-89475266D01*
G37*
G36*
X124963779Y-89475266D02*
G01*
X124989309Y-89479053D01*
X125014345Y-89485325D01*
X125038646Y-89494020D01*
X125061977Y-89505055D01*
X125084115Y-89518323D01*
X125104845Y-89533698D01*
X125123969Y-89551031D01*
X125141302Y-89570155D01*
X125156677Y-89590885D01*
X125169945Y-89613023D01*
X125180980Y-89636354D01*
X125189675Y-89660655D01*
X125195947Y-89685691D01*
X125199734Y-89711221D01*
X125201000Y-89737000D01*
X125201000Y-90263000D01*
X125199734Y-90288779D01*
X125195947Y-90314309D01*
X125189675Y-90339345D01*
X125180980Y-90363646D01*
X125169945Y-90386977D01*
X125156677Y-90409115D01*
X125141302Y-90429845D01*
X125123969Y-90448969D01*
X125104845Y-90466302D01*
X125084115Y-90481677D01*
X125061977Y-90494945D01*
X125038646Y-90505980D01*
X125014345Y-90514675D01*
X124989309Y-90520947D01*
X124963779Y-90524734D01*
X124938000Y-90526000D01*
X124312000Y-90526000D01*
X124286221Y-90524734D01*
X124260691Y-90520947D01*
X124235655Y-90514675D01*
X124211354Y-90505980D01*
X124188023Y-90494945D01*
X124165885Y-90481677D01*
X124145155Y-90466302D01*
X124126031Y-90448969D01*
X124108698Y-90429845D01*
X124093323Y-90409115D01*
X124080055Y-90386977D01*
X124069020Y-90363646D01*
X124060325Y-90339345D01*
X124054053Y-90314309D01*
X124050266Y-90288779D01*
X124049000Y-90263000D01*
X124049000Y-89737000D01*
X124050266Y-89711221D01*
X124054053Y-89685691D01*
X124060325Y-89660655D01*
X124069020Y-89636354D01*
X124080055Y-89613023D01*
X124093323Y-89590885D01*
X124108698Y-89570155D01*
X124126031Y-89551031D01*
X124145155Y-89533698D01*
X124165885Y-89518323D01*
X124188023Y-89505055D01*
X124211354Y-89494020D01*
X124235655Y-89485325D01*
X124260691Y-89479053D01*
X124286221Y-89475266D01*
X124312000Y-89474000D01*
X124938000Y-89474000D01*
X124963779Y-89475266D01*
G37*
G36*
X126905505Y-92250311D02*
G01*
X126931925Y-92254230D01*
X126957835Y-92260720D01*
X126982983Y-92269718D01*
X127007128Y-92281138D01*
X127030038Y-92294869D01*
X127051492Y-92310780D01*
X127071282Y-92328718D01*
X127089220Y-92348508D01*
X127105131Y-92369962D01*
X127118862Y-92392872D01*
X127130282Y-92417017D01*
X127139280Y-92442165D01*
X127145770Y-92468075D01*
X127149689Y-92494495D01*
X127151000Y-92521173D01*
X127151000Y-93478827D01*
X127149689Y-93505505D01*
X127145770Y-93531925D01*
X127139280Y-93557835D01*
X127130282Y-93582983D01*
X127118862Y-93607128D01*
X127105131Y-93630038D01*
X127089220Y-93651492D01*
X127071282Y-93671282D01*
X127051492Y-93689220D01*
X127030038Y-93705131D01*
X127007128Y-93718862D01*
X126982983Y-93730282D01*
X126957835Y-93739280D01*
X126931925Y-93745770D01*
X126905505Y-93749689D01*
X126878827Y-93751000D01*
X126171173Y-93751000D01*
X126144495Y-93749689D01*
X126118075Y-93745770D01*
X126092165Y-93739280D01*
X126067017Y-93730282D01*
X126042872Y-93718862D01*
X126019962Y-93705131D01*
X125998508Y-93689220D01*
X125978718Y-93671282D01*
X125960780Y-93651492D01*
X125944869Y-93630038D01*
X125931138Y-93607128D01*
X125919718Y-93582983D01*
X125910720Y-93557835D01*
X125904230Y-93531925D01*
X125900311Y-93505505D01*
X125899000Y-93478827D01*
X125899000Y-92521173D01*
X125900311Y-92494495D01*
X125904230Y-92468075D01*
X125910720Y-92442165D01*
X125919718Y-92417017D01*
X125931138Y-92392872D01*
X125944869Y-92369962D01*
X125960780Y-92348508D01*
X125978718Y-92328718D01*
X125998508Y-92310780D01*
X126019962Y-92294869D01*
X126042872Y-92281138D01*
X126067017Y-92269718D01*
X126092165Y-92260720D01*
X126118075Y-92254230D01*
X126144495Y-92250311D01*
X126171173Y-92249000D01*
X126878827Y-92249000D01*
X126905505Y-92250311D01*
G37*
G36*
X124855505Y-92250311D02*
G01*
X124881925Y-92254230D01*
X124907835Y-92260720D01*
X124932983Y-92269718D01*
X124957128Y-92281138D01*
X124980038Y-92294869D01*
X125001492Y-92310780D01*
X125021282Y-92328718D01*
X125039220Y-92348508D01*
X125055131Y-92369962D01*
X125068862Y-92392872D01*
X125080282Y-92417017D01*
X125089280Y-92442165D01*
X125095770Y-92468075D01*
X125099689Y-92494495D01*
X125101000Y-92521173D01*
X125101000Y-93478827D01*
X125099689Y-93505505D01*
X125095770Y-93531925D01*
X125089280Y-93557835D01*
X125080282Y-93582983D01*
X125068862Y-93607128D01*
X125055131Y-93630038D01*
X125039220Y-93651492D01*
X125021282Y-93671282D01*
X125001492Y-93689220D01*
X124980038Y-93705131D01*
X124957128Y-93718862D01*
X124932983Y-93730282D01*
X124907835Y-93739280D01*
X124881925Y-93745770D01*
X124855505Y-93749689D01*
X124828827Y-93751000D01*
X124121173Y-93751000D01*
X124094495Y-93749689D01*
X124068075Y-93745770D01*
X124042165Y-93739280D01*
X124017017Y-93730282D01*
X123992872Y-93718862D01*
X123969962Y-93705131D01*
X123948508Y-93689220D01*
X123928718Y-93671282D01*
X123910780Y-93651492D01*
X123894869Y-93630038D01*
X123881138Y-93607128D01*
X123869718Y-93582983D01*
X123860720Y-93557835D01*
X123854230Y-93531925D01*
X123850311Y-93505505D01*
X123849000Y-93478827D01*
X123849000Y-92521173D01*
X123850311Y-92494495D01*
X123854230Y-92468075D01*
X123860720Y-92442165D01*
X123869718Y-92417017D01*
X123881138Y-92392872D01*
X123894869Y-92369962D01*
X123910780Y-92348508D01*
X123928718Y-92328718D01*
X123948508Y-92310780D01*
X123969962Y-92294869D01*
X123992872Y-92281138D01*
X124017017Y-92269718D01*
X124042165Y-92260720D01*
X124068075Y-92254230D01*
X124094495Y-92250311D01*
X124121173Y-92249000D01*
X124828827Y-92249000D01*
X124855505Y-92250311D01*
G37*
G36*
X131213779Y-89475266D02*
G01*
X131239309Y-89479053D01*
X131264345Y-89485325D01*
X131288646Y-89494020D01*
X131311977Y-89505055D01*
X131334115Y-89518323D01*
X131354845Y-89533698D01*
X131373969Y-89551031D01*
X131391302Y-89570155D01*
X131406677Y-89590885D01*
X131419945Y-89613023D01*
X131430980Y-89636354D01*
X131439675Y-89660655D01*
X131445947Y-89685691D01*
X131449734Y-89711221D01*
X131451000Y-89737000D01*
X131451000Y-90263000D01*
X131449734Y-90288779D01*
X131445947Y-90314309D01*
X131439675Y-90339345D01*
X131430980Y-90363646D01*
X131419945Y-90386977D01*
X131406677Y-90409115D01*
X131391302Y-90429845D01*
X131373969Y-90448969D01*
X131354845Y-90466302D01*
X131334115Y-90481677D01*
X131311977Y-90494945D01*
X131288646Y-90505980D01*
X131264345Y-90514675D01*
X131239309Y-90520947D01*
X131213779Y-90524734D01*
X131188000Y-90526000D01*
X130562000Y-90526000D01*
X130536221Y-90524734D01*
X130510691Y-90520947D01*
X130485655Y-90514675D01*
X130461354Y-90505980D01*
X130438023Y-90494945D01*
X130415885Y-90481677D01*
X130395155Y-90466302D01*
X130376031Y-90448969D01*
X130358698Y-90429845D01*
X130343323Y-90409115D01*
X130330055Y-90386977D01*
X130319020Y-90363646D01*
X130310325Y-90339345D01*
X130304053Y-90314309D01*
X130300266Y-90288779D01*
X130299000Y-90263000D01*
X130299000Y-89737000D01*
X130300266Y-89711221D01*
X130304053Y-89685691D01*
X130310325Y-89660655D01*
X130319020Y-89636354D01*
X130330055Y-89613023D01*
X130343323Y-89590885D01*
X130358698Y-89570155D01*
X130376031Y-89551031D01*
X130395155Y-89533698D01*
X130415885Y-89518323D01*
X130438023Y-89505055D01*
X130461354Y-89494020D01*
X130485655Y-89485325D01*
X130510691Y-89479053D01*
X130536221Y-89475266D01*
X130562000Y-89474000D01*
X131188000Y-89474000D01*
X131213779Y-89475266D01*
G37*
G36*
X129463779Y-89475266D02*
G01*
X129489309Y-89479053D01*
X129514345Y-89485325D01*
X129538646Y-89494020D01*
X129561977Y-89505055D01*
X129584115Y-89518323D01*
X129604845Y-89533698D01*
X129623969Y-89551031D01*
X129641302Y-89570155D01*
X129656677Y-89590885D01*
X129669945Y-89613023D01*
X129680980Y-89636354D01*
X129689675Y-89660655D01*
X129695947Y-89685691D01*
X129699734Y-89711221D01*
X129701000Y-89737000D01*
X129701000Y-90263000D01*
X129699734Y-90288779D01*
X129695947Y-90314309D01*
X129689675Y-90339345D01*
X129680980Y-90363646D01*
X129669945Y-90386977D01*
X129656677Y-90409115D01*
X129641302Y-90429845D01*
X129623969Y-90448969D01*
X129604845Y-90466302D01*
X129584115Y-90481677D01*
X129561977Y-90494945D01*
X129538646Y-90505980D01*
X129514345Y-90514675D01*
X129489309Y-90520947D01*
X129463779Y-90524734D01*
X129438000Y-90526000D01*
X128812000Y-90526000D01*
X128786221Y-90524734D01*
X128760691Y-90520947D01*
X128735655Y-90514675D01*
X128711354Y-90505980D01*
X128688023Y-90494945D01*
X128665885Y-90481677D01*
X128645155Y-90466302D01*
X128626031Y-90448969D01*
X128608698Y-90429845D01*
X128593323Y-90409115D01*
X128580055Y-90386977D01*
X128569020Y-90363646D01*
X128560325Y-90339345D01*
X128554053Y-90314309D01*
X128550266Y-90288779D01*
X128549000Y-90263000D01*
X128549000Y-89737000D01*
X128550266Y-89711221D01*
X128554053Y-89685691D01*
X128560325Y-89660655D01*
X128569020Y-89636354D01*
X128580055Y-89613023D01*
X128593323Y-89590885D01*
X128608698Y-89570155D01*
X128626031Y-89551031D01*
X128645155Y-89533698D01*
X128665885Y-89518323D01*
X128688023Y-89505055D01*
X128711354Y-89494020D01*
X128735655Y-89485325D01*
X128760691Y-89479053D01*
X128786221Y-89475266D01*
X128812000Y-89474000D01*
X129438000Y-89474000D01*
X129463779Y-89475266D01*
G37*
G36*
X131405505Y-92250311D02*
G01*
X131431925Y-92254230D01*
X131457835Y-92260720D01*
X131482983Y-92269718D01*
X131507128Y-92281138D01*
X131530038Y-92294869D01*
X131551492Y-92310780D01*
X131571282Y-92328718D01*
X131589220Y-92348508D01*
X131605131Y-92369962D01*
X131618862Y-92392872D01*
X131630282Y-92417017D01*
X131639280Y-92442165D01*
X131645770Y-92468075D01*
X131649689Y-92494495D01*
X131651000Y-92521173D01*
X131651000Y-93478827D01*
X131649689Y-93505505D01*
X131645770Y-93531925D01*
X131639280Y-93557835D01*
X131630282Y-93582983D01*
X131618862Y-93607128D01*
X131605131Y-93630038D01*
X131589220Y-93651492D01*
X131571282Y-93671282D01*
X131551492Y-93689220D01*
X131530038Y-93705131D01*
X131507128Y-93718862D01*
X131482983Y-93730282D01*
X131457835Y-93739280D01*
X131431925Y-93745770D01*
X131405505Y-93749689D01*
X131378827Y-93751000D01*
X130671173Y-93751000D01*
X130644495Y-93749689D01*
X130618075Y-93745770D01*
X130592165Y-93739280D01*
X130567017Y-93730282D01*
X130542872Y-93718862D01*
X130519962Y-93705131D01*
X130498508Y-93689220D01*
X130478718Y-93671282D01*
X130460780Y-93651492D01*
X130444869Y-93630038D01*
X130431138Y-93607128D01*
X130419718Y-93582983D01*
X130410720Y-93557835D01*
X130404230Y-93531925D01*
X130400311Y-93505505D01*
X130399000Y-93478827D01*
X130399000Y-92521173D01*
X130400311Y-92494495D01*
X130404230Y-92468075D01*
X130410720Y-92442165D01*
X130419718Y-92417017D01*
X130431138Y-92392872D01*
X130444869Y-92369962D01*
X130460780Y-92348508D01*
X130478718Y-92328718D01*
X130498508Y-92310780D01*
X130519962Y-92294869D01*
X130542872Y-92281138D01*
X130567017Y-92269718D01*
X130592165Y-92260720D01*
X130618075Y-92254230D01*
X130644495Y-92250311D01*
X130671173Y-92249000D01*
X131378827Y-92249000D01*
X131405505Y-92250311D01*
G37*
G36*
X129355505Y-92250311D02*
G01*
X129381925Y-92254230D01*
X129407835Y-92260720D01*
X129432983Y-92269718D01*
X129457128Y-92281138D01*
X129480038Y-92294869D01*
X129501492Y-92310780D01*
X129521282Y-92328718D01*
X129539220Y-92348508D01*
X129555131Y-92369962D01*
X129568862Y-92392872D01*
X129580282Y-92417017D01*
X129589280Y-92442165D01*
X129595770Y-92468075D01*
X129599689Y-92494495D01*
X129601000Y-92521173D01*
X129601000Y-93478827D01*
X129599689Y-93505505D01*
X129595770Y-93531925D01*
X129589280Y-93557835D01*
X129580282Y-93582983D01*
X129568862Y-93607128D01*
X129555131Y-93630038D01*
X129539220Y-93651492D01*
X129521282Y-93671282D01*
X129501492Y-93689220D01*
X129480038Y-93705131D01*
X129457128Y-93718862D01*
X129432983Y-93730282D01*
X129407835Y-93739280D01*
X129381925Y-93745770D01*
X129355505Y-93749689D01*
X129328827Y-93751000D01*
X128621173Y-93751000D01*
X128594495Y-93749689D01*
X128568075Y-93745770D01*
X128542165Y-93739280D01*
X128517017Y-93730282D01*
X128492872Y-93718862D01*
X128469962Y-93705131D01*
X128448508Y-93689220D01*
X128428718Y-93671282D01*
X128410780Y-93651492D01*
X128394869Y-93630038D01*
X128381138Y-93607128D01*
X128369718Y-93582983D01*
X128360720Y-93557835D01*
X128354230Y-93531925D01*
X128350311Y-93505505D01*
X128349000Y-93478827D01*
X128349000Y-92521173D01*
X128350311Y-92494495D01*
X128354230Y-92468075D01*
X128360720Y-92442165D01*
X128369718Y-92417017D01*
X128381138Y-92392872D01*
X128394869Y-92369962D01*
X128410780Y-92348508D01*
X128428718Y-92328718D01*
X128448508Y-92310780D01*
X128469962Y-92294869D01*
X128492872Y-92281138D01*
X128517017Y-92269718D01*
X128542165Y-92260720D01*
X128568075Y-92254230D01*
X128594495Y-92250311D01*
X128621173Y-92249000D01*
X129328827Y-92249000D01*
X129355505Y-92250311D01*
G37*
G36*
X120405505Y-86250311D02*
G01*
X120431925Y-86254230D01*
X120457835Y-86260720D01*
X120482983Y-86269718D01*
X120507128Y-86281138D01*
X120530038Y-86294869D01*
X120551492Y-86310780D01*
X120571282Y-86328718D01*
X120589220Y-86348508D01*
X120605131Y-86369962D01*
X120618862Y-86392872D01*
X120630282Y-86417017D01*
X120639280Y-86442165D01*
X120645770Y-86468075D01*
X120649689Y-86494495D01*
X120651000Y-86521173D01*
X120651000Y-87478827D01*
X120649689Y-87505505D01*
X120645770Y-87531925D01*
X120639280Y-87557835D01*
X120630282Y-87582983D01*
X120618862Y-87607128D01*
X120605131Y-87630038D01*
X120589220Y-87651492D01*
X120571282Y-87671282D01*
X120551492Y-87689220D01*
X120530038Y-87705131D01*
X120507128Y-87718862D01*
X120482983Y-87730282D01*
X120457835Y-87739280D01*
X120431925Y-87745770D01*
X120405505Y-87749689D01*
X120378827Y-87751000D01*
X119671173Y-87751000D01*
X119644495Y-87749689D01*
X119618075Y-87745770D01*
X119592165Y-87739280D01*
X119567017Y-87730282D01*
X119542872Y-87718862D01*
X119519962Y-87705131D01*
X119498508Y-87689220D01*
X119478718Y-87671282D01*
X119460780Y-87651492D01*
X119444869Y-87630038D01*
X119431138Y-87607128D01*
X119419718Y-87582983D01*
X119410720Y-87557835D01*
X119404230Y-87531925D01*
X119400311Y-87505505D01*
X119399000Y-87478827D01*
X119399000Y-86521173D01*
X119400311Y-86494495D01*
X119404230Y-86468075D01*
X119410720Y-86442165D01*
X119419718Y-86417017D01*
X119431138Y-86392872D01*
X119444869Y-86369962D01*
X119460780Y-86348508D01*
X119478718Y-86328718D01*
X119498508Y-86310780D01*
X119519962Y-86294869D01*
X119542872Y-86281138D01*
X119567017Y-86269718D01*
X119592165Y-86260720D01*
X119618075Y-86254230D01*
X119644495Y-86250311D01*
X119671173Y-86249000D01*
X120378827Y-86249000D01*
X120405505Y-86250311D01*
G37*
G36*
X118355505Y-86250311D02*
G01*
X118381925Y-86254230D01*
X118407835Y-86260720D01*
X118432983Y-86269718D01*
X118457128Y-86281138D01*
X118480038Y-86294869D01*
X118501492Y-86310780D01*
X118521282Y-86328718D01*
X118539220Y-86348508D01*
X118555131Y-86369962D01*
X118568862Y-86392872D01*
X118580282Y-86417017D01*
X118589280Y-86442165D01*
X118595770Y-86468075D01*
X118599689Y-86494495D01*
X118601000Y-86521173D01*
X118601000Y-87478827D01*
X118599689Y-87505505D01*
X118595770Y-87531925D01*
X118589280Y-87557835D01*
X118580282Y-87582983D01*
X118568862Y-87607128D01*
X118555131Y-87630038D01*
X118539220Y-87651492D01*
X118521282Y-87671282D01*
X118501492Y-87689220D01*
X118480038Y-87705131D01*
X118457128Y-87718862D01*
X118432983Y-87730282D01*
X118407835Y-87739280D01*
X118381925Y-87745770D01*
X118355505Y-87749689D01*
X118328827Y-87751000D01*
X117621173Y-87751000D01*
X117594495Y-87749689D01*
X117568075Y-87745770D01*
X117542165Y-87739280D01*
X117517017Y-87730282D01*
X117492872Y-87718862D01*
X117469962Y-87705131D01*
X117448508Y-87689220D01*
X117428718Y-87671282D01*
X117410780Y-87651492D01*
X117394869Y-87630038D01*
X117381138Y-87607128D01*
X117369718Y-87582983D01*
X117360720Y-87557835D01*
X117354230Y-87531925D01*
X117350311Y-87505505D01*
X117349000Y-87478827D01*
X117349000Y-86521173D01*
X117350311Y-86494495D01*
X117354230Y-86468075D01*
X117360720Y-86442165D01*
X117369718Y-86417017D01*
X117381138Y-86392872D01*
X117394869Y-86369962D01*
X117410780Y-86348508D01*
X117428718Y-86328718D01*
X117448508Y-86310780D01*
X117469962Y-86294869D01*
X117492872Y-86281138D01*
X117517017Y-86269718D01*
X117542165Y-86260720D01*
X117568075Y-86254230D01*
X117594495Y-86250311D01*
X117621173Y-86249000D01*
X118328827Y-86249000D01*
X118355505Y-86250311D01*
G37*
G36*
X118355505Y-76250311D02*
G01*
X118381925Y-76254230D01*
X118407835Y-76260720D01*
X118432983Y-76269718D01*
X118457128Y-76281138D01*
X118480038Y-76294869D01*
X118501492Y-76310780D01*
X118521282Y-76328718D01*
X118539220Y-76348508D01*
X118555131Y-76369962D01*
X118568862Y-76392872D01*
X118580282Y-76417017D01*
X118589280Y-76442165D01*
X118595770Y-76468075D01*
X118599689Y-76494495D01*
X118601000Y-76521173D01*
X118601000Y-77478827D01*
X118599689Y-77505505D01*
X118595770Y-77531925D01*
X118589280Y-77557835D01*
X118580282Y-77582983D01*
X118568862Y-77607128D01*
X118555131Y-77630038D01*
X118539220Y-77651492D01*
X118521282Y-77671282D01*
X118501492Y-77689220D01*
X118480038Y-77705131D01*
X118457128Y-77718862D01*
X118432983Y-77730282D01*
X118407835Y-77739280D01*
X118381925Y-77745770D01*
X118355505Y-77749689D01*
X118328827Y-77751000D01*
X117621173Y-77751000D01*
X117594495Y-77749689D01*
X117568075Y-77745770D01*
X117542165Y-77739280D01*
X117517017Y-77730282D01*
X117492872Y-77718862D01*
X117469962Y-77705131D01*
X117448508Y-77689220D01*
X117428718Y-77671282D01*
X117410780Y-77651492D01*
X117394869Y-77630038D01*
X117381138Y-77607128D01*
X117369718Y-77582983D01*
X117360720Y-77557835D01*
X117354230Y-77531925D01*
X117350311Y-77505505D01*
X117349000Y-77478827D01*
X117349000Y-76521173D01*
X117350311Y-76494495D01*
X117354230Y-76468075D01*
X117360720Y-76442165D01*
X117369718Y-76417017D01*
X117381138Y-76392872D01*
X117394869Y-76369962D01*
X117410780Y-76348508D01*
X117428718Y-76328718D01*
X117448508Y-76310780D01*
X117469962Y-76294869D01*
X117492872Y-76281138D01*
X117517017Y-76269718D01*
X117542165Y-76260720D01*
X117568075Y-76254230D01*
X117594495Y-76250311D01*
X117621173Y-76249000D01*
X118328827Y-76249000D01*
X118355505Y-76250311D01*
G37*
G36*
X120405505Y-76250311D02*
G01*
X120431925Y-76254230D01*
X120457835Y-76260720D01*
X120482983Y-76269718D01*
X120507128Y-76281138D01*
X120530038Y-76294869D01*
X120551492Y-76310780D01*
X120571282Y-76328718D01*
X120589220Y-76348508D01*
X120605131Y-76369962D01*
X120618862Y-76392872D01*
X120630282Y-76417017D01*
X120639280Y-76442165D01*
X120645770Y-76468075D01*
X120649689Y-76494495D01*
X120651000Y-76521173D01*
X120651000Y-77478827D01*
X120649689Y-77505505D01*
X120645770Y-77531925D01*
X120639280Y-77557835D01*
X120630282Y-77582983D01*
X120618862Y-77607128D01*
X120605131Y-77630038D01*
X120589220Y-77651492D01*
X120571282Y-77671282D01*
X120551492Y-77689220D01*
X120530038Y-77705131D01*
X120507128Y-77718862D01*
X120482983Y-77730282D01*
X120457835Y-77739280D01*
X120431925Y-77745770D01*
X120405505Y-77749689D01*
X120378827Y-77751000D01*
X119671173Y-77751000D01*
X119644495Y-77749689D01*
X119618075Y-77745770D01*
X119592165Y-77739280D01*
X119567017Y-77730282D01*
X119542872Y-77718862D01*
X119519962Y-77705131D01*
X119498508Y-77689220D01*
X119478718Y-77671282D01*
X119460780Y-77651492D01*
X119444869Y-77630038D01*
X119431138Y-77607128D01*
X119419718Y-77582983D01*
X119410720Y-77557835D01*
X119404230Y-77531925D01*
X119400311Y-77505505D01*
X119399000Y-77478827D01*
X119399000Y-76521173D01*
X119400311Y-76494495D01*
X119404230Y-76468075D01*
X119410720Y-76442165D01*
X119419718Y-76417017D01*
X119431138Y-76392872D01*
X119444869Y-76369962D01*
X119460780Y-76348508D01*
X119478718Y-76328718D01*
X119498508Y-76310780D01*
X119519962Y-76294869D01*
X119542872Y-76281138D01*
X119567017Y-76269718D01*
X119592165Y-76260720D01*
X119618075Y-76254230D01*
X119644495Y-76250311D01*
X119671173Y-76249000D01*
X120378827Y-76249000D01*
X120405505Y-76250311D01*
G37*
G36*
X120213779Y-83475266D02*
G01*
X120239309Y-83479053D01*
X120264345Y-83485325D01*
X120288646Y-83494020D01*
X120311977Y-83505055D01*
X120334115Y-83518323D01*
X120354845Y-83533698D01*
X120373969Y-83551031D01*
X120391302Y-83570155D01*
X120406677Y-83590885D01*
X120419945Y-83613023D01*
X120430980Y-83636354D01*
X120439675Y-83660655D01*
X120445947Y-83685691D01*
X120449734Y-83711221D01*
X120451000Y-83737000D01*
X120451000Y-84263000D01*
X120449734Y-84288779D01*
X120445947Y-84314309D01*
X120439675Y-84339345D01*
X120430980Y-84363646D01*
X120419945Y-84386977D01*
X120406677Y-84409115D01*
X120391302Y-84429845D01*
X120373969Y-84448969D01*
X120354845Y-84466302D01*
X120334115Y-84481677D01*
X120311977Y-84494945D01*
X120288646Y-84505980D01*
X120264345Y-84514675D01*
X120239309Y-84520947D01*
X120213779Y-84524734D01*
X120188000Y-84526000D01*
X119562000Y-84526000D01*
X119536221Y-84524734D01*
X119510691Y-84520947D01*
X119485655Y-84514675D01*
X119461354Y-84505980D01*
X119438023Y-84494945D01*
X119415885Y-84481677D01*
X119395155Y-84466302D01*
X119376031Y-84448969D01*
X119358698Y-84429845D01*
X119343323Y-84409115D01*
X119330055Y-84386977D01*
X119319020Y-84363646D01*
X119310325Y-84339345D01*
X119304053Y-84314309D01*
X119300266Y-84288779D01*
X119299000Y-84263000D01*
X119299000Y-83737000D01*
X119300266Y-83711221D01*
X119304053Y-83685691D01*
X119310325Y-83660655D01*
X119319020Y-83636354D01*
X119330055Y-83613023D01*
X119343323Y-83590885D01*
X119358698Y-83570155D01*
X119376031Y-83551031D01*
X119395155Y-83533698D01*
X119415885Y-83518323D01*
X119438023Y-83505055D01*
X119461354Y-83494020D01*
X119485655Y-83485325D01*
X119510691Y-83479053D01*
X119536221Y-83475266D01*
X119562000Y-83474000D01*
X120188000Y-83474000D01*
X120213779Y-83475266D01*
G37*
G36*
X118463779Y-83475266D02*
G01*
X118489309Y-83479053D01*
X118514345Y-83485325D01*
X118538646Y-83494020D01*
X118561977Y-83505055D01*
X118584115Y-83518323D01*
X118604845Y-83533698D01*
X118623969Y-83551031D01*
X118641302Y-83570155D01*
X118656677Y-83590885D01*
X118669945Y-83613023D01*
X118680980Y-83636354D01*
X118689675Y-83660655D01*
X118695947Y-83685691D01*
X118699734Y-83711221D01*
X118701000Y-83737000D01*
X118701000Y-84263000D01*
X118699734Y-84288779D01*
X118695947Y-84314309D01*
X118689675Y-84339345D01*
X118680980Y-84363646D01*
X118669945Y-84386977D01*
X118656677Y-84409115D01*
X118641302Y-84429845D01*
X118623969Y-84448969D01*
X118604845Y-84466302D01*
X118584115Y-84481677D01*
X118561977Y-84494945D01*
X118538646Y-84505980D01*
X118514345Y-84514675D01*
X118489309Y-84520947D01*
X118463779Y-84524734D01*
X118438000Y-84526000D01*
X117812000Y-84526000D01*
X117786221Y-84524734D01*
X117760691Y-84520947D01*
X117735655Y-84514675D01*
X117711354Y-84505980D01*
X117688023Y-84494945D01*
X117665885Y-84481677D01*
X117645155Y-84466302D01*
X117626031Y-84448969D01*
X117608698Y-84429845D01*
X117593323Y-84409115D01*
X117580055Y-84386977D01*
X117569020Y-84363646D01*
X117560325Y-84339345D01*
X117554053Y-84314309D01*
X117550266Y-84288779D01*
X117549000Y-84263000D01*
X117549000Y-83737000D01*
X117550266Y-83711221D01*
X117554053Y-83685691D01*
X117560325Y-83660655D01*
X117569020Y-83636354D01*
X117580055Y-83613023D01*
X117593323Y-83590885D01*
X117608698Y-83570155D01*
X117626031Y-83551031D01*
X117645155Y-83533698D01*
X117665885Y-83518323D01*
X117688023Y-83505055D01*
X117711354Y-83494020D01*
X117735655Y-83485325D01*
X117760691Y-83479053D01*
X117786221Y-83475266D01*
X117812000Y-83474000D01*
X118438000Y-83474000D01*
X118463779Y-83475266D01*
G37*
G36*
X118463779Y-79475266D02*
G01*
X118489309Y-79479053D01*
X118514345Y-79485325D01*
X118538646Y-79494020D01*
X118561977Y-79505055D01*
X118584115Y-79518323D01*
X118604845Y-79533698D01*
X118623969Y-79551031D01*
X118641302Y-79570155D01*
X118656677Y-79590885D01*
X118669945Y-79613023D01*
X118680980Y-79636354D01*
X118689675Y-79660655D01*
X118695947Y-79685691D01*
X118699734Y-79711221D01*
X118701000Y-79737000D01*
X118701000Y-80263000D01*
X118699734Y-80288779D01*
X118695947Y-80314309D01*
X118689675Y-80339345D01*
X118680980Y-80363646D01*
X118669945Y-80386977D01*
X118656677Y-80409115D01*
X118641302Y-80429845D01*
X118623969Y-80448969D01*
X118604845Y-80466302D01*
X118584115Y-80481677D01*
X118561977Y-80494945D01*
X118538646Y-80505980D01*
X118514345Y-80514675D01*
X118489309Y-80520947D01*
X118463779Y-80524734D01*
X118438000Y-80526000D01*
X117812000Y-80526000D01*
X117786221Y-80524734D01*
X117760691Y-80520947D01*
X117735655Y-80514675D01*
X117711354Y-80505980D01*
X117688023Y-80494945D01*
X117665885Y-80481677D01*
X117645155Y-80466302D01*
X117626031Y-80448969D01*
X117608698Y-80429845D01*
X117593323Y-80409115D01*
X117580055Y-80386977D01*
X117569020Y-80363646D01*
X117560325Y-80339345D01*
X117554053Y-80314309D01*
X117550266Y-80288779D01*
X117549000Y-80263000D01*
X117549000Y-79737000D01*
X117550266Y-79711221D01*
X117554053Y-79685691D01*
X117560325Y-79660655D01*
X117569020Y-79636354D01*
X117580055Y-79613023D01*
X117593323Y-79590885D01*
X117608698Y-79570155D01*
X117626031Y-79551031D01*
X117645155Y-79533698D01*
X117665885Y-79518323D01*
X117688023Y-79505055D01*
X117711354Y-79494020D01*
X117735655Y-79485325D01*
X117760691Y-79479053D01*
X117786221Y-79475266D01*
X117812000Y-79474000D01*
X118438000Y-79474000D01*
X118463779Y-79475266D01*
G37*
G36*
X120213779Y-79475266D02*
G01*
X120239309Y-79479053D01*
X120264345Y-79485325D01*
X120288646Y-79494020D01*
X120311977Y-79505055D01*
X120334115Y-79518323D01*
X120354845Y-79533698D01*
X120373969Y-79551031D01*
X120391302Y-79570155D01*
X120406677Y-79590885D01*
X120419945Y-79613023D01*
X120430980Y-79636354D01*
X120439675Y-79660655D01*
X120445947Y-79685691D01*
X120449734Y-79711221D01*
X120451000Y-79737000D01*
X120451000Y-80263000D01*
X120449734Y-80288779D01*
X120445947Y-80314309D01*
X120439675Y-80339345D01*
X120430980Y-80363646D01*
X120419945Y-80386977D01*
X120406677Y-80409115D01*
X120391302Y-80429845D01*
X120373969Y-80448969D01*
X120354845Y-80466302D01*
X120334115Y-80481677D01*
X120311977Y-80494945D01*
X120288646Y-80505980D01*
X120264345Y-80514675D01*
X120239309Y-80520947D01*
X120213779Y-80524734D01*
X120188000Y-80526000D01*
X119562000Y-80526000D01*
X119536221Y-80524734D01*
X119510691Y-80520947D01*
X119485655Y-80514675D01*
X119461354Y-80505980D01*
X119438023Y-80494945D01*
X119415885Y-80481677D01*
X119395155Y-80466302D01*
X119376031Y-80448969D01*
X119358698Y-80429845D01*
X119343323Y-80409115D01*
X119330055Y-80386977D01*
X119319020Y-80363646D01*
X119310325Y-80339345D01*
X119304053Y-80314309D01*
X119300266Y-80288779D01*
X119299000Y-80263000D01*
X119299000Y-79737000D01*
X119300266Y-79711221D01*
X119304053Y-79685691D01*
X119310325Y-79660655D01*
X119319020Y-79636354D01*
X119330055Y-79613023D01*
X119343323Y-79590885D01*
X119358698Y-79570155D01*
X119376031Y-79551031D01*
X119395155Y-79533698D01*
X119415885Y-79518323D01*
X119438023Y-79505055D01*
X119461354Y-79494020D01*
X119485655Y-79485325D01*
X119510691Y-79479053D01*
X119536221Y-79475266D01*
X119562000Y-79474000D01*
X120188000Y-79474000D01*
X120213779Y-79475266D01*
G37*
G36*
X120405505Y-89250311D02*
G01*
X120431925Y-89254230D01*
X120457835Y-89260720D01*
X120482983Y-89269718D01*
X120507128Y-89281138D01*
X120530038Y-89294869D01*
X120551492Y-89310780D01*
X120571282Y-89328718D01*
X120589220Y-89348508D01*
X120605131Y-89369962D01*
X120618862Y-89392872D01*
X120630282Y-89417017D01*
X120639280Y-89442165D01*
X120645770Y-89468075D01*
X120649689Y-89494495D01*
X120651000Y-89521173D01*
X120651000Y-90478827D01*
X120649689Y-90505505D01*
X120645770Y-90531925D01*
X120639280Y-90557835D01*
X120630282Y-90582983D01*
X120618862Y-90607128D01*
X120605131Y-90630038D01*
X120589220Y-90651492D01*
X120571282Y-90671282D01*
X120551492Y-90689220D01*
X120530038Y-90705131D01*
X120507128Y-90718862D01*
X120482983Y-90730282D01*
X120457835Y-90739280D01*
X120431925Y-90745770D01*
X120405505Y-90749689D01*
X120378827Y-90751000D01*
X119671173Y-90751000D01*
X119644495Y-90749689D01*
X119618075Y-90745770D01*
X119592165Y-90739280D01*
X119567017Y-90730282D01*
X119542872Y-90718862D01*
X119519962Y-90705131D01*
X119498508Y-90689220D01*
X119478718Y-90671282D01*
X119460780Y-90651492D01*
X119444869Y-90630038D01*
X119431138Y-90607128D01*
X119419718Y-90582983D01*
X119410720Y-90557835D01*
X119404230Y-90531925D01*
X119400311Y-90505505D01*
X119399000Y-90478827D01*
X119399000Y-89521173D01*
X119400311Y-89494495D01*
X119404230Y-89468075D01*
X119410720Y-89442165D01*
X119419718Y-89417017D01*
X119431138Y-89392872D01*
X119444869Y-89369962D01*
X119460780Y-89348508D01*
X119478718Y-89328718D01*
X119498508Y-89310780D01*
X119519962Y-89294869D01*
X119542872Y-89281138D01*
X119567017Y-89269718D01*
X119592165Y-89260720D01*
X119618075Y-89254230D01*
X119644495Y-89250311D01*
X119671173Y-89249000D01*
X120378827Y-89249000D01*
X120405505Y-89250311D01*
G37*
G36*
X118355505Y-89250311D02*
G01*
X118381925Y-89254230D01*
X118407835Y-89260720D01*
X118432983Y-89269718D01*
X118457128Y-89281138D01*
X118480038Y-89294869D01*
X118501492Y-89310780D01*
X118521282Y-89328718D01*
X118539220Y-89348508D01*
X118555131Y-89369962D01*
X118568862Y-89392872D01*
X118580282Y-89417017D01*
X118589280Y-89442165D01*
X118595770Y-89468075D01*
X118599689Y-89494495D01*
X118601000Y-89521173D01*
X118601000Y-90478827D01*
X118599689Y-90505505D01*
X118595770Y-90531925D01*
X118589280Y-90557835D01*
X118580282Y-90582983D01*
X118568862Y-90607128D01*
X118555131Y-90630038D01*
X118539220Y-90651492D01*
X118521282Y-90671282D01*
X118501492Y-90689220D01*
X118480038Y-90705131D01*
X118457128Y-90718862D01*
X118432983Y-90730282D01*
X118407835Y-90739280D01*
X118381925Y-90745770D01*
X118355505Y-90749689D01*
X118328827Y-90751000D01*
X117621173Y-90751000D01*
X117594495Y-90749689D01*
X117568075Y-90745770D01*
X117542165Y-90739280D01*
X117517017Y-90730282D01*
X117492872Y-90718862D01*
X117469962Y-90705131D01*
X117448508Y-90689220D01*
X117428718Y-90671282D01*
X117410780Y-90651492D01*
X117394869Y-90630038D01*
X117381138Y-90607128D01*
X117369718Y-90582983D01*
X117360720Y-90557835D01*
X117354230Y-90531925D01*
X117350311Y-90505505D01*
X117349000Y-90478827D01*
X117349000Y-89521173D01*
X117350311Y-89494495D01*
X117354230Y-89468075D01*
X117360720Y-89442165D01*
X117369718Y-89417017D01*
X117381138Y-89392872D01*
X117394869Y-89369962D01*
X117410780Y-89348508D01*
X117428718Y-89328718D01*
X117448508Y-89310780D01*
X117469962Y-89294869D01*
X117492872Y-89281138D01*
X117517017Y-89269718D01*
X117542165Y-89260720D01*
X117568075Y-89254230D01*
X117594495Y-89250311D01*
X117621173Y-89249000D01*
X118328827Y-89249000D01*
X118355505Y-89250311D01*
G37*
G36*
X118355505Y-73250311D02*
G01*
X118381925Y-73254230D01*
X118407835Y-73260720D01*
X118432983Y-73269718D01*
X118457128Y-73281138D01*
X118480038Y-73294869D01*
X118501492Y-73310780D01*
X118521282Y-73328718D01*
X118539220Y-73348508D01*
X118555131Y-73369962D01*
X118568862Y-73392872D01*
X118580282Y-73417017D01*
X118589280Y-73442165D01*
X118595770Y-73468075D01*
X118599689Y-73494495D01*
X118601000Y-73521173D01*
X118601000Y-74478827D01*
X118599689Y-74505505D01*
X118595770Y-74531925D01*
X118589280Y-74557835D01*
X118580282Y-74582983D01*
X118568862Y-74607128D01*
X118555131Y-74630038D01*
X118539220Y-74651492D01*
X118521282Y-74671282D01*
X118501492Y-74689220D01*
X118480038Y-74705131D01*
X118457128Y-74718862D01*
X118432983Y-74730282D01*
X118407835Y-74739280D01*
X118381925Y-74745770D01*
X118355505Y-74749689D01*
X118328827Y-74751000D01*
X117621173Y-74751000D01*
X117594495Y-74749689D01*
X117568075Y-74745770D01*
X117542165Y-74739280D01*
X117517017Y-74730282D01*
X117492872Y-74718862D01*
X117469962Y-74705131D01*
X117448508Y-74689220D01*
X117428718Y-74671282D01*
X117410780Y-74651492D01*
X117394869Y-74630038D01*
X117381138Y-74607128D01*
X117369718Y-74582983D01*
X117360720Y-74557835D01*
X117354230Y-74531925D01*
X117350311Y-74505505D01*
X117349000Y-74478827D01*
X117349000Y-73521173D01*
X117350311Y-73494495D01*
X117354230Y-73468075D01*
X117360720Y-73442165D01*
X117369718Y-73417017D01*
X117381138Y-73392872D01*
X117394869Y-73369962D01*
X117410780Y-73348508D01*
X117428718Y-73328718D01*
X117448508Y-73310780D01*
X117469962Y-73294869D01*
X117492872Y-73281138D01*
X117517017Y-73269718D01*
X117542165Y-73260720D01*
X117568075Y-73254230D01*
X117594495Y-73250311D01*
X117621173Y-73249000D01*
X118328827Y-73249000D01*
X118355505Y-73250311D01*
G37*
G36*
X120405505Y-73250311D02*
G01*
X120431925Y-73254230D01*
X120457835Y-73260720D01*
X120482983Y-73269718D01*
X120507128Y-73281138D01*
X120530038Y-73294869D01*
X120551492Y-73310780D01*
X120571282Y-73328718D01*
X120589220Y-73348508D01*
X120605131Y-73369962D01*
X120618862Y-73392872D01*
X120630282Y-73417017D01*
X120639280Y-73442165D01*
X120645770Y-73468075D01*
X120649689Y-73494495D01*
X120651000Y-73521173D01*
X120651000Y-74478827D01*
X120649689Y-74505505D01*
X120645770Y-74531925D01*
X120639280Y-74557835D01*
X120630282Y-74582983D01*
X120618862Y-74607128D01*
X120605131Y-74630038D01*
X120589220Y-74651492D01*
X120571282Y-74671282D01*
X120551492Y-74689220D01*
X120530038Y-74705131D01*
X120507128Y-74718862D01*
X120482983Y-74730282D01*
X120457835Y-74739280D01*
X120431925Y-74745770D01*
X120405505Y-74749689D01*
X120378827Y-74751000D01*
X119671173Y-74751000D01*
X119644495Y-74749689D01*
X119618075Y-74745770D01*
X119592165Y-74739280D01*
X119567017Y-74730282D01*
X119542872Y-74718862D01*
X119519962Y-74705131D01*
X119498508Y-74689220D01*
X119478718Y-74671282D01*
X119460780Y-74651492D01*
X119444869Y-74630038D01*
X119431138Y-74607128D01*
X119419718Y-74582983D01*
X119410720Y-74557835D01*
X119404230Y-74531925D01*
X119400311Y-74505505D01*
X119399000Y-74478827D01*
X119399000Y-73521173D01*
X119400311Y-73494495D01*
X119404230Y-73468075D01*
X119410720Y-73442165D01*
X119419718Y-73417017D01*
X119431138Y-73392872D01*
X119444869Y-73369962D01*
X119460780Y-73348508D01*
X119478718Y-73328718D01*
X119498508Y-73310780D01*
X119519962Y-73294869D01*
X119542872Y-73281138D01*
X119567017Y-73269718D01*
X119592165Y-73260720D01*
X119618075Y-73254230D01*
X119644495Y-73250311D01*
X119671173Y-73249000D01*
X120378827Y-73249000D01*
X120405505Y-73250311D01*
G37*
G36*
X129355505Y-71750311D02*
G01*
X129381925Y-71754230D01*
X129407835Y-71760720D01*
X129432983Y-71769718D01*
X129457128Y-71781138D01*
X129480038Y-71794869D01*
X129501492Y-71810780D01*
X129521282Y-71828718D01*
X129539220Y-71848508D01*
X129555131Y-71869962D01*
X129568862Y-71892872D01*
X129580282Y-71917017D01*
X129589280Y-71942165D01*
X129595770Y-71968075D01*
X129599689Y-71994495D01*
X129601000Y-72021173D01*
X129601000Y-72978827D01*
X129599689Y-73005505D01*
X129595770Y-73031925D01*
X129589280Y-73057835D01*
X129580282Y-73082983D01*
X129568862Y-73107128D01*
X129555131Y-73130038D01*
X129539220Y-73151492D01*
X129521282Y-73171282D01*
X129501492Y-73189220D01*
X129480038Y-73205131D01*
X129457128Y-73218862D01*
X129432983Y-73230282D01*
X129407835Y-73239280D01*
X129381925Y-73245770D01*
X129355505Y-73249689D01*
X129328827Y-73251000D01*
X128621173Y-73251000D01*
X128594495Y-73249689D01*
X128568075Y-73245770D01*
X128542165Y-73239280D01*
X128517017Y-73230282D01*
X128492872Y-73218862D01*
X128469962Y-73205131D01*
X128448508Y-73189220D01*
X128428718Y-73171282D01*
X128410780Y-73151492D01*
X128394869Y-73130038D01*
X128381138Y-73107128D01*
X128369718Y-73082983D01*
X128360720Y-73057835D01*
X128354230Y-73031925D01*
X128350311Y-73005505D01*
X128349000Y-72978827D01*
X128349000Y-72021173D01*
X128350311Y-71994495D01*
X128354230Y-71968075D01*
X128360720Y-71942165D01*
X128369718Y-71917017D01*
X128381138Y-71892872D01*
X128394869Y-71869962D01*
X128410780Y-71848508D01*
X128428718Y-71828718D01*
X128448508Y-71810780D01*
X128469962Y-71794869D01*
X128492872Y-71781138D01*
X128517017Y-71769718D01*
X128542165Y-71760720D01*
X128568075Y-71754230D01*
X128594495Y-71750311D01*
X128621173Y-71749000D01*
X129328827Y-71749000D01*
X129355505Y-71750311D01*
G37*
G36*
X131405505Y-71750311D02*
G01*
X131431925Y-71754230D01*
X131457835Y-71760720D01*
X131482983Y-71769718D01*
X131507128Y-71781138D01*
X131530038Y-71794869D01*
X131551492Y-71810780D01*
X131571282Y-71828718D01*
X131589220Y-71848508D01*
X131605131Y-71869962D01*
X131618862Y-71892872D01*
X131630282Y-71917017D01*
X131639280Y-71942165D01*
X131645770Y-71968075D01*
X131649689Y-71994495D01*
X131651000Y-72021173D01*
X131651000Y-72978827D01*
X131649689Y-73005505D01*
X131645770Y-73031925D01*
X131639280Y-73057835D01*
X131630282Y-73082983D01*
X131618862Y-73107128D01*
X131605131Y-73130038D01*
X131589220Y-73151492D01*
X131571282Y-73171282D01*
X131551492Y-73189220D01*
X131530038Y-73205131D01*
X131507128Y-73218862D01*
X131482983Y-73230282D01*
X131457835Y-73239280D01*
X131431925Y-73245770D01*
X131405505Y-73249689D01*
X131378827Y-73251000D01*
X130671173Y-73251000D01*
X130644495Y-73249689D01*
X130618075Y-73245770D01*
X130592165Y-73239280D01*
X130567017Y-73230282D01*
X130542872Y-73218862D01*
X130519962Y-73205131D01*
X130498508Y-73189220D01*
X130478718Y-73171282D01*
X130460780Y-73151492D01*
X130444869Y-73130038D01*
X130431138Y-73107128D01*
X130419718Y-73082983D01*
X130410720Y-73057835D01*
X130404230Y-73031925D01*
X130400311Y-73005505D01*
X130399000Y-72978827D01*
X130399000Y-72021173D01*
X130400311Y-71994495D01*
X130404230Y-71968075D01*
X130410720Y-71942165D01*
X130419718Y-71917017D01*
X130431138Y-71892872D01*
X130444869Y-71869962D01*
X130460780Y-71848508D01*
X130478718Y-71828718D01*
X130498508Y-71810780D01*
X130519962Y-71794869D01*
X130542872Y-71781138D01*
X130567017Y-71769718D01*
X130592165Y-71760720D01*
X130618075Y-71754230D01*
X130644495Y-71750311D01*
X130671173Y-71749000D01*
X131378827Y-71749000D01*
X131405505Y-71750311D01*
G37*
G36*
X134505505Y-89850311D02*
G01*
X134531925Y-89854230D01*
X134557835Y-89860720D01*
X134582983Y-89869718D01*
X134607128Y-89881138D01*
X134630038Y-89894869D01*
X134651492Y-89910780D01*
X134671282Y-89928718D01*
X134689220Y-89948508D01*
X134705131Y-89969962D01*
X134718862Y-89992872D01*
X134730282Y-90017017D01*
X134739280Y-90042165D01*
X134745770Y-90068075D01*
X134749689Y-90094495D01*
X134751000Y-90121173D01*
X134751000Y-90828827D01*
X134749689Y-90855505D01*
X134745770Y-90881925D01*
X134739280Y-90907835D01*
X134730282Y-90932983D01*
X134718862Y-90957128D01*
X134705131Y-90980038D01*
X134689220Y-91001492D01*
X134671282Y-91021282D01*
X134651492Y-91039220D01*
X134630038Y-91055131D01*
X134607128Y-91068862D01*
X134582983Y-91080282D01*
X134557835Y-91089280D01*
X134531925Y-91095770D01*
X134505505Y-91099689D01*
X134478827Y-91101000D01*
X133521173Y-91101000D01*
X133494495Y-91099689D01*
X133468075Y-91095770D01*
X133442165Y-91089280D01*
X133417017Y-91080282D01*
X133392872Y-91068862D01*
X133369962Y-91055131D01*
X133348508Y-91039220D01*
X133328718Y-91021282D01*
X133310780Y-91001492D01*
X133294869Y-90980038D01*
X133281138Y-90957128D01*
X133269718Y-90932983D01*
X133260720Y-90907835D01*
X133254230Y-90881925D01*
X133250311Y-90855505D01*
X133249000Y-90828827D01*
X133249000Y-90121173D01*
X133250311Y-90094495D01*
X133254230Y-90068075D01*
X133260720Y-90042165D01*
X133269718Y-90017017D01*
X133281138Y-89992872D01*
X133294869Y-89969962D01*
X133310780Y-89948508D01*
X133328718Y-89928718D01*
X133348508Y-89910780D01*
X133369962Y-89894869D01*
X133392872Y-89881138D01*
X133417017Y-89869718D01*
X133442165Y-89860720D01*
X133468075Y-89854230D01*
X133494495Y-89850311D01*
X133521173Y-89849000D01*
X134478827Y-89849000D01*
X134505505Y-89850311D01*
G37*
G36*
X134505505Y-91900311D02*
G01*
X134531925Y-91904230D01*
X134557835Y-91910720D01*
X134582983Y-91919718D01*
X134607128Y-91931138D01*
X134630038Y-91944869D01*
X134651492Y-91960780D01*
X134671282Y-91978718D01*
X134689220Y-91998508D01*
X134705131Y-92019962D01*
X134718862Y-92042872D01*
X134730282Y-92067017D01*
X134739280Y-92092165D01*
X134745770Y-92118075D01*
X134749689Y-92144495D01*
X134751000Y-92171173D01*
X134751000Y-92878827D01*
X134749689Y-92905505D01*
X134745770Y-92931925D01*
X134739280Y-92957835D01*
X134730282Y-92982983D01*
X134718862Y-93007128D01*
X134705131Y-93030038D01*
X134689220Y-93051492D01*
X134671282Y-93071282D01*
X134651492Y-93089220D01*
X134630038Y-93105131D01*
X134607128Y-93118862D01*
X134582983Y-93130282D01*
X134557835Y-93139280D01*
X134531925Y-93145770D01*
X134505505Y-93149689D01*
X134478827Y-93151000D01*
X133521173Y-93151000D01*
X133494495Y-93149689D01*
X133468075Y-93145770D01*
X133442165Y-93139280D01*
X133417017Y-93130282D01*
X133392872Y-93118862D01*
X133369962Y-93105131D01*
X133348508Y-93089220D01*
X133328718Y-93071282D01*
X133310780Y-93051492D01*
X133294869Y-93030038D01*
X133281138Y-93007128D01*
X133269718Y-92982983D01*
X133260720Y-92957835D01*
X133254230Y-92931925D01*
X133250311Y-92905505D01*
X133249000Y-92878827D01*
X133249000Y-92171173D01*
X133250311Y-92144495D01*
X133254230Y-92118075D01*
X133260720Y-92092165D01*
X133269718Y-92067017D01*
X133281138Y-92042872D01*
X133294869Y-92019962D01*
X133310780Y-91998508D01*
X133328718Y-91978718D01*
X133348508Y-91960780D01*
X133369962Y-91944869D01*
X133392872Y-91931138D01*
X133417017Y-91919718D01*
X133442165Y-91910720D01*
X133468075Y-91904230D01*
X133494495Y-91900311D01*
X133521173Y-91899000D01*
X134478827Y-91899000D01*
X134505505Y-91900311D01*
G37*
G36*
X134505505Y-70850311D02*
G01*
X134531925Y-70854230D01*
X134557835Y-70860720D01*
X134582983Y-70869718D01*
X134607128Y-70881138D01*
X134630038Y-70894869D01*
X134651492Y-70910780D01*
X134671282Y-70928718D01*
X134689220Y-70948508D01*
X134705131Y-70969962D01*
X134718862Y-70992872D01*
X134730282Y-71017017D01*
X134739280Y-71042165D01*
X134745770Y-71068075D01*
X134749689Y-71094495D01*
X134751000Y-71121173D01*
X134751000Y-71828827D01*
X134749689Y-71855505D01*
X134745770Y-71881925D01*
X134739280Y-71907835D01*
X134730282Y-71932983D01*
X134718862Y-71957128D01*
X134705131Y-71980038D01*
X134689220Y-72001492D01*
X134671282Y-72021282D01*
X134651492Y-72039220D01*
X134630038Y-72055131D01*
X134607128Y-72068862D01*
X134582983Y-72080282D01*
X134557835Y-72089280D01*
X134531925Y-72095770D01*
X134505505Y-72099689D01*
X134478827Y-72101000D01*
X133521173Y-72101000D01*
X133494495Y-72099689D01*
X133468075Y-72095770D01*
X133442165Y-72089280D01*
X133417017Y-72080282D01*
X133392872Y-72068862D01*
X133369962Y-72055131D01*
X133348508Y-72039220D01*
X133328718Y-72021282D01*
X133310780Y-72001492D01*
X133294869Y-71980038D01*
X133281138Y-71957128D01*
X133269718Y-71932983D01*
X133260720Y-71907835D01*
X133254230Y-71881925D01*
X133250311Y-71855505D01*
X133249000Y-71828827D01*
X133249000Y-71121173D01*
X133250311Y-71094495D01*
X133254230Y-71068075D01*
X133260720Y-71042165D01*
X133269718Y-71017017D01*
X133281138Y-70992872D01*
X133294869Y-70969962D01*
X133310780Y-70948508D01*
X133328718Y-70928718D01*
X133348508Y-70910780D01*
X133369962Y-70894869D01*
X133392872Y-70881138D01*
X133417017Y-70869718D01*
X133442165Y-70860720D01*
X133468075Y-70854230D01*
X133494495Y-70850311D01*
X133521173Y-70849000D01*
X134478827Y-70849000D01*
X134505505Y-70850311D01*
G37*
G36*
X134505505Y-72900311D02*
G01*
X134531925Y-72904230D01*
X134557835Y-72910720D01*
X134582983Y-72919718D01*
X134607128Y-72931138D01*
X134630038Y-72944869D01*
X134651492Y-72960780D01*
X134671282Y-72978718D01*
X134689220Y-72998508D01*
X134705131Y-73019962D01*
X134718862Y-73042872D01*
X134730282Y-73067017D01*
X134739280Y-73092165D01*
X134745770Y-73118075D01*
X134749689Y-73144495D01*
X134751000Y-73171173D01*
X134751000Y-73878827D01*
X134749689Y-73905505D01*
X134745770Y-73931925D01*
X134739280Y-73957835D01*
X134730282Y-73982983D01*
X134718862Y-74007128D01*
X134705131Y-74030038D01*
X134689220Y-74051492D01*
X134671282Y-74071282D01*
X134651492Y-74089220D01*
X134630038Y-74105131D01*
X134607128Y-74118862D01*
X134582983Y-74130282D01*
X134557835Y-74139280D01*
X134531925Y-74145770D01*
X134505505Y-74149689D01*
X134478827Y-74151000D01*
X133521173Y-74151000D01*
X133494495Y-74149689D01*
X133468075Y-74145770D01*
X133442165Y-74139280D01*
X133417017Y-74130282D01*
X133392872Y-74118862D01*
X133369962Y-74105131D01*
X133348508Y-74089220D01*
X133328718Y-74071282D01*
X133310780Y-74051492D01*
X133294869Y-74030038D01*
X133281138Y-74007128D01*
X133269718Y-73982983D01*
X133260720Y-73957835D01*
X133254230Y-73931925D01*
X133250311Y-73905505D01*
X133249000Y-73878827D01*
X133249000Y-73171173D01*
X133250311Y-73144495D01*
X133254230Y-73118075D01*
X133260720Y-73092165D01*
X133269718Y-73067017D01*
X133281138Y-73042872D01*
X133294869Y-73019962D01*
X133310780Y-72998508D01*
X133328718Y-72978718D01*
X133348508Y-72960780D01*
X133369962Y-72944869D01*
X133392872Y-72931138D01*
X133417017Y-72919718D01*
X133442165Y-72910720D01*
X133468075Y-72904230D01*
X133494495Y-72900311D01*
X133521173Y-72899000D01*
X134478827Y-72899000D01*
X134505505Y-72900311D01*
G37*
G36*
X140355505Y-92250311D02*
G01*
X140381925Y-92254230D01*
X140407835Y-92260720D01*
X140432983Y-92269718D01*
X140457128Y-92281138D01*
X140480038Y-92294869D01*
X140501492Y-92310780D01*
X140521282Y-92328718D01*
X140539220Y-92348508D01*
X140555131Y-92369962D01*
X140568862Y-92392872D01*
X140580282Y-92417017D01*
X140589280Y-92442165D01*
X140595770Y-92468075D01*
X140599689Y-92494495D01*
X140601000Y-92521173D01*
X140601000Y-93478827D01*
X140599689Y-93505505D01*
X140595770Y-93531925D01*
X140589280Y-93557835D01*
X140580282Y-93582983D01*
X140568862Y-93607128D01*
X140555131Y-93630038D01*
X140539220Y-93651492D01*
X140521282Y-93671282D01*
X140501492Y-93689220D01*
X140480038Y-93705131D01*
X140457128Y-93718862D01*
X140432983Y-93730282D01*
X140407835Y-93739280D01*
X140381925Y-93745770D01*
X140355505Y-93749689D01*
X140328827Y-93751000D01*
X139621173Y-93751000D01*
X139594495Y-93749689D01*
X139568075Y-93745770D01*
X139542165Y-93739280D01*
X139517017Y-93730282D01*
X139492872Y-93718862D01*
X139469962Y-93705131D01*
X139448508Y-93689220D01*
X139428718Y-93671282D01*
X139410780Y-93651492D01*
X139394869Y-93630038D01*
X139381138Y-93607128D01*
X139369718Y-93582983D01*
X139360720Y-93557835D01*
X139354230Y-93531925D01*
X139350311Y-93505505D01*
X139349000Y-93478827D01*
X139349000Y-92521173D01*
X139350311Y-92494495D01*
X139354230Y-92468075D01*
X139360720Y-92442165D01*
X139369718Y-92417017D01*
X139381138Y-92392872D01*
X139394869Y-92369962D01*
X139410780Y-92348508D01*
X139428718Y-92328718D01*
X139448508Y-92310780D01*
X139469962Y-92294869D01*
X139492872Y-92281138D01*
X139517017Y-92269718D01*
X139542165Y-92260720D01*
X139568075Y-92254230D01*
X139594495Y-92250311D01*
X139621173Y-92249000D01*
X140328827Y-92249000D01*
X140355505Y-92250311D01*
G37*
G36*
X142405505Y-92250311D02*
G01*
X142431925Y-92254230D01*
X142457835Y-92260720D01*
X142482983Y-92269718D01*
X142507128Y-92281138D01*
X142530038Y-92294869D01*
X142551492Y-92310780D01*
X142571282Y-92328718D01*
X142589220Y-92348508D01*
X142605131Y-92369962D01*
X142618862Y-92392872D01*
X142630282Y-92417017D01*
X142639280Y-92442165D01*
X142645770Y-92468075D01*
X142649689Y-92494495D01*
X142651000Y-92521173D01*
X142651000Y-93478827D01*
X142649689Y-93505505D01*
X142645770Y-93531925D01*
X142639280Y-93557835D01*
X142630282Y-93582983D01*
X142618862Y-93607128D01*
X142605131Y-93630038D01*
X142589220Y-93651492D01*
X142571282Y-93671282D01*
X142551492Y-93689220D01*
X142530038Y-93705131D01*
X142507128Y-93718862D01*
X142482983Y-93730282D01*
X142457835Y-93739280D01*
X142431925Y-93745770D01*
X142405505Y-93749689D01*
X142378827Y-93751000D01*
X141671173Y-93751000D01*
X141644495Y-93749689D01*
X141618075Y-93745770D01*
X141592165Y-93739280D01*
X141567017Y-93730282D01*
X141542872Y-93718862D01*
X141519962Y-93705131D01*
X141498508Y-93689220D01*
X141478718Y-93671282D01*
X141460780Y-93651492D01*
X141444869Y-93630038D01*
X141431138Y-93607128D01*
X141419718Y-93582983D01*
X141410720Y-93557835D01*
X141404230Y-93531925D01*
X141400311Y-93505505D01*
X141399000Y-93478827D01*
X141399000Y-92521173D01*
X141400311Y-92494495D01*
X141404230Y-92468075D01*
X141410720Y-92442165D01*
X141419718Y-92417017D01*
X141431138Y-92392872D01*
X141444869Y-92369962D01*
X141460780Y-92348508D01*
X141478718Y-92328718D01*
X141498508Y-92310780D01*
X141519962Y-92294869D01*
X141542872Y-92281138D01*
X141567017Y-92269718D01*
X141592165Y-92260720D01*
X141618075Y-92254230D01*
X141644495Y-92250311D01*
X141671173Y-92249000D01*
X142378827Y-92249000D01*
X142405505Y-92250311D01*
G37*
G36*
X142405505Y-70250311D02*
G01*
X142431925Y-70254230D01*
X142457835Y-70260720D01*
X142482983Y-70269718D01*
X142507128Y-70281138D01*
X142530038Y-70294869D01*
X142551492Y-70310780D01*
X142571282Y-70328718D01*
X142589220Y-70348508D01*
X142605131Y-70369962D01*
X142618862Y-70392872D01*
X142630282Y-70417017D01*
X142639280Y-70442165D01*
X142645770Y-70468075D01*
X142649689Y-70494495D01*
X142651000Y-70521173D01*
X142651000Y-71478827D01*
X142649689Y-71505505D01*
X142645770Y-71531925D01*
X142639280Y-71557835D01*
X142630282Y-71582983D01*
X142618862Y-71607128D01*
X142605131Y-71630038D01*
X142589220Y-71651492D01*
X142571282Y-71671282D01*
X142551492Y-71689220D01*
X142530038Y-71705131D01*
X142507128Y-71718862D01*
X142482983Y-71730282D01*
X142457835Y-71739280D01*
X142431925Y-71745770D01*
X142405505Y-71749689D01*
X142378827Y-71751000D01*
X141671173Y-71751000D01*
X141644495Y-71749689D01*
X141618075Y-71745770D01*
X141592165Y-71739280D01*
X141567017Y-71730282D01*
X141542872Y-71718862D01*
X141519962Y-71705131D01*
X141498508Y-71689220D01*
X141478718Y-71671282D01*
X141460780Y-71651492D01*
X141444869Y-71630038D01*
X141431138Y-71607128D01*
X141419718Y-71582983D01*
X141410720Y-71557835D01*
X141404230Y-71531925D01*
X141400311Y-71505505D01*
X141399000Y-71478827D01*
X141399000Y-70521173D01*
X141400311Y-70494495D01*
X141404230Y-70468075D01*
X141410720Y-70442165D01*
X141419718Y-70417017D01*
X141431138Y-70392872D01*
X141444869Y-70369962D01*
X141460780Y-70348508D01*
X141478718Y-70328718D01*
X141498508Y-70310780D01*
X141519962Y-70294869D01*
X141542872Y-70281138D01*
X141567017Y-70269718D01*
X141592165Y-70260720D01*
X141618075Y-70254230D01*
X141644495Y-70250311D01*
X141671173Y-70249000D01*
X142378827Y-70249000D01*
X142405505Y-70250311D01*
G37*
G36*
X140355505Y-70250311D02*
G01*
X140381925Y-70254230D01*
X140407835Y-70260720D01*
X140432983Y-70269718D01*
X140457128Y-70281138D01*
X140480038Y-70294869D01*
X140501492Y-70310780D01*
X140521282Y-70328718D01*
X140539220Y-70348508D01*
X140555131Y-70369962D01*
X140568862Y-70392872D01*
X140580282Y-70417017D01*
X140589280Y-70442165D01*
X140595770Y-70468075D01*
X140599689Y-70494495D01*
X140601000Y-70521173D01*
X140601000Y-71478827D01*
X140599689Y-71505505D01*
X140595770Y-71531925D01*
X140589280Y-71557835D01*
X140580282Y-71582983D01*
X140568862Y-71607128D01*
X140555131Y-71630038D01*
X140539220Y-71651492D01*
X140521282Y-71671282D01*
X140501492Y-71689220D01*
X140480038Y-71705131D01*
X140457128Y-71718862D01*
X140432983Y-71730282D01*
X140407835Y-71739280D01*
X140381925Y-71745770D01*
X140355505Y-71749689D01*
X140328827Y-71751000D01*
X139621173Y-71751000D01*
X139594495Y-71749689D01*
X139568075Y-71745770D01*
X139542165Y-71739280D01*
X139517017Y-71730282D01*
X139492872Y-71718862D01*
X139469962Y-71705131D01*
X139448508Y-71689220D01*
X139428718Y-71671282D01*
X139410780Y-71651492D01*
X139394869Y-71630038D01*
X139381138Y-71607128D01*
X139369718Y-71582983D01*
X139360720Y-71557835D01*
X139354230Y-71531925D01*
X139350311Y-71505505D01*
X139349000Y-71478827D01*
X139349000Y-70521173D01*
X139350311Y-70494495D01*
X139354230Y-70468075D01*
X139360720Y-70442165D01*
X139369718Y-70417017D01*
X139381138Y-70392872D01*
X139394869Y-70369962D01*
X139410780Y-70348508D01*
X139428718Y-70328718D01*
X139448508Y-70310780D01*
X139469962Y-70294869D01*
X139492872Y-70281138D01*
X139517017Y-70269718D01*
X139542165Y-70260720D01*
X139568075Y-70254230D01*
X139594495Y-70250311D01*
X139621173Y-70249000D01*
X140328827Y-70249000D01*
X140355505Y-70250311D01*
G37*
G36*
X140355505Y-89250311D02*
G01*
X140381925Y-89254230D01*
X140407835Y-89260720D01*
X140432983Y-89269718D01*
X140457128Y-89281138D01*
X140480038Y-89294869D01*
X140501492Y-89310780D01*
X140521282Y-89328718D01*
X140539220Y-89348508D01*
X140555131Y-89369962D01*
X140568862Y-89392872D01*
X140580282Y-89417017D01*
X140589280Y-89442165D01*
X140595770Y-89468075D01*
X140599689Y-89494495D01*
X140601000Y-89521173D01*
X140601000Y-90478827D01*
X140599689Y-90505505D01*
X140595770Y-90531925D01*
X140589280Y-90557835D01*
X140580282Y-90582983D01*
X140568862Y-90607128D01*
X140555131Y-90630038D01*
X140539220Y-90651492D01*
X140521282Y-90671282D01*
X140501492Y-90689220D01*
X140480038Y-90705131D01*
X140457128Y-90718862D01*
X140432983Y-90730282D01*
X140407835Y-90739280D01*
X140381925Y-90745770D01*
X140355505Y-90749689D01*
X140328827Y-90751000D01*
X139621173Y-90751000D01*
X139594495Y-90749689D01*
X139568075Y-90745770D01*
X139542165Y-90739280D01*
X139517017Y-90730282D01*
X139492872Y-90718862D01*
X139469962Y-90705131D01*
X139448508Y-90689220D01*
X139428718Y-90671282D01*
X139410780Y-90651492D01*
X139394869Y-90630038D01*
X139381138Y-90607128D01*
X139369718Y-90582983D01*
X139360720Y-90557835D01*
X139354230Y-90531925D01*
X139350311Y-90505505D01*
X139349000Y-90478827D01*
X139349000Y-89521173D01*
X139350311Y-89494495D01*
X139354230Y-89468075D01*
X139360720Y-89442165D01*
X139369718Y-89417017D01*
X139381138Y-89392872D01*
X139394869Y-89369962D01*
X139410780Y-89348508D01*
X139428718Y-89328718D01*
X139448508Y-89310780D01*
X139469962Y-89294869D01*
X139492872Y-89281138D01*
X139517017Y-89269718D01*
X139542165Y-89260720D01*
X139568075Y-89254230D01*
X139594495Y-89250311D01*
X139621173Y-89249000D01*
X140328827Y-89249000D01*
X140355505Y-89250311D01*
G37*
G36*
X142405505Y-89250311D02*
G01*
X142431925Y-89254230D01*
X142457835Y-89260720D01*
X142482983Y-89269718D01*
X142507128Y-89281138D01*
X142530038Y-89294869D01*
X142551492Y-89310780D01*
X142571282Y-89328718D01*
X142589220Y-89348508D01*
X142605131Y-89369962D01*
X142618862Y-89392872D01*
X142630282Y-89417017D01*
X142639280Y-89442165D01*
X142645770Y-89468075D01*
X142649689Y-89494495D01*
X142651000Y-89521173D01*
X142651000Y-90478827D01*
X142649689Y-90505505D01*
X142645770Y-90531925D01*
X142639280Y-90557835D01*
X142630282Y-90582983D01*
X142618862Y-90607128D01*
X142605131Y-90630038D01*
X142589220Y-90651492D01*
X142571282Y-90671282D01*
X142551492Y-90689220D01*
X142530038Y-90705131D01*
X142507128Y-90718862D01*
X142482983Y-90730282D01*
X142457835Y-90739280D01*
X142431925Y-90745770D01*
X142405505Y-90749689D01*
X142378827Y-90751000D01*
X141671173Y-90751000D01*
X141644495Y-90749689D01*
X141618075Y-90745770D01*
X141592165Y-90739280D01*
X141567017Y-90730282D01*
X141542872Y-90718862D01*
X141519962Y-90705131D01*
X141498508Y-90689220D01*
X141478718Y-90671282D01*
X141460780Y-90651492D01*
X141444869Y-90630038D01*
X141431138Y-90607128D01*
X141419718Y-90582983D01*
X141410720Y-90557835D01*
X141404230Y-90531925D01*
X141400311Y-90505505D01*
X141399000Y-90478827D01*
X141399000Y-89521173D01*
X141400311Y-89494495D01*
X141404230Y-89468075D01*
X141410720Y-89442165D01*
X141419718Y-89417017D01*
X141431138Y-89392872D01*
X141444869Y-89369962D01*
X141460780Y-89348508D01*
X141478718Y-89328718D01*
X141498508Y-89310780D01*
X141519962Y-89294869D01*
X141542872Y-89281138D01*
X141567017Y-89269718D01*
X141592165Y-89260720D01*
X141618075Y-89254230D01*
X141644495Y-89250311D01*
X141671173Y-89249000D01*
X142378827Y-89249000D01*
X142405505Y-89250311D01*
G37*
G36*
X142405505Y-73250311D02*
G01*
X142431925Y-73254230D01*
X142457835Y-73260720D01*
X142482983Y-73269718D01*
X142507128Y-73281138D01*
X142530038Y-73294869D01*
X142551492Y-73310780D01*
X142571282Y-73328718D01*
X142589220Y-73348508D01*
X142605131Y-73369962D01*
X142618862Y-73392872D01*
X142630282Y-73417017D01*
X142639280Y-73442165D01*
X142645770Y-73468075D01*
X142649689Y-73494495D01*
X142651000Y-73521173D01*
X142651000Y-74478827D01*
X142649689Y-74505505D01*
X142645770Y-74531925D01*
X142639280Y-74557835D01*
X142630282Y-74582983D01*
X142618862Y-74607128D01*
X142605131Y-74630038D01*
X142589220Y-74651492D01*
X142571282Y-74671282D01*
X142551492Y-74689220D01*
X142530038Y-74705131D01*
X142507128Y-74718862D01*
X142482983Y-74730282D01*
X142457835Y-74739280D01*
X142431925Y-74745770D01*
X142405505Y-74749689D01*
X142378827Y-74751000D01*
X141671173Y-74751000D01*
X141644495Y-74749689D01*
X141618075Y-74745770D01*
X141592165Y-74739280D01*
X141567017Y-74730282D01*
X141542872Y-74718862D01*
X141519962Y-74705131D01*
X141498508Y-74689220D01*
X141478718Y-74671282D01*
X141460780Y-74651492D01*
X141444869Y-74630038D01*
X141431138Y-74607128D01*
X141419718Y-74582983D01*
X141410720Y-74557835D01*
X141404230Y-74531925D01*
X141400311Y-74505505D01*
X141399000Y-74478827D01*
X141399000Y-73521173D01*
X141400311Y-73494495D01*
X141404230Y-73468075D01*
X141410720Y-73442165D01*
X141419718Y-73417017D01*
X141431138Y-73392872D01*
X141444869Y-73369962D01*
X141460780Y-73348508D01*
X141478718Y-73328718D01*
X141498508Y-73310780D01*
X141519962Y-73294869D01*
X141542872Y-73281138D01*
X141567017Y-73269718D01*
X141592165Y-73260720D01*
X141618075Y-73254230D01*
X141644495Y-73250311D01*
X141671173Y-73249000D01*
X142378827Y-73249000D01*
X142405505Y-73250311D01*
G37*
G36*
X140355505Y-73250311D02*
G01*
X140381925Y-73254230D01*
X140407835Y-73260720D01*
X140432983Y-73269718D01*
X140457128Y-73281138D01*
X140480038Y-73294869D01*
X140501492Y-73310780D01*
X140521282Y-73328718D01*
X140539220Y-73348508D01*
X140555131Y-73369962D01*
X140568862Y-73392872D01*
X140580282Y-73417017D01*
X140589280Y-73442165D01*
X140595770Y-73468075D01*
X140599689Y-73494495D01*
X140601000Y-73521173D01*
X140601000Y-74478827D01*
X140599689Y-74505505D01*
X140595770Y-74531925D01*
X140589280Y-74557835D01*
X140580282Y-74582983D01*
X140568862Y-74607128D01*
X140555131Y-74630038D01*
X140539220Y-74651492D01*
X140521282Y-74671282D01*
X140501492Y-74689220D01*
X140480038Y-74705131D01*
X140457128Y-74718862D01*
X140432983Y-74730282D01*
X140407835Y-74739280D01*
X140381925Y-74745770D01*
X140355505Y-74749689D01*
X140328827Y-74751000D01*
X139621173Y-74751000D01*
X139594495Y-74749689D01*
X139568075Y-74745770D01*
X139542165Y-74739280D01*
X139517017Y-74730282D01*
X139492872Y-74718862D01*
X139469962Y-74705131D01*
X139448508Y-74689220D01*
X139428718Y-74671282D01*
X139410780Y-74651492D01*
X139394869Y-74630038D01*
X139381138Y-74607128D01*
X139369718Y-74582983D01*
X139360720Y-74557835D01*
X139354230Y-74531925D01*
X139350311Y-74505505D01*
X139349000Y-74478827D01*
X139349000Y-73521173D01*
X139350311Y-73494495D01*
X139354230Y-73468075D01*
X139360720Y-73442165D01*
X139369718Y-73417017D01*
X139381138Y-73392872D01*
X139394869Y-73369962D01*
X139410780Y-73348508D01*
X139428718Y-73328718D01*
X139448508Y-73310780D01*
X139469962Y-73294869D01*
X139492872Y-73281138D01*
X139517017Y-73269718D01*
X139542165Y-73260720D01*
X139568075Y-73254230D01*
X139594495Y-73250311D01*
X139621173Y-73249000D01*
X140328827Y-73249000D01*
X140355505Y-73250311D01*
G37*
G36*
X140355505Y-86250311D02*
G01*
X140381925Y-86254230D01*
X140407835Y-86260720D01*
X140432983Y-86269718D01*
X140457128Y-86281138D01*
X140480038Y-86294869D01*
X140501492Y-86310780D01*
X140521282Y-86328718D01*
X140539220Y-86348508D01*
X140555131Y-86369962D01*
X140568862Y-86392872D01*
X140580282Y-86417017D01*
X140589280Y-86442165D01*
X140595770Y-86468075D01*
X140599689Y-86494495D01*
X140601000Y-86521173D01*
X140601000Y-87478827D01*
X140599689Y-87505505D01*
X140595770Y-87531925D01*
X140589280Y-87557835D01*
X140580282Y-87582983D01*
X140568862Y-87607128D01*
X140555131Y-87630038D01*
X140539220Y-87651492D01*
X140521282Y-87671282D01*
X140501492Y-87689220D01*
X140480038Y-87705131D01*
X140457128Y-87718862D01*
X140432983Y-87730282D01*
X140407835Y-87739280D01*
X140381925Y-87745770D01*
X140355505Y-87749689D01*
X140328827Y-87751000D01*
X139621173Y-87751000D01*
X139594495Y-87749689D01*
X139568075Y-87745770D01*
X139542165Y-87739280D01*
X139517017Y-87730282D01*
X139492872Y-87718862D01*
X139469962Y-87705131D01*
X139448508Y-87689220D01*
X139428718Y-87671282D01*
X139410780Y-87651492D01*
X139394869Y-87630038D01*
X139381138Y-87607128D01*
X139369718Y-87582983D01*
X139360720Y-87557835D01*
X139354230Y-87531925D01*
X139350311Y-87505505D01*
X139349000Y-87478827D01*
X139349000Y-86521173D01*
X139350311Y-86494495D01*
X139354230Y-86468075D01*
X139360720Y-86442165D01*
X139369718Y-86417017D01*
X139381138Y-86392872D01*
X139394869Y-86369962D01*
X139410780Y-86348508D01*
X139428718Y-86328718D01*
X139448508Y-86310780D01*
X139469962Y-86294869D01*
X139492872Y-86281138D01*
X139517017Y-86269718D01*
X139542165Y-86260720D01*
X139568075Y-86254230D01*
X139594495Y-86250311D01*
X139621173Y-86249000D01*
X140328827Y-86249000D01*
X140355505Y-86250311D01*
G37*
G36*
X142405505Y-86250311D02*
G01*
X142431925Y-86254230D01*
X142457835Y-86260720D01*
X142482983Y-86269718D01*
X142507128Y-86281138D01*
X142530038Y-86294869D01*
X142551492Y-86310780D01*
X142571282Y-86328718D01*
X142589220Y-86348508D01*
X142605131Y-86369962D01*
X142618862Y-86392872D01*
X142630282Y-86417017D01*
X142639280Y-86442165D01*
X142645770Y-86468075D01*
X142649689Y-86494495D01*
X142651000Y-86521173D01*
X142651000Y-87478827D01*
X142649689Y-87505505D01*
X142645770Y-87531925D01*
X142639280Y-87557835D01*
X142630282Y-87582983D01*
X142618862Y-87607128D01*
X142605131Y-87630038D01*
X142589220Y-87651492D01*
X142571282Y-87671282D01*
X142551492Y-87689220D01*
X142530038Y-87705131D01*
X142507128Y-87718862D01*
X142482983Y-87730282D01*
X142457835Y-87739280D01*
X142431925Y-87745770D01*
X142405505Y-87749689D01*
X142378827Y-87751000D01*
X141671173Y-87751000D01*
X141644495Y-87749689D01*
X141618075Y-87745770D01*
X141592165Y-87739280D01*
X141567017Y-87730282D01*
X141542872Y-87718862D01*
X141519962Y-87705131D01*
X141498508Y-87689220D01*
X141478718Y-87671282D01*
X141460780Y-87651492D01*
X141444869Y-87630038D01*
X141431138Y-87607128D01*
X141419718Y-87582983D01*
X141410720Y-87557835D01*
X141404230Y-87531925D01*
X141400311Y-87505505D01*
X141399000Y-87478827D01*
X141399000Y-86521173D01*
X141400311Y-86494495D01*
X141404230Y-86468075D01*
X141410720Y-86442165D01*
X141419718Y-86417017D01*
X141431138Y-86392872D01*
X141444869Y-86369962D01*
X141460780Y-86348508D01*
X141478718Y-86328718D01*
X141498508Y-86310780D01*
X141519962Y-86294869D01*
X141542872Y-86281138D01*
X141567017Y-86269718D01*
X141592165Y-86260720D01*
X141618075Y-86254230D01*
X141644495Y-86250311D01*
X141671173Y-86249000D01*
X142378827Y-86249000D01*
X142405505Y-86250311D01*
G37*
G36*
X142405505Y-76250311D02*
G01*
X142431925Y-76254230D01*
X142457835Y-76260720D01*
X142482983Y-76269718D01*
X142507128Y-76281138D01*
X142530038Y-76294869D01*
X142551492Y-76310780D01*
X142571282Y-76328718D01*
X142589220Y-76348508D01*
X142605131Y-76369962D01*
X142618862Y-76392872D01*
X142630282Y-76417017D01*
X142639280Y-76442165D01*
X142645770Y-76468075D01*
X142649689Y-76494495D01*
X142651000Y-76521173D01*
X142651000Y-77478827D01*
X142649689Y-77505505D01*
X142645770Y-77531925D01*
X142639280Y-77557835D01*
X142630282Y-77582983D01*
X142618862Y-77607128D01*
X142605131Y-77630038D01*
X142589220Y-77651492D01*
X142571282Y-77671282D01*
X142551492Y-77689220D01*
X142530038Y-77705131D01*
X142507128Y-77718862D01*
X142482983Y-77730282D01*
X142457835Y-77739280D01*
X142431925Y-77745770D01*
X142405505Y-77749689D01*
X142378827Y-77751000D01*
X141671173Y-77751000D01*
X141644495Y-77749689D01*
X141618075Y-77745770D01*
X141592165Y-77739280D01*
X141567017Y-77730282D01*
X141542872Y-77718862D01*
X141519962Y-77705131D01*
X141498508Y-77689220D01*
X141478718Y-77671282D01*
X141460780Y-77651492D01*
X141444869Y-77630038D01*
X141431138Y-77607128D01*
X141419718Y-77582983D01*
X141410720Y-77557835D01*
X141404230Y-77531925D01*
X141400311Y-77505505D01*
X141399000Y-77478827D01*
X141399000Y-76521173D01*
X141400311Y-76494495D01*
X141404230Y-76468075D01*
X141410720Y-76442165D01*
X141419718Y-76417017D01*
X141431138Y-76392872D01*
X141444869Y-76369962D01*
X141460780Y-76348508D01*
X141478718Y-76328718D01*
X141498508Y-76310780D01*
X141519962Y-76294869D01*
X141542872Y-76281138D01*
X141567017Y-76269718D01*
X141592165Y-76260720D01*
X141618075Y-76254230D01*
X141644495Y-76250311D01*
X141671173Y-76249000D01*
X142378827Y-76249000D01*
X142405505Y-76250311D01*
G37*
G36*
X140355505Y-76250311D02*
G01*
X140381925Y-76254230D01*
X140407835Y-76260720D01*
X140432983Y-76269718D01*
X140457128Y-76281138D01*
X140480038Y-76294869D01*
X140501492Y-76310780D01*
X140521282Y-76328718D01*
X140539220Y-76348508D01*
X140555131Y-76369962D01*
X140568862Y-76392872D01*
X140580282Y-76417017D01*
X140589280Y-76442165D01*
X140595770Y-76468075D01*
X140599689Y-76494495D01*
X140601000Y-76521173D01*
X140601000Y-77478827D01*
X140599689Y-77505505D01*
X140595770Y-77531925D01*
X140589280Y-77557835D01*
X140580282Y-77582983D01*
X140568862Y-77607128D01*
X140555131Y-77630038D01*
X140539220Y-77651492D01*
X140521282Y-77671282D01*
X140501492Y-77689220D01*
X140480038Y-77705131D01*
X140457128Y-77718862D01*
X140432983Y-77730282D01*
X140407835Y-77739280D01*
X140381925Y-77745770D01*
X140355505Y-77749689D01*
X140328827Y-77751000D01*
X139621173Y-77751000D01*
X139594495Y-77749689D01*
X139568075Y-77745770D01*
X139542165Y-77739280D01*
X139517017Y-77730282D01*
X139492872Y-77718862D01*
X139469962Y-77705131D01*
X139448508Y-77689220D01*
X139428718Y-77671282D01*
X139410780Y-77651492D01*
X139394869Y-77630038D01*
X139381138Y-77607128D01*
X139369718Y-77582983D01*
X139360720Y-77557835D01*
X139354230Y-77531925D01*
X139350311Y-77505505D01*
X139349000Y-77478827D01*
X139349000Y-76521173D01*
X139350311Y-76494495D01*
X139354230Y-76468075D01*
X139360720Y-76442165D01*
X139369718Y-76417017D01*
X139381138Y-76392872D01*
X139394869Y-76369962D01*
X139410780Y-76348508D01*
X139428718Y-76328718D01*
X139448508Y-76310780D01*
X139469962Y-76294869D01*
X139492872Y-76281138D01*
X139517017Y-76269718D01*
X139542165Y-76260720D01*
X139568075Y-76254230D01*
X139594495Y-76250311D01*
X139621173Y-76249000D01*
X140328827Y-76249000D01*
X140355505Y-76250311D01*
G37*
G36*
X140355505Y-83250311D02*
G01*
X140381925Y-83254230D01*
X140407835Y-83260720D01*
X140432983Y-83269718D01*
X140457128Y-83281138D01*
X140480038Y-83294869D01*
X140501492Y-83310780D01*
X140521282Y-83328718D01*
X140539220Y-83348508D01*
X140555131Y-83369962D01*
X140568862Y-83392872D01*
X140580282Y-83417017D01*
X140589280Y-83442165D01*
X140595770Y-83468075D01*
X140599689Y-83494495D01*
X140601000Y-83521173D01*
X140601000Y-84478827D01*
X140599689Y-84505505D01*
X140595770Y-84531925D01*
X140589280Y-84557835D01*
X140580282Y-84582983D01*
X140568862Y-84607128D01*
X140555131Y-84630038D01*
X140539220Y-84651492D01*
X140521282Y-84671282D01*
X140501492Y-84689220D01*
X140480038Y-84705131D01*
X140457128Y-84718862D01*
X140432983Y-84730282D01*
X140407835Y-84739280D01*
X140381925Y-84745770D01*
X140355505Y-84749689D01*
X140328827Y-84751000D01*
X139621173Y-84751000D01*
X139594495Y-84749689D01*
X139568075Y-84745770D01*
X139542165Y-84739280D01*
X139517017Y-84730282D01*
X139492872Y-84718862D01*
X139469962Y-84705131D01*
X139448508Y-84689220D01*
X139428718Y-84671282D01*
X139410780Y-84651492D01*
X139394869Y-84630038D01*
X139381138Y-84607128D01*
X139369718Y-84582983D01*
X139360720Y-84557835D01*
X139354230Y-84531925D01*
X139350311Y-84505505D01*
X139349000Y-84478827D01*
X139349000Y-83521173D01*
X139350311Y-83494495D01*
X139354230Y-83468075D01*
X139360720Y-83442165D01*
X139369718Y-83417017D01*
X139381138Y-83392872D01*
X139394869Y-83369962D01*
X139410780Y-83348508D01*
X139428718Y-83328718D01*
X139448508Y-83310780D01*
X139469962Y-83294869D01*
X139492872Y-83281138D01*
X139517017Y-83269718D01*
X139542165Y-83260720D01*
X139568075Y-83254230D01*
X139594495Y-83250311D01*
X139621173Y-83249000D01*
X140328827Y-83249000D01*
X140355505Y-83250311D01*
G37*
G36*
X142405505Y-83250311D02*
G01*
X142431925Y-83254230D01*
X142457835Y-83260720D01*
X142482983Y-83269718D01*
X142507128Y-83281138D01*
X142530038Y-83294869D01*
X142551492Y-83310780D01*
X142571282Y-83328718D01*
X142589220Y-83348508D01*
X142605131Y-83369962D01*
X142618862Y-83392872D01*
X142630282Y-83417017D01*
X142639280Y-83442165D01*
X142645770Y-83468075D01*
X142649689Y-83494495D01*
X142651000Y-83521173D01*
X142651000Y-84478827D01*
X142649689Y-84505505D01*
X142645770Y-84531925D01*
X142639280Y-84557835D01*
X142630282Y-84582983D01*
X142618862Y-84607128D01*
X142605131Y-84630038D01*
X142589220Y-84651492D01*
X142571282Y-84671282D01*
X142551492Y-84689220D01*
X142530038Y-84705131D01*
X142507128Y-84718862D01*
X142482983Y-84730282D01*
X142457835Y-84739280D01*
X142431925Y-84745770D01*
X142405505Y-84749689D01*
X142378827Y-84751000D01*
X141671173Y-84751000D01*
X141644495Y-84749689D01*
X141618075Y-84745770D01*
X141592165Y-84739280D01*
X141567017Y-84730282D01*
X141542872Y-84718862D01*
X141519962Y-84705131D01*
X141498508Y-84689220D01*
X141478718Y-84671282D01*
X141460780Y-84651492D01*
X141444869Y-84630038D01*
X141431138Y-84607128D01*
X141419718Y-84582983D01*
X141410720Y-84557835D01*
X141404230Y-84531925D01*
X141400311Y-84505505D01*
X141399000Y-84478827D01*
X141399000Y-83521173D01*
X141400311Y-83494495D01*
X141404230Y-83468075D01*
X141410720Y-83442165D01*
X141419718Y-83417017D01*
X141431138Y-83392872D01*
X141444869Y-83369962D01*
X141460780Y-83348508D01*
X141478718Y-83328718D01*
X141498508Y-83310780D01*
X141519962Y-83294869D01*
X141542872Y-83281138D01*
X141567017Y-83269718D01*
X141592165Y-83260720D01*
X141618075Y-83254230D01*
X141644495Y-83250311D01*
X141671173Y-83249000D01*
X142378827Y-83249000D01*
X142405505Y-83250311D01*
G37*
G36*
X142405505Y-79250311D02*
G01*
X142431925Y-79254230D01*
X142457835Y-79260720D01*
X142482983Y-79269718D01*
X142507128Y-79281138D01*
X142530038Y-79294869D01*
X142551492Y-79310780D01*
X142571282Y-79328718D01*
X142589220Y-79348508D01*
X142605131Y-79369962D01*
X142618862Y-79392872D01*
X142630282Y-79417017D01*
X142639280Y-79442165D01*
X142645770Y-79468075D01*
X142649689Y-79494495D01*
X142651000Y-79521173D01*
X142651000Y-80478827D01*
X142649689Y-80505505D01*
X142645770Y-80531925D01*
X142639280Y-80557835D01*
X142630282Y-80582983D01*
X142618862Y-80607128D01*
X142605131Y-80630038D01*
X142589220Y-80651492D01*
X142571282Y-80671282D01*
X142551492Y-80689220D01*
X142530038Y-80705131D01*
X142507128Y-80718862D01*
X142482983Y-80730282D01*
X142457835Y-80739280D01*
X142431925Y-80745770D01*
X142405505Y-80749689D01*
X142378827Y-80751000D01*
X141671173Y-80751000D01*
X141644495Y-80749689D01*
X141618075Y-80745770D01*
X141592165Y-80739280D01*
X141567017Y-80730282D01*
X141542872Y-80718862D01*
X141519962Y-80705131D01*
X141498508Y-80689220D01*
X141478718Y-80671282D01*
X141460780Y-80651492D01*
X141444869Y-80630038D01*
X141431138Y-80607128D01*
X141419718Y-80582983D01*
X141410720Y-80557835D01*
X141404230Y-80531925D01*
X141400311Y-80505505D01*
X141399000Y-80478827D01*
X141399000Y-79521173D01*
X141400311Y-79494495D01*
X141404230Y-79468075D01*
X141410720Y-79442165D01*
X141419718Y-79417017D01*
X141431138Y-79392872D01*
X141444869Y-79369962D01*
X141460780Y-79348508D01*
X141478718Y-79328718D01*
X141498508Y-79310780D01*
X141519962Y-79294869D01*
X141542872Y-79281138D01*
X141567017Y-79269718D01*
X141592165Y-79260720D01*
X141618075Y-79254230D01*
X141644495Y-79250311D01*
X141671173Y-79249000D01*
X142378827Y-79249000D01*
X142405505Y-79250311D01*
G37*
G36*
X140355505Y-79250311D02*
G01*
X140381925Y-79254230D01*
X140407835Y-79260720D01*
X140432983Y-79269718D01*
X140457128Y-79281138D01*
X140480038Y-79294869D01*
X140501492Y-79310780D01*
X140521282Y-79328718D01*
X140539220Y-79348508D01*
X140555131Y-79369962D01*
X140568862Y-79392872D01*
X140580282Y-79417017D01*
X140589280Y-79442165D01*
X140595770Y-79468075D01*
X140599689Y-79494495D01*
X140601000Y-79521173D01*
X140601000Y-80478827D01*
X140599689Y-80505505D01*
X140595770Y-80531925D01*
X140589280Y-80557835D01*
X140580282Y-80582983D01*
X140568862Y-80607128D01*
X140555131Y-80630038D01*
X140539220Y-80651492D01*
X140521282Y-80671282D01*
X140501492Y-80689220D01*
X140480038Y-80705131D01*
X140457128Y-80718862D01*
X140432983Y-80730282D01*
X140407835Y-80739280D01*
X140381925Y-80745770D01*
X140355505Y-80749689D01*
X140328827Y-80751000D01*
X139621173Y-80751000D01*
X139594495Y-80749689D01*
X139568075Y-80745770D01*
X139542165Y-80739280D01*
X139517017Y-80730282D01*
X139492872Y-80718862D01*
X139469962Y-80705131D01*
X139448508Y-80689220D01*
X139428718Y-80671282D01*
X139410780Y-80651492D01*
X139394869Y-80630038D01*
X139381138Y-80607128D01*
X139369718Y-80582983D01*
X139360720Y-80557835D01*
X139354230Y-80531925D01*
X139350311Y-80505505D01*
X139349000Y-80478827D01*
X139349000Y-79521173D01*
X139350311Y-79494495D01*
X139354230Y-79468075D01*
X139360720Y-79442165D01*
X139369718Y-79417017D01*
X139381138Y-79392872D01*
X139394869Y-79369962D01*
X139410780Y-79348508D01*
X139428718Y-79328718D01*
X139448508Y-79310780D01*
X139469962Y-79294869D01*
X139492872Y-79281138D01*
X139517017Y-79269718D01*
X139542165Y-79260720D01*
X139568075Y-79254230D01*
X139594495Y-79250311D01*
X139621173Y-79249000D01*
X140328827Y-79249000D01*
X140355505Y-79250311D01*
G37*
M02*
