G04 #@! TF.GenerationSoftware,KiCad,Pcbnew,(5.1.5)-3*
G04 #@! TF.CreationDate,2020-04-04T13:58:42+08:00*
G04 #@! TF.ProjectId,1194pre,31313934-7072-4652-9e6b-696361645f70,rev?*
G04 #@! TF.SameCoordinates,Original*
G04 #@! TF.FileFunction,Soldermask,Top*
G04 #@! TF.FilePolarity,Negative*
%FSLAX46Y46*%
G04 Gerber Fmt 4.6, Leading zero omitted, Abs format (unit mm)*
G04 Created by KiCad (PCBNEW (5.1.5)-3) date 2020-04-04 13:58:42*
%MOMM*%
%LPD*%
G04 APERTURE LIST*
%ADD10C,0.100000*%
G04 APERTURE END LIST*
D10*
G36*
X156401564Y-102765185D02*
G01*
X156948282Y-102873934D01*
X157539926Y-103119001D01*
X158072392Y-103474784D01*
X158525216Y-103927608D01*
X158880999Y-104460074D01*
X159126066Y-105051718D01*
X159126066Y-105051719D01*
X159251000Y-105679803D01*
X159251000Y-106320197D01*
X159188533Y-106634239D01*
X159126066Y-106948282D01*
X158880999Y-107539926D01*
X158525216Y-108072392D01*
X158072392Y-108525216D01*
X157539926Y-108880999D01*
X156948282Y-109126066D01*
X156634239Y-109188533D01*
X156320197Y-109251000D01*
X155679803Y-109251000D01*
X155365761Y-109188533D01*
X155051718Y-109126066D01*
X154460074Y-108880999D01*
X153927608Y-108525216D01*
X153474784Y-108072392D01*
X153119001Y-107539926D01*
X152873934Y-106948282D01*
X152811467Y-106634239D01*
X152749000Y-106320197D01*
X152749000Y-105679803D01*
X152873934Y-105051719D01*
X152873934Y-105051718D01*
X153119001Y-104460074D01*
X153474784Y-103927608D01*
X153927608Y-103474784D01*
X154460074Y-103119001D01*
X155051718Y-102873934D01*
X155598436Y-102765185D01*
X155679803Y-102749000D01*
X156320197Y-102749000D01*
X156401564Y-102765185D01*
G37*
G36*
X104401564Y-102765185D02*
G01*
X104948282Y-102873934D01*
X105539926Y-103119001D01*
X106072392Y-103474784D01*
X106525216Y-103927608D01*
X106880999Y-104460074D01*
X107126066Y-105051718D01*
X107126066Y-105051719D01*
X107251000Y-105679803D01*
X107251000Y-106320197D01*
X107188533Y-106634239D01*
X107126066Y-106948282D01*
X106880999Y-107539926D01*
X106525216Y-108072392D01*
X106072392Y-108525216D01*
X105539926Y-108880999D01*
X104948282Y-109126066D01*
X104634239Y-109188533D01*
X104320197Y-109251000D01*
X103679803Y-109251000D01*
X103365761Y-109188533D01*
X103051718Y-109126066D01*
X102460074Y-108880999D01*
X101927608Y-108525216D01*
X101474784Y-108072392D01*
X101119001Y-107539926D01*
X100873934Y-106948282D01*
X100811467Y-106634239D01*
X100749000Y-106320197D01*
X100749000Y-105679803D01*
X100873934Y-105051719D01*
X100873934Y-105051718D01*
X101119001Y-104460074D01*
X101474784Y-103927608D01*
X101927608Y-103474784D01*
X102460074Y-103119001D01*
X103051718Y-102873934D01*
X103598436Y-102765185D01*
X103679803Y-102749000D01*
X104320197Y-102749000D01*
X104401564Y-102765185D01*
G37*
G36*
X112176626Y-100987037D02*
G01*
X112346465Y-101038557D01*
X112346467Y-101038558D01*
X112502989Y-101122221D01*
X112640186Y-101234814D01*
X112723448Y-101336271D01*
X112752778Y-101372009D01*
X112836443Y-101528534D01*
X112887963Y-101698373D01*
X112901000Y-101830742D01*
X112901000Y-102169257D01*
X112887963Y-102301626D01*
X112836443Y-102471466D01*
X112752778Y-102627991D01*
X112725676Y-102661015D01*
X112640186Y-102765186D01*
X112545250Y-102843097D01*
X112502991Y-102877778D01*
X112346466Y-102961443D01*
X112176627Y-103012963D01*
X112000000Y-103030359D01*
X111823374Y-103012963D01*
X111653535Y-102961443D01*
X111497010Y-102877778D01*
X111359815Y-102765185D01*
X111247222Y-102627991D01*
X111163557Y-102471466D01*
X111112037Y-102301627D01*
X111099000Y-102169258D01*
X111099000Y-101830743D01*
X111112037Y-101698374D01*
X111163557Y-101528535D01*
X111163559Y-101528532D01*
X111247221Y-101372011D01*
X111359814Y-101234814D01*
X111464380Y-101149000D01*
X111497009Y-101122222D01*
X111653534Y-101038557D01*
X111823373Y-100987037D01*
X112000000Y-100969641D01*
X112176626Y-100987037D01*
G37*
G36*
X114676626Y-100987037D02*
G01*
X114846465Y-101038557D01*
X114846467Y-101038558D01*
X115002989Y-101122221D01*
X115140186Y-101234814D01*
X115223448Y-101336271D01*
X115252778Y-101372009D01*
X115336443Y-101528534D01*
X115387963Y-101698373D01*
X115401000Y-101830742D01*
X115401000Y-102169257D01*
X115387963Y-102301626D01*
X115336443Y-102471466D01*
X115252778Y-102627991D01*
X115225676Y-102661015D01*
X115140186Y-102765186D01*
X115045250Y-102843097D01*
X115002991Y-102877778D01*
X114846466Y-102961443D01*
X114676627Y-103012963D01*
X114500000Y-103030359D01*
X114323374Y-103012963D01*
X114153535Y-102961443D01*
X113997010Y-102877778D01*
X113859815Y-102765185D01*
X113747222Y-102627991D01*
X113663557Y-102471466D01*
X113612037Y-102301627D01*
X113599000Y-102169258D01*
X113599000Y-101830743D01*
X113612037Y-101698374D01*
X113663557Y-101528535D01*
X113663559Y-101528532D01*
X113747221Y-101372011D01*
X113859814Y-101234814D01*
X113964380Y-101149000D01*
X113997009Y-101122222D01*
X114153534Y-101038557D01*
X114323373Y-100987037D01*
X114500000Y-100969641D01*
X114676626Y-100987037D01*
G37*
G36*
X110258600Y-100977989D02*
G01*
X110291652Y-100988015D01*
X110322103Y-101004292D01*
X110348799Y-101026201D01*
X110370708Y-101052897D01*
X110386985Y-101083348D01*
X110397011Y-101116400D01*
X110401000Y-101156903D01*
X110401000Y-102843097D01*
X110397011Y-102883600D01*
X110386985Y-102916652D01*
X110370708Y-102947103D01*
X110348799Y-102973799D01*
X110322103Y-102995708D01*
X110291652Y-103011985D01*
X110258600Y-103022011D01*
X110218097Y-103026000D01*
X108781903Y-103026000D01*
X108741400Y-103022011D01*
X108708348Y-103011985D01*
X108677897Y-102995708D01*
X108651201Y-102973799D01*
X108629292Y-102947103D01*
X108613015Y-102916652D01*
X108602989Y-102883600D01*
X108599000Y-102843097D01*
X108599000Y-101156903D01*
X108602989Y-101116400D01*
X108613015Y-101083348D01*
X108629292Y-101052897D01*
X108651201Y-101026201D01*
X108677897Y-101004292D01*
X108708348Y-100988015D01*
X108741400Y-100977989D01*
X108781903Y-100974000D01*
X110218097Y-100974000D01*
X110258600Y-100977989D01*
G37*
G36*
X138351000Y-102851000D02*
G01*
X136649000Y-102851000D01*
X136649000Y-101149000D01*
X138351000Y-101149000D01*
X138351000Y-102851000D01*
G37*
G36*
X122748228Y-101181703D02*
G01*
X122903100Y-101245853D01*
X123042481Y-101338985D01*
X123161015Y-101457519D01*
X123254147Y-101596900D01*
X123318297Y-101751772D01*
X123351000Y-101916184D01*
X123351000Y-102083816D01*
X123318297Y-102248228D01*
X123254147Y-102403100D01*
X123161015Y-102542481D01*
X123042481Y-102661015D01*
X122903100Y-102754147D01*
X122748228Y-102818297D01*
X122583816Y-102851000D01*
X122416184Y-102851000D01*
X122251772Y-102818297D01*
X122096900Y-102754147D01*
X121957519Y-102661015D01*
X121838985Y-102542481D01*
X121745853Y-102403100D01*
X121681703Y-102248228D01*
X121649000Y-102083816D01*
X121649000Y-101916184D01*
X121681703Y-101751772D01*
X121745853Y-101596900D01*
X121838985Y-101457519D01*
X121957519Y-101338985D01*
X122096900Y-101245853D01*
X122251772Y-101181703D01*
X122416184Y-101149000D01*
X122583816Y-101149000D01*
X122748228Y-101181703D01*
G37*
G36*
X126851000Y-102851000D02*
G01*
X125149000Y-102851000D01*
X125149000Y-101149000D01*
X126851000Y-101149000D01*
X126851000Y-102851000D01*
G37*
G36*
X134248228Y-101181703D02*
G01*
X134403100Y-101245853D01*
X134542481Y-101338985D01*
X134661015Y-101457519D01*
X134754147Y-101596900D01*
X134818297Y-101751772D01*
X134851000Y-101916184D01*
X134851000Y-102083816D01*
X134818297Y-102248228D01*
X134754147Y-102403100D01*
X134661015Y-102542481D01*
X134542481Y-102661015D01*
X134403100Y-102754147D01*
X134248228Y-102818297D01*
X134083816Y-102851000D01*
X133916184Y-102851000D01*
X133751772Y-102818297D01*
X133596900Y-102754147D01*
X133457519Y-102661015D01*
X133338985Y-102542481D01*
X133245853Y-102403100D01*
X133181703Y-102248228D01*
X133149000Y-102083816D01*
X133149000Y-101916184D01*
X133181703Y-101751772D01*
X133245853Y-101596900D01*
X133338985Y-101457519D01*
X133457519Y-101338985D01*
X133596900Y-101245853D01*
X133751772Y-101181703D01*
X133916184Y-101149000D01*
X134083816Y-101149000D01*
X134248228Y-101181703D01*
G37*
G36*
X140438674Y-92253465D02*
G01*
X140476367Y-92264899D01*
X140511103Y-92283466D01*
X140541548Y-92308452D01*
X140566534Y-92338897D01*
X140585101Y-92373633D01*
X140596535Y-92411326D01*
X140601000Y-92456661D01*
X140601000Y-93543339D01*
X140596535Y-93588674D01*
X140585101Y-93626367D01*
X140566534Y-93661103D01*
X140541548Y-93691548D01*
X140511103Y-93716534D01*
X140476367Y-93735101D01*
X140438674Y-93746535D01*
X140393339Y-93751000D01*
X139556661Y-93751000D01*
X139511326Y-93746535D01*
X139473633Y-93735101D01*
X139438897Y-93716534D01*
X139408452Y-93691548D01*
X139383466Y-93661103D01*
X139364899Y-93626367D01*
X139353465Y-93588674D01*
X139349000Y-93543339D01*
X139349000Y-92456661D01*
X139353465Y-92411326D01*
X139364899Y-92373633D01*
X139383466Y-92338897D01*
X139408452Y-92308452D01*
X139438897Y-92283466D01*
X139473633Y-92264899D01*
X139511326Y-92253465D01*
X139556661Y-92249000D01*
X140393339Y-92249000D01*
X140438674Y-92253465D01*
G37*
G36*
X131488674Y-92253465D02*
G01*
X131526367Y-92264899D01*
X131561103Y-92283466D01*
X131591548Y-92308452D01*
X131616534Y-92338897D01*
X131635101Y-92373633D01*
X131646535Y-92411326D01*
X131651000Y-92456661D01*
X131651000Y-93543339D01*
X131646535Y-93588674D01*
X131635101Y-93626367D01*
X131616534Y-93661103D01*
X131591548Y-93691548D01*
X131561103Y-93716534D01*
X131526367Y-93735101D01*
X131488674Y-93746535D01*
X131443339Y-93751000D01*
X130606661Y-93751000D01*
X130561326Y-93746535D01*
X130523633Y-93735101D01*
X130488897Y-93716534D01*
X130458452Y-93691548D01*
X130433466Y-93661103D01*
X130414899Y-93626367D01*
X130403465Y-93588674D01*
X130399000Y-93543339D01*
X130399000Y-92456661D01*
X130403465Y-92411326D01*
X130414899Y-92373633D01*
X130433466Y-92338897D01*
X130458452Y-92308452D01*
X130488897Y-92283466D01*
X130523633Y-92264899D01*
X130561326Y-92253465D01*
X130606661Y-92249000D01*
X131443339Y-92249000D01*
X131488674Y-92253465D01*
G37*
G36*
X129438674Y-92253465D02*
G01*
X129476367Y-92264899D01*
X129511103Y-92283466D01*
X129541548Y-92308452D01*
X129566534Y-92338897D01*
X129585101Y-92373633D01*
X129596535Y-92411326D01*
X129601000Y-92456661D01*
X129601000Y-93543339D01*
X129596535Y-93588674D01*
X129585101Y-93626367D01*
X129566534Y-93661103D01*
X129541548Y-93691548D01*
X129511103Y-93716534D01*
X129476367Y-93735101D01*
X129438674Y-93746535D01*
X129393339Y-93751000D01*
X128556661Y-93751000D01*
X128511326Y-93746535D01*
X128473633Y-93735101D01*
X128438897Y-93716534D01*
X128408452Y-93691548D01*
X128383466Y-93661103D01*
X128364899Y-93626367D01*
X128353465Y-93588674D01*
X128349000Y-93543339D01*
X128349000Y-92456661D01*
X128353465Y-92411326D01*
X128364899Y-92373633D01*
X128383466Y-92338897D01*
X128408452Y-92308452D01*
X128438897Y-92283466D01*
X128473633Y-92264899D01*
X128511326Y-92253465D01*
X128556661Y-92249000D01*
X129393339Y-92249000D01*
X129438674Y-92253465D01*
G37*
G36*
X124938674Y-92253465D02*
G01*
X124976367Y-92264899D01*
X125011103Y-92283466D01*
X125041548Y-92308452D01*
X125066534Y-92338897D01*
X125085101Y-92373633D01*
X125096535Y-92411326D01*
X125101000Y-92456661D01*
X125101000Y-93543339D01*
X125096535Y-93588674D01*
X125085101Y-93626367D01*
X125066534Y-93661103D01*
X125041548Y-93691548D01*
X125011103Y-93716534D01*
X124976367Y-93735101D01*
X124938674Y-93746535D01*
X124893339Y-93751000D01*
X124056661Y-93751000D01*
X124011326Y-93746535D01*
X123973633Y-93735101D01*
X123938897Y-93716534D01*
X123908452Y-93691548D01*
X123883466Y-93661103D01*
X123864899Y-93626367D01*
X123853465Y-93588674D01*
X123849000Y-93543339D01*
X123849000Y-92456661D01*
X123853465Y-92411326D01*
X123864899Y-92373633D01*
X123883466Y-92338897D01*
X123908452Y-92308452D01*
X123938897Y-92283466D01*
X123973633Y-92264899D01*
X124011326Y-92253465D01*
X124056661Y-92249000D01*
X124893339Y-92249000D01*
X124938674Y-92253465D01*
G37*
G36*
X142488674Y-92253465D02*
G01*
X142526367Y-92264899D01*
X142561103Y-92283466D01*
X142591548Y-92308452D01*
X142616534Y-92338897D01*
X142635101Y-92373633D01*
X142646535Y-92411326D01*
X142651000Y-92456661D01*
X142651000Y-93543339D01*
X142646535Y-93588674D01*
X142635101Y-93626367D01*
X142616534Y-93661103D01*
X142591548Y-93691548D01*
X142561103Y-93716534D01*
X142526367Y-93735101D01*
X142488674Y-93746535D01*
X142443339Y-93751000D01*
X141606661Y-93751000D01*
X141561326Y-93746535D01*
X141523633Y-93735101D01*
X141488897Y-93716534D01*
X141458452Y-93691548D01*
X141433466Y-93661103D01*
X141414899Y-93626367D01*
X141403465Y-93588674D01*
X141399000Y-93543339D01*
X141399000Y-92456661D01*
X141403465Y-92411326D01*
X141414899Y-92373633D01*
X141433466Y-92338897D01*
X141458452Y-92308452D01*
X141488897Y-92283466D01*
X141523633Y-92264899D01*
X141561326Y-92253465D01*
X141606661Y-92249000D01*
X142443339Y-92249000D01*
X142488674Y-92253465D01*
G37*
G36*
X120488674Y-92253465D02*
G01*
X120526367Y-92264899D01*
X120561103Y-92283466D01*
X120591548Y-92308452D01*
X120616534Y-92338897D01*
X120635101Y-92373633D01*
X120646535Y-92411326D01*
X120651000Y-92456661D01*
X120651000Y-93543339D01*
X120646535Y-93588674D01*
X120635101Y-93626367D01*
X120616534Y-93661103D01*
X120591548Y-93691548D01*
X120561103Y-93716534D01*
X120526367Y-93735101D01*
X120488674Y-93746535D01*
X120443339Y-93751000D01*
X119606661Y-93751000D01*
X119561326Y-93746535D01*
X119523633Y-93735101D01*
X119488897Y-93716534D01*
X119458452Y-93691548D01*
X119433466Y-93661103D01*
X119414899Y-93626367D01*
X119403465Y-93588674D01*
X119399000Y-93543339D01*
X119399000Y-92456661D01*
X119403465Y-92411326D01*
X119414899Y-92373633D01*
X119433466Y-92338897D01*
X119458452Y-92308452D01*
X119488897Y-92283466D01*
X119523633Y-92264899D01*
X119561326Y-92253465D01*
X119606661Y-92249000D01*
X120443339Y-92249000D01*
X120488674Y-92253465D01*
G37*
G36*
X118438674Y-92253465D02*
G01*
X118476367Y-92264899D01*
X118511103Y-92283466D01*
X118541548Y-92308452D01*
X118566534Y-92338897D01*
X118585101Y-92373633D01*
X118596535Y-92411326D01*
X118601000Y-92456661D01*
X118601000Y-93543339D01*
X118596535Y-93588674D01*
X118585101Y-93626367D01*
X118566534Y-93661103D01*
X118541548Y-93691548D01*
X118511103Y-93716534D01*
X118476367Y-93735101D01*
X118438674Y-93746535D01*
X118393339Y-93751000D01*
X117556661Y-93751000D01*
X117511326Y-93746535D01*
X117473633Y-93735101D01*
X117438897Y-93716534D01*
X117408452Y-93691548D01*
X117383466Y-93661103D01*
X117364899Y-93626367D01*
X117353465Y-93588674D01*
X117349000Y-93543339D01*
X117349000Y-92456661D01*
X117353465Y-92411326D01*
X117364899Y-92373633D01*
X117383466Y-92338897D01*
X117408452Y-92308452D01*
X117438897Y-92283466D01*
X117473633Y-92264899D01*
X117511326Y-92253465D01*
X117556661Y-92249000D01*
X118393339Y-92249000D01*
X118438674Y-92253465D01*
G37*
G36*
X126988674Y-92253465D02*
G01*
X127026367Y-92264899D01*
X127061103Y-92283466D01*
X127091548Y-92308452D01*
X127116534Y-92338897D01*
X127135101Y-92373633D01*
X127146535Y-92411326D01*
X127151000Y-92456661D01*
X127151000Y-93543339D01*
X127146535Y-93588674D01*
X127135101Y-93626367D01*
X127116534Y-93661103D01*
X127091548Y-93691548D01*
X127061103Y-93716534D01*
X127026367Y-93735101D01*
X126988674Y-93746535D01*
X126943339Y-93751000D01*
X126106661Y-93751000D01*
X126061326Y-93746535D01*
X126023633Y-93735101D01*
X125988897Y-93716534D01*
X125958452Y-93691548D01*
X125933466Y-93661103D01*
X125914899Y-93626367D01*
X125903465Y-93588674D01*
X125899000Y-93543339D01*
X125899000Y-92456661D01*
X125903465Y-92411326D01*
X125914899Y-92373633D01*
X125933466Y-92338897D01*
X125958452Y-92308452D01*
X125988897Y-92283466D01*
X126023633Y-92264899D01*
X126061326Y-92253465D01*
X126106661Y-92249000D01*
X126943339Y-92249000D01*
X126988674Y-92253465D01*
G37*
G36*
X134588674Y-91903465D02*
G01*
X134626367Y-91914899D01*
X134661103Y-91933466D01*
X134691548Y-91958452D01*
X134716534Y-91988897D01*
X134735101Y-92023633D01*
X134746535Y-92061326D01*
X134751000Y-92106661D01*
X134751000Y-92943339D01*
X134746535Y-92988674D01*
X134735101Y-93026367D01*
X134716534Y-93061103D01*
X134691548Y-93091548D01*
X134661103Y-93116534D01*
X134626367Y-93135101D01*
X134588674Y-93146535D01*
X134543339Y-93151000D01*
X133456661Y-93151000D01*
X133411326Y-93146535D01*
X133373633Y-93135101D01*
X133338897Y-93116534D01*
X133308452Y-93091548D01*
X133283466Y-93061103D01*
X133264899Y-93026367D01*
X133253465Y-92988674D01*
X133249000Y-92943339D01*
X133249000Y-92106661D01*
X133253465Y-92061326D01*
X133264899Y-92023633D01*
X133283466Y-91988897D01*
X133308452Y-91958452D01*
X133338897Y-91933466D01*
X133373633Y-91914899D01*
X133411326Y-91903465D01*
X133456661Y-91899000D01*
X134543339Y-91899000D01*
X134588674Y-91903465D01*
G37*
G36*
X109588674Y-91428465D02*
G01*
X109626367Y-91439899D01*
X109661103Y-91458466D01*
X109691548Y-91483452D01*
X109716534Y-91513897D01*
X109735101Y-91548633D01*
X109746535Y-91586326D01*
X109751000Y-91631661D01*
X109751000Y-92468339D01*
X109746535Y-92513674D01*
X109735101Y-92551367D01*
X109716534Y-92586103D01*
X109691548Y-92616548D01*
X109661103Y-92641534D01*
X109626367Y-92660101D01*
X109588674Y-92671535D01*
X109543339Y-92676000D01*
X108456661Y-92676000D01*
X108411326Y-92671535D01*
X108373633Y-92660101D01*
X108338897Y-92641534D01*
X108308452Y-92616548D01*
X108283466Y-92586103D01*
X108264899Y-92551367D01*
X108253465Y-92513674D01*
X108249000Y-92468339D01*
X108249000Y-91631661D01*
X108253465Y-91586326D01*
X108264899Y-91548633D01*
X108283466Y-91513897D01*
X108308452Y-91483452D01*
X108338897Y-91458466D01*
X108373633Y-91439899D01*
X108411326Y-91428465D01*
X108456661Y-91424000D01*
X109543339Y-91424000D01*
X109588674Y-91428465D01*
G37*
G36*
X134588674Y-89853465D02*
G01*
X134626367Y-89864899D01*
X134661103Y-89883466D01*
X134691548Y-89908452D01*
X134716534Y-89938897D01*
X134735101Y-89973633D01*
X134746535Y-90011326D01*
X134751000Y-90056661D01*
X134751000Y-90893339D01*
X134746535Y-90938674D01*
X134735101Y-90976367D01*
X134716534Y-91011103D01*
X134691548Y-91041548D01*
X134661103Y-91066534D01*
X134626367Y-91085101D01*
X134588674Y-91096535D01*
X134543339Y-91101000D01*
X133456661Y-91101000D01*
X133411326Y-91096535D01*
X133373633Y-91085101D01*
X133338897Y-91066534D01*
X133308452Y-91041548D01*
X133283466Y-91011103D01*
X133264899Y-90976367D01*
X133253465Y-90938674D01*
X133249000Y-90893339D01*
X133249000Y-90056661D01*
X133253465Y-90011326D01*
X133264899Y-89973633D01*
X133283466Y-89938897D01*
X133308452Y-89908452D01*
X133338897Y-89883466D01*
X133373633Y-89864899D01*
X133411326Y-89853465D01*
X133456661Y-89849000D01*
X134543339Y-89849000D01*
X134588674Y-89853465D01*
G37*
G36*
X142488674Y-89253465D02*
G01*
X142526367Y-89264899D01*
X142561103Y-89283466D01*
X142591548Y-89308452D01*
X142616534Y-89338897D01*
X142635101Y-89373633D01*
X142646535Y-89411326D01*
X142651000Y-89456661D01*
X142651000Y-90543339D01*
X142646535Y-90588674D01*
X142635101Y-90626367D01*
X142616534Y-90661103D01*
X142591548Y-90691548D01*
X142561103Y-90716534D01*
X142526367Y-90735101D01*
X142488674Y-90746535D01*
X142443339Y-90751000D01*
X141606661Y-90751000D01*
X141561326Y-90746535D01*
X141523633Y-90735101D01*
X141488897Y-90716534D01*
X141458452Y-90691548D01*
X141433466Y-90661103D01*
X141414899Y-90626367D01*
X141403465Y-90588674D01*
X141399000Y-90543339D01*
X141399000Y-89456661D01*
X141403465Y-89411326D01*
X141414899Y-89373633D01*
X141433466Y-89338897D01*
X141458452Y-89308452D01*
X141488897Y-89283466D01*
X141523633Y-89264899D01*
X141561326Y-89253465D01*
X141606661Y-89249000D01*
X142443339Y-89249000D01*
X142488674Y-89253465D01*
G37*
G36*
X140438674Y-89253465D02*
G01*
X140476367Y-89264899D01*
X140511103Y-89283466D01*
X140541548Y-89308452D01*
X140566534Y-89338897D01*
X140585101Y-89373633D01*
X140596535Y-89411326D01*
X140601000Y-89456661D01*
X140601000Y-90543339D01*
X140596535Y-90588674D01*
X140585101Y-90626367D01*
X140566534Y-90661103D01*
X140541548Y-90691548D01*
X140511103Y-90716534D01*
X140476367Y-90735101D01*
X140438674Y-90746535D01*
X140393339Y-90751000D01*
X139556661Y-90751000D01*
X139511326Y-90746535D01*
X139473633Y-90735101D01*
X139438897Y-90716534D01*
X139408452Y-90691548D01*
X139383466Y-90661103D01*
X139364899Y-90626367D01*
X139353465Y-90588674D01*
X139349000Y-90543339D01*
X139349000Y-89456661D01*
X139353465Y-89411326D01*
X139364899Y-89373633D01*
X139383466Y-89338897D01*
X139408452Y-89308452D01*
X139438897Y-89283466D01*
X139473633Y-89264899D01*
X139511326Y-89253465D01*
X139556661Y-89249000D01*
X140393339Y-89249000D01*
X140438674Y-89253465D01*
G37*
G36*
X118438674Y-89253465D02*
G01*
X118476367Y-89264899D01*
X118511103Y-89283466D01*
X118541548Y-89308452D01*
X118566534Y-89338897D01*
X118585101Y-89373633D01*
X118596535Y-89411326D01*
X118601000Y-89456661D01*
X118601000Y-90543339D01*
X118596535Y-90588674D01*
X118585101Y-90626367D01*
X118566534Y-90661103D01*
X118541548Y-90691548D01*
X118511103Y-90716534D01*
X118476367Y-90735101D01*
X118438674Y-90746535D01*
X118393339Y-90751000D01*
X117556661Y-90751000D01*
X117511326Y-90746535D01*
X117473633Y-90735101D01*
X117438897Y-90716534D01*
X117408452Y-90691548D01*
X117383466Y-90661103D01*
X117364899Y-90626367D01*
X117353465Y-90588674D01*
X117349000Y-90543339D01*
X117349000Y-89456661D01*
X117353465Y-89411326D01*
X117364899Y-89373633D01*
X117383466Y-89338897D01*
X117408452Y-89308452D01*
X117438897Y-89283466D01*
X117473633Y-89264899D01*
X117511326Y-89253465D01*
X117556661Y-89249000D01*
X118393339Y-89249000D01*
X118438674Y-89253465D01*
G37*
G36*
X120488674Y-89253465D02*
G01*
X120526367Y-89264899D01*
X120561103Y-89283466D01*
X120591548Y-89308452D01*
X120616534Y-89338897D01*
X120635101Y-89373633D01*
X120646535Y-89411326D01*
X120651000Y-89456661D01*
X120651000Y-90543339D01*
X120646535Y-90588674D01*
X120635101Y-90626367D01*
X120616534Y-90661103D01*
X120591548Y-90691548D01*
X120561103Y-90716534D01*
X120526367Y-90735101D01*
X120488674Y-90746535D01*
X120443339Y-90751000D01*
X119606661Y-90751000D01*
X119561326Y-90746535D01*
X119523633Y-90735101D01*
X119488897Y-90716534D01*
X119458452Y-90691548D01*
X119433466Y-90661103D01*
X119414899Y-90626367D01*
X119403465Y-90588674D01*
X119399000Y-90543339D01*
X119399000Y-89456661D01*
X119403465Y-89411326D01*
X119414899Y-89373633D01*
X119433466Y-89338897D01*
X119458452Y-89308452D01*
X119488897Y-89283466D01*
X119523633Y-89264899D01*
X119561326Y-89253465D01*
X119606661Y-89249000D01*
X120443339Y-89249000D01*
X120488674Y-89253465D01*
G37*
G36*
X109588674Y-89378465D02*
G01*
X109626367Y-89389899D01*
X109661103Y-89408466D01*
X109691548Y-89433452D01*
X109716534Y-89463897D01*
X109735101Y-89498633D01*
X109746535Y-89536326D01*
X109751000Y-89581661D01*
X109751000Y-90418339D01*
X109746535Y-90463674D01*
X109735101Y-90501367D01*
X109716534Y-90536103D01*
X109691548Y-90566548D01*
X109661103Y-90591534D01*
X109626367Y-90610101D01*
X109588674Y-90621535D01*
X109543339Y-90626000D01*
X108456661Y-90626000D01*
X108411326Y-90621535D01*
X108373633Y-90610101D01*
X108338897Y-90591534D01*
X108308452Y-90566548D01*
X108283466Y-90536103D01*
X108264899Y-90501367D01*
X108253465Y-90463674D01*
X108249000Y-90418339D01*
X108249000Y-89581661D01*
X108253465Y-89536326D01*
X108264899Y-89498633D01*
X108283466Y-89463897D01*
X108308452Y-89433452D01*
X108338897Y-89408466D01*
X108373633Y-89389899D01*
X108411326Y-89378465D01*
X108456661Y-89374000D01*
X109543339Y-89374000D01*
X109588674Y-89378465D01*
G37*
G36*
X126789499Y-89478445D02*
G01*
X126826995Y-89489820D01*
X126861554Y-89508292D01*
X126891847Y-89533153D01*
X126916708Y-89563446D01*
X126935180Y-89598005D01*
X126946555Y-89635501D01*
X126951000Y-89680638D01*
X126951000Y-90319362D01*
X126946555Y-90364499D01*
X126935180Y-90401995D01*
X126916708Y-90436554D01*
X126891847Y-90466847D01*
X126861554Y-90491708D01*
X126826995Y-90510180D01*
X126789499Y-90521555D01*
X126744362Y-90526000D01*
X126005638Y-90526000D01*
X125960501Y-90521555D01*
X125923005Y-90510180D01*
X125888446Y-90491708D01*
X125858153Y-90466847D01*
X125833292Y-90436554D01*
X125814820Y-90401995D01*
X125803445Y-90364499D01*
X125799000Y-90319362D01*
X125799000Y-89680638D01*
X125803445Y-89635501D01*
X125814820Y-89598005D01*
X125833292Y-89563446D01*
X125858153Y-89533153D01*
X125888446Y-89508292D01*
X125923005Y-89489820D01*
X125960501Y-89478445D01*
X126005638Y-89474000D01*
X126744362Y-89474000D01*
X126789499Y-89478445D01*
G37*
G36*
X125039499Y-89478445D02*
G01*
X125076995Y-89489820D01*
X125111554Y-89508292D01*
X125141847Y-89533153D01*
X125166708Y-89563446D01*
X125185180Y-89598005D01*
X125196555Y-89635501D01*
X125201000Y-89680638D01*
X125201000Y-90319362D01*
X125196555Y-90364499D01*
X125185180Y-90401995D01*
X125166708Y-90436554D01*
X125141847Y-90466847D01*
X125111554Y-90491708D01*
X125076995Y-90510180D01*
X125039499Y-90521555D01*
X124994362Y-90526000D01*
X124255638Y-90526000D01*
X124210501Y-90521555D01*
X124173005Y-90510180D01*
X124138446Y-90491708D01*
X124108153Y-90466847D01*
X124083292Y-90436554D01*
X124064820Y-90401995D01*
X124053445Y-90364499D01*
X124049000Y-90319362D01*
X124049000Y-89680638D01*
X124053445Y-89635501D01*
X124064820Y-89598005D01*
X124083292Y-89563446D01*
X124108153Y-89533153D01*
X124138446Y-89508292D01*
X124173005Y-89489820D01*
X124210501Y-89478445D01*
X124255638Y-89474000D01*
X124994362Y-89474000D01*
X125039499Y-89478445D01*
G37*
G36*
X131289499Y-89478445D02*
G01*
X131326995Y-89489820D01*
X131361554Y-89508292D01*
X131391847Y-89533153D01*
X131416708Y-89563446D01*
X131435180Y-89598005D01*
X131446555Y-89635501D01*
X131451000Y-89680638D01*
X131451000Y-90319362D01*
X131446555Y-90364499D01*
X131435180Y-90401995D01*
X131416708Y-90436554D01*
X131391847Y-90466847D01*
X131361554Y-90491708D01*
X131326995Y-90510180D01*
X131289499Y-90521555D01*
X131244362Y-90526000D01*
X130505638Y-90526000D01*
X130460501Y-90521555D01*
X130423005Y-90510180D01*
X130388446Y-90491708D01*
X130358153Y-90466847D01*
X130333292Y-90436554D01*
X130314820Y-90401995D01*
X130303445Y-90364499D01*
X130299000Y-90319362D01*
X130299000Y-89680638D01*
X130303445Y-89635501D01*
X130314820Y-89598005D01*
X130333292Y-89563446D01*
X130358153Y-89533153D01*
X130388446Y-89508292D01*
X130423005Y-89489820D01*
X130460501Y-89478445D01*
X130505638Y-89474000D01*
X131244362Y-89474000D01*
X131289499Y-89478445D01*
G37*
G36*
X129539499Y-89478445D02*
G01*
X129576995Y-89489820D01*
X129611554Y-89508292D01*
X129641847Y-89533153D01*
X129666708Y-89563446D01*
X129685180Y-89598005D01*
X129696555Y-89635501D01*
X129701000Y-89680638D01*
X129701000Y-90319362D01*
X129696555Y-90364499D01*
X129685180Y-90401995D01*
X129666708Y-90436554D01*
X129641847Y-90466847D01*
X129611554Y-90491708D01*
X129576995Y-90510180D01*
X129539499Y-90521555D01*
X129494362Y-90526000D01*
X128755638Y-90526000D01*
X128710501Y-90521555D01*
X128673005Y-90510180D01*
X128638446Y-90491708D01*
X128608153Y-90466847D01*
X128583292Y-90436554D01*
X128564820Y-90401995D01*
X128553445Y-90364499D01*
X128549000Y-90319362D01*
X128549000Y-89680638D01*
X128553445Y-89635501D01*
X128564820Y-89598005D01*
X128583292Y-89563446D01*
X128608153Y-89533153D01*
X128638446Y-89508292D01*
X128673005Y-89489820D01*
X128710501Y-89478445D01*
X128755638Y-89474000D01*
X129494362Y-89474000D01*
X129539499Y-89478445D01*
G37*
G36*
X151248228Y-88181703D02*
G01*
X151403100Y-88245853D01*
X151542481Y-88338985D01*
X151661015Y-88457519D01*
X151754147Y-88596900D01*
X151818297Y-88751772D01*
X151851000Y-88916184D01*
X151851000Y-89083816D01*
X151818297Y-89248228D01*
X151754147Y-89403100D01*
X151661015Y-89542481D01*
X151542481Y-89661015D01*
X151403100Y-89754147D01*
X151248228Y-89818297D01*
X151083816Y-89851000D01*
X150916184Y-89851000D01*
X150751772Y-89818297D01*
X150596900Y-89754147D01*
X150457519Y-89661015D01*
X150338985Y-89542481D01*
X150245853Y-89403100D01*
X150181703Y-89248228D01*
X150149000Y-89083816D01*
X150149000Y-88916184D01*
X150181703Y-88751772D01*
X150245853Y-88596900D01*
X150338985Y-88457519D01*
X150457519Y-88338985D01*
X150596900Y-88245853D01*
X150751772Y-88181703D01*
X150916184Y-88149000D01*
X151083816Y-88149000D01*
X151248228Y-88181703D01*
G37*
G36*
X120488674Y-86253465D02*
G01*
X120526367Y-86264899D01*
X120561103Y-86283466D01*
X120591548Y-86308452D01*
X120616534Y-86338897D01*
X120635101Y-86373633D01*
X120646535Y-86411326D01*
X120651000Y-86456661D01*
X120651000Y-87543339D01*
X120646535Y-87588674D01*
X120635101Y-87626367D01*
X120616534Y-87661103D01*
X120591548Y-87691548D01*
X120561103Y-87716534D01*
X120526367Y-87735101D01*
X120488674Y-87746535D01*
X120443339Y-87751000D01*
X119606661Y-87751000D01*
X119561326Y-87746535D01*
X119523633Y-87735101D01*
X119488897Y-87716534D01*
X119458452Y-87691548D01*
X119433466Y-87661103D01*
X119414899Y-87626367D01*
X119403465Y-87588674D01*
X119399000Y-87543339D01*
X119399000Y-86456661D01*
X119403465Y-86411326D01*
X119414899Y-86373633D01*
X119433466Y-86338897D01*
X119458452Y-86308452D01*
X119488897Y-86283466D01*
X119523633Y-86264899D01*
X119561326Y-86253465D01*
X119606661Y-86249000D01*
X120443339Y-86249000D01*
X120488674Y-86253465D01*
G37*
G36*
X140438674Y-86253465D02*
G01*
X140476367Y-86264899D01*
X140511103Y-86283466D01*
X140541548Y-86308452D01*
X140566534Y-86338897D01*
X140585101Y-86373633D01*
X140596535Y-86411326D01*
X140601000Y-86456661D01*
X140601000Y-87543339D01*
X140596535Y-87588674D01*
X140585101Y-87626367D01*
X140566534Y-87661103D01*
X140541548Y-87691548D01*
X140511103Y-87716534D01*
X140476367Y-87735101D01*
X140438674Y-87746535D01*
X140393339Y-87751000D01*
X139556661Y-87751000D01*
X139511326Y-87746535D01*
X139473633Y-87735101D01*
X139438897Y-87716534D01*
X139408452Y-87691548D01*
X139383466Y-87661103D01*
X139364899Y-87626367D01*
X139353465Y-87588674D01*
X139349000Y-87543339D01*
X139349000Y-86456661D01*
X139353465Y-86411326D01*
X139364899Y-86373633D01*
X139383466Y-86338897D01*
X139408452Y-86308452D01*
X139438897Y-86283466D01*
X139473633Y-86264899D01*
X139511326Y-86253465D01*
X139556661Y-86249000D01*
X140393339Y-86249000D01*
X140438674Y-86253465D01*
G37*
G36*
X142488674Y-86253465D02*
G01*
X142526367Y-86264899D01*
X142561103Y-86283466D01*
X142591548Y-86308452D01*
X142616534Y-86338897D01*
X142635101Y-86373633D01*
X142646535Y-86411326D01*
X142651000Y-86456661D01*
X142651000Y-87543339D01*
X142646535Y-87588674D01*
X142635101Y-87626367D01*
X142616534Y-87661103D01*
X142591548Y-87691548D01*
X142561103Y-87716534D01*
X142526367Y-87735101D01*
X142488674Y-87746535D01*
X142443339Y-87751000D01*
X141606661Y-87751000D01*
X141561326Y-87746535D01*
X141523633Y-87735101D01*
X141488897Y-87716534D01*
X141458452Y-87691548D01*
X141433466Y-87661103D01*
X141414899Y-87626367D01*
X141403465Y-87588674D01*
X141399000Y-87543339D01*
X141399000Y-86456661D01*
X141403465Y-86411326D01*
X141414899Y-86373633D01*
X141433466Y-86338897D01*
X141458452Y-86308452D01*
X141488897Y-86283466D01*
X141523633Y-86264899D01*
X141561326Y-86253465D01*
X141606661Y-86249000D01*
X142443339Y-86249000D01*
X142488674Y-86253465D01*
G37*
G36*
X118438674Y-86253465D02*
G01*
X118476367Y-86264899D01*
X118511103Y-86283466D01*
X118541548Y-86308452D01*
X118566534Y-86338897D01*
X118585101Y-86373633D01*
X118596535Y-86411326D01*
X118601000Y-86456661D01*
X118601000Y-87543339D01*
X118596535Y-87588674D01*
X118585101Y-87626367D01*
X118566534Y-87661103D01*
X118541548Y-87691548D01*
X118511103Y-87716534D01*
X118476367Y-87735101D01*
X118438674Y-87746535D01*
X118393339Y-87751000D01*
X117556661Y-87751000D01*
X117511326Y-87746535D01*
X117473633Y-87735101D01*
X117438897Y-87716534D01*
X117408452Y-87691548D01*
X117383466Y-87661103D01*
X117364899Y-87626367D01*
X117353465Y-87588674D01*
X117349000Y-87543339D01*
X117349000Y-86456661D01*
X117353465Y-86411326D01*
X117364899Y-86373633D01*
X117383466Y-86338897D01*
X117408452Y-86308452D01*
X117438897Y-86283466D01*
X117473633Y-86264899D01*
X117511326Y-86253465D01*
X117556661Y-86249000D01*
X118393339Y-86249000D01*
X118438674Y-86253465D01*
G37*
G36*
X109277395Y-85625546D02*
G01*
X109450466Y-85697234D01*
X109450467Y-85697235D01*
X109606227Y-85801310D01*
X109738690Y-85933773D01*
X109738691Y-85933775D01*
X109842766Y-86089534D01*
X109914454Y-86262605D01*
X109951000Y-86446333D01*
X109951000Y-86633667D01*
X109914454Y-86817395D01*
X109842766Y-86990466D01*
X109842765Y-86990467D01*
X109738690Y-87146227D01*
X109606227Y-87278690D01*
X109527818Y-87331081D01*
X109450466Y-87382766D01*
X109277395Y-87454454D01*
X109093667Y-87491000D01*
X108906333Y-87491000D01*
X108722605Y-87454454D01*
X108549534Y-87382766D01*
X108472182Y-87331081D01*
X108393773Y-87278690D01*
X108261310Y-87146227D01*
X108157235Y-86990467D01*
X108157234Y-86990466D01*
X108085546Y-86817395D01*
X108049000Y-86633667D01*
X108049000Y-86446333D01*
X108085546Y-86262605D01*
X108157234Y-86089534D01*
X108261309Y-85933775D01*
X108261310Y-85933773D01*
X108393773Y-85801310D01*
X108549533Y-85697235D01*
X108549534Y-85697234D01*
X108722605Y-85625546D01*
X108906333Y-85589000D01*
X109093667Y-85589000D01*
X109277395Y-85625546D01*
G37*
G36*
X151851000Y-86351000D02*
G01*
X150149000Y-86351000D01*
X150149000Y-84649000D01*
X151851000Y-84649000D01*
X151851000Y-86351000D01*
G37*
G36*
X135126000Y-86301000D02*
G01*
X124874000Y-86301000D01*
X124874000Y-84999000D01*
X135126000Y-84999000D01*
X135126000Y-86301000D01*
G37*
G36*
X109951000Y-84951000D02*
G01*
X108049000Y-84951000D01*
X108049000Y-83049000D01*
X109951000Y-83049000D01*
X109951000Y-84951000D01*
G37*
G36*
X142488674Y-83253465D02*
G01*
X142526367Y-83264899D01*
X142561103Y-83283466D01*
X142591548Y-83308452D01*
X142616534Y-83338897D01*
X142635101Y-83373633D01*
X142646535Y-83411326D01*
X142651000Y-83456661D01*
X142651000Y-84543339D01*
X142646535Y-84588674D01*
X142635101Y-84626367D01*
X142616534Y-84661103D01*
X142591548Y-84691548D01*
X142561103Y-84716534D01*
X142526367Y-84735101D01*
X142488674Y-84746535D01*
X142443339Y-84751000D01*
X141606661Y-84751000D01*
X141561326Y-84746535D01*
X141523633Y-84735101D01*
X141488897Y-84716534D01*
X141458452Y-84691548D01*
X141433466Y-84661103D01*
X141414899Y-84626367D01*
X141403465Y-84588674D01*
X141399000Y-84543339D01*
X141399000Y-83456661D01*
X141403465Y-83411326D01*
X141414899Y-83373633D01*
X141433466Y-83338897D01*
X141458452Y-83308452D01*
X141488897Y-83283466D01*
X141523633Y-83264899D01*
X141561326Y-83253465D01*
X141606661Y-83249000D01*
X142443339Y-83249000D01*
X142488674Y-83253465D01*
G37*
G36*
X140438674Y-83253465D02*
G01*
X140476367Y-83264899D01*
X140511103Y-83283466D01*
X140541548Y-83308452D01*
X140566534Y-83338897D01*
X140585101Y-83373633D01*
X140596535Y-83411326D01*
X140601000Y-83456661D01*
X140601000Y-84543339D01*
X140596535Y-84588674D01*
X140585101Y-84626367D01*
X140566534Y-84661103D01*
X140541548Y-84691548D01*
X140511103Y-84716534D01*
X140476367Y-84735101D01*
X140438674Y-84746535D01*
X140393339Y-84751000D01*
X139556661Y-84751000D01*
X139511326Y-84746535D01*
X139473633Y-84735101D01*
X139438897Y-84716534D01*
X139408452Y-84691548D01*
X139383466Y-84661103D01*
X139364899Y-84626367D01*
X139353465Y-84588674D01*
X139349000Y-84543339D01*
X139349000Y-83456661D01*
X139353465Y-83411326D01*
X139364899Y-83373633D01*
X139383466Y-83338897D01*
X139408452Y-83308452D01*
X139438897Y-83283466D01*
X139473633Y-83264899D01*
X139511326Y-83253465D01*
X139556661Y-83249000D01*
X140393339Y-83249000D01*
X140438674Y-83253465D01*
G37*
G36*
X120289499Y-83478445D02*
G01*
X120326995Y-83489820D01*
X120361554Y-83508292D01*
X120391847Y-83533153D01*
X120416708Y-83563446D01*
X120435180Y-83598005D01*
X120446555Y-83635501D01*
X120451000Y-83680638D01*
X120451000Y-84319362D01*
X120446555Y-84364499D01*
X120435180Y-84401995D01*
X120416708Y-84436554D01*
X120391847Y-84466847D01*
X120361554Y-84491708D01*
X120326995Y-84510180D01*
X120289499Y-84521555D01*
X120244362Y-84526000D01*
X119505638Y-84526000D01*
X119460501Y-84521555D01*
X119423005Y-84510180D01*
X119388446Y-84491708D01*
X119358153Y-84466847D01*
X119333292Y-84436554D01*
X119314820Y-84401995D01*
X119303445Y-84364499D01*
X119299000Y-84319362D01*
X119299000Y-83680638D01*
X119303445Y-83635501D01*
X119314820Y-83598005D01*
X119333292Y-83563446D01*
X119358153Y-83533153D01*
X119388446Y-83508292D01*
X119423005Y-83489820D01*
X119460501Y-83478445D01*
X119505638Y-83474000D01*
X120244362Y-83474000D01*
X120289499Y-83478445D01*
G37*
G36*
X118539499Y-83478445D02*
G01*
X118576995Y-83489820D01*
X118611554Y-83508292D01*
X118641847Y-83533153D01*
X118666708Y-83563446D01*
X118685180Y-83598005D01*
X118696555Y-83635501D01*
X118701000Y-83680638D01*
X118701000Y-84319362D01*
X118696555Y-84364499D01*
X118685180Y-84401995D01*
X118666708Y-84436554D01*
X118641847Y-84466847D01*
X118611554Y-84491708D01*
X118576995Y-84510180D01*
X118539499Y-84521555D01*
X118494362Y-84526000D01*
X117755638Y-84526000D01*
X117710501Y-84521555D01*
X117673005Y-84510180D01*
X117638446Y-84491708D01*
X117608153Y-84466847D01*
X117583292Y-84436554D01*
X117564820Y-84401995D01*
X117553445Y-84364499D01*
X117549000Y-84319362D01*
X117549000Y-83680638D01*
X117553445Y-83635501D01*
X117564820Y-83598005D01*
X117583292Y-83563446D01*
X117608153Y-83533153D01*
X117638446Y-83508292D01*
X117673005Y-83489820D01*
X117710501Y-83478445D01*
X117755638Y-83474000D01*
X118494362Y-83474000D01*
X118539499Y-83478445D01*
G37*
G36*
X142488674Y-79253465D02*
G01*
X142526367Y-79264899D01*
X142561103Y-79283466D01*
X142591548Y-79308452D01*
X142616534Y-79338897D01*
X142635101Y-79373633D01*
X142646535Y-79411326D01*
X142651000Y-79456661D01*
X142651000Y-80543339D01*
X142646535Y-80588674D01*
X142635101Y-80626367D01*
X142616534Y-80661103D01*
X142591548Y-80691548D01*
X142561103Y-80716534D01*
X142526367Y-80735101D01*
X142488674Y-80746535D01*
X142443339Y-80751000D01*
X141606661Y-80751000D01*
X141561326Y-80746535D01*
X141523633Y-80735101D01*
X141488897Y-80716534D01*
X141458452Y-80691548D01*
X141433466Y-80661103D01*
X141414899Y-80626367D01*
X141403465Y-80588674D01*
X141399000Y-80543339D01*
X141399000Y-79456661D01*
X141403465Y-79411326D01*
X141414899Y-79373633D01*
X141433466Y-79338897D01*
X141458452Y-79308452D01*
X141488897Y-79283466D01*
X141523633Y-79264899D01*
X141561326Y-79253465D01*
X141606661Y-79249000D01*
X142443339Y-79249000D01*
X142488674Y-79253465D01*
G37*
G36*
X140438674Y-79253465D02*
G01*
X140476367Y-79264899D01*
X140511103Y-79283466D01*
X140541548Y-79308452D01*
X140566534Y-79338897D01*
X140585101Y-79373633D01*
X140596535Y-79411326D01*
X140601000Y-79456661D01*
X140601000Y-80543339D01*
X140596535Y-80588674D01*
X140585101Y-80626367D01*
X140566534Y-80661103D01*
X140541548Y-80691548D01*
X140511103Y-80716534D01*
X140476367Y-80735101D01*
X140438674Y-80746535D01*
X140393339Y-80751000D01*
X139556661Y-80751000D01*
X139511326Y-80746535D01*
X139473633Y-80735101D01*
X139438897Y-80716534D01*
X139408452Y-80691548D01*
X139383466Y-80661103D01*
X139364899Y-80626367D01*
X139353465Y-80588674D01*
X139349000Y-80543339D01*
X139349000Y-79456661D01*
X139353465Y-79411326D01*
X139364899Y-79373633D01*
X139383466Y-79338897D01*
X139408452Y-79308452D01*
X139438897Y-79283466D01*
X139473633Y-79264899D01*
X139511326Y-79253465D01*
X139556661Y-79249000D01*
X140393339Y-79249000D01*
X140438674Y-79253465D01*
G37*
G36*
X118539499Y-79478445D02*
G01*
X118576995Y-79489820D01*
X118611554Y-79508292D01*
X118641847Y-79533153D01*
X118666708Y-79563446D01*
X118685180Y-79598005D01*
X118696555Y-79635501D01*
X118701000Y-79680638D01*
X118701000Y-80319362D01*
X118696555Y-80364499D01*
X118685180Y-80401995D01*
X118666708Y-80436554D01*
X118641847Y-80466847D01*
X118611554Y-80491708D01*
X118576995Y-80510180D01*
X118539499Y-80521555D01*
X118494362Y-80526000D01*
X117755638Y-80526000D01*
X117710501Y-80521555D01*
X117673005Y-80510180D01*
X117638446Y-80491708D01*
X117608153Y-80466847D01*
X117583292Y-80436554D01*
X117564820Y-80401995D01*
X117553445Y-80364499D01*
X117549000Y-80319362D01*
X117549000Y-79680638D01*
X117553445Y-79635501D01*
X117564820Y-79598005D01*
X117583292Y-79563446D01*
X117608153Y-79533153D01*
X117638446Y-79508292D01*
X117673005Y-79489820D01*
X117710501Y-79478445D01*
X117755638Y-79474000D01*
X118494362Y-79474000D01*
X118539499Y-79478445D01*
G37*
G36*
X120289499Y-79478445D02*
G01*
X120326995Y-79489820D01*
X120361554Y-79508292D01*
X120391847Y-79533153D01*
X120416708Y-79563446D01*
X120435180Y-79598005D01*
X120446555Y-79635501D01*
X120451000Y-79680638D01*
X120451000Y-80319362D01*
X120446555Y-80364499D01*
X120435180Y-80401995D01*
X120416708Y-80436554D01*
X120391847Y-80466847D01*
X120361554Y-80491708D01*
X120326995Y-80510180D01*
X120289499Y-80521555D01*
X120244362Y-80526000D01*
X119505638Y-80526000D01*
X119460501Y-80521555D01*
X119423005Y-80510180D01*
X119388446Y-80491708D01*
X119358153Y-80466847D01*
X119333292Y-80436554D01*
X119314820Y-80401995D01*
X119303445Y-80364499D01*
X119299000Y-80319362D01*
X119299000Y-79680638D01*
X119303445Y-79635501D01*
X119314820Y-79598005D01*
X119333292Y-79563446D01*
X119358153Y-79533153D01*
X119388446Y-79508292D01*
X119423005Y-79489820D01*
X119460501Y-79478445D01*
X119505638Y-79474000D01*
X120244362Y-79474000D01*
X120289499Y-79478445D01*
G37*
G36*
X151851000Y-79351000D02*
G01*
X150149000Y-79351000D01*
X150149000Y-77649000D01*
X151851000Y-77649000D01*
X151851000Y-79351000D01*
G37*
G36*
X135126000Y-79001000D02*
G01*
X124874000Y-79001000D01*
X124874000Y-77699000D01*
X135126000Y-77699000D01*
X135126000Y-79001000D01*
G37*
G36*
X109901000Y-78441000D02*
G01*
X108099000Y-78441000D01*
X108099000Y-76639000D01*
X109901000Y-76639000D01*
X109901000Y-78441000D01*
G37*
G36*
X142488674Y-76253465D02*
G01*
X142526367Y-76264899D01*
X142561103Y-76283466D01*
X142591548Y-76308452D01*
X142616534Y-76338897D01*
X142635101Y-76373633D01*
X142646535Y-76411326D01*
X142651000Y-76456661D01*
X142651000Y-77543339D01*
X142646535Y-77588674D01*
X142635101Y-77626367D01*
X142616534Y-77661103D01*
X142591548Y-77691548D01*
X142561103Y-77716534D01*
X142526367Y-77735101D01*
X142488674Y-77746535D01*
X142443339Y-77751000D01*
X141606661Y-77751000D01*
X141561326Y-77746535D01*
X141523633Y-77735101D01*
X141488897Y-77716534D01*
X141458452Y-77691548D01*
X141433466Y-77661103D01*
X141414899Y-77626367D01*
X141403465Y-77588674D01*
X141399000Y-77543339D01*
X141399000Y-76456661D01*
X141403465Y-76411326D01*
X141414899Y-76373633D01*
X141433466Y-76338897D01*
X141458452Y-76308452D01*
X141488897Y-76283466D01*
X141523633Y-76264899D01*
X141561326Y-76253465D01*
X141606661Y-76249000D01*
X142443339Y-76249000D01*
X142488674Y-76253465D01*
G37*
G36*
X118438674Y-76253465D02*
G01*
X118476367Y-76264899D01*
X118511103Y-76283466D01*
X118541548Y-76308452D01*
X118566534Y-76338897D01*
X118585101Y-76373633D01*
X118596535Y-76411326D01*
X118601000Y-76456661D01*
X118601000Y-77543339D01*
X118596535Y-77588674D01*
X118585101Y-77626367D01*
X118566534Y-77661103D01*
X118541548Y-77691548D01*
X118511103Y-77716534D01*
X118476367Y-77735101D01*
X118438674Y-77746535D01*
X118393339Y-77751000D01*
X117556661Y-77751000D01*
X117511326Y-77746535D01*
X117473633Y-77735101D01*
X117438897Y-77716534D01*
X117408452Y-77691548D01*
X117383466Y-77661103D01*
X117364899Y-77626367D01*
X117353465Y-77588674D01*
X117349000Y-77543339D01*
X117349000Y-76456661D01*
X117353465Y-76411326D01*
X117364899Y-76373633D01*
X117383466Y-76338897D01*
X117408452Y-76308452D01*
X117438897Y-76283466D01*
X117473633Y-76264899D01*
X117511326Y-76253465D01*
X117556661Y-76249000D01*
X118393339Y-76249000D01*
X118438674Y-76253465D01*
G37*
G36*
X120488674Y-76253465D02*
G01*
X120526367Y-76264899D01*
X120561103Y-76283466D01*
X120591548Y-76308452D01*
X120616534Y-76338897D01*
X120635101Y-76373633D01*
X120646535Y-76411326D01*
X120651000Y-76456661D01*
X120651000Y-77543339D01*
X120646535Y-77588674D01*
X120635101Y-77626367D01*
X120616534Y-77661103D01*
X120591548Y-77691548D01*
X120561103Y-77716534D01*
X120526367Y-77735101D01*
X120488674Y-77746535D01*
X120443339Y-77751000D01*
X119606661Y-77751000D01*
X119561326Y-77746535D01*
X119523633Y-77735101D01*
X119488897Y-77716534D01*
X119458452Y-77691548D01*
X119433466Y-77661103D01*
X119414899Y-77626367D01*
X119403465Y-77588674D01*
X119399000Y-77543339D01*
X119399000Y-76456661D01*
X119403465Y-76411326D01*
X119414899Y-76373633D01*
X119433466Y-76338897D01*
X119458452Y-76308452D01*
X119488897Y-76283466D01*
X119523633Y-76264899D01*
X119561326Y-76253465D01*
X119606661Y-76249000D01*
X120443339Y-76249000D01*
X120488674Y-76253465D01*
G37*
G36*
X140438674Y-76253465D02*
G01*
X140476367Y-76264899D01*
X140511103Y-76283466D01*
X140541548Y-76308452D01*
X140566534Y-76338897D01*
X140585101Y-76373633D01*
X140596535Y-76411326D01*
X140601000Y-76456661D01*
X140601000Y-77543339D01*
X140596535Y-77588674D01*
X140585101Y-77626367D01*
X140566534Y-77661103D01*
X140541548Y-77691548D01*
X140511103Y-77716534D01*
X140476367Y-77735101D01*
X140438674Y-77746535D01*
X140393339Y-77751000D01*
X139556661Y-77751000D01*
X139511326Y-77746535D01*
X139473633Y-77735101D01*
X139438897Y-77716534D01*
X139408452Y-77691548D01*
X139383466Y-77661103D01*
X139364899Y-77626367D01*
X139353465Y-77588674D01*
X139349000Y-77543339D01*
X139349000Y-76456661D01*
X139353465Y-76411326D01*
X139364899Y-76373633D01*
X139383466Y-76338897D01*
X139408452Y-76308452D01*
X139438897Y-76283466D01*
X139473633Y-76264899D01*
X139511326Y-76253465D01*
X139556661Y-76249000D01*
X140393339Y-76249000D01*
X140438674Y-76253465D01*
G37*
G36*
X109113512Y-74103927D02*
G01*
X109262812Y-74133624D01*
X109426784Y-74201544D01*
X109574354Y-74300147D01*
X109699853Y-74425646D01*
X109798456Y-74573216D01*
X109866376Y-74737188D01*
X109901000Y-74911259D01*
X109901000Y-75088741D01*
X109866376Y-75262812D01*
X109798456Y-75426784D01*
X109699853Y-75574354D01*
X109574354Y-75699853D01*
X109426784Y-75798456D01*
X109262812Y-75866376D01*
X109113512Y-75896073D01*
X109088742Y-75901000D01*
X108911258Y-75901000D01*
X108886488Y-75896073D01*
X108737188Y-75866376D01*
X108573216Y-75798456D01*
X108425646Y-75699853D01*
X108300147Y-75574354D01*
X108201544Y-75426784D01*
X108133624Y-75262812D01*
X108099000Y-75088741D01*
X108099000Y-74911259D01*
X108133624Y-74737188D01*
X108201544Y-74573216D01*
X108300147Y-74425646D01*
X108425646Y-74300147D01*
X108573216Y-74201544D01*
X108737188Y-74133624D01*
X108886488Y-74103927D01*
X108911258Y-74099000D01*
X109088742Y-74099000D01*
X109113512Y-74103927D01*
G37*
G36*
X151248228Y-74181703D02*
G01*
X151403100Y-74245853D01*
X151542481Y-74338985D01*
X151661015Y-74457519D01*
X151754147Y-74596900D01*
X151818297Y-74751772D01*
X151851000Y-74916184D01*
X151851000Y-75083816D01*
X151818297Y-75248228D01*
X151754147Y-75403100D01*
X151661015Y-75542481D01*
X151542481Y-75661015D01*
X151403100Y-75754147D01*
X151248228Y-75818297D01*
X151083816Y-75851000D01*
X150916184Y-75851000D01*
X150751772Y-75818297D01*
X150596900Y-75754147D01*
X150457519Y-75661015D01*
X150338985Y-75542481D01*
X150245853Y-75403100D01*
X150181703Y-75248228D01*
X150149000Y-75083816D01*
X150149000Y-74916184D01*
X150181703Y-74751772D01*
X150245853Y-74596900D01*
X150338985Y-74457519D01*
X150457519Y-74338985D01*
X150596900Y-74245853D01*
X150751772Y-74181703D01*
X150916184Y-74149000D01*
X151083816Y-74149000D01*
X151248228Y-74181703D01*
G37*
G36*
X142488674Y-73253465D02*
G01*
X142526367Y-73264899D01*
X142561103Y-73283466D01*
X142591548Y-73308452D01*
X142616534Y-73338897D01*
X142635101Y-73373633D01*
X142646535Y-73411326D01*
X142651000Y-73456661D01*
X142651000Y-74543339D01*
X142646535Y-74588674D01*
X142635101Y-74626367D01*
X142616534Y-74661103D01*
X142591548Y-74691548D01*
X142561103Y-74716534D01*
X142526367Y-74735101D01*
X142488674Y-74746535D01*
X142443339Y-74751000D01*
X141606661Y-74751000D01*
X141561326Y-74746535D01*
X141523633Y-74735101D01*
X141488897Y-74716534D01*
X141458452Y-74691548D01*
X141433466Y-74661103D01*
X141414899Y-74626367D01*
X141403465Y-74588674D01*
X141399000Y-74543339D01*
X141399000Y-73456661D01*
X141403465Y-73411326D01*
X141414899Y-73373633D01*
X141433466Y-73338897D01*
X141458452Y-73308452D01*
X141488897Y-73283466D01*
X141523633Y-73264899D01*
X141561326Y-73253465D01*
X141606661Y-73249000D01*
X142443339Y-73249000D01*
X142488674Y-73253465D01*
G37*
G36*
X140438674Y-73253465D02*
G01*
X140476367Y-73264899D01*
X140511103Y-73283466D01*
X140541548Y-73308452D01*
X140566534Y-73338897D01*
X140585101Y-73373633D01*
X140596535Y-73411326D01*
X140601000Y-73456661D01*
X140601000Y-74543339D01*
X140596535Y-74588674D01*
X140585101Y-74626367D01*
X140566534Y-74661103D01*
X140541548Y-74691548D01*
X140511103Y-74716534D01*
X140476367Y-74735101D01*
X140438674Y-74746535D01*
X140393339Y-74751000D01*
X139556661Y-74751000D01*
X139511326Y-74746535D01*
X139473633Y-74735101D01*
X139438897Y-74716534D01*
X139408452Y-74691548D01*
X139383466Y-74661103D01*
X139364899Y-74626367D01*
X139353465Y-74588674D01*
X139349000Y-74543339D01*
X139349000Y-73456661D01*
X139353465Y-73411326D01*
X139364899Y-73373633D01*
X139383466Y-73338897D01*
X139408452Y-73308452D01*
X139438897Y-73283466D01*
X139473633Y-73264899D01*
X139511326Y-73253465D01*
X139556661Y-73249000D01*
X140393339Y-73249000D01*
X140438674Y-73253465D01*
G37*
G36*
X118438674Y-73253465D02*
G01*
X118476367Y-73264899D01*
X118511103Y-73283466D01*
X118541548Y-73308452D01*
X118566534Y-73338897D01*
X118585101Y-73373633D01*
X118596535Y-73411326D01*
X118601000Y-73456661D01*
X118601000Y-74543339D01*
X118596535Y-74588674D01*
X118585101Y-74626367D01*
X118566534Y-74661103D01*
X118541548Y-74691548D01*
X118511103Y-74716534D01*
X118476367Y-74735101D01*
X118438674Y-74746535D01*
X118393339Y-74751000D01*
X117556661Y-74751000D01*
X117511326Y-74746535D01*
X117473633Y-74735101D01*
X117438897Y-74716534D01*
X117408452Y-74691548D01*
X117383466Y-74661103D01*
X117364899Y-74626367D01*
X117353465Y-74588674D01*
X117349000Y-74543339D01*
X117349000Y-73456661D01*
X117353465Y-73411326D01*
X117364899Y-73373633D01*
X117383466Y-73338897D01*
X117408452Y-73308452D01*
X117438897Y-73283466D01*
X117473633Y-73264899D01*
X117511326Y-73253465D01*
X117556661Y-73249000D01*
X118393339Y-73249000D01*
X118438674Y-73253465D01*
G37*
G36*
X120488674Y-73253465D02*
G01*
X120526367Y-73264899D01*
X120561103Y-73283466D01*
X120591548Y-73308452D01*
X120616534Y-73338897D01*
X120635101Y-73373633D01*
X120646535Y-73411326D01*
X120651000Y-73456661D01*
X120651000Y-74543339D01*
X120646535Y-74588674D01*
X120635101Y-74626367D01*
X120616534Y-74661103D01*
X120591548Y-74691548D01*
X120561103Y-74716534D01*
X120526367Y-74735101D01*
X120488674Y-74746535D01*
X120443339Y-74751000D01*
X119606661Y-74751000D01*
X119561326Y-74746535D01*
X119523633Y-74735101D01*
X119488897Y-74716534D01*
X119458452Y-74691548D01*
X119433466Y-74661103D01*
X119414899Y-74626367D01*
X119403465Y-74588674D01*
X119399000Y-74543339D01*
X119399000Y-73456661D01*
X119403465Y-73411326D01*
X119414899Y-73373633D01*
X119433466Y-73338897D01*
X119458452Y-73308452D01*
X119488897Y-73283466D01*
X119523633Y-73264899D01*
X119561326Y-73253465D01*
X119606661Y-73249000D01*
X120443339Y-73249000D01*
X120488674Y-73253465D01*
G37*
G36*
X134588674Y-72903465D02*
G01*
X134626367Y-72914899D01*
X134661103Y-72933466D01*
X134691548Y-72958452D01*
X134716534Y-72988897D01*
X134735101Y-73023633D01*
X134746535Y-73061326D01*
X134751000Y-73106661D01*
X134751000Y-73943339D01*
X134746535Y-73988674D01*
X134735101Y-74026367D01*
X134716534Y-74061103D01*
X134691548Y-74091548D01*
X134661103Y-74116534D01*
X134626367Y-74135101D01*
X134588674Y-74146535D01*
X134543339Y-74151000D01*
X133456661Y-74151000D01*
X133411326Y-74146535D01*
X133373633Y-74135101D01*
X133338897Y-74116534D01*
X133308452Y-74091548D01*
X133283466Y-74061103D01*
X133264899Y-74026367D01*
X133253465Y-73988674D01*
X133249000Y-73943339D01*
X133249000Y-73106661D01*
X133253465Y-73061326D01*
X133264899Y-73023633D01*
X133283466Y-72988897D01*
X133308452Y-72958452D01*
X133338897Y-72933466D01*
X133373633Y-72914899D01*
X133411326Y-72903465D01*
X133456661Y-72899000D01*
X134543339Y-72899000D01*
X134588674Y-72903465D01*
G37*
G36*
X109113512Y-71563927D02*
G01*
X109262812Y-71593624D01*
X109426784Y-71661544D01*
X109574354Y-71760147D01*
X109699853Y-71885646D01*
X109798456Y-72033216D01*
X109866376Y-72197188D01*
X109901000Y-72371259D01*
X109901000Y-72548741D01*
X109866376Y-72722812D01*
X109798456Y-72886784D01*
X109699853Y-73034354D01*
X109574354Y-73159853D01*
X109426784Y-73258456D01*
X109262812Y-73326376D01*
X109113512Y-73356073D01*
X109088742Y-73361000D01*
X108911258Y-73361000D01*
X108886488Y-73356073D01*
X108737188Y-73326376D01*
X108573216Y-73258456D01*
X108425646Y-73159853D01*
X108300147Y-73034354D01*
X108201544Y-72886784D01*
X108133624Y-72722812D01*
X108099000Y-72548741D01*
X108099000Y-72371259D01*
X108133624Y-72197188D01*
X108201544Y-72033216D01*
X108300147Y-71885646D01*
X108425646Y-71760147D01*
X108573216Y-71661544D01*
X108737188Y-71593624D01*
X108886488Y-71563927D01*
X108911258Y-71559000D01*
X109088742Y-71559000D01*
X109113512Y-71563927D01*
G37*
G36*
X129438674Y-71753465D02*
G01*
X129476367Y-71764899D01*
X129511103Y-71783466D01*
X129541548Y-71808452D01*
X129566534Y-71838897D01*
X129585101Y-71873633D01*
X129596535Y-71911326D01*
X129601000Y-71956661D01*
X129601000Y-73043339D01*
X129596535Y-73088674D01*
X129585101Y-73126367D01*
X129566534Y-73161103D01*
X129541548Y-73191548D01*
X129511103Y-73216534D01*
X129476367Y-73235101D01*
X129438674Y-73246535D01*
X129393339Y-73251000D01*
X128556661Y-73251000D01*
X128511326Y-73246535D01*
X128473633Y-73235101D01*
X128438897Y-73216534D01*
X128408452Y-73191548D01*
X128383466Y-73161103D01*
X128364899Y-73126367D01*
X128353465Y-73088674D01*
X128349000Y-73043339D01*
X128349000Y-71956661D01*
X128353465Y-71911326D01*
X128364899Y-71873633D01*
X128383466Y-71838897D01*
X128408452Y-71808452D01*
X128438897Y-71783466D01*
X128473633Y-71764899D01*
X128511326Y-71753465D01*
X128556661Y-71749000D01*
X129393339Y-71749000D01*
X129438674Y-71753465D01*
G37*
G36*
X131488674Y-71753465D02*
G01*
X131526367Y-71764899D01*
X131561103Y-71783466D01*
X131591548Y-71808452D01*
X131616534Y-71838897D01*
X131635101Y-71873633D01*
X131646535Y-71911326D01*
X131651000Y-71956661D01*
X131651000Y-73043339D01*
X131646535Y-73088674D01*
X131635101Y-73126367D01*
X131616534Y-73161103D01*
X131591548Y-73191548D01*
X131561103Y-73216534D01*
X131526367Y-73235101D01*
X131488674Y-73246535D01*
X131443339Y-73251000D01*
X130606661Y-73251000D01*
X130561326Y-73246535D01*
X130523633Y-73235101D01*
X130488897Y-73216534D01*
X130458452Y-73191548D01*
X130433466Y-73161103D01*
X130414899Y-73126367D01*
X130403465Y-73088674D01*
X130399000Y-73043339D01*
X130399000Y-71956661D01*
X130403465Y-71911326D01*
X130414899Y-71873633D01*
X130433466Y-71838897D01*
X130458452Y-71808452D01*
X130488897Y-71783466D01*
X130523633Y-71764899D01*
X130561326Y-71753465D01*
X130606661Y-71749000D01*
X131443339Y-71749000D01*
X131488674Y-71753465D01*
G37*
G36*
X134588674Y-70853465D02*
G01*
X134626367Y-70864899D01*
X134661103Y-70883466D01*
X134691548Y-70908452D01*
X134716534Y-70938897D01*
X134735101Y-70973633D01*
X134746535Y-71011326D01*
X134751000Y-71056661D01*
X134751000Y-71893339D01*
X134746535Y-71938674D01*
X134735101Y-71976367D01*
X134716534Y-72011103D01*
X134691548Y-72041548D01*
X134661103Y-72066534D01*
X134626367Y-72085101D01*
X134588674Y-72096535D01*
X134543339Y-72101000D01*
X133456661Y-72101000D01*
X133411326Y-72096535D01*
X133373633Y-72085101D01*
X133338897Y-72066534D01*
X133308452Y-72041548D01*
X133283466Y-72011103D01*
X133264899Y-71976367D01*
X133253465Y-71938674D01*
X133249000Y-71893339D01*
X133249000Y-71056661D01*
X133253465Y-71011326D01*
X133264899Y-70973633D01*
X133283466Y-70938897D01*
X133308452Y-70908452D01*
X133338897Y-70883466D01*
X133373633Y-70864899D01*
X133411326Y-70853465D01*
X133456661Y-70849000D01*
X134543339Y-70849000D01*
X134588674Y-70853465D01*
G37*
G36*
X120488674Y-70253465D02*
G01*
X120526367Y-70264899D01*
X120561103Y-70283466D01*
X120591548Y-70308452D01*
X120616534Y-70338897D01*
X120635101Y-70373633D01*
X120646535Y-70411326D01*
X120651000Y-70456661D01*
X120651000Y-71543339D01*
X120646535Y-71588674D01*
X120635101Y-71626367D01*
X120616534Y-71661103D01*
X120591548Y-71691548D01*
X120561103Y-71716534D01*
X120526367Y-71735101D01*
X120488674Y-71746535D01*
X120443339Y-71751000D01*
X119606661Y-71751000D01*
X119561326Y-71746535D01*
X119523633Y-71735101D01*
X119488897Y-71716534D01*
X119458452Y-71691548D01*
X119433466Y-71661103D01*
X119414899Y-71626367D01*
X119403465Y-71588674D01*
X119399000Y-71543339D01*
X119399000Y-70456661D01*
X119403465Y-70411326D01*
X119414899Y-70373633D01*
X119433466Y-70338897D01*
X119458452Y-70308452D01*
X119488897Y-70283466D01*
X119523633Y-70264899D01*
X119561326Y-70253465D01*
X119606661Y-70249000D01*
X120443339Y-70249000D01*
X120488674Y-70253465D01*
G37*
G36*
X142488674Y-70253465D02*
G01*
X142526367Y-70264899D01*
X142561103Y-70283466D01*
X142591548Y-70308452D01*
X142616534Y-70338897D01*
X142635101Y-70373633D01*
X142646535Y-70411326D01*
X142651000Y-70456661D01*
X142651000Y-71543339D01*
X142646535Y-71588674D01*
X142635101Y-71626367D01*
X142616534Y-71661103D01*
X142591548Y-71691548D01*
X142561103Y-71716534D01*
X142526367Y-71735101D01*
X142488674Y-71746535D01*
X142443339Y-71751000D01*
X141606661Y-71751000D01*
X141561326Y-71746535D01*
X141523633Y-71735101D01*
X141488897Y-71716534D01*
X141458452Y-71691548D01*
X141433466Y-71661103D01*
X141414899Y-71626367D01*
X141403465Y-71588674D01*
X141399000Y-71543339D01*
X141399000Y-70456661D01*
X141403465Y-70411326D01*
X141414899Y-70373633D01*
X141433466Y-70338897D01*
X141458452Y-70308452D01*
X141488897Y-70283466D01*
X141523633Y-70264899D01*
X141561326Y-70253465D01*
X141606661Y-70249000D01*
X142443339Y-70249000D01*
X142488674Y-70253465D01*
G37*
G36*
X118438674Y-70253465D02*
G01*
X118476367Y-70264899D01*
X118511103Y-70283466D01*
X118541548Y-70308452D01*
X118566534Y-70338897D01*
X118585101Y-70373633D01*
X118596535Y-70411326D01*
X118601000Y-70456661D01*
X118601000Y-71543339D01*
X118596535Y-71588674D01*
X118585101Y-71626367D01*
X118566534Y-71661103D01*
X118541548Y-71691548D01*
X118511103Y-71716534D01*
X118476367Y-71735101D01*
X118438674Y-71746535D01*
X118393339Y-71751000D01*
X117556661Y-71751000D01*
X117511326Y-71746535D01*
X117473633Y-71735101D01*
X117438897Y-71716534D01*
X117408452Y-71691548D01*
X117383466Y-71661103D01*
X117364899Y-71626367D01*
X117353465Y-71588674D01*
X117349000Y-71543339D01*
X117349000Y-70456661D01*
X117353465Y-70411326D01*
X117364899Y-70373633D01*
X117383466Y-70338897D01*
X117408452Y-70308452D01*
X117438897Y-70283466D01*
X117473633Y-70264899D01*
X117511326Y-70253465D01*
X117556661Y-70249000D01*
X118393339Y-70249000D01*
X118438674Y-70253465D01*
G37*
G36*
X140438674Y-70253465D02*
G01*
X140476367Y-70264899D01*
X140511103Y-70283466D01*
X140541548Y-70308452D01*
X140566534Y-70338897D01*
X140585101Y-70373633D01*
X140596535Y-70411326D01*
X140601000Y-70456661D01*
X140601000Y-71543339D01*
X140596535Y-71588674D01*
X140585101Y-71626367D01*
X140566534Y-71661103D01*
X140541548Y-71691548D01*
X140511103Y-71716534D01*
X140476367Y-71735101D01*
X140438674Y-71746535D01*
X140393339Y-71751000D01*
X139556661Y-71751000D01*
X139511326Y-71746535D01*
X139473633Y-71735101D01*
X139438897Y-71716534D01*
X139408452Y-71691548D01*
X139383466Y-71661103D01*
X139364899Y-71626367D01*
X139353465Y-71588674D01*
X139349000Y-71543339D01*
X139349000Y-70456661D01*
X139353465Y-70411326D01*
X139364899Y-70373633D01*
X139383466Y-70338897D01*
X139408452Y-70308452D01*
X139438897Y-70283466D01*
X139473633Y-70264899D01*
X139511326Y-70253465D01*
X139556661Y-70249000D01*
X140393339Y-70249000D01*
X140438674Y-70253465D01*
G37*
G36*
X121235442Y-60605518D02*
G01*
X121301627Y-60612037D01*
X121471466Y-60663557D01*
X121627991Y-60747222D01*
X121663729Y-60776552D01*
X121765186Y-60859814D01*
X121848448Y-60961271D01*
X121877778Y-60997009D01*
X121961443Y-61153534D01*
X122012963Y-61323373D01*
X122030359Y-61500000D01*
X122012963Y-61676627D01*
X121961443Y-61846466D01*
X121877778Y-62002991D01*
X121848448Y-62038729D01*
X121765186Y-62140186D01*
X121663729Y-62223448D01*
X121627991Y-62252778D01*
X121471466Y-62336443D01*
X121301627Y-62387963D01*
X121235443Y-62394481D01*
X121169260Y-62401000D01*
X120830740Y-62401000D01*
X120764557Y-62394481D01*
X120698373Y-62387963D01*
X120528534Y-62336443D01*
X120372009Y-62252778D01*
X120336271Y-62223448D01*
X120234814Y-62140186D01*
X120151552Y-62038729D01*
X120122222Y-62002991D01*
X120038557Y-61846466D01*
X119987037Y-61676627D01*
X119969641Y-61500000D01*
X119987037Y-61323373D01*
X120038557Y-61153534D01*
X120122222Y-60997009D01*
X120151552Y-60961271D01*
X120234814Y-60859814D01*
X120336271Y-60776552D01*
X120372009Y-60747222D01*
X120528534Y-60663557D01*
X120698373Y-60612037D01*
X120764558Y-60605518D01*
X120830740Y-60599000D01*
X121169260Y-60599000D01*
X121235442Y-60605518D01*
G37*
G36*
X130235442Y-60605518D02*
G01*
X130301627Y-60612037D01*
X130471466Y-60663557D01*
X130627991Y-60747222D01*
X130663729Y-60776552D01*
X130765186Y-60859814D01*
X130848448Y-60961271D01*
X130877778Y-60997009D01*
X130961443Y-61153534D01*
X131012963Y-61323373D01*
X131030359Y-61500000D01*
X131012963Y-61676627D01*
X130961443Y-61846466D01*
X130877778Y-62002991D01*
X130848448Y-62038729D01*
X130765186Y-62140186D01*
X130663729Y-62223448D01*
X130627991Y-62252778D01*
X130471466Y-62336443D01*
X130301627Y-62387963D01*
X130235443Y-62394481D01*
X130169260Y-62401000D01*
X129830740Y-62401000D01*
X129764557Y-62394481D01*
X129698373Y-62387963D01*
X129528534Y-62336443D01*
X129372009Y-62252778D01*
X129336271Y-62223448D01*
X129234814Y-62140186D01*
X129151552Y-62038729D01*
X129122222Y-62002991D01*
X129038557Y-61846466D01*
X128987037Y-61676627D01*
X128969641Y-61500000D01*
X128987037Y-61323373D01*
X129038557Y-61153534D01*
X129122222Y-60997009D01*
X129151552Y-60961271D01*
X129234814Y-60859814D01*
X129336271Y-60776552D01*
X129372009Y-60747222D01*
X129528534Y-60663557D01*
X129698373Y-60612037D01*
X129764558Y-60605518D01*
X129830740Y-60599000D01*
X130169260Y-60599000D01*
X130235442Y-60605518D01*
G37*
G36*
X139235442Y-60605518D02*
G01*
X139301627Y-60612037D01*
X139471466Y-60663557D01*
X139627991Y-60747222D01*
X139663729Y-60776552D01*
X139765186Y-60859814D01*
X139848448Y-60961271D01*
X139877778Y-60997009D01*
X139961443Y-61153534D01*
X140012963Y-61323373D01*
X140030359Y-61500000D01*
X140012963Y-61676627D01*
X139961443Y-61846466D01*
X139877778Y-62002991D01*
X139848448Y-62038729D01*
X139765186Y-62140186D01*
X139663729Y-62223448D01*
X139627991Y-62252778D01*
X139471466Y-62336443D01*
X139301627Y-62387963D01*
X139235443Y-62394481D01*
X139169260Y-62401000D01*
X138830740Y-62401000D01*
X138764557Y-62394481D01*
X138698373Y-62387963D01*
X138528534Y-62336443D01*
X138372009Y-62252778D01*
X138336271Y-62223448D01*
X138234814Y-62140186D01*
X138151552Y-62038729D01*
X138122222Y-62002991D01*
X138038557Y-61846466D01*
X137987037Y-61676627D01*
X137969641Y-61500000D01*
X137987037Y-61323373D01*
X138038557Y-61153534D01*
X138122222Y-60997009D01*
X138151552Y-60961271D01*
X138234814Y-60859814D01*
X138336271Y-60776552D01*
X138372009Y-60747222D01*
X138528534Y-60663557D01*
X138698373Y-60612037D01*
X138764558Y-60605518D01*
X138830740Y-60599000D01*
X139169260Y-60599000D01*
X139235442Y-60605518D01*
G37*
G36*
X112235442Y-60605518D02*
G01*
X112301627Y-60612037D01*
X112471466Y-60663557D01*
X112627991Y-60747222D01*
X112663729Y-60776552D01*
X112765186Y-60859814D01*
X112848448Y-60961271D01*
X112877778Y-60997009D01*
X112961443Y-61153534D01*
X113012963Y-61323373D01*
X113030359Y-61500000D01*
X113012963Y-61676627D01*
X112961443Y-61846466D01*
X112877778Y-62002991D01*
X112848448Y-62038729D01*
X112765186Y-62140186D01*
X112663729Y-62223448D01*
X112627991Y-62252778D01*
X112471466Y-62336443D01*
X112301627Y-62387963D01*
X112235443Y-62394481D01*
X112169260Y-62401000D01*
X111830740Y-62401000D01*
X111764557Y-62394481D01*
X111698373Y-62387963D01*
X111528534Y-62336443D01*
X111372009Y-62252778D01*
X111336271Y-62223448D01*
X111234814Y-62140186D01*
X111151552Y-62038729D01*
X111122222Y-62002991D01*
X111038557Y-61846466D01*
X110987037Y-61676627D01*
X110969641Y-61500000D01*
X110987037Y-61323373D01*
X111038557Y-61153534D01*
X111122222Y-60997009D01*
X111151552Y-60961271D01*
X111234814Y-60859814D01*
X111336271Y-60776552D01*
X111372009Y-60747222D01*
X111528534Y-60663557D01*
X111698373Y-60612037D01*
X111764558Y-60605518D01*
X111830740Y-60599000D01*
X112169260Y-60599000D01*
X112235442Y-60605518D01*
G37*
G36*
X148235442Y-60605518D02*
G01*
X148301627Y-60612037D01*
X148471466Y-60663557D01*
X148627991Y-60747222D01*
X148663729Y-60776552D01*
X148765186Y-60859814D01*
X148848448Y-60961271D01*
X148877778Y-60997009D01*
X148961443Y-61153534D01*
X149012963Y-61323373D01*
X149030359Y-61500000D01*
X149012963Y-61676627D01*
X148961443Y-61846466D01*
X148877778Y-62002991D01*
X148848448Y-62038729D01*
X148765186Y-62140186D01*
X148663729Y-62223448D01*
X148627991Y-62252778D01*
X148471466Y-62336443D01*
X148301627Y-62387963D01*
X148235443Y-62394481D01*
X148169260Y-62401000D01*
X147830740Y-62401000D01*
X147764557Y-62394481D01*
X147698373Y-62387963D01*
X147528534Y-62336443D01*
X147372009Y-62252778D01*
X147336271Y-62223448D01*
X147234814Y-62140186D01*
X147151552Y-62038729D01*
X147122222Y-62002991D01*
X147038557Y-61846466D01*
X146987037Y-61676627D01*
X146969641Y-61500000D01*
X146987037Y-61323373D01*
X147038557Y-61153534D01*
X147122222Y-60997009D01*
X147151552Y-60961271D01*
X147234814Y-60859814D01*
X147336271Y-60776552D01*
X147372009Y-60747222D01*
X147528534Y-60663557D01*
X147698373Y-60612037D01*
X147764558Y-60605518D01*
X147830740Y-60599000D01*
X148169260Y-60599000D01*
X148235442Y-60605518D01*
G37*
G36*
X112235443Y-58105519D02*
G01*
X112301627Y-58112037D01*
X112471466Y-58163557D01*
X112627991Y-58247222D01*
X112663729Y-58276552D01*
X112765186Y-58359814D01*
X112848448Y-58461271D01*
X112877778Y-58497009D01*
X112961443Y-58653534D01*
X113012963Y-58823373D01*
X113030359Y-59000000D01*
X113012963Y-59176627D01*
X112961443Y-59346466D01*
X112877778Y-59502991D01*
X112848448Y-59538729D01*
X112765186Y-59640186D01*
X112663729Y-59723448D01*
X112627991Y-59752778D01*
X112471466Y-59836443D01*
X112301627Y-59887963D01*
X112235443Y-59894481D01*
X112169260Y-59901000D01*
X111830740Y-59901000D01*
X111764557Y-59894481D01*
X111698373Y-59887963D01*
X111528534Y-59836443D01*
X111372009Y-59752778D01*
X111336271Y-59723448D01*
X111234814Y-59640186D01*
X111151552Y-59538729D01*
X111122222Y-59502991D01*
X111038557Y-59346466D01*
X110987037Y-59176627D01*
X110969641Y-59000000D01*
X110987037Y-58823373D01*
X111038557Y-58653534D01*
X111122222Y-58497009D01*
X111151552Y-58461271D01*
X111234814Y-58359814D01*
X111336271Y-58276552D01*
X111372009Y-58247222D01*
X111528534Y-58163557D01*
X111698373Y-58112037D01*
X111764557Y-58105519D01*
X111830740Y-58099000D01*
X112169260Y-58099000D01*
X112235443Y-58105519D01*
G37*
G36*
X130235443Y-58105519D02*
G01*
X130301627Y-58112037D01*
X130471466Y-58163557D01*
X130627991Y-58247222D01*
X130663729Y-58276552D01*
X130765186Y-58359814D01*
X130848448Y-58461271D01*
X130877778Y-58497009D01*
X130961443Y-58653534D01*
X131012963Y-58823373D01*
X131030359Y-59000000D01*
X131012963Y-59176627D01*
X130961443Y-59346466D01*
X130877778Y-59502991D01*
X130848448Y-59538729D01*
X130765186Y-59640186D01*
X130663729Y-59723448D01*
X130627991Y-59752778D01*
X130471466Y-59836443D01*
X130301627Y-59887963D01*
X130235443Y-59894481D01*
X130169260Y-59901000D01*
X129830740Y-59901000D01*
X129764557Y-59894481D01*
X129698373Y-59887963D01*
X129528534Y-59836443D01*
X129372009Y-59752778D01*
X129336271Y-59723448D01*
X129234814Y-59640186D01*
X129151552Y-59538729D01*
X129122222Y-59502991D01*
X129038557Y-59346466D01*
X128987037Y-59176627D01*
X128969641Y-59000000D01*
X128987037Y-58823373D01*
X129038557Y-58653534D01*
X129122222Y-58497009D01*
X129151552Y-58461271D01*
X129234814Y-58359814D01*
X129336271Y-58276552D01*
X129372009Y-58247222D01*
X129528534Y-58163557D01*
X129698373Y-58112037D01*
X129764557Y-58105519D01*
X129830740Y-58099000D01*
X130169260Y-58099000D01*
X130235443Y-58105519D01*
G37*
G36*
X121235443Y-58105519D02*
G01*
X121301627Y-58112037D01*
X121471466Y-58163557D01*
X121627991Y-58247222D01*
X121663729Y-58276552D01*
X121765186Y-58359814D01*
X121848448Y-58461271D01*
X121877778Y-58497009D01*
X121961443Y-58653534D01*
X122012963Y-58823373D01*
X122030359Y-59000000D01*
X122012963Y-59176627D01*
X121961443Y-59346466D01*
X121877778Y-59502991D01*
X121848448Y-59538729D01*
X121765186Y-59640186D01*
X121663729Y-59723448D01*
X121627991Y-59752778D01*
X121471466Y-59836443D01*
X121301627Y-59887963D01*
X121235443Y-59894481D01*
X121169260Y-59901000D01*
X120830740Y-59901000D01*
X120764557Y-59894481D01*
X120698373Y-59887963D01*
X120528534Y-59836443D01*
X120372009Y-59752778D01*
X120336271Y-59723448D01*
X120234814Y-59640186D01*
X120151552Y-59538729D01*
X120122222Y-59502991D01*
X120038557Y-59346466D01*
X119987037Y-59176627D01*
X119969641Y-59000000D01*
X119987037Y-58823373D01*
X120038557Y-58653534D01*
X120122222Y-58497009D01*
X120151552Y-58461271D01*
X120234814Y-58359814D01*
X120336271Y-58276552D01*
X120372009Y-58247222D01*
X120528534Y-58163557D01*
X120698373Y-58112037D01*
X120764557Y-58105519D01*
X120830740Y-58099000D01*
X121169260Y-58099000D01*
X121235443Y-58105519D01*
G37*
G36*
X148235443Y-58105519D02*
G01*
X148301627Y-58112037D01*
X148471466Y-58163557D01*
X148627991Y-58247222D01*
X148663729Y-58276552D01*
X148765186Y-58359814D01*
X148848448Y-58461271D01*
X148877778Y-58497009D01*
X148961443Y-58653534D01*
X149012963Y-58823373D01*
X149030359Y-59000000D01*
X149012963Y-59176627D01*
X148961443Y-59346466D01*
X148877778Y-59502991D01*
X148848448Y-59538729D01*
X148765186Y-59640186D01*
X148663729Y-59723448D01*
X148627991Y-59752778D01*
X148471466Y-59836443D01*
X148301627Y-59887963D01*
X148235443Y-59894481D01*
X148169260Y-59901000D01*
X147830740Y-59901000D01*
X147764557Y-59894481D01*
X147698373Y-59887963D01*
X147528534Y-59836443D01*
X147372009Y-59752778D01*
X147336271Y-59723448D01*
X147234814Y-59640186D01*
X147151552Y-59538729D01*
X147122222Y-59502991D01*
X147038557Y-59346466D01*
X146987037Y-59176627D01*
X146969641Y-59000000D01*
X146987037Y-58823373D01*
X147038557Y-58653534D01*
X147122222Y-58497009D01*
X147151552Y-58461271D01*
X147234814Y-58359814D01*
X147336271Y-58276552D01*
X147372009Y-58247222D01*
X147528534Y-58163557D01*
X147698373Y-58112037D01*
X147764557Y-58105519D01*
X147830740Y-58099000D01*
X148169260Y-58099000D01*
X148235443Y-58105519D01*
G37*
G36*
X139235443Y-58105519D02*
G01*
X139301627Y-58112037D01*
X139471466Y-58163557D01*
X139627991Y-58247222D01*
X139663729Y-58276552D01*
X139765186Y-58359814D01*
X139848448Y-58461271D01*
X139877778Y-58497009D01*
X139961443Y-58653534D01*
X140012963Y-58823373D01*
X140030359Y-59000000D01*
X140012963Y-59176627D01*
X139961443Y-59346466D01*
X139877778Y-59502991D01*
X139848448Y-59538729D01*
X139765186Y-59640186D01*
X139663729Y-59723448D01*
X139627991Y-59752778D01*
X139471466Y-59836443D01*
X139301627Y-59887963D01*
X139235443Y-59894481D01*
X139169260Y-59901000D01*
X138830740Y-59901000D01*
X138764557Y-59894481D01*
X138698373Y-59887963D01*
X138528534Y-59836443D01*
X138372009Y-59752778D01*
X138336271Y-59723448D01*
X138234814Y-59640186D01*
X138151552Y-59538729D01*
X138122222Y-59502991D01*
X138038557Y-59346466D01*
X137987037Y-59176627D01*
X137969641Y-59000000D01*
X137987037Y-58823373D01*
X138038557Y-58653534D01*
X138122222Y-58497009D01*
X138151552Y-58461271D01*
X138234814Y-58359814D01*
X138336271Y-58276552D01*
X138372009Y-58247222D01*
X138528534Y-58163557D01*
X138698373Y-58112037D01*
X138764557Y-58105519D01*
X138830740Y-58099000D01*
X139169260Y-58099000D01*
X139235443Y-58105519D01*
G37*
G36*
X121883600Y-55602989D02*
G01*
X121916652Y-55613015D01*
X121947103Y-55629292D01*
X121973799Y-55651201D01*
X121995708Y-55677897D01*
X122011985Y-55708348D01*
X122022011Y-55741400D01*
X122026000Y-55781903D01*
X122026000Y-57218097D01*
X122022011Y-57258600D01*
X122011985Y-57291652D01*
X121995708Y-57322103D01*
X121973799Y-57348799D01*
X121947103Y-57370708D01*
X121916652Y-57386985D01*
X121883600Y-57397011D01*
X121843097Y-57401000D01*
X120156903Y-57401000D01*
X120116400Y-57397011D01*
X120083348Y-57386985D01*
X120052897Y-57370708D01*
X120026201Y-57348799D01*
X120004292Y-57322103D01*
X119988015Y-57291652D01*
X119977989Y-57258600D01*
X119974000Y-57218097D01*
X119974000Y-55781903D01*
X119977989Y-55741400D01*
X119988015Y-55708348D01*
X120004292Y-55677897D01*
X120026201Y-55651201D01*
X120052897Y-55629292D01*
X120083348Y-55613015D01*
X120116400Y-55602989D01*
X120156903Y-55599000D01*
X121843097Y-55599000D01*
X121883600Y-55602989D01*
G37*
G36*
X130883600Y-55602989D02*
G01*
X130916652Y-55613015D01*
X130947103Y-55629292D01*
X130973799Y-55651201D01*
X130995708Y-55677897D01*
X131011985Y-55708348D01*
X131022011Y-55741400D01*
X131026000Y-55781903D01*
X131026000Y-57218097D01*
X131022011Y-57258600D01*
X131011985Y-57291652D01*
X130995708Y-57322103D01*
X130973799Y-57348799D01*
X130947103Y-57370708D01*
X130916652Y-57386985D01*
X130883600Y-57397011D01*
X130843097Y-57401000D01*
X129156903Y-57401000D01*
X129116400Y-57397011D01*
X129083348Y-57386985D01*
X129052897Y-57370708D01*
X129026201Y-57348799D01*
X129004292Y-57322103D01*
X128988015Y-57291652D01*
X128977989Y-57258600D01*
X128974000Y-57218097D01*
X128974000Y-55781903D01*
X128977989Y-55741400D01*
X128988015Y-55708348D01*
X129004292Y-55677897D01*
X129026201Y-55651201D01*
X129052897Y-55629292D01*
X129083348Y-55613015D01*
X129116400Y-55602989D01*
X129156903Y-55599000D01*
X130843097Y-55599000D01*
X130883600Y-55602989D01*
G37*
G36*
X148883600Y-55602989D02*
G01*
X148916652Y-55613015D01*
X148947103Y-55629292D01*
X148973799Y-55651201D01*
X148995708Y-55677897D01*
X149011985Y-55708348D01*
X149022011Y-55741400D01*
X149026000Y-55781903D01*
X149026000Y-57218097D01*
X149022011Y-57258600D01*
X149011985Y-57291652D01*
X148995708Y-57322103D01*
X148973799Y-57348799D01*
X148947103Y-57370708D01*
X148916652Y-57386985D01*
X148883600Y-57397011D01*
X148843097Y-57401000D01*
X147156903Y-57401000D01*
X147116400Y-57397011D01*
X147083348Y-57386985D01*
X147052897Y-57370708D01*
X147026201Y-57348799D01*
X147004292Y-57322103D01*
X146988015Y-57291652D01*
X146977989Y-57258600D01*
X146974000Y-57218097D01*
X146974000Y-55781903D01*
X146977989Y-55741400D01*
X146988015Y-55708348D01*
X147004292Y-55677897D01*
X147026201Y-55651201D01*
X147052897Y-55629292D01*
X147083348Y-55613015D01*
X147116400Y-55602989D01*
X147156903Y-55599000D01*
X148843097Y-55599000D01*
X148883600Y-55602989D01*
G37*
G36*
X139883600Y-55602989D02*
G01*
X139916652Y-55613015D01*
X139947103Y-55629292D01*
X139973799Y-55651201D01*
X139995708Y-55677897D01*
X140011985Y-55708348D01*
X140022011Y-55741400D01*
X140026000Y-55781903D01*
X140026000Y-57218097D01*
X140022011Y-57258600D01*
X140011985Y-57291652D01*
X139995708Y-57322103D01*
X139973799Y-57348799D01*
X139947103Y-57370708D01*
X139916652Y-57386985D01*
X139883600Y-57397011D01*
X139843097Y-57401000D01*
X138156903Y-57401000D01*
X138116400Y-57397011D01*
X138083348Y-57386985D01*
X138052897Y-57370708D01*
X138026201Y-57348799D01*
X138004292Y-57322103D01*
X137988015Y-57291652D01*
X137977989Y-57258600D01*
X137974000Y-57218097D01*
X137974000Y-55781903D01*
X137977989Y-55741400D01*
X137988015Y-55708348D01*
X138004292Y-55677897D01*
X138026201Y-55651201D01*
X138052897Y-55629292D01*
X138083348Y-55613015D01*
X138116400Y-55602989D01*
X138156903Y-55599000D01*
X139843097Y-55599000D01*
X139883600Y-55602989D01*
G37*
G36*
X112883600Y-55602989D02*
G01*
X112916652Y-55613015D01*
X112947103Y-55629292D01*
X112973799Y-55651201D01*
X112995708Y-55677897D01*
X113011985Y-55708348D01*
X113022011Y-55741400D01*
X113026000Y-55781903D01*
X113026000Y-57218097D01*
X113022011Y-57258600D01*
X113011985Y-57291652D01*
X112995708Y-57322103D01*
X112973799Y-57348799D01*
X112947103Y-57370708D01*
X112916652Y-57386985D01*
X112883600Y-57397011D01*
X112843097Y-57401000D01*
X111156903Y-57401000D01*
X111116400Y-57397011D01*
X111083348Y-57386985D01*
X111052897Y-57370708D01*
X111026201Y-57348799D01*
X111004292Y-57322103D01*
X110988015Y-57291652D01*
X110977989Y-57258600D01*
X110974000Y-57218097D01*
X110974000Y-55781903D01*
X110977989Y-55741400D01*
X110988015Y-55708348D01*
X111004292Y-55677897D01*
X111026201Y-55651201D01*
X111052897Y-55629292D01*
X111083348Y-55613015D01*
X111116400Y-55602989D01*
X111156903Y-55599000D01*
X112843097Y-55599000D01*
X112883600Y-55602989D01*
G37*
G36*
X156634239Y-50811467D02*
G01*
X156948282Y-50873934D01*
X157539926Y-51119001D01*
X158072392Y-51474784D01*
X158525216Y-51927608D01*
X158880999Y-52460074D01*
X159126066Y-53051718D01*
X159126066Y-53051719D01*
X159251000Y-53679803D01*
X159251000Y-54320197D01*
X159188533Y-54634239D01*
X159126066Y-54948282D01*
X158880999Y-55539926D01*
X158525216Y-56072392D01*
X158072392Y-56525216D01*
X157539926Y-56880999D01*
X156948282Y-57126066D01*
X156898340Y-57136000D01*
X156320197Y-57251000D01*
X155679803Y-57251000D01*
X155101660Y-57136000D01*
X155051718Y-57126066D01*
X154460074Y-56880999D01*
X153927608Y-56525216D01*
X153474784Y-56072392D01*
X153119001Y-55539926D01*
X152873934Y-54948282D01*
X152811467Y-54634239D01*
X152749000Y-54320197D01*
X152749000Y-53679803D01*
X152873934Y-53051719D01*
X152873934Y-53051718D01*
X153119001Y-52460074D01*
X153474784Y-51927608D01*
X153927608Y-51474784D01*
X154460074Y-51119001D01*
X155051718Y-50873934D01*
X155365761Y-50811467D01*
X155679803Y-50749000D01*
X156320197Y-50749000D01*
X156634239Y-50811467D01*
G37*
G36*
X104634239Y-50811467D02*
G01*
X104948282Y-50873934D01*
X105539926Y-51119001D01*
X106072392Y-51474784D01*
X106525216Y-51927608D01*
X106880999Y-52460074D01*
X107126066Y-53051718D01*
X107126066Y-53051719D01*
X107251000Y-53679803D01*
X107251000Y-54320197D01*
X107188533Y-54634239D01*
X107126066Y-54948282D01*
X106880999Y-55539926D01*
X106525216Y-56072392D01*
X106072392Y-56525216D01*
X105539926Y-56880999D01*
X104948282Y-57126066D01*
X104898340Y-57136000D01*
X104320197Y-57251000D01*
X103679803Y-57251000D01*
X103101660Y-57136000D01*
X103051718Y-57126066D01*
X102460074Y-56880999D01*
X101927608Y-56525216D01*
X101474784Y-56072392D01*
X101119001Y-55539926D01*
X100873934Y-54948282D01*
X100811467Y-54634239D01*
X100749000Y-54320197D01*
X100749000Y-53679803D01*
X100873934Y-53051719D01*
X100873934Y-53051718D01*
X101119001Y-52460074D01*
X101474784Y-51927608D01*
X101927608Y-51474784D01*
X102460074Y-51119001D01*
X103051718Y-50873934D01*
X103365761Y-50811467D01*
X103679803Y-50749000D01*
X104320197Y-50749000D01*
X104634239Y-50811467D01*
G37*
M02*
