M48
; DRILL file {KiCad (5.1.5)-3} date 2020/3/29 19:39:24
; FORMAT={-:-/ absolute / metric / decimal}
; #@! TF.CreationDate,2020-03-29T19:39:24+08:00
; #@! TF.GenerationSoftware,Kicad,Pcbnew,(5.1.5)-3
; #@! TF.FileFunction,Plated,1,2,PTH
FMAT,2
METRIC
T1C0.500
T2C0.800
T3C0.900
T4C0.950
T5C1.000
T6C1.100
T7C1.400
T8C1.600
T9C3.100
T10C3.200
%
G90
G05
T1
X163.6Y-44.0
X164.303Y-42.303
X164.303Y-45.697
X166.0Y-41.6
X166.0Y-46.4
X167.697Y-42.303
X167.697Y-45.697
X168.4Y-44.0
X111.6Y-44.0
X112.303Y-42.303
X112.303Y-45.697
X114.0Y-41.6
X114.0Y-46.4
X115.697Y-42.303
X115.697Y-45.697
X116.4Y-44.0
T2
X135.89Y-85.09
X135.89Y-87.63
X135.89Y-90.17
X143.51Y-85.09
X143.51Y-87.63
X143.51Y-90.17
X152.4Y-92.71
X162.56Y-92.71
X116.84Y-92.71
X127.0Y-92.71
T3
X124.46Y-78.74
X127.0Y-50.8
X127.0Y-57.15
X133.35Y-50.8
X133.35Y-58.42
X133.35Y-69.85
X133.35Y-82.55
X139.7Y-50.8
X139.7Y-58.42
X139.7Y-63.5
X139.7Y-69.85
X139.7Y-76.2
X139.7Y-82.55
X146.05Y-50.8
X146.05Y-58.42
X146.05Y-69.85
X146.05Y-82.55
X152.4Y-50.8
X152.4Y-57.15
X157.48Y-78.74
X141.51Y-96.52
X149.13Y-96.52
X118.84Y-96.52
X126.46Y-96.52
X152.94Y-96.52
X160.56Y-96.52
X130.27Y-96.52
X137.89Y-96.52
T4
X154.94Y-45.72
X157.44Y-45.72
X159.94Y-45.72
X119.38Y-45.72
X121.88Y-45.72
X124.38Y-45.72
T5
X143.51Y-76.2
X148.51Y-76.2
X118.19Y-57.15
X123.19Y-57.15
X130.81Y-63.5
X135.81Y-63.5
X156.21Y-57.15
X161.21Y-57.15
X118.19Y-69.85
X123.19Y-69.85
X143.51Y-63.5
X148.51Y-63.5
X130.81Y-76.2
X135.81Y-76.2
X156.163Y-69.85
X161.163Y-69.85
T6
X116.84Y-85.09
X119.38Y-85.09
X121.92Y-85.09
X157.48Y-85.09
X160.02Y-85.09
X162.56Y-85.09
T7
X134.78Y-46.99
X139.86Y-46.99
X144.94Y-46.99
T8
X132.08Y-54.61
X137.16Y-54.61
X142.24Y-54.61
X147.32Y-54.61
T9
X114.0Y-96.0
X166.0Y-96.0
T10
X166.0Y-44.0
X114.0Y-44.0
T0
M30
