G04 #@! TF.GenerationSoftware,KiCad,Pcbnew,(5.1.5)-3*
G04 #@! TF.CreationDate,2020-03-29T19:39:18+08:00*
G04 #@! TF.ProjectId,317337,33313733-3337-42e6-9b69-6361645f7063,rev?*
G04 #@! TF.SameCoordinates,Original*
G04 #@! TF.FileFunction,Legend,Top*
G04 #@! TF.FilePolarity,Positive*
%FSLAX46Y46*%
G04 Gerber Fmt 4.6, Leading zero omitted, Abs format (unit mm)*
G04 Created by KiCad (PCBNEW (5.1.5)-3) date 2020-03-29 19:39:18*
%MOMM*%
%LPD*%
G04 APERTURE LIST*
%ADD10C,0.150000*%
%ADD11C,0.120000*%
%ADD12O,1.702000X1.702000*%
%ADD13C,1.702000*%
%ADD14C,6.502000*%
%ADD15C,0.902000*%
%ADD16O,1.902000X1.902000*%
%ADD17R,1.902000X1.902000*%
%ADD18O,1.802000X2.052000*%
%ADD19C,0.100000*%
%ADD20O,2.182000X3.702000*%
%ADD21C,2.102000*%
%ADD22R,2.102000X2.102000*%
%ADD23O,2.007000X2.102000*%
%ADD24R,2.007000X2.102000*%
%ADD25C,1.542000*%
%ADD26R,3.302000X3.302000*%
%ADD27C,3.302000*%
G04 APERTURE END LIST*
D10*
X141239142Y-91787142D02*
X141882000Y-91787142D01*
X142010571Y-91830000D01*
X142096285Y-91915714D01*
X142139142Y-92044285D01*
X142139142Y-92130000D01*
X142139142Y-90930000D02*
X142139142Y-91358571D01*
X141239142Y-91358571D01*
X142053428Y-90115714D02*
X142096285Y-90158571D01*
X142139142Y-90287142D01*
X142139142Y-90372857D01*
X142096285Y-90501428D01*
X142010571Y-90587142D01*
X141924857Y-90630000D01*
X141753428Y-90672857D01*
X141624857Y-90672857D01*
X141453428Y-90630000D01*
X141367714Y-90587142D01*
X141282000Y-90501428D01*
X141239142Y-90372857D01*
X141239142Y-90287142D01*
X141282000Y-90158571D01*
X141324857Y-90115714D01*
X141239142Y-89472857D02*
X141882000Y-89472857D01*
X142010571Y-89515714D01*
X142096285Y-89601428D01*
X142139142Y-89730000D01*
X142139142Y-89815714D01*
X142139142Y-88615714D02*
X142139142Y-89044285D01*
X141239142Y-89044285D01*
X142053428Y-87801428D02*
X142096285Y-87844285D01*
X142139142Y-87972857D01*
X142139142Y-88058571D01*
X142096285Y-88187142D01*
X142010571Y-88272857D01*
X141924857Y-88315714D01*
X141753428Y-88358571D01*
X141624857Y-88358571D01*
X141453428Y-88315714D01*
X141367714Y-88272857D01*
X141282000Y-88187142D01*
X141239142Y-88058571D01*
X141239142Y-87972857D01*
X141282000Y-87844285D01*
X141324857Y-87801428D01*
X141239142Y-87158571D02*
X141882000Y-87158571D01*
X142010571Y-87201428D01*
X142096285Y-87287142D01*
X142139142Y-87415714D01*
X142139142Y-87501428D01*
X142139142Y-86301428D02*
X142139142Y-86730000D01*
X141239142Y-86730000D01*
X142053428Y-85487142D02*
X142096285Y-85530000D01*
X142139142Y-85658571D01*
X142139142Y-85744285D01*
X142096285Y-85872857D01*
X142010571Y-85958571D01*
X141924857Y-86001428D01*
X141753428Y-86044285D01*
X141624857Y-86044285D01*
X141453428Y-86001428D01*
X141367714Y-85958571D01*
X141282000Y-85872857D01*
X141239142Y-85744285D01*
X141239142Y-85658571D01*
X141282000Y-85530000D01*
X141324857Y-85487142D01*
X141239142Y-84844285D02*
X141882000Y-84844285D01*
X142010571Y-84887142D01*
X142096285Y-84972857D01*
X142139142Y-85101428D01*
X142139142Y-85187142D01*
X142139142Y-83987142D02*
X142139142Y-84415714D01*
X141239142Y-84415714D01*
X142053428Y-83172857D02*
X142096285Y-83215714D01*
X142139142Y-83344285D01*
X142139142Y-83430000D01*
X142096285Y-83558571D01*
X142010571Y-83644285D01*
X141924857Y-83687142D01*
X141753428Y-83730000D01*
X141624857Y-83730000D01*
X141453428Y-83687142D01*
X141367714Y-83644285D01*
X141282000Y-83558571D01*
X141239142Y-83430000D01*
X141239142Y-83344285D01*
X141282000Y-83215714D01*
X141324857Y-83172857D01*
X116673809Y-63047619D02*
X116721428Y-63000000D01*
X116816666Y-62952380D01*
X117054761Y-62952380D01*
X117150000Y-63000000D01*
X117197619Y-63047619D01*
X117245238Y-63142857D01*
X117245238Y-63238095D01*
X117197619Y-63380952D01*
X116626190Y-63952380D01*
X117245238Y-63952380D01*
X118150000Y-62952380D02*
X117673809Y-62952380D01*
X117626190Y-63428571D01*
X117673809Y-63380952D01*
X117769047Y-63333333D01*
X118007142Y-63333333D01*
X118102380Y-63380952D01*
X118150000Y-63428571D01*
X118197619Y-63523809D01*
X118197619Y-63761904D01*
X118150000Y-63857142D01*
X118102380Y-63904761D01*
X118007142Y-63952380D01*
X117769047Y-63952380D01*
X117673809Y-63904761D01*
X117626190Y-63857142D01*
X118483333Y-62952380D02*
X118816666Y-63952380D01*
X119150000Y-62952380D01*
X120007142Y-63952380D02*
X119435714Y-63952380D01*
X119721428Y-63952380D02*
X119721428Y-62952380D01*
X119626190Y-63095238D01*
X119530952Y-63190476D01*
X119435714Y-63238095D01*
X120626190Y-62952380D02*
X120721428Y-62952380D01*
X120816666Y-63000000D01*
X120864285Y-63047619D01*
X120911904Y-63142857D01*
X120959523Y-63333333D01*
X120959523Y-63571428D01*
X120911904Y-63761904D01*
X120864285Y-63857142D01*
X120816666Y-63904761D01*
X120721428Y-63952380D01*
X120626190Y-63952380D01*
X120530952Y-63904761D01*
X120483333Y-63857142D01*
X120435714Y-63761904D01*
X120388095Y-63571428D01*
X120388095Y-63333333D01*
X120435714Y-63142857D01*
X120483333Y-63047619D01*
X120530952Y-63000000D01*
X120626190Y-62952380D01*
X121578571Y-62952380D02*
X121673809Y-62952380D01*
X121769047Y-63000000D01*
X121816666Y-63047619D01*
X121864285Y-63142857D01*
X121911904Y-63333333D01*
X121911904Y-63571428D01*
X121864285Y-63761904D01*
X121816666Y-63857142D01*
X121769047Y-63904761D01*
X121673809Y-63952380D01*
X121578571Y-63952380D01*
X121483333Y-63904761D01*
X121435714Y-63857142D01*
X121388095Y-63761904D01*
X121340476Y-63571428D01*
X121340476Y-63333333D01*
X121388095Y-63142857D01*
X121435714Y-63047619D01*
X121483333Y-63000000D01*
X121578571Y-62952380D01*
X122530952Y-62952380D02*
X122626190Y-62952380D01*
X122721428Y-63000000D01*
X122769047Y-63047619D01*
X122816666Y-63142857D01*
X122864285Y-63333333D01*
X122864285Y-63571428D01*
X122816666Y-63761904D01*
X122769047Y-63857142D01*
X122721428Y-63904761D01*
X122626190Y-63952380D01*
X122530952Y-63952380D01*
X122435714Y-63904761D01*
X122388095Y-63857142D01*
X122340476Y-63761904D01*
X122292857Y-63571428D01*
X122292857Y-63333333D01*
X122340476Y-63142857D01*
X122388095Y-63047619D01*
X122435714Y-63000000D01*
X122530952Y-62952380D01*
X123721428Y-63285714D02*
X123721428Y-63952380D01*
X123292857Y-63285714D02*
X123292857Y-63809523D01*
X123340476Y-63904761D01*
X123435714Y-63952380D01*
X123578571Y-63952380D01*
X123673809Y-63904761D01*
X123721428Y-63857142D01*
X124530952Y-63428571D02*
X124197619Y-63428571D01*
X124197619Y-63952380D02*
X124197619Y-62952380D01*
X124673809Y-62952380D01*
X154773809Y-63047619D02*
X154821428Y-63000000D01*
X154916666Y-62952380D01*
X155154761Y-62952380D01*
X155250000Y-63000000D01*
X155297619Y-63047619D01*
X155345238Y-63142857D01*
X155345238Y-63238095D01*
X155297619Y-63380952D01*
X154726190Y-63952380D01*
X155345238Y-63952380D01*
X156250000Y-62952380D02*
X155773809Y-62952380D01*
X155726190Y-63428571D01*
X155773809Y-63380952D01*
X155869047Y-63333333D01*
X156107142Y-63333333D01*
X156202380Y-63380952D01*
X156250000Y-63428571D01*
X156297619Y-63523809D01*
X156297619Y-63761904D01*
X156250000Y-63857142D01*
X156202380Y-63904761D01*
X156107142Y-63952380D01*
X155869047Y-63952380D01*
X155773809Y-63904761D01*
X155726190Y-63857142D01*
X156583333Y-62952380D02*
X156916666Y-63952380D01*
X157250000Y-62952380D01*
X158107142Y-63952380D02*
X157535714Y-63952380D01*
X157821428Y-63952380D02*
X157821428Y-62952380D01*
X157726190Y-63095238D01*
X157630952Y-63190476D01*
X157535714Y-63238095D01*
X158726190Y-62952380D02*
X158821428Y-62952380D01*
X158916666Y-63000000D01*
X158964285Y-63047619D01*
X159011904Y-63142857D01*
X159059523Y-63333333D01*
X159059523Y-63571428D01*
X159011904Y-63761904D01*
X158964285Y-63857142D01*
X158916666Y-63904761D01*
X158821428Y-63952380D01*
X158726190Y-63952380D01*
X158630952Y-63904761D01*
X158583333Y-63857142D01*
X158535714Y-63761904D01*
X158488095Y-63571428D01*
X158488095Y-63333333D01*
X158535714Y-63142857D01*
X158583333Y-63047619D01*
X158630952Y-63000000D01*
X158726190Y-62952380D01*
X159678571Y-62952380D02*
X159773809Y-62952380D01*
X159869047Y-63000000D01*
X159916666Y-63047619D01*
X159964285Y-63142857D01*
X160011904Y-63333333D01*
X160011904Y-63571428D01*
X159964285Y-63761904D01*
X159916666Y-63857142D01*
X159869047Y-63904761D01*
X159773809Y-63952380D01*
X159678571Y-63952380D01*
X159583333Y-63904761D01*
X159535714Y-63857142D01*
X159488095Y-63761904D01*
X159440476Y-63571428D01*
X159440476Y-63333333D01*
X159488095Y-63142857D01*
X159535714Y-63047619D01*
X159583333Y-63000000D01*
X159678571Y-62952380D01*
X160630952Y-62952380D02*
X160726190Y-62952380D01*
X160821428Y-63000000D01*
X160869047Y-63047619D01*
X160916666Y-63142857D01*
X160964285Y-63333333D01*
X160964285Y-63571428D01*
X160916666Y-63761904D01*
X160869047Y-63857142D01*
X160821428Y-63904761D01*
X160726190Y-63952380D01*
X160630952Y-63952380D01*
X160535714Y-63904761D01*
X160488095Y-63857142D01*
X160440476Y-63761904D01*
X160392857Y-63571428D01*
X160392857Y-63333333D01*
X160440476Y-63142857D01*
X160488095Y-63047619D01*
X160535714Y-63000000D01*
X160630952Y-62952380D01*
X161821428Y-63285714D02*
X161821428Y-63952380D01*
X161392857Y-63285714D02*
X161392857Y-63809523D01*
X161440476Y-63904761D01*
X161535714Y-63952380D01*
X161678571Y-63952380D01*
X161773809Y-63904761D01*
X161821428Y-63857142D01*
X162630952Y-63428571D02*
X162297619Y-63428571D01*
X162297619Y-63952380D02*
X162297619Y-62952380D01*
X162773809Y-62952380D01*
X158329523Y-81478380D02*
X157853333Y-81478380D01*
X157853333Y-80478380D01*
X158662857Y-81478380D02*
X158662857Y-80478380D01*
X158996190Y-81192666D01*
X159329523Y-80478380D01*
X159329523Y-81478380D01*
X159710476Y-80478380D02*
X160329523Y-80478380D01*
X159996190Y-80859333D01*
X160139047Y-80859333D01*
X160234285Y-80906952D01*
X160281904Y-80954571D01*
X160329523Y-81049809D01*
X160329523Y-81287904D01*
X160281904Y-81383142D01*
X160234285Y-81430761D01*
X160139047Y-81478380D01*
X159853333Y-81478380D01*
X159758095Y-81430761D01*
X159710476Y-81383142D01*
X160662857Y-80478380D02*
X161281904Y-80478380D01*
X160948571Y-80859333D01*
X161091428Y-80859333D01*
X161186666Y-80906952D01*
X161234285Y-80954571D01*
X161281904Y-81049809D01*
X161281904Y-81287904D01*
X161234285Y-81383142D01*
X161186666Y-81430761D01*
X161091428Y-81478380D01*
X160805714Y-81478380D01*
X160710476Y-81430761D01*
X160662857Y-81383142D01*
X161615238Y-80478380D02*
X162281904Y-80478380D01*
X161853333Y-81478380D01*
X117689523Y-81478380D02*
X117213333Y-81478380D01*
X117213333Y-80478380D01*
X118022857Y-81478380D02*
X118022857Y-80478380D01*
X118356190Y-81192666D01*
X118689523Y-80478380D01*
X118689523Y-81478380D01*
X119070476Y-80478380D02*
X119689523Y-80478380D01*
X119356190Y-80859333D01*
X119499047Y-80859333D01*
X119594285Y-80906952D01*
X119641904Y-80954571D01*
X119689523Y-81049809D01*
X119689523Y-81287904D01*
X119641904Y-81383142D01*
X119594285Y-81430761D01*
X119499047Y-81478380D01*
X119213333Y-81478380D01*
X119118095Y-81430761D01*
X119070476Y-81383142D01*
X120641904Y-81478380D02*
X120070476Y-81478380D01*
X120356190Y-81478380D02*
X120356190Y-80478380D01*
X120260952Y-80621238D01*
X120165714Y-80716476D01*
X120070476Y-80764095D01*
X120975238Y-80478380D02*
X121641904Y-80478380D01*
X121213333Y-81478380D01*
X117507285Y-41743380D02*
X117840619Y-42743380D01*
X118173952Y-41743380D01*
X118507285Y-42362428D02*
X119269190Y-42362428D01*
X118888238Y-42743380D02*
X118888238Y-41981476D01*
X121031095Y-41791000D02*
X120935857Y-41743380D01*
X120793000Y-41743380D01*
X120650142Y-41791000D01*
X120554904Y-41886238D01*
X120507285Y-41981476D01*
X120459666Y-42171952D01*
X120459666Y-42314809D01*
X120507285Y-42505285D01*
X120554904Y-42600523D01*
X120650142Y-42695761D01*
X120793000Y-42743380D01*
X120888238Y-42743380D01*
X121031095Y-42695761D01*
X121078714Y-42648142D01*
X121078714Y-42314809D01*
X120888238Y-42314809D01*
X121507285Y-42743380D02*
X121507285Y-41743380D01*
X122078714Y-42743380D01*
X122078714Y-41743380D01*
X122554904Y-42743380D02*
X122554904Y-41743380D01*
X122793000Y-41743380D01*
X122935857Y-41791000D01*
X123031095Y-41886238D01*
X123078714Y-41981476D01*
X123126333Y-42171952D01*
X123126333Y-42314809D01*
X123078714Y-42505285D01*
X123031095Y-42600523D01*
X122935857Y-42695761D01*
X122793000Y-42743380D01*
X122554904Y-42743380D01*
X124173952Y-41743380D02*
X124507285Y-42743380D01*
X124840619Y-41743380D01*
X125173952Y-42362428D02*
X125935857Y-42362428D01*
X153067285Y-41743380D02*
X153400619Y-42743380D01*
X153733952Y-41743380D01*
X154067285Y-42362428D02*
X154829190Y-42362428D01*
X154448238Y-42743380D02*
X154448238Y-41981476D01*
X156591095Y-41791000D02*
X156495857Y-41743380D01*
X156353000Y-41743380D01*
X156210142Y-41791000D01*
X156114904Y-41886238D01*
X156067285Y-41981476D01*
X156019666Y-42171952D01*
X156019666Y-42314809D01*
X156067285Y-42505285D01*
X156114904Y-42600523D01*
X156210142Y-42695761D01*
X156353000Y-42743380D01*
X156448238Y-42743380D01*
X156591095Y-42695761D01*
X156638714Y-42648142D01*
X156638714Y-42314809D01*
X156448238Y-42314809D01*
X157067285Y-42743380D02*
X157067285Y-41743380D01*
X157638714Y-42743380D01*
X157638714Y-41743380D01*
X158114904Y-42743380D02*
X158114904Y-41743380D01*
X158353000Y-41743380D01*
X158495857Y-41791000D01*
X158591095Y-41886238D01*
X158638714Y-41981476D01*
X158686333Y-42171952D01*
X158686333Y-42314809D01*
X158638714Y-42505285D01*
X158591095Y-42600523D01*
X158495857Y-42695761D01*
X158353000Y-42743380D01*
X158114904Y-42743380D01*
X159733952Y-41743380D02*
X160067285Y-42743380D01*
X160400619Y-41743380D01*
X160733952Y-42362428D02*
X161495857Y-42362428D01*
X134350809Y-41568666D02*
X134827000Y-41568666D01*
X134255571Y-41854380D02*
X134588904Y-40854380D01*
X134922238Y-41854380D01*
X135827000Y-41759142D02*
X135779380Y-41806761D01*
X135636523Y-41854380D01*
X135541285Y-41854380D01*
X135398428Y-41806761D01*
X135303190Y-41711523D01*
X135255571Y-41616285D01*
X135207952Y-41425809D01*
X135207952Y-41282952D01*
X135255571Y-41092476D01*
X135303190Y-40997238D01*
X135398428Y-40902000D01*
X135541285Y-40854380D01*
X135636523Y-40854380D01*
X135779380Y-40902000D01*
X135827000Y-40949619D01*
X139065095Y-40902000D02*
X138969857Y-40854380D01*
X138827000Y-40854380D01*
X138684142Y-40902000D01*
X138588904Y-40997238D01*
X138541285Y-41092476D01*
X138493666Y-41282952D01*
X138493666Y-41425809D01*
X138541285Y-41616285D01*
X138588904Y-41711523D01*
X138684142Y-41806761D01*
X138827000Y-41854380D01*
X138922238Y-41854380D01*
X139065095Y-41806761D01*
X139112714Y-41759142D01*
X139112714Y-41425809D01*
X138922238Y-41425809D01*
X139541285Y-41854380D02*
X139541285Y-40854380D01*
X140112714Y-41854380D01*
X140112714Y-40854380D01*
X140588904Y-41854380D02*
X140588904Y-40854380D01*
X140827000Y-40854380D01*
X140969857Y-40902000D01*
X141065095Y-40997238D01*
X141112714Y-41092476D01*
X141160333Y-41282952D01*
X141160333Y-41425809D01*
X141112714Y-41616285D01*
X141065095Y-41711523D01*
X140969857Y-41806761D01*
X140827000Y-41854380D01*
X140588904Y-41854380D01*
X143827000Y-41568666D02*
X144303190Y-41568666D01*
X143731761Y-41854380D02*
X144065095Y-40854380D01*
X144398428Y-41854380D01*
X145303190Y-41759142D02*
X145255571Y-41806761D01*
X145112714Y-41854380D01*
X145017476Y-41854380D01*
X144874619Y-41806761D01*
X144779380Y-41711523D01*
X144731761Y-41616285D01*
X144684142Y-41425809D01*
X144684142Y-41282952D01*
X144731761Y-41092476D01*
X144779380Y-40997238D01*
X144874619Y-40902000D01*
X145017476Y-40854380D01*
X145112714Y-40854380D01*
X145255571Y-40902000D01*
X145303190Y-40949619D01*
D11*
X111760000Y-87630000D02*
X127000000Y-87630000D01*
X111760000Y-76200000D02*
X111760000Y-87630000D01*
X127000000Y-76200000D02*
X111760000Y-76200000D01*
X127000000Y-87630000D02*
X127000000Y-76200000D01*
X167640000Y-76200000D02*
X152400000Y-76200000D01*
X167640000Y-87630000D02*
X167640000Y-76200000D01*
X152400000Y-87630000D02*
X167640000Y-87630000D01*
X152400000Y-76200000D02*
X152400000Y-87630000D01*
X117880000Y-92710000D02*
X118650000Y-92710000D01*
X125960000Y-92710000D02*
X125190000Y-92710000D01*
X118650000Y-94080000D02*
X125190000Y-94080000D01*
X118650000Y-91340000D02*
X118650000Y-94080000D01*
X125190000Y-91340000D02*
X118650000Y-91340000D01*
X125190000Y-94080000D02*
X125190000Y-91340000D01*
X158690000Y-97990000D02*
X158690000Y-95050000D01*
X158450000Y-97990000D02*
X158450000Y-95050000D01*
X158570000Y-97990000D02*
X158570000Y-95050000D01*
X154030000Y-95050000D02*
X154030000Y-95380000D01*
X159470000Y-95050000D02*
X154030000Y-95050000D01*
X159470000Y-95380000D02*
X159470000Y-95050000D01*
X154030000Y-97990000D02*
X154030000Y-97660000D01*
X159470000Y-97990000D02*
X154030000Y-97990000D01*
X159470000Y-97660000D02*
X159470000Y-97990000D01*
X153440000Y-92710000D02*
X154210000Y-92710000D01*
X161520000Y-92710000D02*
X160750000Y-92710000D01*
X154210000Y-94080000D02*
X160750000Y-94080000D01*
X154210000Y-91340000D02*
X154210000Y-94080000D01*
X160750000Y-91340000D02*
X154210000Y-91340000D01*
X160750000Y-94080000D02*
X160750000Y-91340000D01*
X152090000Y-42970000D02*
X152090000Y-44220000D01*
X153340000Y-42970000D02*
X152090000Y-42970000D01*
X161740000Y-48470000D02*
X157440000Y-48470000D01*
X161740000Y-45520000D02*
X161740000Y-48470000D01*
X162490000Y-45520000D02*
X161740000Y-45520000D01*
X153140000Y-48470000D02*
X157440000Y-48470000D01*
X153140000Y-45520000D02*
X153140000Y-48470000D01*
X152390000Y-45520000D02*
X153140000Y-45520000D01*
X162490000Y-43270000D02*
X160690000Y-43270000D01*
X162490000Y-44020000D02*
X162490000Y-43270000D01*
X160690000Y-44020000D02*
X162490000Y-44020000D01*
X160690000Y-43270000D02*
X160690000Y-44020000D01*
X154190000Y-43270000D02*
X152390000Y-43270000D01*
X154190000Y-44020000D02*
X154190000Y-43270000D01*
X152390000Y-44020000D02*
X154190000Y-44020000D01*
X152390000Y-43270000D02*
X152390000Y-44020000D01*
X159190000Y-43270000D02*
X155690000Y-43270000D01*
X159190000Y-44020000D02*
X159190000Y-43270000D01*
X155690000Y-44020000D02*
X159190000Y-44020000D01*
X155690000Y-43270000D02*
X155690000Y-44020000D01*
X162500000Y-43260000D02*
X152380000Y-43260000D01*
X162500000Y-49230000D02*
X162500000Y-43260000D01*
X152380000Y-49230000D02*
X162500000Y-49230000D01*
X152380000Y-43260000D02*
X152380000Y-49230000D01*
X134480000Y-41280000D02*
X135080000Y-41280000D01*
X134780000Y-41880000D02*
X134480000Y-41280000D01*
X135080000Y-41280000D02*
X134780000Y-41880000D01*
X147680000Y-49190000D02*
X146940000Y-49190000D01*
X147680000Y-43890000D02*
X147680000Y-49190000D01*
X132040000Y-43890000D02*
X147680000Y-43890000D01*
X132040000Y-49190000D02*
X132040000Y-43890000D01*
X132780000Y-49190000D02*
X132040000Y-49190000D01*
X141860000Y-49190000D02*
X142940000Y-49190000D01*
X136780000Y-49190000D02*
X137860000Y-49190000D01*
X145940000Y-43890000D02*
X143940000Y-43890000D01*
X145940000Y-42080000D02*
X145940000Y-43890000D01*
X143940000Y-42080000D02*
X145940000Y-42080000D01*
X143940000Y-43890000D02*
X143940000Y-42080000D01*
X140860000Y-43890000D02*
X138860000Y-43890000D01*
X140860000Y-42080000D02*
X140860000Y-43890000D01*
X138860000Y-42080000D02*
X140860000Y-42080000D01*
X138860000Y-43890000D02*
X138860000Y-42080000D01*
X135780000Y-43890000D02*
X133780000Y-43890000D01*
X135780000Y-42080000D02*
X135780000Y-43890000D01*
X133780000Y-42080000D02*
X135780000Y-42080000D01*
X133780000Y-43890000D02*
X133780000Y-42080000D01*
X140860000Y-42890000D02*
X143940000Y-42890000D01*
X135780000Y-42890000D02*
X138860000Y-42890000D01*
X148590000Y-42890000D02*
X146050000Y-42890000D01*
X131130000Y-42890000D02*
X133670000Y-42890000D01*
X148590000Y-42080000D02*
X131130000Y-42080000D01*
X148590000Y-50900000D02*
X148590000Y-42080000D01*
X131130000Y-50900000D02*
X148590000Y-50900000D01*
X131130000Y-42080000D02*
X131130000Y-50900000D01*
X146926841Y-49205821D02*
G75*
G02X142940000Y-49190000I-1986841J1665821D01*
G01*
X141846841Y-49205821D02*
G75*
G02X137860000Y-49190000I-1986841J1665821D01*
G01*
X136766841Y-49205821D02*
G75*
G02X132780000Y-49190000I-1986841J1665821D01*
G01*
X124590000Y-97990000D02*
X124590000Y-95050000D01*
X124350000Y-97990000D02*
X124350000Y-95050000D01*
X124470000Y-97990000D02*
X124470000Y-95050000D01*
X119930000Y-95050000D02*
X119930000Y-95380000D01*
X125370000Y-95050000D02*
X119930000Y-95050000D01*
X125370000Y-95380000D02*
X125370000Y-95050000D01*
X119930000Y-97990000D02*
X119930000Y-97660000D01*
X125370000Y-97990000D02*
X119930000Y-97990000D01*
X125370000Y-97660000D02*
X125370000Y-97990000D01*
X153683354Y-66475000D02*
X153683354Y-67475000D01*
X153183354Y-66975000D02*
X154183354Y-66975000D01*
X163744000Y-69251000D02*
X163744000Y-70449000D01*
X163704000Y-68988000D02*
X163704000Y-70712000D01*
X163664000Y-68788000D02*
X163664000Y-70912000D01*
X163624000Y-68620000D02*
X163624000Y-71080000D01*
X163584000Y-68472000D02*
X163584000Y-71228000D01*
X163544000Y-68340000D02*
X163544000Y-71360000D01*
X163504000Y-68220000D02*
X163504000Y-71480000D01*
X163464000Y-68108000D02*
X163464000Y-71592000D01*
X163424000Y-68004000D02*
X163424000Y-71696000D01*
X163384000Y-67906000D02*
X163384000Y-71794000D01*
X163344000Y-67813000D02*
X163344000Y-71887000D01*
X163304000Y-67725000D02*
X163304000Y-71975000D01*
X163264000Y-67641000D02*
X163264000Y-72059000D01*
X163224000Y-67561000D02*
X163224000Y-72139000D01*
X163184000Y-67485000D02*
X163184000Y-72215000D01*
X163144000Y-67411000D02*
X163144000Y-72289000D01*
X163104000Y-67340000D02*
X163104000Y-72360000D01*
X163064000Y-67271000D02*
X163064000Y-72429000D01*
X163024000Y-67205000D02*
X163024000Y-72495000D01*
X162984000Y-67141000D02*
X162984000Y-72559000D01*
X162944000Y-67080000D02*
X162944000Y-72620000D01*
X162904000Y-67020000D02*
X162904000Y-72680000D01*
X162864000Y-66961000D02*
X162864000Y-72739000D01*
X162824000Y-66905000D02*
X162824000Y-72795000D01*
X162784000Y-66850000D02*
X162784000Y-72850000D01*
X162744000Y-66796000D02*
X162744000Y-72904000D01*
X162704000Y-66744000D02*
X162704000Y-72956000D01*
X162664000Y-66694000D02*
X162664000Y-73006000D01*
X162624000Y-66644000D02*
X162624000Y-73056000D01*
X162584000Y-66596000D02*
X162584000Y-73104000D01*
X162544000Y-66549000D02*
X162544000Y-73151000D01*
X162504000Y-66503000D02*
X162504000Y-73197000D01*
X162464000Y-66458000D02*
X162464000Y-73242000D01*
X162424000Y-66414000D02*
X162424000Y-73286000D01*
X162384000Y-71091000D02*
X162384000Y-73328000D01*
X162384000Y-66372000D02*
X162384000Y-68609000D01*
X162344000Y-71091000D02*
X162344000Y-73370000D01*
X162344000Y-66330000D02*
X162344000Y-68609000D01*
X162304000Y-71091000D02*
X162304000Y-73411000D01*
X162304000Y-66289000D02*
X162304000Y-68609000D01*
X162264000Y-71091000D02*
X162264000Y-73451000D01*
X162264000Y-66249000D02*
X162264000Y-68609000D01*
X162224000Y-71091000D02*
X162224000Y-73490000D01*
X162224000Y-66210000D02*
X162224000Y-68609000D01*
X162184000Y-71091000D02*
X162184000Y-73529000D01*
X162184000Y-66171000D02*
X162184000Y-68609000D01*
X162144000Y-71091000D02*
X162144000Y-73566000D01*
X162144000Y-66134000D02*
X162144000Y-68609000D01*
X162104000Y-71091000D02*
X162104000Y-73603000D01*
X162104000Y-66097000D02*
X162104000Y-68609000D01*
X162064000Y-71091000D02*
X162064000Y-73639000D01*
X162064000Y-66061000D02*
X162064000Y-68609000D01*
X162024000Y-71091000D02*
X162024000Y-73674000D01*
X162024000Y-66026000D02*
X162024000Y-68609000D01*
X161984000Y-71091000D02*
X161984000Y-73708000D01*
X161984000Y-65992000D02*
X161984000Y-68609000D01*
X161944000Y-71091000D02*
X161944000Y-73742000D01*
X161944000Y-65958000D02*
X161944000Y-68609000D01*
X161904000Y-71091000D02*
X161904000Y-73775000D01*
X161904000Y-65925000D02*
X161904000Y-68609000D01*
X161864000Y-71091000D02*
X161864000Y-73807000D01*
X161864000Y-65893000D02*
X161864000Y-68609000D01*
X161824000Y-71091000D02*
X161824000Y-73839000D01*
X161824000Y-65861000D02*
X161824000Y-68609000D01*
X161784000Y-71091000D02*
X161784000Y-73870000D01*
X161784000Y-65830000D02*
X161784000Y-68609000D01*
X161744000Y-71091000D02*
X161744000Y-73900000D01*
X161744000Y-65800000D02*
X161744000Y-68609000D01*
X161704000Y-71091000D02*
X161704000Y-73930000D01*
X161704000Y-65770000D02*
X161704000Y-68609000D01*
X161664000Y-71091000D02*
X161664000Y-73960000D01*
X161664000Y-65740000D02*
X161664000Y-68609000D01*
X161624000Y-71091000D02*
X161624000Y-73988000D01*
X161624000Y-65712000D02*
X161624000Y-68609000D01*
X161584000Y-71091000D02*
X161584000Y-74016000D01*
X161584000Y-65684000D02*
X161584000Y-68609000D01*
X161544000Y-71091000D02*
X161544000Y-74044000D01*
X161544000Y-65656000D02*
X161544000Y-68609000D01*
X161504000Y-71091000D02*
X161504000Y-74071000D01*
X161504000Y-65629000D02*
X161504000Y-68609000D01*
X161464000Y-71091000D02*
X161464000Y-74097000D01*
X161464000Y-65603000D02*
X161464000Y-68609000D01*
X161424000Y-71091000D02*
X161424000Y-74123000D01*
X161424000Y-65577000D02*
X161424000Y-68609000D01*
X161384000Y-71091000D02*
X161384000Y-74148000D01*
X161384000Y-65552000D02*
X161384000Y-68609000D01*
X161344000Y-71091000D02*
X161344000Y-74173000D01*
X161344000Y-65527000D02*
X161344000Y-68609000D01*
X161304000Y-71091000D02*
X161304000Y-74197000D01*
X161304000Y-65503000D02*
X161304000Y-68609000D01*
X161264000Y-71091000D02*
X161264000Y-74221000D01*
X161264000Y-65479000D02*
X161264000Y-68609000D01*
X161224000Y-71091000D02*
X161224000Y-74245000D01*
X161224000Y-65455000D02*
X161224000Y-68609000D01*
X161184000Y-71091000D02*
X161184000Y-74267000D01*
X161184000Y-65433000D02*
X161184000Y-68609000D01*
X161144000Y-71091000D02*
X161144000Y-74290000D01*
X161144000Y-65410000D02*
X161144000Y-68609000D01*
X161104000Y-71091000D02*
X161104000Y-74312000D01*
X161104000Y-65388000D02*
X161104000Y-68609000D01*
X161064000Y-71091000D02*
X161064000Y-74333000D01*
X161064000Y-65367000D02*
X161064000Y-68609000D01*
X161024000Y-71091000D02*
X161024000Y-74354000D01*
X161024000Y-65346000D02*
X161024000Y-68609000D01*
X160984000Y-71091000D02*
X160984000Y-74375000D01*
X160984000Y-65325000D02*
X160984000Y-68609000D01*
X160944000Y-71091000D02*
X160944000Y-74395000D01*
X160944000Y-65305000D02*
X160944000Y-68609000D01*
X160904000Y-71091000D02*
X160904000Y-74414000D01*
X160904000Y-65286000D02*
X160904000Y-68609000D01*
X160864000Y-71091000D02*
X160864000Y-74434000D01*
X160864000Y-65266000D02*
X160864000Y-68609000D01*
X160824000Y-71091000D02*
X160824000Y-74453000D01*
X160824000Y-65247000D02*
X160824000Y-68609000D01*
X160784000Y-71091000D02*
X160784000Y-74471000D01*
X160784000Y-65229000D02*
X160784000Y-68609000D01*
X160744000Y-71091000D02*
X160744000Y-74489000D01*
X160744000Y-65211000D02*
X160744000Y-68609000D01*
X160704000Y-71091000D02*
X160704000Y-74507000D01*
X160704000Y-65193000D02*
X160704000Y-68609000D01*
X160664000Y-71091000D02*
X160664000Y-74524000D01*
X160664000Y-65176000D02*
X160664000Y-68609000D01*
X160624000Y-71091000D02*
X160624000Y-74540000D01*
X160624000Y-65160000D02*
X160624000Y-68609000D01*
X160584000Y-71091000D02*
X160584000Y-74557000D01*
X160584000Y-65143000D02*
X160584000Y-68609000D01*
X160544000Y-71091000D02*
X160544000Y-74573000D01*
X160544000Y-65127000D02*
X160544000Y-68609000D01*
X160504000Y-71091000D02*
X160504000Y-74588000D01*
X160504000Y-65112000D02*
X160504000Y-68609000D01*
X160464000Y-71091000D02*
X160464000Y-74604000D01*
X160464000Y-65096000D02*
X160464000Y-68609000D01*
X160424000Y-71091000D02*
X160424000Y-74618000D01*
X160424000Y-65082000D02*
X160424000Y-68609000D01*
X160384000Y-71091000D02*
X160384000Y-74633000D01*
X160384000Y-65067000D02*
X160384000Y-68609000D01*
X160344000Y-71091000D02*
X160344000Y-74647000D01*
X160344000Y-65053000D02*
X160344000Y-68609000D01*
X160304000Y-71091000D02*
X160304000Y-74661000D01*
X160304000Y-65039000D02*
X160304000Y-68609000D01*
X160264000Y-71091000D02*
X160264000Y-74674000D01*
X160264000Y-65026000D02*
X160264000Y-68609000D01*
X160224000Y-71091000D02*
X160224000Y-74687000D01*
X160224000Y-65013000D02*
X160224000Y-68609000D01*
X160184000Y-71091000D02*
X160184000Y-74700000D01*
X160184000Y-65000000D02*
X160184000Y-68609000D01*
X160144000Y-71091000D02*
X160144000Y-74712000D01*
X160144000Y-64988000D02*
X160144000Y-68609000D01*
X160104000Y-71091000D02*
X160104000Y-74724000D01*
X160104000Y-64976000D02*
X160104000Y-68609000D01*
X160064000Y-71091000D02*
X160064000Y-74735000D01*
X160064000Y-64965000D02*
X160064000Y-68609000D01*
X160024000Y-71091000D02*
X160024000Y-74747000D01*
X160024000Y-64953000D02*
X160024000Y-68609000D01*
X159984000Y-71091000D02*
X159984000Y-74757000D01*
X159984000Y-64943000D02*
X159984000Y-68609000D01*
X159944000Y-71091000D02*
X159944000Y-74768000D01*
X159944000Y-64932000D02*
X159944000Y-68609000D01*
X159904000Y-64922000D02*
X159904000Y-74778000D01*
X159864000Y-64912000D02*
X159864000Y-74788000D01*
X159824000Y-64903000D02*
X159824000Y-74797000D01*
X159784000Y-64894000D02*
X159784000Y-74806000D01*
X159744000Y-64885000D02*
X159744000Y-74815000D01*
X159704000Y-64876000D02*
X159704000Y-74824000D01*
X159664000Y-64868000D02*
X159664000Y-74832000D01*
X159624000Y-64860000D02*
X159624000Y-74840000D01*
X159584000Y-64853000D02*
X159584000Y-74847000D01*
X159544000Y-64846000D02*
X159544000Y-74854000D01*
X159504000Y-64839000D02*
X159504000Y-74861000D01*
X159464000Y-64832000D02*
X159464000Y-74868000D01*
X159424000Y-64826000D02*
X159424000Y-74874000D01*
X159384000Y-64820000D02*
X159384000Y-74880000D01*
X159343000Y-64815000D02*
X159343000Y-74885000D01*
X159303000Y-64810000D02*
X159303000Y-74890000D01*
X159263000Y-64805000D02*
X159263000Y-74895000D01*
X159223000Y-64800000D02*
X159223000Y-74900000D01*
X159183000Y-64796000D02*
X159183000Y-74904000D01*
X159143000Y-64792000D02*
X159143000Y-74908000D01*
X159103000Y-64788000D02*
X159103000Y-74912000D01*
X159063000Y-64785000D02*
X159063000Y-74915000D01*
X159023000Y-64782000D02*
X159023000Y-74918000D01*
X158983000Y-64780000D02*
X158983000Y-74920000D01*
X158943000Y-64777000D02*
X158943000Y-74923000D01*
X158903000Y-64775000D02*
X158903000Y-74925000D01*
X158863000Y-64773000D02*
X158863000Y-74927000D01*
X158823000Y-64772000D02*
X158823000Y-74928000D01*
X158783000Y-64771000D02*
X158783000Y-74929000D01*
X158743000Y-64770000D02*
X158743000Y-74930000D01*
X158703000Y-64770000D02*
X158703000Y-74930000D01*
X158663000Y-64770000D02*
X158663000Y-74930000D01*
X163783000Y-69850000D02*
G75*
G03X163783000Y-69850000I-5120000J0D01*
G01*
X115710354Y-66475000D02*
X115710354Y-67475000D01*
X115210354Y-66975000D02*
X116210354Y-66975000D01*
X125771000Y-69251000D02*
X125771000Y-70449000D01*
X125731000Y-68988000D02*
X125731000Y-70712000D01*
X125691000Y-68788000D02*
X125691000Y-70912000D01*
X125651000Y-68620000D02*
X125651000Y-71080000D01*
X125611000Y-68472000D02*
X125611000Y-71228000D01*
X125571000Y-68340000D02*
X125571000Y-71360000D01*
X125531000Y-68220000D02*
X125531000Y-71480000D01*
X125491000Y-68108000D02*
X125491000Y-71592000D01*
X125451000Y-68004000D02*
X125451000Y-71696000D01*
X125411000Y-67906000D02*
X125411000Y-71794000D01*
X125371000Y-67813000D02*
X125371000Y-71887000D01*
X125331000Y-67725000D02*
X125331000Y-71975000D01*
X125291000Y-67641000D02*
X125291000Y-72059000D01*
X125251000Y-67561000D02*
X125251000Y-72139000D01*
X125211000Y-67485000D02*
X125211000Y-72215000D01*
X125171000Y-67411000D02*
X125171000Y-72289000D01*
X125131000Y-67340000D02*
X125131000Y-72360000D01*
X125091000Y-67271000D02*
X125091000Y-72429000D01*
X125051000Y-67205000D02*
X125051000Y-72495000D01*
X125011000Y-67141000D02*
X125011000Y-72559000D01*
X124971000Y-67080000D02*
X124971000Y-72620000D01*
X124931000Y-67020000D02*
X124931000Y-72680000D01*
X124891000Y-66961000D02*
X124891000Y-72739000D01*
X124851000Y-66905000D02*
X124851000Y-72795000D01*
X124811000Y-66850000D02*
X124811000Y-72850000D01*
X124771000Y-66796000D02*
X124771000Y-72904000D01*
X124731000Y-66744000D02*
X124731000Y-72956000D01*
X124691000Y-66694000D02*
X124691000Y-73006000D01*
X124651000Y-66644000D02*
X124651000Y-73056000D01*
X124611000Y-66596000D02*
X124611000Y-73104000D01*
X124571000Y-66549000D02*
X124571000Y-73151000D01*
X124531000Y-66503000D02*
X124531000Y-73197000D01*
X124491000Y-66458000D02*
X124491000Y-73242000D01*
X124451000Y-66414000D02*
X124451000Y-73286000D01*
X124411000Y-71091000D02*
X124411000Y-73328000D01*
X124411000Y-66372000D02*
X124411000Y-68609000D01*
X124371000Y-71091000D02*
X124371000Y-73370000D01*
X124371000Y-66330000D02*
X124371000Y-68609000D01*
X124331000Y-71091000D02*
X124331000Y-73411000D01*
X124331000Y-66289000D02*
X124331000Y-68609000D01*
X124291000Y-71091000D02*
X124291000Y-73451000D01*
X124291000Y-66249000D02*
X124291000Y-68609000D01*
X124251000Y-71091000D02*
X124251000Y-73490000D01*
X124251000Y-66210000D02*
X124251000Y-68609000D01*
X124211000Y-71091000D02*
X124211000Y-73529000D01*
X124211000Y-66171000D02*
X124211000Y-68609000D01*
X124171000Y-71091000D02*
X124171000Y-73566000D01*
X124171000Y-66134000D02*
X124171000Y-68609000D01*
X124131000Y-71091000D02*
X124131000Y-73603000D01*
X124131000Y-66097000D02*
X124131000Y-68609000D01*
X124091000Y-71091000D02*
X124091000Y-73639000D01*
X124091000Y-66061000D02*
X124091000Y-68609000D01*
X124051000Y-71091000D02*
X124051000Y-73674000D01*
X124051000Y-66026000D02*
X124051000Y-68609000D01*
X124011000Y-71091000D02*
X124011000Y-73708000D01*
X124011000Y-65992000D02*
X124011000Y-68609000D01*
X123971000Y-71091000D02*
X123971000Y-73742000D01*
X123971000Y-65958000D02*
X123971000Y-68609000D01*
X123931000Y-71091000D02*
X123931000Y-73775000D01*
X123931000Y-65925000D02*
X123931000Y-68609000D01*
X123891000Y-71091000D02*
X123891000Y-73807000D01*
X123891000Y-65893000D02*
X123891000Y-68609000D01*
X123851000Y-71091000D02*
X123851000Y-73839000D01*
X123851000Y-65861000D02*
X123851000Y-68609000D01*
X123811000Y-71091000D02*
X123811000Y-73870000D01*
X123811000Y-65830000D02*
X123811000Y-68609000D01*
X123771000Y-71091000D02*
X123771000Y-73900000D01*
X123771000Y-65800000D02*
X123771000Y-68609000D01*
X123731000Y-71091000D02*
X123731000Y-73930000D01*
X123731000Y-65770000D02*
X123731000Y-68609000D01*
X123691000Y-71091000D02*
X123691000Y-73960000D01*
X123691000Y-65740000D02*
X123691000Y-68609000D01*
X123651000Y-71091000D02*
X123651000Y-73988000D01*
X123651000Y-65712000D02*
X123651000Y-68609000D01*
X123611000Y-71091000D02*
X123611000Y-74016000D01*
X123611000Y-65684000D02*
X123611000Y-68609000D01*
X123571000Y-71091000D02*
X123571000Y-74044000D01*
X123571000Y-65656000D02*
X123571000Y-68609000D01*
X123531000Y-71091000D02*
X123531000Y-74071000D01*
X123531000Y-65629000D02*
X123531000Y-68609000D01*
X123491000Y-71091000D02*
X123491000Y-74097000D01*
X123491000Y-65603000D02*
X123491000Y-68609000D01*
X123451000Y-71091000D02*
X123451000Y-74123000D01*
X123451000Y-65577000D02*
X123451000Y-68609000D01*
X123411000Y-71091000D02*
X123411000Y-74148000D01*
X123411000Y-65552000D02*
X123411000Y-68609000D01*
X123371000Y-71091000D02*
X123371000Y-74173000D01*
X123371000Y-65527000D02*
X123371000Y-68609000D01*
X123331000Y-71091000D02*
X123331000Y-74197000D01*
X123331000Y-65503000D02*
X123331000Y-68609000D01*
X123291000Y-71091000D02*
X123291000Y-74221000D01*
X123291000Y-65479000D02*
X123291000Y-68609000D01*
X123251000Y-71091000D02*
X123251000Y-74245000D01*
X123251000Y-65455000D02*
X123251000Y-68609000D01*
X123211000Y-71091000D02*
X123211000Y-74267000D01*
X123211000Y-65433000D02*
X123211000Y-68609000D01*
X123171000Y-71091000D02*
X123171000Y-74290000D01*
X123171000Y-65410000D02*
X123171000Y-68609000D01*
X123131000Y-71091000D02*
X123131000Y-74312000D01*
X123131000Y-65388000D02*
X123131000Y-68609000D01*
X123091000Y-71091000D02*
X123091000Y-74333000D01*
X123091000Y-65367000D02*
X123091000Y-68609000D01*
X123051000Y-71091000D02*
X123051000Y-74354000D01*
X123051000Y-65346000D02*
X123051000Y-68609000D01*
X123011000Y-71091000D02*
X123011000Y-74375000D01*
X123011000Y-65325000D02*
X123011000Y-68609000D01*
X122971000Y-71091000D02*
X122971000Y-74395000D01*
X122971000Y-65305000D02*
X122971000Y-68609000D01*
X122931000Y-71091000D02*
X122931000Y-74414000D01*
X122931000Y-65286000D02*
X122931000Y-68609000D01*
X122891000Y-71091000D02*
X122891000Y-74434000D01*
X122891000Y-65266000D02*
X122891000Y-68609000D01*
X122851000Y-71091000D02*
X122851000Y-74453000D01*
X122851000Y-65247000D02*
X122851000Y-68609000D01*
X122811000Y-71091000D02*
X122811000Y-74471000D01*
X122811000Y-65229000D02*
X122811000Y-68609000D01*
X122771000Y-71091000D02*
X122771000Y-74489000D01*
X122771000Y-65211000D02*
X122771000Y-68609000D01*
X122731000Y-71091000D02*
X122731000Y-74507000D01*
X122731000Y-65193000D02*
X122731000Y-68609000D01*
X122691000Y-71091000D02*
X122691000Y-74524000D01*
X122691000Y-65176000D02*
X122691000Y-68609000D01*
X122651000Y-71091000D02*
X122651000Y-74540000D01*
X122651000Y-65160000D02*
X122651000Y-68609000D01*
X122611000Y-71091000D02*
X122611000Y-74557000D01*
X122611000Y-65143000D02*
X122611000Y-68609000D01*
X122571000Y-71091000D02*
X122571000Y-74573000D01*
X122571000Y-65127000D02*
X122571000Y-68609000D01*
X122531000Y-71091000D02*
X122531000Y-74588000D01*
X122531000Y-65112000D02*
X122531000Y-68609000D01*
X122491000Y-71091000D02*
X122491000Y-74604000D01*
X122491000Y-65096000D02*
X122491000Y-68609000D01*
X122451000Y-71091000D02*
X122451000Y-74618000D01*
X122451000Y-65082000D02*
X122451000Y-68609000D01*
X122411000Y-71091000D02*
X122411000Y-74633000D01*
X122411000Y-65067000D02*
X122411000Y-68609000D01*
X122371000Y-71091000D02*
X122371000Y-74647000D01*
X122371000Y-65053000D02*
X122371000Y-68609000D01*
X122331000Y-71091000D02*
X122331000Y-74661000D01*
X122331000Y-65039000D02*
X122331000Y-68609000D01*
X122291000Y-71091000D02*
X122291000Y-74674000D01*
X122291000Y-65026000D02*
X122291000Y-68609000D01*
X122251000Y-71091000D02*
X122251000Y-74687000D01*
X122251000Y-65013000D02*
X122251000Y-68609000D01*
X122211000Y-71091000D02*
X122211000Y-74700000D01*
X122211000Y-65000000D02*
X122211000Y-68609000D01*
X122171000Y-71091000D02*
X122171000Y-74712000D01*
X122171000Y-64988000D02*
X122171000Y-68609000D01*
X122131000Y-71091000D02*
X122131000Y-74724000D01*
X122131000Y-64976000D02*
X122131000Y-68609000D01*
X122091000Y-71091000D02*
X122091000Y-74735000D01*
X122091000Y-64965000D02*
X122091000Y-68609000D01*
X122051000Y-71091000D02*
X122051000Y-74747000D01*
X122051000Y-64953000D02*
X122051000Y-68609000D01*
X122011000Y-71091000D02*
X122011000Y-74757000D01*
X122011000Y-64943000D02*
X122011000Y-68609000D01*
X121971000Y-71091000D02*
X121971000Y-74768000D01*
X121971000Y-64932000D02*
X121971000Y-68609000D01*
X121931000Y-64922000D02*
X121931000Y-74778000D01*
X121891000Y-64912000D02*
X121891000Y-74788000D01*
X121851000Y-64903000D02*
X121851000Y-74797000D01*
X121811000Y-64894000D02*
X121811000Y-74806000D01*
X121771000Y-64885000D02*
X121771000Y-74815000D01*
X121731000Y-64876000D02*
X121731000Y-74824000D01*
X121691000Y-64868000D02*
X121691000Y-74832000D01*
X121651000Y-64860000D02*
X121651000Y-74840000D01*
X121611000Y-64853000D02*
X121611000Y-74847000D01*
X121571000Y-64846000D02*
X121571000Y-74854000D01*
X121531000Y-64839000D02*
X121531000Y-74861000D01*
X121491000Y-64832000D02*
X121491000Y-74868000D01*
X121451000Y-64826000D02*
X121451000Y-74874000D01*
X121411000Y-64820000D02*
X121411000Y-74880000D01*
X121370000Y-64815000D02*
X121370000Y-74885000D01*
X121330000Y-64810000D02*
X121330000Y-74890000D01*
X121290000Y-64805000D02*
X121290000Y-74895000D01*
X121250000Y-64800000D02*
X121250000Y-74900000D01*
X121210000Y-64796000D02*
X121210000Y-74904000D01*
X121170000Y-64792000D02*
X121170000Y-74908000D01*
X121130000Y-64788000D02*
X121130000Y-74912000D01*
X121090000Y-64785000D02*
X121090000Y-74915000D01*
X121050000Y-64782000D02*
X121050000Y-74918000D01*
X121010000Y-64780000D02*
X121010000Y-74920000D01*
X120970000Y-64777000D02*
X120970000Y-74923000D01*
X120930000Y-64775000D02*
X120930000Y-74925000D01*
X120890000Y-64773000D02*
X120890000Y-74927000D01*
X120850000Y-64772000D02*
X120850000Y-74928000D01*
X120810000Y-64771000D02*
X120810000Y-74929000D01*
X120770000Y-64770000D02*
X120770000Y-74930000D01*
X120730000Y-64770000D02*
X120730000Y-74930000D01*
X120690000Y-64770000D02*
X120690000Y-74930000D01*
X125810000Y-69850000D02*
G75*
G03X125810000Y-69850000I-5120000J0D01*
G01*
X161871000Y-81820000D02*
X161871000Y-83330000D01*
X158170000Y-81820000D02*
X158170000Y-83330000D01*
X154900000Y-83330000D02*
X165140000Y-83330000D01*
X165140000Y-81820000D02*
X165140000Y-86461000D01*
X154900000Y-81820000D02*
X154900000Y-86461000D01*
X154900000Y-86461000D02*
X165140000Y-86461000D01*
X154900000Y-81820000D02*
X165140000Y-81820000D01*
X121231000Y-81820000D02*
X121231000Y-83330000D01*
X117530000Y-81820000D02*
X117530000Y-83330000D01*
X114260000Y-83330000D02*
X124500000Y-83330000D01*
X124500000Y-81820000D02*
X124500000Y-86461000D01*
X114260000Y-81820000D02*
X114260000Y-86461000D01*
X114260000Y-86461000D02*
X124500000Y-86461000D01*
X114260000Y-81820000D02*
X124500000Y-81820000D01*
X146040000Y-92515000D02*
X140970000Y-92515000D01*
X146040000Y-82745000D02*
X140970000Y-82745000D01*
X140970000Y-82745000D02*
X140970000Y-92515000D01*
X146040000Y-82745000D02*
X146040000Y-92515000D01*
X138420000Y-92515000D02*
X133350000Y-92515000D01*
X138420000Y-82745000D02*
X133350000Y-82745000D01*
X133350000Y-82745000D02*
X133350000Y-92515000D01*
X138420000Y-82745000D02*
X138420000Y-92515000D01*
X116530000Y-42970000D02*
X116530000Y-44220000D01*
X117780000Y-42970000D02*
X116530000Y-42970000D01*
X126180000Y-48470000D02*
X121880000Y-48470000D01*
X126180000Y-45520000D02*
X126180000Y-48470000D01*
X126930000Y-45520000D02*
X126180000Y-45520000D01*
X117580000Y-48470000D02*
X121880000Y-48470000D01*
X117580000Y-45520000D02*
X117580000Y-48470000D01*
X116830000Y-45520000D02*
X117580000Y-45520000D01*
X126930000Y-43270000D02*
X125130000Y-43270000D01*
X126930000Y-44020000D02*
X126930000Y-43270000D01*
X125130000Y-44020000D02*
X126930000Y-44020000D01*
X125130000Y-43270000D02*
X125130000Y-44020000D01*
X118630000Y-43270000D02*
X116830000Y-43270000D01*
X118630000Y-44020000D02*
X118630000Y-43270000D01*
X116830000Y-44020000D02*
X118630000Y-44020000D01*
X116830000Y-43270000D02*
X116830000Y-44020000D01*
X123630000Y-43270000D02*
X120130000Y-43270000D01*
X123630000Y-44020000D02*
X123630000Y-43270000D01*
X120130000Y-44020000D02*
X123630000Y-44020000D01*
X120130000Y-43270000D02*
X120130000Y-44020000D01*
X126940000Y-43260000D02*
X116820000Y-43260000D01*
X126940000Y-49230000D02*
X126940000Y-43260000D01*
X116820000Y-49230000D02*
X126940000Y-49230000D01*
X116820000Y-43260000D02*
X116820000Y-49230000D01*
X147260000Y-97990000D02*
X147260000Y-95050000D01*
X147020000Y-97990000D02*
X147020000Y-95050000D01*
X147140000Y-97990000D02*
X147140000Y-95050000D01*
X142600000Y-95050000D02*
X142600000Y-95380000D01*
X148040000Y-95050000D02*
X142600000Y-95050000D01*
X148040000Y-95380000D02*
X148040000Y-95050000D01*
X142600000Y-97990000D02*
X142600000Y-97660000D01*
X148040000Y-97990000D02*
X142600000Y-97990000D01*
X148040000Y-97660000D02*
X148040000Y-97990000D01*
X136020000Y-97990000D02*
X136020000Y-95050000D01*
X135780000Y-97990000D02*
X135780000Y-95050000D01*
X135900000Y-97990000D02*
X135900000Y-95050000D01*
X131360000Y-95050000D02*
X131360000Y-95380000D01*
X136800000Y-95050000D02*
X131360000Y-95050000D01*
X136800000Y-95380000D02*
X136800000Y-95050000D01*
X131360000Y-97990000D02*
X131360000Y-97660000D01*
X136800000Y-97990000D02*
X131360000Y-97990000D01*
X136800000Y-97660000D02*
X136800000Y-97990000D01*
X129130000Y-55760000D02*
X130080000Y-55760000D01*
X134080000Y-55760000D02*
X135580000Y-55760000D01*
X138780000Y-55760000D02*
X140680000Y-55760000D01*
X143780000Y-55760000D02*
X145780000Y-55760000D01*
X148880000Y-55760000D02*
X150280000Y-55760000D01*
X150280000Y-55760000D02*
X150280000Y-51960000D01*
X150280000Y-51960000D02*
X129130000Y-51960000D01*
X129130000Y-51960000D02*
X129130000Y-55760000D01*
X131780000Y-51960000D02*
X131780000Y-52660000D01*
X153730354Y-53775000D02*
X153730354Y-54775000D01*
X153230354Y-54275000D02*
X154230354Y-54275000D01*
X163791000Y-56551000D02*
X163791000Y-57749000D01*
X163751000Y-56288000D02*
X163751000Y-58012000D01*
X163711000Y-56088000D02*
X163711000Y-58212000D01*
X163671000Y-55920000D02*
X163671000Y-58380000D01*
X163631000Y-55772000D02*
X163631000Y-58528000D01*
X163591000Y-55640000D02*
X163591000Y-58660000D01*
X163551000Y-55520000D02*
X163551000Y-58780000D01*
X163511000Y-55408000D02*
X163511000Y-58892000D01*
X163471000Y-55304000D02*
X163471000Y-58996000D01*
X163431000Y-55206000D02*
X163431000Y-59094000D01*
X163391000Y-55113000D02*
X163391000Y-59187000D01*
X163351000Y-55025000D02*
X163351000Y-59275000D01*
X163311000Y-54941000D02*
X163311000Y-59359000D01*
X163271000Y-54861000D02*
X163271000Y-59439000D01*
X163231000Y-54785000D02*
X163231000Y-59515000D01*
X163191000Y-54711000D02*
X163191000Y-59589000D01*
X163151000Y-54640000D02*
X163151000Y-59660000D01*
X163111000Y-54571000D02*
X163111000Y-59729000D01*
X163071000Y-54505000D02*
X163071000Y-59795000D01*
X163031000Y-54441000D02*
X163031000Y-59859000D01*
X162991000Y-54380000D02*
X162991000Y-59920000D01*
X162951000Y-54320000D02*
X162951000Y-59980000D01*
X162911000Y-54261000D02*
X162911000Y-60039000D01*
X162871000Y-54205000D02*
X162871000Y-60095000D01*
X162831000Y-54150000D02*
X162831000Y-60150000D01*
X162791000Y-54096000D02*
X162791000Y-60204000D01*
X162751000Y-54044000D02*
X162751000Y-60256000D01*
X162711000Y-53994000D02*
X162711000Y-60306000D01*
X162671000Y-53944000D02*
X162671000Y-60356000D01*
X162631000Y-53896000D02*
X162631000Y-60404000D01*
X162591000Y-53849000D02*
X162591000Y-60451000D01*
X162551000Y-53803000D02*
X162551000Y-60497000D01*
X162511000Y-53758000D02*
X162511000Y-60542000D01*
X162471000Y-53714000D02*
X162471000Y-60586000D01*
X162431000Y-58391000D02*
X162431000Y-60628000D01*
X162431000Y-53672000D02*
X162431000Y-55909000D01*
X162391000Y-58391000D02*
X162391000Y-60670000D01*
X162391000Y-53630000D02*
X162391000Y-55909000D01*
X162351000Y-58391000D02*
X162351000Y-60711000D01*
X162351000Y-53589000D02*
X162351000Y-55909000D01*
X162311000Y-58391000D02*
X162311000Y-60751000D01*
X162311000Y-53549000D02*
X162311000Y-55909000D01*
X162271000Y-58391000D02*
X162271000Y-60790000D01*
X162271000Y-53510000D02*
X162271000Y-55909000D01*
X162231000Y-58391000D02*
X162231000Y-60829000D01*
X162231000Y-53471000D02*
X162231000Y-55909000D01*
X162191000Y-58391000D02*
X162191000Y-60866000D01*
X162191000Y-53434000D02*
X162191000Y-55909000D01*
X162151000Y-58391000D02*
X162151000Y-60903000D01*
X162151000Y-53397000D02*
X162151000Y-55909000D01*
X162111000Y-58391000D02*
X162111000Y-60939000D01*
X162111000Y-53361000D02*
X162111000Y-55909000D01*
X162071000Y-58391000D02*
X162071000Y-60974000D01*
X162071000Y-53326000D02*
X162071000Y-55909000D01*
X162031000Y-58391000D02*
X162031000Y-61008000D01*
X162031000Y-53292000D02*
X162031000Y-55909000D01*
X161991000Y-58391000D02*
X161991000Y-61042000D01*
X161991000Y-53258000D02*
X161991000Y-55909000D01*
X161951000Y-58391000D02*
X161951000Y-61075000D01*
X161951000Y-53225000D02*
X161951000Y-55909000D01*
X161911000Y-58391000D02*
X161911000Y-61107000D01*
X161911000Y-53193000D02*
X161911000Y-55909000D01*
X161871000Y-58391000D02*
X161871000Y-61139000D01*
X161871000Y-53161000D02*
X161871000Y-55909000D01*
X161831000Y-58391000D02*
X161831000Y-61170000D01*
X161831000Y-53130000D02*
X161831000Y-55909000D01*
X161791000Y-58391000D02*
X161791000Y-61200000D01*
X161791000Y-53100000D02*
X161791000Y-55909000D01*
X161751000Y-58391000D02*
X161751000Y-61230000D01*
X161751000Y-53070000D02*
X161751000Y-55909000D01*
X161711000Y-58391000D02*
X161711000Y-61260000D01*
X161711000Y-53040000D02*
X161711000Y-55909000D01*
X161671000Y-58391000D02*
X161671000Y-61288000D01*
X161671000Y-53012000D02*
X161671000Y-55909000D01*
X161631000Y-58391000D02*
X161631000Y-61316000D01*
X161631000Y-52984000D02*
X161631000Y-55909000D01*
X161591000Y-58391000D02*
X161591000Y-61344000D01*
X161591000Y-52956000D02*
X161591000Y-55909000D01*
X161551000Y-58391000D02*
X161551000Y-61371000D01*
X161551000Y-52929000D02*
X161551000Y-55909000D01*
X161511000Y-58391000D02*
X161511000Y-61397000D01*
X161511000Y-52903000D02*
X161511000Y-55909000D01*
X161471000Y-58391000D02*
X161471000Y-61423000D01*
X161471000Y-52877000D02*
X161471000Y-55909000D01*
X161431000Y-58391000D02*
X161431000Y-61448000D01*
X161431000Y-52852000D02*
X161431000Y-55909000D01*
X161391000Y-58391000D02*
X161391000Y-61473000D01*
X161391000Y-52827000D02*
X161391000Y-55909000D01*
X161351000Y-58391000D02*
X161351000Y-61497000D01*
X161351000Y-52803000D02*
X161351000Y-55909000D01*
X161311000Y-58391000D02*
X161311000Y-61521000D01*
X161311000Y-52779000D02*
X161311000Y-55909000D01*
X161271000Y-58391000D02*
X161271000Y-61545000D01*
X161271000Y-52755000D02*
X161271000Y-55909000D01*
X161231000Y-58391000D02*
X161231000Y-61567000D01*
X161231000Y-52733000D02*
X161231000Y-55909000D01*
X161191000Y-58391000D02*
X161191000Y-61590000D01*
X161191000Y-52710000D02*
X161191000Y-55909000D01*
X161151000Y-58391000D02*
X161151000Y-61612000D01*
X161151000Y-52688000D02*
X161151000Y-55909000D01*
X161111000Y-58391000D02*
X161111000Y-61633000D01*
X161111000Y-52667000D02*
X161111000Y-55909000D01*
X161071000Y-58391000D02*
X161071000Y-61654000D01*
X161071000Y-52646000D02*
X161071000Y-55909000D01*
X161031000Y-58391000D02*
X161031000Y-61675000D01*
X161031000Y-52625000D02*
X161031000Y-55909000D01*
X160991000Y-58391000D02*
X160991000Y-61695000D01*
X160991000Y-52605000D02*
X160991000Y-55909000D01*
X160951000Y-58391000D02*
X160951000Y-61714000D01*
X160951000Y-52586000D02*
X160951000Y-55909000D01*
X160911000Y-58391000D02*
X160911000Y-61734000D01*
X160911000Y-52566000D02*
X160911000Y-55909000D01*
X160871000Y-58391000D02*
X160871000Y-61753000D01*
X160871000Y-52547000D02*
X160871000Y-55909000D01*
X160831000Y-58391000D02*
X160831000Y-61771000D01*
X160831000Y-52529000D02*
X160831000Y-55909000D01*
X160791000Y-58391000D02*
X160791000Y-61789000D01*
X160791000Y-52511000D02*
X160791000Y-55909000D01*
X160751000Y-58391000D02*
X160751000Y-61807000D01*
X160751000Y-52493000D02*
X160751000Y-55909000D01*
X160711000Y-58391000D02*
X160711000Y-61824000D01*
X160711000Y-52476000D02*
X160711000Y-55909000D01*
X160671000Y-58391000D02*
X160671000Y-61840000D01*
X160671000Y-52460000D02*
X160671000Y-55909000D01*
X160631000Y-58391000D02*
X160631000Y-61857000D01*
X160631000Y-52443000D02*
X160631000Y-55909000D01*
X160591000Y-58391000D02*
X160591000Y-61873000D01*
X160591000Y-52427000D02*
X160591000Y-55909000D01*
X160551000Y-58391000D02*
X160551000Y-61888000D01*
X160551000Y-52412000D02*
X160551000Y-55909000D01*
X160511000Y-58391000D02*
X160511000Y-61904000D01*
X160511000Y-52396000D02*
X160511000Y-55909000D01*
X160471000Y-58391000D02*
X160471000Y-61918000D01*
X160471000Y-52382000D02*
X160471000Y-55909000D01*
X160431000Y-58391000D02*
X160431000Y-61933000D01*
X160431000Y-52367000D02*
X160431000Y-55909000D01*
X160391000Y-58391000D02*
X160391000Y-61947000D01*
X160391000Y-52353000D02*
X160391000Y-55909000D01*
X160351000Y-58391000D02*
X160351000Y-61961000D01*
X160351000Y-52339000D02*
X160351000Y-55909000D01*
X160311000Y-58391000D02*
X160311000Y-61974000D01*
X160311000Y-52326000D02*
X160311000Y-55909000D01*
X160271000Y-58391000D02*
X160271000Y-61987000D01*
X160271000Y-52313000D02*
X160271000Y-55909000D01*
X160231000Y-58391000D02*
X160231000Y-62000000D01*
X160231000Y-52300000D02*
X160231000Y-55909000D01*
X160191000Y-58391000D02*
X160191000Y-62012000D01*
X160191000Y-52288000D02*
X160191000Y-55909000D01*
X160151000Y-58391000D02*
X160151000Y-62024000D01*
X160151000Y-52276000D02*
X160151000Y-55909000D01*
X160111000Y-58391000D02*
X160111000Y-62035000D01*
X160111000Y-52265000D02*
X160111000Y-55909000D01*
X160071000Y-58391000D02*
X160071000Y-62047000D01*
X160071000Y-52253000D02*
X160071000Y-55909000D01*
X160031000Y-58391000D02*
X160031000Y-62057000D01*
X160031000Y-52243000D02*
X160031000Y-55909000D01*
X159991000Y-58391000D02*
X159991000Y-62068000D01*
X159991000Y-52232000D02*
X159991000Y-55909000D01*
X159951000Y-52222000D02*
X159951000Y-62078000D01*
X159911000Y-52212000D02*
X159911000Y-62088000D01*
X159871000Y-52203000D02*
X159871000Y-62097000D01*
X159831000Y-52194000D02*
X159831000Y-62106000D01*
X159791000Y-52185000D02*
X159791000Y-62115000D01*
X159751000Y-52176000D02*
X159751000Y-62124000D01*
X159711000Y-52168000D02*
X159711000Y-62132000D01*
X159671000Y-52160000D02*
X159671000Y-62140000D01*
X159631000Y-52153000D02*
X159631000Y-62147000D01*
X159591000Y-52146000D02*
X159591000Y-62154000D01*
X159551000Y-52139000D02*
X159551000Y-62161000D01*
X159511000Y-52132000D02*
X159511000Y-62168000D01*
X159471000Y-52126000D02*
X159471000Y-62174000D01*
X159431000Y-52120000D02*
X159431000Y-62180000D01*
X159390000Y-52115000D02*
X159390000Y-62185000D01*
X159350000Y-52110000D02*
X159350000Y-62190000D01*
X159310000Y-52105000D02*
X159310000Y-62195000D01*
X159270000Y-52100000D02*
X159270000Y-62200000D01*
X159230000Y-52096000D02*
X159230000Y-62204000D01*
X159190000Y-52092000D02*
X159190000Y-62208000D01*
X159150000Y-52088000D02*
X159150000Y-62212000D01*
X159110000Y-52085000D02*
X159110000Y-62215000D01*
X159070000Y-52082000D02*
X159070000Y-62218000D01*
X159030000Y-52080000D02*
X159030000Y-62220000D01*
X158990000Y-52077000D02*
X158990000Y-62223000D01*
X158950000Y-52075000D02*
X158950000Y-62225000D01*
X158910000Y-52073000D02*
X158910000Y-62227000D01*
X158870000Y-52072000D02*
X158870000Y-62228000D01*
X158830000Y-52071000D02*
X158830000Y-62229000D01*
X158790000Y-52070000D02*
X158790000Y-62230000D01*
X158750000Y-52070000D02*
X158750000Y-62230000D01*
X158710000Y-52070000D02*
X158710000Y-62230000D01*
X163830000Y-57150000D02*
G75*
G03X163830000Y-57150000I-5120000J0D01*
G01*
X115710354Y-53775000D02*
X115710354Y-54775000D01*
X115210354Y-54275000D02*
X116210354Y-54275000D01*
X125771000Y-56551000D02*
X125771000Y-57749000D01*
X125731000Y-56288000D02*
X125731000Y-58012000D01*
X125691000Y-56088000D02*
X125691000Y-58212000D01*
X125651000Y-55920000D02*
X125651000Y-58380000D01*
X125611000Y-55772000D02*
X125611000Y-58528000D01*
X125571000Y-55640000D02*
X125571000Y-58660000D01*
X125531000Y-55520000D02*
X125531000Y-58780000D01*
X125491000Y-55408000D02*
X125491000Y-58892000D01*
X125451000Y-55304000D02*
X125451000Y-58996000D01*
X125411000Y-55206000D02*
X125411000Y-59094000D01*
X125371000Y-55113000D02*
X125371000Y-59187000D01*
X125331000Y-55025000D02*
X125331000Y-59275000D01*
X125291000Y-54941000D02*
X125291000Y-59359000D01*
X125251000Y-54861000D02*
X125251000Y-59439000D01*
X125211000Y-54785000D02*
X125211000Y-59515000D01*
X125171000Y-54711000D02*
X125171000Y-59589000D01*
X125131000Y-54640000D02*
X125131000Y-59660000D01*
X125091000Y-54571000D02*
X125091000Y-59729000D01*
X125051000Y-54505000D02*
X125051000Y-59795000D01*
X125011000Y-54441000D02*
X125011000Y-59859000D01*
X124971000Y-54380000D02*
X124971000Y-59920000D01*
X124931000Y-54320000D02*
X124931000Y-59980000D01*
X124891000Y-54261000D02*
X124891000Y-60039000D01*
X124851000Y-54205000D02*
X124851000Y-60095000D01*
X124811000Y-54150000D02*
X124811000Y-60150000D01*
X124771000Y-54096000D02*
X124771000Y-60204000D01*
X124731000Y-54044000D02*
X124731000Y-60256000D01*
X124691000Y-53994000D02*
X124691000Y-60306000D01*
X124651000Y-53944000D02*
X124651000Y-60356000D01*
X124611000Y-53896000D02*
X124611000Y-60404000D01*
X124571000Y-53849000D02*
X124571000Y-60451000D01*
X124531000Y-53803000D02*
X124531000Y-60497000D01*
X124491000Y-53758000D02*
X124491000Y-60542000D01*
X124451000Y-53714000D02*
X124451000Y-60586000D01*
X124411000Y-58391000D02*
X124411000Y-60628000D01*
X124411000Y-53672000D02*
X124411000Y-55909000D01*
X124371000Y-58391000D02*
X124371000Y-60670000D01*
X124371000Y-53630000D02*
X124371000Y-55909000D01*
X124331000Y-58391000D02*
X124331000Y-60711000D01*
X124331000Y-53589000D02*
X124331000Y-55909000D01*
X124291000Y-58391000D02*
X124291000Y-60751000D01*
X124291000Y-53549000D02*
X124291000Y-55909000D01*
X124251000Y-58391000D02*
X124251000Y-60790000D01*
X124251000Y-53510000D02*
X124251000Y-55909000D01*
X124211000Y-58391000D02*
X124211000Y-60829000D01*
X124211000Y-53471000D02*
X124211000Y-55909000D01*
X124171000Y-58391000D02*
X124171000Y-60866000D01*
X124171000Y-53434000D02*
X124171000Y-55909000D01*
X124131000Y-58391000D02*
X124131000Y-60903000D01*
X124131000Y-53397000D02*
X124131000Y-55909000D01*
X124091000Y-58391000D02*
X124091000Y-60939000D01*
X124091000Y-53361000D02*
X124091000Y-55909000D01*
X124051000Y-58391000D02*
X124051000Y-60974000D01*
X124051000Y-53326000D02*
X124051000Y-55909000D01*
X124011000Y-58391000D02*
X124011000Y-61008000D01*
X124011000Y-53292000D02*
X124011000Y-55909000D01*
X123971000Y-58391000D02*
X123971000Y-61042000D01*
X123971000Y-53258000D02*
X123971000Y-55909000D01*
X123931000Y-58391000D02*
X123931000Y-61075000D01*
X123931000Y-53225000D02*
X123931000Y-55909000D01*
X123891000Y-58391000D02*
X123891000Y-61107000D01*
X123891000Y-53193000D02*
X123891000Y-55909000D01*
X123851000Y-58391000D02*
X123851000Y-61139000D01*
X123851000Y-53161000D02*
X123851000Y-55909000D01*
X123811000Y-58391000D02*
X123811000Y-61170000D01*
X123811000Y-53130000D02*
X123811000Y-55909000D01*
X123771000Y-58391000D02*
X123771000Y-61200000D01*
X123771000Y-53100000D02*
X123771000Y-55909000D01*
X123731000Y-58391000D02*
X123731000Y-61230000D01*
X123731000Y-53070000D02*
X123731000Y-55909000D01*
X123691000Y-58391000D02*
X123691000Y-61260000D01*
X123691000Y-53040000D02*
X123691000Y-55909000D01*
X123651000Y-58391000D02*
X123651000Y-61288000D01*
X123651000Y-53012000D02*
X123651000Y-55909000D01*
X123611000Y-58391000D02*
X123611000Y-61316000D01*
X123611000Y-52984000D02*
X123611000Y-55909000D01*
X123571000Y-58391000D02*
X123571000Y-61344000D01*
X123571000Y-52956000D02*
X123571000Y-55909000D01*
X123531000Y-58391000D02*
X123531000Y-61371000D01*
X123531000Y-52929000D02*
X123531000Y-55909000D01*
X123491000Y-58391000D02*
X123491000Y-61397000D01*
X123491000Y-52903000D02*
X123491000Y-55909000D01*
X123451000Y-58391000D02*
X123451000Y-61423000D01*
X123451000Y-52877000D02*
X123451000Y-55909000D01*
X123411000Y-58391000D02*
X123411000Y-61448000D01*
X123411000Y-52852000D02*
X123411000Y-55909000D01*
X123371000Y-58391000D02*
X123371000Y-61473000D01*
X123371000Y-52827000D02*
X123371000Y-55909000D01*
X123331000Y-58391000D02*
X123331000Y-61497000D01*
X123331000Y-52803000D02*
X123331000Y-55909000D01*
X123291000Y-58391000D02*
X123291000Y-61521000D01*
X123291000Y-52779000D02*
X123291000Y-55909000D01*
X123251000Y-58391000D02*
X123251000Y-61545000D01*
X123251000Y-52755000D02*
X123251000Y-55909000D01*
X123211000Y-58391000D02*
X123211000Y-61567000D01*
X123211000Y-52733000D02*
X123211000Y-55909000D01*
X123171000Y-58391000D02*
X123171000Y-61590000D01*
X123171000Y-52710000D02*
X123171000Y-55909000D01*
X123131000Y-58391000D02*
X123131000Y-61612000D01*
X123131000Y-52688000D02*
X123131000Y-55909000D01*
X123091000Y-58391000D02*
X123091000Y-61633000D01*
X123091000Y-52667000D02*
X123091000Y-55909000D01*
X123051000Y-58391000D02*
X123051000Y-61654000D01*
X123051000Y-52646000D02*
X123051000Y-55909000D01*
X123011000Y-58391000D02*
X123011000Y-61675000D01*
X123011000Y-52625000D02*
X123011000Y-55909000D01*
X122971000Y-58391000D02*
X122971000Y-61695000D01*
X122971000Y-52605000D02*
X122971000Y-55909000D01*
X122931000Y-58391000D02*
X122931000Y-61714000D01*
X122931000Y-52586000D02*
X122931000Y-55909000D01*
X122891000Y-58391000D02*
X122891000Y-61734000D01*
X122891000Y-52566000D02*
X122891000Y-55909000D01*
X122851000Y-58391000D02*
X122851000Y-61753000D01*
X122851000Y-52547000D02*
X122851000Y-55909000D01*
X122811000Y-58391000D02*
X122811000Y-61771000D01*
X122811000Y-52529000D02*
X122811000Y-55909000D01*
X122771000Y-58391000D02*
X122771000Y-61789000D01*
X122771000Y-52511000D02*
X122771000Y-55909000D01*
X122731000Y-58391000D02*
X122731000Y-61807000D01*
X122731000Y-52493000D02*
X122731000Y-55909000D01*
X122691000Y-58391000D02*
X122691000Y-61824000D01*
X122691000Y-52476000D02*
X122691000Y-55909000D01*
X122651000Y-58391000D02*
X122651000Y-61840000D01*
X122651000Y-52460000D02*
X122651000Y-55909000D01*
X122611000Y-58391000D02*
X122611000Y-61857000D01*
X122611000Y-52443000D02*
X122611000Y-55909000D01*
X122571000Y-58391000D02*
X122571000Y-61873000D01*
X122571000Y-52427000D02*
X122571000Y-55909000D01*
X122531000Y-58391000D02*
X122531000Y-61888000D01*
X122531000Y-52412000D02*
X122531000Y-55909000D01*
X122491000Y-58391000D02*
X122491000Y-61904000D01*
X122491000Y-52396000D02*
X122491000Y-55909000D01*
X122451000Y-58391000D02*
X122451000Y-61918000D01*
X122451000Y-52382000D02*
X122451000Y-55909000D01*
X122411000Y-58391000D02*
X122411000Y-61933000D01*
X122411000Y-52367000D02*
X122411000Y-55909000D01*
X122371000Y-58391000D02*
X122371000Y-61947000D01*
X122371000Y-52353000D02*
X122371000Y-55909000D01*
X122331000Y-58391000D02*
X122331000Y-61961000D01*
X122331000Y-52339000D02*
X122331000Y-55909000D01*
X122291000Y-58391000D02*
X122291000Y-61974000D01*
X122291000Y-52326000D02*
X122291000Y-55909000D01*
X122251000Y-58391000D02*
X122251000Y-61987000D01*
X122251000Y-52313000D02*
X122251000Y-55909000D01*
X122211000Y-58391000D02*
X122211000Y-62000000D01*
X122211000Y-52300000D02*
X122211000Y-55909000D01*
X122171000Y-58391000D02*
X122171000Y-62012000D01*
X122171000Y-52288000D02*
X122171000Y-55909000D01*
X122131000Y-58391000D02*
X122131000Y-62024000D01*
X122131000Y-52276000D02*
X122131000Y-55909000D01*
X122091000Y-58391000D02*
X122091000Y-62035000D01*
X122091000Y-52265000D02*
X122091000Y-55909000D01*
X122051000Y-58391000D02*
X122051000Y-62047000D01*
X122051000Y-52253000D02*
X122051000Y-55909000D01*
X122011000Y-58391000D02*
X122011000Y-62057000D01*
X122011000Y-52243000D02*
X122011000Y-55909000D01*
X121971000Y-58391000D02*
X121971000Y-62068000D01*
X121971000Y-52232000D02*
X121971000Y-55909000D01*
X121931000Y-52222000D02*
X121931000Y-62078000D01*
X121891000Y-52212000D02*
X121891000Y-62088000D01*
X121851000Y-52203000D02*
X121851000Y-62097000D01*
X121811000Y-52194000D02*
X121811000Y-62106000D01*
X121771000Y-52185000D02*
X121771000Y-62115000D01*
X121731000Y-52176000D02*
X121731000Y-62124000D01*
X121691000Y-52168000D02*
X121691000Y-62132000D01*
X121651000Y-52160000D02*
X121651000Y-62140000D01*
X121611000Y-52153000D02*
X121611000Y-62147000D01*
X121571000Y-52146000D02*
X121571000Y-62154000D01*
X121531000Y-52139000D02*
X121531000Y-62161000D01*
X121491000Y-52132000D02*
X121491000Y-62168000D01*
X121451000Y-52126000D02*
X121451000Y-62174000D01*
X121411000Y-52120000D02*
X121411000Y-62180000D01*
X121370000Y-52115000D02*
X121370000Y-62185000D01*
X121330000Y-52110000D02*
X121330000Y-62190000D01*
X121290000Y-52105000D02*
X121290000Y-62195000D01*
X121250000Y-52100000D02*
X121250000Y-62200000D01*
X121210000Y-52096000D02*
X121210000Y-62204000D01*
X121170000Y-52092000D02*
X121170000Y-62208000D01*
X121130000Y-52088000D02*
X121130000Y-62212000D01*
X121090000Y-52085000D02*
X121090000Y-62215000D01*
X121050000Y-52082000D02*
X121050000Y-62218000D01*
X121010000Y-52080000D02*
X121010000Y-62220000D01*
X120970000Y-52077000D02*
X120970000Y-62223000D01*
X120930000Y-52075000D02*
X120930000Y-62225000D01*
X120890000Y-52073000D02*
X120890000Y-62227000D01*
X120850000Y-52072000D02*
X120850000Y-62228000D01*
X120810000Y-52071000D02*
X120810000Y-62229000D01*
X120770000Y-52070000D02*
X120770000Y-62230000D01*
X120730000Y-52070000D02*
X120730000Y-62230000D01*
X120690000Y-52070000D02*
X120690000Y-62230000D01*
X125810000Y-57150000D02*
G75*
G03X125810000Y-57150000I-5120000J0D01*
G01*
X141030354Y-72825000D02*
X141030354Y-73825000D01*
X140530354Y-73325000D02*
X141530354Y-73325000D01*
X151091000Y-75601000D02*
X151091000Y-76799000D01*
X151051000Y-75338000D02*
X151051000Y-77062000D01*
X151011000Y-75138000D02*
X151011000Y-77262000D01*
X150971000Y-74970000D02*
X150971000Y-77430000D01*
X150931000Y-74822000D02*
X150931000Y-77578000D01*
X150891000Y-74690000D02*
X150891000Y-77710000D01*
X150851000Y-74570000D02*
X150851000Y-77830000D01*
X150811000Y-74458000D02*
X150811000Y-77942000D01*
X150771000Y-74354000D02*
X150771000Y-78046000D01*
X150731000Y-74256000D02*
X150731000Y-78144000D01*
X150691000Y-74163000D02*
X150691000Y-78237000D01*
X150651000Y-74075000D02*
X150651000Y-78325000D01*
X150611000Y-73991000D02*
X150611000Y-78409000D01*
X150571000Y-73911000D02*
X150571000Y-78489000D01*
X150531000Y-73835000D02*
X150531000Y-78565000D01*
X150491000Y-73761000D02*
X150491000Y-78639000D01*
X150451000Y-73690000D02*
X150451000Y-78710000D01*
X150411000Y-73621000D02*
X150411000Y-78779000D01*
X150371000Y-73555000D02*
X150371000Y-78845000D01*
X150331000Y-73491000D02*
X150331000Y-78909000D01*
X150291000Y-73430000D02*
X150291000Y-78970000D01*
X150251000Y-73370000D02*
X150251000Y-79030000D01*
X150211000Y-73311000D02*
X150211000Y-79089000D01*
X150171000Y-73255000D02*
X150171000Y-79145000D01*
X150131000Y-73200000D02*
X150131000Y-79200000D01*
X150091000Y-73146000D02*
X150091000Y-79254000D01*
X150051000Y-73094000D02*
X150051000Y-79306000D01*
X150011000Y-73044000D02*
X150011000Y-79356000D01*
X149971000Y-72994000D02*
X149971000Y-79406000D01*
X149931000Y-72946000D02*
X149931000Y-79454000D01*
X149891000Y-72899000D02*
X149891000Y-79501000D01*
X149851000Y-72853000D02*
X149851000Y-79547000D01*
X149811000Y-72808000D02*
X149811000Y-79592000D01*
X149771000Y-72764000D02*
X149771000Y-79636000D01*
X149731000Y-77441000D02*
X149731000Y-79678000D01*
X149731000Y-72722000D02*
X149731000Y-74959000D01*
X149691000Y-77441000D02*
X149691000Y-79720000D01*
X149691000Y-72680000D02*
X149691000Y-74959000D01*
X149651000Y-77441000D02*
X149651000Y-79761000D01*
X149651000Y-72639000D02*
X149651000Y-74959000D01*
X149611000Y-77441000D02*
X149611000Y-79801000D01*
X149611000Y-72599000D02*
X149611000Y-74959000D01*
X149571000Y-77441000D02*
X149571000Y-79840000D01*
X149571000Y-72560000D02*
X149571000Y-74959000D01*
X149531000Y-77441000D02*
X149531000Y-79879000D01*
X149531000Y-72521000D02*
X149531000Y-74959000D01*
X149491000Y-77441000D02*
X149491000Y-79916000D01*
X149491000Y-72484000D02*
X149491000Y-74959000D01*
X149451000Y-77441000D02*
X149451000Y-79953000D01*
X149451000Y-72447000D02*
X149451000Y-74959000D01*
X149411000Y-77441000D02*
X149411000Y-79989000D01*
X149411000Y-72411000D02*
X149411000Y-74959000D01*
X149371000Y-77441000D02*
X149371000Y-80024000D01*
X149371000Y-72376000D02*
X149371000Y-74959000D01*
X149331000Y-77441000D02*
X149331000Y-80058000D01*
X149331000Y-72342000D02*
X149331000Y-74959000D01*
X149291000Y-77441000D02*
X149291000Y-80092000D01*
X149291000Y-72308000D02*
X149291000Y-74959000D01*
X149251000Y-77441000D02*
X149251000Y-80125000D01*
X149251000Y-72275000D02*
X149251000Y-74959000D01*
X149211000Y-77441000D02*
X149211000Y-80157000D01*
X149211000Y-72243000D02*
X149211000Y-74959000D01*
X149171000Y-77441000D02*
X149171000Y-80189000D01*
X149171000Y-72211000D02*
X149171000Y-74959000D01*
X149131000Y-77441000D02*
X149131000Y-80220000D01*
X149131000Y-72180000D02*
X149131000Y-74959000D01*
X149091000Y-77441000D02*
X149091000Y-80250000D01*
X149091000Y-72150000D02*
X149091000Y-74959000D01*
X149051000Y-77441000D02*
X149051000Y-80280000D01*
X149051000Y-72120000D02*
X149051000Y-74959000D01*
X149011000Y-77441000D02*
X149011000Y-80310000D01*
X149011000Y-72090000D02*
X149011000Y-74959000D01*
X148971000Y-77441000D02*
X148971000Y-80338000D01*
X148971000Y-72062000D02*
X148971000Y-74959000D01*
X148931000Y-77441000D02*
X148931000Y-80366000D01*
X148931000Y-72034000D02*
X148931000Y-74959000D01*
X148891000Y-77441000D02*
X148891000Y-80394000D01*
X148891000Y-72006000D02*
X148891000Y-74959000D01*
X148851000Y-77441000D02*
X148851000Y-80421000D01*
X148851000Y-71979000D02*
X148851000Y-74959000D01*
X148811000Y-77441000D02*
X148811000Y-80447000D01*
X148811000Y-71953000D02*
X148811000Y-74959000D01*
X148771000Y-77441000D02*
X148771000Y-80473000D01*
X148771000Y-71927000D02*
X148771000Y-74959000D01*
X148731000Y-77441000D02*
X148731000Y-80498000D01*
X148731000Y-71902000D02*
X148731000Y-74959000D01*
X148691000Y-77441000D02*
X148691000Y-80523000D01*
X148691000Y-71877000D02*
X148691000Y-74959000D01*
X148651000Y-77441000D02*
X148651000Y-80547000D01*
X148651000Y-71853000D02*
X148651000Y-74959000D01*
X148611000Y-77441000D02*
X148611000Y-80571000D01*
X148611000Y-71829000D02*
X148611000Y-74959000D01*
X148571000Y-77441000D02*
X148571000Y-80595000D01*
X148571000Y-71805000D02*
X148571000Y-74959000D01*
X148531000Y-77441000D02*
X148531000Y-80617000D01*
X148531000Y-71783000D02*
X148531000Y-74959000D01*
X148491000Y-77441000D02*
X148491000Y-80640000D01*
X148491000Y-71760000D02*
X148491000Y-74959000D01*
X148451000Y-77441000D02*
X148451000Y-80662000D01*
X148451000Y-71738000D02*
X148451000Y-74959000D01*
X148411000Y-77441000D02*
X148411000Y-80683000D01*
X148411000Y-71717000D02*
X148411000Y-74959000D01*
X148371000Y-77441000D02*
X148371000Y-80704000D01*
X148371000Y-71696000D02*
X148371000Y-74959000D01*
X148331000Y-77441000D02*
X148331000Y-80725000D01*
X148331000Y-71675000D02*
X148331000Y-74959000D01*
X148291000Y-77441000D02*
X148291000Y-80745000D01*
X148291000Y-71655000D02*
X148291000Y-74959000D01*
X148251000Y-77441000D02*
X148251000Y-80764000D01*
X148251000Y-71636000D02*
X148251000Y-74959000D01*
X148211000Y-77441000D02*
X148211000Y-80784000D01*
X148211000Y-71616000D02*
X148211000Y-74959000D01*
X148171000Y-77441000D02*
X148171000Y-80803000D01*
X148171000Y-71597000D02*
X148171000Y-74959000D01*
X148131000Y-77441000D02*
X148131000Y-80821000D01*
X148131000Y-71579000D02*
X148131000Y-74959000D01*
X148091000Y-77441000D02*
X148091000Y-80839000D01*
X148091000Y-71561000D02*
X148091000Y-74959000D01*
X148051000Y-77441000D02*
X148051000Y-80857000D01*
X148051000Y-71543000D02*
X148051000Y-74959000D01*
X148011000Y-77441000D02*
X148011000Y-80874000D01*
X148011000Y-71526000D02*
X148011000Y-74959000D01*
X147971000Y-77441000D02*
X147971000Y-80890000D01*
X147971000Y-71510000D02*
X147971000Y-74959000D01*
X147931000Y-77441000D02*
X147931000Y-80907000D01*
X147931000Y-71493000D02*
X147931000Y-74959000D01*
X147891000Y-77441000D02*
X147891000Y-80923000D01*
X147891000Y-71477000D02*
X147891000Y-74959000D01*
X147851000Y-77441000D02*
X147851000Y-80938000D01*
X147851000Y-71462000D02*
X147851000Y-74959000D01*
X147811000Y-77441000D02*
X147811000Y-80954000D01*
X147811000Y-71446000D02*
X147811000Y-74959000D01*
X147771000Y-77441000D02*
X147771000Y-80968000D01*
X147771000Y-71432000D02*
X147771000Y-74959000D01*
X147731000Y-77441000D02*
X147731000Y-80983000D01*
X147731000Y-71417000D02*
X147731000Y-74959000D01*
X147691000Y-77441000D02*
X147691000Y-80997000D01*
X147691000Y-71403000D02*
X147691000Y-74959000D01*
X147651000Y-77441000D02*
X147651000Y-81011000D01*
X147651000Y-71389000D02*
X147651000Y-74959000D01*
X147611000Y-77441000D02*
X147611000Y-81024000D01*
X147611000Y-71376000D02*
X147611000Y-74959000D01*
X147571000Y-77441000D02*
X147571000Y-81037000D01*
X147571000Y-71363000D02*
X147571000Y-74959000D01*
X147531000Y-77441000D02*
X147531000Y-81050000D01*
X147531000Y-71350000D02*
X147531000Y-74959000D01*
X147491000Y-77441000D02*
X147491000Y-81062000D01*
X147491000Y-71338000D02*
X147491000Y-74959000D01*
X147451000Y-77441000D02*
X147451000Y-81074000D01*
X147451000Y-71326000D02*
X147451000Y-74959000D01*
X147411000Y-77441000D02*
X147411000Y-81085000D01*
X147411000Y-71315000D02*
X147411000Y-74959000D01*
X147371000Y-77441000D02*
X147371000Y-81097000D01*
X147371000Y-71303000D02*
X147371000Y-74959000D01*
X147331000Y-77441000D02*
X147331000Y-81107000D01*
X147331000Y-71293000D02*
X147331000Y-74959000D01*
X147291000Y-77441000D02*
X147291000Y-81118000D01*
X147291000Y-71282000D02*
X147291000Y-74959000D01*
X147251000Y-71272000D02*
X147251000Y-81128000D01*
X147211000Y-71262000D02*
X147211000Y-81138000D01*
X147171000Y-71253000D02*
X147171000Y-81147000D01*
X147131000Y-71244000D02*
X147131000Y-81156000D01*
X147091000Y-71235000D02*
X147091000Y-81165000D01*
X147051000Y-71226000D02*
X147051000Y-81174000D01*
X147011000Y-71218000D02*
X147011000Y-81182000D01*
X146971000Y-71210000D02*
X146971000Y-81190000D01*
X146931000Y-71203000D02*
X146931000Y-81197000D01*
X146891000Y-71196000D02*
X146891000Y-81204000D01*
X146851000Y-71189000D02*
X146851000Y-81211000D01*
X146811000Y-71182000D02*
X146811000Y-81218000D01*
X146771000Y-71176000D02*
X146771000Y-81224000D01*
X146731000Y-71170000D02*
X146731000Y-81230000D01*
X146690000Y-71165000D02*
X146690000Y-81235000D01*
X146650000Y-71160000D02*
X146650000Y-81240000D01*
X146610000Y-71155000D02*
X146610000Y-81245000D01*
X146570000Y-71150000D02*
X146570000Y-81250000D01*
X146530000Y-71146000D02*
X146530000Y-81254000D01*
X146490000Y-71142000D02*
X146490000Y-81258000D01*
X146450000Y-71138000D02*
X146450000Y-81262000D01*
X146410000Y-71135000D02*
X146410000Y-81265000D01*
X146370000Y-71132000D02*
X146370000Y-81268000D01*
X146330000Y-71130000D02*
X146330000Y-81270000D01*
X146290000Y-71127000D02*
X146290000Y-81273000D01*
X146250000Y-71125000D02*
X146250000Y-81275000D01*
X146210000Y-71123000D02*
X146210000Y-81277000D01*
X146170000Y-71122000D02*
X146170000Y-81278000D01*
X146130000Y-71121000D02*
X146130000Y-81279000D01*
X146090000Y-71120000D02*
X146090000Y-81280000D01*
X146050000Y-71120000D02*
X146050000Y-81280000D01*
X146010000Y-71120000D02*
X146010000Y-81280000D01*
X151130000Y-76200000D02*
G75*
G03X151130000Y-76200000I-5120000J0D01*
G01*
X128330354Y-72825000D02*
X128330354Y-73825000D01*
X127830354Y-73325000D02*
X128830354Y-73325000D01*
X138391000Y-75601000D02*
X138391000Y-76799000D01*
X138351000Y-75338000D02*
X138351000Y-77062000D01*
X138311000Y-75138000D02*
X138311000Y-77262000D01*
X138271000Y-74970000D02*
X138271000Y-77430000D01*
X138231000Y-74822000D02*
X138231000Y-77578000D01*
X138191000Y-74690000D02*
X138191000Y-77710000D01*
X138151000Y-74570000D02*
X138151000Y-77830000D01*
X138111000Y-74458000D02*
X138111000Y-77942000D01*
X138071000Y-74354000D02*
X138071000Y-78046000D01*
X138031000Y-74256000D02*
X138031000Y-78144000D01*
X137991000Y-74163000D02*
X137991000Y-78237000D01*
X137951000Y-74075000D02*
X137951000Y-78325000D01*
X137911000Y-73991000D02*
X137911000Y-78409000D01*
X137871000Y-73911000D02*
X137871000Y-78489000D01*
X137831000Y-73835000D02*
X137831000Y-78565000D01*
X137791000Y-73761000D02*
X137791000Y-78639000D01*
X137751000Y-73690000D02*
X137751000Y-78710000D01*
X137711000Y-73621000D02*
X137711000Y-78779000D01*
X137671000Y-73555000D02*
X137671000Y-78845000D01*
X137631000Y-73491000D02*
X137631000Y-78909000D01*
X137591000Y-73430000D02*
X137591000Y-78970000D01*
X137551000Y-73370000D02*
X137551000Y-79030000D01*
X137511000Y-73311000D02*
X137511000Y-79089000D01*
X137471000Y-73255000D02*
X137471000Y-79145000D01*
X137431000Y-73200000D02*
X137431000Y-79200000D01*
X137391000Y-73146000D02*
X137391000Y-79254000D01*
X137351000Y-73094000D02*
X137351000Y-79306000D01*
X137311000Y-73044000D02*
X137311000Y-79356000D01*
X137271000Y-72994000D02*
X137271000Y-79406000D01*
X137231000Y-72946000D02*
X137231000Y-79454000D01*
X137191000Y-72899000D02*
X137191000Y-79501000D01*
X137151000Y-72853000D02*
X137151000Y-79547000D01*
X137111000Y-72808000D02*
X137111000Y-79592000D01*
X137071000Y-72764000D02*
X137071000Y-79636000D01*
X137031000Y-77441000D02*
X137031000Y-79678000D01*
X137031000Y-72722000D02*
X137031000Y-74959000D01*
X136991000Y-77441000D02*
X136991000Y-79720000D01*
X136991000Y-72680000D02*
X136991000Y-74959000D01*
X136951000Y-77441000D02*
X136951000Y-79761000D01*
X136951000Y-72639000D02*
X136951000Y-74959000D01*
X136911000Y-77441000D02*
X136911000Y-79801000D01*
X136911000Y-72599000D02*
X136911000Y-74959000D01*
X136871000Y-77441000D02*
X136871000Y-79840000D01*
X136871000Y-72560000D02*
X136871000Y-74959000D01*
X136831000Y-77441000D02*
X136831000Y-79879000D01*
X136831000Y-72521000D02*
X136831000Y-74959000D01*
X136791000Y-77441000D02*
X136791000Y-79916000D01*
X136791000Y-72484000D02*
X136791000Y-74959000D01*
X136751000Y-77441000D02*
X136751000Y-79953000D01*
X136751000Y-72447000D02*
X136751000Y-74959000D01*
X136711000Y-77441000D02*
X136711000Y-79989000D01*
X136711000Y-72411000D02*
X136711000Y-74959000D01*
X136671000Y-77441000D02*
X136671000Y-80024000D01*
X136671000Y-72376000D02*
X136671000Y-74959000D01*
X136631000Y-77441000D02*
X136631000Y-80058000D01*
X136631000Y-72342000D02*
X136631000Y-74959000D01*
X136591000Y-77441000D02*
X136591000Y-80092000D01*
X136591000Y-72308000D02*
X136591000Y-74959000D01*
X136551000Y-77441000D02*
X136551000Y-80125000D01*
X136551000Y-72275000D02*
X136551000Y-74959000D01*
X136511000Y-77441000D02*
X136511000Y-80157000D01*
X136511000Y-72243000D02*
X136511000Y-74959000D01*
X136471000Y-77441000D02*
X136471000Y-80189000D01*
X136471000Y-72211000D02*
X136471000Y-74959000D01*
X136431000Y-77441000D02*
X136431000Y-80220000D01*
X136431000Y-72180000D02*
X136431000Y-74959000D01*
X136391000Y-77441000D02*
X136391000Y-80250000D01*
X136391000Y-72150000D02*
X136391000Y-74959000D01*
X136351000Y-77441000D02*
X136351000Y-80280000D01*
X136351000Y-72120000D02*
X136351000Y-74959000D01*
X136311000Y-77441000D02*
X136311000Y-80310000D01*
X136311000Y-72090000D02*
X136311000Y-74959000D01*
X136271000Y-77441000D02*
X136271000Y-80338000D01*
X136271000Y-72062000D02*
X136271000Y-74959000D01*
X136231000Y-77441000D02*
X136231000Y-80366000D01*
X136231000Y-72034000D02*
X136231000Y-74959000D01*
X136191000Y-77441000D02*
X136191000Y-80394000D01*
X136191000Y-72006000D02*
X136191000Y-74959000D01*
X136151000Y-77441000D02*
X136151000Y-80421000D01*
X136151000Y-71979000D02*
X136151000Y-74959000D01*
X136111000Y-77441000D02*
X136111000Y-80447000D01*
X136111000Y-71953000D02*
X136111000Y-74959000D01*
X136071000Y-77441000D02*
X136071000Y-80473000D01*
X136071000Y-71927000D02*
X136071000Y-74959000D01*
X136031000Y-77441000D02*
X136031000Y-80498000D01*
X136031000Y-71902000D02*
X136031000Y-74959000D01*
X135991000Y-77441000D02*
X135991000Y-80523000D01*
X135991000Y-71877000D02*
X135991000Y-74959000D01*
X135951000Y-77441000D02*
X135951000Y-80547000D01*
X135951000Y-71853000D02*
X135951000Y-74959000D01*
X135911000Y-77441000D02*
X135911000Y-80571000D01*
X135911000Y-71829000D02*
X135911000Y-74959000D01*
X135871000Y-77441000D02*
X135871000Y-80595000D01*
X135871000Y-71805000D02*
X135871000Y-74959000D01*
X135831000Y-77441000D02*
X135831000Y-80617000D01*
X135831000Y-71783000D02*
X135831000Y-74959000D01*
X135791000Y-77441000D02*
X135791000Y-80640000D01*
X135791000Y-71760000D02*
X135791000Y-74959000D01*
X135751000Y-77441000D02*
X135751000Y-80662000D01*
X135751000Y-71738000D02*
X135751000Y-74959000D01*
X135711000Y-77441000D02*
X135711000Y-80683000D01*
X135711000Y-71717000D02*
X135711000Y-74959000D01*
X135671000Y-77441000D02*
X135671000Y-80704000D01*
X135671000Y-71696000D02*
X135671000Y-74959000D01*
X135631000Y-77441000D02*
X135631000Y-80725000D01*
X135631000Y-71675000D02*
X135631000Y-74959000D01*
X135591000Y-77441000D02*
X135591000Y-80745000D01*
X135591000Y-71655000D02*
X135591000Y-74959000D01*
X135551000Y-77441000D02*
X135551000Y-80764000D01*
X135551000Y-71636000D02*
X135551000Y-74959000D01*
X135511000Y-77441000D02*
X135511000Y-80784000D01*
X135511000Y-71616000D02*
X135511000Y-74959000D01*
X135471000Y-77441000D02*
X135471000Y-80803000D01*
X135471000Y-71597000D02*
X135471000Y-74959000D01*
X135431000Y-77441000D02*
X135431000Y-80821000D01*
X135431000Y-71579000D02*
X135431000Y-74959000D01*
X135391000Y-77441000D02*
X135391000Y-80839000D01*
X135391000Y-71561000D02*
X135391000Y-74959000D01*
X135351000Y-77441000D02*
X135351000Y-80857000D01*
X135351000Y-71543000D02*
X135351000Y-74959000D01*
X135311000Y-77441000D02*
X135311000Y-80874000D01*
X135311000Y-71526000D02*
X135311000Y-74959000D01*
X135271000Y-77441000D02*
X135271000Y-80890000D01*
X135271000Y-71510000D02*
X135271000Y-74959000D01*
X135231000Y-77441000D02*
X135231000Y-80907000D01*
X135231000Y-71493000D02*
X135231000Y-74959000D01*
X135191000Y-77441000D02*
X135191000Y-80923000D01*
X135191000Y-71477000D02*
X135191000Y-74959000D01*
X135151000Y-77441000D02*
X135151000Y-80938000D01*
X135151000Y-71462000D02*
X135151000Y-74959000D01*
X135111000Y-77441000D02*
X135111000Y-80954000D01*
X135111000Y-71446000D02*
X135111000Y-74959000D01*
X135071000Y-77441000D02*
X135071000Y-80968000D01*
X135071000Y-71432000D02*
X135071000Y-74959000D01*
X135031000Y-77441000D02*
X135031000Y-80983000D01*
X135031000Y-71417000D02*
X135031000Y-74959000D01*
X134991000Y-77441000D02*
X134991000Y-80997000D01*
X134991000Y-71403000D02*
X134991000Y-74959000D01*
X134951000Y-77441000D02*
X134951000Y-81011000D01*
X134951000Y-71389000D02*
X134951000Y-74959000D01*
X134911000Y-77441000D02*
X134911000Y-81024000D01*
X134911000Y-71376000D02*
X134911000Y-74959000D01*
X134871000Y-77441000D02*
X134871000Y-81037000D01*
X134871000Y-71363000D02*
X134871000Y-74959000D01*
X134831000Y-77441000D02*
X134831000Y-81050000D01*
X134831000Y-71350000D02*
X134831000Y-74959000D01*
X134791000Y-77441000D02*
X134791000Y-81062000D01*
X134791000Y-71338000D02*
X134791000Y-74959000D01*
X134751000Y-77441000D02*
X134751000Y-81074000D01*
X134751000Y-71326000D02*
X134751000Y-74959000D01*
X134711000Y-77441000D02*
X134711000Y-81085000D01*
X134711000Y-71315000D02*
X134711000Y-74959000D01*
X134671000Y-77441000D02*
X134671000Y-81097000D01*
X134671000Y-71303000D02*
X134671000Y-74959000D01*
X134631000Y-77441000D02*
X134631000Y-81107000D01*
X134631000Y-71293000D02*
X134631000Y-74959000D01*
X134591000Y-77441000D02*
X134591000Y-81118000D01*
X134591000Y-71282000D02*
X134591000Y-74959000D01*
X134551000Y-71272000D02*
X134551000Y-81128000D01*
X134511000Y-71262000D02*
X134511000Y-81138000D01*
X134471000Y-71253000D02*
X134471000Y-81147000D01*
X134431000Y-71244000D02*
X134431000Y-81156000D01*
X134391000Y-71235000D02*
X134391000Y-81165000D01*
X134351000Y-71226000D02*
X134351000Y-81174000D01*
X134311000Y-71218000D02*
X134311000Y-81182000D01*
X134271000Y-71210000D02*
X134271000Y-81190000D01*
X134231000Y-71203000D02*
X134231000Y-81197000D01*
X134191000Y-71196000D02*
X134191000Y-81204000D01*
X134151000Y-71189000D02*
X134151000Y-81211000D01*
X134111000Y-71182000D02*
X134111000Y-81218000D01*
X134071000Y-71176000D02*
X134071000Y-81224000D01*
X134031000Y-71170000D02*
X134031000Y-81230000D01*
X133990000Y-71165000D02*
X133990000Y-81235000D01*
X133950000Y-71160000D02*
X133950000Y-81240000D01*
X133910000Y-71155000D02*
X133910000Y-81245000D01*
X133870000Y-71150000D02*
X133870000Y-81250000D01*
X133830000Y-71146000D02*
X133830000Y-81254000D01*
X133790000Y-71142000D02*
X133790000Y-81258000D01*
X133750000Y-71138000D02*
X133750000Y-81262000D01*
X133710000Y-71135000D02*
X133710000Y-81265000D01*
X133670000Y-71132000D02*
X133670000Y-81268000D01*
X133630000Y-71130000D02*
X133630000Y-81270000D01*
X133590000Y-71127000D02*
X133590000Y-81273000D01*
X133550000Y-71125000D02*
X133550000Y-81275000D01*
X133510000Y-71123000D02*
X133510000Y-81277000D01*
X133470000Y-71122000D02*
X133470000Y-81278000D01*
X133430000Y-71121000D02*
X133430000Y-81279000D01*
X133390000Y-71120000D02*
X133390000Y-81280000D01*
X133350000Y-71120000D02*
X133350000Y-81280000D01*
X133310000Y-71120000D02*
X133310000Y-81280000D01*
X138430000Y-76200000D02*
G75*
G03X138430000Y-76200000I-5120000J0D01*
G01*
X141030354Y-60125000D02*
X141030354Y-61125000D01*
X140530354Y-60625000D02*
X141530354Y-60625000D01*
X151091000Y-62901000D02*
X151091000Y-64099000D01*
X151051000Y-62638000D02*
X151051000Y-64362000D01*
X151011000Y-62438000D02*
X151011000Y-64562000D01*
X150971000Y-62270000D02*
X150971000Y-64730000D01*
X150931000Y-62122000D02*
X150931000Y-64878000D01*
X150891000Y-61990000D02*
X150891000Y-65010000D01*
X150851000Y-61870000D02*
X150851000Y-65130000D01*
X150811000Y-61758000D02*
X150811000Y-65242000D01*
X150771000Y-61654000D02*
X150771000Y-65346000D01*
X150731000Y-61556000D02*
X150731000Y-65444000D01*
X150691000Y-61463000D02*
X150691000Y-65537000D01*
X150651000Y-61375000D02*
X150651000Y-65625000D01*
X150611000Y-61291000D02*
X150611000Y-65709000D01*
X150571000Y-61211000D02*
X150571000Y-65789000D01*
X150531000Y-61135000D02*
X150531000Y-65865000D01*
X150491000Y-61061000D02*
X150491000Y-65939000D01*
X150451000Y-60990000D02*
X150451000Y-66010000D01*
X150411000Y-60921000D02*
X150411000Y-66079000D01*
X150371000Y-60855000D02*
X150371000Y-66145000D01*
X150331000Y-60791000D02*
X150331000Y-66209000D01*
X150291000Y-60730000D02*
X150291000Y-66270000D01*
X150251000Y-60670000D02*
X150251000Y-66330000D01*
X150211000Y-60611000D02*
X150211000Y-66389000D01*
X150171000Y-60555000D02*
X150171000Y-66445000D01*
X150131000Y-60500000D02*
X150131000Y-66500000D01*
X150091000Y-60446000D02*
X150091000Y-66554000D01*
X150051000Y-60394000D02*
X150051000Y-66606000D01*
X150011000Y-60344000D02*
X150011000Y-66656000D01*
X149971000Y-60294000D02*
X149971000Y-66706000D01*
X149931000Y-60246000D02*
X149931000Y-66754000D01*
X149891000Y-60199000D02*
X149891000Y-66801000D01*
X149851000Y-60153000D02*
X149851000Y-66847000D01*
X149811000Y-60108000D02*
X149811000Y-66892000D01*
X149771000Y-60064000D02*
X149771000Y-66936000D01*
X149731000Y-64741000D02*
X149731000Y-66978000D01*
X149731000Y-60022000D02*
X149731000Y-62259000D01*
X149691000Y-64741000D02*
X149691000Y-67020000D01*
X149691000Y-59980000D02*
X149691000Y-62259000D01*
X149651000Y-64741000D02*
X149651000Y-67061000D01*
X149651000Y-59939000D02*
X149651000Y-62259000D01*
X149611000Y-64741000D02*
X149611000Y-67101000D01*
X149611000Y-59899000D02*
X149611000Y-62259000D01*
X149571000Y-64741000D02*
X149571000Y-67140000D01*
X149571000Y-59860000D02*
X149571000Y-62259000D01*
X149531000Y-64741000D02*
X149531000Y-67179000D01*
X149531000Y-59821000D02*
X149531000Y-62259000D01*
X149491000Y-64741000D02*
X149491000Y-67216000D01*
X149491000Y-59784000D02*
X149491000Y-62259000D01*
X149451000Y-64741000D02*
X149451000Y-67253000D01*
X149451000Y-59747000D02*
X149451000Y-62259000D01*
X149411000Y-64741000D02*
X149411000Y-67289000D01*
X149411000Y-59711000D02*
X149411000Y-62259000D01*
X149371000Y-64741000D02*
X149371000Y-67324000D01*
X149371000Y-59676000D02*
X149371000Y-62259000D01*
X149331000Y-64741000D02*
X149331000Y-67358000D01*
X149331000Y-59642000D02*
X149331000Y-62259000D01*
X149291000Y-64741000D02*
X149291000Y-67392000D01*
X149291000Y-59608000D02*
X149291000Y-62259000D01*
X149251000Y-64741000D02*
X149251000Y-67425000D01*
X149251000Y-59575000D02*
X149251000Y-62259000D01*
X149211000Y-64741000D02*
X149211000Y-67457000D01*
X149211000Y-59543000D02*
X149211000Y-62259000D01*
X149171000Y-64741000D02*
X149171000Y-67489000D01*
X149171000Y-59511000D02*
X149171000Y-62259000D01*
X149131000Y-64741000D02*
X149131000Y-67520000D01*
X149131000Y-59480000D02*
X149131000Y-62259000D01*
X149091000Y-64741000D02*
X149091000Y-67550000D01*
X149091000Y-59450000D02*
X149091000Y-62259000D01*
X149051000Y-64741000D02*
X149051000Y-67580000D01*
X149051000Y-59420000D02*
X149051000Y-62259000D01*
X149011000Y-64741000D02*
X149011000Y-67610000D01*
X149011000Y-59390000D02*
X149011000Y-62259000D01*
X148971000Y-64741000D02*
X148971000Y-67638000D01*
X148971000Y-59362000D02*
X148971000Y-62259000D01*
X148931000Y-64741000D02*
X148931000Y-67666000D01*
X148931000Y-59334000D02*
X148931000Y-62259000D01*
X148891000Y-64741000D02*
X148891000Y-67694000D01*
X148891000Y-59306000D02*
X148891000Y-62259000D01*
X148851000Y-64741000D02*
X148851000Y-67721000D01*
X148851000Y-59279000D02*
X148851000Y-62259000D01*
X148811000Y-64741000D02*
X148811000Y-67747000D01*
X148811000Y-59253000D02*
X148811000Y-62259000D01*
X148771000Y-64741000D02*
X148771000Y-67773000D01*
X148771000Y-59227000D02*
X148771000Y-62259000D01*
X148731000Y-64741000D02*
X148731000Y-67798000D01*
X148731000Y-59202000D02*
X148731000Y-62259000D01*
X148691000Y-64741000D02*
X148691000Y-67823000D01*
X148691000Y-59177000D02*
X148691000Y-62259000D01*
X148651000Y-64741000D02*
X148651000Y-67847000D01*
X148651000Y-59153000D02*
X148651000Y-62259000D01*
X148611000Y-64741000D02*
X148611000Y-67871000D01*
X148611000Y-59129000D02*
X148611000Y-62259000D01*
X148571000Y-64741000D02*
X148571000Y-67895000D01*
X148571000Y-59105000D02*
X148571000Y-62259000D01*
X148531000Y-64741000D02*
X148531000Y-67917000D01*
X148531000Y-59083000D02*
X148531000Y-62259000D01*
X148491000Y-64741000D02*
X148491000Y-67940000D01*
X148491000Y-59060000D02*
X148491000Y-62259000D01*
X148451000Y-64741000D02*
X148451000Y-67962000D01*
X148451000Y-59038000D02*
X148451000Y-62259000D01*
X148411000Y-64741000D02*
X148411000Y-67983000D01*
X148411000Y-59017000D02*
X148411000Y-62259000D01*
X148371000Y-64741000D02*
X148371000Y-68004000D01*
X148371000Y-58996000D02*
X148371000Y-62259000D01*
X148331000Y-64741000D02*
X148331000Y-68025000D01*
X148331000Y-58975000D02*
X148331000Y-62259000D01*
X148291000Y-64741000D02*
X148291000Y-68045000D01*
X148291000Y-58955000D02*
X148291000Y-62259000D01*
X148251000Y-64741000D02*
X148251000Y-68064000D01*
X148251000Y-58936000D02*
X148251000Y-62259000D01*
X148211000Y-64741000D02*
X148211000Y-68084000D01*
X148211000Y-58916000D02*
X148211000Y-62259000D01*
X148171000Y-64741000D02*
X148171000Y-68103000D01*
X148171000Y-58897000D02*
X148171000Y-62259000D01*
X148131000Y-64741000D02*
X148131000Y-68121000D01*
X148131000Y-58879000D02*
X148131000Y-62259000D01*
X148091000Y-64741000D02*
X148091000Y-68139000D01*
X148091000Y-58861000D02*
X148091000Y-62259000D01*
X148051000Y-64741000D02*
X148051000Y-68157000D01*
X148051000Y-58843000D02*
X148051000Y-62259000D01*
X148011000Y-64741000D02*
X148011000Y-68174000D01*
X148011000Y-58826000D02*
X148011000Y-62259000D01*
X147971000Y-64741000D02*
X147971000Y-68190000D01*
X147971000Y-58810000D02*
X147971000Y-62259000D01*
X147931000Y-64741000D02*
X147931000Y-68207000D01*
X147931000Y-58793000D02*
X147931000Y-62259000D01*
X147891000Y-64741000D02*
X147891000Y-68223000D01*
X147891000Y-58777000D02*
X147891000Y-62259000D01*
X147851000Y-64741000D02*
X147851000Y-68238000D01*
X147851000Y-58762000D02*
X147851000Y-62259000D01*
X147811000Y-64741000D02*
X147811000Y-68254000D01*
X147811000Y-58746000D02*
X147811000Y-62259000D01*
X147771000Y-64741000D02*
X147771000Y-68268000D01*
X147771000Y-58732000D02*
X147771000Y-62259000D01*
X147731000Y-64741000D02*
X147731000Y-68283000D01*
X147731000Y-58717000D02*
X147731000Y-62259000D01*
X147691000Y-64741000D02*
X147691000Y-68297000D01*
X147691000Y-58703000D02*
X147691000Y-62259000D01*
X147651000Y-64741000D02*
X147651000Y-68311000D01*
X147651000Y-58689000D02*
X147651000Y-62259000D01*
X147611000Y-64741000D02*
X147611000Y-68324000D01*
X147611000Y-58676000D02*
X147611000Y-62259000D01*
X147571000Y-64741000D02*
X147571000Y-68337000D01*
X147571000Y-58663000D02*
X147571000Y-62259000D01*
X147531000Y-64741000D02*
X147531000Y-68350000D01*
X147531000Y-58650000D02*
X147531000Y-62259000D01*
X147491000Y-64741000D02*
X147491000Y-68362000D01*
X147491000Y-58638000D02*
X147491000Y-62259000D01*
X147451000Y-64741000D02*
X147451000Y-68374000D01*
X147451000Y-58626000D02*
X147451000Y-62259000D01*
X147411000Y-64741000D02*
X147411000Y-68385000D01*
X147411000Y-58615000D02*
X147411000Y-62259000D01*
X147371000Y-64741000D02*
X147371000Y-68397000D01*
X147371000Y-58603000D02*
X147371000Y-62259000D01*
X147331000Y-64741000D02*
X147331000Y-68407000D01*
X147331000Y-58593000D02*
X147331000Y-62259000D01*
X147291000Y-64741000D02*
X147291000Y-68418000D01*
X147291000Y-58582000D02*
X147291000Y-62259000D01*
X147251000Y-58572000D02*
X147251000Y-68428000D01*
X147211000Y-58562000D02*
X147211000Y-68438000D01*
X147171000Y-58553000D02*
X147171000Y-68447000D01*
X147131000Y-58544000D02*
X147131000Y-68456000D01*
X147091000Y-58535000D02*
X147091000Y-68465000D01*
X147051000Y-58526000D02*
X147051000Y-68474000D01*
X147011000Y-58518000D02*
X147011000Y-68482000D01*
X146971000Y-58510000D02*
X146971000Y-68490000D01*
X146931000Y-58503000D02*
X146931000Y-68497000D01*
X146891000Y-58496000D02*
X146891000Y-68504000D01*
X146851000Y-58489000D02*
X146851000Y-68511000D01*
X146811000Y-58482000D02*
X146811000Y-68518000D01*
X146771000Y-58476000D02*
X146771000Y-68524000D01*
X146731000Y-58470000D02*
X146731000Y-68530000D01*
X146690000Y-58465000D02*
X146690000Y-68535000D01*
X146650000Y-58460000D02*
X146650000Y-68540000D01*
X146610000Y-58455000D02*
X146610000Y-68545000D01*
X146570000Y-58450000D02*
X146570000Y-68550000D01*
X146530000Y-58446000D02*
X146530000Y-68554000D01*
X146490000Y-58442000D02*
X146490000Y-68558000D01*
X146450000Y-58438000D02*
X146450000Y-68562000D01*
X146410000Y-58435000D02*
X146410000Y-68565000D01*
X146370000Y-58432000D02*
X146370000Y-68568000D01*
X146330000Y-58430000D02*
X146330000Y-68570000D01*
X146290000Y-58427000D02*
X146290000Y-68573000D01*
X146250000Y-58425000D02*
X146250000Y-68575000D01*
X146210000Y-58423000D02*
X146210000Y-68577000D01*
X146170000Y-58422000D02*
X146170000Y-68578000D01*
X146130000Y-58421000D02*
X146130000Y-68579000D01*
X146090000Y-58420000D02*
X146090000Y-68580000D01*
X146050000Y-58420000D02*
X146050000Y-68580000D01*
X146010000Y-58420000D02*
X146010000Y-68580000D01*
X151130000Y-63500000D02*
G75*
G03X151130000Y-63500000I-5120000J0D01*
G01*
X128330354Y-60125000D02*
X128330354Y-61125000D01*
X127830354Y-60625000D02*
X128830354Y-60625000D01*
X138391000Y-62901000D02*
X138391000Y-64099000D01*
X138351000Y-62638000D02*
X138351000Y-64362000D01*
X138311000Y-62438000D02*
X138311000Y-64562000D01*
X138271000Y-62270000D02*
X138271000Y-64730000D01*
X138231000Y-62122000D02*
X138231000Y-64878000D01*
X138191000Y-61990000D02*
X138191000Y-65010000D01*
X138151000Y-61870000D02*
X138151000Y-65130000D01*
X138111000Y-61758000D02*
X138111000Y-65242000D01*
X138071000Y-61654000D02*
X138071000Y-65346000D01*
X138031000Y-61556000D02*
X138031000Y-65444000D01*
X137991000Y-61463000D02*
X137991000Y-65537000D01*
X137951000Y-61375000D02*
X137951000Y-65625000D01*
X137911000Y-61291000D02*
X137911000Y-65709000D01*
X137871000Y-61211000D02*
X137871000Y-65789000D01*
X137831000Y-61135000D02*
X137831000Y-65865000D01*
X137791000Y-61061000D02*
X137791000Y-65939000D01*
X137751000Y-60990000D02*
X137751000Y-66010000D01*
X137711000Y-60921000D02*
X137711000Y-66079000D01*
X137671000Y-60855000D02*
X137671000Y-66145000D01*
X137631000Y-60791000D02*
X137631000Y-66209000D01*
X137591000Y-60730000D02*
X137591000Y-66270000D01*
X137551000Y-60670000D02*
X137551000Y-66330000D01*
X137511000Y-60611000D02*
X137511000Y-66389000D01*
X137471000Y-60555000D02*
X137471000Y-66445000D01*
X137431000Y-60500000D02*
X137431000Y-66500000D01*
X137391000Y-60446000D02*
X137391000Y-66554000D01*
X137351000Y-60394000D02*
X137351000Y-66606000D01*
X137311000Y-60344000D02*
X137311000Y-66656000D01*
X137271000Y-60294000D02*
X137271000Y-66706000D01*
X137231000Y-60246000D02*
X137231000Y-66754000D01*
X137191000Y-60199000D02*
X137191000Y-66801000D01*
X137151000Y-60153000D02*
X137151000Y-66847000D01*
X137111000Y-60108000D02*
X137111000Y-66892000D01*
X137071000Y-60064000D02*
X137071000Y-66936000D01*
X137031000Y-64741000D02*
X137031000Y-66978000D01*
X137031000Y-60022000D02*
X137031000Y-62259000D01*
X136991000Y-64741000D02*
X136991000Y-67020000D01*
X136991000Y-59980000D02*
X136991000Y-62259000D01*
X136951000Y-64741000D02*
X136951000Y-67061000D01*
X136951000Y-59939000D02*
X136951000Y-62259000D01*
X136911000Y-64741000D02*
X136911000Y-67101000D01*
X136911000Y-59899000D02*
X136911000Y-62259000D01*
X136871000Y-64741000D02*
X136871000Y-67140000D01*
X136871000Y-59860000D02*
X136871000Y-62259000D01*
X136831000Y-64741000D02*
X136831000Y-67179000D01*
X136831000Y-59821000D02*
X136831000Y-62259000D01*
X136791000Y-64741000D02*
X136791000Y-67216000D01*
X136791000Y-59784000D02*
X136791000Y-62259000D01*
X136751000Y-64741000D02*
X136751000Y-67253000D01*
X136751000Y-59747000D02*
X136751000Y-62259000D01*
X136711000Y-64741000D02*
X136711000Y-67289000D01*
X136711000Y-59711000D02*
X136711000Y-62259000D01*
X136671000Y-64741000D02*
X136671000Y-67324000D01*
X136671000Y-59676000D02*
X136671000Y-62259000D01*
X136631000Y-64741000D02*
X136631000Y-67358000D01*
X136631000Y-59642000D02*
X136631000Y-62259000D01*
X136591000Y-64741000D02*
X136591000Y-67392000D01*
X136591000Y-59608000D02*
X136591000Y-62259000D01*
X136551000Y-64741000D02*
X136551000Y-67425000D01*
X136551000Y-59575000D02*
X136551000Y-62259000D01*
X136511000Y-64741000D02*
X136511000Y-67457000D01*
X136511000Y-59543000D02*
X136511000Y-62259000D01*
X136471000Y-64741000D02*
X136471000Y-67489000D01*
X136471000Y-59511000D02*
X136471000Y-62259000D01*
X136431000Y-64741000D02*
X136431000Y-67520000D01*
X136431000Y-59480000D02*
X136431000Y-62259000D01*
X136391000Y-64741000D02*
X136391000Y-67550000D01*
X136391000Y-59450000D02*
X136391000Y-62259000D01*
X136351000Y-64741000D02*
X136351000Y-67580000D01*
X136351000Y-59420000D02*
X136351000Y-62259000D01*
X136311000Y-64741000D02*
X136311000Y-67610000D01*
X136311000Y-59390000D02*
X136311000Y-62259000D01*
X136271000Y-64741000D02*
X136271000Y-67638000D01*
X136271000Y-59362000D02*
X136271000Y-62259000D01*
X136231000Y-64741000D02*
X136231000Y-67666000D01*
X136231000Y-59334000D02*
X136231000Y-62259000D01*
X136191000Y-64741000D02*
X136191000Y-67694000D01*
X136191000Y-59306000D02*
X136191000Y-62259000D01*
X136151000Y-64741000D02*
X136151000Y-67721000D01*
X136151000Y-59279000D02*
X136151000Y-62259000D01*
X136111000Y-64741000D02*
X136111000Y-67747000D01*
X136111000Y-59253000D02*
X136111000Y-62259000D01*
X136071000Y-64741000D02*
X136071000Y-67773000D01*
X136071000Y-59227000D02*
X136071000Y-62259000D01*
X136031000Y-64741000D02*
X136031000Y-67798000D01*
X136031000Y-59202000D02*
X136031000Y-62259000D01*
X135991000Y-64741000D02*
X135991000Y-67823000D01*
X135991000Y-59177000D02*
X135991000Y-62259000D01*
X135951000Y-64741000D02*
X135951000Y-67847000D01*
X135951000Y-59153000D02*
X135951000Y-62259000D01*
X135911000Y-64741000D02*
X135911000Y-67871000D01*
X135911000Y-59129000D02*
X135911000Y-62259000D01*
X135871000Y-64741000D02*
X135871000Y-67895000D01*
X135871000Y-59105000D02*
X135871000Y-62259000D01*
X135831000Y-64741000D02*
X135831000Y-67917000D01*
X135831000Y-59083000D02*
X135831000Y-62259000D01*
X135791000Y-64741000D02*
X135791000Y-67940000D01*
X135791000Y-59060000D02*
X135791000Y-62259000D01*
X135751000Y-64741000D02*
X135751000Y-67962000D01*
X135751000Y-59038000D02*
X135751000Y-62259000D01*
X135711000Y-64741000D02*
X135711000Y-67983000D01*
X135711000Y-59017000D02*
X135711000Y-62259000D01*
X135671000Y-64741000D02*
X135671000Y-68004000D01*
X135671000Y-58996000D02*
X135671000Y-62259000D01*
X135631000Y-64741000D02*
X135631000Y-68025000D01*
X135631000Y-58975000D02*
X135631000Y-62259000D01*
X135591000Y-64741000D02*
X135591000Y-68045000D01*
X135591000Y-58955000D02*
X135591000Y-62259000D01*
X135551000Y-64741000D02*
X135551000Y-68064000D01*
X135551000Y-58936000D02*
X135551000Y-62259000D01*
X135511000Y-64741000D02*
X135511000Y-68084000D01*
X135511000Y-58916000D02*
X135511000Y-62259000D01*
X135471000Y-64741000D02*
X135471000Y-68103000D01*
X135471000Y-58897000D02*
X135471000Y-62259000D01*
X135431000Y-64741000D02*
X135431000Y-68121000D01*
X135431000Y-58879000D02*
X135431000Y-62259000D01*
X135391000Y-64741000D02*
X135391000Y-68139000D01*
X135391000Y-58861000D02*
X135391000Y-62259000D01*
X135351000Y-64741000D02*
X135351000Y-68157000D01*
X135351000Y-58843000D02*
X135351000Y-62259000D01*
X135311000Y-64741000D02*
X135311000Y-68174000D01*
X135311000Y-58826000D02*
X135311000Y-62259000D01*
X135271000Y-64741000D02*
X135271000Y-68190000D01*
X135271000Y-58810000D02*
X135271000Y-62259000D01*
X135231000Y-64741000D02*
X135231000Y-68207000D01*
X135231000Y-58793000D02*
X135231000Y-62259000D01*
X135191000Y-64741000D02*
X135191000Y-68223000D01*
X135191000Y-58777000D02*
X135191000Y-62259000D01*
X135151000Y-64741000D02*
X135151000Y-68238000D01*
X135151000Y-58762000D02*
X135151000Y-62259000D01*
X135111000Y-64741000D02*
X135111000Y-68254000D01*
X135111000Y-58746000D02*
X135111000Y-62259000D01*
X135071000Y-64741000D02*
X135071000Y-68268000D01*
X135071000Y-58732000D02*
X135071000Y-62259000D01*
X135031000Y-64741000D02*
X135031000Y-68283000D01*
X135031000Y-58717000D02*
X135031000Y-62259000D01*
X134991000Y-64741000D02*
X134991000Y-68297000D01*
X134991000Y-58703000D02*
X134991000Y-62259000D01*
X134951000Y-64741000D02*
X134951000Y-68311000D01*
X134951000Y-58689000D02*
X134951000Y-62259000D01*
X134911000Y-64741000D02*
X134911000Y-68324000D01*
X134911000Y-58676000D02*
X134911000Y-62259000D01*
X134871000Y-64741000D02*
X134871000Y-68337000D01*
X134871000Y-58663000D02*
X134871000Y-62259000D01*
X134831000Y-64741000D02*
X134831000Y-68350000D01*
X134831000Y-58650000D02*
X134831000Y-62259000D01*
X134791000Y-64741000D02*
X134791000Y-68362000D01*
X134791000Y-58638000D02*
X134791000Y-62259000D01*
X134751000Y-64741000D02*
X134751000Y-68374000D01*
X134751000Y-58626000D02*
X134751000Y-62259000D01*
X134711000Y-64741000D02*
X134711000Y-68385000D01*
X134711000Y-58615000D02*
X134711000Y-62259000D01*
X134671000Y-64741000D02*
X134671000Y-68397000D01*
X134671000Y-58603000D02*
X134671000Y-62259000D01*
X134631000Y-64741000D02*
X134631000Y-68407000D01*
X134631000Y-58593000D02*
X134631000Y-62259000D01*
X134591000Y-64741000D02*
X134591000Y-68418000D01*
X134591000Y-58582000D02*
X134591000Y-62259000D01*
X134551000Y-58572000D02*
X134551000Y-68428000D01*
X134511000Y-58562000D02*
X134511000Y-68438000D01*
X134471000Y-58553000D02*
X134471000Y-68447000D01*
X134431000Y-58544000D02*
X134431000Y-68456000D01*
X134391000Y-58535000D02*
X134391000Y-68465000D01*
X134351000Y-58526000D02*
X134351000Y-68474000D01*
X134311000Y-58518000D02*
X134311000Y-68482000D01*
X134271000Y-58510000D02*
X134271000Y-68490000D01*
X134231000Y-58503000D02*
X134231000Y-68497000D01*
X134191000Y-58496000D02*
X134191000Y-68504000D01*
X134151000Y-58489000D02*
X134151000Y-68511000D01*
X134111000Y-58482000D02*
X134111000Y-68518000D01*
X134071000Y-58476000D02*
X134071000Y-68524000D01*
X134031000Y-58470000D02*
X134031000Y-68530000D01*
X133990000Y-58465000D02*
X133990000Y-68535000D01*
X133950000Y-58460000D02*
X133950000Y-68540000D01*
X133910000Y-58455000D02*
X133910000Y-68545000D01*
X133870000Y-58450000D02*
X133870000Y-68550000D01*
X133830000Y-58446000D02*
X133830000Y-68554000D01*
X133790000Y-58442000D02*
X133790000Y-68558000D01*
X133750000Y-58438000D02*
X133750000Y-68562000D01*
X133710000Y-58435000D02*
X133710000Y-68565000D01*
X133670000Y-58432000D02*
X133670000Y-68568000D01*
X133630000Y-58430000D02*
X133630000Y-68570000D01*
X133590000Y-58427000D02*
X133590000Y-68573000D01*
X133550000Y-58425000D02*
X133550000Y-68575000D01*
X133510000Y-58423000D02*
X133510000Y-68577000D01*
X133470000Y-58422000D02*
X133470000Y-68578000D01*
X133430000Y-58421000D02*
X133430000Y-68579000D01*
X133390000Y-58420000D02*
X133390000Y-68580000D01*
X133350000Y-58420000D02*
X133350000Y-68580000D01*
X133310000Y-58420000D02*
X133310000Y-68580000D01*
X138430000Y-63500000D02*
G75*
G03X138430000Y-63500000I-5120000J0D01*
G01*
D10*
X121753333Y-93162380D02*
X121420000Y-92686190D01*
X121181904Y-93162380D02*
X121181904Y-92162380D01*
X121562857Y-92162380D01*
X121658095Y-92210000D01*
X121705714Y-92257619D01*
X121753333Y-92352857D01*
X121753333Y-92495714D01*
X121705714Y-92590952D01*
X121658095Y-92638571D01*
X121562857Y-92686190D01*
X121181904Y-92686190D01*
X122705714Y-93162380D02*
X122134285Y-93162380D01*
X122420000Y-93162380D02*
X122420000Y-92162380D01*
X122324761Y-92305238D01*
X122229523Y-92400476D01*
X122134285Y-92448095D01*
X111696666Y-36012380D02*
X111363333Y-35536190D01*
X111125238Y-36012380D02*
X111125238Y-35012380D01*
X111506190Y-35012380D01*
X111601428Y-35060000D01*
X111649047Y-35107619D01*
X111696666Y-35202857D01*
X111696666Y-35345714D01*
X111649047Y-35440952D01*
X111601428Y-35488571D01*
X111506190Y-35536190D01*
X111125238Y-35536190D01*
X112125238Y-35488571D02*
X112458571Y-35488571D01*
X112601428Y-36012380D02*
X112125238Y-36012380D01*
X112125238Y-35012380D01*
X112601428Y-35012380D01*
X113363333Y-35488571D02*
X113030000Y-35488571D01*
X113030000Y-36012380D02*
X113030000Y-35012380D01*
X113506190Y-35012380D01*
X114030000Y-35012380D02*
X114030000Y-35250476D01*
X113791904Y-35155238D02*
X114030000Y-35250476D01*
X114268095Y-35155238D01*
X113887142Y-35440952D02*
X114030000Y-35250476D01*
X114172857Y-35440952D01*
X114791904Y-35012380D02*
X114791904Y-35250476D01*
X114553809Y-35155238D02*
X114791904Y-35250476D01*
X115030000Y-35155238D01*
X114649047Y-35440952D02*
X114791904Y-35250476D01*
X114934761Y-35440952D01*
X164020666Y-36012380D02*
X163687333Y-35536190D01*
X163449238Y-36012380D02*
X163449238Y-35012380D01*
X163830190Y-35012380D01*
X163925428Y-35060000D01*
X163973047Y-35107619D01*
X164020666Y-35202857D01*
X164020666Y-35345714D01*
X163973047Y-35440952D01*
X163925428Y-35488571D01*
X163830190Y-35536190D01*
X163449238Y-35536190D01*
X164449238Y-35488571D02*
X164782571Y-35488571D01*
X164925428Y-36012380D02*
X164449238Y-36012380D01*
X164449238Y-35012380D01*
X164925428Y-35012380D01*
X165687333Y-35488571D02*
X165354000Y-35488571D01*
X165354000Y-36012380D02*
X165354000Y-35012380D01*
X165830190Y-35012380D01*
X166354000Y-35012380D02*
X166354000Y-35250476D01*
X166115904Y-35155238D02*
X166354000Y-35250476D01*
X166592095Y-35155238D01*
X166211142Y-35440952D02*
X166354000Y-35250476D01*
X166496857Y-35440952D01*
X167115904Y-35012380D02*
X167115904Y-35250476D01*
X166877809Y-35155238D02*
X167115904Y-35250476D01*
X167354000Y-35155238D01*
X166973047Y-35440952D02*
X167115904Y-35250476D01*
X167258761Y-35440952D01*
X156011904Y-96972380D02*
X156011904Y-95972380D01*
X156250000Y-95972380D01*
X156392857Y-96020000D01*
X156488095Y-96115238D01*
X156535714Y-96210476D01*
X156583333Y-96400952D01*
X156583333Y-96543809D01*
X156535714Y-96734285D01*
X156488095Y-96829523D01*
X156392857Y-96924761D01*
X156250000Y-96972380D01*
X156011904Y-96972380D01*
X157488095Y-95972380D02*
X157011904Y-95972380D01*
X156964285Y-96448571D01*
X157011904Y-96400952D01*
X157107142Y-96353333D01*
X157345238Y-96353333D01*
X157440476Y-96400952D01*
X157488095Y-96448571D01*
X157535714Y-96543809D01*
X157535714Y-96781904D01*
X157488095Y-96877142D01*
X157440476Y-96924761D01*
X157345238Y-96972380D01*
X157107142Y-96972380D01*
X157011904Y-96924761D01*
X156964285Y-96877142D01*
X160298095Y-98872380D02*
X160298095Y-97872380D01*
X160869523Y-98872380D02*
X160440952Y-98300952D01*
X160869523Y-97872380D02*
X160298095Y-98443809D01*
X157313333Y-93162380D02*
X156980000Y-92686190D01*
X156741904Y-93162380D02*
X156741904Y-92162380D01*
X157122857Y-92162380D01*
X157218095Y-92210000D01*
X157265714Y-92257619D01*
X157313333Y-92352857D01*
X157313333Y-92495714D01*
X157265714Y-92590952D01*
X157218095Y-92638571D01*
X157122857Y-92686190D01*
X156741904Y-92686190D01*
X157694285Y-92257619D02*
X157741904Y-92210000D01*
X157837142Y-92162380D01*
X158075238Y-92162380D01*
X158170476Y-92210000D01*
X158218095Y-92257619D01*
X158265714Y-92352857D01*
X158265714Y-92448095D01*
X158218095Y-92590952D01*
X157646666Y-93162380D01*
X158265714Y-93162380D01*
X152806666Y-47922380D02*
X152806666Y-48636666D01*
X152759047Y-48779523D01*
X152663809Y-48874761D01*
X152520952Y-48922380D01*
X152425714Y-48922380D01*
X153187619Y-47922380D02*
X153806666Y-47922380D01*
X153473333Y-48303333D01*
X153616190Y-48303333D01*
X153711428Y-48350952D01*
X153759047Y-48398571D01*
X153806666Y-48493809D01*
X153806666Y-48731904D01*
X153759047Y-48827142D01*
X153711428Y-48874761D01*
X153616190Y-48922380D01*
X153330476Y-48922380D01*
X153235238Y-48874761D01*
X153187619Y-48827142D01*
X136826666Y-45172380D02*
X136826666Y-45886666D01*
X136779047Y-46029523D01*
X136683809Y-46124761D01*
X136540952Y-46172380D01*
X136445714Y-46172380D01*
X137826666Y-46172380D02*
X137255238Y-46172380D01*
X137540952Y-46172380D02*
X137540952Y-45172380D01*
X137445714Y-45315238D01*
X137350476Y-45410476D01*
X137255238Y-45458095D01*
X121911904Y-96972380D02*
X121911904Y-95972380D01*
X122150000Y-95972380D01*
X122292857Y-96020000D01*
X122388095Y-96115238D01*
X122435714Y-96210476D01*
X122483333Y-96400952D01*
X122483333Y-96543809D01*
X122435714Y-96734285D01*
X122388095Y-96829523D01*
X122292857Y-96924761D01*
X122150000Y-96972380D01*
X121911904Y-96972380D01*
X123340476Y-96305714D02*
X123340476Y-96972380D01*
X123102380Y-95924761D02*
X122864285Y-96639047D01*
X123483333Y-96639047D01*
X126198095Y-98872380D02*
X126198095Y-97872380D01*
X126769523Y-98872380D02*
X126340952Y-98300952D01*
X126769523Y-97872380D02*
X126198095Y-98443809D01*
X155440142Y-67667142D02*
X155392523Y-67714761D01*
X155249666Y-67762380D01*
X155154428Y-67762380D01*
X155011571Y-67714761D01*
X154916333Y-67619523D01*
X154868714Y-67524285D01*
X154821095Y-67333809D01*
X154821095Y-67190952D01*
X154868714Y-67000476D01*
X154916333Y-66905238D01*
X155011571Y-66810000D01*
X155154428Y-66762380D01*
X155249666Y-66762380D01*
X155392523Y-66810000D01*
X155440142Y-66857619D01*
X156392523Y-67762380D02*
X155821095Y-67762380D01*
X156106809Y-67762380D02*
X156106809Y-66762380D01*
X156011571Y-66905238D01*
X155916333Y-67000476D01*
X155821095Y-67048095D01*
X157249666Y-67095714D02*
X157249666Y-67762380D01*
X157011571Y-66714761D02*
X156773476Y-67429047D01*
X157392523Y-67429047D01*
X117547142Y-67667142D02*
X117499523Y-67714761D01*
X117356666Y-67762380D01*
X117261428Y-67762380D01*
X117118571Y-67714761D01*
X117023333Y-67619523D01*
X116975714Y-67524285D01*
X116928095Y-67333809D01*
X116928095Y-67190952D01*
X116975714Y-67000476D01*
X117023333Y-66905238D01*
X117118571Y-66810000D01*
X117261428Y-66762380D01*
X117356666Y-66762380D01*
X117499523Y-66810000D01*
X117547142Y-66857619D01*
X118499523Y-67762380D02*
X117928095Y-67762380D01*
X118213809Y-67762380D02*
X118213809Y-66762380D01*
X118118571Y-66905238D01*
X118023333Y-67000476D01*
X117928095Y-67048095D01*
X118832857Y-66762380D02*
X119451904Y-66762380D01*
X119118571Y-67143333D01*
X119261428Y-67143333D01*
X119356666Y-67190952D01*
X119404285Y-67238571D01*
X119451904Y-67333809D01*
X119451904Y-67571904D01*
X119404285Y-67667142D01*
X119356666Y-67714761D01*
X119261428Y-67762380D01*
X118975714Y-67762380D01*
X118880476Y-67714761D01*
X118832857Y-67667142D01*
X155448095Y-82002380D02*
X155448095Y-82811904D01*
X155495714Y-82907142D01*
X155543333Y-82954761D01*
X155638571Y-83002380D01*
X155829047Y-83002380D01*
X155924285Y-82954761D01*
X155971904Y-82907142D01*
X156019523Y-82811904D01*
X156019523Y-82002380D01*
X156448095Y-82097619D02*
X156495714Y-82050000D01*
X156590952Y-82002380D01*
X156829047Y-82002380D01*
X156924285Y-82050000D01*
X156971904Y-82097619D01*
X157019523Y-82192857D01*
X157019523Y-82288095D01*
X156971904Y-82430952D01*
X156400476Y-83002380D01*
X157019523Y-83002380D01*
X114808095Y-82002380D02*
X114808095Y-82811904D01*
X114855714Y-82907142D01*
X114903333Y-82954761D01*
X114998571Y-83002380D01*
X115189047Y-83002380D01*
X115284285Y-82954761D01*
X115331904Y-82907142D01*
X115379523Y-82811904D01*
X115379523Y-82002380D01*
X116379523Y-83002380D02*
X115808095Y-83002380D01*
X116093809Y-83002380D02*
X116093809Y-82002380D01*
X115998571Y-82145238D01*
X115903333Y-82240476D01*
X115808095Y-82288095D01*
X144184761Y-91892380D02*
X143851428Y-91416190D01*
X143613333Y-91892380D02*
X143613333Y-90892380D01*
X143994285Y-90892380D01*
X144089523Y-90940000D01*
X144137142Y-90987619D01*
X144184761Y-91082857D01*
X144184761Y-91225714D01*
X144137142Y-91320952D01*
X144089523Y-91368571D01*
X143994285Y-91416190D01*
X143613333Y-91416190D01*
X144470476Y-90892380D02*
X144803809Y-91892380D01*
X145137142Y-90892380D01*
X145422857Y-90987619D02*
X145470476Y-90940000D01*
X145565714Y-90892380D01*
X145803809Y-90892380D01*
X145899047Y-90940000D01*
X145946666Y-90987619D01*
X145994285Y-91082857D01*
X145994285Y-91178095D01*
X145946666Y-91320952D01*
X145375238Y-91892380D01*
X145994285Y-91892380D01*
X136564761Y-91892380D02*
X136231428Y-91416190D01*
X135993333Y-91892380D02*
X135993333Y-90892380D01*
X136374285Y-90892380D01*
X136469523Y-90940000D01*
X136517142Y-90987619D01*
X136564761Y-91082857D01*
X136564761Y-91225714D01*
X136517142Y-91320952D01*
X136469523Y-91368571D01*
X136374285Y-91416190D01*
X135993333Y-91416190D01*
X136850476Y-90892380D02*
X137183809Y-91892380D01*
X137517142Y-90892380D01*
X138374285Y-91892380D02*
X137802857Y-91892380D01*
X138088571Y-91892380D02*
X138088571Y-90892380D01*
X137993333Y-91035238D01*
X137898095Y-91130476D01*
X137802857Y-91178095D01*
X117246666Y-47922380D02*
X117246666Y-48636666D01*
X117199047Y-48779523D01*
X117103809Y-48874761D01*
X116960952Y-48922380D01*
X116865714Y-48922380D01*
X117675238Y-48017619D02*
X117722857Y-47970000D01*
X117818095Y-47922380D01*
X118056190Y-47922380D01*
X118151428Y-47970000D01*
X118199047Y-48017619D01*
X118246666Y-48112857D01*
X118246666Y-48208095D01*
X118199047Y-48350952D01*
X117627619Y-48922380D01*
X118246666Y-48922380D01*
X144581904Y-96972380D02*
X144581904Y-95972380D01*
X144820000Y-95972380D01*
X144962857Y-96020000D01*
X145058095Y-96115238D01*
X145105714Y-96210476D01*
X145153333Y-96400952D01*
X145153333Y-96543809D01*
X145105714Y-96734285D01*
X145058095Y-96829523D01*
X144962857Y-96924761D01*
X144820000Y-96972380D01*
X144581904Y-96972380D01*
X145486666Y-95972380D02*
X146105714Y-95972380D01*
X145772380Y-96353333D01*
X145915238Y-96353333D01*
X146010476Y-96400952D01*
X146058095Y-96448571D01*
X146105714Y-96543809D01*
X146105714Y-96781904D01*
X146058095Y-96877142D01*
X146010476Y-96924761D01*
X145915238Y-96972380D01*
X145629523Y-96972380D01*
X145534285Y-96924761D01*
X145486666Y-96877142D01*
X148868095Y-98872380D02*
X148868095Y-97872380D01*
X149439523Y-98872380D02*
X149010952Y-98300952D01*
X149439523Y-97872380D02*
X148868095Y-98443809D01*
X133341904Y-96972380D02*
X133341904Y-95972380D01*
X133580000Y-95972380D01*
X133722857Y-96020000D01*
X133818095Y-96115238D01*
X133865714Y-96210476D01*
X133913333Y-96400952D01*
X133913333Y-96543809D01*
X133865714Y-96734285D01*
X133818095Y-96829523D01*
X133722857Y-96924761D01*
X133580000Y-96972380D01*
X133341904Y-96972380D01*
X134294285Y-96067619D02*
X134341904Y-96020000D01*
X134437142Y-95972380D01*
X134675238Y-95972380D01*
X134770476Y-96020000D01*
X134818095Y-96067619D01*
X134865714Y-96162857D01*
X134865714Y-96258095D01*
X134818095Y-96400952D01*
X134246666Y-96972380D01*
X134865714Y-96972380D01*
X137628095Y-98872380D02*
X137628095Y-97872380D01*
X138199523Y-98872380D02*
X137770952Y-98300952D01*
X138199523Y-97872380D02*
X137628095Y-98443809D01*
X138991904Y-53792380D02*
X138991904Y-52792380D01*
X139230000Y-52792380D01*
X139372857Y-52840000D01*
X139468095Y-52935238D01*
X139515714Y-53030476D01*
X139563333Y-53220952D01*
X139563333Y-53363809D01*
X139515714Y-53554285D01*
X139468095Y-53649523D01*
X139372857Y-53744761D01*
X139230000Y-53792380D01*
X138991904Y-53792380D01*
X140515714Y-53792380D02*
X139944285Y-53792380D01*
X140230000Y-53792380D02*
X140230000Y-52792380D01*
X140134761Y-52935238D01*
X140039523Y-53030476D01*
X139944285Y-53078095D01*
X156043333Y-54967142D02*
X155995714Y-55014761D01*
X155852857Y-55062380D01*
X155757619Y-55062380D01*
X155614761Y-55014761D01*
X155519523Y-54919523D01*
X155471904Y-54824285D01*
X155424285Y-54633809D01*
X155424285Y-54490952D01*
X155471904Y-54300476D01*
X155519523Y-54205238D01*
X155614761Y-54110000D01*
X155757619Y-54062380D01*
X155852857Y-54062380D01*
X155995714Y-54110000D01*
X156043333Y-54157619D01*
X156614761Y-54490952D02*
X156519523Y-54443333D01*
X156471904Y-54395714D01*
X156424285Y-54300476D01*
X156424285Y-54252857D01*
X156471904Y-54157619D01*
X156519523Y-54110000D01*
X156614761Y-54062380D01*
X156805238Y-54062380D01*
X156900476Y-54110000D01*
X156948095Y-54157619D01*
X156995714Y-54252857D01*
X156995714Y-54300476D01*
X156948095Y-54395714D01*
X156900476Y-54443333D01*
X156805238Y-54490952D01*
X156614761Y-54490952D01*
X156519523Y-54538571D01*
X156471904Y-54586190D01*
X156424285Y-54681428D01*
X156424285Y-54871904D01*
X156471904Y-54967142D01*
X156519523Y-55014761D01*
X156614761Y-55062380D01*
X156805238Y-55062380D01*
X156900476Y-55014761D01*
X156948095Y-54967142D01*
X156995714Y-54871904D01*
X156995714Y-54681428D01*
X156948095Y-54586190D01*
X156900476Y-54538571D01*
X156805238Y-54490952D01*
X117943333Y-54967142D02*
X117895714Y-55014761D01*
X117752857Y-55062380D01*
X117657619Y-55062380D01*
X117514761Y-55014761D01*
X117419523Y-54919523D01*
X117371904Y-54824285D01*
X117324285Y-54633809D01*
X117324285Y-54490952D01*
X117371904Y-54300476D01*
X117419523Y-54205238D01*
X117514761Y-54110000D01*
X117657619Y-54062380D01*
X117752857Y-54062380D01*
X117895714Y-54110000D01*
X117943333Y-54157619D01*
X118276666Y-54062380D02*
X118943333Y-54062380D01*
X118514761Y-55062380D01*
X143343333Y-74017142D02*
X143295714Y-74064761D01*
X143152857Y-74112380D01*
X143057619Y-74112380D01*
X142914761Y-74064761D01*
X142819523Y-73969523D01*
X142771904Y-73874285D01*
X142724285Y-73683809D01*
X142724285Y-73540952D01*
X142771904Y-73350476D01*
X142819523Y-73255238D01*
X142914761Y-73160000D01*
X143057619Y-73112380D01*
X143152857Y-73112380D01*
X143295714Y-73160000D01*
X143343333Y-73207619D01*
X144200476Y-73445714D02*
X144200476Y-74112380D01*
X143962380Y-73064761D02*
X143724285Y-73779047D01*
X144343333Y-73779047D01*
X130643333Y-74017142D02*
X130595714Y-74064761D01*
X130452857Y-74112380D01*
X130357619Y-74112380D01*
X130214761Y-74064761D01*
X130119523Y-73969523D01*
X130071904Y-73874285D01*
X130024285Y-73683809D01*
X130024285Y-73540952D01*
X130071904Y-73350476D01*
X130119523Y-73255238D01*
X130214761Y-73160000D01*
X130357619Y-73112380D01*
X130452857Y-73112380D01*
X130595714Y-73160000D01*
X130643333Y-73207619D01*
X130976666Y-73112380D02*
X131595714Y-73112380D01*
X131262380Y-73493333D01*
X131405238Y-73493333D01*
X131500476Y-73540952D01*
X131548095Y-73588571D01*
X131595714Y-73683809D01*
X131595714Y-73921904D01*
X131548095Y-74017142D01*
X131500476Y-74064761D01*
X131405238Y-74112380D01*
X131119523Y-74112380D01*
X131024285Y-74064761D01*
X130976666Y-74017142D01*
X143343333Y-61317142D02*
X143295714Y-61364761D01*
X143152857Y-61412380D01*
X143057619Y-61412380D01*
X142914761Y-61364761D01*
X142819523Y-61269523D01*
X142771904Y-61174285D01*
X142724285Y-60983809D01*
X142724285Y-60840952D01*
X142771904Y-60650476D01*
X142819523Y-60555238D01*
X142914761Y-60460000D01*
X143057619Y-60412380D01*
X143152857Y-60412380D01*
X143295714Y-60460000D01*
X143343333Y-60507619D01*
X143724285Y-60507619D02*
X143771904Y-60460000D01*
X143867142Y-60412380D01*
X144105238Y-60412380D01*
X144200476Y-60460000D01*
X144248095Y-60507619D01*
X144295714Y-60602857D01*
X144295714Y-60698095D01*
X144248095Y-60840952D01*
X143676666Y-61412380D01*
X144295714Y-61412380D01*
X130643333Y-61317142D02*
X130595714Y-61364761D01*
X130452857Y-61412380D01*
X130357619Y-61412380D01*
X130214761Y-61364761D01*
X130119523Y-61269523D01*
X130071904Y-61174285D01*
X130024285Y-60983809D01*
X130024285Y-60840952D01*
X130071904Y-60650476D01*
X130119523Y-60555238D01*
X130214761Y-60460000D01*
X130357619Y-60412380D01*
X130452857Y-60412380D01*
X130595714Y-60460000D01*
X130643333Y-60507619D01*
X131595714Y-61412380D02*
X131024285Y-61412380D01*
X131310000Y-61412380D02*
X131310000Y-60412380D01*
X131214761Y-60555238D01*
X131119523Y-60650476D01*
X131024285Y-60698095D01*
%LPC*%
D12*
X116840000Y-92710000D03*
D13*
X127000000Y-92710000D03*
D14*
X114000000Y-44000000D03*
D15*
X116400000Y-44000000D03*
X115697056Y-45697056D03*
X114000000Y-46400000D03*
X112302944Y-45697056D03*
X111600000Y-44000000D03*
X112302944Y-42302944D03*
X114000000Y-41600000D03*
X115697056Y-42302944D03*
X167697056Y-42302944D03*
X166000000Y-41600000D03*
X164302944Y-42302944D03*
X163600000Y-44000000D03*
X164302944Y-45697056D03*
X166000000Y-46400000D03*
X167697056Y-45697056D03*
X168400000Y-44000000D03*
D14*
X166000000Y-44000000D03*
D16*
X152940000Y-96520000D03*
D17*
X160560000Y-96520000D03*
D12*
X152400000Y-92710000D03*
D13*
X162560000Y-92710000D03*
D18*
X159940000Y-45720000D03*
X157440000Y-45720000D03*
D19*
G36*
X155601975Y-44695276D02*
G01*
X155627699Y-44699092D01*
X155652925Y-44705411D01*
X155677411Y-44714172D01*
X155700920Y-44725291D01*
X155723226Y-44738661D01*
X155744114Y-44754152D01*
X155763383Y-44771617D01*
X155780848Y-44790886D01*
X155796339Y-44811774D01*
X155809709Y-44834080D01*
X155820828Y-44857589D01*
X155829589Y-44882075D01*
X155835908Y-44907301D01*
X155839724Y-44933025D01*
X155841000Y-44959000D01*
X155841000Y-46481000D01*
X155839724Y-46506975D01*
X155835908Y-46532699D01*
X155829589Y-46557925D01*
X155820828Y-46582411D01*
X155809709Y-46605920D01*
X155796339Y-46628226D01*
X155780848Y-46649114D01*
X155763383Y-46668383D01*
X155744114Y-46685848D01*
X155723226Y-46701339D01*
X155700920Y-46714709D01*
X155677411Y-46725828D01*
X155652925Y-46734589D01*
X155627699Y-46740908D01*
X155601975Y-46744724D01*
X155576000Y-46746000D01*
X154304000Y-46746000D01*
X154278025Y-46744724D01*
X154252301Y-46740908D01*
X154227075Y-46734589D01*
X154202589Y-46725828D01*
X154179080Y-46714709D01*
X154156774Y-46701339D01*
X154135886Y-46685848D01*
X154116617Y-46668383D01*
X154099152Y-46649114D01*
X154083661Y-46628226D01*
X154070291Y-46605920D01*
X154059172Y-46582411D01*
X154050411Y-46557925D01*
X154044092Y-46532699D01*
X154040276Y-46506975D01*
X154039000Y-46481000D01*
X154039000Y-44959000D01*
X154040276Y-44933025D01*
X154044092Y-44907301D01*
X154050411Y-44882075D01*
X154059172Y-44857589D01*
X154070291Y-44834080D01*
X154083661Y-44811774D01*
X154099152Y-44790886D01*
X154116617Y-44771617D01*
X154135886Y-44754152D01*
X154156774Y-44738661D01*
X154179080Y-44725291D01*
X154202589Y-44714172D01*
X154227075Y-44705411D01*
X154252301Y-44699092D01*
X154278025Y-44695276D01*
X154304000Y-44694000D01*
X155576000Y-44694000D01*
X155601975Y-44695276D01*
G37*
D20*
X144940000Y-46990000D03*
X139860000Y-46990000D03*
D19*
G36*
X135634448Y-45140263D02*
G01*
X135659906Y-45144039D01*
X135684871Y-45150293D01*
X135709104Y-45158963D01*
X135732370Y-45169967D01*
X135754445Y-45183198D01*
X135775117Y-45198530D01*
X135794186Y-45215814D01*
X135811470Y-45234883D01*
X135826802Y-45255555D01*
X135840033Y-45277630D01*
X135851037Y-45300896D01*
X135859707Y-45325129D01*
X135865961Y-45350094D01*
X135869737Y-45375552D01*
X135871000Y-45401258D01*
X135871000Y-48578742D01*
X135869737Y-48604448D01*
X135865961Y-48629906D01*
X135859707Y-48654871D01*
X135851037Y-48679104D01*
X135840033Y-48702370D01*
X135826802Y-48724445D01*
X135811470Y-48745117D01*
X135794186Y-48764186D01*
X135775117Y-48781470D01*
X135754445Y-48796802D01*
X135732370Y-48810033D01*
X135709104Y-48821037D01*
X135684871Y-48829707D01*
X135659906Y-48835961D01*
X135634448Y-48839737D01*
X135608742Y-48841000D01*
X133951258Y-48841000D01*
X133925552Y-48839737D01*
X133900094Y-48835961D01*
X133875129Y-48829707D01*
X133850896Y-48821037D01*
X133827630Y-48810033D01*
X133805555Y-48796802D01*
X133784883Y-48781470D01*
X133765814Y-48764186D01*
X133748530Y-48745117D01*
X133733198Y-48724445D01*
X133719967Y-48702370D01*
X133708963Y-48679104D01*
X133700293Y-48654871D01*
X133694039Y-48629906D01*
X133690263Y-48604448D01*
X133689000Y-48578742D01*
X133689000Y-45401258D01*
X133690263Y-45375552D01*
X133694039Y-45350094D01*
X133700293Y-45325129D01*
X133708963Y-45300896D01*
X133719967Y-45277630D01*
X133733198Y-45255555D01*
X133748530Y-45234883D01*
X133765814Y-45215814D01*
X133784883Y-45198530D01*
X133805555Y-45183198D01*
X133827630Y-45169967D01*
X133850896Y-45158963D01*
X133875129Y-45150293D01*
X133900094Y-45144039D01*
X133925552Y-45140263D01*
X133951258Y-45139000D01*
X135608742Y-45139000D01*
X135634448Y-45140263D01*
G37*
D16*
X118840000Y-96520000D03*
D17*
X126460000Y-96520000D03*
D21*
X161163000Y-69850000D03*
D22*
X156163000Y-69850000D03*
D21*
X123190000Y-69850000D03*
D22*
X118190000Y-69850000D03*
D23*
X162560000Y-85090000D03*
X160020000Y-85090000D03*
D24*
X157480000Y-85090000D03*
D23*
X121920000Y-85090000D03*
X119380000Y-85090000D03*
D24*
X116840000Y-85090000D03*
D25*
X143510000Y-85090000D03*
X143510000Y-87630000D03*
X143510000Y-90170000D03*
X135890000Y-85090000D03*
X135890000Y-87630000D03*
X135890000Y-90170000D03*
D18*
X124380000Y-45720000D03*
X121880000Y-45720000D03*
D19*
G36*
X120041975Y-44695276D02*
G01*
X120067699Y-44699092D01*
X120092925Y-44705411D01*
X120117411Y-44714172D01*
X120140920Y-44725291D01*
X120163226Y-44738661D01*
X120184114Y-44754152D01*
X120203383Y-44771617D01*
X120220848Y-44790886D01*
X120236339Y-44811774D01*
X120249709Y-44834080D01*
X120260828Y-44857589D01*
X120269589Y-44882075D01*
X120275908Y-44907301D01*
X120279724Y-44933025D01*
X120281000Y-44959000D01*
X120281000Y-46481000D01*
X120279724Y-46506975D01*
X120275908Y-46532699D01*
X120269589Y-46557925D01*
X120260828Y-46582411D01*
X120249709Y-46605920D01*
X120236339Y-46628226D01*
X120220848Y-46649114D01*
X120203383Y-46668383D01*
X120184114Y-46685848D01*
X120163226Y-46701339D01*
X120140920Y-46714709D01*
X120117411Y-46725828D01*
X120092925Y-46734589D01*
X120067699Y-46740908D01*
X120041975Y-46744724D01*
X120016000Y-46746000D01*
X118744000Y-46746000D01*
X118718025Y-46744724D01*
X118692301Y-46740908D01*
X118667075Y-46734589D01*
X118642589Y-46725828D01*
X118619080Y-46714709D01*
X118596774Y-46701339D01*
X118575886Y-46685848D01*
X118556617Y-46668383D01*
X118539152Y-46649114D01*
X118523661Y-46628226D01*
X118510291Y-46605920D01*
X118499172Y-46582411D01*
X118490411Y-46557925D01*
X118484092Y-46532699D01*
X118480276Y-46506975D01*
X118479000Y-46481000D01*
X118479000Y-44959000D01*
X118480276Y-44933025D01*
X118484092Y-44907301D01*
X118490411Y-44882075D01*
X118499172Y-44857589D01*
X118510291Y-44834080D01*
X118523661Y-44811774D01*
X118539152Y-44790886D01*
X118556617Y-44771617D01*
X118575886Y-44754152D01*
X118596774Y-44738661D01*
X118619080Y-44725291D01*
X118642589Y-44714172D01*
X118667075Y-44705411D01*
X118692301Y-44699092D01*
X118718025Y-44695276D01*
X118744000Y-44694000D01*
X120016000Y-44694000D01*
X120041975Y-44695276D01*
G37*
D16*
X141510000Y-96520000D03*
D17*
X149130000Y-96520000D03*
D16*
X130270000Y-96520000D03*
D17*
X137890000Y-96520000D03*
D26*
X132080000Y-54610000D03*
D27*
X137160000Y-54610000D03*
X142240000Y-54610000D03*
X147320000Y-54610000D03*
D21*
X161210000Y-57150000D03*
D22*
X156210000Y-57150000D03*
D21*
X123190000Y-57150000D03*
D22*
X118190000Y-57150000D03*
D21*
X148510000Y-76200000D03*
D22*
X143510000Y-76200000D03*
D21*
X135810000Y-76200000D03*
D22*
X130810000Y-76200000D03*
D21*
X148510000Y-63500000D03*
D22*
X143510000Y-63500000D03*
D21*
X135810000Y-63500000D03*
D22*
X130810000Y-63500000D03*
M02*
