G04 #@! TF.GenerationSoftware,KiCad,Pcbnew,(5.1.5)-3*
G04 #@! TF.CreationDate,2020-03-29T19:39:18+08:00*
G04 #@! TF.ProjectId,317337,33313733-3337-42e6-9b69-6361645f7063,rev?*
G04 #@! TF.SameCoordinates,Original*
G04 #@! TF.FileFunction,Copper,L2,Bot*
G04 #@! TF.FilePolarity,Positive*
%FSLAX46Y46*%
G04 Gerber Fmt 4.6, Leading zero omitted, Abs format (unit mm)*
G04 Created by KiCad (PCBNEW (5.1.5)-3) date 2020-03-29 19:39:18*
%MOMM*%
%LPD*%
G04 APERTURE LIST*
%ADD10O,1.600000X1.600000*%
%ADD11C,1.600000*%
%ADD12C,6.400000*%
%ADD13C,0.800000*%
%ADD14O,1.800000X1.800000*%
%ADD15R,1.800000X1.800000*%
%ADD16O,1.700000X1.950000*%
%ADD17C,0.100000*%
%ADD18O,2.080000X3.600000*%
%ADD19C,2.000000*%
%ADD20R,2.000000X2.000000*%
%ADD21O,1.905000X2.000000*%
%ADD22R,1.905000X2.000000*%
%ADD23C,1.440000*%
%ADD24R,3.200000X3.200000*%
%ADD25C,3.200000*%
%ADD26C,3.300000*%
%ADD27C,1.500000*%
%ADD28C,1.000000*%
%ADD29C,0.400000*%
%ADD30C,0.025400*%
G04 APERTURE END LIST*
D10*
X116840000Y-92710000D03*
D11*
X127000000Y-92710000D03*
D12*
X114000000Y-44000000D03*
D13*
X116400000Y-44000000D03*
X115697056Y-45697056D03*
X114000000Y-46400000D03*
X112302944Y-45697056D03*
X111600000Y-44000000D03*
X112302944Y-42302944D03*
X114000000Y-41600000D03*
X115697056Y-42302944D03*
X167697056Y-42302944D03*
X166000000Y-41600000D03*
X164302944Y-42302944D03*
X163600000Y-44000000D03*
X164302944Y-45697056D03*
X166000000Y-46400000D03*
X167697056Y-45697056D03*
X168400000Y-44000000D03*
D12*
X166000000Y-44000000D03*
D14*
X152940000Y-96520000D03*
D15*
X160560000Y-96520000D03*
D10*
X152400000Y-92710000D03*
D11*
X162560000Y-92710000D03*
D16*
X159940000Y-45720000D03*
X157440000Y-45720000D03*
G04 #@! TA.AperFunction,ComponentPad*
D17*
G36*
X155564504Y-44746204D02*
G01*
X155588773Y-44749804D01*
X155612571Y-44755765D01*
X155635671Y-44764030D01*
X155657849Y-44774520D01*
X155678893Y-44787133D01*
X155698598Y-44801747D01*
X155716777Y-44818223D01*
X155733253Y-44836402D01*
X155747867Y-44856107D01*
X155760480Y-44877151D01*
X155770970Y-44899329D01*
X155779235Y-44922429D01*
X155785196Y-44946227D01*
X155788796Y-44970496D01*
X155790000Y-44995000D01*
X155790000Y-46445000D01*
X155788796Y-46469504D01*
X155785196Y-46493773D01*
X155779235Y-46517571D01*
X155770970Y-46540671D01*
X155760480Y-46562849D01*
X155747867Y-46583893D01*
X155733253Y-46603598D01*
X155716777Y-46621777D01*
X155698598Y-46638253D01*
X155678893Y-46652867D01*
X155657849Y-46665480D01*
X155635671Y-46675970D01*
X155612571Y-46684235D01*
X155588773Y-46690196D01*
X155564504Y-46693796D01*
X155540000Y-46695000D01*
X154340000Y-46695000D01*
X154315496Y-46693796D01*
X154291227Y-46690196D01*
X154267429Y-46684235D01*
X154244329Y-46675970D01*
X154222151Y-46665480D01*
X154201107Y-46652867D01*
X154181402Y-46638253D01*
X154163223Y-46621777D01*
X154146747Y-46603598D01*
X154132133Y-46583893D01*
X154119520Y-46562849D01*
X154109030Y-46540671D01*
X154100765Y-46517571D01*
X154094804Y-46493773D01*
X154091204Y-46469504D01*
X154090000Y-46445000D01*
X154090000Y-44995000D01*
X154091204Y-44970496D01*
X154094804Y-44946227D01*
X154100765Y-44922429D01*
X154109030Y-44899329D01*
X154119520Y-44877151D01*
X154132133Y-44856107D01*
X154146747Y-44836402D01*
X154163223Y-44818223D01*
X154181402Y-44801747D01*
X154201107Y-44787133D01*
X154222151Y-44774520D01*
X154244329Y-44764030D01*
X154267429Y-44755765D01*
X154291227Y-44749804D01*
X154315496Y-44746204D01*
X154340000Y-44745000D01*
X155540000Y-44745000D01*
X155564504Y-44746204D01*
G37*
G04 #@! TD.AperFunction*
D18*
X144940000Y-46990000D03*
X139860000Y-46990000D03*
G04 #@! TA.AperFunction,ComponentPad*
D17*
G36*
X135594505Y-45191204D02*
G01*
X135618773Y-45194804D01*
X135642572Y-45200765D01*
X135665671Y-45209030D01*
X135687850Y-45219520D01*
X135708893Y-45232132D01*
X135728599Y-45246747D01*
X135746777Y-45263223D01*
X135763253Y-45281401D01*
X135777868Y-45301107D01*
X135790480Y-45322150D01*
X135800970Y-45344329D01*
X135809235Y-45367428D01*
X135815196Y-45391227D01*
X135818796Y-45415495D01*
X135820000Y-45439999D01*
X135820000Y-48540001D01*
X135818796Y-48564505D01*
X135815196Y-48588773D01*
X135809235Y-48612572D01*
X135800970Y-48635671D01*
X135790480Y-48657850D01*
X135777868Y-48678893D01*
X135763253Y-48698599D01*
X135746777Y-48716777D01*
X135728599Y-48733253D01*
X135708893Y-48747868D01*
X135687850Y-48760480D01*
X135665671Y-48770970D01*
X135642572Y-48779235D01*
X135618773Y-48785196D01*
X135594505Y-48788796D01*
X135570001Y-48790000D01*
X133989999Y-48790000D01*
X133965495Y-48788796D01*
X133941227Y-48785196D01*
X133917428Y-48779235D01*
X133894329Y-48770970D01*
X133872150Y-48760480D01*
X133851107Y-48747868D01*
X133831401Y-48733253D01*
X133813223Y-48716777D01*
X133796747Y-48698599D01*
X133782132Y-48678893D01*
X133769520Y-48657850D01*
X133759030Y-48635671D01*
X133750765Y-48612572D01*
X133744804Y-48588773D01*
X133741204Y-48564505D01*
X133740000Y-48540001D01*
X133740000Y-45439999D01*
X133741204Y-45415495D01*
X133744804Y-45391227D01*
X133750765Y-45367428D01*
X133759030Y-45344329D01*
X133769520Y-45322150D01*
X133782132Y-45301107D01*
X133796747Y-45281401D01*
X133813223Y-45263223D01*
X133831401Y-45246747D01*
X133851107Y-45232132D01*
X133872150Y-45219520D01*
X133894329Y-45209030D01*
X133917428Y-45200765D01*
X133941227Y-45194804D01*
X133965495Y-45191204D01*
X133989999Y-45190000D01*
X135570001Y-45190000D01*
X135594505Y-45191204D01*
G37*
G04 #@! TD.AperFunction*
D14*
X118840000Y-96520000D03*
D15*
X126460000Y-96520000D03*
D19*
X161163000Y-69850000D03*
D20*
X156163000Y-69850000D03*
D19*
X123190000Y-69850000D03*
D20*
X118190000Y-69850000D03*
G04 #@! TA.AperFunction,SMDPad,CuDef*
D17*
G36*
X162820779Y-80361144D02*
G01*
X162843834Y-80364563D01*
X162866443Y-80370227D01*
X162888387Y-80378079D01*
X162909457Y-80388044D01*
X162929448Y-80400026D01*
X162948168Y-80413910D01*
X162965438Y-80429562D01*
X162981090Y-80446832D01*
X162994974Y-80465552D01*
X163006956Y-80485543D01*
X163016921Y-80506613D01*
X163024773Y-80528557D01*
X163030437Y-80551166D01*
X163033856Y-80574221D01*
X163035000Y-80597500D01*
X163035000Y-81172500D01*
X163033856Y-81195779D01*
X163030437Y-81218834D01*
X163024773Y-81241443D01*
X163016921Y-81263387D01*
X163006956Y-81284457D01*
X162994974Y-81304448D01*
X162981090Y-81323168D01*
X162965438Y-81340438D01*
X162948168Y-81356090D01*
X162929448Y-81369974D01*
X162909457Y-81381956D01*
X162888387Y-81391921D01*
X162866443Y-81399773D01*
X162843834Y-81405437D01*
X162820779Y-81408856D01*
X162797500Y-81410000D01*
X162322500Y-81410000D01*
X162299221Y-81408856D01*
X162276166Y-81405437D01*
X162253557Y-81399773D01*
X162231613Y-81391921D01*
X162210543Y-81381956D01*
X162190552Y-81369974D01*
X162171832Y-81356090D01*
X162154562Y-81340438D01*
X162138910Y-81323168D01*
X162125026Y-81304448D01*
X162113044Y-81284457D01*
X162103079Y-81263387D01*
X162095227Y-81241443D01*
X162089563Y-81218834D01*
X162086144Y-81195779D01*
X162085000Y-81172500D01*
X162085000Y-80597500D01*
X162086144Y-80574221D01*
X162089563Y-80551166D01*
X162095227Y-80528557D01*
X162103079Y-80506613D01*
X162113044Y-80485543D01*
X162125026Y-80465552D01*
X162138910Y-80446832D01*
X162154562Y-80429562D01*
X162171832Y-80413910D01*
X162190552Y-80400026D01*
X162210543Y-80388044D01*
X162231613Y-80378079D01*
X162253557Y-80370227D01*
X162276166Y-80364563D01*
X162299221Y-80361144D01*
X162322500Y-80360000D01*
X162797500Y-80360000D01*
X162820779Y-80361144D01*
G37*
G04 #@! TD.AperFunction*
G04 #@! TA.AperFunction,SMDPad,CuDef*
G36*
X162820779Y-78611144D02*
G01*
X162843834Y-78614563D01*
X162866443Y-78620227D01*
X162888387Y-78628079D01*
X162909457Y-78638044D01*
X162929448Y-78650026D01*
X162948168Y-78663910D01*
X162965438Y-78679562D01*
X162981090Y-78696832D01*
X162994974Y-78715552D01*
X163006956Y-78735543D01*
X163016921Y-78756613D01*
X163024773Y-78778557D01*
X163030437Y-78801166D01*
X163033856Y-78824221D01*
X163035000Y-78847500D01*
X163035000Y-79422500D01*
X163033856Y-79445779D01*
X163030437Y-79468834D01*
X163024773Y-79491443D01*
X163016921Y-79513387D01*
X163006956Y-79534457D01*
X162994974Y-79554448D01*
X162981090Y-79573168D01*
X162965438Y-79590438D01*
X162948168Y-79606090D01*
X162929448Y-79619974D01*
X162909457Y-79631956D01*
X162888387Y-79641921D01*
X162866443Y-79649773D01*
X162843834Y-79655437D01*
X162820779Y-79658856D01*
X162797500Y-79660000D01*
X162322500Y-79660000D01*
X162299221Y-79658856D01*
X162276166Y-79655437D01*
X162253557Y-79649773D01*
X162231613Y-79641921D01*
X162210543Y-79631956D01*
X162190552Y-79619974D01*
X162171832Y-79606090D01*
X162154562Y-79590438D01*
X162138910Y-79573168D01*
X162125026Y-79554448D01*
X162113044Y-79534457D01*
X162103079Y-79513387D01*
X162095227Y-79491443D01*
X162089563Y-79468834D01*
X162086144Y-79445779D01*
X162085000Y-79422500D01*
X162085000Y-78847500D01*
X162086144Y-78824221D01*
X162089563Y-78801166D01*
X162095227Y-78778557D01*
X162103079Y-78756613D01*
X162113044Y-78735543D01*
X162125026Y-78715552D01*
X162138910Y-78696832D01*
X162154562Y-78679562D01*
X162171832Y-78663910D01*
X162190552Y-78650026D01*
X162210543Y-78638044D01*
X162231613Y-78628079D01*
X162253557Y-78620227D01*
X162276166Y-78614563D01*
X162299221Y-78611144D01*
X162322500Y-78610000D01*
X162797500Y-78610000D01*
X162820779Y-78611144D01*
G37*
G04 #@! TD.AperFunction*
G04 #@! TA.AperFunction,SMDPad,CuDef*
G36*
X119640779Y-78611144D02*
G01*
X119663834Y-78614563D01*
X119686443Y-78620227D01*
X119708387Y-78628079D01*
X119729457Y-78638044D01*
X119749448Y-78650026D01*
X119768168Y-78663910D01*
X119785438Y-78679562D01*
X119801090Y-78696832D01*
X119814974Y-78715552D01*
X119826956Y-78735543D01*
X119836921Y-78756613D01*
X119844773Y-78778557D01*
X119850437Y-78801166D01*
X119853856Y-78824221D01*
X119855000Y-78847500D01*
X119855000Y-79422500D01*
X119853856Y-79445779D01*
X119850437Y-79468834D01*
X119844773Y-79491443D01*
X119836921Y-79513387D01*
X119826956Y-79534457D01*
X119814974Y-79554448D01*
X119801090Y-79573168D01*
X119785438Y-79590438D01*
X119768168Y-79606090D01*
X119749448Y-79619974D01*
X119729457Y-79631956D01*
X119708387Y-79641921D01*
X119686443Y-79649773D01*
X119663834Y-79655437D01*
X119640779Y-79658856D01*
X119617500Y-79660000D01*
X119142500Y-79660000D01*
X119119221Y-79658856D01*
X119096166Y-79655437D01*
X119073557Y-79649773D01*
X119051613Y-79641921D01*
X119030543Y-79631956D01*
X119010552Y-79619974D01*
X118991832Y-79606090D01*
X118974562Y-79590438D01*
X118958910Y-79573168D01*
X118945026Y-79554448D01*
X118933044Y-79534457D01*
X118923079Y-79513387D01*
X118915227Y-79491443D01*
X118909563Y-79468834D01*
X118906144Y-79445779D01*
X118905000Y-79422500D01*
X118905000Y-78847500D01*
X118906144Y-78824221D01*
X118909563Y-78801166D01*
X118915227Y-78778557D01*
X118923079Y-78756613D01*
X118933044Y-78735543D01*
X118945026Y-78715552D01*
X118958910Y-78696832D01*
X118974562Y-78679562D01*
X118991832Y-78663910D01*
X119010552Y-78650026D01*
X119030543Y-78638044D01*
X119051613Y-78628079D01*
X119073557Y-78620227D01*
X119096166Y-78614563D01*
X119119221Y-78611144D01*
X119142500Y-78610000D01*
X119617500Y-78610000D01*
X119640779Y-78611144D01*
G37*
G04 #@! TD.AperFunction*
G04 #@! TA.AperFunction,SMDPad,CuDef*
G36*
X119640779Y-80361144D02*
G01*
X119663834Y-80364563D01*
X119686443Y-80370227D01*
X119708387Y-80378079D01*
X119729457Y-80388044D01*
X119749448Y-80400026D01*
X119768168Y-80413910D01*
X119785438Y-80429562D01*
X119801090Y-80446832D01*
X119814974Y-80465552D01*
X119826956Y-80485543D01*
X119836921Y-80506613D01*
X119844773Y-80528557D01*
X119850437Y-80551166D01*
X119853856Y-80574221D01*
X119855000Y-80597500D01*
X119855000Y-81172500D01*
X119853856Y-81195779D01*
X119850437Y-81218834D01*
X119844773Y-81241443D01*
X119836921Y-81263387D01*
X119826956Y-81284457D01*
X119814974Y-81304448D01*
X119801090Y-81323168D01*
X119785438Y-81340438D01*
X119768168Y-81356090D01*
X119749448Y-81369974D01*
X119729457Y-81381956D01*
X119708387Y-81391921D01*
X119686443Y-81399773D01*
X119663834Y-81405437D01*
X119640779Y-81408856D01*
X119617500Y-81410000D01*
X119142500Y-81410000D01*
X119119221Y-81408856D01*
X119096166Y-81405437D01*
X119073557Y-81399773D01*
X119051613Y-81391921D01*
X119030543Y-81381956D01*
X119010552Y-81369974D01*
X118991832Y-81356090D01*
X118974562Y-81340438D01*
X118958910Y-81323168D01*
X118945026Y-81304448D01*
X118933044Y-81284457D01*
X118923079Y-81263387D01*
X118915227Y-81241443D01*
X118909563Y-81218834D01*
X118906144Y-81195779D01*
X118905000Y-81172500D01*
X118905000Y-80597500D01*
X118906144Y-80574221D01*
X118909563Y-80551166D01*
X118915227Y-80528557D01*
X118923079Y-80506613D01*
X118933044Y-80485543D01*
X118945026Y-80465552D01*
X118958910Y-80446832D01*
X118974562Y-80429562D01*
X118991832Y-80413910D01*
X119010552Y-80400026D01*
X119030543Y-80388044D01*
X119051613Y-80378079D01*
X119073557Y-80370227D01*
X119096166Y-80364563D01*
X119119221Y-80361144D01*
X119142500Y-80360000D01*
X119617500Y-80360000D01*
X119640779Y-80361144D01*
G37*
G04 #@! TD.AperFunction*
G04 #@! TA.AperFunction,SMDPad,CuDef*
G36*
X149064505Y-89351204D02*
G01*
X149088773Y-89354804D01*
X149112572Y-89360765D01*
X149135671Y-89369030D01*
X149157850Y-89379520D01*
X149178893Y-89392132D01*
X149198599Y-89406747D01*
X149216777Y-89423223D01*
X149233253Y-89441401D01*
X149247868Y-89461107D01*
X149260480Y-89482150D01*
X149270970Y-89504329D01*
X149279235Y-89527428D01*
X149285196Y-89551227D01*
X149288796Y-89575495D01*
X149290000Y-89599999D01*
X149290000Y-90250001D01*
X149288796Y-90274505D01*
X149285196Y-90298773D01*
X149279235Y-90322572D01*
X149270970Y-90345671D01*
X149260480Y-90367850D01*
X149247868Y-90388893D01*
X149233253Y-90408599D01*
X149216777Y-90426777D01*
X149198599Y-90443253D01*
X149178893Y-90457868D01*
X149157850Y-90470480D01*
X149135671Y-90480970D01*
X149112572Y-90489235D01*
X149088773Y-90495196D01*
X149064505Y-90498796D01*
X149040001Y-90500000D01*
X148139999Y-90500000D01*
X148115495Y-90498796D01*
X148091227Y-90495196D01*
X148067428Y-90489235D01*
X148044329Y-90480970D01*
X148022150Y-90470480D01*
X148001107Y-90457868D01*
X147981401Y-90443253D01*
X147963223Y-90426777D01*
X147946747Y-90408599D01*
X147932132Y-90388893D01*
X147919520Y-90367850D01*
X147909030Y-90345671D01*
X147900765Y-90322572D01*
X147894804Y-90298773D01*
X147891204Y-90274505D01*
X147890000Y-90250001D01*
X147890000Y-89599999D01*
X147891204Y-89575495D01*
X147894804Y-89551227D01*
X147900765Y-89527428D01*
X147909030Y-89504329D01*
X147919520Y-89482150D01*
X147932132Y-89461107D01*
X147946747Y-89441401D01*
X147963223Y-89423223D01*
X147981401Y-89406747D01*
X148001107Y-89392132D01*
X148022150Y-89379520D01*
X148044329Y-89369030D01*
X148067428Y-89360765D01*
X148091227Y-89354804D01*
X148115495Y-89351204D01*
X148139999Y-89350000D01*
X149040001Y-89350000D01*
X149064505Y-89351204D01*
G37*
G04 #@! TD.AperFunction*
G04 #@! TA.AperFunction,SMDPad,CuDef*
G36*
X149064505Y-87301204D02*
G01*
X149088773Y-87304804D01*
X149112572Y-87310765D01*
X149135671Y-87319030D01*
X149157850Y-87329520D01*
X149178893Y-87342132D01*
X149198599Y-87356747D01*
X149216777Y-87373223D01*
X149233253Y-87391401D01*
X149247868Y-87411107D01*
X149260480Y-87432150D01*
X149270970Y-87454329D01*
X149279235Y-87477428D01*
X149285196Y-87501227D01*
X149288796Y-87525495D01*
X149290000Y-87549999D01*
X149290000Y-88200001D01*
X149288796Y-88224505D01*
X149285196Y-88248773D01*
X149279235Y-88272572D01*
X149270970Y-88295671D01*
X149260480Y-88317850D01*
X149247868Y-88338893D01*
X149233253Y-88358599D01*
X149216777Y-88376777D01*
X149198599Y-88393253D01*
X149178893Y-88407868D01*
X149157850Y-88420480D01*
X149135671Y-88430970D01*
X149112572Y-88439235D01*
X149088773Y-88445196D01*
X149064505Y-88448796D01*
X149040001Y-88450000D01*
X148139999Y-88450000D01*
X148115495Y-88448796D01*
X148091227Y-88445196D01*
X148067428Y-88439235D01*
X148044329Y-88430970D01*
X148022150Y-88420480D01*
X148001107Y-88407868D01*
X147981401Y-88393253D01*
X147963223Y-88376777D01*
X147946747Y-88358599D01*
X147932132Y-88338893D01*
X147919520Y-88317850D01*
X147909030Y-88295671D01*
X147900765Y-88272572D01*
X147894804Y-88248773D01*
X147891204Y-88224505D01*
X147890000Y-88200001D01*
X147890000Y-87549999D01*
X147891204Y-87525495D01*
X147894804Y-87501227D01*
X147900765Y-87477428D01*
X147909030Y-87454329D01*
X147919520Y-87432150D01*
X147932132Y-87411107D01*
X147946747Y-87391401D01*
X147963223Y-87373223D01*
X147981401Y-87356747D01*
X148001107Y-87342132D01*
X148022150Y-87329520D01*
X148044329Y-87319030D01*
X148067428Y-87310765D01*
X148091227Y-87304804D01*
X148115495Y-87301204D01*
X148139999Y-87300000D01*
X149040001Y-87300000D01*
X149064505Y-87301204D01*
G37*
G04 #@! TD.AperFunction*
G04 #@! TA.AperFunction,SMDPad,CuDef*
G36*
X131284505Y-87301204D02*
G01*
X131308773Y-87304804D01*
X131332572Y-87310765D01*
X131355671Y-87319030D01*
X131377850Y-87329520D01*
X131398893Y-87342132D01*
X131418599Y-87356747D01*
X131436777Y-87373223D01*
X131453253Y-87391401D01*
X131467868Y-87411107D01*
X131480480Y-87432150D01*
X131490970Y-87454329D01*
X131499235Y-87477428D01*
X131505196Y-87501227D01*
X131508796Y-87525495D01*
X131510000Y-87549999D01*
X131510000Y-88200001D01*
X131508796Y-88224505D01*
X131505196Y-88248773D01*
X131499235Y-88272572D01*
X131490970Y-88295671D01*
X131480480Y-88317850D01*
X131467868Y-88338893D01*
X131453253Y-88358599D01*
X131436777Y-88376777D01*
X131418599Y-88393253D01*
X131398893Y-88407868D01*
X131377850Y-88420480D01*
X131355671Y-88430970D01*
X131332572Y-88439235D01*
X131308773Y-88445196D01*
X131284505Y-88448796D01*
X131260001Y-88450000D01*
X130359999Y-88450000D01*
X130335495Y-88448796D01*
X130311227Y-88445196D01*
X130287428Y-88439235D01*
X130264329Y-88430970D01*
X130242150Y-88420480D01*
X130221107Y-88407868D01*
X130201401Y-88393253D01*
X130183223Y-88376777D01*
X130166747Y-88358599D01*
X130152132Y-88338893D01*
X130139520Y-88317850D01*
X130129030Y-88295671D01*
X130120765Y-88272572D01*
X130114804Y-88248773D01*
X130111204Y-88224505D01*
X130110000Y-88200001D01*
X130110000Y-87549999D01*
X130111204Y-87525495D01*
X130114804Y-87501227D01*
X130120765Y-87477428D01*
X130129030Y-87454329D01*
X130139520Y-87432150D01*
X130152132Y-87411107D01*
X130166747Y-87391401D01*
X130183223Y-87373223D01*
X130201401Y-87356747D01*
X130221107Y-87342132D01*
X130242150Y-87329520D01*
X130264329Y-87319030D01*
X130287428Y-87310765D01*
X130311227Y-87304804D01*
X130335495Y-87301204D01*
X130359999Y-87300000D01*
X131260001Y-87300000D01*
X131284505Y-87301204D01*
G37*
G04 #@! TD.AperFunction*
G04 #@! TA.AperFunction,SMDPad,CuDef*
G36*
X131284505Y-89351204D02*
G01*
X131308773Y-89354804D01*
X131332572Y-89360765D01*
X131355671Y-89369030D01*
X131377850Y-89379520D01*
X131398893Y-89392132D01*
X131418599Y-89406747D01*
X131436777Y-89423223D01*
X131453253Y-89441401D01*
X131467868Y-89461107D01*
X131480480Y-89482150D01*
X131490970Y-89504329D01*
X131499235Y-89527428D01*
X131505196Y-89551227D01*
X131508796Y-89575495D01*
X131510000Y-89599999D01*
X131510000Y-90250001D01*
X131508796Y-90274505D01*
X131505196Y-90298773D01*
X131499235Y-90322572D01*
X131490970Y-90345671D01*
X131480480Y-90367850D01*
X131467868Y-90388893D01*
X131453253Y-90408599D01*
X131436777Y-90426777D01*
X131418599Y-90443253D01*
X131398893Y-90457868D01*
X131377850Y-90470480D01*
X131355671Y-90480970D01*
X131332572Y-90489235D01*
X131308773Y-90495196D01*
X131284505Y-90498796D01*
X131260001Y-90500000D01*
X130359999Y-90500000D01*
X130335495Y-90498796D01*
X130311227Y-90495196D01*
X130287428Y-90489235D01*
X130264329Y-90480970D01*
X130242150Y-90470480D01*
X130221107Y-90457868D01*
X130201401Y-90443253D01*
X130183223Y-90426777D01*
X130166747Y-90408599D01*
X130152132Y-90388893D01*
X130139520Y-90367850D01*
X130129030Y-90345671D01*
X130120765Y-90322572D01*
X130114804Y-90298773D01*
X130111204Y-90274505D01*
X130110000Y-90250001D01*
X130110000Y-89599999D01*
X130111204Y-89575495D01*
X130114804Y-89551227D01*
X130120765Y-89527428D01*
X130129030Y-89504329D01*
X130139520Y-89482150D01*
X130152132Y-89461107D01*
X130166747Y-89441401D01*
X130183223Y-89423223D01*
X130201401Y-89406747D01*
X130221107Y-89392132D01*
X130242150Y-89379520D01*
X130264329Y-89369030D01*
X130287428Y-89360765D01*
X130311227Y-89354804D01*
X130335495Y-89351204D01*
X130359999Y-89350000D01*
X131260001Y-89350000D01*
X131284505Y-89351204D01*
G37*
G04 #@! TD.AperFunction*
D21*
X162560000Y-85090000D03*
X160020000Y-85090000D03*
D22*
X157480000Y-85090000D03*
D21*
X121920000Y-85090000D03*
X119380000Y-85090000D03*
D22*
X116840000Y-85090000D03*
D23*
X143510000Y-85090000D03*
X143510000Y-87630000D03*
X143510000Y-90170000D03*
X135890000Y-85090000D03*
X135890000Y-87630000D03*
X135890000Y-90170000D03*
D16*
X124380000Y-45720000D03*
X121880000Y-45720000D03*
G04 #@! TA.AperFunction,ComponentPad*
D17*
G36*
X120004504Y-44746204D02*
G01*
X120028773Y-44749804D01*
X120052571Y-44755765D01*
X120075671Y-44764030D01*
X120097849Y-44774520D01*
X120118893Y-44787133D01*
X120138598Y-44801747D01*
X120156777Y-44818223D01*
X120173253Y-44836402D01*
X120187867Y-44856107D01*
X120200480Y-44877151D01*
X120210970Y-44899329D01*
X120219235Y-44922429D01*
X120225196Y-44946227D01*
X120228796Y-44970496D01*
X120230000Y-44995000D01*
X120230000Y-46445000D01*
X120228796Y-46469504D01*
X120225196Y-46493773D01*
X120219235Y-46517571D01*
X120210970Y-46540671D01*
X120200480Y-46562849D01*
X120187867Y-46583893D01*
X120173253Y-46603598D01*
X120156777Y-46621777D01*
X120138598Y-46638253D01*
X120118893Y-46652867D01*
X120097849Y-46665480D01*
X120075671Y-46675970D01*
X120052571Y-46684235D01*
X120028773Y-46690196D01*
X120004504Y-46693796D01*
X119980000Y-46695000D01*
X118780000Y-46695000D01*
X118755496Y-46693796D01*
X118731227Y-46690196D01*
X118707429Y-46684235D01*
X118684329Y-46675970D01*
X118662151Y-46665480D01*
X118641107Y-46652867D01*
X118621402Y-46638253D01*
X118603223Y-46621777D01*
X118586747Y-46603598D01*
X118572133Y-46583893D01*
X118559520Y-46562849D01*
X118549030Y-46540671D01*
X118540765Y-46517571D01*
X118534804Y-46493773D01*
X118531204Y-46469504D01*
X118530000Y-46445000D01*
X118530000Y-44995000D01*
X118531204Y-44970496D01*
X118534804Y-44946227D01*
X118540765Y-44922429D01*
X118549030Y-44899329D01*
X118559520Y-44877151D01*
X118572133Y-44856107D01*
X118586747Y-44836402D01*
X118603223Y-44818223D01*
X118621402Y-44801747D01*
X118641107Y-44787133D01*
X118662151Y-44774520D01*
X118684329Y-44764030D01*
X118707429Y-44755765D01*
X118731227Y-44749804D01*
X118755496Y-44746204D01*
X118780000Y-44745000D01*
X119980000Y-44745000D01*
X120004504Y-44746204D01*
G37*
G04 #@! TD.AperFunction*
D14*
X141510000Y-96520000D03*
D15*
X149130000Y-96520000D03*
D14*
X130270000Y-96520000D03*
D15*
X137890000Y-96520000D03*
D24*
X132080000Y-54610000D03*
D25*
X137160000Y-54610000D03*
X142240000Y-54610000D03*
X147320000Y-54610000D03*
D19*
X161210000Y-57150000D03*
D20*
X156210000Y-57150000D03*
D19*
X123190000Y-57150000D03*
D20*
X118190000Y-57150000D03*
G04 #@! TA.AperFunction,SMDPad,CuDef*
D17*
G36*
X160280779Y-80361144D02*
G01*
X160303834Y-80364563D01*
X160326443Y-80370227D01*
X160348387Y-80378079D01*
X160369457Y-80388044D01*
X160389448Y-80400026D01*
X160408168Y-80413910D01*
X160425438Y-80429562D01*
X160441090Y-80446832D01*
X160454974Y-80465552D01*
X160466956Y-80485543D01*
X160476921Y-80506613D01*
X160484773Y-80528557D01*
X160490437Y-80551166D01*
X160493856Y-80574221D01*
X160495000Y-80597500D01*
X160495000Y-81172500D01*
X160493856Y-81195779D01*
X160490437Y-81218834D01*
X160484773Y-81241443D01*
X160476921Y-81263387D01*
X160466956Y-81284457D01*
X160454974Y-81304448D01*
X160441090Y-81323168D01*
X160425438Y-81340438D01*
X160408168Y-81356090D01*
X160389448Y-81369974D01*
X160369457Y-81381956D01*
X160348387Y-81391921D01*
X160326443Y-81399773D01*
X160303834Y-81405437D01*
X160280779Y-81408856D01*
X160257500Y-81410000D01*
X159782500Y-81410000D01*
X159759221Y-81408856D01*
X159736166Y-81405437D01*
X159713557Y-81399773D01*
X159691613Y-81391921D01*
X159670543Y-81381956D01*
X159650552Y-81369974D01*
X159631832Y-81356090D01*
X159614562Y-81340438D01*
X159598910Y-81323168D01*
X159585026Y-81304448D01*
X159573044Y-81284457D01*
X159563079Y-81263387D01*
X159555227Y-81241443D01*
X159549563Y-81218834D01*
X159546144Y-81195779D01*
X159545000Y-81172500D01*
X159545000Y-80597500D01*
X159546144Y-80574221D01*
X159549563Y-80551166D01*
X159555227Y-80528557D01*
X159563079Y-80506613D01*
X159573044Y-80485543D01*
X159585026Y-80465552D01*
X159598910Y-80446832D01*
X159614562Y-80429562D01*
X159631832Y-80413910D01*
X159650552Y-80400026D01*
X159670543Y-80388044D01*
X159691613Y-80378079D01*
X159713557Y-80370227D01*
X159736166Y-80364563D01*
X159759221Y-80361144D01*
X159782500Y-80360000D01*
X160257500Y-80360000D01*
X160280779Y-80361144D01*
G37*
G04 #@! TD.AperFunction*
G04 #@! TA.AperFunction,SMDPad,CuDef*
G36*
X160280779Y-78611144D02*
G01*
X160303834Y-78614563D01*
X160326443Y-78620227D01*
X160348387Y-78628079D01*
X160369457Y-78638044D01*
X160389448Y-78650026D01*
X160408168Y-78663910D01*
X160425438Y-78679562D01*
X160441090Y-78696832D01*
X160454974Y-78715552D01*
X160466956Y-78735543D01*
X160476921Y-78756613D01*
X160484773Y-78778557D01*
X160490437Y-78801166D01*
X160493856Y-78824221D01*
X160495000Y-78847500D01*
X160495000Y-79422500D01*
X160493856Y-79445779D01*
X160490437Y-79468834D01*
X160484773Y-79491443D01*
X160476921Y-79513387D01*
X160466956Y-79534457D01*
X160454974Y-79554448D01*
X160441090Y-79573168D01*
X160425438Y-79590438D01*
X160408168Y-79606090D01*
X160389448Y-79619974D01*
X160369457Y-79631956D01*
X160348387Y-79641921D01*
X160326443Y-79649773D01*
X160303834Y-79655437D01*
X160280779Y-79658856D01*
X160257500Y-79660000D01*
X159782500Y-79660000D01*
X159759221Y-79658856D01*
X159736166Y-79655437D01*
X159713557Y-79649773D01*
X159691613Y-79641921D01*
X159670543Y-79631956D01*
X159650552Y-79619974D01*
X159631832Y-79606090D01*
X159614562Y-79590438D01*
X159598910Y-79573168D01*
X159585026Y-79554448D01*
X159573044Y-79534457D01*
X159563079Y-79513387D01*
X159555227Y-79491443D01*
X159549563Y-79468834D01*
X159546144Y-79445779D01*
X159545000Y-79422500D01*
X159545000Y-78847500D01*
X159546144Y-78824221D01*
X159549563Y-78801166D01*
X159555227Y-78778557D01*
X159563079Y-78756613D01*
X159573044Y-78735543D01*
X159585026Y-78715552D01*
X159598910Y-78696832D01*
X159614562Y-78679562D01*
X159631832Y-78663910D01*
X159650552Y-78650026D01*
X159670543Y-78638044D01*
X159691613Y-78628079D01*
X159713557Y-78620227D01*
X159736166Y-78614563D01*
X159759221Y-78611144D01*
X159782500Y-78610000D01*
X160257500Y-78610000D01*
X160280779Y-78611144D01*
G37*
G04 #@! TD.AperFunction*
G04 #@! TA.AperFunction,SMDPad,CuDef*
G36*
X122180779Y-78611144D02*
G01*
X122203834Y-78614563D01*
X122226443Y-78620227D01*
X122248387Y-78628079D01*
X122269457Y-78638044D01*
X122289448Y-78650026D01*
X122308168Y-78663910D01*
X122325438Y-78679562D01*
X122341090Y-78696832D01*
X122354974Y-78715552D01*
X122366956Y-78735543D01*
X122376921Y-78756613D01*
X122384773Y-78778557D01*
X122390437Y-78801166D01*
X122393856Y-78824221D01*
X122395000Y-78847500D01*
X122395000Y-79422500D01*
X122393856Y-79445779D01*
X122390437Y-79468834D01*
X122384773Y-79491443D01*
X122376921Y-79513387D01*
X122366956Y-79534457D01*
X122354974Y-79554448D01*
X122341090Y-79573168D01*
X122325438Y-79590438D01*
X122308168Y-79606090D01*
X122289448Y-79619974D01*
X122269457Y-79631956D01*
X122248387Y-79641921D01*
X122226443Y-79649773D01*
X122203834Y-79655437D01*
X122180779Y-79658856D01*
X122157500Y-79660000D01*
X121682500Y-79660000D01*
X121659221Y-79658856D01*
X121636166Y-79655437D01*
X121613557Y-79649773D01*
X121591613Y-79641921D01*
X121570543Y-79631956D01*
X121550552Y-79619974D01*
X121531832Y-79606090D01*
X121514562Y-79590438D01*
X121498910Y-79573168D01*
X121485026Y-79554448D01*
X121473044Y-79534457D01*
X121463079Y-79513387D01*
X121455227Y-79491443D01*
X121449563Y-79468834D01*
X121446144Y-79445779D01*
X121445000Y-79422500D01*
X121445000Y-78847500D01*
X121446144Y-78824221D01*
X121449563Y-78801166D01*
X121455227Y-78778557D01*
X121463079Y-78756613D01*
X121473044Y-78735543D01*
X121485026Y-78715552D01*
X121498910Y-78696832D01*
X121514562Y-78679562D01*
X121531832Y-78663910D01*
X121550552Y-78650026D01*
X121570543Y-78638044D01*
X121591613Y-78628079D01*
X121613557Y-78620227D01*
X121636166Y-78614563D01*
X121659221Y-78611144D01*
X121682500Y-78610000D01*
X122157500Y-78610000D01*
X122180779Y-78611144D01*
G37*
G04 #@! TD.AperFunction*
G04 #@! TA.AperFunction,SMDPad,CuDef*
G36*
X122180779Y-80361144D02*
G01*
X122203834Y-80364563D01*
X122226443Y-80370227D01*
X122248387Y-80378079D01*
X122269457Y-80388044D01*
X122289448Y-80400026D01*
X122308168Y-80413910D01*
X122325438Y-80429562D01*
X122341090Y-80446832D01*
X122354974Y-80465552D01*
X122366956Y-80485543D01*
X122376921Y-80506613D01*
X122384773Y-80528557D01*
X122390437Y-80551166D01*
X122393856Y-80574221D01*
X122395000Y-80597500D01*
X122395000Y-81172500D01*
X122393856Y-81195779D01*
X122390437Y-81218834D01*
X122384773Y-81241443D01*
X122376921Y-81263387D01*
X122366956Y-81284457D01*
X122354974Y-81304448D01*
X122341090Y-81323168D01*
X122325438Y-81340438D01*
X122308168Y-81356090D01*
X122289448Y-81369974D01*
X122269457Y-81381956D01*
X122248387Y-81391921D01*
X122226443Y-81399773D01*
X122203834Y-81405437D01*
X122180779Y-81408856D01*
X122157500Y-81410000D01*
X121682500Y-81410000D01*
X121659221Y-81408856D01*
X121636166Y-81405437D01*
X121613557Y-81399773D01*
X121591613Y-81391921D01*
X121570543Y-81381956D01*
X121550552Y-81369974D01*
X121531832Y-81356090D01*
X121514562Y-81340438D01*
X121498910Y-81323168D01*
X121485026Y-81304448D01*
X121473044Y-81284457D01*
X121463079Y-81263387D01*
X121455227Y-81241443D01*
X121449563Y-81218834D01*
X121446144Y-81195779D01*
X121445000Y-81172500D01*
X121445000Y-80597500D01*
X121446144Y-80574221D01*
X121449563Y-80551166D01*
X121455227Y-80528557D01*
X121463079Y-80506613D01*
X121473044Y-80485543D01*
X121485026Y-80465552D01*
X121498910Y-80446832D01*
X121514562Y-80429562D01*
X121531832Y-80413910D01*
X121550552Y-80400026D01*
X121570543Y-80388044D01*
X121591613Y-80378079D01*
X121613557Y-80370227D01*
X121636166Y-80364563D01*
X121659221Y-80361144D01*
X121682500Y-80360000D01*
X122157500Y-80360000D01*
X122180779Y-80361144D01*
G37*
G04 #@! TD.AperFunction*
D19*
X148510000Y-76200000D03*
D20*
X143510000Y-76200000D03*
D19*
X135810000Y-76200000D03*
D20*
X130810000Y-76200000D03*
D19*
X148510000Y-63500000D03*
D20*
X143510000Y-63500000D03*
D19*
X135810000Y-63500000D03*
D20*
X130810000Y-63500000D03*
D26*
X166000000Y-96000000D03*
X114000000Y-96000000D03*
D27*
X139700000Y-50800000D03*
X124460000Y-78740000D03*
X157480000Y-78740000D03*
X146050000Y-50800000D03*
X133350000Y-50800000D03*
X127000000Y-50800000D03*
X152400000Y-50800000D03*
X152400000Y-57150000D03*
X127000000Y-57150000D03*
X139700000Y-69850000D03*
X139700000Y-63500000D03*
X139700000Y-76200000D03*
X133350000Y-69850000D03*
X146050000Y-69850000D03*
X139700000Y-58420000D03*
X133350000Y-58420000D03*
X146050000Y-58420000D03*
X139700000Y-82550000D03*
X133350000Y-82550000D03*
X146050000Y-82550000D03*
D28*
X121920000Y-80885000D02*
X121920000Y-85090000D01*
X122395000Y-80885000D02*
X121920000Y-80885000D01*
X128665000Y-80885000D02*
X122395000Y-80885000D01*
X130810000Y-76200000D02*
X130810000Y-78740000D01*
X130810000Y-78740000D02*
X128665000Y-80885000D01*
X160020000Y-80885000D02*
X160020000Y-85090000D01*
X150695000Y-80885000D02*
X160020000Y-80885000D01*
X148510000Y-76200000D02*
X148510000Y-78700000D01*
X148510000Y-78700000D02*
X150695000Y-80885000D01*
X139860000Y-47750000D02*
X142910000Y-50800000D01*
X139860000Y-46990000D02*
X139860000Y-47750000D01*
X139860000Y-47750000D02*
X136810000Y-50800000D01*
X136810000Y-50800000D02*
X129540000Y-50800000D01*
X142910000Y-50800000D02*
X151130000Y-50800000D01*
X151130000Y-50800000D02*
X151860000Y-50800000D01*
X151130000Y-55880000D02*
X151130000Y-50800000D01*
X143510000Y-63500000D02*
X151130000Y-55880000D01*
X128270000Y-55960000D02*
X128270000Y-50800000D01*
X129540000Y-50800000D02*
X128270000Y-50800000D01*
X135810000Y-63500000D02*
X128270000Y-55960000D01*
X135645000Y-87875000D02*
X135890000Y-87630000D01*
X130810000Y-87875000D02*
X135645000Y-87875000D01*
X148345000Y-87630000D02*
X148590000Y-87875000D01*
X143510000Y-87630000D02*
X148345000Y-87630000D01*
X143510000Y-85090000D02*
X143510000Y-87630000D01*
X135890000Y-87630000D02*
X135890000Y-85090000D01*
X156290000Y-71200000D02*
X156290000Y-69850000D01*
X162560000Y-79135000D02*
X162560000Y-77470000D01*
X162560000Y-77470000D02*
X156290000Y-71200000D01*
X123110000Y-71264213D02*
X123110000Y-69850000D01*
X123045787Y-71264213D02*
X123110000Y-71264213D01*
X119380000Y-79135000D02*
X119380000Y-74930000D01*
X119380000Y-74930000D02*
X123045787Y-71264213D01*
X122315000Y-78740000D02*
X121920000Y-79135000D01*
X124460000Y-78740000D02*
X122315000Y-78740000D01*
X159625000Y-78740000D02*
X160020000Y-79135000D01*
X157480000Y-78740000D02*
X159625000Y-78740000D01*
X119380000Y-85090000D02*
X119380000Y-80885000D01*
X159940000Y-44347500D02*
X159940000Y-45720000D01*
X125730000Y-43180000D02*
X158772500Y-43180000D01*
X124380000Y-45720000D02*
X124380000Y-44530000D01*
X158772500Y-43180000D02*
X159940000Y-44347500D01*
X124380000Y-44530000D02*
X125730000Y-43180000D01*
X162560000Y-85090000D02*
X162560000Y-80885000D01*
X135645000Y-89925000D02*
X135890000Y-90170000D01*
X130810000Y-89925000D02*
X135645000Y-89925000D01*
X119625000Y-89925000D02*
X116840000Y-92710000D01*
X130810000Y-89925000D02*
X119625000Y-89925000D01*
X148345000Y-90170000D02*
X148590000Y-89925000D01*
X143510000Y-90170000D02*
X148345000Y-90170000D01*
X157480000Y-87630000D02*
X162560000Y-92710000D01*
X157480000Y-85090000D02*
X157480000Y-87630000D01*
X155185000Y-89925000D02*
X157480000Y-87630000D01*
X148590000Y-89925000D02*
X155185000Y-89925000D01*
D29*
G36*
X139059603Y-44672129D02*
G01*
X138771057Y-44858213D01*
X138524358Y-45097014D01*
X138328987Y-45379355D01*
X138192452Y-45694386D01*
X138120000Y-46030000D01*
X138120000Y-46790000D01*
X138832379Y-46790000D01*
X138768172Y-46807246D01*
X138749072Y-46813420D01*
X138713957Y-46830860D01*
X138682921Y-46854816D01*
X138657153Y-46884367D01*
X138637647Y-46918376D01*
X138625149Y-46955538D01*
X138620142Y-46994424D01*
X138618198Y-47059469D01*
X138611464Y-47134586D01*
X138604137Y-47190000D01*
X138120000Y-47190000D01*
X138120000Y-47950000D01*
X138192452Y-48285614D01*
X138328987Y-48600645D01*
X138524358Y-48882986D01*
X138771057Y-49121787D01*
X139059603Y-49307871D01*
X139392070Y-49425901D01*
X139660000Y-49302168D01*
X139660000Y-48494206D01*
X139664056Y-48484802D01*
X139715186Y-48386163D01*
X139762806Y-48312262D01*
X139803724Y-48263725D01*
X139833076Y-48239319D01*
X139846544Y-48232754D01*
X139859999Y-48230691D01*
X139873454Y-48232754D01*
X139886923Y-48239319D01*
X139916275Y-48263725D01*
X139957193Y-48312262D01*
X140004813Y-48386163D01*
X140055943Y-48484802D01*
X140060000Y-48494208D01*
X140060000Y-49302168D01*
X140327930Y-49425901D01*
X140660397Y-49307871D01*
X140948943Y-49121787D01*
X141195642Y-48882986D01*
X141391013Y-48600645D01*
X141527548Y-48285614D01*
X141600000Y-47950000D01*
X141600000Y-47190000D01*
X141115862Y-47190000D01*
X141108535Y-47134586D01*
X141101801Y-47059469D01*
X141099858Y-46994427D01*
X141098252Y-46974415D01*
X141089372Y-46936227D01*
X141073213Y-46900505D01*
X141050395Y-46868622D01*
X141021796Y-46841803D01*
X140988514Y-46821079D01*
X140951828Y-46807246D01*
X140887621Y-46790000D01*
X141600000Y-46790000D01*
X141600000Y-46030000D01*
X141527548Y-45694386D01*
X141391013Y-45379355D01*
X141195642Y-45097014D01*
X140948943Y-44858213D01*
X140660397Y-44672129D01*
X140598064Y-44650000D01*
X142040000Y-44650000D01*
X142040000Y-49530000D01*
X142043843Y-49569018D01*
X142055224Y-49606537D01*
X142073706Y-49641114D01*
X142098579Y-49671421D01*
X142128886Y-49696294D01*
X142163463Y-49714776D01*
X142200982Y-49726157D01*
X142240000Y-49730000D01*
X153470000Y-49730000D01*
X153470000Y-60760000D01*
X146050000Y-60760000D01*
X146010982Y-60763843D01*
X145973463Y-60775224D01*
X145938886Y-60793706D01*
X145908579Y-60818579D01*
X145883706Y-60848886D01*
X145865224Y-60883463D01*
X145853843Y-60920982D01*
X145850000Y-60960000D01*
X145850000Y-83620000D01*
X133550000Y-83620000D01*
X133550000Y-77416313D01*
X134876530Y-77416313D01*
X134974638Y-77690037D01*
X135281381Y-77824377D01*
X135608439Y-77896293D01*
X135943242Y-77903022D01*
X136272925Y-77844305D01*
X136584818Y-77722398D01*
X136645362Y-77690037D01*
X136743470Y-77416313D01*
X136527157Y-77200000D01*
X141806613Y-77200000D01*
X141820128Y-77337224D01*
X141860155Y-77469175D01*
X141925155Y-77590781D01*
X142012630Y-77697370D01*
X142119219Y-77784845D01*
X142240825Y-77849845D01*
X142372776Y-77889872D01*
X142510000Y-77903387D01*
X143135000Y-77900000D01*
X143310000Y-77725000D01*
X143310000Y-76400000D01*
X143710000Y-76400000D01*
X143710000Y-77725000D01*
X143885000Y-77900000D01*
X144510000Y-77903387D01*
X144647224Y-77889872D01*
X144779175Y-77849845D01*
X144900781Y-77784845D01*
X145007370Y-77697370D01*
X145094845Y-77590781D01*
X145159845Y-77469175D01*
X145199872Y-77337224D01*
X145213387Y-77200000D01*
X145210000Y-76575000D01*
X145035000Y-76400000D01*
X143710000Y-76400000D01*
X143310000Y-76400000D01*
X141985000Y-76400000D01*
X141810000Y-76575000D01*
X141806613Y-77200000D01*
X136527157Y-77200000D01*
X135810000Y-76482843D01*
X134876530Y-77416313D01*
X133550000Y-77416313D01*
X133550000Y-76333242D01*
X134106978Y-76333242D01*
X134165695Y-76662925D01*
X134287602Y-76974818D01*
X134319963Y-77035362D01*
X134593687Y-77133470D01*
X135527157Y-76200000D01*
X136092843Y-76200000D01*
X137026313Y-77133470D01*
X137300037Y-77035362D01*
X137434377Y-76728619D01*
X137506293Y-76401561D01*
X137513022Y-76066758D01*
X137454305Y-75737075D01*
X137332398Y-75425182D01*
X137300037Y-75364638D01*
X137026313Y-75266530D01*
X136092843Y-76200000D01*
X135527157Y-76200000D01*
X134593687Y-75266530D01*
X134319963Y-75364638D01*
X134185623Y-75671381D01*
X134113707Y-75998439D01*
X134106978Y-76333242D01*
X133550000Y-76333242D01*
X133550000Y-74983687D01*
X134876530Y-74983687D01*
X135810000Y-75917157D01*
X136527157Y-75200000D01*
X141806613Y-75200000D01*
X141810000Y-75825000D01*
X141985000Y-76000000D01*
X143310000Y-76000000D01*
X143310000Y-74675000D01*
X143710000Y-74675000D01*
X143710000Y-76000000D01*
X145035000Y-76000000D01*
X145210000Y-75825000D01*
X145213387Y-75200000D01*
X145199872Y-75062776D01*
X145159845Y-74930825D01*
X145094845Y-74809219D01*
X145007370Y-74702630D01*
X144900781Y-74615155D01*
X144779175Y-74550155D01*
X144647224Y-74510128D01*
X144510000Y-74496613D01*
X143885000Y-74500000D01*
X143710000Y-74675000D01*
X143310000Y-74675000D01*
X143135000Y-74500000D01*
X142510000Y-74496613D01*
X142372776Y-74510128D01*
X142240825Y-74550155D01*
X142119219Y-74615155D01*
X142012630Y-74702630D01*
X141925155Y-74809219D01*
X141860155Y-74930825D01*
X141820128Y-75062776D01*
X141806613Y-75200000D01*
X136527157Y-75200000D01*
X136743470Y-74983687D01*
X136645362Y-74709963D01*
X136338619Y-74575623D01*
X136011561Y-74503707D01*
X135676758Y-74496978D01*
X135347075Y-74555695D01*
X135035182Y-74677602D01*
X134974638Y-74709963D01*
X134876530Y-74983687D01*
X133550000Y-74983687D01*
X133550000Y-63633242D01*
X134106978Y-63633242D01*
X134165695Y-63962925D01*
X134287602Y-64274818D01*
X134319963Y-64335362D01*
X134593687Y-64433470D01*
X135219964Y-63807193D01*
X135665877Y-63926966D01*
X134876530Y-64716313D01*
X134974638Y-64990037D01*
X135281381Y-65124377D01*
X135608439Y-65196293D01*
X135943242Y-65203022D01*
X136272925Y-65144305D01*
X136584818Y-65022398D01*
X136645362Y-64990037D01*
X136743470Y-64716313D01*
X136059979Y-64032822D01*
X136111672Y-64046707D01*
X136137568Y-64051858D01*
X136176755Y-64053117D01*
X136215434Y-64046707D01*
X136252120Y-64032874D01*
X136285402Y-64012150D01*
X136314001Y-63985331D01*
X136336819Y-63953448D01*
X136352978Y-63917726D01*
X136361858Y-63879538D01*
X136363117Y-63840351D01*
X136356707Y-63801672D01*
X136342822Y-63749979D01*
X137026313Y-64433470D01*
X137300037Y-64335362D01*
X137434377Y-64028619D01*
X137506293Y-63701561D01*
X137513022Y-63366758D01*
X137454305Y-63037075D01*
X137332398Y-62725182D01*
X137300037Y-62664638D01*
X137026313Y-62566530D01*
X136236966Y-63355877D01*
X136117193Y-62909964D01*
X136527157Y-62500000D01*
X141806613Y-62500000D01*
X141810000Y-63125000D01*
X141985000Y-63300000D01*
X143098043Y-63300000D01*
X142990602Y-63700000D01*
X141985000Y-63700000D01*
X141810000Y-63875000D01*
X141806613Y-64500000D01*
X141820128Y-64637224D01*
X141860155Y-64769175D01*
X141925155Y-64890781D01*
X142012630Y-64997370D01*
X142119219Y-65084845D01*
X142240825Y-65149845D01*
X142372776Y-65189872D01*
X142510000Y-65203387D01*
X143135000Y-65200000D01*
X143310000Y-65025000D01*
X143310000Y-64019398D01*
X143710000Y-63911957D01*
X143710000Y-65025000D01*
X143885000Y-65200000D01*
X144510000Y-65203387D01*
X144647224Y-65189872D01*
X144779175Y-65149845D01*
X144900781Y-65084845D01*
X145007370Y-64997370D01*
X145094845Y-64890781D01*
X145159845Y-64769175D01*
X145199872Y-64637224D01*
X145213387Y-64500000D01*
X145210000Y-63875000D01*
X145035000Y-63700000D01*
X144499113Y-63700000D01*
X144561830Y-63683154D01*
X144614372Y-63660575D01*
X144645643Y-63636925D01*
X144671700Y-63607630D01*
X144691540Y-63573813D01*
X144704402Y-63536776D01*
X144709791Y-63497942D01*
X144711622Y-63451868D01*
X144716716Y-63415346D01*
X144725669Y-63377964D01*
X144738810Y-63339299D01*
X144756123Y-63300000D01*
X145035000Y-63300000D01*
X145210000Y-63125000D01*
X145213387Y-62500000D01*
X145199872Y-62362776D01*
X145159845Y-62230825D01*
X145094845Y-62109219D01*
X145007370Y-62002630D01*
X144900781Y-61915155D01*
X144779175Y-61850155D01*
X144647224Y-61810128D01*
X144510000Y-61796613D01*
X143885000Y-61800000D01*
X143710000Y-61975000D01*
X143710000Y-62253875D01*
X143670700Y-62271189D01*
X143632035Y-62284330D01*
X143594653Y-62293283D01*
X143558130Y-62298377D01*
X143512055Y-62300209D01*
X143455827Y-62310626D01*
X143420105Y-62326785D01*
X143388222Y-62349603D01*
X143361403Y-62378202D01*
X143340679Y-62411484D01*
X143326846Y-62448170D01*
X143310000Y-62510887D01*
X143310000Y-61975000D01*
X143135000Y-61800000D01*
X142510000Y-61796613D01*
X142372776Y-61810128D01*
X142240825Y-61850155D01*
X142119219Y-61915155D01*
X142012630Y-62002630D01*
X141925155Y-62109219D01*
X141860155Y-62230825D01*
X141820128Y-62362776D01*
X141806613Y-62500000D01*
X136527157Y-62500000D01*
X136743470Y-62283687D01*
X136645362Y-62009963D01*
X136338619Y-61875623D01*
X136011561Y-61803707D01*
X135676758Y-61796978D01*
X135347075Y-61855695D01*
X135035182Y-61977602D01*
X134974638Y-62009963D01*
X134876530Y-62283687D01*
X134890762Y-62297919D01*
X134607919Y-62580762D01*
X134593687Y-62566530D01*
X134319963Y-62664638D01*
X134185623Y-62971381D01*
X134113707Y-63298439D01*
X134106978Y-63633242D01*
X133550000Y-63633242D01*
X133550000Y-60960000D01*
X133546157Y-60920982D01*
X133534776Y-60883463D01*
X133516294Y-60848886D01*
X133491421Y-60818579D01*
X133461114Y-60793706D01*
X133426537Y-60775224D01*
X133389018Y-60763843D01*
X133350000Y-60760000D01*
X125930000Y-60760000D01*
X125930000Y-53010000D01*
X129776613Y-53010000D01*
X129776613Y-56210000D01*
X129790128Y-56347224D01*
X129830155Y-56479175D01*
X129895155Y-56600781D01*
X129982630Y-56707370D01*
X130089219Y-56794845D01*
X130210825Y-56859845D01*
X130342776Y-56899872D01*
X130480000Y-56913387D01*
X133680000Y-56913387D01*
X133817224Y-56899872D01*
X133949175Y-56859845D01*
X134070781Y-56794845D01*
X134177370Y-56707370D01*
X134264845Y-56600781D01*
X134329845Y-56479175D01*
X134369872Y-56347224D01*
X134383387Y-56210000D01*
X134383387Y-54383470D01*
X134860000Y-54383470D01*
X134860000Y-54836530D01*
X134948387Y-55280885D01*
X135121766Y-55699459D01*
X135373473Y-56076165D01*
X135693835Y-56396527D01*
X136070541Y-56648234D01*
X136489115Y-56821613D01*
X136933470Y-56910000D01*
X137386530Y-56910000D01*
X137830885Y-56821613D01*
X138249459Y-56648234D01*
X138626165Y-56396527D01*
X138946527Y-56076165D01*
X139198234Y-55699459D01*
X139371613Y-55280885D01*
X139460000Y-54836530D01*
X139460000Y-54383470D01*
X139940000Y-54383470D01*
X139940000Y-54836530D01*
X140028387Y-55280885D01*
X140201766Y-55699459D01*
X140453473Y-56076165D01*
X140773835Y-56396527D01*
X141150541Y-56648234D01*
X141569115Y-56821613D01*
X142013470Y-56910000D01*
X142466530Y-56910000D01*
X142910885Y-56821613D01*
X143329459Y-56648234D01*
X143706165Y-56396527D01*
X144026527Y-56076165D01*
X144278234Y-55699459D01*
X144451613Y-55280885D01*
X144540000Y-54836530D01*
X144540000Y-54383470D01*
X145020000Y-54383470D01*
X145020000Y-54836530D01*
X145108387Y-55280885D01*
X145281766Y-55699459D01*
X145533473Y-56076165D01*
X145853835Y-56396527D01*
X146230541Y-56648234D01*
X146649115Y-56821613D01*
X147093470Y-56910000D01*
X147546530Y-56910000D01*
X147990885Y-56821613D01*
X148409459Y-56648234D01*
X148786165Y-56396527D01*
X149106527Y-56076165D01*
X149358234Y-55699459D01*
X149531613Y-55280885D01*
X149620000Y-54836530D01*
X149620000Y-54383470D01*
X149531613Y-53939115D01*
X149358234Y-53520541D01*
X149106527Y-53143835D01*
X148786165Y-52823473D01*
X148409459Y-52571766D01*
X147990885Y-52398387D01*
X147546530Y-52310000D01*
X147093470Y-52310000D01*
X146649115Y-52398387D01*
X146230541Y-52571766D01*
X145853835Y-52823473D01*
X145533473Y-53143835D01*
X145281766Y-53520541D01*
X145108387Y-53939115D01*
X145020000Y-54383470D01*
X144540000Y-54383470D01*
X144451613Y-53939115D01*
X144278234Y-53520541D01*
X144026527Y-53143835D01*
X143706165Y-52823473D01*
X143329459Y-52571766D01*
X142910885Y-52398387D01*
X142466530Y-52310000D01*
X142013470Y-52310000D01*
X141569115Y-52398387D01*
X141150541Y-52571766D01*
X140773835Y-52823473D01*
X140453473Y-53143835D01*
X140201766Y-53520541D01*
X140028387Y-53939115D01*
X139940000Y-54383470D01*
X139460000Y-54383470D01*
X139371613Y-53939115D01*
X139198234Y-53520541D01*
X138946527Y-53143835D01*
X138626165Y-52823473D01*
X138249459Y-52571766D01*
X137830885Y-52398387D01*
X137386530Y-52310000D01*
X136933470Y-52310000D01*
X136489115Y-52398387D01*
X136070541Y-52571766D01*
X135693835Y-52823473D01*
X135373473Y-53143835D01*
X135121766Y-53520541D01*
X134948387Y-53939115D01*
X134860000Y-54383470D01*
X134383387Y-54383470D01*
X134383387Y-53010000D01*
X134369872Y-52872776D01*
X134329845Y-52740825D01*
X134264845Y-52619219D01*
X134177370Y-52512630D01*
X134070781Y-52425155D01*
X133949175Y-52360155D01*
X133817224Y-52320128D01*
X133680000Y-52306613D01*
X130480000Y-52306613D01*
X130342776Y-52320128D01*
X130210825Y-52360155D01*
X130089219Y-52425155D01*
X129982630Y-52512630D01*
X129895155Y-52619219D01*
X129830155Y-52740825D01*
X129790128Y-52872776D01*
X129776613Y-53010000D01*
X125930000Y-53010000D01*
X125930000Y-49730000D01*
X137160000Y-49730000D01*
X137199018Y-49726157D01*
X137236537Y-49714776D01*
X137271114Y-49696294D01*
X137301421Y-49671421D01*
X137326294Y-49641114D01*
X137344776Y-49606537D01*
X137356157Y-49569018D01*
X137360000Y-49530000D01*
X137360000Y-44650000D01*
X139121936Y-44650000D01*
X139059603Y-44672129D01*
G37*
X139059603Y-44672129D02*
X138771057Y-44858213D01*
X138524358Y-45097014D01*
X138328987Y-45379355D01*
X138192452Y-45694386D01*
X138120000Y-46030000D01*
X138120000Y-46790000D01*
X138832379Y-46790000D01*
X138768172Y-46807246D01*
X138749072Y-46813420D01*
X138713957Y-46830860D01*
X138682921Y-46854816D01*
X138657153Y-46884367D01*
X138637647Y-46918376D01*
X138625149Y-46955538D01*
X138620142Y-46994424D01*
X138618198Y-47059469D01*
X138611464Y-47134586D01*
X138604137Y-47190000D01*
X138120000Y-47190000D01*
X138120000Y-47950000D01*
X138192452Y-48285614D01*
X138328987Y-48600645D01*
X138524358Y-48882986D01*
X138771057Y-49121787D01*
X139059603Y-49307871D01*
X139392070Y-49425901D01*
X139660000Y-49302168D01*
X139660000Y-48494206D01*
X139664056Y-48484802D01*
X139715186Y-48386163D01*
X139762806Y-48312262D01*
X139803724Y-48263725D01*
X139833076Y-48239319D01*
X139846544Y-48232754D01*
X139859999Y-48230691D01*
X139873454Y-48232754D01*
X139886923Y-48239319D01*
X139916275Y-48263725D01*
X139957193Y-48312262D01*
X140004813Y-48386163D01*
X140055943Y-48484802D01*
X140060000Y-48494208D01*
X140060000Y-49302168D01*
X140327930Y-49425901D01*
X140660397Y-49307871D01*
X140948943Y-49121787D01*
X141195642Y-48882986D01*
X141391013Y-48600645D01*
X141527548Y-48285614D01*
X141600000Y-47950000D01*
X141600000Y-47190000D01*
X141115862Y-47190000D01*
X141108535Y-47134586D01*
X141101801Y-47059469D01*
X141099858Y-46994427D01*
X141098252Y-46974415D01*
X141089372Y-46936227D01*
X141073213Y-46900505D01*
X141050395Y-46868622D01*
X141021796Y-46841803D01*
X140988514Y-46821079D01*
X140951828Y-46807246D01*
X140887621Y-46790000D01*
X141600000Y-46790000D01*
X141600000Y-46030000D01*
X141527548Y-45694386D01*
X141391013Y-45379355D01*
X141195642Y-45097014D01*
X140948943Y-44858213D01*
X140660397Y-44672129D01*
X140598064Y-44650000D01*
X142040000Y-44650000D01*
X142040000Y-49530000D01*
X142043843Y-49569018D01*
X142055224Y-49606537D01*
X142073706Y-49641114D01*
X142098579Y-49671421D01*
X142128886Y-49696294D01*
X142163463Y-49714776D01*
X142200982Y-49726157D01*
X142240000Y-49730000D01*
X153470000Y-49730000D01*
X153470000Y-60760000D01*
X146050000Y-60760000D01*
X146010982Y-60763843D01*
X145973463Y-60775224D01*
X145938886Y-60793706D01*
X145908579Y-60818579D01*
X145883706Y-60848886D01*
X145865224Y-60883463D01*
X145853843Y-60920982D01*
X145850000Y-60960000D01*
X145850000Y-83620000D01*
X133550000Y-83620000D01*
X133550000Y-77416313D01*
X134876530Y-77416313D01*
X134974638Y-77690037D01*
X135281381Y-77824377D01*
X135608439Y-77896293D01*
X135943242Y-77903022D01*
X136272925Y-77844305D01*
X136584818Y-77722398D01*
X136645362Y-77690037D01*
X136743470Y-77416313D01*
X136527157Y-77200000D01*
X141806613Y-77200000D01*
X141820128Y-77337224D01*
X141860155Y-77469175D01*
X141925155Y-77590781D01*
X142012630Y-77697370D01*
X142119219Y-77784845D01*
X142240825Y-77849845D01*
X142372776Y-77889872D01*
X142510000Y-77903387D01*
X143135000Y-77900000D01*
X143310000Y-77725000D01*
X143310000Y-76400000D01*
X143710000Y-76400000D01*
X143710000Y-77725000D01*
X143885000Y-77900000D01*
X144510000Y-77903387D01*
X144647224Y-77889872D01*
X144779175Y-77849845D01*
X144900781Y-77784845D01*
X145007370Y-77697370D01*
X145094845Y-77590781D01*
X145159845Y-77469175D01*
X145199872Y-77337224D01*
X145213387Y-77200000D01*
X145210000Y-76575000D01*
X145035000Y-76400000D01*
X143710000Y-76400000D01*
X143310000Y-76400000D01*
X141985000Y-76400000D01*
X141810000Y-76575000D01*
X141806613Y-77200000D01*
X136527157Y-77200000D01*
X135810000Y-76482843D01*
X134876530Y-77416313D01*
X133550000Y-77416313D01*
X133550000Y-76333242D01*
X134106978Y-76333242D01*
X134165695Y-76662925D01*
X134287602Y-76974818D01*
X134319963Y-77035362D01*
X134593687Y-77133470D01*
X135527157Y-76200000D01*
X136092843Y-76200000D01*
X137026313Y-77133470D01*
X137300037Y-77035362D01*
X137434377Y-76728619D01*
X137506293Y-76401561D01*
X137513022Y-76066758D01*
X137454305Y-75737075D01*
X137332398Y-75425182D01*
X137300037Y-75364638D01*
X137026313Y-75266530D01*
X136092843Y-76200000D01*
X135527157Y-76200000D01*
X134593687Y-75266530D01*
X134319963Y-75364638D01*
X134185623Y-75671381D01*
X134113707Y-75998439D01*
X134106978Y-76333242D01*
X133550000Y-76333242D01*
X133550000Y-74983687D01*
X134876530Y-74983687D01*
X135810000Y-75917157D01*
X136527157Y-75200000D01*
X141806613Y-75200000D01*
X141810000Y-75825000D01*
X141985000Y-76000000D01*
X143310000Y-76000000D01*
X143310000Y-74675000D01*
X143710000Y-74675000D01*
X143710000Y-76000000D01*
X145035000Y-76000000D01*
X145210000Y-75825000D01*
X145213387Y-75200000D01*
X145199872Y-75062776D01*
X145159845Y-74930825D01*
X145094845Y-74809219D01*
X145007370Y-74702630D01*
X144900781Y-74615155D01*
X144779175Y-74550155D01*
X144647224Y-74510128D01*
X144510000Y-74496613D01*
X143885000Y-74500000D01*
X143710000Y-74675000D01*
X143310000Y-74675000D01*
X143135000Y-74500000D01*
X142510000Y-74496613D01*
X142372776Y-74510128D01*
X142240825Y-74550155D01*
X142119219Y-74615155D01*
X142012630Y-74702630D01*
X141925155Y-74809219D01*
X141860155Y-74930825D01*
X141820128Y-75062776D01*
X141806613Y-75200000D01*
X136527157Y-75200000D01*
X136743470Y-74983687D01*
X136645362Y-74709963D01*
X136338619Y-74575623D01*
X136011561Y-74503707D01*
X135676758Y-74496978D01*
X135347075Y-74555695D01*
X135035182Y-74677602D01*
X134974638Y-74709963D01*
X134876530Y-74983687D01*
X133550000Y-74983687D01*
X133550000Y-63633242D01*
X134106978Y-63633242D01*
X134165695Y-63962925D01*
X134287602Y-64274818D01*
X134319963Y-64335362D01*
X134593687Y-64433470D01*
X135219964Y-63807193D01*
X135665877Y-63926966D01*
X134876530Y-64716313D01*
X134974638Y-64990037D01*
X135281381Y-65124377D01*
X135608439Y-65196293D01*
X135943242Y-65203022D01*
X136272925Y-65144305D01*
X136584818Y-65022398D01*
X136645362Y-64990037D01*
X136743470Y-64716313D01*
X136059979Y-64032822D01*
X136111672Y-64046707D01*
X136137568Y-64051858D01*
X136176755Y-64053117D01*
X136215434Y-64046707D01*
X136252120Y-64032874D01*
X136285402Y-64012150D01*
X136314001Y-63985331D01*
X136336819Y-63953448D01*
X136352978Y-63917726D01*
X136361858Y-63879538D01*
X136363117Y-63840351D01*
X136356707Y-63801672D01*
X136342822Y-63749979D01*
X137026313Y-64433470D01*
X137300037Y-64335362D01*
X137434377Y-64028619D01*
X137506293Y-63701561D01*
X137513022Y-63366758D01*
X137454305Y-63037075D01*
X137332398Y-62725182D01*
X137300037Y-62664638D01*
X137026313Y-62566530D01*
X136236966Y-63355877D01*
X136117193Y-62909964D01*
X136527157Y-62500000D01*
X141806613Y-62500000D01*
X141810000Y-63125000D01*
X141985000Y-63300000D01*
X143098043Y-63300000D01*
X142990602Y-63700000D01*
X141985000Y-63700000D01*
X141810000Y-63875000D01*
X141806613Y-64500000D01*
X141820128Y-64637224D01*
X141860155Y-64769175D01*
X141925155Y-64890781D01*
X142012630Y-64997370D01*
X142119219Y-65084845D01*
X142240825Y-65149845D01*
X142372776Y-65189872D01*
X142510000Y-65203387D01*
X143135000Y-65200000D01*
X143310000Y-65025000D01*
X143310000Y-64019398D01*
X143710000Y-63911957D01*
X143710000Y-65025000D01*
X143885000Y-65200000D01*
X144510000Y-65203387D01*
X144647224Y-65189872D01*
X144779175Y-65149845D01*
X144900781Y-65084845D01*
X145007370Y-64997370D01*
X145094845Y-64890781D01*
X145159845Y-64769175D01*
X145199872Y-64637224D01*
X145213387Y-64500000D01*
X145210000Y-63875000D01*
X145035000Y-63700000D01*
X144499113Y-63700000D01*
X144561830Y-63683154D01*
X144614372Y-63660575D01*
X144645643Y-63636925D01*
X144671700Y-63607630D01*
X144691540Y-63573813D01*
X144704402Y-63536776D01*
X144709791Y-63497942D01*
X144711622Y-63451868D01*
X144716716Y-63415346D01*
X144725669Y-63377964D01*
X144738810Y-63339299D01*
X144756123Y-63300000D01*
X145035000Y-63300000D01*
X145210000Y-63125000D01*
X145213387Y-62500000D01*
X145199872Y-62362776D01*
X145159845Y-62230825D01*
X145094845Y-62109219D01*
X145007370Y-62002630D01*
X144900781Y-61915155D01*
X144779175Y-61850155D01*
X144647224Y-61810128D01*
X144510000Y-61796613D01*
X143885000Y-61800000D01*
X143710000Y-61975000D01*
X143710000Y-62253875D01*
X143670700Y-62271189D01*
X143632035Y-62284330D01*
X143594653Y-62293283D01*
X143558130Y-62298377D01*
X143512055Y-62300209D01*
X143455827Y-62310626D01*
X143420105Y-62326785D01*
X143388222Y-62349603D01*
X143361403Y-62378202D01*
X143340679Y-62411484D01*
X143326846Y-62448170D01*
X143310000Y-62510887D01*
X143310000Y-61975000D01*
X143135000Y-61800000D01*
X142510000Y-61796613D01*
X142372776Y-61810128D01*
X142240825Y-61850155D01*
X142119219Y-61915155D01*
X142012630Y-62002630D01*
X141925155Y-62109219D01*
X141860155Y-62230825D01*
X141820128Y-62362776D01*
X141806613Y-62500000D01*
X136527157Y-62500000D01*
X136743470Y-62283687D01*
X136645362Y-62009963D01*
X136338619Y-61875623D01*
X136011561Y-61803707D01*
X135676758Y-61796978D01*
X135347075Y-61855695D01*
X135035182Y-61977602D01*
X134974638Y-62009963D01*
X134876530Y-62283687D01*
X134890762Y-62297919D01*
X134607919Y-62580762D01*
X134593687Y-62566530D01*
X134319963Y-62664638D01*
X134185623Y-62971381D01*
X134113707Y-63298439D01*
X134106978Y-63633242D01*
X133550000Y-63633242D01*
X133550000Y-60960000D01*
X133546157Y-60920982D01*
X133534776Y-60883463D01*
X133516294Y-60848886D01*
X133491421Y-60818579D01*
X133461114Y-60793706D01*
X133426537Y-60775224D01*
X133389018Y-60763843D01*
X133350000Y-60760000D01*
X125930000Y-60760000D01*
X125930000Y-53010000D01*
X129776613Y-53010000D01*
X129776613Y-56210000D01*
X129790128Y-56347224D01*
X129830155Y-56479175D01*
X129895155Y-56600781D01*
X129982630Y-56707370D01*
X130089219Y-56794845D01*
X130210825Y-56859845D01*
X130342776Y-56899872D01*
X130480000Y-56913387D01*
X133680000Y-56913387D01*
X133817224Y-56899872D01*
X133949175Y-56859845D01*
X134070781Y-56794845D01*
X134177370Y-56707370D01*
X134264845Y-56600781D01*
X134329845Y-56479175D01*
X134369872Y-56347224D01*
X134383387Y-56210000D01*
X134383387Y-54383470D01*
X134860000Y-54383470D01*
X134860000Y-54836530D01*
X134948387Y-55280885D01*
X135121766Y-55699459D01*
X135373473Y-56076165D01*
X135693835Y-56396527D01*
X136070541Y-56648234D01*
X136489115Y-56821613D01*
X136933470Y-56910000D01*
X137386530Y-56910000D01*
X137830885Y-56821613D01*
X138249459Y-56648234D01*
X138626165Y-56396527D01*
X138946527Y-56076165D01*
X139198234Y-55699459D01*
X139371613Y-55280885D01*
X139460000Y-54836530D01*
X139460000Y-54383470D01*
X139940000Y-54383470D01*
X139940000Y-54836530D01*
X140028387Y-55280885D01*
X140201766Y-55699459D01*
X140453473Y-56076165D01*
X140773835Y-56396527D01*
X141150541Y-56648234D01*
X141569115Y-56821613D01*
X142013470Y-56910000D01*
X142466530Y-56910000D01*
X142910885Y-56821613D01*
X143329459Y-56648234D01*
X143706165Y-56396527D01*
X144026527Y-56076165D01*
X144278234Y-55699459D01*
X144451613Y-55280885D01*
X144540000Y-54836530D01*
X144540000Y-54383470D01*
X145020000Y-54383470D01*
X145020000Y-54836530D01*
X145108387Y-55280885D01*
X145281766Y-55699459D01*
X145533473Y-56076165D01*
X145853835Y-56396527D01*
X146230541Y-56648234D01*
X146649115Y-56821613D01*
X147093470Y-56910000D01*
X147546530Y-56910000D01*
X147990885Y-56821613D01*
X148409459Y-56648234D01*
X148786165Y-56396527D01*
X149106527Y-56076165D01*
X149358234Y-55699459D01*
X149531613Y-55280885D01*
X149620000Y-54836530D01*
X149620000Y-54383470D01*
X149531613Y-53939115D01*
X149358234Y-53520541D01*
X149106527Y-53143835D01*
X148786165Y-52823473D01*
X148409459Y-52571766D01*
X147990885Y-52398387D01*
X147546530Y-52310000D01*
X147093470Y-52310000D01*
X146649115Y-52398387D01*
X146230541Y-52571766D01*
X145853835Y-52823473D01*
X145533473Y-53143835D01*
X145281766Y-53520541D01*
X145108387Y-53939115D01*
X145020000Y-54383470D01*
X144540000Y-54383470D01*
X144451613Y-53939115D01*
X144278234Y-53520541D01*
X144026527Y-53143835D01*
X143706165Y-52823473D01*
X143329459Y-52571766D01*
X142910885Y-52398387D01*
X142466530Y-52310000D01*
X142013470Y-52310000D01*
X141569115Y-52398387D01*
X141150541Y-52571766D01*
X140773835Y-52823473D01*
X140453473Y-53143835D01*
X140201766Y-53520541D01*
X140028387Y-53939115D01*
X139940000Y-54383470D01*
X139460000Y-54383470D01*
X139371613Y-53939115D01*
X139198234Y-53520541D01*
X138946527Y-53143835D01*
X138626165Y-52823473D01*
X138249459Y-52571766D01*
X137830885Y-52398387D01*
X137386530Y-52310000D01*
X136933470Y-52310000D01*
X136489115Y-52398387D01*
X136070541Y-52571766D01*
X135693835Y-52823473D01*
X135373473Y-53143835D01*
X135121766Y-53520541D01*
X134948387Y-53939115D01*
X134860000Y-54383470D01*
X134383387Y-54383470D01*
X134383387Y-53010000D01*
X134369872Y-52872776D01*
X134329845Y-52740825D01*
X134264845Y-52619219D01*
X134177370Y-52512630D01*
X134070781Y-52425155D01*
X133949175Y-52360155D01*
X133817224Y-52320128D01*
X133680000Y-52306613D01*
X130480000Y-52306613D01*
X130342776Y-52320128D01*
X130210825Y-52360155D01*
X130089219Y-52425155D01*
X129982630Y-52512630D01*
X129895155Y-52619219D01*
X129830155Y-52740825D01*
X129790128Y-52872776D01*
X129776613Y-53010000D01*
X125930000Y-53010000D01*
X125930000Y-49730000D01*
X137160000Y-49730000D01*
X137199018Y-49726157D01*
X137236537Y-49714776D01*
X137271114Y-49696294D01*
X137301421Y-49671421D01*
X137326294Y-49641114D01*
X137344776Y-49606537D01*
X137356157Y-49569018D01*
X137360000Y-49530000D01*
X137360000Y-44650000D01*
X139121936Y-44650000D01*
X139059603Y-44672129D01*
D30*
G36*
X122408969Y-83928631D02*
G01*
X122408997Y-83929236D01*
X122414000Y-84001218D01*
X122414065Y-84001897D01*
X122422402Y-84069257D01*
X122422520Y-84070020D01*
X122434193Y-84132757D01*
X122434382Y-84133609D01*
X122449389Y-84191723D01*
X122449673Y-84192668D01*
X122468016Y-84246159D01*
X122468420Y-84247189D01*
X122490097Y-84296058D01*
X122490650Y-84297158D01*
X122515663Y-84341404D01*
X122516390Y-84342544D01*
X122544738Y-84382168D01*
X122545652Y-84383301D01*
X122571130Y-84411447D01*
X121920000Y-85540824D01*
X121268871Y-84411447D01*
X121294348Y-84383301D01*
X121295261Y-84382168D01*
X121323609Y-84342544D01*
X121324336Y-84341404D01*
X121349349Y-84297158D01*
X121349902Y-84296058D01*
X121371579Y-84247189D01*
X121371983Y-84246159D01*
X121390326Y-84192668D01*
X121390610Y-84191723D01*
X121405617Y-84133609D01*
X121405806Y-84132757D01*
X121417479Y-84070020D01*
X121417597Y-84069257D01*
X121425934Y-84001897D01*
X121425999Y-84001218D01*
X121431002Y-83929236D01*
X121431030Y-83928631D01*
X121432427Y-83864450D01*
X122407572Y-83864450D01*
X122408969Y-83928631D01*
G37*
X122408969Y-83928631D02*
X122408997Y-83929236D01*
X122414000Y-84001218D01*
X122414065Y-84001897D01*
X122422402Y-84069257D01*
X122422520Y-84070020D01*
X122434193Y-84132757D01*
X122434382Y-84133609D01*
X122449389Y-84191723D01*
X122449673Y-84192668D01*
X122468016Y-84246159D01*
X122468420Y-84247189D01*
X122490097Y-84296058D01*
X122490650Y-84297158D01*
X122515663Y-84341404D01*
X122516390Y-84342544D01*
X122544738Y-84382168D01*
X122545652Y-84383301D01*
X122571130Y-84411447D01*
X121920000Y-85540824D01*
X121268871Y-84411447D01*
X121294348Y-84383301D01*
X121295261Y-84382168D01*
X121323609Y-84342544D01*
X121324336Y-84341404D01*
X121349349Y-84297158D01*
X121349902Y-84296058D01*
X121371579Y-84247189D01*
X121371983Y-84246159D01*
X121390326Y-84192668D01*
X121390610Y-84191723D01*
X121405617Y-84133609D01*
X121405806Y-84132757D01*
X121417479Y-84070020D01*
X121417597Y-84069257D01*
X121425934Y-84001897D01*
X121425999Y-84001218D01*
X121431002Y-83929236D01*
X121431030Y-83928631D01*
X121432427Y-83864450D01*
X122407572Y-83864450D01*
X122408969Y-83928631D01*
G36*
X131494330Y-76912389D02*
G01*
X131462670Y-76946670D01*
X131461865Y-76947633D01*
X131427865Y-76992655D01*
X131427175Y-76993667D01*
X131397175Y-77042564D01*
X131396608Y-77043593D01*
X131370608Y-77096365D01*
X131370161Y-77097380D01*
X131348161Y-77154028D01*
X131347827Y-77155006D01*
X131329827Y-77215530D01*
X131329590Y-77216452D01*
X131315590Y-77280851D01*
X131315434Y-77281708D01*
X131305434Y-77349982D01*
X131305344Y-77350771D01*
X131299344Y-77422922D01*
X131299304Y-77423640D01*
X131297629Y-77487300D01*
X130322371Y-77487300D01*
X130320696Y-77423640D01*
X130320656Y-77422922D01*
X130314656Y-77350771D01*
X130314566Y-77349982D01*
X130304566Y-77281708D01*
X130304410Y-77280851D01*
X130290410Y-77216452D01*
X130290173Y-77215530D01*
X130272173Y-77155006D01*
X130271839Y-77154028D01*
X130249839Y-77097380D01*
X130249392Y-77096365D01*
X130223392Y-77043593D01*
X130222825Y-77042564D01*
X130192825Y-76993667D01*
X130192135Y-76992655D01*
X130158135Y-76947633D01*
X130157330Y-76946670D01*
X130125670Y-76912389D01*
X130810000Y-75725426D01*
X131494330Y-76912389D01*
G37*
X131494330Y-76912389D02*
X131462670Y-76946670D01*
X131461865Y-76947633D01*
X131427865Y-76992655D01*
X131427175Y-76993667D01*
X131397175Y-77042564D01*
X131396608Y-77043593D01*
X131370608Y-77096365D01*
X131370161Y-77097380D01*
X131348161Y-77154028D01*
X131347827Y-77155006D01*
X131329827Y-77215530D01*
X131329590Y-77216452D01*
X131315590Y-77280851D01*
X131315434Y-77281708D01*
X131305434Y-77349982D01*
X131305344Y-77350771D01*
X131299344Y-77422922D01*
X131299304Y-77423640D01*
X131297629Y-77487300D01*
X130322371Y-77487300D01*
X130320696Y-77423640D01*
X130320656Y-77422922D01*
X130314656Y-77350771D01*
X130314566Y-77349982D01*
X130304566Y-77281708D01*
X130304410Y-77280851D01*
X130290410Y-77216452D01*
X130290173Y-77215530D01*
X130272173Y-77155006D01*
X130271839Y-77154028D01*
X130249839Y-77097380D01*
X130249392Y-77096365D01*
X130223392Y-77043593D01*
X130222825Y-77042564D01*
X130192825Y-76993667D01*
X130192135Y-76992655D01*
X130158135Y-76947633D01*
X130157330Y-76946670D01*
X130125670Y-76912389D01*
X130810000Y-75725426D01*
X131494330Y-76912389D01*
G36*
X160508969Y-83928631D02*
G01*
X160508997Y-83929236D01*
X160514000Y-84001218D01*
X160514065Y-84001897D01*
X160522402Y-84069257D01*
X160522520Y-84070020D01*
X160534193Y-84132757D01*
X160534382Y-84133609D01*
X160549389Y-84191723D01*
X160549673Y-84192668D01*
X160568016Y-84246159D01*
X160568420Y-84247189D01*
X160590097Y-84296058D01*
X160590650Y-84297158D01*
X160615663Y-84341404D01*
X160616390Y-84342544D01*
X160644738Y-84382168D01*
X160645652Y-84383301D01*
X160671130Y-84411447D01*
X160020000Y-85540824D01*
X159368871Y-84411447D01*
X159394348Y-84383301D01*
X159395261Y-84382168D01*
X159423609Y-84342544D01*
X159424336Y-84341404D01*
X159449349Y-84297158D01*
X159449902Y-84296058D01*
X159471579Y-84247189D01*
X159471983Y-84246159D01*
X159490326Y-84192668D01*
X159490610Y-84191723D01*
X159505617Y-84133609D01*
X159505806Y-84132757D01*
X159517479Y-84070020D01*
X159517597Y-84069257D01*
X159525934Y-84001897D01*
X159525999Y-84001218D01*
X159531002Y-83929236D01*
X159531030Y-83928631D01*
X159532427Y-83864450D01*
X160507572Y-83864450D01*
X160508969Y-83928631D01*
G37*
X160508969Y-83928631D02*
X160508997Y-83929236D01*
X160514000Y-84001218D01*
X160514065Y-84001897D01*
X160522402Y-84069257D01*
X160522520Y-84070020D01*
X160534193Y-84132757D01*
X160534382Y-84133609D01*
X160549389Y-84191723D01*
X160549673Y-84192668D01*
X160568016Y-84246159D01*
X160568420Y-84247189D01*
X160590097Y-84296058D01*
X160590650Y-84297158D01*
X160615663Y-84341404D01*
X160616390Y-84342544D01*
X160644738Y-84382168D01*
X160645652Y-84383301D01*
X160671130Y-84411447D01*
X160020000Y-85540824D01*
X159368871Y-84411447D01*
X159394348Y-84383301D01*
X159395261Y-84382168D01*
X159423609Y-84342544D01*
X159424336Y-84341404D01*
X159449349Y-84297158D01*
X159449902Y-84296058D01*
X159471579Y-84247189D01*
X159471983Y-84246159D01*
X159490326Y-84192668D01*
X159490610Y-84191723D01*
X159505617Y-84133609D01*
X159505806Y-84132757D01*
X159517479Y-84070020D01*
X159517597Y-84069257D01*
X159525934Y-84001897D01*
X159525999Y-84001218D01*
X159531002Y-83929236D01*
X159531030Y-83928631D01*
X159532427Y-83864450D01*
X160507572Y-83864450D01*
X160508969Y-83928631D01*
G36*
X149194330Y-76912389D02*
G01*
X149162670Y-76946670D01*
X149161865Y-76947633D01*
X149127865Y-76992655D01*
X149127175Y-76993667D01*
X149097175Y-77042564D01*
X149096608Y-77043593D01*
X149070608Y-77096365D01*
X149070161Y-77097380D01*
X149048161Y-77154028D01*
X149047827Y-77155006D01*
X149029827Y-77215530D01*
X149029590Y-77216452D01*
X149015590Y-77280851D01*
X149015434Y-77281708D01*
X149005434Y-77349982D01*
X149005344Y-77350771D01*
X148999344Y-77422922D01*
X148999304Y-77423640D01*
X148997629Y-77487300D01*
X148022371Y-77487300D01*
X148020696Y-77423640D01*
X148020656Y-77422922D01*
X148014656Y-77350771D01*
X148014566Y-77349982D01*
X148004566Y-77281708D01*
X148004410Y-77280851D01*
X147990410Y-77216452D01*
X147990173Y-77215530D01*
X147972173Y-77155006D01*
X147971839Y-77154028D01*
X147949839Y-77097380D01*
X147949392Y-77096365D01*
X147923392Y-77043593D01*
X147922825Y-77042564D01*
X147892825Y-76993667D01*
X147892135Y-76992655D01*
X147858135Y-76947633D01*
X147857330Y-76946670D01*
X147825670Y-76912389D01*
X148510000Y-75725426D01*
X149194330Y-76912389D01*
G37*
X149194330Y-76912389D02*
X149162670Y-76946670D01*
X149161865Y-76947633D01*
X149127865Y-76992655D01*
X149127175Y-76993667D01*
X149097175Y-77042564D01*
X149096608Y-77043593D01*
X149070608Y-77096365D01*
X149070161Y-77097380D01*
X149048161Y-77154028D01*
X149047827Y-77155006D01*
X149029827Y-77215530D01*
X149029590Y-77216452D01*
X149015590Y-77280851D01*
X149015434Y-77281708D01*
X149005434Y-77349982D01*
X149005344Y-77350771D01*
X148999344Y-77422922D01*
X148999304Y-77423640D01*
X148997629Y-77487300D01*
X148022371Y-77487300D01*
X148020696Y-77423640D01*
X148020656Y-77422922D01*
X148014656Y-77350771D01*
X148014566Y-77349982D01*
X148004566Y-77281708D01*
X148004410Y-77280851D01*
X147990410Y-77216452D01*
X147990173Y-77215530D01*
X147972173Y-77155006D01*
X147971839Y-77154028D01*
X147949839Y-77097380D01*
X147949392Y-77096365D01*
X147923392Y-77043593D01*
X147922825Y-77042564D01*
X147892825Y-76993667D01*
X147892135Y-76992655D01*
X147858135Y-76947633D01*
X147857330Y-76946670D01*
X147825670Y-76912389D01*
X148510000Y-75725426D01*
X149194330Y-76912389D01*
G36*
X140887535Y-47010216D02*
G01*
X140889374Y-47071764D01*
X140889419Y-47072519D01*
X140897061Y-47157775D01*
X140897120Y-47158306D01*
X140910281Y-47257834D01*
X140910339Y-47258226D01*
X140929021Y-47372024D01*
X140929074Y-47372325D01*
X140953275Y-47500395D01*
X140953322Y-47500633D01*
X140983043Y-47642974D01*
X140983085Y-47643166D01*
X141018327Y-47799778D01*
X141018364Y-47799937D01*
X141059125Y-47970820D01*
X141059157Y-47970953D01*
X141105438Y-48156108D01*
X141105467Y-48156221D01*
X141155442Y-48348613D01*
X140468821Y-49035234D01*
X140419656Y-48859930D01*
X140419528Y-48859501D01*
X140363573Y-48684020D01*
X140363393Y-48683497D01*
X140306510Y-48528736D01*
X140306252Y-48528087D01*
X140248440Y-48394045D01*
X140248053Y-48393230D01*
X140189312Y-48279909D01*
X140188713Y-48278875D01*
X140129043Y-48186274D01*
X140128077Y-48184967D01*
X140067479Y-48113085D01*
X140065889Y-48111506D01*
X140004361Y-48060345D01*
X140001805Y-48058694D01*
X139939349Y-48028252D01*
X139937015Y-48027386D01*
X139935710Y-48027115D01*
X139880515Y-48018650D01*
X139510284Y-46640284D01*
X140887535Y-47010216D01*
G37*
X140887535Y-47010216D02*
X140889374Y-47071764D01*
X140889419Y-47072519D01*
X140897061Y-47157775D01*
X140897120Y-47158306D01*
X140910281Y-47257834D01*
X140910339Y-47258226D01*
X140929021Y-47372024D01*
X140929074Y-47372325D01*
X140953275Y-47500395D01*
X140953322Y-47500633D01*
X140983043Y-47642974D01*
X140983085Y-47643166D01*
X141018327Y-47799778D01*
X141018364Y-47799937D01*
X141059125Y-47970820D01*
X141059157Y-47970953D01*
X141105438Y-48156108D01*
X141105467Y-48156221D01*
X141155442Y-48348613D01*
X140468821Y-49035234D01*
X140419656Y-48859930D01*
X140419528Y-48859501D01*
X140363573Y-48684020D01*
X140363393Y-48683497D01*
X140306510Y-48528736D01*
X140306252Y-48528087D01*
X140248440Y-48394045D01*
X140248053Y-48393230D01*
X140189312Y-48279909D01*
X140188713Y-48278875D01*
X140129043Y-48186274D01*
X140128077Y-48184967D01*
X140067479Y-48113085D01*
X140065889Y-48111506D01*
X140004361Y-48060345D01*
X140001805Y-48058694D01*
X139939349Y-48028252D01*
X139937015Y-48027386D01*
X139935710Y-48027115D01*
X139880515Y-48018650D01*
X139510284Y-46640284D01*
X140887535Y-47010216D01*
G36*
X139839485Y-48018650D02*
G01*
X139784289Y-48027115D01*
X139781877Y-48027732D01*
X139780650Y-48028252D01*
X139718194Y-48058694D01*
X139715638Y-48060345D01*
X139654110Y-48111506D01*
X139652520Y-48113085D01*
X139591922Y-48184967D01*
X139590956Y-48186274D01*
X139531286Y-48278875D01*
X139530687Y-48279909D01*
X139471946Y-48393230D01*
X139471559Y-48394045D01*
X139413747Y-48528087D01*
X139413489Y-48528736D01*
X139356606Y-48683497D01*
X139356426Y-48684020D01*
X139300471Y-48859501D01*
X139300343Y-48859930D01*
X139251179Y-49035234D01*
X138564558Y-48348613D01*
X138614532Y-48156221D01*
X138614561Y-48156108D01*
X138660842Y-47970953D01*
X138660874Y-47970820D01*
X138701635Y-47799937D01*
X138701672Y-47799778D01*
X138736914Y-47643166D01*
X138736956Y-47642974D01*
X138766677Y-47500633D01*
X138766724Y-47500395D01*
X138790925Y-47372325D01*
X138790978Y-47372024D01*
X138809660Y-47258226D01*
X138809718Y-47257834D01*
X138822879Y-47158306D01*
X138822938Y-47157775D01*
X138830580Y-47072519D01*
X138830625Y-47071764D01*
X138832465Y-47010216D01*
X140209716Y-46640284D01*
X139839485Y-48018650D01*
G37*
X139839485Y-48018650D02*
X139784289Y-48027115D01*
X139781877Y-48027732D01*
X139780650Y-48028252D01*
X139718194Y-48058694D01*
X139715638Y-48060345D01*
X139654110Y-48111506D01*
X139652520Y-48113085D01*
X139591922Y-48184967D01*
X139590956Y-48186274D01*
X139531286Y-48278875D01*
X139530687Y-48279909D01*
X139471946Y-48393230D01*
X139471559Y-48394045D01*
X139413747Y-48528087D01*
X139413489Y-48528736D01*
X139356606Y-48683497D01*
X139356426Y-48684020D01*
X139300471Y-48859501D01*
X139300343Y-48859930D01*
X139251179Y-49035234D01*
X138564558Y-48348613D01*
X138614532Y-48156221D01*
X138614561Y-48156108D01*
X138660842Y-47970953D01*
X138660874Y-47970820D01*
X138701635Y-47799937D01*
X138701672Y-47799778D01*
X138736914Y-47643166D01*
X138736956Y-47642974D01*
X138766677Y-47500633D01*
X138766724Y-47500395D01*
X138790925Y-47372325D01*
X138790978Y-47372024D01*
X138809660Y-47258226D01*
X138809718Y-47257834D01*
X138822879Y-47158306D01*
X138822938Y-47157775D01*
X138830580Y-47072519D01*
X138830625Y-47071764D01*
X138832465Y-47010216D01*
X140209716Y-46640284D01*
X139839485Y-48018650D01*
G36*
X144765065Y-62934548D02*
G01*
X144721234Y-62980746D01*
X144720753Y-62981282D01*
X144673978Y-63036543D01*
X144673485Y-63037164D01*
X144632279Y-63092512D01*
X144631783Y-63093228D01*
X144596145Y-63148665D01*
X144595660Y-63149485D01*
X144565591Y-63205009D01*
X144565137Y-63205937D01*
X144540637Y-63261550D01*
X144540235Y-63262583D01*
X144521304Y-63318283D01*
X144520977Y-63319412D01*
X144507615Y-63375201D01*
X144507388Y-63376405D01*
X144499595Y-63432281D01*
X144499483Y-63433531D01*
X144497630Y-63480159D01*
X143174426Y-63835574D01*
X143529841Y-62512370D01*
X143576469Y-62510516D01*
X143577718Y-62510404D01*
X143633594Y-62502611D01*
X143634798Y-62502384D01*
X143690587Y-62489022D01*
X143691716Y-62488695D01*
X143747416Y-62469764D01*
X143748449Y-62469362D01*
X143804062Y-62444862D01*
X143804990Y-62444408D01*
X143860514Y-62414339D01*
X143861334Y-62413854D01*
X143916771Y-62378216D01*
X143917487Y-62377720D01*
X143972835Y-62336514D01*
X143973456Y-62336021D01*
X144028717Y-62289246D01*
X144029253Y-62288765D01*
X144075452Y-62244935D01*
X144765065Y-62934548D01*
G37*
X144765065Y-62934548D02*
X144721234Y-62980746D01*
X144720753Y-62981282D01*
X144673978Y-63036543D01*
X144673485Y-63037164D01*
X144632279Y-63092512D01*
X144631783Y-63093228D01*
X144596145Y-63148665D01*
X144595660Y-63149485D01*
X144565591Y-63205009D01*
X144565137Y-63205937D01*
X144540637Y-63261550D01*
X144540235Y-63262583D01*
X144521304Y-63318283D01*
X144520977Y-63319412D01*
X144507615Y-63375201D01*
X144507388Y-63376405D01*
X144499595Y-63432281D01*
X144499483Y-63433531D01*
X144497630Y-63480159D01*
X143174426Y-63835574D01*
X143529841Y-62512370D01*
X143576469Y-62510516D01*
X143577718Y-62510404D01*
X143633594Y-62502611D01*
X143634798Y-62502384D01*
X143690587Y-62489022D01*
X143691716Y-62488695D01*
X143747416Y-62469764D01*
X143748449Y-62469362D01*
X143804062Y-62444862D01*
X143804990Y-62444408D01*
X143860514Y-62414339D01*
X143861334Y-62413854D01*
X143916771Y-62378216D01*
X143917487Y-62377720D01*
X143972835Y-62336514D01*
X143973456Y-62336021D01*
X144028717Y-62289246D01*
X144029253Y-62288765D01*
X144075452Y-62244935D01*
X144765065Y-62934548D01*
G36*
X135290746Y-62288765D02*
G01*
X135291282Y-62289246D01*
X135346543Y-62336021D01*
X135347164Y-62336514D01*
X135402512Y-62377720D01*
X135403228Y-62378216D01*
X135458665Y-62413854D01*
X135459485Y-62414339D01*
X135515009Y-62444408D01*
X135515937Y-62444862D01*
X135571550Y-62469362D01*
X135572583Y-62469764D01*
X135628283Y-62488695D01*
X135629412Y-62489022D01*
X135685201Y-62502384D01*
X135686405Y-62502611D01*
X135742281Y-62510404D01*
X135743530Y-62510516D01*
X135790159Y-62512370D01*
X136145574Y-63835574D01*
X134822370Y-63480159D01*
X134820516Y-63433530D01*
X134820404Y-63432281D01*
X134812611Y-63376405D01*
X134812384Y-63375201D01*
X134799022Y-63319412D01*
X134798695Y-63318283D01*
X134779764Y-63262583D01*
X134779362Y-63261550D01*
X134754862Y-63205937D01*
X134754408Y-63205009D01*
X134724339Y-63149485D01*
X134723854Y-63148665D01*
X134688216Y-63093228D01*
X134687720Y-63092512D01*
X134646514Y-63037164D01*
X134646021Y-63036543D01*
X134599246Y-62981282D01*
X134598765Y-62980746D01*
X134554935Y-62934548D01*
X135244548Y-62244935D01*
X135290746Y-62288765D01*
G37*
X135290746Y-62288765D02*
X135291282Y-62289246D01*
X135346543Y-62336021D01*
X135347164Y-62336514D01*
X135402512Y-62377720D01*
X135403228Y-62378216D01*
X135458665Y-62413854D01*
X135459485Y-62414339D01*
X135515009Y-62444408D01*
X135515937Y-62444862D01*
X135571550Y-62469362D01*
X135572583Y-62469764D01*
X135628283Y-62488695D01*
X135629412Y-62489022D01*
X135685201Y-62502384D01*
X135686405Y-62502611D01*
X135742281Y-62510404D01*
X135743530Y-62510516D01*
X135790159Y-62512370D01*
X136145574Y-63835574D01*
X134822370Y-63480159D01*
X134820516Y-63433530D01*
X134820404Y-63432281D01*
X134812611Y-63376405D01*
X134812384Y-63375201D01*
X134799022Y-63319412D01*
X134798695Y-63318283D01*
X134779764Y-63262583D01*
X134779362Y-63261550D01*
X134754862Y-63205937D01*
X134754408Y-63205009D01*
X134724339Y-63149485D01*
X134723854Y-63148665D01*
X134688216Y-63093228D01*
X134687720Y-63092512D01*
X134646514Y-63037164D01*
X134646021Y-63036543D01*
X134599246Y-62981282D01*
X134598765Y-62980746D01*
X134554935Y-62934548D01*
X135244548Y-62244935D01*
X135290746Y-62288765D01*
G36*
X136224574Y-87630000D02*
G01*
X135371126Y-88122045D01*
X135365607Y-88123310D01*
X135364524Y-88123609D01*
X135343970Y-88130279D01*
X135343744Y-88130355D01*
X135310011Y-88142005D01*
X135309914Y-88142039D01*
X135263002Y-88158669D01*
X135262947Y-88158688D01*
X135202855Y-88180298D01*
X135202821Y-88180311D01*
X135129549Y-88206901D01*
X135129525Y-88206910D01*
X135043074Y-88238480D01*
X135043056Y-88238486D01*
X134943425Y-88275036D01*
X134943411Y-88275041D01*
X134830601Y-88316571D01*
X134830591Y-88316575D01*
X134721700Y-88356774D01*
X134721700Y-87383845D01*
X134839394Y-87340322D01*
X134839399Y-87340320D01*
X134952209Y-87298550D01*
X134952215Y-87298547D01*
X135051846Y-87261597D01*
X135051854Y-87261594D01*
X135138305Y-87229464D01*
X135138316Y-87229460D01*
X135211588Y-87202150D01*
X135211605Y-87202144D01*
X135271697Y-87179654D01*
X135271722Y-87179645D01*
X135318634Y-87161975D01*
X135318678Y-87161958D01*
X135352411Y-87149108D01*
X135352511Y-87149069D01*
X135373065Y-87141039D01*
X135373512Y-87140855D01*
X135375019Y-87140199D01*
X136224574Y-87630000D01*
G37*
X136224574Y-87630000D02*
X135371126Y-88122045D01*
X135365607Y-88123310D01*
X135364524Y-88123609D01*
X135343970Y-88130279D01*
X135343744Y-88130355D01*
X135310011Y-88142005D01*
X135309914Y-88142039D01*
X135263002Y-88158669D01*
X135262947Y-88158688D01*
X135202855Y-88180298D01*
X135202821Y-88180311D01*
X135129549Y-88206901D01*
X135129525Y-88206910D01*
X135043074Y-88238480D01*
X135043056Y-88238486D01*
X134943425Y-88275036D01*
X134943411Y-88275041D01*
X134830601Y-88316571D01*
X134830591Y-88316575D01*
X134721700Y-88356774D01*
X134721700Y-87383845D01*
X134839394Y-87340322D01*
X134839399Y-87340320D01*
X134952209Y-87298550D01*
X134952215Y-87298547D01*
X135051846Y-87261597D01*
X135051854Y-87261594D01*
X135138305Y-87229464D01*
X135138316Y-87229460D01*
X135211588Y-87202150D01*
X135211605Y-87202144D01*
X135271697Y-87179654D01*
X135271722Y-87179645D01*
X135318634Y-87161975D01*
X135318678Y-87161958D01*
X135352411Y-87149108D01*
X135352511Y-87149069D01*
X135373065Y-87141039D01*
X135373512Y-87140855D01*
X135375019Y-87140199D01*
X136224574Y-87630000D01*
G36*
X144027170Y-87139312D02*
G01*
X144028452Y-87139443D01*
X144041656Y-87140123D01*
X144041954Y-87140135D01*
X144063437Y-87140735D01*
X144063570Y-87140738D01*
X144093332Y-87141258D01*
X144093407Y-87141259D01*
X144131450Y-87141699D01*
X144131498Y-87141700D01*
X144177819Y-87142060D01*
X144177853Y-87142060D01*
X144232454Y-87142340D01*
X144232479Y-87142340D01*
X144295360Y-87142540D01*
X144295379Y-87142540D01*
X144366539Y-87142660D01*
X144366554Y-87142660D01*
X144433300Y-87142694D01*
X144433300Y-88117306D01*
X144366554Y-88117339D01*
X144366539Y-88117339D01*
X144295379Y-88117459D01*
X144295360Y-88117459D01*
X144232479Y-88117659D01*
X144232454Y-88117659D01*
X144177853Y-88117939D01*
X144177819Y-88117939D01*
X144131498Y-88118299D01*
X144131450Y-88118300D01*
X144093407Y-88118740D01*
X144093332Y-88118741D01*
X144063570Y-88119261D01*
X144063437Y-88119264D01*
X144041954Y-88119864D01*
X144041656Y-88119876D01*
X144028452Y-88120556D01*
X144027167Y-88120688D01*
X144026657Y-88120767D01*
X143175426Y-87630000D01*
X144026657Y-87139233D01*
X144027170Y-87139312D01*
G37*
X144027170Y-87139312D02*
X144028452Y-87139443D01*
X144041656Y-87140123D01*
X144041954Y-87140135D01*
X144063437Y-87140735D01*
X144063570Y-87140738D01*
X144093332Y-87141258D01*
X144093407Y-87141259D01*
X144131450Y-87141699D01*
X144131498Y-87141700D01*
X144177819Y-87142060D01*
X144177853Y-87142060D01*
X144232454Y-87142340D01*
X144232479Y-87142340D01*
X144295360Y-87142540D01*
X144295379Y-87142540D01*
X144366539Y-87142660D01*
X144366554Y-87142660D01*
X144433300Y-87142694D01*
X144433300Y-88117306D01*
X144366554Y-88117339D01*
X144366539Y-88117339D01*
X144295379Y-88117459D01*
X144295360Y-88117459D01*
X144232479Y-88117659D01*
X144232454Y-88117659D01*
X144177853Y-88117939D01*
X144177819Y-88117939D01*
X144131498Y-88118299D01*
X144131450Y-88118300D01*
X144093407Y-88118740D01*
X144093332Y-88118741D01*
X144063570Y-88119261D01*
X144063437Y-88119264D01*
X144041954Y-88119864D01*
X144041656Y-88119876D01*
X144028452Y-88120556D01*
X144027167Y-88120688D01*
X144026657Y-88120767D01*
X143175426Y-87630000D01*
X144026657Y-87139233D01*
X144027170Y-87139312D01*
G36*
X144000767Y-85606657D02*
G01*
X144000688Y-85607167D01*
X144000556Y-85608452D01*
X143999876Y-85621656D01*
X143999864Y-85621954D01*
X143999264Y-85643437D01*
X143999261Y-85643570D01*
X143998741Y-85673332D01*
X143998740Y-85673407D01*
X143998300Y-85711450D01*
X143998299Y-85711498D01*
X143997939Y-85757819D01*
X143997939Y-85757853D01*
X143997659Y-85812454D01*
X143997659Y-85812479D01*
X143997459Y-85875360D01*
X143997459Y-85875379D01*
X143997339Y-85946539D01*
X143997339Y-85946554D01*
X143997306Y-86013300D01*
X143022694Y-86013300D01*
X143022660Y-85946554D01*
X143022660Y-85946539D01*
X143022540Y-85875379D01*
X143022540Y-85875360D01*
X143022340Y-85812479D01*
X143022340Y-85812454D01*
X143022060Y-85757853D01*
X143022060Y-85757819D01*
X143021700Y-85711498D01*
X143021699Y-85711450D01*
X143021259Y-85673407D01*
X143021258Y-85673332D01*
X143020738Y-85643570D01*
X143020735Y-85643437D01*
X143020135Y-85621954D01*
X143020123Y-85621656D01*
X143019443Y-85608452D01*
X143019312Y-85607170D01*
X143019233Y-85606657D01*
X143510000Y-84755426D01*
X144000767Y-85606657D01*
G37*
X144000767Y-85606657D02*
X144000688Y-85607167D01*
X144000556Y-85608452D01*
X143999876Y-85621656D01*
X143999864Y-85621954D01*
X143999264Y-85643437D01*
X143999261Y-85643570D01*
X143998741Y-85673332D01*
X143998740Y-85673407D01*
X143998300Y-85711450D01*
X143998299Y-85711498D01*
X143997939Y-85757819D01*
X143997939Y-85757853D01*
X143997659Y-85812454D01*
X143997659Y-85812479D01*
X143997459Y-85875360D01*
X143997459Y-85875379D01*
X143997339Y-85946539D01*
X143997339Y-85946554D01*
X143997306Y-86013300D01*
X143022694Y-86013300D01*
X143022660Y-85946554D01*
X143022660Y-85946539D01*
X143022540Y-85875379D01*
X143022540Y-85875360D01*
X143022340Y-85812479D01*
X143022340Y-85812454D01*
X143022060Y-85757853D01*
X143022060Y-85757819D01*
X143021700Y-85711498D01*
X143021699Y-85711450D01*
X143021259Y-85673407D01*
X143021258Y-85673332D01*
X143020738Y-85643570D01*
X143020735Y-85643437D01*
X143020135Y-85621954D01*
X143020123Y-85621656D01*
X143019443Y-85608452D01*
X143019312Y-85607170D01*
X143019233Y-85606657D01*
X143510000Y-84755426D01*
X144000767Y-85606657D01*
G36*
X143997339Y-86773445D02*
G01*
X143997339Y-86773460D01*
X143997459Y-86844620D01*
X143997459Y-86844639D01*
X143997659Y-86907520D01*
X143997659Y-86907545D01*
X143997939Y-86962146D01*
X143997939Y-86962180D01*
X143998299Y-87008502D01*
X143998300Y-87008550D01*
X143998740Y-87046592D01*
X143998741Y-87046667D01*
X143999261Y-87076429D01*
X143999264Y-87076562D01*
X143999864Y-87098045D01*
X143999876Y-87098343D01*
X144000556Y-87111547D01*
X144000688Y-87112831D01*
X144000767Y-87113343D01*
X143510000Y-87964574D01*
X143019233Y-87113343D01*
X143019312Y-87112829D01*
X143019443Y-87111547D01*
X143020123Y-87098343D01*
X143020135Y-87098045D01*
X143020735Y-87076562D01*
X143020738Y-87076429D01*
X143021258Y-87046667D01*
X143021259Y-87046592D01*
X143021699Y-87008550D01*
X143021700Y-87008502D01*
X143022060Y-86962180D01*
X143022060Y-86962146D01*
X143022340Y-86907545D01*
X143022340Y-86907520D01*
X143022540Y-86844639D01*
X143022540Y-86844620D01*
X143022660Y-86773460D01*
X143022660Y-86773445D01*
X143022694Y-86706700D01*
X143997306Y-86706700D01*
X143997339Y-86773445D01*
G37*
X143997339Y-86773445D02*
X143997339Y-86773460D01*
X143997459Y-86844620D01*
X143997459Y-86844639D01*
X143997659Y-86907520D01*
X143997659Y-86907545D01*
X143997939Y-86962146D01*
X143997939Y-86962180D01*
X143998299Y-87008502D01*
X143998300Y-87008550D01*
X143998740Y-87046592D01*
X143998741Y-87046667D01*
X143999261Y-87076429D01*
X143999264Y-87076562D01*
X143999864Y-87098045D01*
X143999876Y-87098343D01*
X144000556Y-87111547D01*
X144000688Y-87112831D01*
X144000767Y-87113343D01*
X143510000Y-87964574D01*
X143019233Y-87113343D01*
X143019312Y-87112829D01*
X143019443Y-87111547D01*
X143020123Y-87098343D01*
X143020135Y-87098045D01*
X143020735Y-87076562D01*
X143020738Y-87076429D01*
X143021258Y-87046667D01*
X143021259Y-87046592D01*
X143021699Y-87008550D01*
X143021700Y-87008502D01*
X143022060Y-86962180D01*
X143022060Y-86962146D01*
X143022340Y-86907545D01*
X143022340Y-86907520D01*
X143022540Y-86844639D01*
X143022540Y-86844620D01*
X143022660Y-86773460D01*
X143022660Y-86773445D01*
X143022694Y-86706700D01*
X143997306Y-86706700D01*
X143997339Y-86773445D01*
G36*
X136380767Y-85606657D02*
G01*
X136380688Y-85607167D01*
X136380556Y-85608452D01*
X136379876Y-85621656D01*
X136379864Y-85621954D01*
X136379264Y-85643437D01*
X136379261Y-85643570D01*
X136378741Y-85673332D01*
X136378740Y-85673407D01*
X136378300Y-85711450D01*
X136378299Y-85711498D01*
X136377939Y-85757819D01*
X136377939Y-85757853D01*
X136377659Y-85812454D01*
X136377659Y-85812479D01*
X136377459Y-85875360D01*
X136377459Y-85875379D01*
X136377339Y-85946539D01*
X136377339Y-85946554D01*
X136377306Y-86013300D01*
X135402694Y-86013300D01*
X135402660Y-85946554D01*
X135402660Y-85946539D01*
X135402540Y-85875379D01*
X135402540Y-85875360D01*
X135402340Y-85812479D01*
X135402340Y-85812454D01*
X135402060Y-85757853D01*
X135402060Y-85757819D01*
X135401700Y-85711498D01*
X135401699Y-85711450D01*
X135401259Y-85673407D01*
X135401258Y-85673332D01*
X135400738Y-85643570D01*
X135400735Y-85643437D01*
X135400135Y-85621954D01*
X135400123Y-85621656D01*
X135399443Y-85608452D01*
X135399312Y-85607170D01*
X135399233Y-85606657D01*
X135890000Y-84755426D01*
X136380767Y-85606657D01*
G37*
X136380767Y-85606657D02*
X136380688Y-85607167D01*
X136380556Y-85608452D01*
X136379876Y-85621656D01*
X136379864Y-85621954D01*
X136379264Y-85643437D01*
X136379261Y-85643570D01*
X136378741Y-85673332D01*
X136378740Y-85673407D01*
X136378300Y-85711450D01*
X136378299Y-85711498D01*
X136377939Y-85757819D01*
X136377939Y-85757853D01*
X136377659Y-85812454D01*
X136377659Y-85812479D01*
X136377459Y-85875360D01*
X136377459Y-85875379D01*
X136377339Y-85946539D01*
X136377339Y-85946554D01*
X136377306Y-86013300D01*
X135402694Y-86013300D01*
X135402660Y-85946554D01*
X135402660Y-85946539D01*
X135402540Y-85875379D01*
X135402540Y-85875360D01*
X135402340Y-85812479D01*
X135402340Y-85812454D01*
X135402060Y-85757853D01*
X135402060Y-85757819D01*
X135401700Y-85711498D01*
X135401699Y-85711450D01*
X135401259Y-85673407D01*
X135401258Y-85673332D01*
X135400738Y-85643570D01*
X135400735Y-85643437D01*
X135400135Y-85621954D01*
X135400123Y-85621656D01*
X135399443Y-85608452D01*
X135399312Y-85607170D01*
X135399233Y-85606657D01*
X135890000Y-84755426D01*
X136380767Y-85606657D01*
G36*
X136377339Y-86773445D02*
G01*
X136377339Y-86773460D01*
X136377459Y-86844620D01*
X136377459Y-86844639D01*
X136377659Y-86907520D01*
X136377659Y-86907545D01*
X136377939Y-86962146D01*
X136377939Y-86962180D01*
X136378299Y-87008502D01*
X136378300Y-87008550D01*
X136378740Y-87046592D01*
X136378741Y-87046667D01*
X136379261Y-87076429D01*
X136379264Y-87076562D01*
X136379864Y-87098045D01*
X136379876Y-87098343D01*
X136380556Y-87111547D01*
X136380688Y-87112831D01*
X136380767Y-87113343D01*
X135890000Y-87964574D01*
X135399233Y-87113343D01*
X135399312Y-87112829D01*
X135399443Y-87111547D01*
X135400123Y-87098343D01*
X135400135Y-87098045D01*
X135400735Y-87076562D01*
X135400738Y-87076429D01*
X135401258Y-87046667D01*
X135401259Y-87046592D01*
X135401699Y-87008550D01*
X135401700Y-87008502D01*
X135402060Y-86962180D01*
X135402060Y-86962146D01*
X135402340Y-86907545D01*
X135402340Y-86907520D01*
X135402540Y-86844639D01*
X135402540Y-86844620D01*
X135402660Y-86773460D01*
X135402660Y-86773445D01*
X135402694Y-86706700D01*
X136377306Y-86706700D01*
X136377339Y-86773445D01*
G37*
X136377339Y-86773445D02*
X136377339Y-86773460D01*
X136377459Y-86844620D01*
X136377459Y-86844639D01*
X136377659Y-86907520D01*
X136377659Y-86907545D01*
X136377939Y-86962146D01*
X136377939Y-86962180D01*
X136378299Y-87008502D01*
X136378300Y-87008550D01*
X136378740Y-87046592D01*
X136378741Y-87046667D01*
X136379261Y-87076429D01*
X136379264Y-87076562D01*
X136379864Y-87098045D01*
X136379876Y-87098343D01*
X136380556Y-87111547D01*
X136380688Y-87112831D01*
X136380767Y-87113343D01*
X135890000Y-87964574D01*
X135399233Y-87113343D01*
X135399312Y-87112829D01*
X135399443Y-87111547D01*
X135400123Y-87098343D01*
X135400135Y-87098045D01*
X135400735Y-87076562D01*
X135400738Y-87076429D01*
X135401258Y-87046667D01*
X135401259Y-87046592D01*
X135401699Y-87008550D01*
X135401700Y-87008502D01*
X135402060Y-86962180D01*
X135402060Y-86962146D01*
X135402340Y-86907545D01*
X135402340Y-86907520D01*
X135402540Y-86844639D01*
X135402540Y-86844620D01*
X135402660Y-86773460D01*
X135402660Y-86773445D01*
X135402694Y-86706700D01*
X136377306Y-86706700D01*
X136377339Y-86773445D01*
G36*
X156847413Y-70562532D02*
G01*
X156816796Y-70596829D01*
X156815722Y-70598214D01*
X156785532Y-70643236D01*
X156784647Y-70644779D01*
X156760997Y-70693676D01*
X156760349Y-70695289D01*
X156743239Y-70748061D01*
X156742835Y-70749649D01*
X156732265Y-70806297D01*
X156732078Y-70807782D01*
X156728048Y-70868306D01*
X156728030Y-70869645D01*
X156730540Y-70934044D01*
X156730640Y-70935218D01*
X156739690Y-71003492D01*
X156739866Y-71004505D01*
X156755456Y-71076656D01*
X156755676Y-71077523D01*
X156773076Y-71137300D01*
X155799064Y-71137300D01*
X155775880Y-71069846D01*
X155775732Y-71069438D01*
X155748142Y-70997287D01*
X155747966Y-70996851D01*
X155718916Y-70928577D01*
X155718707Y-70928112D01*
X155688197Y-70863713D01*
X155687950Y-70863218D01*
X155655980Y-70802694D01*
X155655687Y-70802171D01*
X155622257Y-70745523D01*
X155621914Y-70744974D01*
X155587024Y-70692202D01*
X155586622Y-70691629D01*
X155550272Y-70642732D01*
X155549805Y-70642142D01*
X155511995Y-70597120D01*
X155511457Y-70596519D01*
X155478750Y-70562250D01*
X156163000Y-69375426D01*
X156847413Y-70562532D01*
G37*
X156847413Y-70562532D02*
X156816796Y-70596829D01*
X156815722Y-70598214D01*
X156785532Y-70643236D01*
X156784647Y-70644779D01*
X156760997Y-70693676D01*
X156760349Y-70695289D01*
X156743239Y-70748061D01*
X156742835Y-70749649D01*
X156732265Y-70806297D01*
X156732078Y-70807782D01*
X156728048Y-70868306D01*
X156728030Y-70869645D01*
X156730540Y-70934044D01*
X156730640Y-70935218D01*
X156739690Y-71003492D01*
X156739866Y-71004505D01*
X156755456Y-71076656D01*
X156755676Y-71077523D01*
X156773076Y-71137300D01*
X155799064Y-71137300D01*
X155775880Y-71069846D01*
X155775732Y-71069438D01*
X155748142Y-70997287D01*
X155747966Y-70996851D01*
X155718916Y-70928577D01*
X155718707Y-70928112D01*
X155688197Y-70863713D01*
X155687950Y-70863218D01*
X155655980Y-70802694D01*
X155655687Y-70802171D01*
X155622257Y-70745523D01*
X155621914Y-70744974D01*
X155587024Y-70692202D01*
X155586622Y-70691629D01*
X155550272Y-70642732D01*
X155549805Y-70642142D01*
X155511995Y-70597120D01*
X155511457Y-70596519D01*
X155478750Y-70562250D01*
X156163000Y-69375426D01*
X156847413Y-70562532D01*
G36*
X123874280Y-70562301D02*
G01*
X123841960Y-70596574D01*
X123841324Y-70597302D01*
X123804924Y-70642324D01*
X123804373Y-70643059D01*
X123770373Y-70691956D01*
X123769904Y-70692682D01*
X123738304Y-70745454D01*
X123737911Y-70746159D01*
X123708711Y-70802807D01*
X123708388Y-70803484D01*
X123681588Y-70864008D01*
X123681324Y-70864650D01*
X123656924Y-70929049D01*
X123656712Y-70929654D01*
X123634712Y-70997928D01*
X123634544Y-70998494D01*
X123614944Y-71070645D01*
X123614813Y-71071172D01*
X123599852Y-71137300D01*
X122625095Y-71137300D01*
X122635713Y-71076147D01*
X122635830Y-71075304D01*
X122643430Y-71003153D01*
X122643495Y-71002195D01*
X122645495Y-70933921D01*
X122645480Y-70932840D01*
X122641880Y-70868441D01*
X122641756Y-70867241D01*
X122632556Y-70806717D01*
X122632288Y-70805416D01*
X122617488Y-70748768D01*
X122617046Y-70747399D01*
X122596646Y-70694627D01*
X122596013Y-70693244D01*
X122570013Y-70644347D01*
X122569195Y-70643013D01*
X122537595Y-70597991D01*
X122536621Y-70596770D01*
X122505618Y-70562479D01*
X123190000Y-69375426D01*
X123874280Y-70562301D01*
G37*
X123874280Y-70562301D02*
X123841960Y-70596574D01*
X123841324Y-70597302D01*
X123804924Y-70642324D01*
X123804373Y-70643059D01*
X123770373Y-70691956D01*
X123769904Y-70692682D01*
X123738304Y-70745454D01*
X123737911Y-70746159D01*
X123708711Y-70802807D01*
X123708388Y-70803484D01*
X123681588Y-70864008D01*
X123681324Y-70864650D01*
X123656924Y-70929049D01*
X123656712Y-70929654D01*
X123634712Y-70997928D01*
X123634544Y-70998494D01*
X123614944Y-71070645D01*
X123614813Y-71071172D01*
X123599852Y-71137300D01*
X122625095Y-71137300D01*
X122635713Y-71076147D01*
X122635830Y-71075304D01*
X122643430Y-71003153D01*
X122643495Y-71002195D01*
X122645495Y-70933921D01*
X122645480Y-70932840D01*
X122641880Y-70868441D01*
X122641756Y-70867241D01*
X122632556Y-70806717D01*
X122632288Y-70805416D01*
X122617488Y-70748768D01*
X122617046Y-70747399D01*
X122596646Y-70694627D01*
X122596013Y-70693244D01*
X122570013Y-70644347D01*
X122569195Y-70643013D01*
X122537595Y-70597991D01*
X122536621Y-70596770D01*
X122505618Y-70562479D01*
X123190000Y-69375426D01*
X123874280Y-70562301D01*
G36*
X124809574Y-78740000D02*
G01*
X123924188Y-79250459D01*
X123921618Y-79249073D01*
X123918736Y-79247946D01*
X123902123Y-79243696D01*
X123900903Y-79243447D01*
X123876483Y-79239697D01*
X123875829Y-79239614D01*
X123843601Y-79236364D01*
X123843197Y-79236330D01*
X123803162Y-79233580D01*
X123802889Y-79233564D01*
X123755046Y-79231314D01*
X123754848Y-79231306D01*
X123699197Y-79229556D01*
X123699048Y-79229552D01*
X123635589Y-79228302D01*
X123635473Y-79228301D01*
X123564207Y-79227551D01*
X123564113Y-79227550D01*
X123497700Y-79227340D01*
X123497700Y-78252660D01*
X123564113Y-78252450D01*
X123564207Y-78252449D01*
X123635473Y-78251699D01*
X123635589Y-78251698D01*
X123699048Y-78250448D01*
X123699197Y-78250444D01*
X123754848Y-78248694D01*
X123755046Y-78248686D01*
X123802889Y-78246436D01*
X123803162Y-78246420D01*
X123843197Y-78243670D01*
X123843601Y-78243636D01*
X123875829Y-78240386D01*
X123876483Y-78240303D01*
X123900903Y-78236553D01*
X123902123Y-78236304D01*
X123918736Y-78232054D01*
X123921618Y-78230927D01*
X123924188Y-78229541D01*
X124809574Y-78740000D01*
G37*
X124809574Y-78740000D02*
X123924188Y-79250459D01*
X123921618Y-79249073D01*
X123918736Y-79247946D01*
X123902123Y-79243696D01*
X123900903Y-79243447D01*
X123876483Y-79239697D01*
X123875829Y-79239614D01*
X123843601Y-79236364D01*
X123843197Y-79236330D01*
X123803162Y-79233580D01*
X123802889Y-79233564D01*
X123755046Y-79231314D01*
X123754848Y-79231306D01*
X123699197Y-79229556D01*
X123699048Y-79229552D01*
X123635589Y-79228302D01*
X123635473Y-79228301D01*
X123564207Y-79227551D01*
X123564113Y-79227550D01*
X123497700Y-79227340D01*
X123497700Y-78252660D01*
X123564113Y-78252450D01*
X123564207Y-78252449D01*
X123635473Y-78251699D01*
X123635589Y-78251698D01*
X123699048Y-78250448D01*
X123699197Y-78250444D01*
X123754848Y-78248694D01*
X123755046Y-78248686D01*
X123802889Y-78246436D01*
X123803162Y-78246420D01*
X123843197Y-78243670D01*
X123843601Y-78243636D01*
X123875829Y-78240386D01*
X123876483Y-78240303D01*
X123900903Y-78236553D01*
X123902123Y-78236304D01*
X123918736Y-78232054D01*
X123921618Y-78230927D01*
X123924188Y-78229541D01*
X124809574Y-78740000D01*
G36*
X158018381Y-78230927D02*
G01*
X158021263Y-78232054D01*
X158037876Y-78236304D01*
X158039096Y-78236553D01*
X158063516Y-78240303D01*
X158064170Y-78240386D01*
X158096398Y-78243636D01*
X158096802Y-78243670D01*
X158136837Y-78246420D01*
X158137110Y-78246436D01*
X158184953Y-78248686D01*
X158185151Y-78248694D01*
X158240802Y-78250444D01*
X158240951Y-78250448D01*
X158304410Y-78251698D01*
X158304526Y-78251699D01*
X158375792Y-78252449D01*
X158375886Y-78252450D01*
X158442300Y-78252660D01*
X158442300Y-79227340D01*
X158375886Y-79227550D01*
X158375792Y-79227551D01*
X158304526Y-79228301D01*
X158304410Y-79228302D01*
X158240951Y-79229552D01*
X158240802Y-79229556D01*
X158185151Y-79231306D01*
X158184953Y-79231314D01*
X158137110Y-79233564D01*
X158136837Y-79233580D01*
X158096802Y-79236330D01*
X158096398Y-79236364D01*
X158064170Y-79239614D01*
X158063516Y-79239697D01*
X158039096Y-79243447D01*
X158037876Y-79243696D01*
X158021263Y-79247946D01*
X158018381Y-79249073D01*
X158015812Y-79250459D01*
X157130426Y-78740000D01*
X158015812Y-78229541D01*
X158018381Y-78230927D01*
G37*
X158018381Y-78230927D02*
X158021263Y-78232054D01*
X158037876Y-78236304D01*
X158039096Y-78236553D01*
X158063516Y-78240303D01*
X158064170Y-78240386D01*
X158096398Y-78243636D01*
X158096802Y-78243670D01*
X158136837Y-78246420D01*
X158137110Y-78246436D01*
X158184953Y-78248686D01*
X158185151Y-78248694D01*
X158240802Y-78250444D01*
X158240951Y-78250448D01*
X158304410Y-78251698D01*
X158304526Y-78251699D01*
X158375792Y-78252449D01*
X158375886Y-78252450D01*
X158442300Y-78252660D01*
X158442300Y-79227340D01*
X158375886Y-79227550D01*
X158375792Y-79227551D01*
X158304526Y-79228301D01*
X158304410Y-79228302D01*
X158240951Y-79229552D01*
X158240802Y-79229556D01*
X158185151Y-79231306D01*
X158184953Y-79231314D01*
X158137110Y-79233564D01*
X158136837Y-79233580D01*
X158096802Y-79236330D01*
X158096398Y-79236364D01*
X158064170Y-79239614D01*
X158063516Y-79239697D01*
X158039096Y-79243447D01*
X158037876Y-79243696D01*
X158021263Y-79247946D01*
X158018381Y-79249073D01*
X158015812Y-79250459D01*
X157130426Y-78740000D01*
X158015812Y-78229541D01*
X158018381Y-78230927D01*
G36*
X119868969Y-83928631D02*
G01*
X119868997Y-83929236D01*
X119874000Y-84001218D01*
X119874065Y-84001897D01*
X119882402Y-84069257D01*
X119882520Y-84070020D01*
X119894193Y-84132757D01*
X119894382Y-84133609D01*
X119909389Y-84191723D01*
X119909673Y-84192668D01*
X119928016Y-84246159D01*
X119928420Y-84247189D01*
X119950097Y-84296058D01*
X119950650Y-84297158D01*
X119975663Y-84341404D01*
X119976390Y-84342544D01*
X120004738Y-84382168D01*
X120005652Y-84383301D01*
X120031130Y-84411447D01*
X119380000Y-85540824D01*
X118728871Y-84411447D01*
X118754348Y-84383301D01*
X118755261Y-84382168D01*
X118783609Y-84342544D01*
X118784336Y-84341404D01*
X118809349Y-84297158D01*
X118809902Y-84296058D01*
X118831579Y-84247189D01*
X118831983Y-84246159D01*
X118850326Y-84192668D01*
X118850610Y-84191723D01*
X118865617Y-84133609D01*
X118865806Y-84132757D01*
X118877479Y-84070020D01*
X118877597Y-84069257D01*
X118885934Y-84001897D01*
X118885999Y-84001218D01*
X118891002Y-83929236D01*
X118891030Y-83928631D01*
X118892427Y-83864450D01*
X119867572Y-83864450D01*
X119868969Y-83928631D01*
G37*
X119868969Y-83928631D02*
X119868997Y-83929236D01*
X119874000Y-84001218D01*
X119874065Y-84001897D01*
X119882402Y-84069257D01*
X119882520Y-84070020D01*
X119894193Y-84132757D01*
X119894382Y-84133609D01*
X119909389Y-84191723D01*
X119909673Y-84192668D01*
X119928016Y-84246159D01*
X119928420Y-84247189D01*
X119950097Y-84296058D01*
X119950650Y-84297158D01*
X119975663Y-84341404D01*
X119976390Y-84342544D01*
X120004738Y-84382168D01*
X120005652Y-84383301D01*
X120031130Y-84411447D01*
X119380000Y-85540824D01*
X118728871Y-84411447D01*
X118754348Y-84383301D01*
X118755261Y-84382168D01*
X118783609Y-84342544D01*
X118784336Y-84341404D01*
X118809349Y-84297158D01*
X118809902Y-84296058D01*
X118831579Y-84247189D01*
X118831983Y-84246159D01*
X118850326Y-84192668D01*
X118850610Y-84191723D01*
X118865617Y-84133609D01*
X118865806Y-84132757D01*
X118877479Y-84070020D01*
X118877597Y-84069257D01*
X118885934Y-84001897D01*
X118885999Y-84001218D01*
X118891002Y-83929236D01*
X118891030Y-83928631D01*
X118892427Y-83864450D01*
X119867572Y-83864450D01*
X119868969Y-83928631D01*
G36*
X160428250Y-44693009D02*
G01*
X160428259Y-44693359D01*
X160431109Y-44764979D01*
X160431132Y-44765394D01*
X160435882Y-44830779D01*
X160435929Y-44831278D01*
X160442579Y-44890428D01*
X160442662Y-44891035D01*
X160451212Y-44943950D01*
X160451356Y-44944698D01*
X160461806Y-44991379D01*
X160462053Y-44992314D01*
X160474403Y-45032759D01*
X160474825Y-45033933D01*
X160489075Y-45068144D01*
X160489800Y-45069610D01*
X160505950Y-45097586D01*
X160507178Y-45099349D01*
X160519584Y-45114292D01*
X159940000Y-46119574D01*
X159360416Y-45114292D01*
X159372821Y-45099349D01*
X159374049Y-45097586D01*
X159390199Y-45069610D01*
X159390924Y-45068144D01*
X159405174Y-45033933D01*
X159405596Y-45032759D01*
X159417946Y-44992314D01*
X159418193Y-44991379D01*
X159428643Y-44944698D01*
X159428787Y-44943950D01*
X159437337Y-44891035D01*
X159437420Y-44890428D01*
X159444070Y-44831278D01*
X159444117Y-44830779D01*
X159448867Y-44765394D01*
X159448890Y-44764979D01*
X159451740Y-44693359D01*
X159451749Y-44693009D01*
X159452546Y-44627700D01*
X160427454Y-44627700D01*
X160428250Y-44693009D01*
G37*
X160428250Y-44693009D02*
X160428259Y-44693359D01*
X160431109Y-44764979D01*
X160431132Y-44765394D01*
X160435882Y-44830779D01*
X160435929Y-44831278D01*
X160442579Y-44890428D01*
X160442662Y-44891035D01*
X160451212Y-44943950D01*
X160451356Y-44944698D01*
X160461806Y-44991379D01*
X160462053Y-44992314D01*
X160474403Y-45032759D01*
X160474825Y-45033933D01*
X160489075Y-45068144D01*
X160489800Y-45069610D01*
X160505950Y-45097586D01*
X160507178Y-45099349D01*
X160519584Y-45114292D01*
X159940000Y-46119574D01*
X159360416Y-45114292D01*
X159372821Y-45099349D01*
X159374049Y-45097586D01*
X159390199Y-45069610D01*
X159390924Y-45068144D01*
X159405174Y-45033933D01*
X159405596Y-45032759D01*
X159417946Y-44992314D01*
X159418193Y-44991379D01*
X159428643Y-44944698D01*
X159428787Y-44943950D01*
X159437337Y-44891035D01*
X159437420Y-44890428D01*
X159444070Y-44831278D01*
X159444117Y-44830779D01*
X159448867Y-44765394D01*
X159448890Y-44764979D01*
X159451740Y-44693359D01*
X159451749Y-44693009D01*
X159452546Y-44627700D01*
X160427454Y-44627700D01*
X160428250Y-44693009D01*
G36*
X124868250Y-44693009D02*
G01*
X124868259Y-44693359D01*
X124871109Y-44764979D01*
X124871132Y-44765394D01*
X124875882Y-44830779D01*
X124875929Y-44831278D01*
X124882579Y-44890428D01*
X124882662Y-44891035D01*
X124891212Y-44943950D01*
X124891356Y-44944698D01*
X124901806Y-44991379D01*
X124902053Y-44992314D01*
X124914403Y-45032759D01*
X124914825Y-45033933D01*
X124929075Y-45068144D01*
X124929800Y-45069610D01*
X124945950Y-45097586D01*
X124947178Y-45099349D01*
X124959584Y-45114292D01*
X124380000Y-46119574D01*
X123800416Y-45114292D01*
X123812821Y-45099349D01*
X123814049Y-45097586D01*
X123830199Y-45069610D01*
X123830924Y-45068144D01*
X123845174Y-45033933D01*
X123845596Y-45032759D01*
X123857946Y-44992314D01*
X123858193Y-44991379D01*
X123868643Y-44944698D01*
X123868787Y-44943950D01*
X123877337Y-44891035D01*
X123877420Y-44890428D01*
X123884070Y-44831278D01*
X123884117Y-44830779D01*
X123888867Y-44765394D01*
X123888890Y-44764979D01*
X123891740Y-44693359D01*
X123891749Y-44693009D01*
X123892546Y-44627700D01*
X124867454Y-44627700D01*
X124868250Y-44693009D01*
G37*
X124868250Y-44693009D02*
X124868259Y-44693359D01*
X124871109Y-44764979D01*
X124871132Y-44765394D01*
X124875882Y-44830779D01*
X124875929Y-44831278D01*
X124882579Y-44890428D01*
X124882662Y-44891035D01*
X124891212Y-44943950D01*
X124891356Y-44944698D01*
X124901806Y-44991379D01*
X124902053Y-44992314D01*
X124914403Y-45032759D01*
X124914825Y-45033933D01*
X124929075Y-45068144D01*
X124929800Y-45069610D01*
X124945950Y-45097586D01*
X124947178Y-45099349D01*
X124959584Y-45114292D01*
X124380000Y-46119574D01*
X123800416Y-45114292D01*
X123812821Y-45099349D01*
X123814049Y-45097586D01*
X123830199Y-45069610D01*
X123830924Y-45068144D01*
X123845174Y-45033933D01*
X123845596Y-45032759D01*
X123857946Y-44992314D01*
X123858193Y-44991379D01*
X123868643Y-44944698D01*
X123868787Y-44943950D01*
X123877337Y-44891035D01*
X123877420Y-44890428D01*
X123884070Y-44831278D01*
X123884117Y-44830779D01*
X123888867Y-44765394D01*
X123888890Y-44764979D01*
X123891740Y-44693359D01*
X123891749Y-44693009D01*
X123892546Y-44627700D01*
X124867454Y-44627700D01*
X124868250Y-44693009D01*
G36*
X163048969Y-83928631D02*
G01*
X163048997Y-83929236D01*
X163054000Y-84001218D01*
X163054065Y-84001897D01*
X163062402Y-84069257D01*
X163062520Y-84070020D01*
X163074193Y-84132757D01*
X163074382Y-84133609D01*
X163089389Y-84191723D01*
X163089673Y-84192668D01*
X163108016Y-84246159D01*
X163108420Y-84247189D01*
X163130097Y-84296058D01*
X163130650Y-84297158D01*
X163155663Y-84341404D01*
X163156390Y-84342544D01*
X163184738Y-84382168D01*
X163185652Y-84383301D01*
X163211130Y-84411447D01*
X162560000Y-85540824D01*
X161908871Y-84411447D01*
X161934348Y-84383301D01*
X161935261Y-84382168D01*
X161963609Y-84342544D01*
X161964336Y-84341404D01*
X161989349Y-84297158D01*
X161989902Y-84296058D01*
X162011579Y-84247189D01*
X162011983Y-84246159D01*
X162030326Y-84192668D01*
X162030610Y-84191723D01*
X162045617Y-84133609D01*
X162045806Y-84132757D01*
X162057479Y-84070020D01*
X162057597Y-84069257D01*
X162065934Y-84001897D01*
X162065999Y-84001218D01*
X162071002Y-83929236D01*
X162071030Y-83928631D01*
X162072427Y-83864450D01*
X163047572Y-83864450D01*
X163048969Y-83928631D01*
G37*
X163048969Y-83928631D02*
X163048997Y-83929236D01*
X163054000Y-84001218D01*
X163054065Y-84001897D01*
X163062402Y-84069257D01*
X163062520Y-84070020D01*
X163074193Y-84132757D01*
X163074382Y-84133609D01*
X163089389Y-84191723D01*
X163089673Y-84192668D01*
X163108016Y-84246159D01*
X163108420Y-84247189D01*
X163130097Y-84296058D01*
X163130650Y-84297158D01*
X163155663Y-84341404D01*
X163156390Y-84342544D01*
X163184738Y-84382168D01*
X163185652Y-84383301D01*
X163211130Y-84411447D01*
X162560000Y-85540824D01*
X161908871Y-84411447D01*
X161934348Y-84383301D01*
X161935261Y-84382168D01*
X161963609Y-84342544D01*
X161964336Y-84341404D01*
X161989349Y-84297158D01*
X161989902Y-84296058D01*
X162011579Y-84247189D01*
X162011983Y-84246159D01*
X162030326Y-84192668D01*
X162030610Y-84191723D01*
X162045617Y-84133609D01*
X162045806Y-84132757D01*
X162057479Y-84070020D01*
X162057597Y-84069257D01*
X162065934Y-84001897D01*
X162065999Y-84001218D01*
X162071002Y-83929236D01*
X162071030Y-83928631D01*
X162072427Y-83864450D01*
X163047572Y-83864450D01*
X163048969Y-83928631D01*
G36*
X134830591Y-89483424D02*
G01*
X134830601Y-89483428D01*
X134943411Y-89524958D01*
X134943425Y-89524963D01*
X135043056Y-89561513D01*
X135043074Y-89561519D01*
X135129525Y-89593089D01*
X135129549Y-89593098D01*
X135202821Y-89619688D01*
X135202855Y-89619701D01*
X135262947Y-89641311D01*
X135263002Y-89641330D01*
X135309914Y-89657960D01*
X135310011Y-89657994D01*
X135343744Y-89669644D01*
X135343970Y-89669720D01*
X135364524Y-89676390D01*
X135365605Y-89676689D01*
X135371127Y-89677955D01*
X136224574Y-90170000D01*
X135375020Y-90659800D01*
X135373513Y-90659144D01*
X135373065Y-90658960D01*
X135352511Y-90650930D01*
X135352411Y-90650891D01*
X135318678Y-90638041D01*
X135318634Y-90638024D01*
X135271722Y-90620354D01*
X135271697Y-90620345D01*
X135211605Y-90597855D01*
X135211588Y-90597849D01*
X135138316Y-90570539D01*
X135138305Y-90570535D01*
X135051854Y-90538405D01*
X135051846Y-90538402D01*
X134952215Y-90501452D01*
X134952209Y-90501449D01*
X134839399Y-90459679D01*
X134839394Y-90459677D01*
X134721700Y-90416155D01*
X134721700Y-89443226D01*
X134830591Y-89483424D01*
G37*
X134830591Y-89483424D02*
X134830601Y-89483428D01*
X134943411Y-89524958D01*
X134943425Y-89524963D01*
X135043056Y-89561513D01*
X135043074Y-89561519D01*
X135129525Y-89593089D01*
X135129549Y-89593098D01*
X135202821Y-89619688D01*
X135202855Y-89619701D01*
X135262947Y-89641311D01*
X135263002Y-89641330D01*
X135309914Y-89657960D01*
X135310011Y-89657994D01*
X135343744Y-89669644D01*
X135343970Y-89669720D01*
X135364524Y-89676390D01*
X135365605Y-89676689D01*
X135371127Y-89677955D01*
X136224574Y-90170000D01*
X135375020Y-90659800D01*
X135373513Y-90659144D01*
X135373065Y-90658960D01*
X135352511Y-90650930D01*
X135352411Y-90650891D01*
X135318678Y-90638041D01*
X135318634Y-90638024D01*
X135271722Y-90620354D01*
X135271697Y-90620345D01*
X135211605Y-90597855D01*
X135211588Y-90597849D01*
X135138316Y-90570539D01*
X135138305Y-90570535D01*
X135051854Y-90538405D01*
X135051846Y-90538402D01*
X134952215Y-90501452D01*
X134952209Y-90501449D01*
X134839399Y-90459679D01*
X134839394Y-90459677D01*
X134721700Y-90416155D01*
X134721700Y-89443226D01*
X134830591Y-89483424D01*
G36*
X117911052Y-92328231D02*
G01*
X117864836Y-92375158D01*
X117864681Y-92375318D01*
X117815436Y-92427109D01*
X117815252Y-92427307D01*
X117771820Y-92474981D01*
X117771596Y-92475233D01*
X117733978Y-92518791D01*
X117733704Y-92519120D01*
X117701899Y-92558562D01*
X117701556Y-92559007D01*
X117675564Y-92594332D01*
X117675128Y-92594963D01*
X117654949Y-92626173D01*
X117654394Y-92627120D01*
X117640029Y-92654213D01*
X117639347Y-92655732D01*
X117630795Y-92678709D01*
X117630129Y-92681314D01*
X117628592Y-92691903D01*
X116575137Y-92974863D01*
X116858097Y-91921408D01*
X116868685Y-91919870D01*
X116871290Y-91919204D01*
X116894267Y-91910652D01*
X116895786Y-91909970D01*
X116922879Y-91895605D01*
X116923826Y-91895050D01*
X116955036Y-91874871D01*
X116955667Y-91874435D01*
X116990992Y-91848443D01*
X116991437Y-91848100D01*
X117030879Y-91816295D01*
X117031208Y-91816021D01*
X117074766Y-91778403D01*
X117075018Y-91778179D01*
X117122692Y-91734747D01*
X117122890Y-91734563D01*
X117174681Y-91685318D01*
X117174841Y-91685163D01*
X117221769Y-91638948D01*
X117911052Y-92328231D01*
G37*
X117911052Y-92328231D02*
X117864836Y-92375158D01*
X117864681Y-92375318D01*
X117815436Y-92427109D01*
X117815252Y-92427307D01*
X117771820Y-92474981D01*
X117771596Y-92475233D01*
X117733978Y-92518791D01*
X117733704Y-92519120D01*
X117701899Y-92558562D01*
X117701556Y-92559007D01*
X117675564Y-92594332D01*
X117675128Y-92594963D01*
X117654949Y-92626173D01*
X117654394Y-92627120D01*
X117640029Y-92654213D01*
X117639347Y-92655732D01*
X117630795Y-92678709D01*
X117630129Y-92681314D01*
X117628592Y-92691903D01*
X116575137Y-92974863D01*
X116858097Y-91921408D01*
X116868685Y-91919870D01*
X116871290Y-91919204D01*
X116894267Y-91910652D01*
X116895786Y-91909970D01*
X116922879Y-91895605D01*
X116923826Y-91895050D01*
X116955036Y-91874871D01*
X116955667Y-91874435D01*
X116990992Y-91848443D01*
X116991437Y-91848100D01*
X117030879Y-91816295D01*
X117031208Y-91816021D01*
X117074766Y-91778403D01*
X117075018Y-91778179D01*
X117122692Y-91734747D01*
X117122890Y-91734563D01*
X117174681Y-91685318D01*
X117174841Y-91685163D01*
X117221769Y-91638948D01*
X117911052Y-92328231D01*
G36*
X144027170Y-89679312D02*
G01*
X144028452Y-89679443D01*
X144041656Y-89680123D01*
X144041954Y-89680135D01*
X144063437Y-89680735D01*
X144063570Y-89680738D01*
X144093332Y-89681258D01*
X144093407Y-89681259D01*
X144131450Y-89681699D01*
X144131498Y-89681700D01*
X144177819Y-89682060D01*
X144177853Y-89682060D01*
X144232454Y-89682340D01*
X144232479Y-89682340D01*
X144295360Y-89682540D01*
X144295379Y-89682540D01*
X144366539Y-89682660D01*
X144366554Y-89682660D01*
X144433300Y-89682694D01*
X144433300Y-90657306D01*
X144366554Y-90657339D01*
X144366539Y-90657339D01*
X144295379Y-90657459D01*
X144295360Y-90657459D01*
X144232479Y-90657659D01*
X144232454Y-90657659D01*
X144177853Y-90657939D01*
X144177819Y-90657939D01*
X144131498Y-90658299D01*
X144131450Y-90658300D01*
X144093407Y-90658740D01*
X144093332Y-90658741D01*
X144063570Y-90659261D01*
X144063437Y-90659264D01*
X144041954Y-90659864D01*
X144041656Y-90659876D01*
X144028452Y-90660556D01*
X144027167Y-90660688D01*
X144026657Y-90660767D01*
X143175426Y-90170000D01*
X144026657Y-89679233D01*
X144027170Y-89679312D01*
G37*
X144027170Y-89679312D02*
X144028452Y-89679443D01*
X144041656Y-89680123D01*
X144041954Y-89680135D01*
X144063437Y-89680735D01*
X144063570Y-89680738D01*
X144093332Y-89681258D01*
X144093407Y-89681259D01*
X144131450Y-89681699D01*
X144131498Y-89681700D01*
X144177819Y-89682060D01*
X144177853Y-89682060D01*
X144232454Y-89682340D01*
X144232479Y-89682340D01*
X144295360Y-89682540D01*
X144295379Y-89682540D01*
X144366539Y-89682660D01*
X144366554Y-89682660D01*
X144433300Y-89682694D01*
X144433300Y-90657306D01*
X144366554Y-90657339D01*
X144366539Y-90657339D01*
X144295379Y-90657459D01*
X144295360Y-90657459D01*
X144232479Y-90657659D01*
X144232454Y-90657659D01*
X144177853Y-90657939D01*
X144177819Y-90657939D01*
X144131498Y-90658299D01*
X144131450Y-90658300D01*
X144093407Y-90658740D01*
X144093332Y-90658741D01*
X144063570Y-90659261D01*
X144063437Y-90659264D01*
X144041954Y-90659864D01*
X144041656Y-90659876D01*
X144028452Y-90660556D01*
X144027167Y-90660688D01*
X144026657Y-90660767D01*
X143175426Y-90170000D01*
X144026657Y-89679233D01*
X144027170Y-89679312D01*
G36*
X162225158Y-91685163D02*
G01*
X162225318Y-91685318D01*
X162277109Y-91734563D01*
X162277307Y-91734747D01*
X162324981Y-91778179D01*
X162325233Y-91778403D01*
X162368791Y-91816021D01*
X162369120Y-91816295D01*
X162408562Y-91848100D01*
X162409007Y-91848443D01*
X162444332Y-91874435D01*
X162444963Y-91874871D01*
X162476173Y-91895050D01*
X162477120Y-91895605D01*
X162504213Y-91909970D01*
X162505732Y-91910652D01*
X162528709Y-91919204D01*
X162531314Y-91919870D01*
X162541903Y-91921408D01*
X162824863Y-92974863D01*
X161771408Y-92691903D01*
X161769870Y-92681314D01*
X161769204Y-92678709D01*
X161760652Y-92655732D01*
X161759970Y-92654213D01*
X161745605Y-92627120D01*
X161745050Y-92626173D01*
X161724871Y-92594963D01*
X161724435Y-92594332D01*
X161698443Y-92559007D01*
X161698100Y-92558562D01*
X161666295Y-92519120D01*
X161666021Y-92518791D01*
X161628403Y-92475233D01*
X161628179Y-92474981D01*
X161584747Y-92427307D01*
X161584563Y-92427109D01*
X161535318Y-92375318D01*
X161535163Y-92375158D01*
X161488948Y-92328231D01*
X162178231Y-91638948D01*
X162225158Y-91685163D01*
G37*
X162225158Y-91685163D02*
X162225318Y-91685318D01*
X162277109Y-91734563D01*
X162277307Y-91734747D01*
X162324981Y-91778179D01*
X162325233Y-91778403D01*
X162368791Y-91816021D01*
X162369120Y-91816295D01*
X162408562Y-91848100D01*
X162409007Y-91848443D01*
X162444332Y-91874435D01*
X162444963Y-91874871D01*
X162476173Y-91895050D01*
X162477120Y-91895605D01*
X162504213Y-91909970D01*
X162505732Y-91910652D01*
X162528709Y-91919204D01*
X162531314Y-91919870D01*
X162541903Y-91921408D01*
X162824863Y-92974863D01*
X161771408Y-92691903D01*
X161769870Y-92681314D01*
X161769204Y-92678709D01*
X161760652Y-92655732D01*
X161759970Y-92654213D01*
X161745605Y-92627120D01*
X161745050Y-92626173D01*
X161724871Y-92594963D01*
X161724435Y-92594332D01*
X161698443Y-92559007D01*
X161698100Y-92558562D01*
X161666295Y-92519120D01*
X161666021Y-92518791D01*
X161628403Y-92475233D01*
X161628179Y-92474981D01*
X161584747Y-92427307D01*
X161584563Y-92427109D01*
X161535318Y-92375318D01*
X161535163Y-92375158D01*
X161488948Y-92328231D01*
X162178231Y-91638948D01*
X162225158Y-91685163D01*
G36*
X158131129Y-85768553D02*
G01*
X158105652Y-85796698D01*
X158104738Y-85797831D01*
X158076390Y-85837455D01*
X158075663Y-85838595D01*
X158050650Y-85882841D01*
X158050097Y-85883941D01*
X158028420Y-85932810D01*
X158028016Y-85933840D01*
X158009673Y-85987331D01*
X158009389Y-85988276D01*
X157994382Y-86046391D01*
X157994193Y-86047243D01*
X157982520Y-86109979D01*
X157982402Y-86110742D01*
X157974065Y-86178102D01*
X157974000Y-86178781D01*
X157968997Y-86250763D01*
X157968969Y-86251368D01*
X157967572Y-86315550D01*
X156992427Y-86315550D01*
X156991030Y-86251368D01*
X156991002Y-86250763D01*
X156985999Y-86178781D01*
X156985934Y-86178102D01*
X156977597Y-86110742D01*
X156977479Y-86109979D01*
X156965806Y-86047243D01*
X156965617Y-86046391D01*
X156950610Y-85988276D01*
X156950326Y-85987331D01*
X156931983Y-85933840D01*
X156931579Y-85932810D01*
X156909902Y-85883941D01*
X156909349Y-85882841D01*
X156884336Y-85838595D01*
X156883609Y-85837455D01*
X156855261Y-85797831D01*
X156854347Y-85796698D01*
X156828870Y-85768553D01*
X157480000Y-84639176D01*
X158131129Y-85768553D01*
G37*
X158131129Y-85768553D02*
X158105652Y-85796698D01*
X158104738Y-85797831D01*
X158076390Y-85837455D01*
X158075663Y-85838595D01*
X158050650Y-85882841D01*
X158050097Y-85883941D01*
X158028420Y-85932810D01*
X158028016Y-85933840D01*
X158009673Y-85987331D01*
X158009389Y-85988276D01*
X157994382Y-86046391D01*
X157994193Y-86047243D01*
X157982520Y-86109979D01*
X157982402Y-86110742D01*
X157974065Y-86178102D01*
X157974000Y-86178781D01*
X157968997Y-86250763D01*
X157968969Y-86251368D01*
X157967572Y-86315550D01*
X156992427Y-86315550D01*
X156991030Y-86251368D01*
X156991002Y-86250763D01*
X156985999Y-86178781D01*
X156985934Y-86178102D01*
X156977597Y-86110742D01*
X156977479Y-86109979D01*
X156965806Y-86047243D01*
X156965617Y-86046391D01*
X156950610Y-85988276D01*
X156950326Y-85987331D01*
X156931983Y-85933840D01*
X156931579Y-85932810D01*
X156909902Y-85883941D01*
X156909349Y-85882841D01*
X156884336Y-85838595D01*
X156883609Y-85837455D01*
X156855261Y-85797831D01*
X156854347Y-85796698D01*
X156828870Y-85768553D01*
X157480000Y-84639176D01*
X158131129Y-85768553D01*
M02*
