G04 #@! TF.GenerationSoftware,KiCad,Pcbnew,(5.1.5)-3*
G04 #@! TF.CreationDate,2020-03-29T19:39:18+08:00*
G04 #@! TF.ProjectId,317337,33313733-3337-42e6-9b69-6361645f7063,rev?*
G04 #@! TF.SameCoordinates,Original*
G04 #@! TF.FileFunction,Soldermask,Top*
G04 #@! TF.FilePolarity,Negative*
%FSLAX46Y46*%
G04 Gerber Fmt 4.6, Leading zero omitted, Abs format (unit mm)*
G04 Created by KiCad (PCBNEW (5.1.5)-3) date 2020-03-29 19:39:18*
%MOMM*%
%LPD*%
G04 APERTURE LIST*
%ADD10C,0.100000*%
G04 APERTURE END LIST*
D10*
G36*
X161511000Y-97471000D02*
G01*
X159609000Y-97471000D01*
X159609000Y-95569000D01*
X161511000Y-95569000D01*
X161511000Y-97471000D01*
G37*
G36*
X119117395Y-95605546D02*
G01*
X119290466Y-95677234D01*
X119290467Y-95677235D01*
X119446227Y-95781310D01*
X119578690Y-95913773D01*
X119578691Y-95913775D01*
X119682766Y-96069534D01*
X119754454Y-96242605D01*
X119791000Y-96426333D01*
X119791000Y-96613667D01*
X119754454Y-96797395D01*
X119682766Y-96970466D01*
X119682765Y-96970467D01*
X119578690Y-97126227D01*
X119446227Y-97258690D01*
X119367818Y-97311081D01*
X119290466Y-97362766D01*
X119117395Y-97434454D01*
X118933667Y-97471000D01*
X118746333Y-97471000D01*
X118562605Y-97434454D01*
X118389534Y-97362766D01*
X118312182Y-97311081D01*
X118233773Y-97258690D01*
X118101310Y-97126227D01*
X117997235Y-96970467D01*
X117997234Y-96970466D01*
X117925546Y-96797395D01*
X117889000Y-96613667D01*
X117889000Y-96426333D01*
X117925546Y-96242605D01*
X117997234Y-96069534D01*
X118101309Y-95913775D01*
X118101310Y-95913773D01*
X118233773Y-95781310D01*
X118389533Y-95677235D01*
X118389534Y-95677234D01*
X118562605Y-95605546D01*
X118746333Y-95569000D01*
X118933667Y-95569000D01*
X119117395Y-95605546D01*
G37*
G36*
X127411000Y-97471000D02*
G01*
X125509000Y-97471000D01*
X125509000Y-95569000D01*
X127411000Y-95569000D01*
X127411000Y-97471000D01*
G37*
G36*
X141787395Y-95605546D02*
G01*
X141960466Y-95677234D01*
X141960467Y-95677235D01*
X142116227Y-95781310D01*
X142248690Y-95913773D01*
X142248691Y-95913775D01*
X142352766Y-96069534D01*
X142424454Y-96242605D01*
X142461000Y-96426333D01*
X142461000Y-96613667D01*
X142424454Y-96797395D01*
X142352766Y-96970466D01*
X142352765Y-96970467D01*
X142248690Y-97126227D01*
X142116227Y-97258690D01*
X142037818Y-97311081D01*
X141960466Y-97362766D01*
X141787395Y-97434454D01*
X141603667Y-97471000D01*
X141416333Y-97471000D01*
X141232605Y-97434454D01*
X141059534Y-97362766D01*
X140982182Y-97311081D01*
X140903773Y-97258690D01*
X140771310Y-97126227D01*
X140667235Y-96970467D01*
X140667234Y-96970466D01*
X140595546Y-96797395D01*
X140559000Y-96613667D01*
X140559000Y-96426333D01*
X140595546Y-96242605D01*
X140667234Y-96069534D01*
X140771309Y-95913775D01*
X140771310Y-95913773D01*
X140903773Y-95781310D01*
X141059533Y-95677235D01*
X141059534Y-95677234D01*
X141232605Y-95605546D01*
X141416333Y-95569000D01*
X141603667Y-95569000D01*
X141787395Y-95605546D01*
G37*
G36*
X150081000Y-97471000D02*
G01*
X148179000Y-97471000D01*
X148179000Y-95569000D01*
X150081000Y-95569000D01*
X150081000Y-97471000D01*
G37*
G36*
X130547395Y-95605546D02*
G01*
X130720466Y-95677234D01*
X130720467Y-95677235D01*
X130876227Y-95781310D01*
X131008690Y-95913773D01*
X131008691Y-95913775D01*
X131112766Y-96069534D01*
X131184454Y-96242605D01*
X131221000Y-96426333D01*
X131221000Y-96613667D01*
X131184454Y-96797395D01*
X131112766Y-96970466D01*
X131112765Y-96970467D01*
X131008690Y-97126227D01*
X130876227Y-97258690D01*
X130797818Y-97311081D01*
X130720466Y-97362766D01*
X130547395Y-97434454D01*
X130363667Y-97471000D01*
X130176333Y-97471000D01*
X129992605Y-97434454D01*
X129819534Y-97362766D01*
X129742182Y-97311081D01*
X129663773Y-97258690D01*
X129531310Y-97126227D01*
X129427235Y-96970467D01*
X129427234Y-96970466D01*
X129355546Y-96797395D01*
X129319000Y-96613667D01*
X129319000Y-96426333D01*
X129355546Y-96242605D01*
X129427234Y-96069534D01*
X129531309Y-95913775D01*
X129531310Y-95913773D01*
X129663773Y-95781310D01*
X129819533Y-95677235D01*
X129819534Y-95677234D01*
X129992605Y-95605546D01*
X130176333Y-95569000D01*
X130363667Y-95569000D01*
X130547395Y-95605546D01*
G37*
G36*
X138841000Y-97471000D02*
G01*
X136939000Y-97471000D01*
X136939000Y-95569000D01*
X138841000Y-95569000D01*
X138841000Y-97471000D01*
G37*
G36*
X153217395Y-95605546D02*
G01*
X153390466Y-95677234D01*
X153390467Y-95677235D01*
X153546227Y-95781310D01*
X153678690Y-95913773D01*
X153678691Y-95913775D01*
X153782766Y-96069534D01*
X153854454Y-96242605D01*
X153891000Y-96426333D01*
X153891000Y-96613667D01*
X153854454Y-96797395D01*
X153782766Y-96970466D01*
X153782765Y-96970467D01*
X153678690Y-97126227D01*
X153546227Y-97258690D01*
X153467818Y-97311081D01*
X153390466Y-97362766D01*
X153217395Y-97434454D01*
X153033667Y-97471000D01*
X152846333Y-97471000D01*
X152662605Y-97434454D01*
X152489534Y-97362766D01*
X152412182Y-97311081D01*
X152333773Y-97258690D01*
X152201310Y-97126227D01*
X152097235Y-96970467D01*
X152097234Y-96970466D01*
X152025546Y-96797395D01*
X151989000Y-96613667D01*
X151989000Y-96426333D01*
X152025546Y-96242605D01*
X152097234Y-96069534D01*
X152201309Y-95913775D01*
X152201310Y-95913773D01*
X152333773Y-95781310D01*
X152489533Y-95677235D01*
X152489534Y-95677234D01*
X152662605Y-95605546D01*
X152846333Y-95569000D01*
X153033667Y-95569000D01*
X153217395Y-95605546D01*
G37*
G36*
X162808228Y-91891703D02*
G01*
X162963100Y-91955853D01*
X163102481Y-92048985D01*
X163221015Y-92167519D01*
X163314147Y-92306900D01*
X163378297Y-92461772D01*
X163411000Y-92626184D01*
X163411000Y-92793816D01*
X163378297Y-92958228D01*
X163314147Y-93113100D01*
X163221015Y-93252481D01*
X163102481Y-93371015D01*
X162963100Y-93464147D01*
X162808228Y-93528297D01*
X162643816Y-93561000D01*
X162476184Y-93561000D01*
X162311772Y-93528297D01*
X162156900Y-93464147D01*
X162017519Y-93371015D01*
X161898985Y-93252481D01*
X161805853Y-93113100D01*
X161741703Y-92958228D01*
X161709000Y-92793816D01*
X161709000Y-92626184D01*
X161741703Y-92461772D01*
X161805853Y-92306900D01*
X161898985Y-92167519D01*
X162017519Y-92048985D01*
X162156900Y-91955853D01*
X162311772Y-91891703D01*
X162476184Y-91859000D01*
X162643816Y-91859000D01*
X162808228Y-91891703D01*
G37*
G36*
X127248228Y-91891703D02*
G01*
X127403100Y-91955853D01*
X127542481Y-92048985D01*
X127661015Y-92167519D01*
X127754147Y-92306900D01*
X127818297Y-92461772D01*
X127851000Y-92626184D01*
X127851000Y-92793816D01*
X127818297Y-92958228D01*
X127754147Y-93113100D01*
X127661015Y-93252481D01*
X127542481Y-93371015D01*
X127403100Y-93464147D01*
X127248228Y-93528297D01*
X127083816Y-93561000D01*
X126916184Y-93561000D01*
X126751772Y-93528297D01*
X126596900Y-93464147D01*
X126457519Y-93371015D01*
X126338985Y-93252481D01*
X126245853Y-93113100D01*
X126181703Y-92958228D01*
X126149000Y-92793816D01*
X126149000Y-92626184D01*
X126181703Y-92461772D01*
X126245853Y-92306900D01*
X126338985Y-92167519D01*
X126457519Y-92048985D01*
X126596900Y-91955853D01*
X126751772Y-91891703D01*
X126916184Y-91859000D01*
X127083816Y-91859000D01*
X127248228Y-91891703D01*
G37*
G36*
X152648228Y-91891703D02*
G01*
X152803100Y-91955853D01*
X152942481Y-92048985D01*
X153061015Y-92167519D01*
X153154147Y-92306900D01*
X153218297Y-92461772D01*
X153251000Y-92626184D01*
X153251000Y-92793816D01*
X153218297Y-92958228D01*
X153154147Y-93113100D01*
X153061015Y-93252481D01*
X152942481Y-93371015D01*
X152803100Y-93464147D01*
X152648228Y-93528297D01*
X152483816Y-93561000D01*
X152316184Y-93561000D01*
X152151772Y-93528297D01*
X151996900Y-93464147D01*
X151857519Y-93371015D01*
X151738985Y-93252481D01*
X151645853Y-93113100D01*
X151581703Y-92958228D01*
X151549000Y-92793816D01*
X151549000Y-92626184D01*
X151581703Y-92461772D01*
X151645853Y-92306900D01*
X151738985Y-92167519D01*
X151857519Y-92048985D01*
X151996900Y-91955853D01*
X152151772Y-91891703D01*
X152316184Y-91859000D01*
X152483816Y-91859000D01*
X152648228Y-91891703D01*
G37*
G36*
X117088228Y-91891703D02*
G01*
X117243100Y-91955853D01*
X117382481Y-92048985D01*
X117501015Y-92167519D01*
X117594147Y-92306900D01*
X117658297Y-92461772D01*
X117691000Y-92626184D01*
X117691000Y-92793816D01*
X117658297Y-92958228D01*
X117594147Y-93113100D01*
X117501015Y-93252481D01*
X117382481Y-93371015D01*
X117243100Y-93464147D01*
X117088228Y-93528297D01*
X116923816Y-93561000D01*
X116756184Y-93561000D01*
X116591772Y-93528297D01*
X116436900Y-93464147D01*
X116297519Y-93371015D01*
X116178985Y-93252481D01*
X116085853Y-93113100D01*
X116021703Y-92958228D01*
X115989000Y-92793816D01*
X115989000Y-92626184D01*
X116021703Y-92461772D01*
X116085853Y-92306900D01*
X116178985Y-92167519D01*
X116297519Y-92048985D01*
X116436900Y-91955853D01*
X116591772Y-91891703D01*
X116756184Y-91859000D01*
X116923816Y-91859000D01*
X117088228Y-91891703D01*
G37*
G36*
X143635589Y-89408876D02*
G01*
X143734893Y-89428629D01*
X143875206Y-89486748D01*
X144001484Y-89571125D01*
X144108875Y-89678516D01*
X144193252Y-89804794D01*
X144251371Y-89945107D01*
X144281000Y-90094063D01*
X144281000Y-90245937D01*
X144251371Y-90394893D01*
X144193252Y-90535206D01*
X144108875Y-90661484D01*
X144001484Y-90768875D01*
X143875206Y-90853252D01*
X143734893Y-90911371D01*
X143635589Y-90931124D01*
X143585938Y-90941000D01*
X143434062Y-90941000D01*
X143384411Y-90931124D01*
X143285107Y-90911371D01*
X143144794Y-90853252D01*
X143018516Y-90768875D01*
X142911125Y-90661484D01*
X142826748Y-90535206D01*
X142768629Y-90394893D01*
X142739000Y-90245937D01*
X142739000Y-90094063D01*
X142768629Y-89945107D01*
X142826748Y-89804794D01*
X142911125Y-89678516D01*
X143018516Y-89571125D01*
X143144794Y-89486748D01*
X143285107Y-89428629D01*
X143384411Y-89408876D01*
X143434062Y-89399000D01*
X143585938Y-89399000D01*
X143635589Y-89408876D01*
G37*
G36*
X136015589Y-89408876D02*
G01*
X136114893Y-89428629D01*
X136255206Y-89486748D01*
X136381484Y-89571125D01*
X136488875Y-89678516D01*
X136573252Y-89804794D01*
X136631371Y-89945107D01*
X136661000Y-90094063D01*
X136661000Y-90245937D01*
X136631371Y-90394893D01*
X136573252Y-90535206D01*
X136488875Y-90661484D01*
X136381484Y-90768875D01*
X136255206Y-90853252D01*
X136114893Y-90911371D01*
X136015589Y-90931124D01*
X135965938Y-90941000D01*
X135814062Y-90941000D01*
X135764411Y-90931124D01*
X135665107Y-90911371D01*
X135524794Y-90853252D01*
X135398516Y-90768875D01*
X135291125Y-90661484D01*
X135206748Y-90535206D01*
X135148629Y-90394893D01*
X135119000Y-90245937D01*
X135119000Y-90094063D01*
X135148629Y-89945107D01*
X135206748Y-89804794D01*
X135291125Y-89678516D01*
X135398516Y-89571125D01*
X135524794Y-89486748D01*
X135665107Y-89428629D01*
X135764411Y-89408876D01*
X135814062Y-89399000D01*
X135965938Y-89399000D01*
X136015589Y-89408876D01*
G37*
G36*
X143635589Y-86868876D02*
G01*
X143734893Y-86888629D01*
X143875206Y-86946748D01*
X144001484Y-87031125D01*
X144108875Y-87138516D01*
X144193252Y-87264794D01*
X144251371Y-87405107D01*
X144281000Y-87554063D01*
X144281000Y-87705937D01*
X144251371Y-87854893D01*
X144193252Y-87995206D01*
X144108875Y-88121484D01*
X144001484Y-88228875D01*
X143875206Y-88313252D01*
X143734893Y-88371371D01*
X143635589Y-88391124D01*
X143585938Y-88401000D01*
X143434062Y-88401000D01*
X143384411Y-88391124D01*
X143285107Y-88371371D01*
X143144794Y-88313252D01*
X143018516Y-88228875D01*
X142911125Y-88121484D01*
X142826748Y-87995206D01*
X142768629Y-87854893D01*
X142739000Y-87705937D01*
X142739000Y-87554063D01*
X142768629Y-87405107D01*
X142826748Y-87264794D01*
X142911125Y-87138516D01*
X143018516Y-87031125D01*
X143144794Y-86946748D01*
X143285107Y-86888629D01*
X143384411Y-86868876D01*
X143434062Y-86859000D01*
X143585938Y-86859000D01*
X143635589Y-86868876D01*
G37*
G36*
X136015589Y-86868876D02*
G01*
X136114893Y-86888629D01*
X136255206Y-86946748D01*
X136381484Y-87031125D01*
X136488875Y-87138516D01*
X136573252Y-87264794D01*
X136631371Y-87405107D01*
X136661000Y-87554063D01*
X136661000Y-87705937D01*
X136631371Y-87854893D01*
X136573252Y-87995206D01*
X136488875Y-88121484D01*
X136381484Y-88228875D01*
X136255206Y-88313252D01*
X136114893Y-88371371D01*
X136015589Y-88391124D01*
X135965938Y-88401000D01*
X135814062Y-88401000D01*
X135764411Y-88391124D01*
X135665107Y-88371371D01*
X135524794Y-88313252D01*
X135398516Y-88228875D01*
X135291125Y-88121484D01*
X135206748Y-87995206D01*
X135148629Y-87854893D01*
X135119000Y-87705937D01*
X135119000Y-87554063D01*
X135148629Y-87405107D01*
X135206748Y-87264794D01*
X135291125Y-87138516D01*
X135398516Y-87031125D01*
X135524794Y-86946748D01*
X135665107Y-86888629D01*
X135764411Y-86868876D01*
X135814062Y-86859000D01*
X135965938Y-86859000D01*
X136015589Y-86868876D01*
G37*
G36*
X162756719Y-84053520D02*
G01*
X162945880Y-84110901D01*
X162945883Y-84110902D01*
X163038333Y-84160318D01*
X163120212Y-84204083D01*
X163273015Y-84329485D01*
X163398417Y-84482288D01*
X163491599Y-84656619D01*
X163548980Y-84845780D01*
X163563500Y-84993206D01*
X163563500Y-85186793D01*
X163548980Y-85334219D01*
X163512280Y-85455204D01*
X163491598Y-85523383D01*
X163460542Y-85581484D01*
X163398417Y-85697712D01*
X163273015Y-85850515D01*
X163120212Y-85975917D01*
X162945881Y-86069099D01*
X162756720Y-86126480D01*
X162560000Y-86145855D01*
X162363281Y-86126480D01*
X162174120Y-86069099D01*
X161999788Y-85975917D01*
X161846985Y-85850515D01*
X161721583Y-85697712D01*
X161628401Y-85523381D01*
X161571020Y-85334220D01*
X161556500Y-85186794D01*
X161556500Y-84993207D01*
X161571020Y-84845781D01*
X161628401Y-84656620D01*
X161628402Y-84656617D01*
X161716860Y-84491125D01*
X161721583Y-84482288D01*
X161846985Y-84329485D01*
X161999788Y-84204083D01*
X162174119Y-84110901D01*
X162363280Y-84053520D01*
X162560000Y-84034145D01*
X162756719Y-84053520D01*
G37*
G36*
X160216719Y-84053520D02*
G01*
X160405880Y-84110901D01*
X160405883Y-84110902D01*
X160498333Y-84160318D01*
X160580212Y-84204083D01*
X160733015Y-84329485D01*
X160858417Y-84482288D01*
X160951599Y-84656619D01*
X161008980Y-84845780D01*
X161023500Y-84993206D01*
X161023500Y-85186793D01*
X161008980Y-85334219D01*
X160972280Y-85455204D01*
X160951598Y-85523383D01*
X160920542Y-85581484D01*
X160858417Y-85697712D01*
X160733015Y-85850515D01*
X160580212Y-85975917D01*
X160405881Y-86069099D01*
X160216720Y-86126480D01*
X160020000Y-86145855D01*
X159823281Y-86126480D01*
X159634120Y-86069099D01*
X159459788Y-85975917D01*
X159306985Y-85850515D01*
X159181583Y-85697712D01*
X159088401Y-85523381D01*
X159031020Y-85334220D01*
X159016500Y-85186794D01*
X159016500Y-84993207D01*
X159031020Y-84845781D01*
X159088401Y-84656620D01*
X159088402Y-84656617D01*
X159176860Y-84491125D01*
X159181583Y-84482288D01*
X159306985Y-84329485D01*
X159459788Y-84204083D01*
X159634119Y-84110901D01*
X159823280Y-84053520D01*
X160020000Y-84034145D01*
X160216719Y-84053520D01*
G37*
G36*
X122116719Y-84053520D02*
G01*
X122305880Y-84110901D01*
X122305883Y-84110902D01*
X122398333Y-84160318D01*
X122480212Y-84204083D01*
X122633015Y-84329485D01*
X122758417Y-84482288D01*
X122851599Y-84656619D01*
X122908980Y-84845780D01*
X122923500Y-84993206D01*
X122923500Y-85186793D01*
X122908980Y-85334219D01*
X122872280Y-85455204D01*
X122851598Y-85523383D01*
X122820542Y-85581484D01*
X122758417Y-85697712D01*
X122633015Y-85850515D01*
X122480212Y-85975917D01*
X122305881Y-86069099D01*
X122116720Y-86126480D01*
X121920000Y-86145855D01*
X121723281Y-86126480D01*
X121534120Y-86069099D01*
X121359788Y-85975917D01*
X121206985Y-85850515D01*
X121081583Y-85697712D01*
X120988401Y-85523381D01*
X120931020Y-85334220D01*
X120916500Y-85186794D01*
X120916500Y-84993207D01*
X120931020Y-84845781D01*
X120988401Y-84656620D01*
X120988402Y-84656617D01*
X121076860Y-84491125D01*
X121081583Y-84482288D01*
X121206985Y-84329485D01*
X121359788Y-84204083D01*
X121534119Y-84110901D01*
X121723280Y-84053520D01*
X121920000Y-84034145D01*
X122116719Y-84053520D01*
G37*
G36*
X119576719Y-84053520D02*
G01*
X119765880Y-84110901D01*
X119765883Y-84110902D01*
X119858333Y-84160318D01*
X119940212Y-84204083D01*
X120093015Y-84329485D01*
X120218417Y-84482288D01*
X120311599Y-84656619D01*
X120368980Y-84845780D01*
X120383500Y-84993206D01*
X120383500Y-85186793D01*
X120368980Y-85334219D01*
X120332280Y-85455204D01*
X120311598Y-85523383D01*
X120280542Y-85581484D01*
X120218417Y-85697712D01*
X120093015Y-85850515D01*
X119940212Y-85975917D01*
X119765881Y-86069099D01*
X119576720Y-86126480D01*
X119380000Y-86145855D01*
X119183281Y-86126480D01*
X118994120Y-86069099D01*
X118819788Y-85975917D01*
X118666985Y-85850515D01*
X118541583Y-85697712D01*
X118448401Y-85523381D01*
X118391020Y-85334220D01*
X118376500Y-85186794D01*
X118376500Y-84993207D01*
X118391020Y-84845781D01*
X118448401Y-84656620D01*
X118448402Y-84656617D01*
X118536860Y-84491125D01*
X118541583Y-84482288D01*
X118666985Y-84329485D01*
X118819788Y-84204083D01*
X118994119Y-84110901D01*
X119183280Y-84053520D01*
X119380000Y-84034145D01*
X119576719Y-84053520D01*
G37*
G36*
X158483500Y-86141000D02*
G01*
X156476500Y-86141000D01*
X156476500Y-84039000D01*
X158483500Y-84039000D01*
X158483500Y-86141000D01*
G37*
G36*
X117843500Y-86141000D02*
G01*
X115836500Y-86141000D01*
X115836500Y-84039000D01*
X117843500Y-84039000D01*
X117843500Y-86141000D01*
G37*
G36*
X136015589Y-84328876D02*
G01*
X136114893Y-84348629D01*
X136255206Y-84406748D01*
X136381484Y-84491125D01*
X136488875Y-84598516D01*
X136573252Y-84724794D01*
X136631371Y-84865107D01*
X136661000Y-85014063D01*
X136661000Y-85165937D01*
X136631371Y-85314893D01*
X136573252Y-85455206D01*
X136488875Y-85581484D01*
X136381484Y-85688875D01*
X136255206Y-85773252D01*
X136114893Y-85831371D01*
X136018649Y-85850515D01*
X135965938Y-85861000D01*
X135814062Y-85861000D01*
X135761351Y-85850515D01*
X135665107Y-85831371D01*
X135524794Y-85773252D01*
X135398516Y-85688875D01*
X135291125Y-85581484D01*
X135206748Y-85455206D01*
X135148629Y-85314893D01*
X135119000Y-85165937D01*
X135119000Y-85014063D01*
X135148629Y-84865107D01*
X135206748Y-84724794D01*
X135291125Y-84598516D01*
X135398516Y-84491125D01*
X135524794Y-84406748D01*
X135665107Y-84348629D01*
X135764411Y-84328876D01*
X135814062Y-84319000D01*
X135965938Y-84319000D01*
X136015589Y-84328876D01*
G37*
G36*
X143635589Y-84328876D02*
G01*
X143734893Y-84348629D01*
X143875206Y-84406748D01*
X144001484Y-84491125D01*
X144108875Y-84598516D01*
X144193252Y-84724794D01*
X144251371Y-84865107D01*
X144281000Y-85014063D01*
X144281000Y-85165937D01*
X144251371Y-85314893D01*
X144193252Y-85455206D01*
X144108875Y-85581484D01*
X144001484Y-85688875D01*
X143875206Y-85773252D01*
X143734893Y-85831371D01*
X143638649Y-85850515D01*
X143585938Y-85861000D01*
X143434062Y-85861000D01*
X143381351Y-85850515D01*
X143285107Y-85831371D01*
X143144794Y-85773252D01*
X143018516Y-85688875D01*
X142911125Y-85581484D01*
X142826748Y-85455206D01*
X142768629Y-85314893D01*
X142739000Y-85165937D01*
X142739000Y-85014063D01*
X142768629Y-84865107D01*
X142826748Y-84724794D01*
X142911125Y-84598516D01*
X143018516Y-84491125D01*
X143144794Y-84406748D01*
X143285107Y-84348629D01*
X143384411Y-84328876D01*
X143434062Y-84319000D01*
X143585938Y-84319000D01*
X143635589Y-84328876D01*
G37*
G36*
X144561000Y-77251000D02*
G01*
X142459000Y-77251000D01*
X142459000Y-75149000D01*
X144561000Y-75149000D01*
X144561000Y-77251000D01*
G37*
G36*
X131861000Y-77251000D02*
G01*
X129759000Y-77251000D01*
X129759000Y-75149000D01*
X131861000Y-75149000D01*
X131861000Y-77251000D01*
G37*
G36*
X148816564Y-75189389D02*
G01*
X149007833Y-75268615D01*
X149007835Y-75268616D01*
X149179973Y-75383635D01*
X149326365Y-75530027D01*
X149441385Y-75702167D01*
X149520611Y-75893436D01*
X149561000Y-76096484D01*
X149561000Y-76303516D01*
X149520611Y-76506564D01*
X149441385Y-76697833D01*
X149441384Y-76697835D01*
X149326365Y-76869973D01*
X149179973Y-77016365D01*
X149007835Y-77131384D01*
X149007834Y-77131385D01*
X149007833Y-77131385D01*
X148816564Y-77210611D01*
X148613516Y-77251000D01*
X148406484Y-77251000D01*
X148203436Y-77210611D01*
X148012167Y-77131385D01*
X148012166Y-77131385D01*
X148012165Y-77131384D01*
X147840027Y-77016365D01*
X147693635Y-76869973D01*
X147578616Y-76697835D01*
X147578615Y-76697833D01*
X147499389Y-76506564D01*
X147459000Y-76303516D01*
X147459000Y-76096484D01*
X147499389Y-75893436D01*
X147578615Y-75702167D01*
X147693635Y-75530027D01*
X147840027Y-75383635D01*
X148012165Y-75268616D01*
X148012167Y-75268615D01*
X148203436Y-75189389D01*
X148406484Y-75149000D01*
X148613516Y-75149000D01*
X148816564Y-75189389D01*
G37*
G36*
X136116564Y-75189389D02*
G01*
X136307833Y-75268615D01*
X136307835Y-75268616D01*
X136479973Y-75383635D01*
X136626365Y-75530027D01*
X136741385Y-75702167D01*
X136820611Y-75893436D01*
X136861000Y-76096484D01*
X136861000Y-76303516D01*
X136820611Y-76506564D01*
X136741385Y-76697833D01*
X136741384Y-76697835D01*
X136626365Y-76869973D01*
X136479973Y-77016365D01*
X136307835Y-77131384D01*
X136307834Y-77131385D01*
X136307833Y-77131385D01*
X136116564Y-77210611D01*
X135913516Y-77251000D01*
X135706484Y-77251000D01*
X135503436Y-77210611D01*
X135312167Y-77131385D01*
X135312166Y-77131385D01*
X135312165Y-77131384D01*
X135140027Y-77016365D01*
X134993635Y-76869973D01*
X134878616Y-76697835D01*
X134878615Y-76697833D01*
X134799389Y-76506564D01*
X134759000Y-76303516D01*
X134759000Y-76096484D01*
X134799389Y-75893436D01*
X134878615Y-75702167D01*
X134993635Y-75530027D01*
X135140027Y-75383635D01*
X135312165Y-75268616D01*
X135312167Y-75268615D01*
X135503436Y-75189389D01*
X135706484Y-75149000D01*
X135913516Y-75149000D01*
X136116564Y-75189389D01*
G37*
G36*
X119241000Y-70901000D02*
G01*
X117139000Y-70901000D01*
X117139000Y-68799000D01*
X119241000Y-68799000D01*
X119241000Y-70901000D01*
G37*
G36*
X161469564Y-68839389D02*
G01*
X161660833Y-68918615D01*
X161660835Y-68918616D01*
X161832973Y-69033635D01*
X161979365Y-69180027D01*
X162094385Y-69352167D01*
X162173611Y-69543436D01*
X162214000Y-69746484D01*
X162214000Y-69953516D01*
X162173611Y-70156564D01*
X162094385Y-70347833D01*
X162094384Y-70347835D01*
X161979365Y-70519973D01*
X161832973Y-70666365D01*
X161660835Y-70781384D01*
X161660834Y-70781385D01*
X161660833Y-70781385D01*
X161469564Y-70860611D01*
X161266516Y-70901000D01*
X161059484Y-70901000D01*
X160856436Y-70860611D01*
X160665167Y-70781385D01*
X160665166Y-70781385D01*
X160665165Y-70781384D01*
X160493027Y-70666365D01*
X160346635Y-70519973D01*
X160231616Y-70347835D01*
X160231615Y-70347833D01*
X160152389Y-70156564D01*
X160112000Y-69953516D01*
X160112000Y-69746484D01*
X160152389Y-69543436D01*
X160231615Y-69352167D01*
X160346635Y-69180027D01*
X160493027Y-69033635D01*
X160665165Y-68918616D01*
X160665167Y-68918615D01*
X160856436Y-68839389D01*
X161059484Y-68799000D01*
X161266516Y-68799000D01*
X161469564Y-68839389D01*
G37*
G36*
X157214000Y-70901000D02*
G01*
X155112000Y-70901000D01*
X155112000Y-68799000D01*
X157214000Y-68799000D01*
X157214000Y-70901000D01*
G37*
G36*
X123496564Y-68839389D02*
G01*
X123687833Y-68918615D01*
X123687835Y-68918616D01*
X123859973Y-69033635D01*
X124006365Y-69180027D01*
X124121385Y-69352167D01*
X124200611Y-69543436D01*
X124241000Y-69746484D01*
X124241000Y-69953516D01*
X124200611Y-70156564D01*
X124121385Y-70347833D01*
X124121384Y-70347835D01*
X124006365Y-70519973D01*
X123859973Y-70666365D01*
X123687835Y-70781384D01*
X123687834Y-70781385D01*
X123687833Y-70781385D01*
X123496564Y-70860611D01*
X123293516Y-70901000D01*
X123086484Y-70901000D01*
X122883436Y-70860611D01*
X122692167Y-70781385D01*
X122692166Y-70781385D01*
X122692165Y-70781384D01*
X122520027Y-70666365D01*
X122373635Y-70519973D01*
X122258616Y-70347835D01*
X122258615Y-70347833D01*
X122179389Y-70156564D01*
X122139000Y-69953516D01*
X122139000Y-69746484D01*
X122179389Y-69543436D01*
X122258615Y-69352167D01*
X122373635Y-69180027D01*
X122520027Y-69033635D01*
X122692165Y-68918616D01*
X122692167Y-68918615D01*
X122883436Y-68839389D01*
X123086484Y-68799000D01*
X123293516Y-68799000D01*
X123496564Y-68839389D01*
G37*
G36*
X136116564Y-62489389D02*
G01*
X136307833Y-62568615D01*
X136307835Y-62568616D01*
X136479973Y-62683635D01*
X136626365Y-62830027D01*
X136741385Y-63002167D01*
X136820611Y-63193436D01*
X136861000Y-63396484D01*
X136861000Y-63603516D01*
X136820611Y-63806564D01*
X136741385Y-63997833D01*
X136741384Y-63997835D01*
X136626365Y-64169973D01*
X136479973Y-64316365D01*
X136307835Y-64431384D01*
X136307834Y-64431385D01*
X136307833Y-64431385D01*
X136116564Y-64510611D01*
X135913516Y-64551000D01*
X135706484Y-64551000D01*
X135503436Y-64510611D01*
X135312167Y-64431385D01*
X135312166Y-64431385D01*
X135312165Y-64431384D01*
X135140027Y-64316365D01*
X134993635Y-64169973D01*
X134878616Y-63997835D01*
X134878615Y-63997833D01*
X134799389Y-63806564D01*
X134759000Y-63603516D01*
X134759000Y-63396484D01*
X134799389Y-63193436D01*
X134878615Y-63002167D01*
X134993635Y-62830027D01*
X135140027Y-62683635D01*
X135312165Y-62568616D01*
X135312167Y-62568615D01*
X135503436Y-62489389D01*
X135706484Y-62449000D01*
X135913516Y-62449000D01*
X136116564Y-62489389D01*
G37*
G36*
X144561000Y-64551000D02*
G01*
X142459000Y-64551000D01*
X142459000Y-62449000D01*
X144561000Y-62449000D01*
X144561000Y-64551000D01*
G37*
G36*
X148816564Y-62489389D02*
G01*
X149007833Y-62568615D01*
X149007835Y-62568616D01*
X149179973Y-62683635D01*
X149326365Y-62830027D01*
X149441385Y-63002167D01*
X149520611Y-63193436D01*
X149561000Y-63396484D01*
X149561000Y-63603516D01*
X149520611Y-63806564D01*
X149441385Y-63997833D01*
X149441384Y-63997835D01*
X149326365Y-64169973D01*
X149179973Y-64316365D01*
X149007835Y-64431384D01*
X149007834Y-64431385D01*
X149007833Y-64431385D01*
X148816564Y-64510611D01*
X148613516Y-64551000D01*
X148406484Y-64551000D01*
X148203436Y-64510611D01*
X148012167Y-64431385D01*
X148012166Y-64431385D01*
X148012165Y-64431384D01*
X147840027Y-64316365D01*
X147693635Y-64169973D01*
X147578616Y-63997835D01*
X147578615Y-63997833D01*
X147499389Y-63806564D01*
X147459000Y-63603516D01*
X147459000Y-63396484D01*
X147499389Y-63193436D01*
X147578615Y-63002167D01*
X147693635Y-62830027D01*
X147840027Y-62683635D01*
X148012165Y-62568616D01*
X148012167Y-62568615D01*
X148203436Y-62489389D01*
X148406484Y-62449000D01*
X148613516Y-62449000D01*
X148816564Y-62489389D01*
G37*
G36*
X131861000Y-64551000D02*
G01*
X129759000Y-64551000D01*
X129759000Y-62449000D01*
X131861000Y-62449000D01*
X131861000Y-64551000D01*
G37*
G36*
X161516564Y-56139389D02*
G01*
X161707833Y-56218615D01*
X161707835Y-56218616D01*
X161771267Y-56261000D01*
X161879973Y-56333635D01*
X162026365Y-56480027D01*
X162141385Y-56652167D01*
X162220611Y-56843436D01*
X162261000Y-57046484D01*
X162261000Y-57253516D01*
X162220611Y-57456564D01*
X162141385Y-57647833D01*
X162141384Y-57647835D01*
X162026365Y-57819973D01*
X161879973Y-57966365D01*
X161707835Y-58081384D01*
X161707834Y-58081385D01*
X161707833Y-58081385D01*
X161516564Y-58160611D01*
X161313516Y-58201000D01*
X161106484Y-58201000D01*
X160903436Y-58160611D01*
X160712167Y-58081385D01*
X160712166Y-58081385D01*
X160712165Y-58081384D01*
X160540027Y-57966365D01*
X160393635Y-57819973D01*
X160278616Y-57647835D01*
X160278615Y-57647833D01*
X160199389Y-57456564D01*
X160159000Y-57253516D01*
X160159000Y-57046484D01*
X160199389Y-56843436D01*
X160278615Y-56652167D01*
X160393635Y-56480027D01*
X160540027Y-56333635D01*
X160648733Y-56261000D01*
X160712165Y-56218616D01*
X160712167Y-56218615D01*
X160903436Y-56139389D01*
X161106484Y-56099000D01*
X161313516Y-56099000D01*
X161516564Y-56139389D01*
G37*
G36*
X157261000Y-58201000D02*
G01*
X155159000Y-58201000D01*
X155159000Y-56099000D01*
X157261000Y-56099000D01*
X157261000Y-58201000D01*
G37*
G36*
X123496564Y-56139389D02*
G01*
X123687833Y-56218615D01*
X123687835Y-56218616D01*
X123751267Y-56261000D01*
X123859973Y-56333635D01*
X124006365Y-56480027D01*
X124121385Y-56652167D01*
X124200611Y-56843436D01*
X124241000Y-57046484D01*
X124241000Y-57253516D01*
X124200611Y-57456564D01*
X124121385Y-57647833D01*
X124121384Y-57647835D01*
X124006365Y-57819973D01*
X123859973Y-57966365D01*
X123687835Y-58081384D01*
X123687834Y-58081385D01*
X123687833Y-58081385D01*
X123496564Y-58160611D01*
X123293516Y-58201000D01*
X123086484Y-58201000D01*
X122883436Y-58160611D01*
X122692167Y-58081385D01*
X122692166Y-58081385D01*
X122692165Y-58081384D01*
X122520027Y-57966365D01*
X122373635Y-57819973D01*
X122258616Y-57647835D01*
X122258615Y-57647833D01*
X122179389Y-57456564D01*
X122139000Y-57253516D01*
X122139000Y-57046484D01*
X122179389Y-56843436D01*
X122258615Y-56652167D01*
X122373635Y-56480027D01*
X122520027Y-56333635D01*
X122628733Y-56261000D01*
X122692165Y-56218616D01*
X122692167Y-56218615D01*
X122883436Y-56139389D01*
X123086484Y-56099000D01*
X123293516Y-56099000D01*
X123496564Y-56139389D01*
G37*
G36*
X119241000Y-58201000D02*
G01*
X117139000Y-58201000D01*
X117139000Y-56099000D01*
X119241000Y-56099000D01*
X119241000Y-58201000D01*
G37*
G36*
X133731000Y-56261000D02*
G01*
X130429000Y-56261000D01*
X130429000Y-52959000D01*
X133731000Y-52959000D01*
X133731000Y-56261000D01*
G37*
G36*
X147695256Y-53001298D02*
G01*
X147801579Y-53022447D01*
X148102042Y-53146903D01*
X148372451Y-53327585D01*
X148602415Y-53557549D01*
X148783097Y-53827958D01*
X148907553Y-54128421D01*
X148971000Y-54447391D01*
X148971000Y-54772609D01*
X148907553Y-55091579D01*
X148783097Y-55392042D01*
X148602415Y-55662451D01*
X148372451Y-55892415D01*
X148102042Y-56073097D01*
X147801579Y-56197553D01*
X147695693Y-56218615D01*
X147482611Y-56261000D01*
X147157389Y-56261000D01*
X146944307Y-56218615D01*
X146838421Y-56197553D01*
X146537958Y-56073097D01*
X146267549Y-55892415D01*
X146037585Y-55662451D01*
X145856903Y-55392042D01*
X145732447Y-55091579D01*
X145669000Y-54772609D01*
X145669000Y-54447391D01*
X145732447Y-54128421D01*
X145856903Y-53827958D01*
X146037585Y-53557549D01*
X146267549Y-53327585D01*
X146537958Y-53146903D01*
X146838421Y-53022447D01*
X146944744Y-53001298D01*
X147157389Y-52959000D01*
X147482611Y-52959000D01*
X147695256Y-53001298D01*
G37*
G36*
X142615256Y-53001298D02*
G01*
X142721579Y-53022447D01*
X143022042Y-53146903D01*
X143292451Y-53327585D01*
X143522415Y-53557549D01*
X143703097Y-53827958D01*
X143827553Y-54128421D01*
X143891000Y-54447391D01*
X143891000Y-54772609D01*
X143827553Y-55091579D01*
X143703097Y-55392042D01*
X143522415Y-55662451D01*
X143292451Y-55892415D01*
X143022042Y-56073097D01*
X142721579Y-56197553D01*
X142615693Y-56218615D01*
X142402611Y-56261000D01*
X142077389Y-56261000D01*
X141864307Y-56218615D01*
X141758421Y-56197553D01*
X141457958Y-56073097D01*
X141187549Y-55892415D01*
X140957585Y-55662451D01*
X140776903Y-55392042D01*
X140652447Y-55091579D01*
X140589000Y-54772609D01*
X140589000Y-54447391D01*
X140652447Y-54128421D01*
X140776903Y-53827958D01*
X140957585Y-53557549D01*
X141187549Y-53327585D01*
X141457958Y-53146903D01*
X141758421Y-53022447D01*
X141864744Y-53001298D01*
X142077389Y-52959000D01*
X142402611Y-52959000D01*
X142615256Y-53001298D01*
G37*
G36*
X137535256Y-53001298D02*
G01*
X137641579Y-53022447D01*
X137942042Y-53146903D01*
X138212451Y-53327585D01*
X138442415Y-53557549D01*
X138623097Y-53827958D01*
X138747553Y-54128421D01*
X138811000Y-54447391D01*
X138811000Y-54772609D01*
X138747553Y-55091579D01*
X138623097Y-55392042D01*
X138442415Y-55662451D01*
X138212451Y-55892415D01*
X137942042Y-56073097D01*
X137641579Y-56197553D01*
X137535693Y-56218615D01*
X137322611Y-56261000D01*
X136997389Y-56261000D01*
X136784307Y-56218615D01*
X136678421Y-56197553D01*
X136377958Y-56073097D01*
X136107549Y-55892415D01*
X135877585Y-55662451D01*
X135696903Y-55392042D01*
X135572447Y-55091579D01*
X135509000Y-54772609D01*
X135509000Y-54447391D01*
X135572447Y-54128421D01*
X135696903Y-53827958D01*
X135877585Y-53557549D01*
X136107549Y-53327585D01*
X136377958Y-53146903D01*
X136678421Y-53022447D01*
X136784744Y-53001298D01*
X136997389Y-52959000D01*
X137322611Y-52959000D01*
X137535256Y-53001298D01*
G37*
G36*
X140073870Y-45154786D02*
G01*
X140184779Y-45188430D01*
X140275053Y-45215814D01*
X140279529Y-45217172D01*
X140429597Y-45297385D01*
X140469059Y-45318478D01*
X140635186Y-45454814D01*
X140713912Y-45550743D01*
X140771525Y-45620945D01*
X140872828Y-45810470D01*
X140935214Y-46016129D01*
X140951000Y-46176409D01*
X140951000Y-47803591D01*
X140935214Y-47963871D01*
X140872828Y-48169530D01*
X140771525Y-48359055D01*
X140771523Y-48359058D01*
X140771522Y-48359059D01*
X140635186Y-48525186D01*
X140507583Y-48629906D01*
X140469055Y-48661525D01*
X140279530Y-48762828D01*
X140279527Y-48762829D01*
X140268058Y-48766308D01*
X140073871Y-48825214D01*
X139860000Y-48846278D01*
X139646130Y-48825214D01*
X139451943Y-48766308D01*
X139440474Y-48762829D01*
X139440471Y-48762828D01*
X139250946Y-48661525D01*
X139212418Y-48629906D01*
X139084815Y-48525186D01*
X138948479Y-48359059D01*
X138948478Y-48359058D01*
X138948476Y-48359055D01*
X138847171Y-48169527D01*
X138784786Y-47963874D01*
X138769000Y-47803591D01*
X138769000Y-46176410D01*
X138784786Y-46016130D01*
X138847172Y-45810471D01*
X138948477Y-45620943D01*
X138948478Y-45620941D01*
X139084814Y-45454814D01*
X139250941Y-45318478D01*
X139250942Y-45318477D01*
X139250945Y-45318475D01*
X139440470Y-45217172D01*
X139444947Y-45215814D01*
X139535220Y-45188430D01*
X139646129Y-45154786D01*
X139860000Y-45133722D01*
X140073870Y-45154786D01*
G37*
G36*
X145153870Y-45154786D02*
G01*
X145264779Y-45188430D01*
X145355053Y-45215814D01*
X145359529Y-45217172D01*
X145509597Y-45297385D01*
X145549059Y-45318478D01*
X145715186Y-45454814D01*
X145793912Y-45550743D01*
X145851525Y-45620945D01*
X145952828Y-45810470D01*
X146015214Y-46016129D01*
X146031000Y-46176409D01*
X146031000Y-47803591D01*
X146015214Y-47963871D01*
X145952828Y-48169530D01*
X145851525Y-48359055D01*
X145851523Y-48359058D01*
X145851522Y-48359059D01*
X145715186Y-48525186D01*
X145587583Y-48629906D01*
X145549055Y-48661525D01*
X145359530Y-48762828D01*
X145359527Y-48762829D01*
X145348058Y-48766308D01*
X145153871Y-48825214D01*
X144940000Y-48846278D01*
X144726130Y-48825214D01*
X144531943Y-48766308D01*
X144520474Y-48762829D01*
X144520471Y-48762828D01*
X144330946Y-48661525D01*
X144292418Y-48629906D01*
X144164815Y-48525186D01*
X144028479Y-48359059D01*
X144028478Y-48359058D01*
X144028476Y-48359055D01*
X143927171Y-48169527D01*
X143864786Y-47963874D01*
X143849000Y-47803591D01*
X143849000Y-46176410D01*
X143864786Y-46016130D01*
X143927172Y-45810471D01*
X144028477Y-45620943D01*
X144028478Y-45620941D01*
X144164814Y-45454814D01*
X144330941Y-45318478D01*
X144330942Y-45318477D01*
X144330945Y-45318475D01*
X144520470Y-45217172D01*
X144524947Y-45215814D01*
X144615220Y-45188430D01*
X144726129Y-45154786D01*
X144940000Y-45133722D01*
X145153870Y-45154786D01*
G37*
G36*
X135736217Y-45142808D02*
G01*
X135767489Y-45152294D01*
X135796308Y-45167698D01*
X135821570Y-45188430D01*
X135842302Y-45213692D01*
X135857706Y-45242511D01*
X135867192Y-45273783D01*
X135871000Y-45312448D01*
X135871000Y-48667552D01*
X135867192Y-48706217D01*
X135857706Y-48737489D01*
X135842302Y-48766308D01*
X135821570Y-48791570D01*
X135796308Y-48812302D01*
X135767489Y-48827706D01*
X135736217Y-48837192D01*
X135697552Y-48841000D01*
X133862448Y-48841000D01*
X133823783Y-48837192D01*
X133792511Y-48827706D01*
X133763692Y-48812302D01*
X133738430Y-48791570D01*
X133717698Y-48766308D01*
X133702294Y-48737489D01*
X133692808Y-48706217D01*
X133689000Y-48667552D01*
X133689000Y-45312448D01*
X133692808Y-45273783D01*
X133702294Y-45242511D01*
X133717698Y-45213692D01*
X133738430Y-45188430D01*
X133763692Y-45167698D01*
X133792511Y-45152294D01*
X133823783Y-45142808D01*
X133862448Y-45139000D01*
X135697552Y-45139000D01*
X135736217Y-45142808D01*
G37*
G36*
X114634239Y-40811467D02*
G01*
X114948282Y-40873934D01*
X115539926Y-41119001D01*
X116072392Y-41474784D01*
X116525216Y-41927608D01*
X116880999Y-42460074D01*
X117126066Y-43051718D01*
X117126066Y-43051719D01*
X117251000Y-43679803D01*
X117251000Y-44320197D01*
X117188533Y-44634239D01*
X117126066Y-44948282D01*
X116880999Y-45539926D01*
X116647583Y-45889257D01*
X116559138Y-46021625D01*
X116525216Y-46072392D01*
X116072392Y-46525216D01*
X115539926Y-46880999D01*
X114948282Y-47126066D01*
X114634239Y-47188533D01*
X114320197Y-47251000D01*
X113679803Y-47251000D01*
X113365761Y-47188533D01*
X113051718Y-47126066D01*
X112460074Y-46880999D01*
X111927608Y-46525216D01*
X111474784Y-46072392D01*
X111440863Y-46021625D01*
X111352417Y-45889257D01*
X111119001Y-45539926D01*
X110873934Y-44948282D01*
X110811467Y-44634239D01*
X110749000Y-44320197D01*
X110749000Y-43679803D01*
X110873934Y-43051719D01*
X110873934Y-43051718D01*
X111119001Y-42460074D01*
X111474784Y-41927608D01*
X111927608Y-41474784D01*
X112460074Y-41119001D01*
X113051718Y-40873934D01*
X113365761Y-40811467D01*
X113679803Y-40749000D01*
X114320197Y-40749000D01*
X114634239Y-40811467D01*
G37*
G36*
X166634239Y-40811467D02*
G01*
X166948282Y-40873934D01*
X167539926Y-41119001D01*
X168072392Y-41474784D01*
X168525216Y-41927608D01*
X168880999Y-42460074D01*
X169126066Y-43051718D01*
X169126066Y-43051719D01*
X169251000Y-43679803D01*
X169251000Y-44320197D01*
X169188533Y-44634239D01*
X169126066Y-44948282D01*
X168880999Y-45539926D01*
X168647583Y-45889257D01*
X168559138Y-46021625D01*
X168525216Y-46072392D01*
X168072392Y-46525216D01*
X167539926Y-46880999D01*
X166948282Y-47126066D01*
X166634239Y-47188533D01*
X166320197Y-47251000D01*
X165679803Y-47251000D01*
X165365761Y-47188533D01*
X165051718Y-47126066D01*
X164460074Y-46880999D01*
X163927608Y-46525216D01*
X163474784Y-46072392D01*
X163440863Y-46021625D01*
X163352417Y-45889257D01*
X163119001Y-45539926D01*
X162873934Y-44948282D01*
X162811467Y-44634239D01*
X162749000Y-44320197D01*
X162749000Y-43679803D01*
X162873934Y-43051719D01*
X162873934Y-43051718D01*
X163119001Y-42460074D01*
X163474784Y-41927608D01*
X163927608Y-41474784D01*
X164460074Y-41119001D01*
X165051718Y-40873934D01*
X165365761Y-40811467D01*
X165679803Y-40749000D01*
X166320197Y-40749000D01*
X166634239Y-40811467D01*
G37*
G36*
X122056626Y-44707037D02*
G01*
X122226465Y-44758557D01*
X122226467Y-44758558D01*
X122382989Y-44842221D01*
X122520186Y-44954814D01*
X122603448Y-45056271D01*
X122632778Y-45092009D01*
X122632779Y-45092011D01*
X122715119Y-45246056D01*
X122716443Y-45248534D01*
X122767963Y-45418373D01*
X122781000Y-45550742D01*
X122781000Y-45889257D01*
X122767963Y-46021626D01*
X122716443Y-46191466D01*
X122632778Y-46347991D01*
X122603448Y-46383729D01*
X122520186Y-46485186D01*
X122425250Y-46563097D01*
X122382991Y-46597778D01*
X122226466Y-46681443D01*
X122056627Y-46732963D01*
X121880000Y-46750359D01*
X121703374Y-46732963D01*
X121533535Y-46681443D01*
X121377010Y-46597778D01*
X121239815Y-46485185D01*
X121127222Y-46347991D01*
X121043557Y-46191466D01*
X120992037Y-46021627D01*
X120979000Y-45889258D01*
X120979000Y-45550743D01*
X120980066Y-45539924D01*
X120992037Y-45418376D01*
X120992037Y-45418374D01*
X121043557Y-45248535D01*
X121060321Y-45217172D01*
X121127221Y-45092011D01*
X121239814Y-44954814D01*
X121341271Y-44871552D01*
X121377009Y-44842222D01*
X121533534Y-44758557D01*
X121703373Y-44707037D01*
X121880000Y-44689641D01*
X122056626Y-44707037D01*
G37*
G36*
X124556626Y-44707037D02*
G01*
X124726465Y-44758557D01*
X124726467Y-44758558D01*
X124882989Y-44842221D01*
X125020186Y-44954814D01*
X125103448Y-45056271D01*
X125132778Y-45092009D01*
X125132779Y-45092011D01*
X125215119Y-45246056D01*
X125216443Y-45248534D01*
X125267963Y-45418373D01*
X125281000Y-45550742D01*
X125281000Y-45889257D01*
X125267963Y-46021626D01*
X125216443Y-46191466D01*
X125132778Y-46347991D01*
X125103448Y-46383729D01*
X125020186Y-46485186D01*
X124925250Y-46563097D01*
X124882991Y-46597778D01*
X124726466Y-46681443D01*
X124556627Y-46732963D01*
X124380000Y-46750359D01*
X124203374Y-46732963D01*
X124033535Y-46681443D01*
X123877010Y-46597778D01*
X123739815Y-46485185D01*
X123627222Y-46347991D01*
X123543557Y-46191466D01*
X123492037Y-46021627D01*
X123479000Y-45889258D01*
X123479000Y-45550743D01*
X123480066Y-45539924D01*
X123492037Y-45418376D01*
X123492037Y-45418374D01*
X123543557Y-45248535D01*
X123560321Y-45217172D01*
X123627221Y-45092011D01*
X123739814Y-44954814D01*
X123841271Y-44871552D01*
X123877009Y-44842222D01*
X124033534Y-44758557D01*
X124203373Y-44707037D01*
X124380000Y-44689641D01*
X124556626Y-44707037D01*
G37*
G36*
X157616626Y-44707037D02*
G01*
X157786465Y-44758557D01*
X157786467Y-44758558D01*
X157942989Y-44842221D01*
X158080186Y-44954814D01*
X158163448Y-45056271D01*
X158192778Y-45092009D01*
X158192779Y-45092011D01*
X158275119Y-45246056D01*
X158276443Y-45248534D01*
X158327963Y-45418373D01*
X158341000Y-45550742D01*
X158341000Y-45889257D01*
X158327963Y-46021626D01*
X158276443Y-46191466D01*
X158192778Y-46347991D01*
X158163448Y-46383729D01*
X158080186Y-46485186D01*
X157985250Y-46563097D01*
X157942991Y-46597778D01*
X157786466Y-46681443D01*
X157616627Y-46732963D01*
X157440000Y-46750359D01*
X157263374Y-46732963D01*
X157093535Y-46681443D01*
X156937010Y-46597778D01*
X156799815Y-46485185D01*
X156687222Y-46347991D01*
X156603557Y-46191466D01*
X156552037Y-46021627D01*
X156539000Y-45889258D01*
X156539000Y-45550743D01*
X156540066Y-45539924D01*
X156552037Y-45418376D01*
X156552037Y-45418374D01*
X156603557Y-45248535D01*
X156620321Y-45217172D01*
X156687221Y-45092011D01*
X156799814Y-44954814D01*
X156901271Y-44871552D01*
X156937009Y-44842222D01*
X157093534Y-44758557D01*
X157263373Y-44707037D01*
X157440000Y-44689641D01*
X157616626Y-44707037D01*
G37*
G36*
X160116626Y-44707037D02*
G01*
X160286465Y-44758557D01*
X160286467Y-44758558D01*
X160442989Y-44842221D01*
X160580186Y-44954814D01*
X160663448Y-45056271D01*
X160692778Y-45092009D01*
X160692779Y-45092011D01*
X160775119Y-45246056D01*
X160776443Y-45248534D01*
X160827963Y-45418373D01*
X160841000Y-45550742D01*
X160841000Y-45889257D01*
X160827963Y-46021626D01*
X160776443Y-46191466D01*
X160692778Y-46347991D01*
X160663448Y-46383729D01*
X160580186Y-46485186D01*
X160485250Y-46563097D01*
X160442991Y-46597778D01*
X160286466Y-46681443D01*
X160116627Y-46732963D01*
X159940000Y-46750359D01*
X159763374Y-46732963D01*
X159593535Y-46681443D01*
X159437010Y-46597778D01*
X159299815Y-46485185D01*
X159187222Y-46347991D01*
X159103557Y-46191466D01*
X159052037Y-46021627D01*
X159039000Y-45889258D01*
X159039000Y-45550743D01*
X159040066Y-45539924D01*
X159052037Y-45418376D01*
X159052037Y-45418374D01*
X159103557Y-45248535D01*
X159120321Y-45217172D01*
X159187221Y-45092011D01*
X159299814Y-44954814D01*
X159401271Y-44871552D01*
X159437009Y-44842222D01*
X159593534Y-44758557D01*
X159763373Y-44707037D01*
X159940000Y-44689641D01*
X160116626Y-44707037D01*
G37*
G36*
X120138600Y-44697989D02*
G01*
X120171652Y-44708015D01*
X120202103Y-44724292D01*
X120228799Y-44746201D01*
X120250708Y-44772897D01*
X120266985Y-44803348D01*
X120277011Y-44836400D01*
X120281000Y-44876903D01*
X120281000Y-46563097D01*
X120277011Y-46603600D01*
X120266985Y-46636652D01*
X120250708Y-46667103D01*
X120228799Y-46693799D01*
X120202103Y-46715708D01*
X120171652Y-46731985D01*
X120138600Y-46742011D01*
X120098097Y-46746000D01*
X118661903Y-46746000D01*
X118621400Y-46742011D01*
X118588348Y-46731985D01*
X118557897Y-46715708D01*
X118531201Y-46693799D01*
X118509292Y-46667103D01*
X118493015Y-46636652D01*
X118482989Y-46603600D01*
X118479000Y-46563097D01*
X118479000Y-44876903D01*
X118482989Y-44836400D01*
X118493015Y-44803348D01*
X118509292Y-44772897D01*
X118531201Y-44746201D01*
X118557897Y-44724292D01*
X118588348Y-44708015D01*
X118621400Y-44697989D01*
X118661903Y-44694000D01*
X120098097Y-44694000D01*
X120138600Y-44697989D01*
G37*
G36*
X155698600Y-44697989D02*
G01*
X155731652Y-44708015D01*
X155762103Y-44724292D01*
X155788799Y-44746201D01*
X155810708Y-44772897D01*
X155826985Y-44803348D01*
X155837011Y-44836400D01*
X155841000Y-44876903D01*
X155841000Y-46563097D01*
X155837011Y-46603600D01*
X155826985Y-46636652D01*
X155810708Y-46667103D01*
X155788799Y-46693799D01*
X155762103Y-46715708D01*
X155731652Y-46731985D01*
X155698600Y-46742011D01*
X155658097Y-46746000D01*
X154221903Y-46746000D01*
X154181400Y-46742011D01*
X154148348Y-46731985D01*
X154117897Y-46715708D01*
X154091201Y-46693799D01*
X154069292Y-46667103D01*
X154053015Y-46636652D01*
X154042989Y-46603600D01*
X154039000Y-46563097D01*
X154039000Y-44876903D01*
X154042989Y-44836400D01*
X154053015Y-44803348D01*
X154069292Y-44772897D01*
X154091201Y-44746201D01*
X154117897Y-44724292D01*
X154148348Y-44708015D01*
X154181400Y-44697989D01*
X154221903Y-44694000D01*
X155658097Y-44694000D01*
X155698600Y-44697989D01*
G37*
M02*
