G04 #@! TF.GenerationSoftware,KiCad,Pcbnew,(5.1.5)-3*
G04 #@! TF.CreationDate,2020-03-29T19:39:18+08:00*
G04 #@! TF.ProjectId,317337,33313733-3337-42e6-9b69-6361645f7063,rev?*
G04 #@! TF.SameCoordinates,Original*
G04 #@! TF.FileFunction,Paste,Bot*
G04 #@! TF.FilePolarity,Positive*
%FSLAX46Y46*%
G04 Gerber Fmt 4.6, Leading zero omitted, Abs format (unit mm)*
G04 Created by KiCad (PCBNEW (5.1.5)-3) date 2020-03-29 19:39:18*
%MOMM*%
%LPD*%
G04 APERTURE LIST*
%ADD10C,0.100000*%
G04 APERTURE END LIST*
D10*
G36*
X162820779Y-80361144D02*
G01*
X162843834Y-80364563D01*
X162866443Y-80370227D01*
X162888387Y-80378079D01*
X162909457Y-80388044D01*
X162929448Y-80400026D01*
X162948168Y-80413910D01*
X162965438Y-80429562D01*
X162981090Y-80446832D01*
X162994974Y-80465552D01*
X163006956Y-80485543D01*
X163016921Y-80506613D01*
X163024773Y-80528557D01*
X163030437Y-80551166D01*
X163033856Y-80574221D01*
X163035000Y-80597500D01*
X163035000Y-81172500D01*
X163033856Y-81195779D01*
X163030437Y-81218834D01*
X163024773Y-81241443D01*
X163016921Y-81263387D01*
X163006956Y-81284457D01*
X162994974Y-81304448D01*
X162981090Y-81323168D01*
X162965438Y-81340438D01*
X162948168Y-81356090D01*
X162929448Y-81369974D01*
X162909457Y-81381956D01*
X162888387Y-81391921D01*
X162866443Y-81399773D01*
X162843834Y-81405437D01*
X162820779Y-81408856D01*
X162797500Y-81410000D01*
X162322500Y-81410000D01*
X162299221Y-81408856D01*
X162276166Y-81405437D01*
X162253557Y-81399773D01*
X162231613Y-81391921D01*
X162210543Y-81381956D01*
X162190552Y-81369974D01*
X162171832Y-81356090D01*
X162154562Y-81340438D01*
X162138910Y-81323168D01*
X162125026Y-81304448D01*
X162113044Y-81284457D01*
X162103079Y-81263387D01*
X162095227Y-81241443D01*
X162089563Y-81218834D01*
X162086144Y-81195779D01*
X162085000Y-81172500D01*
X162085000Y-80597500D01*
X162086144Y-80574221D01*
X162089563Y-80551166D01*
X162095227Y-80528557D01*
X162103079Y-80506613D01*
X162113044Y-80485543D01*
X162125026Y-80465552D01*
X162138910Y-80446832D01*
X162154562Y-80429562D01*
X162171832Y-80413910D01*
X162190552Y-80400026D01*
X162210543Y-80388044D01*
X162231613Y-80378079D01*
X162253557Y-80370227D01*
X162276166Y-80364563D01*
X162299221Y-80361144D01*
X162322500Y-80360000D01*
X162797500Y-80360000D01*
X162820779Y-80361144D01*
G37*
G36*
X162820779Y-78611144D02*
G01*
X162843834Y-78614563D01*
X162866443Y-78620227D01*
X162888387Y-78628079D01*
X162909457Y-78638044D01*
X162929448Y-78650026D01*
X162948168Y-78663910D01*
X162965438Y-78679562D01*
X162981090Y-78696832D01*
X162994974Y-78715552D01*
X163006956Y-78735543D01*
X163016921Y-78756613D01*
X163024773Y-78778557D01*
X163030437Y-78801166D01*
X163033856Y-78824221D01*
X163035000Y-78847500D01*
X163035000Y-79422500D01*
X163033856Y-79445779D01*
X163030437Y-79468834D01*
X163024773Y-79491443D01*
X163016921Y-79513387D01*
X163006956Y-79534457D01*
X162994974Y-79554448D01*
X162981090Y-79573168D01*
X162965438Y-79590438D01*
X162948168Y-79606090D01*
X162929448Y-79619974D01*
X162909457Y-79631956D01*
X162888387Y-79641921D01*
X162866443Y-79649773D01*
X162843834Y-79655437D01*
X162820779Y-79658856D01*
X162797500Y-79660000D01*
X162322500Y-79660000D01*
X162299221Y-79658856D01*
X162276166Y-79655437D01*
X162253557Y-79649773D01*
X162231613Y-79641921D01*
X162210543Y-79631956D01*
X162190552Y-79619974D01*
X162171832Y-79606090D01*
X162154562Y-79590438D01*
X162138910Y-79573168D01*
X162125026Y-79554448D01*
X162113044Y-79534457D01*
X162103079Y-79513387D01*
X162095227Y-79491443D01*
X162089563Y-79468834D01*
X162086144Y-79445779D01*
X162085000Y-79422500D01*
X162085000Y-78847500D01*
X162086144Y-78824221D01*
X162089563Y-78801166D01*
X162095227Y-78778557D01*
X162103079Y-78756613D01*
X162113044Y-78735543D01*
X162125026Y-78715552D01*
X162138910Y-78696832D01*
X162154562Y-78679562D01*
X162171832Y-78663910D01*
X162190552Y-78650026D01*
X162210543Y-78638044D01*
X162231613Y-78628079D01*
X162253557Y-78620227D01*
X162276166Y-78614563D01*
X162299221Y-78611144D01*
X162322500Y-78610000D01*
X162797500Y-78610000D01*
X162820779Y-78611144D01*
G37*
G36*
X119640779Y-78611144D02*
G01*
X119663834Y-78614563D01*
X119686443Y-78620227D01*
X119708387Y-78628079D01*
X119729457Y-78638044D01*
X119749448Y-78650026D01*
X119768168Y-78663910D01*
X119785438Y-78679562D01*
X119801090Y-78696832D01*
X119814974Y-78715552D01*
X119826956Y-78735543D01*
X119836921Y-78756613D01*
X119844773Y-78778557D01*
X119850437Y-78801166D01*
X119853856Y-78824221D01*
X119855000Y-78847500D01*
X119855000Y-79422500D01*
X119853856Y-79445779D01*
X119850437Y-79468834D01*
X119844773Y-79491443D01*
X119836921Y-79513387D01*
X119826956Y-79534457D01*
X119814974Y-79554448D01*
X119801090Y-79573168D01*
X119785438Y-79590438D01*
X119768168Y-79606090D01*
X119749448Y-79619974D01*
X119729457Y-79631956D01*
X119708387Y-79641921D01*
X119686443Y-79649773D01*
X119663834Y-79655437D01*
X119640779Y-79658856D01*
X119617500Y-79660000D01*
X119142500Y-79660000D01*
X119119221Y-79658856D01*
X119096166Y-79655437D01*
X119073557Y-79649773D01*
X119051613Y-79641921D01*
X119030543Y-79631956D01*
X119010552Y-79619974D01*
X118991832Y-79606090D01*
X118974562Y-79590438D01*
X118958910Y-79573168D01*
X118945026Y-79554448D01*
X118933044Y-79534457D01*
X118923079Y-79513387D01*
X118915227Y-79491443D01*
X118909563Y-79468834D01*
X118906144Y-79445779D01*
X118905000Y-79422500D01*
X118905000Y-78847500D01*
X118906144Y-78824221D01*
X118909563Y-78801166D01*
X118915227Y-78778557D01*
X118923079Y-78756613D01*
X118933044Y-78735543D01*
X118945026Y-78715552D01*
X118958910Y-78696832D01*
X118974562Y-78679562D01*
X118991832Y-78663910D01*
X119010552Y-78650026D01*
X119030543Y-78638044D01*
X119051613Y-78628079D01*
X119073557Y-78620227D01*
X119096166Y-78614563D01*
X119119221Y-78611144D01*
X119142500Y-78610000D01*
X119617500Y-78610000D01*
X119640779Y-78611144D01*
G37*
G36*
X119640779Y-80361144D02*
G01*
X119663834Y-80364563D01*
X119686443Y-80370227D01*
X119708387Y-80378079D01*
X119729457Y-80388044D01*
X119749448Y-80400026D01*
X119768168Y-80413910D01*
X119785438Y-80429562D01*
X119801090Y-80446832D01*
X119814974Y-80465552D01*
X119826956Y-80485543D01*
X119836921Y-80506613D01*
X119844773Y-80528557D01*
X119850437Y-80551166D01*
X119853856Y-80574221D01*
X119855000Y-80597500D01*
X119855000Y-81172500D01*
X119853856Y-81195779D01*
X119850437Y-81218834D01*
X119844773Y-81241443D01*
X119836921Y-81263387D01*
X119826956Y-81284457D01*
X119814974Y-81304448D01*
X119801090Y-81323168D01*
X119785438Y-81340438D01*
X119768168Y-81356090D01*
X119749448Y-81369974D01*
X119729457Y-81381956D01*
X119708387Y-81391921D01*
X119686443Y-81399773D01*
X119663834Y-81405437D01*
X119640779Y-81408856D01*
X119617500Y-81410000D01*
X119142500Y-81410000D01*
X119119221Y-81408856D01*
X119096166Y-81405437D01*
X119073557Y-81399773D01*
X119051613Y-81391921D01*
X119030543Y-81381956D01*
X119010552Y-81369974D01*
X118991832Y-81356090D01*
X118974562Y-81340438D01*
X118958910Y-81323168D01*
X118945026Y-81304448D01*
X118933044Y-81284457D01*
X118923079Y-81263387D01*
X118915227Y-81241443D01*
X118909563Y-81218834D01*
X118906144Y-81195779D01*
X118905000Y-81172500D01*
X118905000Y-80597500D01*
X118906144Y-80574221D01*
X118909563Y-80551166D01*
X118915227Y-80528557D01*
X118923079Y-80506613D01*
X118933044Y-80485543D01*
X118945026Y-80465552D01*
X118958910Y-80446832D01*
X118974562Y-80429562D01*
X118991832Y-80413910D01*
X119010552Y-80400026D01*
X119030543Y-80388044D01*
X119051613Y-80378079D01*
X119073557Y-80370227D01*
X119096166Y-80364563D01*
X119119221Y-80361144D01*
X119142500Y-80360000D01*
X119617500Y-80360000D01*
X119640779Y-80361144D01*
G37*
G36*
X149064505Y-89351204D02*
G01*
X149088773Y-89354804D01*
X149112572Y-89360765D01*
X149135671Y-89369030D01*
X149157850Y-89379520D01*
X149178893Y-89392132D01*
X149198599Y-89406747D01*
X149216777Y-89423223D01*
X149233253Y-89441401D01*
X149247868Y-89461107D01*
X149260480Y-89482150D01*
X149270970Y-89504329D01*
X149279235Y-89527428D01*
X149285196Y-89551227D01*
X149288796Y-89575495D01*
X149290000Y-89599999D01*
X149290000Y-90250001D01*
X149288796Y-90274505D01*
X149285196Y-90298773D01*
X149279235Y-90322572D01*
X149270970Y-90345671D01*
X149260480Y-90367850D01*
X149247868Y-90388893D01*
X149233253Y-90408599D01*
X149216777Y-90426777D01*
X149198599Y-90443253D01*
X149178893Y-90457868D01*
X149157850Y-90470480D01*
X149135671Y-90480970D01*
X149112572Y-90489235D01*
X149088773Y-90495196D01*
X149064505Y-90498796D01*
X149040001Y-90500000D01*
X148139999Y-90500000D01*
X148115495Y-90498796D01*
X148091227Y-90495196D01*
X148067428Y-90489235D01*
X148044329Y-90480970D01*
X148022150Y-90470480D01*
X148001107Y-90457868D01*
X147981401Y-90443253D01*
X147963223Y-90426777D01*
X147946747Y-90408599D01*
X147932132Y-90388893D01*
X147919520Y-90367850D01*
X147909030Y-90345671D01*
X147900765Y-90322572D01*
X147894804Y-90298773D01*
X147891204Y-90274505D01*
X147890000Y-90250001D01*
X147890000Y-89599999D01*
X147891204Y-89575495D01*
X147894804Y-89551227D01*
X147900765Y-89527428D01*
X147909030Y-89504329D01*
X147919520Y-89482150D01*
X147932132Y-89461107D01*
X147946747Y-89441401D01*
X147963223Y-89423223D01*
X147981401Y-89406747D01*
X148001107Y-89392132D01*
X148022150Y-89379520D01*
X148044329Y-89369030D01*
X148067428Y-89360765D01*
X148091227Y-89354804D01*
X148115495Y-89351204D01*
X148139999Y-89350000D01*
X149040001Y-89350000D01*
X149064505Y-89351204D01*
G37*
G36*
X149064505Y-87301204D02*
G01*
X149088773Y-87304804D01*
X149112572Y-87310765D01*
X149135671Y-87319030D01*
X149157850Y-87329520D01*
X149178893Y-87342132D01*
X149198599Y-87356747D01*
X149216777Y-87373223D01*
X149233253Y-87391401D01*
X149247868Y-87411107D01*
X149260480Y-87432150D01*
X149270970Y-87454329D01*
X149279235Y-87477428D01*
X149285196Y-87501227D01*
X149288796Y-87525495D01*
X149290000Y-87549999D01*
X149290000Y-88200001D01*
X149288796Y-88224505D01*
X149285196Y-88248773D01*
X149279235Y-88272572D01*
X149270970Y-88295671D01*
X149260480Y-88317850D01*
X149247868Y-88338893D01*
X149233253Y-88358599D01*
X149216777Y-88376777D01*
X149198599Y-88393253D01*
X149178893Y-88407868D01*
X149157850Y-88420480D01*
X149135671Y-88430970D01*
X149112572Y-88439235D01*
X149088773Y-88445196D01*
X149064505Y-88448796D01*
X149040001Y-88450000D01*
X148139999Y-88450000D01*
X148115495Y-88448796D01*
X148091227Y-88445196D01*
X148067428Y-88439235D01*
X148044329Y-88430970D01*
X148022150Y-88420480D01*
X148001107Y-88407868D01*
X147981401Y-88393253D01*
X147963223Y-88376777D01*
X147946747Y-88358599D01*
X147932132Y-88338893D01*
X147919520Y-88317850D01*
X147909030Y-88295671D01*
X147900765Y-88272572D01*
X147894804Y-88248773D01*
X147891204Y-88224505D01*
X147890000Y-88200001D01*
X147890000Y-87549999D01*
X147891204Y-87525495D01*
X147894804Y-87501227D01*
X147900765Y-87477428D01*
X147909030Y-87454329D01*
X147919520Y-87432150D01*
X147932132Y-87411107D01*
X147946747Y-87391401D01*
X147963223Y-87373223D01*
X147981401Y-87356747D01*
X148001107Y-87342132D01*
X148022150Y-87329520D01*
X148044329Y-87319030D01*
X148067428Y-87310765D01*
X148091227Y-87304804D01*
X148115495Y-87301204D01*
X148139999Y-87300000D01*
X149040001Y-87300000D01*
X149064505Y-87301204D01*
G37*
G36*
X131284505Y-87301204D02*
G01*
X131308773Y-87304804D01*
X131332572Y-87310765D01*
X131355671Y-87319030D01*
X131377850Y-87329520D01*
X131398893Y-87342132D01*
X131418599Y-87356747D01*
X131436777Y-87373223D01*
X131453253Y-87391401D01*
X131467868Y-87411107D01*
X131480480Y-87432150D01*
X131490970Y-87454329D01*
X131499235Y-87477428D01*
X131505196Y-87501227D01*
X131508796Y-87525495D01*
X131510000Y-87549999D01*
X131510000Y-88200001D01*
X131508796Y-88224505D01*
X131505196Y-88248773D01*
X131499235Y-88272572D01*
X131490970Y-88295671D01*
X131480480Y-88317850D01*
X131467868Y-88338893D01*
X131453253Y-88358599D01*
X131436777Y-88376777D01*
X131418599Y-88393253D01*
X131398893Y-88407868D01*
X131377850Y-88420480D01*
X131355671Y-88430970D01*
X131332572Y-88439235D01*
X131308773Y-88445196D01*
X131284505Y-88448796D01*
X131260001Y-88450000D01*
X130359999Y-88450000D01*
X130335495Y-88448796D01*
X130311227Y-88445196D01*
X130287428Y-88439235D01*
X130264329Y-88430970D01*
X130242150Y-88420480D01*
X130221107Y-88407868D01*
X130201401Y-88393253D01*
X130183223Y-88376777D01*
X130166747Y-88358599D01*
X130152132Y-88338893D01*
X130139520Y-88317850D01*
X130129030Y-88295671D01*
X130120765Y-88272572D01*
X130114804Y-88248773D01*
X130111204Y-88224505D01*
X130110000Y-88200001D01*
X130110000Y-87549999D01*
X130111204Y-87525495D01*
X130114804Y-87501227D01*
X130120765Y-87477428D01*
X130129030Y-87454329D01*
X130139520Y-87432150D01*
X130152132Y-87411107D01*
X130166747Y-87391401D01*
X130183223Y-87373223D01*
X130201401Y-87356747D01*
X130221107Y-87342132D01*
X130242150Y-87329520D01*
X130264329Y-87319030D01*
X130287428Y-87310765D01*
X130311227Y-87304804D01*
X130335495Y-87301204D01*
X130359999Y-87300000D01*
X131260001Y-87300000D01*
X131284505Y-87301204D01*
G37*
G36*
X131284505Y-89351204D02*
G01*
X131308773Y-89354804D01*
X131332572Y-89360765D01*
X131355671Y-89369030D01*
X131377850Y-89379520D01*
X131398893Y-89392132D01*
X131418599Y-89406747D01*
X131436777Y-89423223D01*
X131453253Y-89441401D01*
X131467868Y-89461107D01*
X131480480Y-89482150D01*
X131490970Y-89504329D01*
X131499235Y-89527428D01*
X131505196Y-89551227D01*
X131508796Y-89575495D01*
X131510000Y-89599999D01*
X131510000Y-90250001D01*
X131508796Y-90274505D01*
X131505196Y-90298773D01*
X131499235Y-90322572D01*
X131490970Y-90345671D01*
X131480480Y-90367850D01*
X131467868Y-90388893D01*
X131453253Y-90408599D01*
X131436777Y-90426777D01*
X131418599Y-90443253D01*
X131398893Y-90457868D01*
X131377850Y-90470480D01*
X131355671Y-90480970D01*
X131332572Y-90489235D01*
X131308773Y-90495196D01*
X131284505Y-90498796D01*
X131260001Y-90500000D01*
X130359999Y-90500000D01*
X130335495Y-90498796D01*
X130311227Y-90495196D01*
X130287428Y-90489235D01*
X130264329Y-90480970D01*
X130242150Y-90470480D01*
X130221107Y-90457868D01*
X130201401Y-90443253D01*
X130183223Y-90426777D01*
X130166747Y-90408599D01*
X130152132Y-90388893D01*
X130139520Y-90367850D01*
X130129030Y-90345671D01*
X130120765Y-90322572D01*
X130114804Y-90298773D01*
X130111204Y-90274505D01*
X130110000Y-90250001D01*
X130110000Y-89599999D01*
X130111204Y-89575495D01*
X130114804Y-89551227D01*
X130120765Y-89527428D01*
X130129030Y-89504329D01*
X130139520Y-89482150D01*
X130152132Y-89461107D01*
X130166747Y-89441401D01*
X130183223Y-89423223D01*
X130201401Y-89406747D01*
X130221107Y-89392132D01*
X130242150Y-89379520D01*
X130264329Y-89369030D01*
X130287428Y-89360765D01*
X130311227Y-89354804D01*
X130335495Y-89351204D01*
X130359999Y-89350000D01*
X131260001Y-89350000D01*
X131284505Y-89351204D01*
G37*
G36*
X160280779Y-80361144D02*
G01*
X160303834Y-80364563D01*
X160326443Y-80370227D01*
X160348387Y-80378079D01*
X160369457Y-80388044D01*
X160389448Y-80400026D01*
X160408168Y-80413910D01*
X160425438Y-80429562D01*
X160441090Y-80446832D01*
X160454974Y-80465552D01*
X160466956Y-80485543D01*
X160476921Y-80506613D01*
X160484773Y-80528557D01*
X160490437Y-80551166D01*
X160493856Y-80574221D01*
X160495000Y-80597500D01*
X160495000Y-81172500D01*
X160493856Y-81195779D01*
X160490437Y-81218834D01*
X160484773Y-81241443D01*
X160476921Y-81263387D01*
X160466956Y-81284457D01*
X160454974Y-81304448D01*
X160441090Y-81323168D01*
X160425438Y-81340438D01*
X160408168Y-81356090D01*
X160389448Y-81369974D01*
X160369457Y-81381956D01*
X160348387Y-81391921D01*
X160326443Y-81399773D01*
X160303834Y-81405437D01*
X160280779Y-81408856D01*
X160257500Y-81410000D01*
X159782500Y-81410000D01*
X159759221Y-81408856D01*
X159736166Y-81405437D01*
X159713557Y-81399773D01*
X159691613Y-81391921D01*
X159670543Y-81381956D01*
X159650552Y-81369974D01*
X159631832Y-81356090D01*
X159614562Y-81340438D01*
X159598910Y-81323168D01*
X159585026Y-81304448D01*
X159573044Y-81284457D01*
X159563079Y-81263387D01*
X159555227Y-81241443D01*
X159549563Y-81218834D01*
X159546144Y-81195779D01*
X159545000Y-81172500D01*
X159545000Y-80597500D01*
X159546144Y-80574221D01*
X159549563Y-80551166D01*
X159555227Y-80528557D01*
X159563079Y-80506613D01*
X159573044Y-80485543D01*
X159585026Y-80465552D01*
X159598910Y-80446832D01*
X159614562Y-80429562D01*
X159631832Y-80413910D01*
X159650552Y-80400026D01*
X159670543Y-80388044D01*
X159691613Y-80378079D01*
X159713557Y-80370227D01*
X159736166Y-80364563D01*
X159759221Y-80361144D01*
X159782500Y-80360000D01*
X160257500Y-80360000D01*
X160280779Y-80361144D01*
G37*
G36*
X160280779Y-78611144D02*
G01*
X160303834Y-78614563D01*
X160326443Y-78620227D01*
X160348387Y-78628079D01*
X160369457Y-78638044D01*
X160389448Y-78650026D01*
X160408168Y-78663910D01*
X160425438Y-78679562D01*
X160441090Y-78696832D01*
X160454974Y-78715552D01*
X160466956Y-78735543D01*
X160476921Y-78756613D01*
X160484773Y-78778557D01*
X160490437Y-78801166D01*
X160493856Y-78824221D01*
X160495000Y-78847500D01*
X160495000Y-79422500D01*
X160493856Y-79445779D01*
X160490437Y-79468834D01*
X160484773Y-79491443D01*
X160476921Y-79513387D01*
X160466956Y-79534457D01*
X160454974Y-79554448D01*
X160441090Y-79573168D01*
X160425438Y-79590438D01*
X160408168Y-79606090D01*
X160389448Y-79619974D01*
X160369457Y-79631956D01*
X160348387Y-79641921D01*
X160326443Y-79649773D01*
X160303834Y-79655437D01*
X160280779Y-79658856D01*
X160257500Y-79660000D01*
X159782500Y-79660000D01*
X159759221Y-79658856D01*
X159736166Y-79655437D01*
X159713557Y-79649773D01*
X159691613Y-79641921D01*
X159670543Y-79631956D01*
X159650552Y-79619974D01*
X159631832Y-79606090D01*
X159614562Y-79590438D01*
X159598910Y-79573168D01*
X159585026Y-79554448D01*
X159573044Y-79534457D01*
X159563079Y-79513387D01*
X159555227Y-79491443D01*
X159549563Y-79468834D01*
X159546144Y-79445779D01*
X159545000Y-79422500D01*
X159545000Y-78847500D01*
X159546144Y-78824221D01*
X159549563Y-78801166D01*
X159555227Y-78778557D01*
X159563079Y-78756613D01*
X159573044Y-78735543D01*
X159585026Y-78715552D01*
X159598910Y-78696832D01*
X159614562Y-78679562D01*
X159631832Y-78663910D01*
X159650552Y-78650026D01*
X159670543Y-78638044D01*
X159691613Y-78628079D01*
X159713557Y-78620227D01*
X159736166Y-78614563D01*
X159759221Y-78611144D01*
X159782500Y-78610000D01*
X160257500Y-78610000D01*
X160280779Y-78611144D01*
G37*
G36*
X122180779Y-78611144D02*
G01*
X122203834Y-78614563D01*
X122226443Y-78620227D01*
X122248387Y-78628079D01*
X122269457Y-78638044D01*
X122289448Y-78650026D01*
X122308168Y-78663910D01*
X122325438Y-78679562D01*
X122341090Y-78696832D01*
X122354974Y-78715552D01*
X122366956Y-78735543D01*
X122376921Y-78756613D01*
X122384773Y-78778557D01*
X122390437Y-78801166D01*
X122393856Y-78824221D01*
X122395000Y-78847500D01*
X122395000Y-79422500D01*
X122393856Y-79445779D01*
X122390437Y-79468834D01*
X122384773Y-79491443D01*
X122376921Y-79513387D01*
X122366956Y-79534457D01*
X122354974Y-79554448D01*
X122341090Y-79573168D01*
X122325438Y-79590438D01*
X122308168Y-79606090D01*
X122289448Y-79619974D01*
X122269457Y-79631956D01*
X122248387Y-79641921D01*
X122226443Y-79649773D01*
X122203834Y-79655437D01*
X122180779Y-79658856D01*
X122157500Y-79660000D01*
X121682500Y-79660000D01*
X121659221Y-79658856D01*
X121636166Y-79655437D01*
X121613557Y-79649773D01*
X121591613Y-79641921D01*
X121570543Y-79631956D01*
X121550552Y-79619974D01*
X121531832Y-79606090D01*
X121514562Y-79590438D01*
X121498910Y-79573168D01*
X121485026Y-79554448D01*
X121473044Y-79534457D01*
X121463079Y-79513387D01*
X121455227Y-79491443D01*
X121449563Y-79468834D01*
X121446144Y-79445779D01*
X121445000Y-79422500D01*
X121445000Y-78847500D01*
X121446144Y-78824221D01*
X121449563Y-78801166D01*
X121455227Y-78778557D01*
X121463079Y-78756613D01*
X121473044Y-78735543D01*
X121485026Y-78715552D01*
X121498910Y-78696832D01*
X121514562Y-78679562D01*
X121531832Y-78663910D01*
X121550552Y-78650026D01*
X121570543Y-78638044D01*
X121591613Y-78628079D01*
X121613557Y-78620227D01*
X121636166Y-78614563D01*
X121659221Y-78611144D01*
X121682500Y-78610000D01*
X122157500Y-78610000D01*
X122180779Y-78611144D01*
G37*
G36*
X122180779Y-80361144D02*
G01*
X122203834Y-80364563D01*
X122226443Y-80370227D01*
X122248387Y-80378079D01*
X122269457Y-80388044D01*
X122289448Y-80400026D01*
X122308168Y-80413910D01*
X122325438Y-80429562D01*
X122341090Y-80446832D01*
X122354974Y-80465552D01*
X122366956Y-80485543D01*
X122376921Y-80506613D01*
X122384773Y-80528557D01*
X122390437Y-80551166D01*
X122393856Y-80574221D01*
X122395000Y-80597500D01*
X122395000Y-81172500D01*
X122393856Y-81195779D01*
X122390437Y-81218834D01*
X122384773Y-81241443D01*
X122376921Y-81263387D01*
X122366956Y-81284457D01*
X122354974Y-81304448D01*
X122341090Y-81323168D01*
X122325438Y-81340438D01*
X122308168Y-81356090D01*
X122289448Y-81369974D01*
X122269457Y-81381956D01*
X122248387Y-81391921D01*
X122226443Y-81399773D01*
X122203834Y-81405437D01*
X122180779Y-81408856D01*
X122157500Y-81410000D01*
X121682500Y-81410000D01*
X121659221Y-81408856D01*
X121636166Y-81405437D01*
X121613557Y-81399773D01*
X121591613Y-81391921D01*
X121570543Y-81381956D01*
X121550552Y-81369974D01*
X121531832Y-81356090D01*
X121514562Y-81340438D01*
X121498910Y-81323168D01*
X121485026Y-81304448D01*
X121473044Y-81284457D01*
X121463079Y-81263387D01*
X121455227Y-81241443D01*
X121449563Y-81218834D01*
X121446144Y-81195779D01*
X121445000Y-81172500D01*
X121445000Y-80597500D01*
X121446144Y-80574221D01*
X121449563Y-80551166D01*
X121455227Y-80528557D01*
X121463079Y-80506613D01*
X121473044Y-80485543D01*
X121485026Y-80465552D01*
X121498910Y-80446832D01*
X121514562Y-80429562D01*
X121531832Y-80413910D01*
X121550552Y-80400026D01*
X121570543Y-80388044D01*
X121591613Y-80378079D01*
X121613557Y-80370227D01*
X121636166Y-80364563D01*
X121659221Y-80361144D01*
X121682500Y-80360000D01*
X122157500Y-80360000D01*
X122180779Y-80361144D01*
G37*
M02*
